<?xml version="1.0" encoding="utf-8"?>
<!-- Generator: Adobe Illustrator 23.0.3, SVG Export Plug-In . SVG Version: 6.00 Build 0)  -->
<svg version="1.1" id="Layer_1" xmlns="http://www.w3.org/2000/svg" xmlns:xlink="http://www.w3.org/1999/xlink" x="0px" y="0px"
	 viewBox="0 0 409.6 409.6" style="enable-background:new 0 0 409.6 409.6;" xml:space="preserve">
<title>location-outline</title>
<path d="M188.8,409.6c-8.1-0.8-16.2-1.4-24.2-2.4c-24.3-3-48.1-8-69.8-19.9c-8.4-4.6-16-10.2-21.2-18.4c-7-11.3-6.2-23.4,2.2-33.7
	c8.1-9.9,18.8-15.9,30.3-20.8c15-6.4,30.9-9.9,46.9-12.6c0.6-0.1,1.2-0.3,2.5-0.5c-1.2-1.6-2-2.8-3-4c-17.8-23.5-36-46.6-53.2-70.5
	c-14.3-20-24.7-42-28.5-66.6c-5.1-32.7-0.1-63.7,16.7-92.4c17.5-29.8,43-50.2,75.8-61c20.4-6.8,42.3-8.4,63.5-4.6
	c43.4,7.7,76,31,97.4,69.3c14.4,25.6,18.9,53.5,15.5,82.6c-3.2,27.2-14.3,51.3-29.9,73.2c-16.8,23.5-34.7,46.2-52.2,69.3
	c-1,1.4-2.1,2.7-3.6,4.7c5.4,1,10.3,1.9,15.1,2.9c18.4,4,36.4,9.1,52.3,19.9c8.5,5.8,15.9,12.8,18.5,23.2
	c3.1,12.6-2.4,22.4-11.4,30.5c-12.3,11.1-27.3,16.9-42.8,21.5c-19.9,5.7-40.3,9-61,9.8c-1.3,0.1-2.6,0.4-3.9,0.7L188.8,409.6z
	 M204.9,339.5c1-1.3,2-2.4,2.8-3.6c20.2-26.3,40.3-52.7,60.5-79c14.8-19.4,30.2-38.4,41.1-60.3c23-45.8,21.5-90.5-8.9-132.6
	c-29.3-40.5-83.3-57.6-131.1-42.6C113,39.2,77.7,95,85.9,153.5c3.1,21.7,11.4,42.4,24.2,60.2c16.6,23.5,34.3,46.2,51.6,69.2
	C175.9,301.6,190.3,320.3,204.9,339.5z M209.4,393.8c6.3-0.4,17.3-0.8,28.1-1.8c20.2-2,40-5.8,59-13.5c8.2-3.3,16-7.2,22.5-13.5
	c7.7-7.5,8.1-15,0.2-22c-5.4-4.7-11.4-8.6-17.9-11.7c-17.7-8.6-36.8-12.3-56.1-14.9c-1.4-0.2-3.5,1.1-4.4,2.3
	c-9.4,12.4-18.6,25-27.8,37.6c-5.4,7.4-10.7,7.4-16.1,0c-9.2-12.6-18.5-25.1-27.7-37.7c-1.3-1.8-2.5-2.9-4.9-2.3
	c-14.8,3.4-29.7,6.3-44.2,10.3c-10.5,2.8-20.2,7.9-28.3,15.1c-9,8.2-9,15.9-0.1,24.1c8.7,7.9,19.3,12.2,30.2,15.9
	C148.7,390.6,176.6,393.4,209.4,393.8z"/>
<path d="M204.6,192.1c-30.9-0.2-55.8-25.3-55.8-56.2c0-30.7,25.3-55.8,56.2-55.8c30.7,0,55.8,25.3,55.8,56.2
	C260.8,166.9,235.5,192.1,204.6,192.1z M204.7,176.1c21.8,0,40.1-18.2,40.1-39.9s-18.1-40-39.9-40.1s-40.1,18.2-40.1,39.9
	S183,176.1,204.7,176.1z"/>
<path d="M308.8,133.1c0.2,7.5-2.6,11.6-7.9,11.6c-5.1,0-7.9-3.8-8.1-11.1C292,99,270,67.3,237.9,54.6c-1.4-0.5-2.7-1.1-4-1.7
	c-4.2-2.2-5.8-6.4-4-10.4c1.7-3.8,6.1-5.7,10-4.2c10.1,3.5,19.5,8.6,28,15.1C292.8,72.5,307.8,101.7,308.8,133.1z"/>
<path d="M205.5,48c-4.4-0.2-7.8-3.9-7.6-8.3c0.2-4.2,3.6-7.5,7.8-7.6c4.4-0.1,8,3.4,8.1,7.8s-3.4,8-7.8,8.1
	C205.8,48,205.6,48,205.5,48z"/>
</svg>
