<svg id="Layer_1" data-name="Layer 1" xmlns="http://www.w3.org/2000/svg" xmlns:xlink="http://www.w3.org/1999/xlink" viewBox="0 0 454.63 377.75"><defs><style>.cls-1{fill:url(#linear-gradient);}.cls-2{fill:#25a9e0;}.cls-10,.cls-11,.cls-12,.cls-13,.cls-14,.cls-15,.cls-16,.cls-17,.cls-18,.cls-19,.cls-20,.cls-21,.cls-22,.cls-23,.cls-24,.cls-25,.cls-26,.cls-27,.cls-28,.cls-29,.cls-3,.cls-30,.cls-4,.cls-5,.cls-6,.cls-7,.cls-8,.cls-9{stroke:#fff;stroke-miterlimit:10;stroke-width:0.25px;}.cls-3{fill:url(#linear-gradient-2);}.cls-4{fill:url(#linear-gradient-3);}.cls-5{fill:url(#linear-gradient-4);}.cls-6{fill:url(#linear-gradient-5);}.cls-7{fill:url(#linear-gradient-6);}.cls-8{fill:url(#linear-gradient-7);}.cls-9{fill:url(#linear-gradient-8);}.cls-10{fill:url(#linear-gradient-9);}.cls-11{fill:url(#linear-gradient-10);}.cls-12{fill:url(#linear-gradient-11);}.cls-13{fill:url(#linear-gradient-12);}.cls-14{fill:url(#linear-gradient-13);}.cls-15{fill:url(#linear-gradient-14);}.cls-16{fill:url(#linear-gradient-15);}.cls-17{fill:url(#linear-gradient-16);}.cls-18{fill:url(#linear-gradient-17);}.cls-19{fill:url(#linear-gradient-18);}.cls-20{fill:url(#linear-gradient-19);}.cls-21{fill:url(#linear-gradient-20);}.cls-22{fill:url(#linear-gradient-21);}.cls-23{fill:url(#linear-gradient-22);}.cls-24{fill:url(#linear-gradient-23);}.cls-25{fill:url(#linear-gradient-24);}.cls-26{fill:url(#linear-gradient-25);}.cls-27{fill:url(#linear-gradient-26);}.cls-28{fill:url(#linear-gradient-27);}.cls-29{fill:url(#linear-gradient-28);}.cls-30{fill:url(#linear-gradient-29);}.cls-31{fill:#fff;}</style><linearGradient id="linear-gradient" x1="466.78" y1="387.99" x2="590.51" y2="387.99" gradientUnits="userSpaceOnUse"><stop offset="0" stop-color="#006837"/><stop offset="1" stop-color="lime" stop-opacity="0.9"/></linearGradient><linearGradient id="linear-gradient-2" x1="476.15" y1="316.34" x2="507.29" y2="316.34" xlink:href="#linear-gradient"/><linearGradient id="linear-gradient-3" x1="523.48" y1="386.15" x2="533.35" y2="386.15" xlink:href="#linear-gradient"/><linearGradient id="linear-gradient-4" x1="512.1" y1="337.1" x2="543.39" y2="337.1" xlink:href="#linear-gradient"/><linearGradient id="linear-gradient-5" x1="529.61" y1="311.98" x2="557.31" y2="311.98" xlink:href="#linear-gradient"/><linearGradient id="linear-gradient-6" x1="501.56" y1="311.98" x2="529.22" y2="311.98" xlink:href="#linear-gradient"/><linearGradient id="linear-gradient-7" x1="515.64" y1="352.42" x2="540.33" y2="352.42" xlink:href="#linear-gradient"/><linearGradient id="linear-gradient-8" x1="551.45" y1="316.39" x2="582.54" y2="316.39" xlink:href="#linear-gradient"/><linearGradient id="linear-gradient-9" x1="530.57" y1="330.34" x2="546.91" y2="330.34" xlink:href="#linear-gradient"/><linearGradient id="linear-gradient-10" x1="518.6" y1="364.36" x2="537.85" y2="364.36" xlink:href="#linear-gradient"/><linearGradient id="linear-gradient-11" x1="485.49" y1="319.26" x2="513.24" y2="319.26" xlink:href="#linear-gradient"/><linearGradient id="linear-gradient-12" x1="545.32" y1="319.31" x2="573.24" y2="319.31" xlink:href="#linear-gradient"/><linearGradient id="linear-gradient-13" x1="539.4" y1="321.83" x2="561.63" y2="321.83" xlink:href="#linear-gradient"/><linearGradient id="linear-gradient-14" x1="497.14" y1="321.84" x2="519.18" y2="321.84" xlink:href="#linear-gradient"/><linearGradient id="linear-gradient-15" x1="521.14" y1="374.61" x2="535.5" y2="374.61" xlink:href="#linear-gradient"/><linearGradient id="linear-gradient-16" x1="525.54" y1="306.51" x2="533.34" y2="306.51" xlink:href="#linear-gradient"/><linearGradient id="linear-gradient-17" x1="527.89" y1="329.63" x2="530.98" y2="329.63" xlink:href="#linear-gradient"/><linearGradient id="linear-gradient-18" x1="528.13" y1="346.06" x2="530.67" y2="346.06" xlink:href="#linear-gradient"/><linearGradient id="linear-gradient-19" x1="508.15" y1="323.39" x2="525.5" y2="323.39" xlink:href="#linear-gradient"/><linearGradient id="linear-gradient-20" x1="533.24" y1="323.41" x2="550.65" y2="323.41" xlink:href="#linear-gradient"/><linearGradient id="linear-gradient-21" x1="528.3" y1="358.78" x2="530.5" y2="358.78" xlink:href="#linear-gradient"/><linearGradient id="linear-gradient-22" x1="528.43" y1="369.56" x2="530.27" y2="369.56" xlink:href="#linear-gradient"/><linearGradient id="linear-gradient-23" x1="527.84" y1="315.84" x2="531.03" y2="315.84" xlink:href="#linear-gradient"/><linearGradient id="linear-gradient-24" x1="526.73" y1="311.48" x2="532.19" y2="311.48" xlink:href="#linear-gradient"/><linearGradient id="linear-gradient-25" x1="528.66" y1="379.55" x2="530.11" y2="379.55" xlink:href="#linear-gradient"/><linearGradient id="linear-gradient-26" x1="529.53" y1="322.04" x2="533.3" y2="322.04" xlink:href="#linear-gradient"/><linearGradient id="linear-gradient-27" x1="525.98" y1="321.96" x2="529.21" y2="321.96" xlink:href="#linear-gradient"/><linearGradient id="linear-gradient-28" x1="523.79" y1="322.82" x2="524.62" y2="322.82" xlink:href="#linear-gradient"/><linearGradient id="linear-gradient-29" x1="534.64" y1="322.8" x2="535.43" y2="322.8" xlink:href="#linear-gradient"/></defs><title>logo</title><path class="cls-1" d="M590.51,370.78c-50.45,0-70.34,40.24-77.73,64.26-1.47,4.76-2.44,8.89-3.07,11.93l-1,.16V410.58h-42V380.45c1.41-.72,2.75-1.47,4.19-2.16-1.41.66-2.82,1.32-4.19,2v-9.49h42V328.84h39.8v41.94Z" transform="translate(-291.12 -302.46)"/><path class="cls-2" d="M471,378.29c-1.44.69-2.78,1.44-4.19,2.16v-.18C468.15,379.61,469.56,379,471,378.29Z" transform="translate(-291.12 -302.46)"/><path class="cls-3" d="M476.15,317c2.74-.37,5.51-.54,8.2-1.13,5.27-1.15,10.48-2.53,15.72-3.81l.53-.13a3.47,3.47,0,0,0,2.8,2.38c1.24.29,2.5.44,3.89.67a8.82,8.82,0,0,1-.8.41c-6.19,2.48-12.49,4.62-19.17,5.23a30.15,30.15,0,0,1-6.57-.28,6.35,6.35,0,0,1-4.6-2.95Z" transform="translate(-291.12 -302.46)"/><path class="cls-4" d="M529.34,396.5l-.47-4.43c-3.46-1.29-4.37-4.78-1.89-7.63l1.42.61a4.07,4.07,0,0,0-1.41,4.72,2.45,2.45,0,0,0,1.83,1.71v-6.16l1-.05v6.53a8.44,8.44,0,0,0,1.73-1.3,3.79,3.79,0,0,0-1.67-5.67c-.92-.35-1.91-.53-2.82-.89-3.42-1.34-4.66-5-2.71-7.81.06-.08.11-.17.21-.32l2.48.87a3,3,0,0,0-1.32,3.6,3.56,3.56,0,0,0,2.2,2.12c.65.3,1.37.48,2,.74a4.77,4.77,0,0,1,3.33,4.94c-.1,2.4-1.11,3.54-3.52,3.93l-.29,4.49Z" transform="translate(-291.12 -302.46)"/><path class="cls-5" d="M539.13,352.74l-4.85-2.48a23.77,23.77,0,0,0,2.36-.95c1.1-.58,2.29-1.16,2.39-2.65a3.91,3.91,0,0,0-2.25-3.76c-2.41-1.39-5.1-1.38-7.76-1.59s-5.12-.38-7.64-.83a12.49,12.49,0,0,1-7.52-4.41,8.77,8.77,0,0,1,1.44-12,13.9,13.9,0,0,1,8.85-2.56c1.84,0,3.12,1.39,4.3,2.94a4.85,4.85,0,0,1-1,1,6.1,6.1,0,0,1-4.85.65c-2.89-.89-4.8.28-5.37,3.27-.53,2.81.12,4.15,2.66,5.46a18.7,18.7,0,0,0,8.33,1.77,26.63,26.63,0,0,1,8.17,1.19c3.2,1.11,5.75,2.92,6.71,6.39A7,7,0,0,1,539.13,352.74Zm-15-30.35-.24,0c0,.18-.18.41-.11.54s.33.13.81.3Z" transform="translate(-291.12 -302.46)"/><path class="cls-6" d="M557.31,311.81a14.88,14.88,0,0,1-2.13,1.42c-2.64,1.17-5.4,1-8.16.52a14.52,14.52,0,0,0-3-.29l2.77,1c-1.72,2.82-4.37,1.89-6.89,1.8l2,.84-3.37,2.08-2.7-.25,1.1.83h-7.36l1.49-3.07c.77-.1,1.36-.14,1.94-.25a4.66,4.66,0,0,0,4.18-4.43,28.39,28.39,0,0,0,0-3.06,17,17,0,0,1,0-2.26,2.72,2.72,0,0,1,2.79-2.55,12.72,12.72,0,0,1,3.8.43c4.77,1.45,9,4,13.13,6.72C557.05,311.35,557.07,311.43,557.31,311.81Z" transform="translate(-291.12 -302.46)"/><path class="cls-7" d="M501.56,311.4c4.69-2.87,9.21-5.83,14.56-7.13a5.26,5.26,0,0,1,.78-.12c3.68-.31,5.11,1.22,4.67,4.9a11.46,11.46,0,0,0,0,3c.43,2.86,2.11,4.33,5,4.52.29,0,.59,0,1,0l1.61,3.24h-7.15l-.06-.23,1-.65-2.83.24-3.35-2.09,2-.81,0-.22c-1,.12-2,.18-3,.38a2.76,2.76,0,0,1-2.61-.78c-.4-.38-.86-.69-1.43-1.13l3-1.09-.06-.21c-1,.17-2,.35-3,.51a14.33,14.33,0,0,1-8.07-.51A3.11,3.11,0,0,1,501.56,311.4Z" transform="translate(-291.12 -302.46)"/><path class="cls-8" d="M537.33,364.3l-3.87-2.08.76-.3c1.13-.43,2.32-.88,2.44-2.28a3.64,3.64,0,0,0-1.95-3.9,10.11,10.11,0,0,0-3.28-.93c-1.6-.19-3.22-.06-4.83-.19a15.14,15.14,0,0,1-8.2-2.78c-3.58-2.73-3.67-8.66-.31-11.3l5.61,1.62a5.82,5.82,0,0,0-.83.41,11.48,11.48,0,0,0-2.1,1.59,2.88,2.88,0,0,0,.7,4.64,13.51,13.51,0,0,0,6.57,1.87,38.3,38.3,0,0,1,6.62.84,7.52,7.52,0,0,1,5.66,7.37A5.61,5.61,0,0,1,537.33,364.3Z" transform="translate(-291.12 -302.46)"/><path class="cls-9" d="M551.45,315c1.41-.23,2.67-.37,3.9-.65a3.47,3.47,0,0,0,2.82-2.41,133.31,133.31,0,0,0,24.37,5.2,4.54,4.54,0,0,1-.37.58,10.17,10.17,0,0,1-8.12,3.1,54.8,54.8,0,0,1-13.89-2.72c-2.61-.8-5.16-1.77-7.74-2.67C552.13,315.33,551.85,315.18,551.45,315Z" transform="translate(-291.12 -302.46)"/><path class="cls-10" d="M530.57,324.59c1.34-2.31,3.43-3.43,5.75-3a25.94,25.94,0,0,1,5.33,1.3c6.1,2.4,7.1,10.93,1.89,14.83-.74.55-1.51,1.05-2.19,1.52L535,336.27c.73-.2,1.51-.37,2.25-.65s1.7-.72,2.52-1.12c3.55-1.73,2.47-7-.11-8.37a3.17,3.17,0,0,0-2.84-.14,5.92,5.92,0,0,1-4.79-.31A8.4,8.4,0,0,1,530.57,324.59Zm4.5-2.2-.32,0c0,.19-.16.44-.09.56s.35.12.77.23Z" transform="translate(-291.12 -302.46)"/><path class="cls-11" d="M534.64,374.74l-3.22-1.28c.59-.31,1.23-.58,1.81-1a3.35,3.35,0,0,0-.46-6.07,12.32,12.32,0,0,0-4.23-.62,16.14,16.14,0,0,1-6.07-1.08A6.61,6.61,0,0,1,520.59,354l4.09,1.39c-.27.2-.51.39-.76.56a3.78,3.78,0,0,0-1.55,3.73,2.42,2.42,0,0,0,1.2,1.64,19.69,19.69,0,0,0,4.14,1.14c1.58.27,3.24.13,4.79.5a6.66,6.66,0,0,1,5.2,5.36A5.73,5.73,0,0,1,534.64,374.74Z" transform="translate(-291.12 -302.46)"/><path class="cls-12" d="M485.49,321.8a79.15,79.15,0,0,0,16.85-4.18c2.09-.76,4.13-1.71,6.18-2.58a2.62,2.62,0,0,1,2.94.43l1.78,1.52C507.64,322.89,490.26,326,485.49,321.8Z" transform="translate(-291.12 -302.46)"/><path class="cls-13" d="M573.24,321.82a18.3,18.3,0,0,1-6.62,1.91c-5.27.59-10.09-1-14.77-3.13-2.21-1-4.3-2.23-6.53-3.41.86-.73,1.49-1.33,2.18-1.85a2.57,2.57,0,0,1,2.87-.25,77.78,77.78,0,0,0,21.45,6.49Z" transform="translate(-291.12 -302.46)"/><path class="cls-14" d="M561.63,324.55a5.94,5.94,0,0,1-3.26,1.39,15,15,0,0,1-8.53-.94c-3.47-1.55-6.84-3.36-10.44-5.15a8.7,8.7,0,0,1,4.34-2.35,1.71,1.71,0,0,1,1,.24,49.91,49.91,0,0,0,16.78,6.66S561.58,324.45,561.63,324.55Z" transform="translate(-291.12 -302.46)"/><path class="cls-15" d="M519.1,319.81c-4.16,2.23-8.08,5-12.81,6a13.53,13.53,0,0,1-7.41-.25,6.68,6.68,0,0,1-1.74-1,43.71,43.71,0,0,0,10.24-3.34c2.11-1,4.18-2.07,6.21-3.22a2.4,2.4,0,0,1,2.33-.26c1.11.53,2.17,1.17,3.26,1.76Z" transform="translate(-291.12 -302.46)"/><path class="cls-16" d="M532.52,383.64l-2-.92c.53-.31,1-.55,1.42-.83a3,3,0,0,0,1.39-3.23,2.53,2.53,0,0,0-2.26-2.16c-1.25-.25-2.57-.25-3.79-.59a12.83,12.83,0,0,1-3.5-1.51,5.92,5.92,0,0,1-1.19-8.82l3,1.06-.58.67c-1.53,1.84-1.29,3.89.73,5.13a12.06,12.06,0,0,0,3,1.17c.94.27,2,.3,2.9.55a5,5,0,0,1,3.82,4.17A5.08,5.08,0,0,1,532.52,383.64Z" transform="translate(-291.12 -302.46)"/><path class="cls-17" d="M525.54,306.54a3.9,3.9,0,1,1,3.87,3.9A3.9,3.9,0,0,1,525.54,306.54Z" transform="translate(-291.12 -302.46)"/><path class="cls-18" d="M529.41,323.61c.83,1.88,1.72,3.51,1.54,5.56s0,4.26,0,6.49H528v-3.32c0-1.22.08-2.45,0-3.65C527.73,326.82,528.72,325.36,529.41,323.61Z" transform="translate(-291.12 -302.46)"/><path class="cls-19" d="M530.67,342.21v7.71h-2.54v-7.71Z" transform="translate(-291.12 -302.46)"/><path class="cls-20" d="M525.5,321a6,6,0,0,1-1,.05,13.54,13.54,0,0,0-11,3.66,16.63,16.63,0,0,0-1.59,2l-3.77-.58,11.76-6,5.56.55Z" transform="translate(-291.12 -302.46)"/><path class="cls-21" d="M550.65,326.13l-4,.6c-2.16-3.89-5.7-5.35-9.81-5.76a21.89,21.89,0,0,0-2.55.13,6.64,6.64,0,0,1-1.07-.18l0-.28,5.6-.55Z" transform="translate(-291.12 -302.46)"/><path class="cls-22" d="M528.3,355.4h2.2v6.75h-2.2Z" transform="translate(-291.12 -302.46)"/><path class="cls-23" d="M528.43,366.18h1.84v6.75h-1.84Z" transform="translate(-291.12 -302.46)"/><path class="cls-24" d="M529.41,318.69c-.78-1.51-1.78-2.73-1.53-4.44.13-.91.46-1.25,1.51-1.25s1.46.37,1.59,1.21C531.25,316,530.25,317.21,529.41,318.69Z" transform="translate(-291.12 -302.46)"/><path class="cls-25" d="M526.73,310.25a7.61,7.61,0,0,0,5.46,0,2.66,2.66,0,0,1-2.91,2.47A2.5,2.5,0,0,1,526.73,310.25Z" transform="translate(-291.12 -302.46)"/><path class="cls-26" d="M528.66,376.81h1.45v5.49h-1.45Z" transform="translate(-291.12 -302.46)"/><path class="cls-27" d="M529.86,320.19l3.44,1-3.25,2.66-.52-3.4Z" transform="translate(-291.12 -302.46)"/><path class="cls-28" d="M528.87,323.57,526,321.33c.76-1,1.89-.89,3.23-1Z" transform="translate(-291.12 -302.46)"/><path class="cls-29" d="M524.16,322.39l.46.87c-.48-.17-.75-.18-.81-.3s.06-.36.11-.54Z" transform="translate(-291.12 -302.46)"/><path class="cls-30" d="M535.07,322.39l.36.82c-.42-.11-.69-.11-.77-.23s.05-.37.09-.56Z" transform="translate(-291.12 -302.46)"/><path class="cls-31" d="M387.51,612.45a12.27,12.27,0,0,1-1.31-.56c-6.8-20.39-19-37-36.27-50.33l-15.41,12.53c-6.13,5-12.3,10-18.54,15.09,3.07,2.32,5.95,4.39,8.74,6.61,10.93,8.61,20.26,18.6,26.53,31.22a57.26,57.26,0,0,1,5.45,16.07l-.66.12c-11.09-19.32-25.81-34.66-44.66-45.91a137.76,137.76,0,0,0-12.78-6.7c3.48-2.82,6.92-5.64,10.4-8.39s6.77-5.45,10.15-8.11q15-11.94,30.09-23.58a103.26,103.26,0,0,1,19.51,18.79,96.12,96.12,0,0,1,12.44,20.16c.28.6.34,1.35,1,1.73a2.45,2.45,0,0,1-.06.43A76.38,76.38,0,0,1,387.51,612.45Z" transform="translate(-291.12 -302.46)"/><path class="cls-31" d="M387.58,613.08c-.19.4,0,1-.57,1.25-.25-.82-.5-1.63-.81-2.44a12.27,12.27,0,0,0,1.31.56C387.54,612.67,387.54,612.86,387.58,613.08Z" transform="translate(-291.12 -302.46)"/><path class="cls-31" d="M408,594.88c0,.16,0,.28-.06.41a1.89,1.89,0,0,0,0-.41l-1.5-.84a10.33,10.33,0,0,0-3.54-1.73c-6.8-2.35-13.75-2.09-20.73-1.12a2.45,2.45,0,0,1-.06.43c2.31.29,4.63.44,6.92.85,7.45,1.32,12.77,6.51,13.34,13.18a21.12,21.12,0,0,1-2,10.5,31.84,31.84,0,0,1-1.7,3.41c-4.63,8.17-11.24,14.53-18.85,19.89a83,83,0,0,1-22,11.39,65.68,65.68,0,0,1-16.26,3.32c-6.35.47-12.62-.12-18-4-1.19-.87-2.22-2-3.41-3.06a2.17,2.17,0,0,0,.09,1.66c2.1,6.35,7,9.45,13.06,11.08,7.83,2.1,15.63,1.32,23.34-.53a89.92,89.92,0,0,0,12.49-3.95h0a92.86,92.86,0,0,0,32.2-21.42,51.36,51.36,0,0,0,11.21-16.41c.31-.81.62-1.63.91-2.47C416.23,606.94,414.23,599.52,408,594.88Zm-.12.85,0,0a.74.74,0,0,1,.16.12Z" transform="translate(-291.12 -302.46)"/><path class="cls-31" d="M347.52,639.76c-.19.37-.53.31-.84.28a74.48,74.48,0,0,0-16.88-9c-3.45-1.34-7-2.47-10.56-3.47A150.35,150.35,0,0,0,291.12,623c4.82-8.43,9.49-16.6,14.25-24.9l5.51,2.82c-2.79,4.69-5.32,9.39-7.77,14.47a71.34,71.34,0,0,1,18.29,5.07A73.51,73.51,0,0,1,347.52,639.76Z" transform="translate(-291.12 -302.46)"/><path class="cls-31" d="M374.67,607.69a11.55,11.55,0,1,1-22.89-3,11.35,11.35,0,0,1,12.71-9.92,12.08,12.08,0,0,1,3.48,1v0a11.34,11.34,0,0,1,6.64,8.55A10.89,10.89,0,0,1,374.67,607.69Z" transform="translate(-291.12 -302.46)"/><path class="cls-31" d="M528.63,578.41q0,36.36-28.09,60.41t-79.42,24a175.36,175.36,0,0,1-40-4.2A70.68,70.68,0,0,1,339.25,666a27.16,27.16,0,0,1-11.68-4.35.31.31,0,0,0,0-.28c2,.18,3.7,1.19,5.58,1.66,10.58,2.63,20.95,1.12,31.12-2a104.48,104.48,0,0,0,10.62-3.91,97,97,0,0,0,27.72-18.14c6.48-6,11.87-12.74,14.93-21.17a1,1,0,0,0,.07-.15,25.53,25.53,0,0,0,.06-18.45,4.87,4.87,0,0,1,.69.13c3.38,5,3.91,10.52,3.1,16.31-.1.69-.22,1.35-.38,2,12.4-.13,22.52-1.57,30.41-4.26q23.73-8.31,23.71-30.79,0-13.16-11.62-20.35t-36.83-12.44L398,543.49q-42.36-9.35-58.21-20.32Q313,504.8,313,465.73q0-35.66,26.24-59.22t77.07-23.58a135.85,135.85,0,0,1,36.14,4.7c-24.61,13.56-42.46,28.31-50.14,41.9q-15,1.59-24.89,8.11-13.11,8.64-13.12,24.11,0,14.24,12.93,21.27c5.51,3.1,17.29,6.76,35.23,11L459,505q30.63,7.18,45.91,19.26Q528.64,543,528.63,578.41Z" transform="translate(-291.12 -302.46)"/><path class="cls-31" d="M350.5,644.27c-.54.59-1.23.06-1.82.22-1-.16-2-.28-3-.38a.09.09,0,0,0-.06,0c-15-1.57-29.25,2-43.53,7,.69-8,1.38-15.69,2-23.4,1.76-.47,3.36,0,5.2-.09-.56,4.51-.69,8.83-.84,13.59a58.62,58.62,0,0,1,32.6-.31s0,0,.06,0A71.61,71.61,0,0,1,350.5,644.27Z" transform="translate(-291.12 -302.46)"/><path class="cls-31" d="M349,641.57a4.72,4.72,0,0,1-2.28-1.53c.31,0,.65.09.84-.28C348.05,640.2,348.8,640.51,349,641.57Z" transform="translate(-291.12 -302.46)"/><path class="cls-31" d="M352.22,645c-1.29.06-2.51.22-3.54-.53.59-.16,1.28.37,1.82-.22C351.06,644.52,351.62,644.77,352.22,645Z" transform="translate(-291.12 -302.46)"/><path class="cls-31" d="M356.7,644.24c-.54-.16-.57-.63-.66-1l.66-.12C357,643.45,357.14,643.83,356.7,644.24Z" transform="translate(-291.12 -302.46)"/><path class="cls-31" d="M348.33,680.21l-.46-.48C348.15,679.77,348.44,679.8,348.33,680.21Z" transform="translate(-291.12 -302.46)"/><path class="cls-31" d="M558.88,659.39a4.34,4.34,0,0,0,8.67,0,4.25,4.25,0,0,0-2.41-3.85h-3.82A4.28,4.28,0,0,0,558.88,659.39Zm4.34-3.17A3.18,3.18,0,1,1,560,659.4,3.19,3.19,0,0,1,563.22,656.22Z" transform="translate(-291.12 -302.46)"/><path class="cls-31" d="M611.08,660.35a.95.95,0,1,0-1-1A.95.95,0,0,0,611.08,660.35Z" transform="translate(-291.12 -302.46)"/><path class="cls-31" d="M611.08,663.72a4.33,4.33,0,1,0-4.32-4.33A4.34,4.34,0,0,0,611.08,663.72Zm0-7.5a3.18,3.18,0,1,1-3.18,3.18A3.19,3.19,0,0,1,611.08,656.22Z" transform="translate(-291.12 -302.46)"/><path class="cls-31" d="M563.22,660.35a.95.95,0,1,0-1-1A1,1,0,0,0,563.22,660.35Z" transform="translate(-291.12 -302.46)"/><path class="cls-31" d="M563.23,655.07a4,4,0,0,0-1.91.47h3.82A3.94,3.94,0,0,0,563.23,655.07Z" transform="translate(-291.12 -302.46)"/><path class="cls-31" d="M722.32,410.74c-10.43-9.15-23.3-15.16-38.49-18.2,7.55-9.42,10.75-18.54,8.46-26.55-5.79-20.61-45.72-28.5-98.37-22.4C636,339.9,667.33,347,672.12,364c2.22,7.89-1.53,16.94-10,26.28-18,20-57.53,41.18-105.91,54.83l-1.54.44V417.75h42V378c-17.54,0-31.38,4.88-42.31,12.27a71,71,0,0,0-8.77,7c-17.07,15.81-24.93,37.73-28.34,51-.57,2.29-1,4.29-1.38,6-18.82,3.1-36.23,4.29-51.14,3.67-27.22-1.16-46.07-8.36-49.7-21.24a17.37,17.37,0,0,1-.35-7.51c1.95-12.72,16.29-27.44,38.84-41.15,4.16-2.54,8.61-5,13.28-7.46v-.18c-5,2.41-9.77,4.85-14.35,7.36-24.61,13.56-42.46,28.31-50.14,41.9-3.85,6.79-5.16,13.34-3.47,19.29,6.23,22.08,51.64,29.56,109.89,20.86,3.73-.54,7.52-1.19,11.37-1.88,8.3-1.51,16.81-3.29,25.49-5.42V581.79l3.19.72a2.3,2.3,0,0,1,1.76,2.19v26.22h4.66v-7.27a2.24,2.24,0,0,1,2.23-2.22h43.25V560.15H655.9q43.22,0,66.55-19.45t23.3-66.42Q745.75,431.25,722.32,410.74Zm-42.21,94.14q-10.53,9.52-29.5,9.55h-50V444.87c6.92-2.75,13.59-5.6,19.94-8.58h30q19,0,29.5,8.83t10.55,29.5Q690.66,495.34,680.11,504.88Z" transform="translate(-291.12 -302.46)"/><path class="cls-31" d="M555.18,603.65v7.27h-4.66V584.7a2.3,2.3,0,0,0-1.76-2.19l-3.19-.72L537,579.91a3.93,3.93,0,0,0-3.48-2.1,4,4,0,1,0,0,8,4,4,0,0,0,3-1.38l9.05,2v69.15h15.75a4.12,4.12,0,0,1,3.82,0h35.52v-1.22h5.16a7.3,7.3,0,1,0,12.56,5.07,7.21,7.21,0,0,0-2.07-5.07h7.14a2.21,2.21,0,0,0,2.23-2.22,2.24,2.24,0,0,0-2.23-2.23H550.52V631.93h4.66v10a2.24,2.24,0,0,0,2.23,2.25h64.82a2.24,2.24,0,0,0,2.26-2.25V603.65a2.24,2.24,0,0,0-2.26-2.22H557.41A2.24,2.24,0,0,0,555.18,603.65Zm55.9,51.42a4.33,4.33,0,1,1-4.32,4.32A4.34,4.34,0,0,1,611.08,655.07Zm-55.9-26.15h-4.66v-15h4.66Zm60.63-23H620v33.79h-4.2Zm-7,0h4v33.79h-4Zm-7,0h4v33.79h-4Zm-7,0h4v33.79h-4Zm-7,0h4v33.79h-4Zm-7,0h4v33.79h-4Zm-7,0h4v33.79h-4Zm-7,0h4v33.79h-4Zm-7.17,0h4.2v33.79h-4.2Z" transform="translate(-291.12 -302.46)"/><path class="cls-31" d="M611.08,662.58a3.18,3.18,0,1,0-3.18-3.18A3.19,3.19,0,0,0,611.08,662.58Zm0-4.13a1,1,0,1,1-1,.95A.95.95,0,0,1,611.08,658.45Z" transform="translate(-291.12 -302.46)"/><path class="cls-31" d="M563.22,662.58A3.18,3.18,0,1,0,560,659.4,3.19,3.19,0,0,0,563.22,662.58Zm0-4.13a1,1,0,1,1-1,.95A1,1,0,0,1,563.22,658.45Z" transform="translate(-291.12 -302.46)"/><path class="cls-31" d="M567.55,659.39a4.34,4.34,0,0,1-8.67,0,4.28,4.28,0,0,1,2.44-3.85H557a7.14,7.14,0,0,0-1.13,3.85,7.32,7.32,0,1,0,13.53-3.85h-4.29A4.25,4.25,0,0,1,567.55,659.39Z" transform="translate(-291.12 -302.46)"/></svg>