<?xml version="1.0" encoding="utf-8"?>
<!-- Generator: Adobe Illustrator 23.0.3, SVG Export Plug-In . SVG Version: 6.00 Build 0)  -->
<svg version="1.1" id="Layer_1" xmlns="http://www.w3.org/2000/svg" xmlns:xlink="http://www.w3.org/1999/xlink" x="0px" y="0px"
	 viewBox="0 0 363.4 363.4" style="enable-background:new 0 0 363.4 363.4;" xml:space="preserve">
<title>man-outline</title>
<path d="M134,227.7c0.6-4.4,1.4-8.5,1.6-12.5c-0.1-1.6-0.9-3.1-2.2-4.2c-9.5-8.4-18.3-17.7-23.1-29.6c-3.1-7.8-7.3-12.1-15.6-14.4
	c-10.1-2.9-16.1-10.9-17.3-21.4c-1.3-11.3,3.2-20.2,12.6-26.7c1.1-0.8,2.3-1.4,3-1.8c-1.1-13.6-2.1-27-3.3-40.2
	C88,56.9,95.4,41,110.5,28.3c14.1-11.9,29.2-22,47.4-26.3c14.8-3.5,29.6-2.3,43.9,2.6c6.8,2.3,12.1,6.8,16.8,12.7
	c7.7-4.9,16.2-6,24.8-5.1c18.4,1.9,29.8,12.9,36,29.7c4.9,13.2,5.1,26.5-1.3,39.3c-3.9,7.8-4.7,16.2-5.9,24.6
	c-1,6.8-1.9,13.2,6.1,16.6c13,13.9,10.9,37.9-10.4,45c-7.2,2.4-11.3,5.6-14.1,12.9c-4.7,12.3-13.7,22-23.6,30.5
	c-1.7,1.2-2.6,3.4-2.1,5.5c0.6,3.7,1,7.4,1.6,11.3c7.1,1.1,14.2,2.3,21.3,3.3c36.6,5.2,60.9,25.6,74.2,59.7
	c3.7,9.8,5.6,20.3,5.6,30.8c0.1,11.4,0,22.8,0,34.1c0,6.5-1.5,8-7.9,8H41.3c-7.1,0-8.4-1.2-8.4-8.2c0-12.8-0.8-25.6,0.2-38.2
	c2.9-36.7,20.3-64.1,54.2-79.5c8.9-4,19.2-5.1,28.9-7.2C122,229,127.9,228.6,134,227.7z M275.3,352.7h44.9c0-11.1,0.3-22-0.1-32.8
	c-0.8-24.4-10.5-44.7-28.7-60.8c-11.8-10.4-25.9-15.6-41.3-17.9c-3.5-0.5-5.4,0.2-7.5,2.9c-10.1,12.7-20.3,25.3-30.6,37.9
	c-3.3,4-5.1,4.3-9.6,1.5c-6.1-3.8-12.3-7.6-18.3-11.6c-1.7-1.1-2.9-1.2-4.6-0.1c-5.8,3.9-11.8,7.5-17.7,11.2
	c-5.5,3.5-6.9,3.2-11-1.8c-10.4-12.8-20.7-25.7-31.2-38.4c-0.8-1-2.4-2.1-3.5-2c-4.8,0.5-9.6,1.3-14.4,2.5
	C72.4,250.4,48,277.8,44.4,309c-1.5,13.1-0.9,26.4-1.2,39.7c0,1.3,0,2.7,0,4.2h45v-4.6c0-12.7,0-25.5,0-38.2c0-3.9,2.1-6,5.3-5.9
	c3,0.1,4.8,2.2,5,5.8c0,1,0,2,0,3c0,12,0,24,0,36c0,1.3,0.1,2.7,0.2,3.9H265v-4.3c0-12.1,0-24.2,0-36.4c0-5.5,1.6-7.9,5.1-8
	s5.3,2.3,5.3,7.8c0,12.1,0,24.2,0,36.4V352.7z M188.3,66.6c-12.1-0.5-24.2,0.8-36,3.7c-18.7,4.5-29.6,16.5-32.3,35.3
	c-1.9,13.6-3.2,27.3-5.5,40.8s1.4,25.2,8.2,36.3c9.3,15.2,22.6,26.4,38.3,34.4c14.1,7.2,28.9,6.8,42.9-0.6
	c13.8-7.3,25.9-17.1,34.7-30.3c6.6-9.8,11.9-19.9,9.9-32.8s-2.3-26.1-3.2-39.2c-1.3-19.9-10.8-34.4-28.7-43.2
	C207.3,66.6,197.3,66.2,188.3,66.6L188.3,66.6z M105.3,126.4l1.1-0.1c1.3-8.1,2.5-16.3,4-24.3c4-22.6,19.1-37.5,41.5-42.2
	c14.9-3.2,29.9-3.8,45.1-3.5c26.1,0.5,49.5,18,56.3,43.2c2,7.5,1.9,15.5,2.7,23.4c0.2,2,0.4,4,0.6,6c1-0.5,1.7-1.4,2-2.5
	c1.2-6,2.6-12,3.4-18c1.2-10,1.5-20.2,6.2-29.5c6.8-13.4,5.8-26.5-1-39.5c-7-14-23.4-20.6-38.2-15.4c-2.1,0.7-4,2-5.5,3.7
	c-4,4.6-7.1,4.5-10.5-0.7c-3.9-6.1-9.1-10.7-16-12.9c-12.6-4.1-25.6-5.1-38.4-1.4c-19,5.6-34.9,16.5-48.4,30.9
	c-4.5,4.8-7.9,10.6-8.7,17.1c-0.9,7.3-1.2,14.7-0.7,22C101.7,97.2,103.6,111.8,105.3,126.4z M181.9,257.8
	c10.4-7.5,20.3-15.5,31-22.3c6.1-3.9,7.3-8.3,5.3-14.5c-0.1-0.2-0.2-0.3-0.3-0.5c-23.9,16-48,16.1-72.3-0.1c-0.5,3.1-1,5.9-1.2,8.7
	c0.1,0.9,0.6,1.8,1.4,2.3C157.7,240.2,169.7,248.9,181.9,257.8L181.9,257.8z M130.1,239c9.4,11.7,18.6,23,27.7,34.3l14.4-9.2
	c-0.9-0.8-1.6-1.3-2.3-1.8c-9.8-7.2-19.8-14.3-29.5-21.7C137.4,238.3,134.4,237.8,130.1,239L130.1,239z M191.2,264.1l14.7,9.2
	l27.5-34l-0.4-1c-2.4,0.2-5.3-0.5-7,0.7C214.3,247.1,203,255.5,191.2,264.1z M259.3,159.1c9.8-2,15.4-7,16.6-13.8
	c1.1-6.5-2-13.6-7.2-16.6c-1.7,4.9-3.5,9.9-5,14.8S260.9,153.3,259.3,159.1z M95.6,128c-6.2,3.9-9.2,11.2-7.6,18.3
	c1.6,6.6,8,11.8,15.6,12.2C100.9,148.4,98.3,138.3,95.6,128z"/>
</svg>
