<svg id="Layer_1" data-name="Layer 1" xmlns="http://www.w3.org/2000/svg" viewBox="0 0 409.75 409.74"><title>menu</title><path d="M520.8,589.6c-6.3-2.34-13.12-3.82-18.81-7.2-14.58-8.64-22.42-22-22.64-38.95q-.62-48.18,0-96.37a46.79,46.79,0,0,1,46.31-46.18q48-.47,96,0a46.85,46.85,0,0,1,46.33,46.58c.29,31.72.24,63.45,0,95.17-.16,23.33-16.7,42.29-39.72,46.25a9.8,9.8,0,0,0-1.81.7Zm53.11-156.8c-15.19,0-30.38,0-45.58,0-10.91,0-17.11,6.2-17.12,17.1q0,45.18,0,90.36c0,11.18,6.13,17.31,17.3,17.32q45.18,0,90.36,0c10.91,0,17.11-6.2,17.12-17.1q0-45.18,0-90.36c0-11.18-6.13-17.3-17.3-17.32Q596.31,432.77,573.91,432.8Z" transform="translate(-479.05 -179.86)"/><path d="M888.8,326.4c-1.8,8.38-4.34,16.44-9.76,23.32-9.36,11.9-21.57,18.77-36.71,18.93-32,.34-64,.4-96,0-25-.31-45.87-21.13-46.2-46.07q-.61-48.18,0-96.38c.33-24.94,21.23-45.76,46.2-46.07q48-.58,96,0c22.62.24,41.76,17.24,45.71,39.62a24.94,24.94,0,0,0,.76,2.65Zm-94.49,10.4c14.93,0,29.86,0,44.79,0,11.16,0,17.68-6.49,17.69-17.61q0-44.79,0-89.58c0-11.1-6.54-17.58-17.71-17.59q-44.58,0-89.18,0c-11.42,0-17.88,6.43-17.89,17.81q0,44.58,0,89.18c0,11.36,6.48,17.77,17.91,17.79Q772.11,336.84,794.31,336.8Z" transform="translate(-479.05 -179.86)"/><path d="M742.4,589.6c-8.51-1.82-16.67-4.44-23.62-10-11.7-9.35-18.47-21.46-18.63-36.43-.34-32-.4-63.95,0-95.92a47.29,47.29,0,0,1,46.32-46.32q48-.58,95.91,0c22.6.25,41.72,17.26,45.67,39.62a24.94,24.94,0,0,0,.76,2.65v104c-.26.88-.58,1.74-.76,2.64-3.88,18.89-15,31.41-33.24,37.59-2.73.93-5.6,1.46-8.4,2.17Zm114.4-94.27q0-22.18,0-44.39c0-11.71-6.35-18.12-18-18.13q-44.39,0-88.78,0c-11.65,0-18,6.39-18,18.07q0,44.39,0,88.78c0,11.45,6.41,17.92,17.77,17.93q44.58,0,89.18,0c11.38,0,17.81-6.46,17.83-17.87Q856.84,517.53,856.8,495.33Z" transform="translate(-479.05 -179.86)"/><path d="M668,274.74q0,22.39,0,44.79c0,28.72-20.44,49.22-49,49.26q-45.4.06-90.79,0c-28.41-.05-48.91-20.54-49-48.93q-.07-45.41,0-90.79c0-28.62,20.54-49,49.23-49.06q45.19-.06,90.39,0c28.67,0,49.1,20.47,49.16,49.13C668,244.34,668,259.54,668,274.74ZM573.66,336.8q22.4,0,44.78,0c11.45,0,17.55-6.07,17.55-17.47q0-44.77,0-89.56C636,218,630,212,618.32,212q-44.77,0-89.56,0c-11.45,0-17.55,6.07-17.55,17.47q0,45,0,90c0,11.19,6.12,17.33,17.27,17.35Q551.07,336.84,573.66,336.8Z" transform="translate(-479.05 -179.86)"/></svg>