<?xml version="1.0" encoding="utf-8"?>
<!-- Generator: Adobe Illustrator 23.0.6, SVG Export Plug-In . SVG Version: 6.00 Build 0)  -->
<svg version="1.1" id="Layer_1" xmlns="http://www.w3.org/2000/svg" xmlns:xlink="http://www.w3.org/1999/xlink" x="0px" y="0px"
	 viewBox="0 0 360 360" style="enable-background:new 0 0 360 360;" xml:space="preserve">
<style type="text/css">
	.st0{fill:#E3F4FC;}
	.st1{fill:#DC5E5A;}
	.st2{fill:#BBE3F7;}
	.st3{fill:#CACED6;}
	.st4{fill:#DC5D59;}
	.st5{fill:#7CB1F6;}
	.st6{fill:#5D84B8;}
	.st7{fill:#7CB0F6;}
	.st8{fill:#F5E3CA;}
</style>
<g>
	<path class="st0" d="M36.8,317.8c0-46,0-92,0-138c47-47,94-93.9,140.9-141c2.3-2.3,3.5-2.7,6.1-0.2
		c36.7,36.9,73.6,73.7,110.4,110.5c0.8,0.8,1.5,1.6,2.3,2.5c-5.9,18.2-14.2,35.3-24.5,51.4c-2.7,4.2-6.1,7.9-8,12.5
		c-5.7,0.1-11.5,0.2-17.2,0.2c-4,0-7.9,0-11.9,0c-17.1,0-34.2,0-51.3-0.1c-2.1,0-2.8,0.6-2.8,2.8c0.1,11.1,0.1,22.2,0.1,33.3
		c0,4,0,7.9,0,11.9c-0.1,7.5-0.1,15-0.2,22.5c-0.7,0.3-1.3,0.6-2,0.9c-7.1,3.7-14.1,7.3-21.8,9.6c0-1.5-0.1-3-0.1-4.5
		c0-24.3,0-48.7,0-73c0-1.9,0.5-3.6-2.7-3.6c-26.2,0.1-52.4,0.1-78.7,0c-2.2,0-2.7,0.7-2.7,2.8c0.1,7.7,0.1,15.5,0,23.2
		c0,25.1-0.1,50.2-0.1,75.3C60.7,318.1,48.7,317.6,36.8,317.8z M180.6,179.7c19.8,0,36.1-16.1,36.1-35.9c0-19.8-16.1-36.1-35.8-36.1
		c-19.8,0-36.1,16.1-36.1,35.8C144.7,163.4,160.9,179.7,180.6,179.7z"/>
	<path class="st1" d="M296.4,151.7c-0.8-0.8-1.5-1.7-2.3-2.5c-36.8-36.8-73.7-73.6-110.4-110.5c-2.6-2.6-3.8-2.1-6.1,0.2
		c-46.9,47-93.9,94-140.9,141c-11.6,0-23.2,0-34.8,0c-0.4-1.6,0.9-2.1,1.6-2.8C61.8,118.6,120.2,60.3,178.4,1.9
		c1.9-1.9,2.8-1.9,4.7,0C241.4,60.3,299.7,118.6,358,177c0.7,0.7,1.6,1.2,1.8,2.8c-11.8,0-23.4,0-35.1,0
		C315.3,170.4,305.9,161,296.4,151.7z"/>
	<path class="st2" d="M296.4,151.7c9.4,9.4,18.9,18.7,28.3,28.1c0,52,0,104,0,155.9c-56,0-112.1,0-168.1,0c0.1-13,0.1-26,0.2-39
		c7.7-2.3,14.7-6,21.8-9.6c0.7-0.3,1.3-0.6,2-0.9c0,3.4,0.2,6.7,0,10.1c-0.1,2.5,0.5,3.5,3.3,3.5c16.9-0.1,33.9-0.1,50.8-0.1
		c4,0,7.9,0,11.9,0c17,0,33.9,0,50.9,0.1c2.4,0,3.2-0.7,3.2-3.2c-0.1-11-0.1-22-0.1-32.9c0-4,0-7.9,0-11.9c0-10.7-0.1-21.4,0.2-32.2
		c0.1-3.1-0.9-4-4-4c-11,0.1-21.9,0-32.9-0.1c2-4.6,5.3-8.3,8-12.5C282.3,187,290.5,169.9,296.4,151.7z"/>
	<path class="st3" d="M156.7,335.7c56,0,112.1,0,168.1,0c3.1,0,6.2,0.1,9.4,0c1.9-0.1,2.7,0.7,2.6,2.6c-0.1,6.2-0.1,12.5,0,18.7
		c0,1.9-0.5,2.9-2.5,2.7c-0.9-0.1-1.7,0-2.6,0c-100.6,0-201.1,0-301.7,0c-5.8,0-5.1,0.6-5.1-5.3c0-5.2,0.1-10.5,0-15.7
		c-0.1-2.3,0.7-3.1,3-3c3,0.1,6,0,9,0c12,0,24.1,0,36.1,0C100.8,335.7,128.7,335.7,156.7,335.7z"/>
	<path class="st2" d="M72.8,335.7c-12,0-24.1,0-36.1,0c0-6,0-12,0-18c12-0.1,23.9,0.4,35.9-0.8C72.7,323.2,72.8,329.5,72.8,335.7z"
		/>
	<path class="st4" d="M72.8,335.7c-0.1-6.2-0.1-12.5-0.2-18.7c0-25.1,0.1-50.2,0.1-75.3c0-7.7,0.1-15.5,0-23.2
		c0-2.1,0.5-2.8,2.7-2.8c26.2,0.1,52.4,0.1,78.7,0c3.1,0,2.7,1.7,2.7,3.6c0,24.3,0,48.7,0,73c0,1.5,0.1,3,0.1,4.5
		c-0.1,13-0.1,26-0.2,39C128.7,335.7,100.8,335.7,72.8,335.7z M102.8,270.1c0-1.1,0-2.2,0-3.4c0-9.6,0-9.6-9.6-9
		c-1.7,0.1-2.4,0.6-2.4,2.4c0.1,6.5,0.1,13,0,19.5c0,1.6,0.5,2.1,2.1,2.2c9.9,0.9,9.9,0.9,9.9-8.7
		C102.8,272.1,102.8,271.1,102.8,270.1z"/>
	<path class="st5" d="M180.6,179.7c-19.7,0-35.9-16.3-35.9-36.1c0-19.7,16.3-35.9,36.1-35.8c19.7,0,35.9,16.3,35.8,36.1
		C216.7,163.6,200.4,179.8,180.6,179.7z"/>
	<path class="st6" d="M300.7,251.8c0,4,0,7.9,0,11.9c-16.7,0-33.5,0.1-50.2,0c-2.9,0-3.8,0.8-3.8,3.8c0.2,10.7,0,21.5,0,32.2
		c-4,0-7.9,0-11.9,0c0-10.7-0.1-21.5,0-32.2c0-3-0.8-3.8-3.8-3.8c-16.7,0.1-33.5,0-50.2,0c0-4,0-7.9,0-11.9c16.8,0,33.7-0.1,50.5,0
		c2.6,0,3.4-0.7,3.4-3.4c-0.1-10.9,0-21.7,0-32.6c4,0,7.9,0,11.9,0c0,10.7,0.1,21.5,0,32.2c0,3,0.9,3.8,3.8,3.8
		C267.2,251.7,283.9,251.8,300.7,251.8z"/>
	<path class="st7" d="M234.8,215.9c0,10.9-0.1,21.7,0,32.6c0,2.6-0.8,3.4-3.4,3.4c-16.8-0.1-33.7,0-50.5,0c0-11.1,0-22.2-0.1-33.3
		c0-2.1,0.7-2.8,2.8-2.8C200.6,215.8,217.7,215.8,234.8,215.9z"/>
	<path class="st7" d="M300.7,251.8c-16.7,0-33.5-0.1-50.2,0c-2.9,0-3.9-0.7-3.8-3.8c0.2-10.7,0-21.5,0-32.2
		c5.7-0.1,11.5-0.2,17.2-0.2c11,0,21.9,0.2,32.9,0.1c3.1,0,4,0.8,4,4C300.6,230.4,300.7,241.1,300.7,251.8z"/>
	<path class="st7" d="M180.9,263.7c16.7,0,33.5,0.1,50.2,0c3,0,3.8,0.8,3.8,3.8c-0.2,10.7,0,21.5,0,32.2c-16.9,0-33.9,0-50.8,0.1
		c-2.8,0-3.4-1-3.3-3.5c0.1-3.4,0-6.7,0-10.1C180.7,278.7,180.8,271.2,180.9,263.7z"/>
	<path class="st7" d="M246.7,299.7c0-10.7,0.1-21.5,0-32.2c0-3,0.9-3.8,3.8-3.8c16.7,0.1,33.5,0,50.2,0c0,11,0,22,0.1,32.9
		c0,2.5-0.8,3.2-3.2,3.2C280.6,299.7,263.7,299.7,246.7,299.7z"/>
	<path class="st8" d="M102.8,270.1c0,1,0,2,0,3c0,9.6,0,9.6-9.9,8.7c-1.6-0.1-2.2-0.7-2.1-2.2c0.1-6.5,0.1-13,0-19.5
		c0-1.8,0.7-2.3,2.4-2.4c9.6-0.6,9.6-0.6,9.6,9C102.8,267.8,102.8,268.9,102.8,270.1z"/>
</g>
</svg>
