<?xml version="1.0" encoding="utf-8"?>
<!-- Generator: Adobe Illustrator 23.0.6, SVG Export Plug-In . SVG Version: 6.00 Build 0)  -->
<svg version="1.1" id="Layer_1" xmlns="http://www.w3.org/2000/svg" xmlns:xlink="http://www.w3.org/1999/xlink" x="0px" y="0px"
	 viewBox="0 0 385 385" style="enable-background:new 0 0 385 385;" xml:space="preserve">
<style type="text/css">
	.st0{fill:#279B61;}
	.st1{fill:#49CD8A;}
	.st2{fill:#36B176;}
	.st3{fill:#FEB333;}
	.st4{fill:#1C8C51;}
	.st5{fill:#36B177;}
	.st6{fill:#66E6A2;}
	.st7{fill:#FDDC40;}
	.st8{fill:#FFFFFF;}
	.st9{fill:#FEDC40;}
	.st10{fill:#FBEBA8;}
	.st11{fill:#FE9101;}
</style>
<g>
	<path class="st0" d="M0.5,204.4c0-10.8,0-21.5,0-32.3c0.6-0.2,0.7-0.6,0.7-1.1c0.4-8.2,1.9-16.3,3.8-24.2
		c5.5-23.4,14.9-45.1,29.2-64.6c17.5,0,35.1-0.1,52.6-0.1c0.2,0,0.4,0.1,0.6,0.1c0.5,1.6,0.4,3.1,0.2,4.8c-0.8,8-0.2,15.8,5.2,22.4
		c3.5,4.3,8.4,6.5,13.1,9.2c1.6,0.9,2.9,1,4.5,0.2c25-12.5,55.9-4.5,72.7,16.5c16.7,20.8,17.6,51.9,1.4,73.1
		c-8,10.5-18.2,18.1-31,21.8c-2.2,0.6-2.6,1.5-2.6,3.9c0.1,4.1,2.4,6.7,4.8,9.4c-8.7,5.4-16.3,12.1-22.6,20.2c-7.2,0-14.5,0-21.7,0
		c-31.5,0-63.1,0.1-94.6,0.1c-7.2-14.3-11.2-29.6-14-45.2C1.9,213.8,2,208.9,0.5,204.4z M129.7,138.5c-3.8,1.9-7.2,4.1-9.9,7.4
		c-0.5-2.4-2.5-3.7-4.2-5.1c-4.2-3.4-6.6-7.7-7-13.1c-0.1-1.5,0-3-0.1-4.5c-0.3-2.3-1.3-3.2-3.5-1.7c-2.6,1.7-5.1,3.6-7.5,5.6
		c-13.3,11.3-20.4,25.9-21,43.1c-0.7,20.8,7.4,38,24.2,50.5c13.4,10,28.6,13.7,45.2,11.1c1.1-0.2,2.8,0,3.2-1.4s-1.1-2.1-2-2.9
		c-3.9-3.5-5.9-7.7-5.6-12.9c1.3-2.6,1.8-5.4,1.2-8.3c1.4-0.8,2.8-1.6,4.2-2.5c6.8-4.5,10.4-10.9,10-18.9c-0.5-8.4-5.2-14-13.2-16.9
		c-3.3-1.2-6.5-2.5-9.8-3.7c-3.2-1.2-5.5-2.9-5.1-6.8c0.4-3.7,3.1-6.1,6.9-6.7c4-0.6,7.6,0.1,11.1,2.2c3.5,2.1,7.3,1.1,9.2-2
		c2-3.2,1-6.6-2.4-9.1c-3.2-2.3-6.9-3.4-10.6-4.4c0-6.4-3-9.8-8-9C131.2,129.3,129.4,132.7,129.7,138.5z M29.4,178.9
		c3.4,0,6.7,0,10.1,0c0.1,0,0.2,0,0.4,0c4.5-0.1,7-2.2,7.1-5.9s-2.9-6.7-7-6.8c-7.1-0.1-14.2-0.1-21.3,0c-3.8,0.1-7,3.2-6.8,6.5
		c0.1,3.3,3.3,6.1,7.1,6.2C22.4,178.9,25.9,178.9,29.4,178.9z"/>
	<path class="st1" d="M87.5,82.1C87.3,82,87.1,82,86.9,82c-0.4-1.3-1-2.5-1.9-3.5c-3.1-3.1-4-7-4.2-11.1c-0.1-1.6-0.5-3.1-0.7-4.7
		c18.2,0,36.5,0,54.7,0c41.6,0,83.1,0,124.7,0c16.2,0,32.4-0.1,48.7-0.1c6.7,0,13.4,0.1,20.2,0.1c10.5,0,17.1,6.7,17.2,17.3
		c0.1,6.7,0.1,13.4,0.1,20.2c0,40.2,0,80.5,0,120.7c0,0.4,0,0.8,0,1.1c-0.1,1.9,0.9,2.7,2.7,2.7c3.1,0,6.2,0.1,9.4,0
		c4.7-0.1,7.4-2.8,7.4-7.6c0-38.7,0-77.5-0.1-116.2c0-16.7,0.1-33.5,0.1-50.2c0-4.8-2.6-7.4-7.4-7.5c-16.7,0-33.5,0.1-50.2,0.1
		c-0.7,0-1.5-0.1-2.2-0.1c-58.3,0-116.6,0-174.9,0c-0.2-0.1-0.4-0.1-0.7-0.1c-4.9-5.6-7.7-11.7-5.3-19.3c34.2,0,68.5-0.1,102.7-0.1
		c12.7,0,25.5-0.1,38.2-0.1c1.9,0,3.7,0.1,5.6,0.1c31.1,0,62.2,0.2,93.3-0.1c10-0.1,16.9,3.3,20.3,12.8c0,65,0,130,0,195
		c-3.4,9.2-10,13.4-19.8,12.7c-1.8-0.1-3.7,0.1-5.6,0.1c-3.6,0-7.2,0-10.8-0.2c-2.4-0.1-3.1,0.9-2.9,3.1c0.1,0.9-0.1,1.7-0.1,2.6
		c-6-4.4-12.5-8.1-19.4-11c0-10.9,0-21.9,0-32.8c0-22.1,0-44.1-0.1-66.2c0-16.9,0.1-33.7,0.1-50.6c0-4.4-2.7-7-7-7
		c-16.9,0-33.7,0-50.6,0.1c-1.2,0-2.5-0.1-3.7-0.1C205.5,82.1,146.5,82.1,87.5,82.1z"/>
	<path class="st2" d="M87.5,82.1c59,0,118,0,177.1,0c1.2,0,2.5,0,3.7,0.1c0,3.4-0.1,6.7-0.1,10.1c0.5,18.6,9.7,32.1,25.3,41.4
		c9.9,6,21,6.8,32.2,6c0,22.1,0,44.1,0.1,66.2c-3.6,0-7.1-1.1-10.8-0.7c-11.6,1.1-22,5.1-30.8,12.9c-6.1,5.5-10.9,11.9-13.1,20
		c-0.4,0-0.8,0-1.1-0.2c-16.3-5.5-32.6-5.5-48.8,0.3c-2,0.7-3.6,0.2-5.4-0.4c-20.6-6.6-40.3-5-59.3,5.5c-0.3,0-0.6,0-0.9,0
		c-2.4-2.7-4.7-5.3-4.8-9.4c-0.1-2.4,0.4-3.3,2.6-3.9c12.8-3.7,23-11.2,31-21.8c16.2-21.2,15.2-52.3-1.4-73.1
		c-16.8-21-47.7-28.9-72.7-16.5c-1.6,0.8-2.9,0.7-4.5-0.2c-4.7-2.7-9.6-4.9-13.1-9.2c-5.4-6.6-6-14.3-5.2-22.4
		C87.9,85.3,88,83.7,87.5,82.1z M242.8,178.9L242.8,178.9c3.5,0,7,0,10.5,0c0.2,0,0.5,0,0.7,0c4-0.1,6.5-2.5,6.7-6.1
		c0.1-3.1-2.6-6.4-6-6.5c-7.7-0.2-15.5-0.2-23.2,0c-3.5,0.1-6.1,3.7-5.9,7c0.2,3.3,2.6,5.4,6.3,5.5
		C235.5,179,239.1,178.9,242.8,178.9z"/>
	<path class="st3" d="M155.7,243.3c0.3,0,0.6,0,0.9,0c0.2,0.6,0.5,1.1,0.6,1.7c1,6.1,3.3,7.3,8.9,4.7c7.6-3.5,15.5-5.6,23.9-5.7
		c21-0.3,38.4,7.6,51.6,24c11.6,14.5,15.1,31.2,12.5,49.3c-1.9,12.9-8,23.8-16.6,33.4c-2.6,2.9-1.7,6.6,2,8.1c1,0.4,2.2,0.5,3.3,0.7
		c-2.5,3.4-6.3,5.4-9.5,8.6c8.2,2.2,15.9,1.9,23.7,0.6c12.4-2.1,23-7.8,32.2-16.1c0.9,4.1,2.9,6.9,7.5,6.8c-2.5,3.6-6.7,5.4-9.8,8.7
		c8.2,2.3,16.1,2,24,0.6c12-2.1,22.2-8,31.6-15.4c1.8,3,3.8,5.7,7.3,6.8c-11.5,11.2-25.3,17.4-41.1,19.5c-11.8,1.6-23.1,0-34.2-3.9
		c-1.3-0.4-2.3-0.5-3.6,0c-16.6,5.9-33.2,5.9-49.8,0c-1.5-0.5-2.8-0.4-4.3,0.1c-21.1,7.3-41.5,5.4-61-5.3c-1.5-0.8-3.1-1.5-4.7-2.3
		c-0.4-1.3-1.7-1.8-2.7-2.5c-19-14.7-29-34.2-29.4-58.7c-0.1-8.2,1.7-16,3.7-23.9c2.9-6.8,6.2-13.5,10.4-19.6
		C139.4,255.4,147,248.8,155.7,243.3z M167.7,262.9c-2.6-1.9-5.7-3.4-5.8-7.2c-0.1-3.4-1.3-3.1-3.5-1.6
		c-20.9,14.5-31.1,34.3-28.7,59.6c3.7,38.8,42.4,64.6,79.8,53.8c8.9-2.6,16.9-6.7,23.7-13c0.7-0.7,2.7-2.1,0.6-2.8
		c-4.5-1.4-5.2-4.9-6.2-8.6c0-0.2,0-0.4,0-0.6c17.6-17.8,19.6-45.4,4.8-65.4c-14.9-20.1-41.8-26.1-64.2-14.3
		C168.2,262.9,167.9,262.9,167.7,262.9z"/>
	<path class="st4" d="M141.5,214.7c-0.3,5.2,1.7,9.5,5.6,12.9c0.9,0.8,2.4,1.5,2,2.9c-0.4,1.3-2.1,1.2-3.2,1.4
		c-16.6,2.5-31.8-1.1-45.2-11.1c-16.8-12.6-25-29.7-24.2-50.5c0.6-17.2,7.7-31.8,21-43.1c2.4-2,4.9-3.9,7.5-5.6
		c2.2-1.5,3.3-0.5,3.5,1.7c0.2,1.5,0,3,0.1,4.5c0.4,5.4,2.8,9.7,7,13.1c1.7,1.4,3.7,2.7,4.2,5.1c-0.3,0.5-0.6,1.1-0.9,1.6
		c-6.8,12.2-2.5,24.2,10.5,29.1c3.1,1.2,6.3,2.4,9.4,3.6c4.1,1.6,5.5,3.8,4.9,7.3c-0.6,3.6-3.4,6-7.3,6.3c-3.7,0.3-7.1-0.2-10.4-2.2
		c-3.7-2.3-7.5-1.2-9.4,2s-0.7,6.8,3,9.3c3.2,2.1,6.8,3.1,10.3,4.3c-0.6,3.4-0.1,6.5,3,8.6C136,217.9,138.8,216.7,141.5,214.7z"/>
	<path class="st5" d="M133.1,263.6c-4.2,6.1-7.5,12.7-10.4,19.6c-30.7,0-61.4,0-92.1,0c-1.1,0-2.3-0.1-3.3,0.5
		c-4.2-6.2-7.7-12.9-10.5-19.9c31.5,0,63.1-0.1,94.6-0.1C118.6,263.6,125.9,263.6,133.1,263.6z"/>
	<path class="st6" d="M129.9,207.2c-3.5-1.2-7.1-2.1-10.3-4.3c-3.6-2.4-4.8-6-3-9.3c1.9-3.3,5.7-4.3,9.4-2c3.3,2,6.7,2.5,10.4,2.2
		c3.9-0.3,6.7-2.7,7.3-6.3c0.6-3.5-0.8-5.6-4.9-7.3c-3.1-1.2-6.3-2.4-9.4-3.6c-13-5-17.3-17-10.5-29.1c0.3-0.5,0.6-1.1,0.9-1.6
		c2.7-3.3,6.2-5.6,9.9-7.4c4.3-1.1,8.8-0.9,13.2-0.8c3.7,1,7.4,2.1,10.6,4.4c3.4,2.4,4.3,5.9,2.4,9.1c-1.9,3.1-5.7,4.1-9.2,2
		s-7.1-2.9-11.1-2.2c-3.8,0.6-6.5,3.1-6.9,6.7c-0.4,3.9,1.9,5.6,5.1,6.8c3.3,1.2,6.5,2.5,9.8,3.7c8,2.9,12.7,8.5,13.2,16.9
		c0.5,8-3.2,14.4-10,18.9c-1.3,0.9-2.8,1.6-4.2,2.5C138.4,206.9,134.2,207.8,129.9,207.2z"/>
	<path class="st2" d="M34.2,82.1c4.9-7.2,10.5-13.9,16.5-20.2c1.3,1,2.9,0.7,4.3,0.7c8.3,0,16.6,0,24.9,0c0.3,1.6,0.7,3.1,0.7,4.7
		c0.2,4.2,1.1,8,4.2,11.1c1,1,1.6,2.2,1.9,3.5C69.3,82,51.8,82.1,34.2,82.1z"/>
	<path class="st2" d="M29.4,178.9c-3.5,0-7,0-10.5,0c-3.8,0-7-2.9-7.1-6.2s3-6.5,6.8-6.5c7.1-0.1,14.2-0.1,21.3,0
		c4.1,0.1,7,3.1,7,6.8c-0.1,3.7-2.6,5.8-7.1,5.9c-0.1,0-0.2,0-0.4,0C36.1,178.9,32.8,178.9,29.4,178.9z"/>
	<path class="st1" d="M129.9,207.2c4.3,0.5,8.6-0.3,12.9-0.8c0.6,2.9,0.1,5.6-1.2,8.3c-2.7,2-5.5,3.2-8.6,1.1
		C129.8,213.7,129.3,210.7,129.9,207.2z"/>
	<path class="st1" d="M142.9,137.7c-4.4-0.1-8.8-0.3-13.2,0.8c-0.3-5.8,1.5-9.2,5.2-9.8C139.9,127.8,142.9,131.2,142.9,137.7z"/>
	<path class="st7" d="M350,360.3c-3.5-1.1-5.6-3.8-7.4-6.8c0.1-0.5,0.2-1,0.3-1.4c3.1-1.6,5-4.4,7-7.1c15-20.8,17.6-43.2,6.1-65.9
		c-12.3-24.3-33.2-35.6-60.4-34.9c-2.8,0.1-5.8,0.3-8.8,1.9c4.9,3.4,9,7.1,13,10.7c0.8,1.1,1.5,2.3,2.4,3.3
		c14.3,17.5,19.6,37.5,15.9,59.8c-2.1,12.6,4.6,21.3,17.7,22.4c0,0.3,0,0.5,0,0.8c-1.5,0.2-2.3,1.4-3.3,2.2
		c-8.5,7.3-18.5,11.1-29.6,11.9c-2.4,0.2-4.4,0.6-6,2.4c-4.6,0.1-6.6-2.7-7.5-6.8c0-0.2,0-0.5,0-0.7c15.4-14,21.7-31.9,19.1-52
		c-3.5-27.5-19.4-45.6-46.1-53.7c-8.6-2.6-17.4-3-26.3-1.4c-0.9,0.2-1.8,0.2-2.2,1.1c-0.3,0.7,0.4,1.1,0.9,1.5
		c4.2,2.6,7.3,6.4,11.1,9.4c16.7,19.1,22.8,41,18,65.9c-0.7,3.5,0.1,6.9,1.8,10.1c3.5,6.4,9.5,8.4,16,9.5c0,0.2,0,0.5,0,0.7
		c-1.2,0.9-2.5,1.6-3.6,2.6c-8.4,7.1-18.2,10.7-29,11.5c-2.5,0.2-4.6,0.7-6.3,2.5c-1.1-0.2-2.3-0.3-3.3-0.7c-3.6-1.5-4.6-5.2-2-8.1
		c8.6-9.6,14.7-20.5,16.6-33.4c2.6-18.1-0.9-34.8-12.5-49.3c-13.2-16.5-30.6-24.3-51.6-24c-8.3,0.1-16.3,2.2-23.9,5.7
		c-5.6,2.6-8,1.4-8.9-4.7c-0.1-0.6-0.4-1.2-0.6-1.7c19-10.6,38.7-12.1,59.3-5.5c1.8,0.6,3.4,1.1,5.4,0.4c16.2-5.8,32.5-5.8,48.8-0.3
		c0.3,0.1,0.7,0.1,1.1,0.2c1.1,0.9,2.3,0.9,3.5,0.5c17.1-6.2,34.2-5.7,51.2,0.1c6.9,2.9,13.3,6.6,19.4,11c3,2.8,6,5.6,9,8.3
		c8.2,9.9,14.6,20.9,17,33.7C376.4,318.4,369.5,341.3,350,360.3z"/>
	<path class="st2" d="M308.1,62.5c-16.2,0-32.4,0.1-48.7,0.1c-41.6,0-83.1,0-124.7,0c-0.1-0.4-0.1-0.8-0.3-1.1
		c-4.3-4.5-5.9-9.6-4.2-15.7c0.2-0.8,0-1.7,0-2.6c58.3,0,116.6,0,174.9,0c0.7,0,1.5,0.1,2.2,0.1C307.2,49.7,307,56.1,308.1,62.5z"/>
	<path class="st0" d="M325.8,139.8c-11.3,0.8-22.3-0.1-32.2-6c-15.6-9.4-24.8-22.8-25.3-41.4c-0.1-3.4,0-6.7,0.1-10.1
		c16.9,0,33.7-0.1,50.6-0.1c4.3,0,7,2.6,7,7C326,106,325.9,122.9,325.8,139.8z"/>
	<path class="st2" d="M364.9,100.8c0,38.7,0.1,77.5,0.1,116.2c0,4.8-2.7,7.5-7.4,7.6c-3.1,0.1-6.2,0-9.4,0c-1.9,0-2.8-0.8-2.7-2.7
		c0-0.4,0-0.7,0-1.1c0-40.2,0-80.5,0-120.7C352,101.3,358.4,100.8,364.9,100.8z"/>
	<path class="st8" d="M103.4,23.5c13.6-7.3,28.1-12,43.2-15.1c40.7-8.2,79.9-3.6,117.5,14.3c0.4,0.2,0.8,0.5,1.2,0.8
		c-12.7,0-25.5,0.1-38.2,0.1c-34.2,0-68.5,0.1-102.7,0.1C117.3,23.7,110.3,23.6,103.4,23.5z"/>
	<path class="st0" d="M364.9,100.8c-6.5,0-12.9,0.5-19.4-0.7c0-6.7,0-13.4-0.1-20.2c-0.1-10.6-6.7-17.3-17.2-17.3
		c-6.7,0-13.4-0.1-20.2-0.1c-1.1-6.4-0.9-12.8-0.7-19.3c16.7,0,33.5-0.1,50.2-0.1c4.8,0,7.4,2.6,7.4,7.5
		C365,67.3,364.9,84.1,364.9,100.8z"/>
	<path class="st0" d="M130.2,43.2c0,0.9,0.2,1.8,0,2.6c-1.7,6.1-0.1,11.3,4.2,15.7c0.2,0.2,0.2,0.7,0.3,1.1c-18.2,0-36.5,0-54.7,0
		c-8.3,0-16.6,0-24.9,0c-1.5,0-3,0.3-4.3-0.7c6.3-7,13.2-13.4,20.9-18.8c19.3,0,38.6,0,57.8-0.1C129.8,43.1,130,43.1,130.2,43.2z"/>
	<path class="st0" d="M325.9,238.7c-17.1-5.8-34.1-6.4-51.2-0.1c-1.2,0.5-2.4,0.4-3.5-0.5c2.3-8.1,7-14.5,13.1-20
		c8.7-7.8,19.1-11.9,30.8-12.9c3.7-0.3,7.2,0.8,10.8,0.7C325.9,216.9,325.9,227.8,325.9,238.7z"/>
	<path class="st5" d="M129.6,43c-19.3,0-38.6,0-57.8,0.1c9.8-7.8,20.1-14.6,31.6-19.6c7,0.1,13.9,0.2,20.9,0.2
		C121.8,31.3,124.6,37.5,129.6,43z"/>
	<path class="st8" d="M354.3,258.1c-3-2.8-6-5.6-9-8.3c0-0.9,0.2-1.7,0.1-2.6c-0.2-2.2,0.6-3.2,2.9-3.1c3.6,0.2,7.2,0.1,10.8,0.2
		C358,249,355.9,253.5,354.3,258.1z"/>
	<path class="st8" d="M27.3,283.6c1-0.6,2.2-0.5,3.3-0.5c30.7,0,61.4,0,92.1,0c-2,7.8-3.9,15.7-3.7,23.9c0.4,24.4,10.4,44,29.6,58.9
		c1,0.7,2.2,1.2,2.7,2.5c-7.1-0.2-13.7-2.4-20.3-4.4c-44.2-13.8-78.5-40.4-103.1-79.5C27.6,284.3,27.5,283.9,27.3,283.6z"/>
	<path class="st1" d="M242.8,178.9c-3.6,0-7.2,0.1-10.9,0c-3.8-0.1-6.1-2.2-6.3-5.5c-0.2-3.4,2.4-6.9,5.9-7c7.7-0.3,15.5-0.2,23.2,0
		c3.4,0.1,6.2,3.5,6,6.5c-0.2,3.6-2.7,6-6.7,6.1c-0.2,0-0.5,0-0.7,0C249.7,178.9,246.3,178.9,242.8,178.9L242.8,178.9z"/>
	<path class="st9" d="M227.8,342.6c0,0.2,0,0.4,0,0.6c-0.7,0.5-1.4,1-2.1,1.6c-12.1,10-25.7,14.4-41.4,11.9c-31-5-50.4-36.5-39-67.6
		c4.2-11.5,12.2-19.8,22.4-26.2c0.2,0,0.5,0,0.7,0c0,1.6,0,3.2,0,4.8c-0.2,6.2,2.4,10.7,8.1,13.3c0.9,0.4,1.7,1,2.5,1.5
		c-0.8,1.1-1.6,2.2-2.3,3.4c-4.8,8.2-2.8,20.4,7.8,24.7c3,1.2,6,2.4,9.1,3.4c2.6,0.9,4.5,2.4,4,5.4c-0.5,3.1-2.6,4.6-5.7,4.9
		c-3.2,0.3-5.8-1-8.5-2.3c-3.4-1.6-6.5-0.7-8.2,2.1c-1.6,2.6-0.8,6.1,1.9,8.3c2.6,2.1,5.6,3.1,8.8,3.9c0.1,5.6,2.5,8.8,6.5,8.7
		c3.9-0.1,6.1-3.3,6.1-8.7c0-0.2,0-0.5,0-0.7c5.4-2.1,8.6-6.4,11.2-11.3C210.6,335.2,215.8,340.4,227.8,342.6z"/>
	<path class="st10" d="M227.8,342.6c-12-2.2-17.1-7.4-18.1-18.2c2.1-11.8-1.5-18.1-12.7-22.5c-2.2-0.9-4.4-1.7-6.7-2.5
		c-2.2-0.9-4.2-2.2-3.6-4.9c0.5-2.6,2.1-4.3,5-4.8c3.4-0.6,6.3,0.4,9.3,1.9c3.3,1.7,6.9,0.5,8.5-2.4c1.6-3,0.7-6.4-2.4-8.4
		c-2.6-1.7-5.5-3-8.6-3.6c-0.1-4.9-1.9-7.4-5.5-8c-3-0.4-5.9,1.5-6.7,4.6c-0.3,1.3-0.2,2.7-0.3,4c-2.3,1.5-4.6,3.1-6.9,4.6
		c-0.8-0.5-1.7-1.1-2.5-1.5c-5.7-2.6-8.3-7.1-8.1-13.3c0-1.6,0-3.2,0-4.8c22.5-11.8,49.4-5.8,64.2,14.3
		C247.4,297.2,245.3,324.8,227.8,342.6z"/>
	<path class="st11" d="M167.7,262.9c-10.3,6.3-18.2,14.7-22.4,26.2c-11.4,31.1,8,62.7,39,67.6c15.7,2.5,29.3-2,41.4-11.9
		c0.7-0.6,1.4-1.1,2.1-1.6c0.9,3.6,1.7,7.2,6.2,8.6c2.1,0.6,0.1,2.1-0.6,2.8c-6.8,6.3-14.9,10.5-23.7,13
		c-37.4,10.8-76.1-15.1-79.8-53.8c-2.4-25.3,7.8-45.2,28.7-59.6c2.2-1.5,3.5-1.8,3.5,1.6C161.9,259.4,165.1,261,167.7,262.9z"/>
	<path class="st11" d="M289.3,352.1c0,0.2,0,0.5,0,0.7c-9.3,8.3-19.8,14-32.2,16.1c-7.8,1.3-15.5,1.6-23.7-0.6
		c3.2-3.2,7-5.2,9.5-8.6c1.7-1.8,3.8-2.3,6.3-2.5c10.8-0.8,20.6-4.4,29-11.5c1.1-1,2.4-1.7,3.6-2.6
		C281.8,348.2,284.7,350.9,289.3,352.1z"/>
	<path class="st11" d="M296.8,359.7c1.6-1.8,3.6-2.2,6-2.4c11.1-0.8,21.1-4.5,29.6-11.9c1-0.9,1.8-2.1,3.3-2.2c-0.1,5,2.8,7.6,7.2,9
		c-0.1,0.5-0.2,1-0.3,1.4C333.2,361,323,366.9,311,369c-7.9,1.4-15.8,1.7-24-0.6C290.1,365.1,294.3,363.3,296.8,359.7z"/>
	<path class="st10" d="M335.7,342.4c-13.1-1.1-19.8-9.8-17.7-22.4c3.7-22.3-1.5-42.3-15.9-59.8c-0.9-1.1-1.6-2.2-2.4-3.3
		c3.1-0.3,6.2,0.2,9.3,0.8c23.1,4,40.8,25.1,41,48.5C350.2,320.2,345.2,332.2,335.7,342.4z"/>
	<path class="st10" d="M281.7,342.5c-6.6-1.1-12.6-3.1-16-9.5c-1.7-3.2-2.5-6.6-1.8-10.1c4.8-24.9-1.3-46.9-18-65.9
		c3.1-0.4,6.2,0.2,9.3,0.7c22,3.4,40.2,24.2,41,46.5C296.7,319,291.9,331.7,281.7,342.5z"/>
	<path class="st3" d="M335.7,342.4c9.5-10.2,14.5-22.2,14.3-36.2c-0.2-23.4-17.9-44.5-41-48.5c-3.1-0.5-6.1-1-9.3-0.8
		c-4.1-3.7-8.1-7.3-13-10.7c3-1.7,6-1.9,8.8-1.9c27.2-0.7,48.1,10.6,60.4,34.9c11.5,22.8,8.9,45.2-6.1,65.9c-2,2.7-3.9,5.5-7,7.1
		c-4.4-1.4-7.3-4-7.2-9C335.7,342.9,335.7,342.6,335.7,342.4z"/>
	<path class="st3" d="M281.7,342.5c10.1-10.8,14.9-23.5,14.4-38.4c-0.8-22.3-19-43.1-41-46.5c-3.1-0.5-6.1-1-9.3-0.7
		c-3.8-3-6.9-6.9-11.1-9.4c-0.5-0.3-1.2-0.8-0.9-1.5c0.4-0.9,1.3-1,2.2-1.1c8.9-1.6,17.7-1.2,26.3,1.4c26.7,8.1,42.6,26.2,46.1,53.7
		c2.6,20.1-3.7,38-19.1,52c-4.6-1.2-7.4-3.9-7.6-9C281.7,342.9,281.7,342.7,281.7,342.5z"/>
	<path class="st3" d="M198.5,277.1c3.1,0.7,6,1.9,8.6,3.6c3.2,2.1,4.1,5.4,2.4,8.4c-1.6,2.9-5.1,4-8.5,2.4c-3-1.5-5.9-2.5-9.3-1.9
		c-2.9,0.5-4.5,2.2-5,4.8c-0.6,2.8,1.4,4.1,3.6,4.9c2.2,0.9,4.4,1.7,6.7,2.5c11.2,4.3,14.7,10.7,12.7,22.5
		c-2.6,4.9-5.8,9.1-11.2,11.3c-4.1,1.3-8.4,0.7-12.6,0.8c-3.2-0.7-6.2-1.7-8.8-3.9c-2.7-2.3-3.5-5.7-1.9-8.3
		c1.7-2.8,4.8-3.7,8.2-2.1c2.7,1.3,5.3,2.6,8.5,2.3c3.1-0.3,5.2-1.8,5.7-4.9c0.5-3-1.3-4.5-4-5.4c-3.1-1.1-6.1-2.2-9.1-3.4
		c-10.6-4.3-12.6-16.5-7.8-24.7c0.7-1.2,1.5-2.3,2.3-3.4c2.3-1.5,4.6-3.1,6.9-4.6C190.1,276.8,194.3,277.1,198.5,277.1z"/>
	<path class="st11" d="M185.9,336.4c4.2-0.1,8.5,0.6,12.6-0.8c0,0.2,0,0.5,0,0.7c0,5.4-2.2,8.5-6.1,8.7
		C188.4,345.2,185.9,342,185.9,336.4z"/>
	<path class="st11" d="M198.5,277.1c-4.2,0-8.4-0.3-12.6,0.7c0.1-1.3,0-2.7,0.3-4c0.8-3.1,3.7-5,6.7-4.6
		C196.6,269.7,198.4,272.3,198.5,277.1z"/>
</g>
</svg>
