<?xml version="1.0" encoding="utf-8"?>
<!-- Generator: Adobe Illustrator 23.0.6, SVG Export Plug-In . SVG Version: 6.00 Build 0)  -->
<svg version="1.1" id="Layer_1" xmlns="http://www.w3.org/2000/svg" xmlns:xlink="http://www.w3.org/1999/xlink" x="0px" y="0px"
	 viewBox="0 0 385 385" style="enable-background:new 0 0 385 385;" xml:space="preserve">
<style type="text/css">
	.st0{fill:#4FA4D0;}
	.st1{fill:#4C9ABC;}
	.st2{fill:#54739E;}
	.st3{fill:#EFC091;}
	.st4{fill:#C1CCD2;}
	.st5{fill:#4A99BC;}
	.st6{fill:#DAE1EA;}
	.st7{fill:#50A4D0;}
	.st8{fill:#888B9F;}
	.st9{fill:#878A9F;}
	.st10{fill:#788AA8;}
</style>
<g>
	<path class="st0" d="M240.7,23.7c-0.5-2.3-1.4-4.5-1.6-6.9c-0.8-8.5,3.9-13.3,11.2-16.4c1.8,0,3.5,0,5.3,0c1.7,1.4,2.5,3.3,3.2,5.4
		c2.2,6.6,4.5,13.2,6.8,19.8c12.1,34,24.3,67.9,36.5,101.9c10.8,30.2,21.6,60.5,32.3,90.7c0.9,2.5,1.6,5.1,1.1,8
		c-1.2,7.2-8.5,13.8-17.6,12.8c-2.2-6-4.5-12.1-6.7-18.1c-0.4-1.3-0.7-2.7-1.2-3.9c-19.9-55.8-39.8-111.6-59.8-167.3
		C247.2,41,244.5,32.1,240.7,23.7z"/>
	<path class="st1" d="M317.9,239c9.1,1.1,16.4-5.6,17.6-12.8c0.5-2.9-0.2-5.5-1.1-8c-10.7-30.3-21.5-60.5-32.3-90.7
		c-12.1-34-24.3-67.9-36.5-101.9c-2.3-6.6-4.6-13.2-6.8-19.8c-0.7-2-1.5-4-3.2-5.4c0.8,0,1.5,0,2.3,0c6.2,2.8,9.4,7.7,11.6,14.1
		c8.4,24.2,17.2,48.3,25.8,72.5c0.2,0.5,0.4,0.9,0.6,1.3c2.8,8.1,5.6,16.2,8.5,24.3c4.6,12.9,9.3,25.7,14,38.5
		c4.2,12,8.3,24,12.5,36c4.8,13.5,9.7,26.9,14.5,40.4c3.5,9.9,1.2,17.5-6.5,21.2c-7.6,3.7-14.8,1.1-20.5-7.5
		C318.2,240.6,318,239.8,317.9,239z"/>
	<path class="st2" d="M32,384.5c-0.8-1.7-2.5-3.1-2.2-5.3c1.8,0.2,3.4-0.5,5.1-1.1c12.3-4.4,24.6-8.9,36.9-13.2
		c5.3-1.9,6.1-3.2,4.2-8.6c-5-14.3-10.2-28.6-15.3-42.9c-3.8-10.7-7.7-21.3-11.5-32c4.3-1.9,5-1.5,8.1,4.8c0.1,0.5,0.1,1,0.3,1.4
		c9,25.3,18.1,50.6,27.1,75.8c-0.2,3.1-2.2,4.4-4.9,5.3c-13.2,4.6-26.3,9.4-39.4,14.1c-1.1,0.4-2.5,0.2-3,1.6
		C35.5,384.5,33.8,384.5,32,384.5z"/>
	<path class="st3" d="M84.6,363.5c-9-25.3-18.1-50.6-27.1-75.8c-0.2-0.5-0.2-1-0.3-1.4c3.2-5.8,8.1-10.4,12-15.6
		c3.6-4.8,7.6-9.2,11.1-14c4.3-5.8,10.8-8.7,16.2-13c0.7-0.5,1.4-1,2.1-1.5c2.1,5.6,4.1,11.2,6.2,16.7c0.4,1.1,0.3,3,2.5,2.1
		c9.4-3.6,19.1-6.3,28.3-10.5c6.8-1.7,13.2-4.5,19.8-6.7c7.2-2.4,11.8-1.5,15.4,3.2c3.3,4.2,3,9-0.9,15.2c-0.1,0.1-0.4,0.4-0.4,0.4
		c0.3,0.4,0.5,0.1,0.7-0.1c4.1-0.7,8.2-1.1,11.8,1.6c7.3,5.6,6.1,15.9-2.2,19.9c-0.8,0.4-1.6,0.7-2.9,1.3
		c6.9,1.4,11.7,4.7,11.8,11.7c0,9.1-7.3,11.2-14.9,13.6c3.9,0.7,7,1.4,9.3,3.9c2.3,2.6,3.1,5.5,2.9,8.9c-0.3,5.9-4.1,8.8-9.1,10.6
		c-8,2.9-16,5.7-23.9,8.5c-16.5,5.9-33.1,11.8-49.6,17.8C97.2,362.6,90.8,362.4,84.6,363.5z"/>
	<path class="st4" d="M317.9,239c0.2,0.8,0.3,1.6,0.5,2.4c-8.2-2.9-16.3-6.1-24.7-8.7c-18.5-5.8-37.4-10-56.7-12.6
		c-18.8-2.5-37.7-3.4-56.7-2.7c-11.5,0.4-23.1,1.1-34.4,3.5c-0.8,0.2-1.7,0.1-2.6,0.2c-2-6.6-4.3-13.2-7-19.6
		c0.1-0.3,0.1-0.5,0.1-0.8c1.7,0,3.5,0.1,5.2-0.2c8.9-1.5,18-2.5,27-2.6c13.7-0.2,27.4-0.6,41.1,0.4c11.5,0.9,23,2.1,34.4,4.1
		c22,3.9,43.4,9.9,64.1,18.3c0.9,0.4,1.9,1.6,2.9,0.1C313.4,226.9,315.7,233,317.9,239z"/>
	<path class="st5" d="M136.2,201.5c2.7,6.4,5,12.9,7,19.6c-5.3,2-10.6,4-15.9,5.9c-8.5,3-17,5.9-25.4,9c-1.5,0.6-3.6,0.2-4.6,2
		c-5.4,1-10.3,3.4-15.5,5.1c-8.2,2.8-14.6-0.2-17.5-8.2c-1.7-4.7-3.3-9.4-4.9-14c0.9,0,1.6,0.4,2.4,0.9c3.8,2.6,7.7,3.7,12.2,1.8
		c4.6-1.9,9.4-3.3,14.1-5C104.2,213,120.2,207.3,136.2,201.5z"/>
	<path class="st6" d="M318.3,151.3c-4.7-12.8-9.4-25.7-14-38.5c-2.9-8.1-5.7-16.2-8.5-24.3c4.1,0,8.2-0.1,12.3-0.2
		c4-0.1,6.8,1.9,8.6,5.4c2.7,5.1,3.9,10.7,6,16.1c3.1,7.7,5.5,15.7,8.5,23.5c1.4,3.8,0.9,7.3-1.7,10.1
		C326.4,146.6,323.1,150,318.3,151.3z"/>
	<path class="st7" d="M97.4,238.1c1-1.9,3-1.5,4.6-2c8.4-3.1,17-6,25.4-9c2.8,7.8,5.5,15.6,8.3,23.4c-9.2,4.2-18.9,6.9-28.3,10.5
		c-2.3,0.9-2.1-1.1-2.5-2.1c-2.1-5.6-4.1-11.2-6.2-16.7C98.2,240.7,97.8,239.4,97.4,238.1z"/>
	<path class="st8" d="M333.1,89.3c-1.6,0-2.6-0.6-3.1-1.9c-0.7-1.8,0.3-3.1,1.7-4.1c5.9-4.3,11.8-8.7,17.7-13.1
		c2.1-1.6,4.2-3.1,6.3-4.7c1.6-1.2,3.2-1.4,4.6,0.2c1.4,1.7,0.9,3.4-0.7,4.5c-8.3,6.2-16.6,12.3-25,18.4
		C334.2,89,333.6,89.1,333.1,89.3z"/>
	<path class="st8" d="M355.3,133.3c-2,0-4-0.1-6,0s-3.5-0.7-3.6-2.8c-0.1-2.3,1.5-3.2,3.6-3.3c2.4-0.1,4.7-0.3,7.1-0.4
		c7.3-0.4,14.7-0.7,22-1c2.3-0.1,4.5,0.1,4.6,3c0.1,2.7-2,3-4.2,3.1C370.9,132.3,363.1,132.8,355.3,133.3L355.3,133.3z"/>
	<path class="st9" d="M344.3,110.1c-1.9,0.1-3.1-0.6-3.5-2.1c-0.5-1.9,0.6-3.1,2.2-3.7c3.8-1.4,7.7-2.8,11.6-4.2
		c5.4-1.9,10.8-3.8,16.1-5.8c2-0.7,3.8-0.5,4.6,1.7c0.7,2-0.4,3.4-2.2,4.1c-9.2,3.3-18.5,6.6-27.7,9.8
		C344.9,110.1,344.4,110.1,344.3,110.1z"/>
	<path class="st8" d="M378.2,162.5c-1.8-0.4-4.1-0.9-6.4-1.4c-7.4-1.7-14.8-3.4-22.2-5.1c-2.1-0.5-3.6-1.5-3-3.8
		c0.5-2.3,2.4-2.7,4.5-2.2c9.3,2.1,18.7,4.3,28,6.5c1.9,0.4,3.4,1.3,3.1,3.5C382,161.7,380.7,162.6,378.2,162.5z"/>
	<path class="st8" d="M319.3,71.5c-2.5,0-4-2.8-2.4-4.9c6.1-8,12.3-16,18.5-23.9c1.3-1.6,3-1.9,4.6-0.5c1.5,1.3,1.3,2.9,0.2,4.3
		c-6.1,7.9-12.2,15.7-18.3,23.6C321.3,70.9,320.4,71.5,319.3,71.5z"/>
	<path class="st6" d="M311.2,220.9c-1,1.4-2,0.2-2.9-0.1c-20.7-8.4-42.1-14.4-64.1-18.3c-11.3-2-22.8-3.2-34.4-4.1
		c-13.7-1-27.4-0.7-41.1-0.4c-9,0.2-18.1,1.1-27,2.6c-1.7,0.3-3.5,0.1-5.2,0.2c-1.8-5.1-3.7-10.3-5.5-15.4
		c-4.2-11.9-8.4-23.9-12.6-35.8c4.7-3.9,10.2-6.7,15.2-10.1c14-9.7,27.4-20.2,40.1-31.7c20.1-18.3,37.4-38.9,52.4-61.5
		c4.1-6.1,8-12.4,11.4-18.9c0.8-1.5,1.2-3.4,3.4-3.6c3.8,8.4,6.5,17.2,9.6,25.9c20,55.8,39.9,111.5,59.8,167.3
		C310.5,218.2,310.8,219.6,311.2,220.9z"/>
	<path class="st10" d="M49.1,281.4c3.9,10.7,7.7,21.3,11.5,32C65.8,327.7,71,342,76,356.3c1.9,5.4,1.1,6.7-4.2,8.6
		c-12.3,4.4-24.6,8.8-36.9,13.2c-1.6,0.6-3.3,1.3-5.1,1.1c-5-13.8-10-27.6-15-41.4c-4-11-7.9-22-11.8-33.1c-1.9-5.2-1.2-6.6,3.9-8.4
		C21,291.4,35,286.4,49.1,281.4z"/>
	<path class="st0" d="M118.3,149.5c4.2,11.9,8.4,23.9,12.6,35.8c1.8,5.1,3.7,10.3,5.5,15.4c0,0.3-0.1,0.5-0.1,0.8
		c-16,5.7-32.1,11.5-48.1,17.2c-4.7,1.7-9.5,3.1-14.1,5c-4.5,1.8-8.5,0.8-12.2-1.8c-0.8-0.5-1.5-0.9-2.4-0.9
		c-4-11.2-8.1-22.5-12-33.8c-2.2-6.4,0.7-12.9,6.8-15.1c20.8-7.6,41.7-14.9,62.6-22.4C117.3,149.5,117.8,149.6,118.3,149.5z"/>
</g>
</svg>
