<svg id="Layer_1" data-name="Layer 1" xmlns="http://www.w3.org/2000/svg" viewBox="0 0 409.65 392.04"><defs><style>.cls-1{fill:#feef83;}.cls-2{fill:#fedb64;}.cls-3{fill:#fec750;}</style></defs><title>star-1</title><path class="cls-1" d="M888.8,432c-4.34,8.85-10.34,12.42-17.32,10a88.33,88.33,0,0,1-11.67-5.11c-15.08-7.89-30.08-15.92-45.1-23.9-.59-.31-1.17-.64-1.77-.93a2.93,2.93,0,0,1-1.67-3.64c.4-1.81,1.82-2.19,3.39-2,6.44.78,12.89,1.56,19.32,2.45,13.91,1.92,27.81,3.87,41.6,6.59A17.44,17.44,0,0,1,888.8,425.6Z" transform="translate(-479.15 -188.75)"/><path class="cls-2" d="M707.35,234.34q8.31,19,16.63,38c3.09,7.08,6.19,14.15,9.14,21.28.94,2.28,2.3,3,4.77,3.26,16.28,1.4,32.55,3,48.83,4.54,15.76,1.45,31.52,2.81,47.28,4.23,2.64.24,5.32.4,7.92.88,3.19.6,5.83,2.28,6.68,5.58.92,3.55.35,6.87-2.62,9.47-7.4,6.5-14.77,13.05-22.17,19.55l-49,42.91a6.07,6.07,0,0,1-.89.8c-8.12,4.38-8.11,10.66-6.09,18.94,7.36,30.07,13.9,60.33,20.68,90.54.42,1.9,1.08,3.81.64,5.89-1.32,6.33-7.29,9.15-13.25,5.75-10.88-6.19-21.59-12.67-32.35-19.06Q715.25,470.05,687,453.14c-2.31-1.39-4-1.13-6.2.18q-37,22.14-74.14,44.11c-.8.48-1.68.81-2.52,1.21,2.38-16.09,5.54-32,9.26-47.86a662.6,662.6,0,0,1,21.41-72.45,700.75,700.75,0,0,1,28.13-67.2c8.13-16.89,17.09-33.36,26.71-49.45C695.2,252.36,700.6,242.91,707.35,234.34Z" transform="translate(-479.15 -188.75)"/><path class="cls-3" d="M707.35,234.34c-6.75,8.57-12.15,18-17.73,27.34C680,277.77,671,294.24,662.91,311.13a700.75,700.75,0,0,0-28.13,67.2,662.6,662.6,0,0,0-21.41,72.45c-3.72,15.83-6.88,31.77-9.26,47.86-4,3.19-8.46,5.5-12.88,7.91a7.79,7.79,0,0,1-9.3-.9,8.68,8.68,0,0,1-3-9.27c7.46-32.87,14.73-65.79,22.32-98.63,1-4.21.15-6.51-3.12-9.33-18.59-16-36.9-32.27-55.31-48.46q-10-8.83-20.1-17.69c-3-2.62-4.83-5.66-3.5-9.84s4.16-5.83,8.33-6.2c13.5-1.19,27-2.54,40.49-3.82,13-1.24,25.93-2.51,38.9-3.72,7.41-.68,14.83-1.37,22.25-1.85,3-.19,4.76-1.17,6-4.11q19.94-46.8,40.12-93.49c1.64-3.79,4-6.55,8.58-6.6,4.34,0,6.94,2.34,8.55,6q7.22,16.65,14.32,33.35A16.32,16.32,0,0,1,707.35,234.34Z" transform="translate(-479.15 -188.75)"/><path class="cls-1" d="M697.59,565c.17,9.81-5.27,15.8-13.26,15.77s-13.57-6.07-13.07-14.81c.76-13.55,3.5-26.84,5.87-40.17q1.86-10.38,3.73-20.77c.14-.78.39-1.54.55-2.32.32-1.6,1.06-2.7,2.88-2.75,2-.06,2.82,1.17,3.15,2.91,1.23,6.52,2.53,13,3.67,19.57,2.25,12.94,4.73,25.85,6.21,38.92C697.5,563,697.56,564.57,697.59,565Z" transform="translate(-479.15 -188.75)"/><path class="cls-1" d="M562.8,188.75c6,.09,9.91,2.45,12.61,6.9,6.76,11.17,12.37,22.93,17.89,34.75,3.37,7.23,6.86,14.41,10.32,21.6.83,1.73,1.78,3.43-.32,4.93s-3.41.16-4.84-1.17c-13.22-12.37-26.07-25.12-38.73-38-2.23-2.28-4.32-4.71-6.31-7.2-3.59-4.51-4-9.41-1.41-14.56C554.38,191.15,558.53,189.23,562.8,188.75Z" transform="translate(-479.15 -188.75)"/><path class="cls-1" d="M805.37,188.79A12.59,12.59,0,0,1,816,196.06c2.54,5.17,2.21,10.17-1.55,14.53-12.19,14.13-25.88,26.79-39.25,39.76-2,1.94-4.08,3.81-6.07,5.77-1.38,1.34-2.79,2.08-4.56.74s-1.3-2.68-.53-4.26c9.3-19,17.49-38.51,28.37-56.7C795.24,191.24,799.12,188.85,805.37,188.79Z" transform="translate(-479.15 -188.75)"/><path class="cls-1" d="M492.68,442.43a13.15,13.15,0,0,1-13.41-11.71,13.37,13.37,0,0,1,10-14.43c10.66-2.77,21.59-4.16,32.46-5.81q13.75-2.1,27.57-3.72c2.5-.29,6-2.12,7.31,1.58s-2.54,4.1-4.68,5.28c-15.93,8.83-31.87,17.63-48.38,25.32C500.12,440.53,496.79,442.81,492.68,442.43Z" transform="translate(-479.15 -188.75)"/></svg>