<?xml version="1.0" encoding="utf-8"?>
<!-- Generator: Adobe Illustrator 23.0.3, SVG Export Plug-In . SVG Version: 6.00 Build 0)  -->
<svg version="1.1" id="Layer_1" xmlns="http://www.w3.org/2000/svg" xmlns:xlink="http://www.w3.org/1999/xlink" x="0px" y="0px"
	 viewBox="0 0 409.8 409.8" style="enable-background:new 0 0 409.8 409.8;" xml:space="preserve">
<title>woman-outline</title>
<path d="M172.9,409.8c-2.7-2-5-4.2-3.6-8s4.5-4,7.9-4c34.4,0,68.8,0,103.2,0h5.4v-4.4c0-16.4,0-32.8,0-49.2c-0.1-1.5,0-2.9,0.3-4.4
	c0.8-3.1,2.9-4.8,6.2-4.5c3.1,0.2,4.8,2.1,5.3,5c0.2,1.3,0.2,2.7,0.1,4v53.4h6c7.6,0,15.2,0,22.8,0c11.9-0.1,15.7-4.6,13.4-16.3
	c-3.5-17.9-7.1-35.8-10.7-53.6c-2.2-11-4.3-22-6.7-32.9s-9.5-17.8-20-20.8c-11.6-3.3-23.4-6.1-35.2-8.8c-1.2-0.3-3.2,0.9-4.1,2
	c-11.3,13.1-22.5,26.3-33.7,39.5c-5.2,6.1-11.3,11-19.5,12.4c-11.1,1.9-20.3-2-27.5-10.2c-11.8-13.5-23.4-27.3-35-41.1
	c-2-2.3-3.6-3.1-6.7-2.3c-10,2.7-20.1,5.1-30.2,7.5c-13.6,3.3-21.5,11.5-24.2,25.5c-5.2,27.5-10.9,54.8-16.3,82.3
	c-0.3,1.6-0.5,3.2-0.6,4.8c-0.5,7.6,2.5,11.6,10,11.9c10.8,0.4,21.5,0.1,32.7,0.1v-4.4c0-16.4,0-32.8,0-49.2c0-1.7-0.2-4,0.8-5
	c1.5-1.6,4-3.5,6-3.3c1.8,0.1,3.7,2.5,4.9,4.3c0.7,1,0.3,2.8,0.3,4.3c0,16.3,0,32.5,0,48.8v4.8c7.5,0,14.7-0.3,21.8,0.2
	c2.4,0.3,4.6,1.6,6,3.6c0.9,1.2,0,3.9-0.6,5.8c-0.3,1-1.6,1.6-2.5,2.4H77.7c-4.5-1.9-9.6-3.1-13.2-6c-7.7-6.1-8.1-15-6.4-23.8
	c5.4-28.1,11.1-56.2,16.7-84.3c3.6-18.4,14.6-29.6,32.7-34.1c19-4.7,38-9.4,57-14.2c1.2-0.3,2.4-0.8,3.6-1.1V245
	c-1.3-0.3-2.7-0.5-4-0.7c-13.5,0-26.9,0-40.4,0s-20.3-6.8-20.3-20.4c0-43.5-0.3-86.9,0.1-130.4c0.4-39.4,18.7-68.1,54.1-85.3
	C176.6-1,196.9-2,217.3,3c9,2.2,17.6,5.9,26.4,8.8c2.3,0.8,5,1.5,7.2,1.1C274.6,8.4,293.6,24,302.4,43c3.1,6.5,4.7,13.7,4.5,20.9
	c-0.1,4.7-2.2,7.4-5.9,7.5s-5.9-2.6-6.1-7.3c-0.8-17.8-11.1-32.9-26.6-38.2c-4-1.3-8.3-1.7-12.5-1.2c-6.8,0.9-13.8-0.2-20-3.1
	c-25.7-11.1-51.9-14.2-77.5-0.4c-26.6,14.2-42,37-42.7,67.1c-1.1,45.7-0.3,91.5-0.3,137.2c0,4.5,1.8,6.8,6,6.8
	c15.1,0.1,30.1,0,45.2,0c0.4-0.1,0.8-0.2,1.2-0.4c1-3,0-4.8-2.7-6.5c-22.8-13.9-35.6-34.4-38.8-60.6c-1-8-0.6-16.3-0.3-24.4
	c0.4-7.9,7.4-13.5,15.9-13.9c10.1-0.5,20.3-0.5,30.2-2.3c25.6-4.7,45.8-18.7,62.4-38.3c1.4-1.6,2.6-3.4,4-5c5-5.6,12.4-5.1,16.7,1
	c1.1,1.6,2,3.5,3.2,5c2.7,3.8,6.8,6.5,11.5,7.4c6.5,1.3,11.7,4.3,14.1,11c0.4,0.8,1.1,1.4,1.9,1.7c2.8,1.1,5.8,1.9,9.2,3
	c0-4.4,0-8.6,0-12.8c0-1.9-0.3-4.1,0.6-5.5c1.3-1.9,3.4-3.9,5.5-4.2c2.8-0.5,5,1.4,5.7,4.5c0.2,1,0.3,2.1,0.3,3.2
	c0,43.3,0,86.6,0,129.9c0,12.1-7.2,18.9-19.4,19c-13.9,0.1-27.7,0-41.6,0c-1.3,0.1-2.6,0.2-3.9,0.4l-0.1,1.3c1.2,0.5,2.5,1,3.8,1.4
	c19,4.8,38,9.5,57,14.2c18.3,4.5,29.2,16,32.8,34.5c5.4,27.7,11,55.4,16.5,83.1c2.4,12-0.6,21.6-8.9,26.6c-3,1.8-6.6,2.7-9.9,4
	L172.9,409.8z M245.2,91.5c0.6-0.3,0.3-0.3,0.2-0.1c-0.8,0.9-1.5,1.8-2.3,2.8c-15.6,18.7-34.8,32-58.1,39.3
	c-13.4,4.1-27.4,5.8-41.5,5.1c-4.8-0.2-6,0.9-5.9,5.8c0.1,7.5,0,15,1,22.3c5.1,36.7,39,62.3,75.7,57.2c1.1-0.1,2.1-0.3,3.2-0.5
	c28.1-5.3,50.1-26.1,53.7-54.6c2.5-19.2,1.1-38.8,1.2-58.3c0-1.3-2.2-3.1-3.7-3.8c-3.1-1.4-7-1.6-9.7-3.5
	C254.2,99.8,249.9,95.6,245.2,91.5L245.2,91.5z M229.9,232.8c-16.9,5.3-33.3,5-49.9-0.1c0,5.5,0,10.5,0,15.4c0,6.7-1.2,8.1-7.5,9.7
	c-4.7,1.2-9.4,2.4-14.7,3.7c3.5,4.1,6.4,7.7,9.5,11.1c0.9,0.7,2.1,1.1,3.2,1c22.9,0.1,45.8,0.1,68.8,0c1,0,2.4,0,3-0.6
	c3.3-3.6,6.4-7.3,10-11.5c-5.6-1.4-10.3-2.6-15.1-3.8c-5.9-1.5-7.2-3-7.3-9.1C229.8,243.6,229.9,238.6,229.9,232.8z M294.9,152.7
	c-2.5,0.9-4.4,2-6.4,2.3c-3.2,0.5-3.9,2.1-4.1,5.1c-1.6,28.6-14.7,50.6-39.1,65.6c-2.5,1.5-4.3,3-2.9,6.5c1.3,0,2.5,0.2,3.8,0.2
	c13.3,0,26.6,0,39.9,0c7.3,0,8.7-1.4,8.7-8.6c0-22.2,0-44.5,0-66.7L294.9,152.7z M178.1,285.9c5.7,6.3,10.4,12.4,16,17.6
	c6.2,5.8,14.8,6,21.1,0.4c5.8-5.2,10.7-11.5,16.6-18L178.1,285.9z M284.8,143.2c7.1-1.8,10.1-5.8,10-12.6c-0.1-5.3-3.8-9.4-10-10.8
	V143.2z"/>
</svg>
