<?xml version="1.0" encoding="utf-8"?>
<!-- Generator: Adobe Illustrator 23.0.3, SVG Export Plug-In . SVG Version: 6.00 Build 0)  -->
<svg version="1.1" id="Layer_1" xmlns="http://www.w3.org/2000/svg" xmlns:xlink="http://www.w3.org/1999/xlink" x="0px" y="0px"
	 viewBox="0 0 384 384" style="enable-background:new 0 0 384 384;" xml:space="preserve">
<style type="text/css">
	.st0{fill:#FEA964;}
	.st1{fill:#4D4E59;}
	.st2{fill:#FEBC7B;}
	.st3{fill:#F9A157;}
	.st4{fill:#42434D;}
	.st5{fill:#FEDEB9;}
	.st6{fill:#FEF2E3;}
	.st7{fill:#FED5A6;}
	.st8{fill:#FEEAD1;}
</style>
<title>woman-colored</title>
<path class="st0" d="M294.8,384H89.3c0.4-12.5-1.1-25.1,2.2-37.5c6.6-25,28.1-43.1,53.8-45.5c5.8-0.5,11-0.1,11.5-7.7l29.9,22.9
	c4.3,3.3,6.3,3.3,10.6,0l30.7-23.5c-0.1,7.2,0.9,8,8.1,8.2c9,0.2,17.8,2.7,25.6,7.1c21.5,12,32.1,30.5,33,54.8
	C295.1,369.8,294.8,376.9,294.8,384z"/>
<path class="st1" d="M221.3,0c5.9,1.6,12.1,2.2,17.9,4.5c4.7,1.8,9.5,3.5,13.7,6.5c0.2,1.1,0.4,2.2,0.7,3.3c1.2,5.6-1.9,10.4-7.5,11
	c-2.2,0.2-4.4-0.5-6.6-0.5c-13.4-0.1-26.7,0-40.1-0.1c-11.3-0.2-22.6,1.8-33.1,6.1C148.1,38,133.1,51.5,124,68.7
	c-7.5,13.8-10.2,28.7-9.9,44.3c0.1,3.1,0.3,6.2-0.7,9.3c-2.5,2.1-3.2,4.8-3.2,8c0.1,14.1,0,28.2,0,42.3c-0.9,0.1-1.1,0.7-1.5,1.4
	c-1.6,3.2-2.7,6.7-4.6,9.8c-7,11.3-13.8,22.7-16.7,36c-2.2,9.9-1.7,19.8-1.8,29.7c0,5.9-4.9,9.5-10.6,8c-0.9-0.3-2-1.4-3,0
	c-6.6-10.4-9.8-21.9-11.2-34c-2.4-22,3.7-41.8,15.7-60.1c8.8-13.6,12.8-28.8,12.8-45c0-12.6,0-25.3,0-37.9C89.5,42.8,119,8,156,1.4
	c2-0.4,4.2,0,6-1.4L221.3,0z"/>
<path class="st2" d="M156.9,293.3c-0.5,7.6-5.8,7.2-11.5,7.7c-25.7,2.4-47.2,20.6-53.8,45.5c-3.3,12.4-1.8,25-2.2,37.5h-21
	c-3-2.5-4-5.5-3.8-9.5c0.3-10.2-0.1-20.5,0.1-30.7c0.6-23.3,11.3-40.7,31.1-52.7c1.6-1,3.3-1.8,4.9-2.7c7.5-2.9,15.3-5.2,23.4-5.4
	c5.8,0,11.6-1.1,17.1-3.2c0.7,1.8,2.4,2.5,3.7,3.5C148.8,286.7,153.2,289.5,156.9,293.3z"/>
<path class="st3" d="M294.8,384c0-7.1,0.2-14.3,0-21.4c-0.8-24.3-11.5-42.8-33-54.8c-7.8-4.4-16.6-6.8-25.6-7.1
	c-7.2-0.2-8.2-1-8.1-8.2l15.4-12.3c3.5,0.8,6.8,2.5,10.4,2.5c10.2,0,20.2,1.9,29.7,5.7c10,5.2,18.7,11.9,25.1,21.3
	c7,10,10.8,21.8,10.9,34c0,10.1-0.2,20.3,0.1,30.4c0.1,4-0.8,7.3-3.8,9.9L294.8,384z"/>
<path class="st4" d="M141.1,279.9c-5.4,2.1-11.2,3.1-17.1,3.1c-8.1,0.2-15.9,2.5-23.4,5.4c-10.7-7.9-20.4-16.8-27.2-28.4
	c-0.5-0.8-0.9-1.8-1.3-2.6c1-1.4,2.1-0.3,3,0c5.7,1.5,10.5-2.1,10.6-8c0.1-9.9-0.4-19.9,1.8-29.7c3-13.3,9.7-24.7,16.7-36
	c1.9-3.1,2.9-6.6,4.6-9.8c0.4-0.7,0.6-1.3,1.5-1.4c0.3,6.6,1.5,13.1,3.5,19.3c7.8,24.1,23.8,40.9,46.8,51.2
	c0.4,4.8-0.3,9.5-0.7,14.2C156.7,267.4,150.7,275.1,141.1,279.9z"/>
<path class="st4" d="M283.6,288.4c-9.4-3.8-19.5-5.7-29.7-5.7c-3.6,0-6.9-1.8-10.4-2.5c-9.3-4.6-16.3-12.9-19.1-22.9
	c-0.6-4.7-0.9-9.5-0.8-14.2l2.3-1.2c30.6-15.2,46.9-39.8,47.9-74c0.4-13,0.1-26,0.1-39c0-5.1-2-7.4-7-7.9
	c-14-1.4-22.7-9.3-27.2-22.2c-2.5-7.2-6.2-8.5-12.7-4.3c-11.5,7.5-23.9,13.6-36.8,18.2c-18.9,6.6-38.8,9.9-58.8,9.8
	c-6,0.2-12-2-18-0.2c1.1-3,0.8-6.2,0.7-9.3c-0.3-15.6,2.5-30.5,9.9-44.3c9.1-17.2,24.1-30.7,42.2-37.9c10.5-4.2,21.8-6.3,33.1-6.1
	c13.4,0.1,26.7,0,40.1,0.1c2.2,0,4.5,0.8,6.6,0.5c5.6-0.6,8.8-5.4,7.5-11c-0.2-1.1-0.5-2.2-0.7-3.3C273.8,23,286.8,40.8,292.6,64
	c1.6,6.5,2.3,13.3,2.2,20c0,11.1,0.1,22.2,0,33.4c-0.3,17.1,4.6,33.8,14,48.1c10.9,16.6,16,34.8,14.6,54.6
	c-1.7,24.6-12.1,45-30.8,61.1C289.7,283.7,286.6,286,283.6,288.4z"/>
<path class="st5" d="M224.4,257.3c2.8,10,9.8,18.4,19.1,23l-15.4,12.3l-30.7,23.6c-4.3,3.3-6.3,3.3-10.6,0l-29.9-22.9
	c-3.7-3.7-8.1-6.5-12.1-9.8c-1.3-1.1-3-1.8-3.7-3.5c9.6-4.8,15.6-12.5,18.8-22.7c1.3-0.1,2.4,0.5,3.5,1c13,5.1,26.4,6,40.2,4.4
	C210.8,261.8,217.5,259.3,224.4,257.3z"/>
<path class="st6" d="M113.3,122.3c6-1.8,12,0.4,18,0.2c4.8,2.7,7.9,6.1,8.5,12.2c0.5,5.9,0.4,11.7,0.4,17.5c0,7.1,0.2,14.2,1.9,21.1
	c5.2,21,17.2,37.2,34.8,49.5c5.5,3.9,6.8,11.5,2.9,17c-0.2,0.3-0.5,0.7-0.8,1c-2.2,2.6-5.1,3.8-8,5.3c-3.8-0.1-7-1.9-10.5-3
	c-23-10.3-38.9-27-46.8-51.2c-2-6.3-3.2-12.8-3.5-19.3c0-14.1,0.1-28.2,0-42.3C110.1,127,110.8,124.3,113.3,122.3z"/>
<path class="st7" d="M160.5,243c3.5,1.1,6.8,2.9,10.5,3c5,2.3,10.5,2.6,15.8,3c12.5,0.8,25-1.3,36.7-5.9c-0.1,4.8,0.1,9.5,0.8,14.2
	c-6.9,2-13.6,4.6-20.8,5.4c-13.8,1.5-27.2,0.7-40.2-4.4c-1.2-0.5-2.2-1.1-3.5-1C160.3,252.5,160.9,247.8,160.5,243z"/>
<path class="st8" d="M223.6,243c-11.6,4.7-24.2,6.7-36.7,5.9c-5.4-0.4-10.8-0.7-15.8-3c2.8-1.5,5.8-2.7,8-5.3
	c4.4-5.1,4-12.8-1.1-17.2c-0.3-0.3-0.7-0.5-1-0.8c-17.5-12.3-29.5-28.5-34.8-49.5c-1.7-6.9-1.9-14-1.9-21.1c0-5.8,0.1-11.6-0.4-17.5
	c-0.5-6.1-3.7-9.5-8.5-12.2c20,0.1,39.9-3.2,58.8-9.8c12.9-4.6,25.3-10.7,36.8-18.2c6.5-4.2,10.2-2.9,12.7,4.3
	c4.5,13,13.2,20.8,27.2,22.2c5.1,0.5,7,2.8,7,7.9c0,13,0.3,26-0.1,39c-1.1,34.2-17.3,58.8-47.9,74L223.6,243z"/>
</svg>
