<?xml version="1.0" encoding="utf-8"?>
<!-- Generator: Adobe Illustrator 23.0.6, SVG Export Plug-In . SVG Version: 6.00 Build 0)  -->
<svg version="1.1" id="Layer_1" xmlns="http://www.w3.org/2000/svg" xmlns:xlink="http://www.w3.org/1999/xlink" x="0px" y="0px"
	 viewBox="0 0 410 410" style="enable-background:new 0 0 410 410;" xml:space="preserve">
<style type="text/css">
	.st0{fill:#4FB96F;}
	.st1{fill:#7A9CC4;}
	.st2{fill:#C0D6F2;}
	.st3{fill:#AEC5E5;}
</style>
<g>
	<path class="st0" d="M107.2,251.5c23.8,26.6,48.7,51.9,80.8,68.8c8.8,4.6,14.9,3.5,21-4.2c5.7-7.2,11.2-14.6,17-21.7
		c6.3-7.9,13.1-9,21.6-3.4c21.3,14.1,42.6,28.3,63.8,42.6c7.8,5.2,9.4,12.6,4.6,20.8c-4.5,7.6-9.4,14.9-13.5,22.6
		c-7.7,14.6-20.4,20.4-36.1,22c-24.2,2.4-46.7-3.7-68.5-13.5c-27.1-12.2-50.9-29.4-73.3-48.6c-27.3-23.5-52.5-49.2-74.7-77.7
		c-19.1-24.5-35.4-50.6-44.3-80.8c-2-6.8-3.4-13.7-4.4-20.7c-0.1-0.8,0.1-1.6-0.9-2.1c0-7.5,0-14.9,0-22.4c1.7-2.9,1.5-6.3,2.2-9.5
		c2.3-10.8,8-18.9,17.5-24.6c8.4-5,16.8-10.2,25.3-15.2c8.6-5.1,15.7-3.4,21.3,4.8c8.9,13.1,17.7,26.2,26.5,39.3
		c5.1,7.9,10.3,15.8,15.4,23.7c6,9.1,4.9,15.8-3.6,22.4c-4,3.1-7.9,6.3-11.8,9.5c-3.9,3-8,5.8-11.7,9c-4.8,4.1-6.3,10.3-3.5,15.9
		c4.3,8.8,9.1,17.4,15.2,25.2c2.2,3.5,4.6,6.8,7.4,9.9C102.5,246.3,104.6,249.1,107.2,251.5z"/>
	<path class="st1" d="M107.2,251.5c-2.6-2.4-4.7-5.2-6.8-8c4.5-2.5,7.3-6.8,10.7-10.4c11.5-12,22.7-24.2,34-36.4
		c11.1-11.9,22.3-23.8,33.4-35.8c10.1-10.9,20.5-21.6,30.7-32.4c2.7-2.9,5.2-6,7.8-9c1.3-0.1,2.2,0.5,3.2,1.3
		c6.8,5.8,13.6,11.5,20.4,17.2c6,5.2,14.6,5.5,20.9,0.6c3.8-3,7.2-6.3,11-9.2c4.5-3.5,8.3-7.8,13.3-10.6c2.2,4.8,6.5,7.9,10,11.7
		c10.9,12,22,23.8,33.1,35.6c11.3,12.1,22.7,24.2,34,36.4c10.2,11,20.8,21.6,30.9,32.8c4,4.4,8.5,8.4,12.1,13.2c-3,3.1-6.9,3-10.7,3
		c-67.4,0-134.9,0-202.3,0C164.2,251.4,135.7,251.4,107.2,251.5z"/>
	<path class="st2" d="M285.8,118.7c-5,2.8-8.8,7.1-13.3,10.6c-3.8,2.9-7.2,6.3-11,9.2c-6.3,4.9-14.9,4.6-20.9-0.6
		c-6.8-5.8-13.6-11.5-20.4-17.2c-1-0.8-1.9-1.4-3.2-1.3c-0.5-2.5-2.6-3.7-4.2-5.1c-6.5-5.6-13.2-11.1-19.7-16.7
		c-10-8.5-19.9-17.2-29.8-25.7c-11.8-10.1-23.7-20-35.5-30.1c-10.5-8.9-20.9-18-31.4-26.9c1-3.3,3.9-3.5,6.6-4.2
		c0.9-0.2,1.9-0.1,2.8-0.1c97.1,0,194.2,0,291.3,0c3.7,0,7.2,0.4,9.6,3.7c-0.5,0.6-0.9,1.3-1.5,1.8c-8.4,7.2-16.7,14.3-25.1,21.4
		c-8.1,7-16.1,14-24.1,20.9c-10.3,8.8-20.6,17.5-30.9,26.3c-8.2,6.9-16.5,13.7-24.5,20.8C295.6,109.9,290.1,113.6,285.8,118.7z"/>
	<path class="st3" d="M285.8,118.7c4.3-5.1,9.8-8.8,14.8-13.3c8-7.1,16.3-13.9,24.5-20.8c10.3-8.7,20.6-17.5,30.9-26.3
		c8.1-6.9,16.1-13.8,24.1-20.7c8.4-7.2,16.7-14.3,25.1-21.4c0.6-0.5,1-1.2,1.5-1.8c2.8,2.6,3.1,5.9,3.1,9.5c0,57.7,0,115.3,0,173
		c0,14,0,28,0,41.9c0,3.7-0.8,7.1-4,9.5c-3.7-4.7-8.1-8.7-12.1-13.2c-10-11.1-20.7-21.7-30.9-32.8c-11.3-12.2-22.6-24.3-34-36.4
		c-11.1-11.8-22.1-23.6-33.1-35.6C292.3,126.7,288,123.6,285.8,118.7z"/>
	<path class="st3" d="M96.4,15c10.5,9,20.9,18,31.4,26.9c11.8,10.1,23.7,20,35.5,30.1c10,8.5,19.9,17.1,29.8,25.7
		c6.5,5.6,13.2,11.1,19.7,16.7c1.7,1.4,3.8,2.6,4.2,5.1c-2.6,3-5.1,6.1-7.8,9c-10.2,10.8-20.6,21.5-30.7,32.4
		c-11.1,12-22.3,23.9-33.4,35.8c-11.3,12.1-22.5,24.4-34,36.4c-3.4,3.6-6.2,7.9-10.7,10.4c-2.8-3-5.3-6.3-7.4-9.8
		c0-16.7,0-33.4,0-50.1c3.9-3.2,7.8-6.4,11.8-9.5c8.5-6.6,9.6-13.3,3.6-22.4c-5.2-7.9-10.3-15.8-15.4-23.7c0-21.3,0.1-42.6,0.1-64
		c0-13.6,0-27.2,0-40.8C93.1,20.1,93.2,16.9,96.4,15z"/>
</g>
</svg>
