<svg id="Layer_1" data-name="Layer 1" xmlns="http://www.w3.org/2000/svg" viewBox="0 0 496.1 496.09"><defs><style>.cls-1{fill:#030303;}.cls-2{fill:#f3decb;}.cls-3{fill:#e9bf9a;}.cls-4{fill:#cacfd7;}.cls-5{fill:#b3db7e;}.cls-6{fill:#f8d46e;}.cls-7{fill:#e2e5e9;}.cls-8{fill:#a7aeb9;}.cls-9{fill:#daae88;}.cls-10{fill:#f0dcc9;}.cls-11{fill:#e9caaf;}.cls-12{fill:#f8c229;}</style></defs><title>business</title><path class="cls-1" d="M555.11,357V474.24c-1.27-.36-2.16.55-3.12,1Q483.08,509.67,414.17,544c-2.63,1.31-3.21,3-3.35,5.59a23.59,23.59,0,0,1-20.22,22.5c-2.77.44-3.67,1.48-4.06,4.2-1.42,10.17-9.67,18.64-19.63,19.85-3.15.38-3.9,1.6-4.39,4.32C360.6,611.14,354,617.8,343.66,620c-3.7.78-4.62,2.11-5.36,5.5-2.13,9.85-8.41,16.12-18.24,18.5-10.42,2.52-19-1.09-26.33-8.43-2.28-2.29-4.09-2.86-7.4-1.29-14.4,6.81-31.59-1.9-34.39-17.35-.6-3.29-1.79-4.43-5-5a23.79,23.79,0,0,1-19.23-19.82c-.38-2.5-1.1-3.39-3.67-3.88-11.43-2.2-18.48-9.43-20.48-20.91-.4-2.28-1.26-2.72-3.31-3.07-9.11-1.51-16.82-6.32-18.83-15.2-1.88-8.32-7.13-11.77-13.44-15.24-3.11-1.7-6.17-3.5-9.12-5.46-2.54-1.71-4.5-2.74-5,1.65-.13,1.22-.52,2.73-2.24,2.65-5.46-.26-11,1-16.36-.76-24.28-8-48.53-16.16-72.82-24.15C60,506.9,59,505.89,59,503.06q.16-79.43,0-158.86c0-3.2,1.16-3.37,3.87-3.65,14.82-1.55,28.39,1.12,40.3,10.57,2,1.59,4.67,2.34,6.61,4,10.08,8.49,21.07,9.71,32.93,4.46,1.49-.66,3.81.16,4.4-2.22.65-2.59-1.27-3.68-2.91-5a55.92,55.92,0,0,1-18.65-27.6c-3.46-11.06-2.77-22.4-2.34-33.63.78-20.54,10.36-36.2,28-46.84,9.17-5.54,19.29-7.62,30.51-7.53-2.56-6.13-4.79-11.78-7.29-17.31-1-2.24-.77-3.63,1-5.4q19-18.71,37.64-37.7c2.13-2.18,3.5-1.73,5.59-.32,6.28,4.23,12.71,8.24,19,12.48,1.9,1.28,3.39,1.68,5.6.44a117.88,117.88,0,0,1,24.45-10.17c1.45-.43,2.81-.84,3.11-2.59,1.58-9.18,4.5-18.11,5.29-27.44h62c.8,9.33,3.7,18.25,5.3,27.42.36,2,2,2.21,3.58,2.69a119.75,119.75,0,0,1,23.55,9.84c2.54,1.42,4.24,1,6.43-.43,6.13-4.16,12.46-8,18.55-12.25,2.43-1.68,3.83-1.45,5.92.68q18.31,18.65,37,36.94c2.31,2.25,2.28,4,1.06,6.63-2.46,5.32-4.61,10.78-7,16.4,23.1.25,39.83,10.17,51.08,29.46,9.05,15.51,8.5,32.51,6.91,49.41-1.39,14.74-8.55,26.82-19.89,36.39-1.64,1.38-4.15,2.24-3.54,5.18s3.37,2.09,5.12,2.6c12.16,3.6,24.92,5.14,36.6,10.43,1.92.87,3.09-.13,4.44-.83,7-3.63,13.94-7.35,20.92-11a9.06,9.06,0,0,1,4.52-1.48C544.15,356.93,549.63,357,555.11,357ZM220.82,568.32c3.77,4.94,8.62,5.93,13,2a188.29,188.29,0,0,0,14.95-14.95c3.7-4.15,2.91-8.45-1.51-12.47-3.44-3-7.17-2.72-10.42-.12a115.62,115.62,0,0,0-15.61,15.52C218.72,561.26,218.11,564.86,220.82,568.32ZM245,592.6c3.76,4.58,8.53,5.56,12.74,1.83a169.53,169.53,0,0,0,14.95-14.9c4.09-4.63,2.9-9.71-2.4-13.29-3.59-2.37-7.13-1.73-10,.94-5.06,4.66-10,9.49-14.62,14.58C242.77,584.93,241.89,588.79,245,592.6Zm24.19,24.26c4,4.45,8.31,5.32,12.49,1.61A169.42,169.42,0,0,0,297,603.1c3.72-4.27,2.5-9.05-2.37-12.66-3.52-2.68-7.18-2.09-10.08.55a215.81,215.81,0,0,0-15.3,15.4C266.42,609.53,266.19,613.36,269.2,616.86Zm-71.76-384.8c1.38,5.56,3.55,10.37,9.5,12.71,2.59,1,4.81,3.11,7,4.91,5.21,4.23,5.17,4.28,8.85-1.61a1.73,1.73,0,0,0,.12-.46c8.8-11.25,18.92-21.05,31.37-28.22,26-15,53.51-18.55,82.36-10.12,22,6.44,39.7,19.38,53.8,37.35a32.94,32.94,0,0,1,1.73,2.83c1.76,3.6,3.66,4,6.65,1a23.3,23.3,0,0,1,7.73-5.56c6.16-2.34,8.64-7.08,10-12.87,1.28-2.76,2.39-5.61,3.89-8.25s.9-4.55-1.3-6.66c-6.64-6.36-13.16-12.86-19.48-19.53-2.3-2.41-3.91-3-6.81-.82-5.19,3.8-10.78,7.06-16.13,10.66-1.75,1.18-3.15,1.65-5.19.34A121.71,121.71,0,0,0,333,191.67a4.12,4.12,0,0,1-3.6-3.76c-1.23-6.32-2.77-12.58-3.85-18.93-.52-3.07-1.59-4.35-4.93-4.27q-13.55.36-27.11,0c-3.38-.09-4.38,1.27-4.91,4.29-1.09,6.18-2.66,12.28-3.78,18.45-.47,2.56-1.53,3.74-4.16,4.35A120.07,120.07,0,0,0,243,207.51c-2.08,1.32-3.58,1.32-5.61-.08-5.17-3.56-10.63-6.72-15.73-10.38-2.84-2-4.68-2.26-7.22.57-4.41,4.92-9.28,9.42-14,14.09-8.83,8.82-8.83,8.82-3.39,20C197.15,231.87,197.32,232,197.44,232.06ZM213.09,375.6c-4.82-1.27-9.6-2.74-14.49-3.72-2.77-.55-3.72-1.66-3.62-4.47.19-5.8.24-11.63,0-17.42-.16-3.17.9-4.88,3.64-6.46a39.24,39.24,0,0,0,20-28.74c1.09-6.54.44-13.2.45-19.8a40.85,40.85,0,0,0-5.79-21.68c-9.06-14.87-22.17-21.84-39.74-20.07-14,1.42-27.69,12.95-32.21,27.15-3.17,9.95-2,20.13-1.86,30.23.2,11.41,4.36,22.1,13.87,27.93S164,352,163,361.38a11.26,11.26,0,0,0,0,2.9c.74,4.81-.52,8.12-6,8.38l-12.08,2.84c13.09,7.65,25.21,15,37.58,21.84,3.65,2,5,4.26,4.57,8.31-.39,3.63-.08,7.33-.08,11.3,6.11-1.32,12-2.9,18-3.78,4.84-.71,6.89-2.6,6.29-7.75-.44-3.81.66-7.65,1.75-11.4,1.74-6,5.24-10.92,9.25-16.21ZM478,377.79c-7.64-2-15.24-4.11-22.95-5.75-3.3-.69-4-2.17-3.92-5.22.21-5.8.19-11.63,0-17.43-.11-2.78.84-4.33,3.26-5.7,9.84-5.59,16.93-13.77,19.22-24.89,2.61-12.72,2.75-25.69-1-38.3-4.7-15.67-21.38-27.92-37.09-27.71-18,.25-33.14,11.4-38.35,27.88-2.55,8.07-1.67,16.29-1.94,24.49-.57,17.18,6.34,30.27,21.3,38.91,1.85,1.07,2.85,2.16,2.79,4.48-.16,6.45-.14,12.91,0,19.36.05,2.41-.81,3.35-3.17,3.85-5,1.08-10,2.54-15,3.84l-9.67,2.33c14.44,14.07,11.27,31.77,11.67,49.35L491,381ZM228.48,398.71c-1.2,1.52-.73,3.41-1.17,5.09-.92,3.5.43,4.24,3.71,3.51,19.73-4.38,39-2.35,58,3.95,13.26,4.38,26.52,8.61,40.33,11.36,15.89,3.17,31.34,8.56,47,13,10.3,2.9,11.62,1.77,10.49-8.91.06-7.25.56-14.53.07-21.75-.82-12.22-7.43-19.7-19.45-22.79-13.26-3.4-26.53-6.78-39.86-9.91-3.4-.8-4.84-2-4.61-5.73A148,148,0,0,0,323,350c-.15-3.12.8-4.92,3.59-6.53,10.8-6.2,17.58-15.51,19.78-27.82,1.31-7.34.6-14.81.52-22.23a38.84,38.84,0,0,0-5.74-20.22c-9.11-14.87-22.23-21.82-39.81-20-14.07,1.46-27.63,13-32.15,27.27-3.11,9.82-1.93,19.86-1.82,29.8.12,11.41,4.16,22.24,13.7,28,9.88,6,11.08,13.58,10.05,23.23a27.52,27.52,0,0,0,0,5.81c.3,2.8-.8,3.83-3.56,4.49-13.79,3.28-27.53,6.77-41.25,10.32C237.47,384.5,231,389.51,228.48,398.71ZM166.61,514c4.91,3,9.9,6,14.69,9.2,2.26,1.52,3.32.95,5.07-.91A197.61,197.61,0,0,1,201.88,507c14.88-12.68,36.6-5.09,40.47,14.06.58,2.83,1.72,3.9,4.53,4.41A23.67,23.67,0,0,1,266.35,545c.46,3,1.71,3.83,4.43,4.39,10.83,2.23,18,9.67,19.76,20.46.4,2.51,1.41,2.94,3.62,3.34a24.09,24.09,0,0,1,15.66,9.59c6.11,8.34,14.55,14.07,22.72,20,4.56,3.32,8.6,2.38,12.45-1.48,2.92-4.46,2.86-8-1.18-11.42-13.7-11.57-27.61-22.91-41.44-34.34.67-3.38,3.54-5.23,5.49-7.68,4.28-5.4,4.36-5.3,9.48-1,12.36,10.3,24.69,20.64,37.11,30.86,5.42,4.46,10.4,4.13,14.73-.66,2.77-4.73,2.39-8.11-2-11.77-13.55-11.37-27.23-22.6-40.86-33.88,1.63-4.16,5.39-6.73,7.75-10.32,1.62-2.47,2.87-2,4.85-.31,9.21,7.85,18.55,15.54,27.86,23.28,4.34,3.61,8.54,7.42,13.12,10.7,6.08,4.36,14.16,1.21,15-5.66.5-4.14-2-6.86-4.89-9.41Q358.5,511.4,327,483c-8.09-7.28-14.78-8-24.1-2.45-9,5.36-18,10.8-27,16.11-8.4,4.95-17.16,5.44-25.87,1.1-9.85-4.9-14.64-13.21-14.87-24.16s4.24-19.52,13.95-24.7c11.93-6.36,24.13-12.21,36.19-18.34,1.19-.6,2.89-.7,3.21-2.45-13.91-5.27-28.24-8.87-43.06-6.92-19.16,2.53-37.89,7.44-56.63,12.09-5.61-.24-8.28,2.25-9.78,7.94-5.47,20.7-11.58,41.23-17.43,61.82C159.54,510.53,159.55,510.53,166.61,514Zm372.44-94.65q0-20.09,0-40.19c0-5.29,0-5.3-4.6-2.89q-69,36.33-138,72.76c-5.36,2.84-10.57,4.21-16.55,3.63a53,53,0,0,1-9.42-2q-20.67-5.87-41.3-11.87c-9.69-2.84-19.11-2.51-28.22,2-14.27,7.09-28.54,14.18-42.74,21.4-6.86,3.49-9.14,10.91-5.54,17.06,3.35,5.71,9.65,6.9,16.34,3,8.6-5.07,17.14-10.25,25.71-15.37,15.62-9.33,29.2-8,42.86,4.24q31.89,28.6,63.67,57.35c2.18,2,3.74,2.53,6.6,1.09q63.84-32.13,127.85-63.95c2.56-1.27,3.43-2.72,3.4-5.52C539,446.47,539.05,432.91,539.05,419.35ZM251.14,300.6c0-3.36-.17-6.92,0-10.46a56.21,56.21,0,0,1,43.21-52c23.89-5.6,48.27,5.37,60.91,27.27,9.24,16,8.72,33.36,7.15,50.83a49.6,49.6,0,0,1-7,20.43A54.65,54.65,0,0,1,341.2,353c-1.37,1-2.31,2-2.15,3.94.13,1.47.91,1.77,2.13,2.1,16.55,4.41,33,10.31,50.18,2.49,2-.92,4.47-.87,6.51-1.76,1.74-.76,4.49.3,5.16-2.54s-1.61-3.88-3.33-5.27a47.59,47.59,0,0,1-11.79-13.35c-12.2-21.54-11.26-44.05-4.51-66.89.63-2.12,1.66-3.8.21-6.27C365,233.48,330.55,216.62,295,221.74c-27.67,4-49,18.45-63.65,42.62-1.77,2.94-1.82,5.16-.74,8.37,6.72,20.06,7.16,40.18-1.08,59.95-3.4,8.17-9.16,14.73-16.13,20.21-3,2.39-3.17,5.26-.28,6,9.65,2.56,19.36,4.88,29,7.37,1.4.36,2.55-.24,3.76-.54q12.9-3.15,25.76-6.48c1.25-.33,3.12.19,3.46-1.91s-.46-3.27-2.1-4.43a47.59,47.59,0,0,1-9.37-9.06C253.46,331.25,250.2,316.62,251.14,300.6Zm-176,125.21c0,21.63.08,43.26-.09,64.89,0,3.35,1,4.8,4.17,5.77,8.92,2.74,17.79,5.7,26.59,8.82,2.77,1,3.82.61,4.55-2.36q13.45-54.42,27.19-108.75c.76-3,.13-4.49-2.59-6-12.49-7-24.84-14.35-37.24-21.56-4.87-2.84-9.69-5.78-14.62-8.53-5.52-3.08-8-1.7-8,4.31Zm64.95,90.85c2.06-.46,1.71-2.67,2.13-4.11q13.08-45.39,26-90.84c3.43-12,3.46-12-7.6-18.42-1.67-1-3.42-1.82-5-2.94-2.41-1.72-3.22-.89-3.7,1.72-.58,3.16-1.54,6.24-2.31,9.36q-12,48.19-24.08,96.4c-.33,1.33-1.56,3.24.08,3.91C130.28,513.61,135.09,515,140.13,516.66Zm64.41,32.1c1-.31,2.62-.41,3.67-1.25,6.53-5.21,12.71-10.88,17.55-17.7,2.45-3.45,1.49-7.43-1.55-10.51a8.14,8.14,0,0,0-11-.76,120.42,120.42,0,0,0-16.35,16.29c-2.23,2.67-2.12,6-.57,9.06S200.69,548.41,204.54,548.76Zm109.52,79.85c3.41,0,6.28-1.17,7.91-4.34a7.8,7.8,0,0,0-.32-8.2c-1.86-2.89-4.83-4.64-7.32-6.88-1.17-1.05-1.91-.54-2.57.71-2,3.73-5.05,6.58-8,9.54-.68.69-2.33,1.47-1,2.65C306,625,308.86,628.87,314.06,628.61Z" transform="translate(-59.01 -148.73)"/><path class="cls-2" d="M539.05,419.35c0,13.56-.08,27.12.07,40.68,0,2.8-.84,4.25-3.4,5.52q-64,31.84-127.85,63.95c-2.86,1.44-4.42.88-6.6-1.09q-31.74-28.78-63.67-57.35c-13.66-12.26-27.24-13.57-42.86-4.24-8.57,5.12-17.11,10.3-25.71,15.37-6.69,3.94-13,2.75-16.34-3-3.6-6.15-1.32-13.57,5.54-17.06,14.2-7.22,28.47-14.31,42.74-21.4,9.11-4.53,18.53-4.86,28.22-2q20.63,6,41.3,11.87a53,53,0,0,0,9.42,2c6,.58,11.19-.79,16.55-3.63q68.88-36.6,138-72.76c4.58-2.41,4.6-2.4,4.6,2.89Q539.06,399.26,539.05,419.35Z" transform="translate(-59.01 -148.73)"/><path class="cls-3" d="M188.87,433.32c18.74-4.65,37.47-9.56,56.63-12.09,14.82-2,29.15,1.65,43.06,6.92-.32,1.75-2,1.85-3.21,2.45-12.06,6.13-24.26,12-36.19,18.34-9.71,5.18-14.18,13.74-13.95,24.7s5,19.26,14.87,24.16c8.71,4.34,17.47,3.85,25.87-1.1,9-5.31,18-10.75,27-16.11,9.32-5.54,16-4.83,24.1,2.45q31.49,28.33,63,56.66c2.85,2.55,5.39,5.27,4.89,9.41-.83,6.87-8.91,10-15,5.66-4.58-3.28-8.78-7.09-13.12-10.7-9.31-7.74-18.65-15.43-27.86-23.28-2-1.69-3.23-2.16-4.85.31-2.36,3.59-6.12,6.16-7.75,10.32-5.54,2.68-6.65,4.71-3.71,7.2,8.29,7,16.71,13.92,25.1,20.84q10.69,8.82,21.44,17.61c-4.33,4.79-9.31,5.12-14.73.66-12.42-10.22-24.75-20.56-37.11-30.86-5.12-4.26-5.2-4.36-9.48,1-1.95,2.45-4.82,4.3-5.49,7.68-6.34,2.74-6.77,4.16-1.82,8.41,8.63,7.4,17.62,14.38,26.18,21.86,6,5.25,12.75,9.65,18.26,15.49-3.85,3.86-7.89,4.8-12.45,1.48-8.17-5.94-16.61-11.67-22.72-20a24.09,24.09,0,0,0-15.66-9.59c-2.21-.4-3.22-.83-3.62-3.34-1.72-10.79-8.93-18.23-19.76-20.46-2.72-.56-4-1.35-4.43-4.39a23.67,23.67,0,0,0-19.47-19.54c-2.81-.51-3.95-1.58-4.53-4.41-3.87-19.15-25.59-26.74-40.47-14.06a197.61,197.61,0,0,0-15.51,15.26c-1.75,1.86-2.81,2.43-5.07.91-4.79-3.22-9.78-6.15-14.69-9.2,6.14-21.29,12.37-42.55,18.34-63.88C186.5,444.59,189.12,439.27,188.87,433.32Z" transform="translate(-59.01 -148.73)"/><path class="cls-4" d="M228.48,398.71c2.51-9.2,9-14.21,17.83-16.5,13.72-3.55,27.46-7,41.25-10.32,2.76-.66,3.86-1.69,3.56-4.49a27.52,27.52,0,0,1,0-5.81c1-9.65-.17-17.24-10.05-23.23-9.54-5.79-13.58-16.62-13.7-28-.11-9.94-1.29-20,1.82-29.8,4.52-14.26,18.08-25.81,32.15-27.27,17.58-1.84,30.7,5.11,39.81,20a38.84,38.84,0,0,1,5.74,20.22c.08,7.42.79,14.89-.52,22.23-2.2,12.31-9,21.62-19.78,27.82-2.79,1.61-3.74,3.41-3.59,6.53a148,148,0,0,1,0,16.45c-.23,3.71,1.21,4.93,4.61,5.73,13.33,3.13,26.6,6.51,39.86,9.91,12,3.09,18.63,10.57,19.45,22.79.49,7.22,0,14.5-.07,21.75-3.73,3.07-7.47,1.22-11.37.24C357,422.27,339,415.74,320.09,412.62c-9.41-1.55-18.38-5.78-27.6-8.6-12.59-3.85-25.21-7.29-38.61-7.43C245.28,396.49,237,398.65,228.48,398.71Z" transform="translate(-59.01 -148.73)"/><path class="cls-4" d="M401.11,375.6c5-1.3,9.94-2.76,15-3.84,2.36-.5,3.22-1.44,3.17-3.85-.13-6.45-.15-12.91,0-19.36.06-2.32-.94-3.41-2.79-4.48-15-8.64-21.87-21.73-21.3-38.91.27-8.2-.61-16.42,1.94-24.49,5.21-16.48,20.36-27.63,38.35-27.88,15.71-.21,32.39,12,37.09,27.71,3.78,12.61,3.64,25.58,1,38.3-2.29,11.12-9.38,19.3-19.22,24.89-2.42,1.37-3.37,2.92-3.26,5.7.21,5.8.23,11.63,0,17.43-.11,3.05.62,4.53,3.92,5.22,7.71,1.64,15.31,3.8,22.95,5.75-3.63,4.16-8.91,5.6-13.54,8.08q-24.19,13-48.54,25.69c-4.74,2.49-5,2.22-5.15-2.94a102.37,102.37,0,0,0-.44-11.05C409.2,389.37,405,382.59,401.11,375.6Z" transform="translate(-59.01 -148.73)"/><path class="cls-4" d="M157,372.66c5.53-.26,6.79-3.57,6-8.38a11.26,11.26,0,0,1,0-2.9c.94-9.39-.13-16.92-9.77-22.83S139.59,322,139.39,310.62c-.17-10.1-1.31-20.28,1.86-30.23,4.52-14.2,18.2-25.73,32.21-27.15,17.57-1.77,30.68,5.2,39.74,20.07A40.85,40.85,0,0,1,219,295c0,6.6.64,13.26-.45,19.8a39.24,39.24,0,0,1-20,28.74c-2.74,1.58-3.8,3.29-3.64,6.46.29,5.79.24,11.62,0,17.42-.1,2.81.85,3.92,3.62,4.47,4.89,1,9.67,2.45,14.49,3.72-5,8.8-9.74,17.6-9.93,28.24-.07,3.51-4.42,2.63-6.85,3s-1.7-2.44-1.47-3.63c1.18-6.13-1.72-9.57-7-11.85a45,45,0,0,1-6.28-3.59C173.47,382.53,164.57,378.67,157,372.66Z" transform="translate(-59.01 -148.73)"/><path class="cls-5" d="M75.18,425.81V362.37c0-6,2.44-7.39,8-4.31,4.93,2.75,9.75,5.69,14.62,8.53,12.4,7.21,24.75,14.51,37.24,21.56,2.72,1.54,3.35,3,2.59,6q-13.76,54.33-27.19,108.75c-.73,3-1.78,3.35-4.55,2.36-8.8-3.12-17.67-6.08-26.59-8.82-3.15-1-4.19-2.42-4.17-5.77C75.26,469.07,75.18,447.44,75.18,425.81Z" transform="translate(-59.01 -148.73)"/><path class="cls-6" d="M390.48,246.62c-14.1-18-31.76-30.91-53.8-37.35-28.85-8.43-56.34-4.86-82.36,10.12-12.45,7.17-22.57,17-31.37,28.22a50.46,50.46,0,0,0-25.51-15.55c-.12-.11-.29-.19-.36-.33-5.44-11.2-5.44-11.2,3.39-20,4.68-4.67,9.55-9.17,14-14.09,2.54-2.83,4.38-2.61,7.22-.57,5.1,3.66,10.56,6.82,15.73,10.38,2,1.4,3.53,1.4,5.61.08A120.07,120.07,0,0,1,280.7,191.8c2.63-.61,3.69-1.79,4.16-4.35,1.12-6.17,2.69-12.27,3.78-18.45.53-3,1.53-4.38,4.91-4.29q13.54.38,27.11,0c3.34-.08,4.41,1.2,4.93,4.27,1.08,6.35,2.62,12.61,3.85,18.93a4.12,4.12,0,0,0,3.6,3.76,121.71,121.71,0,0,1,38.57,16.09c2,1.31,3.44.84,5.19-.34,5.35-3.6,10.94-6.86,16.13-10.66,2.9-2.13,4.51-1.59,6.81.82,6.32,6.67,12.84,13.17,19.48,19.53,2.2,2.11,2.85,3.92,1.3,6.66s-2.61,5.49-3.89,8.25C406.32,234,398.47,240.45,390.48,246.62Z" transform="translate(-59.01 -148.73)"/><path class="cls-7" d="M140.13,516.66c-5-1.67-9.85-3-14.45-4.92-1.64-.67-.41-2.58-.08-3.91q12-48.21,24.08-96.4c.77-3.12,1.73-6.2,2.31-9.36.48-2.61,1.29-3.44,3.7-1.72,1.57,1.12,3.32,2,5,2.94,11.06,6.43,11,6.42,7.6,18.42q-13,45.42-26,90.84C141.84,514,142.19,516.2,140.13,516.66Z" transform="translate(-59.01 -148.73)"/><path class="cls-8" d="M228.48,398.71c8.51-.06,16.8-2.22,25.4-2.12,13.4.14,26,3.58,38.61,7.43,9.22,2.82,18.19,7.05,27.6,8.6,19,3.12,36.92,9.65,55.41,14.29,3.9,1,7.64,2.83,11.37-.24,1.13,10.68-.19,11.81-10.49,8.91-15.64-4.4-31.09-9.79-47-13-13.81-2.75-27.07-7-40.33-11.36-19.07-6.3-38.32-8.33-58-3.95-3.28.73-4.63,0-3.71-3.51C227.75,402.12,227.28,400.23,228.48,398.71Z" transform="translate(-59.01 -148.73)"/><path class="cls-8" d="M401.11,375.6c3.86,7,8.09,13.77,9.21,22a102.37,102.37,0,0,1,.44,11.05c.15,5.16.41,5.43,5.15,2.94q24.32-12.76,48.54-25.69c4.63-2.48,9.91-3.92,13.54-8.08L491,381l-87.91,46.3c-.4-17.58,2.77-35.28-11.67-49.35Z" transform="translate(-59.01 -148.73)"/><path class="cls-8" d="M157,372.66c7.58,6,16.48,9.87,24.57,15.06a45,45,0,0,0,6.28,3.59c5.28,2.28,8.18,5.72,7,11.85-.23,1.19-1.1,4,1.47,3.63s6.78.56,6.85-3c.19-10.64,4.89-19.44,9.93-28.24l9.2,2.21c-4,5.29-7.51,10.24-9.25,16.21-1.09,3.75-2.19,7.59-1.75,11.4.6,5.15-1.45,7-6.29,7.75-6,.88-11.91,2.46-18,3.78,0-4-.31-7.67.08-11.3.43-4-.92-6.28-4.57-8.31-12.37-6.87-24.49-14.19-37.58-21.84Z" transform="translate(-59.01 -148.73)"/><path class="cls-9" d="M188.87,433.32c.25,5.95-2.37,11.27-3.92,16.8-6,21.33-12.2,42.59-18.34,63.88-7.06-3.47-7.07-3.47-5-10.92,5.85-20.59,12-41.12,17.43-61.82C180.59,435.57,183.26,433.08,188.87,433.32Z" transform="translate(-59.01 -148.73)"/><path class="cls-10" d="M204.54,548.76c-3.85-.35-6.68-1.75-8.26-4.87s-1.66-6.39.57-9.06a120.42,120.42,0,0,1,16.35-16.29,8.14,8.14,0,0,1,11,.76c3,3.08,4,7.06,1.55,10.51-4.84,6.82-11,12.49-17.55,17.7C207.16,548.35,205.52,548.45,204.54,548.76Z" transform="translate(-59.01 -148.73)"/><path class="cls-9" d="M369.18,577.07q-10.73-8.8-21.44-17.61c-8.39-6.92-16.81-13.81-25.1-20.84-2.94-2.49-1.83-4.52,3.71-7.2,13.63,11.28,27.31,22.51,40.86,33.88C371.57,569,372,572.34,369.18,577.07Z" transform="translate(-59.01 -148.73)"/><path class="cls-9" d="M345,601.35c-5.51-5.84-12.24-10.24-18.26-15.49-8.56-7.48-17.55-14.46-26.18-21.86-4.95-4.25-4.52-5.67,1.82-8.41,13.83,11.43,27.74,22.77,41.44,34.34C347.85,593.36,347.91,596.89,345,601.35Z" transform="translate(-59.01 -148.73)"/><path class="cls-10" d="M294.62,590.44c4.87,3.61,6.09,8.39,2.37,12.66a169.42,169.42,0,0,1-15.3,15.37c-4.18,3.71-8.51,2.84-12.49-1.61a13.86,13.86,0,0,1,1.75-2.24C279.61,607.31,287.78,599.53,294.62,590.44Z" transform="translate(-59.01 -148.73)"/><path class="cls-10" d="M270.3,566.24c5.3,3.58,6.49,8.66,2.4,13.29a169.53,169.53,0,0,1-14.95,14.9c-4.21,3.73-9,2.75-12.74-1.83,5.63-5.5,11.34-10.92,16.86-16.52C264.91,573,268.59,570.46,270.3,566.24Z" transform="translate(-59.01 -148.73)"/><path class="cls-2" d="M247.28,542.89c4.42,4,5.21,8.32,1.51,12.47a188.29,188.29,0,0,1-14.95,14.95c-4.4,3.94-9.25,3-13-2a94.52,94.52,0,0,0,11.49-10.05C237.22,553.07,242.28,548,247.28,542.89Z" transform="translate(-59.01 -148.73)"/><path class="cls-11" d="M294.62,590.44c-6.84,9.09-15,16.87-23.67,24.18a13.86,13.86,0,0,0-1.75,2.24c-3-3.5-2.78-7.33,0-10.47a215.81,215.81,0,0,1,15.3-15.4C287.44,588.35,291.1,587.76,294.62,590.44Z" transform="translate(-59.01 -148.73)"/><path class="cls-11" d="M247.28,542.89c-5,5.12-10.06,10.18-15,15.38a94.52,94.52,0,0,1-11.49,10.05c-2.71-3.46-2.1-7.06.43-10a115.62,115.62,0,0,1,15.61-15.52C240.11,540.17,243.84,539.86,247.28,542.89Z" transform="translate(-59.01 -148.73)"/><path class="cls-3" d="M314.06,628.61c-5.2.26-8-3.57-11.31-6.52-1.3-1.18.35-2,1-2.65,2.93-3,6-5.81,8-9.54.66-1.25,1.4-1.76,2.57-.71,2.49,2.24,5.46,4,7.32,6.88a7.8,7.8,0,0,1,.32,8.2C320.34,627.44,317.47,628.66,314.06,628.61Z" transform="translate(-59.01 -148.73)"/><path class="cls-11" d="M270.3,566.24c-1.71,4.22-5.39,6.77-8.43,9.84-5.52,5.6-11.23,11-16.86,16.52-3.12-3.81-2.24-7.67.64-10.84,4.63-5.09,9.56-9.92,14.62-14.58C263.17,564.51,266.71,563.87,270.3,566.24Z" transform="translate(-59.01 -148.73)"/><path class="cls-12" d="M390.48,246.62c8-6.17,15.84-12.59,26.15-14.6-1.4,5.79-3.88,10.53-10,12.87a23.3,23.3,0,0,0-7.73,5.56c-3,3-4.89,2.6-6.65-1A32.94,32.94,0,0,0,390.48,246.62Z" transform="translate(-59.01 -148.73)"/><path class="cls-12" d="M197.44,232.06A50.46,50.46,0,0,1,223,247.61a1.73,1.73,0,0,1-.12.46c-3.68,5.89-3.64,5.84-8.85,1.61-2.23-1.8-4.45-3.89-7-4.91C201,242.43,198.82,237.62,197.44,232.06Z" transform="translate(-59.01 -148.73)"/></svg>