<svg id="Layer_1" data-name="Layer 1" xmlns="http://www.w3.org/2000/svg" viewBox="0 0 368 384"><defs><style>.cls-1{fill:#030303;}.cls-2{fill:#22a5fc;}.cls-3{fill:#f7f5f6;}.cls-4{fill:#e95367;}.cls-5{fill:#9fd2fc;}.cls-6{fill:#dbd8ea;}.cls-7{fill:#0591f9;}.cls-8{fill:#e4384f;}.cls-9{fill:#a0d3fe;}.cls-10{fill:#80b2f4;}.cls-11{fill:#010304;}.cls-12{fill:#9fd1fb;}.cls-13{fill:#9dcff9;}</style></defs><title>chemicals</title><path class="cls-1" d="M224.25,204.75H315c.13.2.22.53.38.57,11.17,2.45,18.26,10.63,18.44,21.3.19,11-6.66,19.83-17.69,22.39-2.31.54-2.57,1.61-2.56,3.6.15,28.12,0,56.25.39,84.37a81.69,81.69,0,0,0,16.34,48.87c18.3,24.52,36.95,48.78,55.49,73.12.62.81.9,2.09,2.36,2.25a7.23,7.23,0,0,0,.17-1q0-90.55.07-181.11c0-2.32-1-2.84-2.84-3.51a22.53,22.53,0,0,1-14.19-24.92,21.77,21.77,0,0,1,21.5-18.76q38.06-.18,76.12,0c10.83.05,19.54,7.77,21.39,18.43s-3.84,21.37-13.84,25.07c-2.41.89-3.13,2-3.11,4.5.13,16.87,0,33.74.1,50.62,0,3.94-1.41,6.49-5.5,7.13-4.62-1.1-5.78-2.56-5.78-7.61,0-16.44-.13-32.88.08-49.31.05-3.45-1-4.28-4.15-4-3,.29-6,.15-8.95.2l-48.72,0c-.49-.13-.82-.05-.72.56-.07,5.24,0,10.49-.25,15.72-.1,2.22.93,2.36,2.65,2.34,5.12-.07,10.24-.09,15.36,0,4,.06,6.41,2.33,6.32,5.81s-2.35,5.37-6.27,5.41c-5.12.05-10.25.11-15.37,0-2.15-.06-2.76.61-2.69,2.72.16,4.49.17,9,0,13.49-.09,2.22.72,2.68,2.75,2.63,5.12-.13,10.25-.11,15.37,0,3.82.06,6.16,2.24,6.22,5.53.06,3.46-2.33,5.65-6.38,5.69-5.13.05-10.25.09-15.37,0-1.87,0-2.66.36-2.59,2.44.16,4.61.18,9.24,0,13.86-.09,2.33.91,2.59,2.84,2.55,5-.11,10-.08,15,0,4.11.05,6.51,2.17,6.52,5.61s-2.35,5.57-6.46,5.62c-5.12.05-10.25.1-15.37,0-2-.06-2.54.61-2.5,2.54.11,5.37.18,10.75,0,16.11-.1,2.7.7,2.88,3.11,2.35,11.3-2.51,22-1.07,32,5.19a24,24,0,0,0,14.63,3.66c3.29.38,6.4-.47,9.56-1.21,2.6-.6,3.57-1.77,3.52-4.59-.2-10.46-.11-20.93-.07-31.4,0-4.7,1.28-6.19,5.8-7.2,4.68,1.27,5.44,2.41,5.44,8.24q0,89.79,0,179.58c0,2.74,0,5.5-.09,8.24A42.8,42.8,0,0,1,443.1,587c-2.19.66-4.57.54-6.6,1.75H423.75c-.23-.24-.44-.65-.71-.71a42,42,0,0,1-20.65-10.39c-1.37-1.27-2.06-.49-3.06.34a46.68,46.68,0,0,1-17.43,8.85c-2.54.72-5.3.5-7.65,1.91h-210c-.6-1.35-2-.89-2.94-1.09-19.38-4-31.47-16-36-34.84-6.5-27.16-.53-52.46,15-75.14,11.05-16.16,23.66-31.26,35.54-46.85,2.42-3.18,5.31-3.3,8.6-1.68,2.68,3.21,2.32,6.25-.26,9.41-3.2,3.91-6.21,8-9.36,12.08a3.44,3.44,0,0,0,.93.15,15.75,15.75,0,0,0,1.8-.44,152.68,152.68,0,0,1,53.18-7.05c15.43.79,30.14,4.28,43.26,12.8,2.46,1.59,4.17,1.64,6.65.33,18.49-9.74,37.61-17.32,59.05-16.66a99.85,99.85,0,0,1,20.07,3.88c-1.11-1.59-1.7-2.52-2.36-3.39C345.71,424.84,334,409.46,322.3,394a96.58,96.58,0,0,1-19.91-58.86c-.17-27.37-.07-54.75,0-82.12,0-2.48-.38-3.53-3.17-3.38-5,.28-10,.15-15,.2-14.86-.05-29.73-.05-44.59-.18-2,0-2.19.84-2.17,2.46.06,4.62.08,9.24-.06,13.86-.06,2,.61,2.56,2.55,2.51,5-.12,10-.06,15,0,4.46,0,6.87,2,6.87,5.58s-2.49,5.62-6.87,5.66c-4.87,0-9.75.1-14.62,0-2.11,0-3.15.24-3,2.77.22,4.36.15,8.75,0,13.11-.09,2.27.51,3.06,2.89,3,5-.19,10-.09,15-.05,4.23,0,6.57,2,6.67,5.4s-2.36,5.79-6.68,5.83c-5.12.06-10.25.09-15.37,0-1.93-.05-2.62.51-2.56,2.51.12,4.49.15,9-.06,13.49-.12,2.47.87,2.88,3,2.82,5-.14,10-.07,15,0,4.23,0,6.57,2,6.65,5.42s-2.37,5.77-6.71,5.81c-5,.06-10,.15-15,0-2.47-.1-3,.74-3.19,3.1-1.61,17.72-7.09,34.13-17.44,48.69-5.72,8-11.85,15.76-17.84,23.6-3,4-5.1,4.32-9.59,1.8-2.18-3.15-1.56-5.93.72-8.84q8.33-10.59,16.33-21.44c11-14.9,16.87-31.67,17.06-50.14.29-27.84,0-55.7.13-83.55,0-2.41-.58-3.38-3.09-3.94A22,22,0,0,1,206,227.62a22.44,22.44,0,0,1,16.33-22.07C223,205.37,223.94,205.74,224.25,204.75ZM462.72,265.4c1.86.05,3.73.16,5.59.15,6.63-.07,11-4.42,11-11s-4.37-11.33-11.07-11.43c-1.86,0-3.72.1-5.59.16l-70.09-.15a7.07,7.07,0,0,0-1.13.07c-5.59.85-9.29,5.75-9,11.94.26,5.72,4.38,10.35,9.78,10.36C415.73,265.55,439.23,265.45,462.72,265.4Zm-162-49.28c-24.22,0-48.44-.14-72.65-.06a11.16,11.16,0,0,0,0,22.3c24.21.11,48.43,0,72.64-.06,3.75,0,7.5.29,11.23.07A11.18,11.18,0,0,0,311.6,216C308,215.92,304.36,216.09,300.75,216.12ZM449.21,408.19c-7.46-.3-14.58-1.84-21-5.9-7.8-5-16.19-5.15-24.89-3.19-2.92.65-3.83,2.14-3.82,5.22.14,28.35.07,56.7.09,85.05,0,19.61-.24,39.22.16,58.82.34,16.63,15.6,30.06,32.26,29.14a24.51,24.51,0,0,0,3-.14c16.55-2.73,27.15-15.06,27.18-32q.1-67.62,0-135.24c0-.5,0-1,0-1.5.11-1.73-.62-2.2-2.26-1.7A47.86,47.86,0,0,1,449.21,408.19ZM351.75,577.37c6.12,0,12.25.29,18.35,0,8-.41,15.47-2.64,21.85-7.81,1.38-1.12,2.2-2,1.1-4-3.61-6.62-4.81-13.8-4.75-21.32.12-15.49-.67-31,.26-46.47.7-11.83-1.67-21.79-10.29-30.07-1.87-1.8-2.73-4.58-5.1-5.89-7-3.88-14.21-7.23-22.16-8.7-1.08-.28-2.15-.64-3.25-.84-14.19-2.68-27.82-.37-41.13,4.67-14.05,5.3-27.1,12.67-40.3,19.7-19.17,10.22-38.58,19.87-59.29,26.66a236,236,0,0,1-66.43,12.05c-3.58.11-5,1.24-5.41,4.75-1.11,8.59-1.58,17.16-.11,25.74,2.83,16.5,12.34,27.08,27.43,30.54a58,58,0,0,0,13,1.14q86,0,172.08,0C349,577.49,350.38,577.41,351.75,577.37ZM265.47,464.06a57.27,57.27,0,0,0-16.1-6.52c-30.44-7-59.41-2.13-87.27,11.2A8.2,8.2,0,0,0,159,471.3c-3.13,4.2-6.45,8.27-9.48,12.55a74.77,74.77,0,0,0-10,20.23C185.43,503,226.16,486.59,265.47,464.06Z" transform="translate(-122.73 -204.75)"/><path class="cls-2" d="M351.75,577.37c-1.37,0-2.75.12-4.12.12q-86,0-172.08,0a58,58,0,0,1-13-1.14c-15.09-3.46-24.6-14-27.43-30.54-1.47-8.58-1-17.15.11-25.74.45-3.51,1.83-4.64,5.41-4.75A236,236,0,0,0,207,503.29c20.71-6.79,40.12-16.44,59.29-26.66,13.2-7,26.25-14.4,40.3-19.7,13.31-5,26.94-7.35,41.13-4.67,1.1.2,2.17.56,3.25.84,3.73,5.71,8,11.06,10.53,17.52A140.85,140.85,0,0,1,370.68,510a130.7,130.7,0,0,1-.36,28.25C368.36,553.17,363.68,567,351.75,577.37ZM300,527.79a28.39,28.39,0,1,0,28.53-28.17A28.43,28.43,0,0,0,300,527.79ZM199.82,560.27a19.48,19.48,0,1,0-19.37-19.62A19.48,19.48,0,0,0,199.82,560.27Zm41.71-40.52a5.67,5.67,0,0,0,5.51-5.82,5.58,5.58,0,0,0-5.5-5.43,5.82,5.82,0,0,0-5.77,5.64A5.72,5.72,0,0,0,241.53,519.75Zm51.53-23.6a5.72,5.72,0,0,0-5.72-5.65,5.63,5.63,0,0,0-.11,11.25A5.87,5.87,0,0,0,293.06,496.15Z" transform="translate(-122.73 -204.75)"/><path class="cls-3" d="M184.45,429.15c1.31-3.55,4.35-5.88,6.34-9a5.8,5.8,0,0,0,1.28-3.35c4.49,2.52,6.55,2.18,9.59-1.8,6-7.84,12.12-15.57,17.84-23.6,10.35-14.56,15.83-31,17.44-48.69.21-2.36.72-3.2,3.19-3.1,5,.19,10,.1,15,0,4.34,0,6.8-2.22,6.71-5.81s-2.42-5.39-6.65-5.42c-5,0-10-.11-15,0-2.16.06-3.15-.35-3-2.82.21-4.49.18-9,.06-13.49-.06-2,.63-2.56,2.56-2.51,5.12.11,10.25.08,15.37,0,4.32,0,6.78-2.24,6.68-5.83s-2.44-5.37-6.67-5.4c-5,0-10-.14-15,.05-2.38.09-3-.7-2.89-3,.19-4.36.26-8.75,0-13.11-.12-2.53.92-2.82,3-2.77,4.87.14,9.75.08,14.62,0,4.38,0,6.87-2.13,6.87-5.66s-2.41-5.56-6.87-5.58c-5,0-10-.09-15,0-1.94,0-2.61-.52-2.55-2.51.14-4.62.12-9.24.06-13.86,0-1.62.18-2.47,2.17-2.46,14.86.13,29.73.13,44.59.18.25,18.58.54,37.15.73,55.73.1,9.24,0,18.48,0,27.73,0,5.22-.24,10.44.72,15.64,2.52,13.75,6.74,26.9,15,38.26,10.24,14.06,21.13,27.65,31.52,41.6,2.63,3.53,6.06,6.58,7.44,11-21.44-.66-40.56,6.92-59.05,16.66-2.48,1.31-4.19,1.26-6.65-.33-13.12-8.52-27.83-12-43.26-12.8a152.68,152.68,0,0,0-53.18,7.05,15.75,15.75,0,0,1-1.8.44,3.44,3.44,0,0,1-.93-.15c3.15-4.09,6.16-8.17,9.36-12.08C186.77,435.4,187.13,432.36,184.45,429.15Zm65.09-30.28a20.4,20.4,0,1,0,20.38-20.45A20.31,20.31,0,0,0,249.54,398.87Z" transform="translate(-122.73 -204.75)"/><path class="cls-4" d="M432,577.33c-16.65.92-31.91-12.51-32.25-29.14-.4-19.6-.15-39.21-.16-58.82,0-28.35,0-56.7-.09-85.05,0-3.08.9-4.57,3.82-5.22,8.7-2,17.09-1.76,24.89,3.19,6.41,4.06,13.53,5.6,21,5.9q0,16.65,0,33.31c0,1.1.27,2.26-.55,3.23-.58-1.1-1.1-2.24-1.75-3.3A18.89,18.89,0,0,0,426.51,433,19.13,19.13,0,0,0,412,450.46c-.56,7.59,4.38,15.27,11.78,18.33,9.61,4,18.93,0,24.85-10.53,1,1.19.6,2.63.6,3.95,0,13,.18,26,0,39-.25,15.95.58,31.89-.57,47.85C447.73,561.42,441.18,570,432,577.33Zm-9.84-72.57a5.62,5.62,0,0,0,.31-11.24,5.8,5.8,0,0,0-5.9,5.49A5.62,5.62,0,0,0,422.17,504.76ZM439.86,542a5.81,5.81,0,0,0-5.86-5.52,6,6,0,0,0-5.44,5.64,5.65,5.65,0,0,0,11.3-.12Z" transform="translate(-122.73 -204.75)"/><path class="cls-3" d="M449.23,396.62A24,24,0,0,1,434.6,393c-10-6.26-20.67-7.7-32-5.19-2.41.53-3.21.35-3.11-2.35.2-5.36.13-10.74,0-16.11,0-1.93.49-2.6,2.5-2.54,5.12.13,10.25.08,15.37,0,4.11-.05,6.48-2.16,6.46-5.62s-2.41-5.56-6.52-5.61c-5-.06-10-.09-15,0-1.93,0-2.93-.22-2.84-2.55.19-4.62.17-9.25,0-13.86-.07-2.08.72-2.48,2.59-2.44,5.12.12,10.24.08,15.37,0,4.05,0,6.44-2.23,6.38-5.69-.06-3.29-2.4-5.47-6.22-5.53-5.12-.09-10.25-.11-15.37,0-2,.05-2.84-.41-2.75-2.63.17-4.49.16-9,0-13.49-.07-2.11.54-2.78,2.69-2.72,5.12.15,10.25.09,15.37,0,3.92,0,6.19-2.06,6.27-5.41s-2.29-5.75-6.32-5.81c-5.12-.09-10.24-.07-15.36,0-1.72,0-2.75-.12-2.65-2.34.23-5.23.18-10.48.25-15.72l.72-.56,48.72,0Q449.24,336.8,449.23,396.62Z" transform="translate(-122.73 -204.75)"/><path class="cls-5" d="M265.47,464.06c-39.31,22.53-80,39-126,40a74.77,74.77,0,0,1,10-20.23c3-4.28,6.35-8.35,9.48-12.55a8.2,8.2,0,0,1,3.14-2.56c27.86-13.33,56.83-18.15,87.27-11.2A57.27,57.27,0,0,1,265.47,464.06Z" transform="translate(-122.73 -204.75)"/><path class="cls-6" d="M339.7,439.77c-1.38-4.4-4.81-7.45-7.44-11-10.39-14-21.28-27.54-31.52-41.6-8.28-11.36-12.5-24.51-15-38.26-1-5.2-.69-10.42-.72-15.64-.05-9.25.07-18.49,0-27.73-.19-18.58-.48-37.15-.73-55.73,5-.05,10,.08,15-.2,2.79-.15,3.18.9,3.17,3.38-.08,27.37-.18,54.75,0,82.12A96.58,96.58,0,0,0,322.3,394c11.65,15.47,23.41,30.85,35.11,46.27.66.87,1.25,1.8,2.36,3.39A99.85,99.85,0,0,0,339.7,439.77Z" transform="translate(-122.73 -204.75)"/><path class="cls-7" d="M351.75,577.37c11.93-10.33,16.61-24.2,18.57-39.16a130.7,130.7,0,0,0,.36-28.25,140.85,140.85,0,0,0-9.14-39.34c-2.53-6.46-6.8-11.81-10.53-17.52,7.95,1.47,15.17,4.82,22.16,8.7,2.37,1.31,3.23,4.09,5.1,5.89,8.62,8.28,11,18.24,10.29,30.07-.93,15.44-.14,31-.26,46.47-.06,7.52,1.14,14.7,4.75,21.32,1.1,2,.28,2.86-1.1,4-6.38,5.17-13.85,7.4-21.85,7.81C364,577.66,357.87,577.39,351.75,577.37Z" transform="translate(-122.73 -204.75)"/><path class="cls-8" d="M448.68,444.73c.82-1,.55-2.13.55-3.23q0-16.65,0-33.31a47.86,47.86,0,0,0,10.73-1.43c1.64-.5,2.37,0,2.26,1.7,0,.5,0,1,0,1.5q0,67.62,0,135.24c0,16.93-10.63,29.26-27.18,32a24.58,24.58,0,0,1-3,.14c9.17-7.31,15.72-15.91,16.62-28.32,1.15-16,.32-31.9.57-47.85.2-13,.05-26,0-39,0-1.32.43-2.76-.6-3.95A21.38,21.38,0,0,0,448.68,444.73Z" transform="translate(-122.73 -204.75)"/><path class="cls-9" d="M300.74,238.3c-24.21,0-48.43.17-72.64.06a11.16,11.16,0,0,1,0-22.3c24.21-.08,48.43,0,72.65.06C306.09,223.52,306,230.91,300.74,238.3Z" transform="translate(-122.73 -204.75)"/><path class="cls-9" d="M462.72,265.4c-23.49.05-47,.15-70.48.09-5.4,0-9.52-4.64-9.78-10.36-.28-6.19,3.42-11.09,9-11.94a7.07,7.07,0,0,1,1.13-.07l70.09.15c1.94,4,3.34,8.08,3.2,12.75C465.78,259.63,463.46,262.18,462.72,265.4Z" transform="translate(-122.73 -204.75)"/><path class="cls-6" d="M449.23,396.62q0-59.83,0-119.66c3,0,6,.09,8.95-.2,3.16-.32,4.2.51,4.15,4-.21,16.43-.1,32.87-.08,49.31,0,5.05,1.16,6.51,5.78,7.61q0,7.29,0,14.58c-4.52,1-5.78,2.5-5.8,7.2,0,10.47-.13,20.94.07,31.4.05,2.82-.92,4-3.52,4.59C455.63,396.15,452.52,397,449.23,396.62Z" transform="translate(-122.73 -204.75)"/><path class="cls-10" d="M300.74,238.3c5.25-7.39,5.35-14.78,0-22.18,3.61,0,7.23-.2,10.85-.09a11.18,11.18,0,0,1,.37,22.34C308.24,238.59,304.49,238.34,300.74,238.3Z" transform="translate(-122.73 -204.75)"/><path class="cls-10" d="M462.72,265.4c.74-3.22,3.06-5.77,3.17-9.38.14-4.67-1.26-8.72-3.2-12.75,1.87-.06,3.73-.19,5.59-.16,6.7.1,11.13,4.71,11.07,11.43s-4.41,10.94-11,11C466.45,265.56,464.58,265.45,462.72,265.4Z" transform="translate(-122.73 -204.75)"/><path class="cls-6" d="M400.5,276.93l-.72.56C399.68,276.88,400,276.8,400.5,276.93Z" transform="translate(-122.73 -204.75)"/><path class="cls-11" d="M300,527.79a28.39,28.39,0,1,1,28,28.69A28.48,28.48,0,0,1,300,527.79Zm27.92,17.43a17.17,17.17,0,1,0-16.67-17.57A17.27,17.27,0,0,0,327.87,545.22Z" transform="translate(-122.73 -204.75)"/><path class="cls-11" d="M199.82,560.27a19.48,19.48,0,0,1,0-39,19.48,19.48,0,1,1,0,39Zm-8.06-19.45a8.16,8.16,0,1,0,16.31,0,8.16,8.16,0,1,0-16.31,0Z" transform="translate(-122.73 -204.75)"/><path class="cls-11" d="M241.53,519.75a5.72,5.72,0,0,1-5.76-5.61,5.82,5.82,0,0,1,5.77-5.64,5.58,5.58,0,0,1,5.5,5.43A5.67,5.67,0,0,1,241.53,519.75Z" transform="translate(-122.73 -204.75)"/><path class="cls-11" d="M293.06,496.15a5.87,5.87,0,0,1-5.83,5.6,5.63,5.63,0,0,1,.11-11.25A5.72,5.72,0,0,1,293.06,496.15Z" transform="translate(-122.73 -204.75)"/><path class="cls-1" d="M249.54,398.87A20.4,20.4,0,1,1,270,419.28,20.32,20.32,0,0,1,249.54,398.87Zm29.53.12a9.13,9.13,0,1,0-9.45,9A9,9,0,0,0,279.07,399Z" transform="translate(-122.73 -204.75)"/><path class="cls-1" d="M448.68,444.73a21.38,21.38,0,0,1-.06,13.53c-5.92,10.55-15.24,14.5-24.85,10.53-7.4-3.06-12.34-10.74-11.78-18.33A19.13,19.13,0,0,1,426.51,433a18.89,18.89,0,0,1,20.42,8.47C447.58,442.49,448.1,443.63,448.68,444.73Zm-10.14,6.61a7.65,7.65,0,0,0-15.29,0,7.65,7.65,0,0,0,15.29,0Z" transform="translate(-122.73 -204.75)"/><path class="cls-1" d="M422.17,504.76a5.62,5.62,0,0,1-5.59-5.75,5.8,5.8,0,0,1,5.9-5.49,5.62,5.62,0,0,1-.31,11.24Z" transform="translate(-122.73 -204.75)"/><path class="cls-1" d="M439.86,542a5.65,5.65,0,0,1-11.3.12,6,6,0,0,1,5.44-5.64A5.81,5.81,0,0,1,439.86,542Z" transform="translate(-122.73 -204.75)"/><path class="cls-12" d="M327.87,545.22a17.17,17.17,0,0,1,.83-34.33,17.17,17.17,0,0,1-.83,34.33Z" transform="translate(-122.73 -204.75)"/><path class="cls-13" d="M191.76,540.82a8.16,8.16,0,1,1,8.32,8.19A8.1,8.1,0,0,1,191.76,540.82Z" transform="translate(-122.73 -204.75)"/><path class="cls-13" d="M279.07,399a9.13,9.13,0,1,1-8.81-9.27A9.08,9.08,0,0,1,279.07,399Z" transform="translate(-122.73 -204.75)"/><path class="cls-13" d="M438.54,451.34a7.65,7.65,0,0,1-15.29,0,7.65,7.65,0,0,1,15.29,0Z" transform="translate(-122.73 -204.75)"/></svg>