<svg id="Layer_1" data-name="Layer 1" xmlns="http://www.w3.org/2000/svg" viewBox="0 0 479.97 480.02"><defs><style>.cls-1{fill:#010101;}.cls-2{fill:#010203;}.cls-3{fill:#010100;}.cls-4{fill:#e1574b;}.cls-5{fill:#ce4e42;}.cls-6{fill:#4297cf;}.cls-7{fill:#4295cd;}.cls-8{fill:#fca017;}.cls-9{fill:#020303;}.cls-10{fill:#3d8bbf;}.cls-11{fill:#030200;}.cls-12{fill:#d2d5d7;}.cls-13{fill:#86ccd7;}.cls-14{fill:#86cdd8;}.cls-15{fill:#6db8c4;}</style></defs><title>electronics</title><path class="cls-1" d="M354.33,637.33H338.4c0-3.75-.27-7.52.1-11.23.38-3.87-.77-5-4.74-4.85-8.9.33-11.27-2.3-11.27-11.35q0-220.68,0-441.34c0-8.72,2.42-11.17,11.06-11.17H535c9.27,0,11.47,2.25,11.47,11.68v440.4c0,1.4.08,2.82,0,4.21a8.13,8.13,0,0,1-7.5,7.65c-2.72.33-6.58-1.27-7.92.78s-.44,5.71-.48,8.66c0,2.19,0,4.38,0,6.56H514.62a110.15,110.15,0,0,1,0-11.2c.36-3.88-.84-4.88-4.78-4.87-40.2.16-80.41.1-120.62.1-10.29,0-20.58.13-30.86-.08-3.14-.06-4,.9-3.84,3.92C354.68,629.23,354.4,633.29,354.33,637.33Zm40.32-328.19a13.3,13.3,0,0,0,1.4.15q65.37,0,130.76.09c3.26,0,3.77-1.17,3.77-4q-.12-64,0-127.95c0-3.36-1-4.1-4.2-4.1q-91.86.14-183.73,0c-3.69,0-4.32,1.2-4.28,4.53.18,13.75.07,27.5.07,41.24q0,42.89,0,85.77c0,2.69-.2,4.79,3.72,4.59,6.85-.37,13.73-.21,20.6-.27ZM530.53,465.69c0-45.15,0-90.3.08-135.44,0-3.7-.63-5.05-4.75-5q-91.38.21-182.77,0c-3.59,0-4.72.8-4.71,4.6q.17,135.44,0,270.87c0,4,1.26,4.78,5,4.77q91.14-.16,182.3,0c3.82,0,5-.87,4.94-4.83C530.47,555.66,530.53,510.67,530.53,465.69Z" transform="translate(-66.55 -157.31)"/><path class="cls-2" d="M66.55,615.77v-285c2.55-4.37,6.36-5.6,11.34-5.59q108.69.18,217.39.08c8.88,0,11.25,2.42,11.25,11.5V609.94c0,1.24.07,2.5,0,3.74a8.15,8.15,0,0,1-7.5,7.65c-2.73.34-6.58-1.27-7.92.79s-.44,5.7-.48,8.65c0,2.19,0,4.38,0,6.56H274.65a107.52,107.52,0,0,1,0-11.21c.36-3.9-.88-4.86-4.79-4.85-47.88.15-95.76.1-143.63.1-8.11,0-16.22.1-24.33-.06-2.68-.06-3.47.77-3.36,3.4.17,4.2,0,8.41-.07,12.62H82.49c0-4.16-.19-8.33.07-12.48.19-2.86-.64-3.87-3.53-3.52C73.82,622,69.22,621,66.55,615.77Zm120-10.38c33.12,0,66.24,0,99.35.07,3.49,0,4.77-.62,4.76-4.52q-.21-95.37,0-190.74c0-4.05-1.24-4.8-5-4.79q-99.1.16-198.23,0c-3.77,0-5,.75-5,4.8q.21,95.13,0,190.27c0,4.38,1.35,5,5.25,5C120.62,605.32,153.58,605.39,186.54,605.39Zm0-216.15c32.78,0,65.57-.12,98.36.13,4.93,0,5.87-1.42,5.76-6-.32-12.49-.24-25,0-37.47.06-3.55-.71-4.81-4.56-4.75-15.14.24-30.29.1-45.44.1-50.9,0-101.8.07-152.7-.12-4.69,0-5.62,1.34-5.52,5.72.31,12.33.28,24.67,0,37-.09,4.15.85,5.5,5.28,5.47C120.66,389.15,153.6,389.24,186.55,389.24Z" transform="translate(-66.55 -157.31)"/><path class="cls-3" d="M66.55,303.62V163c2.31-4.32,5.88-5.71,10.77-5.71q109.41.18,218.82.09c7.73,0,10.38,2.66,10.38,10.42q0,65.6,0,131.2c0,7.71-2.63,10.29-10.46,10.29q-109.41,0-218.82.09C72.33,309.41,68.77,308,66.55,303.62Zm88.14-130.26c-22.64,0-45.28.09-67.92-.09-3.58,0-4.34,1-4.33,4.42q.19,55.74,0,111.48c0,3.71,1.18,4.26,4.49,4.25q67.46-.17,134.9,0c3.87,0,4.9-1,4.89-4.88q-.24-55,0-110.08c0-3.93-.66-5.29-5-5.24C199.35,173.5,177,173.36,154.69,173.36Zm135.87,60.46c0-18.88-.07-37.77.07-56.65,0-3.09-.86-3.92-3.91-3.88q-20.13.24-40.26,0c-3.07,0-3.91.83-3.9,3.89q.15,56.19,0,112.38c0,3.1.89,3.89,3.91,3.86,13.27-.16,26.54-.2,39.8,0,3.5.05,4.41-.85,4.38-4.37C290.46,270.66,290.56,252.24,290.56,233.82Z" transform="translate(-66.55 -157.31)"/><path class="cls-4" d="M530.53,465.69c0,45-.06,90,.09,135,0,4-1.12,4.84-4.94,4.83q-91.15-.18-182.3,0c-3.75,0-5-.73-5-4.77q.18-135.44,0-270.87c0-3.8,1.12-4.61,4.71-4.6q91.4.15,182.77,0c4.12,0,4.76,1.34,4.75,5C530.48,375.39,530.53,420.54,530.53,465.69ZM378.35,341.36c-3.74,0-7.5.23-11.2-.12-3.86-.37-4.6,1.2-4.58,4.73.14,26.63.05,53.27.09,79.9,0,9.18.14,18.37.22,27.55,0,4.06.07,8.12-.16,12.16-.18,3.09,1,4.08,4,4,7.49-.17,15-.28,22.46,0,4.2.17,5.59-1,5.54-5.39-.23-22.62-.1-45.23-.1-67.85,0-17-.07-34,.06-51,0-3.18-.82-4.57-4.2-4.32C386.47,341.37,382.4,341.28,378.35,341.36Z" transform="translate(-66.55 -157.31)"/><path class="cls-4" d="M362.75,309.13c-6.87.06-13.75-.1-20.6.27-3.92.2-3.72-1.9-3.72-4.59q.07-42.88,0-85.77c0-13.74.11-27.49-.07-41.24,0-3.33.59-4.54,4.28-4.53q91.88.19,183.73,0c3.21,0,4.21.74,4.2,4.1q-.17,64,0,128c0,2.87-.51,4.05-3.77,4q-65.38-.17-130.76-.09a13.3,13.3,0,0,1-1.4-.15q0-28.72,0-57.44c0-11.36-.09-22.73.05-34.09,0-3-.91-4.2-4-4-4,.22-8.09.1-12.14.13-4.21-.07-8.43,0-12.62-.25-2.81-.18-3.35,1-3.34,3.53q.18,38.15.18,76.29Z" transform="translate(-66.55 -157.31)"/><path class="cls-5" d="M362.75,309.13l0-15.84c3.73,0,7.48-.19,11.19.12s4.72-.85,4.69-4.59c-.18-25-.1-50.07-.1-75.1,4.05,0,8.1.09,12.14-.13,3.08-.18,4,1,4,4-.14,11.36-.05,22.73-.05,34.09q0,28.73,0,57.44Z" transform="translate(-66.55 -157.31)"/><path class="cls-6" d="M186.54,605.39c-33,0-65.92-.07-98.88.08-3.9,0-5.26-.61-5.25-5q.25-95.15,0-190.27c0-4,1.22-4.81,5-4.8q99.12.16,198.23,0c3.76,0,5,.74,5,4.79q-.21,95.37,0,190.74c0,3.9-1.27,4.53-4.76,4.52C252.78,605.34,219.66,605.39,186.54,605.39Zm73-153.61q-1.46-1.81-2.92-3.62c-20.84-25.69-47.62-37.83-80.68-34-57.38,6.64-92.43,66-71.16,119.73,6.64,16.77,17.87,29.81,32.13,40.49a2.87,2.87,0,0,0,1,2.48c13.91,11.19,29.67,18.49,47.45,20,23.67,2,45.28-3.77,64.1-19,19-15.4,29.88-35.3,32.48-59.35a84.41,84.41,0,0,0-12-54.22C267.19,459.69,265.24,454.08,259.55,451.78Z" transform="translate(-66.55 -157.31)"/><path class="cls-7" d="M186.55,389.24c-33,0-65.89-.09-98.84.11-4.43,0-5.37-1.32-5.28-5.47.26-12.33.29-24.67,0-37-.1-4.38.83-5.74,5.52-5.72,50.9.19,101.8.12,152.7.12,15.15,0,30.3.14,45.44-.1,3.85-.06,4.62,1.2,4.56,4.75-.2,12.49-.28,25,0,37.47.11,4.55-.83,6-5.76,6C252.12,389.12,219.33,389.24,186.55,389.24Zm64.07-32H238.44c-12,0-11.9,0-11.92,11.9,0,3.24.83,4.31,4.17,4.24,10.62-.2,21.25-.07,31.87-.07,12.26,0,12.16,0,12.11-12.14,0-3-.75-4.1-3.9-4C264.06,357.39,257.34,357.24,250.62,357.24Zm-72,8.31c0-8.31,0-8.31-8.36-8.31-7.88,0-7.88,0-7.88,7.85,0,8.36,0,8.36,8.36,8.36C178.65,373.45,178.65,373.45,178.65,365.55Zm-72-8.31c-8.13,0-8.13,0-8.13,8v.46c0,7.59,0,7.59,7.64,7.59,8.37,0,8.37,0,8.37-8.25C114.49,357.24,114.49,357.24,106.61,357.24Zm31.83,16.07c8,0,8,0,8-7.66,0-8.41,0-8.41-8.24-8.41-7.81,0-7.81,0-7.81,7.89C130.43,373.31,130.43,373.31,138.44,373.31Z" transform="translate(-66.55 -157.31)"/><path class="cls-8" d="M154.69,173.36c22.33,0,44.66.14,67-.12,4.36-.05,5,1.31,5,5.24q-.23,55,0,110.08c0,3.91-1,4.89-4.89,4.88q-67.44-.21-134.9,0c-3.31,0-4.5-.54-4.49-4.25q.24-55.74,0-111.48c0-3.43.75-4.45,4.33-4.42C109.41,173.45,132.05,173.36,154.69,173.36Zm-.11,16c-15.46,0-30.92,0-46.37,0-6.75,0-9.69,3-9.7,9.78q-.06,34.2,0,68.4c0,7,2.93,9.84,10.07,9.84q45.92,0,91.82,0c7.36,0,10.18-2.79,10.2-10.22q.06-33.72,0-67.45c0-7.64-2.85-10.35-10.58-10.36Q177.3,189.31,154.58,189.33Z" transform="translate(-66.55 -157.31)"/><path class="cls-8" d="M290.56,233.82c0,18.42-.1,36.84.09,55.25,0,3.52-.88,4.42-4.38,4.37-13.26-.22-26.53-.18-39.8,0-3,0-3.92-.76-3.91-3.86q.16-56.19,0-112.38c0-3.06.83-3.93,3.9-3.89q20.13.24,40.26,0c3,0,3.93.79,3.91,3.88C290.49,196.05,290.56,214.94,290.56,233.82Zm-23.94,47.45a11.89,11.89,0,1,0-12-11.69A11.82,11.82,0,0,0,266.62,281.27Zm.14-91.95c-8.17,0-8.17,0-8.17,8.31,0,7.69,0,7.69,7.82,7.69,8.18,0,8.18,0,8.18-8.28C274.59,189.32,274.59,189.32,266.76,189.32Zm7.83,40c0-8,0-8-7.67-8-8.33,0-8.33,0-8.33,8.29,0,7.75,0,7.75,7.89,7.75C274.59,237.32,274.59,237.32,274.59,229.29Z" transform="translate(-66.55 -157.31)"/><path class="cls-5" d="M378.35,341.36c4-.08,8.12,0,12.15-.29,3.38-.25,4.22,1.14,4.2,4.32-.13,17-.06,34-.06,51,0,22.62-.13,45.23.1,67.85.05,4.43-1.34,5.56-5.54,5.39-7.48-.32-15-.21-22.46,0-3.05.07-4.2-.92-4-4,.23-4,.12-8.1.16-12.16,3.43,0,6.89-.25,10.3.07,4.16.39,5.56-.82,5.51-5.29-.25-22-.09-44.06-.13-66.08C378.54,368.53,378.43,354.94,378.35,341.36Z" transform="translate(-66.55 -157.31)"/><path class="cls-9" d="M378.35,341.36c.08,13.58.19,27.17.21,40.76,0,22-.12,44.05.13,66.08.05,4.47-1.35,5.68-5.51,5.29-3.41-.32-6.87-.07-10.3-.07-.08-9.18-.21-18.37-.22-27.55,0-26.63,0-53.27-.09-79.9,0-3.53.72-5.1,4.58-4.73C370.85,341.59,374.61,341.34,378.35,341.36Z" transform="translate(-66.55 -157.31)"/><path class="cls-2" d="M378.56,213.72c0,25-.08,50.06.1,75.1,0,3.74-1.06,4.89-4.69,4.59s-7.46-.1-11.19-.12q-.06-38.15-.18-76.29c0-2.52.53-3.71,3.34-3.53C370.13,213.73,374.35,213.65,378.56,213.72Z" transform="translate(-66.55 -157.31)"/><path class="cls-9" d="M136.92,574.38c-14.26-10.68-25.49-23.72-32.13-40.49C83.52,480.13,118.57,420.8,176,414.16c33.06-3.83,59.84,8.31,80.68,34q1.47,1.8,2.92,3.62a20.79,20.79,0,0,0,1,2.07q18.87,30.13,12.23,65c-8.69,45.93-55.56,77.86-101.32,69.19C159,585.71,147.7,580.78,136.92,574.38Zm-22.7-73.55c1.25,28.17,13,50.16,38,63.61,24.64,13.29,49.41,11.9,73.34-2.67,6.23-3.8,6.16-3.91.9-9.19a37.76,37.76,0,0,1-3.61-3.66c-1.86-2.44-3.39-2.51-6.09-.74a53.92,53.92,0,0,1-37.41,8.69c-22.33-2.82-41.25-18.42-47-40-6.06-22.85-.44-43,17.74-58.27,18.44-15.53,39.28-17.4,61.24-7.54,3.2,1.44,6,5.53,9.1,4.57s5.05-4.89,7.81-7.16c3-2.49,2.68-4-.48-6.08-23.63-15.4-48.43-17.79-73.65-5.09C128.28,450.27,115.82,472.37,114.22,500.83Zm94.22,33.58c-6.66-4.11-6-10.62-6-17.07.12-11.08.18-22.17,0-33.25-.11-6.11-.09-12,5.93-15.69-14.73-11.29-37.47-8.72-51,5.45a40,40,0,0,0-1.45,53.35C168.67,542.43,191.51,545.73,208.44,534.41Zm50.15-32.76a73.3,73.3,0,0,0-13.79-42.47c-1.63-2.27-2.59-2.33-4.52-.34-6.52,6.73-13.17,13.34-19.87,19.89a6.22,6.22,0,0,0-2,5c.07,11.72.09,23.43,0,35.15a6.75,6.75,0,0,0,2.2,5.33c6.6,6.44,13.18,12.9,19.55,19.55,2.17,2.26,3.1,1.93,4.81-.47A73.52,73.52,0,0,0,258.59,501.65Z" transform="translate(-66.55 -157.31)"/><path class="cls-10" d="M136.92,574.38c10.78,6.4,22.07,11.33,34.54,13.7,45.76,8.67,92.63-23.26,101.32-69.19q6.62-35-12.23-65a20.79,20.79,0,0,1-1-2.07c5.69,2.3,7.64,7.91,10.45,12.51a84.41,84.41,0,0,1,12,54.22c-2.6,24-13.48,44-32.48,59.35-18.82,15.25-40.43,21.06-64.1,19-17.78-1.53-33.54-8.83-47.45-20A2.87,2.87,0,0,1,136.92,574.38Z" transform="translate(-66.55 -157.31)"/><path class="cls-9" d="M250.62,357.24c6.72,0,13.44.15,20.15-.07,3.15-.1,3.89,1,3.9,4,.05,12.14.15,12.14-12.11,12.14-10.62,0-21.25-.13-31.87.07-3.34.07-4.17-1-4.17-4.24,0-11.9-.1-11.9,11.92-11.9Z" transform="translate(-66.55 -157.31)"/><path class="cls-9" d="M178.65,365.55c0,7.9,0,7.9-7.88,7.9-8.36,0-8.36,0-8.36-8.36,0-7.85,0-7.85,7.88-7.85C178.65,357.24,178.65,357.24,178.65,365.55Z" transform="translate(-66.55 -157.31)"/><path class="cls-9" d="M106.61,357.24c7.88,0,7.88,0,7.88,7.82,0,8.25,0,8.25-8.37,8.25-7.64,0-7.64,0-7.64-7.59v-.46C98.48,357.24,98.48,357.24,106.61,357.24Z" transform="translate(-66.55 -157.31)"/><path class="cls-9" d="M138.44,373.31c-8,0-8,0-8-8.18,0-7.89,0-7.89,7.81-7.89,8.24,0,8.24,0,8.24,8.41C146.48,373.31,146.48,373.31,138.44,373.31Z" transform="translate(-66.55 -157.31)"/><path class="cls-11" d="M154.58,189.33q22.72,0,45.44,0c7.73,0,10.56,2.72,10.58,10.36q.06,33.72,0,67.45c0,7.43-2.84,10.22-10.2,10.22q-45.92,0-91.82,0c-7.14,0-10.06-2.83-10.07-9.84q0-34.2,0-68.4c0-6.8,2.95-9.76,9.7-9.78C123.66,189.3,139.12,189.33,154.58,189.33Zm39.7,71.1q.75-23.35,0-46.71c1-8.43,1-8.43-7.29-8.43H122.13c-8.06,0-8.06,0-7.48,8.39-.06,14.95-.05,29.9-.22,44.86,0,2.78,1.31,2.9,3.43,2.89q37.62-.12,75.25-.15C193.76,261.35,194.5,261.56,194.28,260.43Z" transform="translate(-66.55 -157.31)"/><path class="cls-11" d="M266.62,281.27a11.89,11.89,0,1,1,11.83-11.86A11.72,11.72,0,0,1,266.62,281.27Zm-.37-15.87c-1.95.54-3.69,1.57-3.6,4a3.67,3.67,0,0,0,4.2,3.84,3.59,3.59,0,0,0,3.51-4.06C270.21,266.85,268.67,265.68,266.25,265.4Z" transform="translate(-66.55 -157.31)"/><path class="cls-11" d="M266.76,189.32c7.83,0,7.83,0,7.83,7.72,0,8.28,0,8.28-8.18,8.28-7.82,0-7.82,0-7.82-7.69C258.59,189.32,258.59,189.32,266.76,189.32Z" transform="translate(-66.55 -157.31)"/><path class="cls-11" d="M274.59,229.29c0,8,0,8-8.11,8-7.89,0-7.89,0-7.89-7.75,0-8.29,0-8.29,8.33-8.29C274.59,221.28,274.59,221.28,274.59,229.29Z" transform="translate(-66.55 -157.31)"/><path class="cls-12" d="M114.22,500.83c1.6-28.46,14.06-50.56,39.88-63.56,25.22-12.7,50-10.31,73.65,5.09,3.16,2.06,3.5,3.59.48,6.08-2.76,2.27-4.77,6.24-7.81,7.16s-5.9-3.13-9.1-4.57c-22-9.86-42.8-8-61.24,7.54-18.18,15.31-23.8,35.42-17.74,58.27,5.73,21.61,24.65,37.21,47,40a53.92,53.92,0,0,0,37.41-8.69c2.7-1.77,4.23-1.7,6.09.74a37.76,37.76,0,0,0,3.61,3.66c5.26,5.28,5.33,5.39-.9,9.19-23.93,14.57-48.7,16-73.34,2.67C127.26,551,115.47,529,114.22,500.83Z" transform="translate(-66.55 -157.31)"/><path class="cls-13" d="M208.44,534.41c-16.93,11.32-39.77,8-52.52-7.21a40,40,0,0,1,1.45-53.35c13.53-14.17,36.27-16.74,51-5.45-6,3.73-6,9.58-5.93,15.69.21,11.08.15,22.17,0,33.25C202.4,523.79,201.78,530.3,208.44,534.41Z" transform="translate(-66.55 -157.31)"/><path class="cls-12" d="M258.59,501.65a73.52,73.52,0,0,1-13.6,41.6c-1.71,2.4-2.64,2.73-4.81.47-6.37-6.65-13-13.11-19.55-19.55a6.75,6.75,0,0,1-2.2-5.33c.11-11.72.09-23.43,0-35.15a6.22,6.22,0,0,1,2-5c6.7-6.55,13.35-13.16,19.87-19.89,1.93-2,2.89-1.93,4.52.34A73.3,73.3,0,0,1,258.59,501.65Z" transform="translate(-66.55 -157.31)"/><path class="cls-14" d="M194.28,213.72q.74,23.35,0,46.71l-1.17.85q-37.63.06-75.25.15c-2.12,0-3.47-.11-3.43-2.89.17-15,.16-29.91.22-44.86Z" transform="translate(-66.55 -157.31)"/><path class="cls-15" d="M194.28,213.72l-79.63,0c-.58-8.39-.58-8.39,7.48-8.39H187C195.31,205.29,195.31,205.29,194.28,213.72Z" transform="translate(-66.55 -157.31)"/><path class="cls-15" d="M193.11,261.28l1.17-.85C194.5,261.56,193.76,261.35,193.11,261.28Z" transform="translate(-66.55 -157.31)"/><path class="cls-8" d="M266.25,265.4c2.42.28,4,1.45,4.11,3.75a3.59,3.59,0,0,1-3.51,4.06,3.67,3.67,0,0,1-4.2-3.84C262.56,267,264.3,265.94,266.25,265.4Z" transform="translate(-66.55 -157.31)"/></svg>