<svg id="Layer_1" data-name="Layer 1" xmlns="http://www.w3.org/2000/svg" viewBox="0 0 409.63 300.94"><defs><style>.cls-1{fill:#030303;}.cls-2{fill:#fc4f7b;}.cls-3{fill:#fd4f7c;}.cls-4{fill:#d4daeb;}.cls-5{fill:#d13d69;}.cls-6{fill:#cf3c68;}.cls-7{fill:#d1d8e8;}.cls-8{fill:#c6cee1;}.cls-9{fill:#efbf86;}.cls-10{fill:#684a4a;}.cls-11{fill:#e3ad77;}.cls-12{fill:#674a4a;}.cls-13{fill:#594045;}.cls-14{fill:#cd986c;}.cls-15{fill:#e0ab75;}</style></defs><title>employment</title><path class="cls-1" d="M101.6,491.2c1.07-.22.89-1.22,1.12-1.9,2.38-7.24,7.17-12.3,13.93-15.65,4.85-2.41,9.69-4.86,14.94-7.49-8.55-4-15.82-8.76-21.24-16-1.87-2.49-2.9-5-1.61-8.13,3.92-9.41,4.23-19.43,4.86-29.38.62-9.7.19-19.46,2.35-29,4.81-21.37,22.55-38.19,42.77-40.46,25-2.81,47.32,11.93,54.86,36.13,2.66,8.53,2.88,17.3,3.19,26.08.33,9.06.69,18.1,2.33,27.05a31.67,31.67,0,0,0,2.27,8c1.9,4,1,7.31-1.72,10.64A52.75,52.75,0,0,1,203.54,464c-1.25.67-2.51,1.31-3.91,2,2.92,2.64,5.31,2.78,9,1.05,11.52-5.46,23.82-9.05,35.76-13.5,2.6-1,4.55-1.92,5.9-5,1.92-4.33,6.2-7.2,9.47-10.69,1.57-1.67,2.6-3.31,2.24-5.64a2.68,2.68,0,0,1,0-.8c1.38-10.26-1.56-18.24-9.07-26.18C241,392.67,236.3,376.3,236.4,359c0-8.5-2-16.37-3.84-24.55-4.32-18.78-5.48-37.9,3.41-55.86,9.84-19.89,26.45-31.18,48.54-31.84,30.5-.91,61-.31,91.57-.29,4.45,0,7,2.23,7,6.52-.19,23.85.83,47.72-.55,71.56a39.66,39.66,0,0,1-3.29,14.32c-2.46,5.32-2.67,10.75-2.51,16.35.36,13.37-1.6,26.25-7.86,38.28a69.43,69.43,0,0,1-15.51,20.12c-1.64,1.45-2.63,2.9-2.27,5.09a3.06,3.06,0,0,1,0,.8c-1.52,10.81.7,20.19,10.21,26.8.32.22.72.54.79.88,1.24,5.81,6.47,6.25,10.71,7.87,7.2,2.76,14.5,5.24,21.69,8,2.85,1.08,5.53,1.57,8.45.3a41.72,41.72,0,0,1,5.35-1.58c7.8-2.24,7.74-2.24,7.65-10.14a4.74,4.74,0,0,0-1.89-4c-11.73-9.67-17.55-22.2-17.33-37.36a34.66,34.66,0,0,0-3.39-15.65c-10.2-21.91,6.36-49.69,30.47-51.36,20.36-1.4,40.76-.33,61.15-.54,4.2,0,6.91,2.05,6.92,5.67,0,12.38.81,24.78-.45,37.14a26.33,26.33,0,0,1-3.13,10.24,22.73,22.73,0,0,0-2.71,12.6c.73,16.19-4.59,29.73-17.63,39.93-3.3,2.58-1.28,6.47-1.37,9.73-.06,2.3,2.45,2.4,4.2,2.9,7.15,2.07,14.33,4.05,21.44,6.22,12.17,3.72,19,12.82,19,25.48.06,15.6,0,31.19,0,46.79,0,3.71-1,6.64-4.94,7.61-3.17.78-5.51-1-7.16-5.35,0-16.38.09-32.77,0-49.15,0-3.76-.79-7.39-4-10-1.57-2.41-4.17-3.25-6.67-4-8.14-2.47-16.33-4.74-24.47-7.17a2.8,2.8,0,0,0-3.2.77q-6.29,6.42-12.69,12.73a3.67,3.67,0,0,0-1,2.87q.12,26.57.18,53.13c-.75,3.5-2.38,6.35-6.4,6.23-3.75-.11-5.46-2.69-5.93-6.21q.07-19.56.15-39.12c0-5.19,1.38-11-.48-15.4s-7-7.8-10.72-11.57c-4.68-4.74-4.7-4.72-10.89-1.21,7,7.51,8.72,16.68,8.6,26.57-.16,13.57.05,27.14.1,40.72-.58,3.47-2.26,6.15-6,6.23-3.54.07-5.51-2.2-6.17-5.6,0-15.41.09-30.83,0-46.24A18.18,18.18,0,0,0,404,481.6c-2.07-2.81-5.09-4.23-8.21-5.39-11.72-4.33-23.5-8.5-35.19-12.92-2.4-.91-3.45-.31-4.74,1.69-4.38,6.84-8.93,13.57-13.48,20.3-5.73,8.44-13.88,9.19-21.2,2.09-2.7-2.62-5.06-5.63-8.42-7.92V541c-2,5.47-5.48,7.44-9.27,5.28-2.06-1.18-2.59-3.21-3.19-5.23.08-1.19.23-2.38.23-3.57q0-27.39,0-54.77a4.84,4.84,0,0,0-1.12-4c-2.65,3-5,6-7.7,8.69-7.19,7.2-15.45,6.34-21.16-2.1-4.54-6.73-9.1-13.46-13.46-20.31-1.33-2.09-2.54-2.45-4.82-1.6-11.58,4.33-23.23,8.46-34.82,12.75-3.51,1.29-6.89,2.88-9,6.23-3.81,3.65-5,8.38-5,13.38-.09,15.26,0,30.52,0,45.78-.56,3.29-2.45,5.42-5.8,5.57-3.64.17-5.36-2.35-6.37-5.48q0-22.14.1-44.3c0-5.23.36-10.53,3-15.09,2.06-3.59.91-4.87-2.35-6.2-1.76-.72-2.84-.78-4.13.67a62.1,62.1,0,0,1-4.59,4.44c-6.24,5.69-13.46,8.25-21.95,7-7.59-1.1-13-5.8-18-11-1.61-1.65-2.9-2.08-5.09-.88-5.11,2.81-10.43,5.24-15.61,7.92-2.21,1.15-4.6,2.15-5.83,4.58-2.49,2.37-3.13,5.46-3.14,8.68,0,14.73,0,29.46.06,44.19-2.64,6.81-7.27,7.43-12.09,1.6ZM288,444l16.65,11.6c1,.69,1.81,1.38,3.15.4,6.31-4.62,13.12-8.53,19.17-13.52,3.54-2.3,7.08-4.62,10.64-6.9a2.85,2.85,0,0,0,1.47-2.63c-.05-2.88,0-5.76,0-8.64-1.76-.25-2.83.65-4,1.17a69.61,69.61,0,0,1-34.58,5.78A66.91,66.91,0,0,1,277.12,425c-.88-.42-2-1.85-3.05-.33s.16,10.17,1.67,11.2C279.79,438.64,283.9,441.32,288,444ZM132.81,411.21c.25,12.55,4.87,22.71,16,29.3,4.63,3.24,9.93,4.23,15.41,4.7,12,1,26.06-7.62,30.21-18.72,3.27-5.09,3.35-9.81-.59-14.87-7.91-10.13-18.56-14.9-30.75-17.48-5.68-1.2-9.89-.33-13.46,4.5-2.24,3-4.84,6.18-9.4,5.74-5.32-3-5.83-6.9-1.65-11.43,2.65-2.88,5.89-5.24,7.93-8.68,1.91-1.74,4-3.3,6.68-3.17,12.36.61,24.12,3.31,35,9.65,6.4,3.73,11.33,8.93,16.25,14.65.81-3.51-.22-6.49-.34-9.5-.52-13.6-5.72-24.84-16.42-33.59-11.82-9.66-32.64-9.78-44.48.1a31.16,31.16,0,0,0-5.37,4.7c-9.93,10.6-11.88,23.66-11.59,37.42,0,1.39.54,2.34,1.95,2.59C130.58,407.56,131.67,409.4,132.81,411.21Zm274.66-16c2,6.33.64,12.91,1.39,19.32,1.25,10.68,5.89,19.38,15.16,25.27,10.39,7.37,25.41,7.05,35.73-.56,11.48-8.45,14.73-20.15,13.66-33.65.08-3.82.22-7.63,1.78-11.21,2.45-3,3.45-6.55,4.06-10.21,1.49-9,.38-18.09.75-27.13.12-2.7-1.54-2.57-3.36-2.56-15.33,0-30.66-.15-46,.07-8,.11-15.63,1.8-21.12,8.48C400.77,371.67,399.85,386,407.47,395.24ZM248.75,350.35c-1.14,10.34-.37,20.53,3.39,30.24,7.26,18.72,20.05,31.69,39.87,37,7.9,2.61,16,2.55,24.05,1.26,27.22-4.38,52.69-29,48.26-68.07.78-4.13.19-8.42,2.2-12.44,3.58-7.17,4.44-15.05,4.54-22.9.23-17.71,0-35.44.14-53.15,0-2.87-.6-3.91-3.72-3.9-27,.13-54.08.06-81.13.12a33.65,33.65,0,0,0-12.05,2.13c-8.39,2.12-15.15,6.87-20.85,13.2-7.41,8.23-10.84,18-11.44,29-.64,11.76-.34,23.36,3.93,34.48C247.58,341.54,249,345.73,248.75,350.35Zm82.08,129.48c1.16-.16,1.4-1,1.82-1.66q8.13-12.1,16.19-24.24c2.41-3.63-1.86-4.27-2.95-6.31-1-1.82-2.34-1.58-4-.45q-12,8.31-24.08,16.43c-1.65,1.11-1.76,1.81-.29,3.22,4.05,3.86,7.94,7.88,11.91,11.83C329.92,479.1,330.44,479.5,330.83,479.83Zm-34-14.66a13.69,13.69,0,0,0-1.47-1.35c-8.24-5.64-16.52-11.19-24.7-16.91-2.27-1.59-3.27.09-4.16,1.36-1.17,1.68-4.63,2.41-2.38,5.71,5.48,8,10.83,16.12,16.18,24.23,1,1.52,1.71,2.07,3.25.45,3.85-4.06,7.88-7.94,11.82-11.9C295.81,466.29,296.24,465.79,296.8,465.17ZM152,455.31c0,3,.68,5.63-.14,7.68-1.83,4.58.85,6.72,3.69,9.23a15.36,15.36,0,0,0,23.94-4.08,1.92,1.92,0,0,0,.1-1.84,19.45,19.45,0,0,1-1-8.25c.1-1.86-.3-2.69-2.43-2.15C168.21,457.89,160.32,457.54,152,455.31Zm302.4,3.58c.62-3.13-.71-3.64-3.65-2.84a38,38,0,0,1-18.56.2c-4.12-.95-5.29.12-4.68,4.34a4,4,0,0,0,1.51,2.27c3.38,3.4,6.84,6.73,10.13,10.22,1.43,1.5,2.35,1.58,3.82,0,3.28-3.5,6.71-6.86,10.16-10.19A3.76,3.76,0,0,0,454.36,458.89ZM124.45,430.37c-1.1,4.44-1.84,8.09-2.94,11.63a3.51,3.51,0,0,0,1.08,4.19,49.93,49.93,0,0,0,14.81,9.25c.81.34,2.15,1.08,2.33-.17.31-2.23,1.33-4.82-.91-6.69C132.94,443.67,127.93,438.09,124.45,430.37Zm81.78.53c-3.88,7.24-8.29,13.27-14.52,17.82-2.19,1.6-1.23,4.18-1.07,6.33.1,1.35,1.33.91,2.19.56,5.7-2.3,11-5.18,15.34-9.68.73-.76,1.64-1.46,1.31-2.7C208.47,439.31,207.42,435.41,206.23,430.9Z" transform="translate(-101.6 -246.24)"/><path class="cls-2" d="M208.42,482.32c2.13-3.35,5.51-4.94,9-6.23,11.59-4.29,23.24-8.42,34.82-12.75,2.28-.85,3.49-.49,4.82,1.6,4.36,6.85,8.92,13.58,13.46,20.31,5.71,8.44,14,9.3,21.16,2.1,2.68-2.68,5.05-5.68,7.7-8.69a4.84,4.84,0,0,1,1.12,4q0,27.39,0,54.77c0,1.19-.15,2.38-.23,3.57L242,540.9c-.07-7.82-.11-15.64-.2-23.46-.06-6.16-2.08-8-8.2-7.71C227.59,498.41,217.41,490.91,208.42,482.32Z" transform="translate(-101.6 -246.24)"/><path class="cls-3" d="M312.76,541V479.45c3.36,2.29,5.72,5.3,8.42,7.92,7.32,7.1,15.47,6.35,21.2-2.09,4.55-6.73,9.1-13.46,13.48-20.3,1.29-2,2.34-2.6,4.74-1.69,11.69,4.42,23.47,8.59,35.19,12.92,3.12,1.16,6.14,2.58,8.21,5.39-5.82,6-11.58,12-17.49,17.83a31.84,31.84,0,0,0-7.32,10.24c-6.12-.17-8,1.7-8.08,7.89Q371,529.29,371,541Z" transform="translate(-101.6 -246.24)"/><path class="cls-4" d="M116.77,488.73c1.23-2.43,3.62-3.43,5.83-4.58,5.18-2.68,10.5-5.11,15.61-7.92,2.19-1.2,3.48-.77,5.09.88,5,5.19,10.41,9.89,18,11,8.49,1.24,15.71-1.32,21.95-7a62.1,62.1,0,0,0,4.59-4.44c1.29-1.45,2.37-1.39,4.13-.67,3.26,1.33,4.41,2.61,2.35,6.2-2.62,4.56-3,9.86-3,15.09q0,22.15-.1,44.3l-51.92,0q0-14.6-.1-29.18c0-5.61-1.71-7.39-7.21-7.76-.14-2.78-1.92-4.5-3.84-6.18C124.41,495.18,119.87,492.79,116.77,488.73Z" transform="translate(-101.6 -246.24)"/><path class="cls-4" d="M447.28,540.82q-.07-26.57-.18-53.13a3.67,3.67,0,0,1,1-2.87q6.39-6.33,12.69-12.73a2.8,2.8,0,0,1,3.2-.77c8.14,2.43,16.33,4.7,24.47,7.17,2.5.76,5.1,1.6,6.67,4-.05,1.84-1.63,2.62-2.65,3.77-3.32,3.75-7.49,6.69-10.24,11-6.09-1.11-8.66,1-8.7,7.31q-.09,18.13-.14,36.29Z" transform="translate(-101.6 -246.24)"/><path class="cls-5" d="M379.19,509.67a31.84,31.84,0,0,1,7.32-10.24c5.91-5.86,11.67-11.87,17.49-17.83a18.18,18.18,0,0,1,5.52,13.62c.06,15.41,0,30.83,0,46.24l-26.29,0c0-7.91-.14-15.82,0-23.73C383.21,514.22,382.18,511.52,379.19,509.67Z" transform="translate(-101.6 -246.24)"/><path class="cls-6" d="M208.42,482.32c9,8.59,19.17,16.09,25.2,27.41-3,1.91-3.89,4.75-3.86,8.17.07,7.82,0,15.64,0,23.46l-26.31.12c0-15.26-.11-30.52,0-45.78C203.42,490.7,204.61,486,208.42,482.32Z" transform="translate(-101.6 -246.24)"/><path class="cls-7" d="M421.71,540.83c0-13.58-.26-27.15-.1-40.72.12-9.89-1.57-19.06-8.6-26.57,6.19-3.51,6.21-3.53,10.89,1.21,3.73,3.77,8.8,7,10.72,11.57s.49,10.21.48,15.4q0,19.56-.15,39.12Z" transform="translate(-101.6 -246.24)"/><path class="cls-8" d="M482.27,497.23c2.75-4.27,6.92-7.21,10.24-11,1-1.15,2.6-1.93,2.65-3.77,3.21,2.57,4,6.2,4,10,.06,16.38,0,32.77,0,49.15H485.65c0-12.38-.09-24.76,0-37.14C485.63,501.43,484.81,499,482.27,497.23Z" transform="translate(-101.6 -246.24)"/><path class="cls-8" d="M116.77,488.73c3.1,4.06,7.64,6.45,11.4,9.75,1.92,1.68,3.7,3.4,3.84,6.18-3.7,1.31-4.85,4.09-4.82,7.81.07,9.71,0,19.42,0,29.13H113.69c0-14.73-.08-29.46-.06-44.19C113.64,494.19,114.28,491.1,116.77,488.73Z" transform="translate(-101.6 -246.24)"/><path class="cls-1" d="M482.27,497.23c2.54,1.75,3.36,4.2,3.34,7.23-.05,12.38,0,24.76,0,37.14-.89,3.22-2.73,5.6-6.28,5.45-3.73-.16-5.49-2.69-5.94-6.22q.06-18.15.14-36.29C473.61,498.26,476.18,496.12,482.27,497.23Z" transform="translate(-101.6 -246.24)"/><path class="cls-1" d="M127.14,541.6c0-9.71.12-19.42,0-29.13,0-3.72,1.12-6.5,4.82-7.81,5.5.37,7.19,2.15,7.21,7.76q.08,14.6.1,29.18c-.73,3.15-2.54,5.35-5.88,5.46C129.87,547.17,128.05,544.8,127.14,541.6Z" transform="translate(-101.6 -246.24)"/><path class="cls-1" d="M379.19,509.67c3,1.85,4,4.55,4,8-.11,7.91,0,15.82,0,23.73-.94,3.32-2.74,5.88-6.54,5.62-3.53-.24-5.21-2.69-5.71-6q.07-11.73.16-23.45C371.15,511.37,373.07,509.5,379.19,509.67Z" transform="translate(-101.6 -246.24)"/><path class="cls-1" d="M229.72,541.36c0-7.82.11-15.64,0-23.46,0-3.42.86-6.26,3.86-8.17,6.12-.33,8.14,1.55,8.2,7.71.09,7.82.13,15.64.2,23.46-.53,3.34-2.11,5.9-5.72,6.14C232.47,547.3,230.67,544.7,229.72,541.36Z" transform="translate(-101.6 -246.24)"/><path class="cls-9" d="M364.32,350.74c4.43,39.09-21,63.69-48.26,68.07-8.06,1.29-16.15,1.35-24.05-1.26-.15-1.7-1.45-2.8-2.27-4.13a58.42,58.42,0,0,1-8.84-28.93c-.4-15.29-.1-30.6-.1-45.9a12.77,12.77,0,0,1,4.1-9.56c3.27-3.22,7.3-3.16,11.43-3.56,13.94-1.35,27.72-1.08,41.45,2.1,4.51,1,8.62,3.48,13.34,3.65C351.59,340.38,356.26,346.71,364.32,350.74Z" transform="translate(-101.6 -246.24)"/><path class="cls-10" d="M364.32,350.74c-8.06-4-12.73-10.36-13.2-19.52l0-2.27c3-.07,5-1.38,5.93-4.35s-.54-5.12-2.63-6.94a59.47,59.47,0,0,0-4.67-3.72c-12.19-8.57-26.21-11.08-40.64-12.47-9.71-.93-19.38-.38-29.07,0-.75-2.12-2.84-3-4.27-4.5-7.7-8.06-9.7-17.24-6-27.76,1.11-3.13,3.75-5.39,4.52-8.66a33.86,33.86,0,0,1,12.05-2.12c27-.06,54.09,0,81.13-.12,3.12,0,3.74,1,3.72,3.9-.12,17.71.09,35.44-.14,53.15-.1,7.85-1,15.73-4.54,22.9C364.51,342.32,365.1,346.61,364.32,350.74Z" transform="translate(-101.6 -246.24)"/><path class="cls-11" d="M351.09,329l0,2.27c-4.72-.17-8.83-2.61-13.34-3.65-13.73-3.18-27.51-3.45-41.45-2.1-4.13.4-8.16.34-11.43,3.56a12.77,12.77,0,0,0-4.1,9.56c0,15.3-.3,30.61.1,45.9a58.42,58.42,0,0,0,8.84,28.93c.82,1.33,2.12,2.43,2.27,4.13-19.82-5.27-32.61-18.24-39.87-37-3.76-9.71-4.53-19.9-3.39-30.24,6.29-3.18,10.77-7.83,12.2-15,4.94-.69,6.43-2.29,6.57-7.23a87.64,87.64,0,0,0,0-9.17c-.23-2.83.7-3.91,3.59-4.27,16-2,32.08-2.55,48.09.1,10.21,1.69,19.85,4.91,27.68,12.16A6.61,6.61,0,0,0,351.09,329Z" transform="translate(-101.6 -246.24)"/><path class="cls-9" d="M473.41,405.62c1.07,13.5-2.18,25.2-13.66,33.65-10.32,7.61-25.34,7.93-35.73.56a100.24,100.24,0,0,1-2.45-25.62c.38-9,5.75-14.49,14.67-14.13A155.64,155.64,0,0,1,453.55,402C460.2,403,466.79,404.41,473.41,405.62Z" transform="translate(-101.6 -246.24)"/><path class="cls-12" d="M409.52,363.06c5.5-6.68,13.12-8.37,21.13-8.48,15.33-.22,30.66-.06,46-.07,1.82,0,3.48-.14,3.36,2.56-.37,9,.74,18.13-.75,27.13-.61,3.66-1.61,7.24-4.06,10.21l-8.88-5.72c.28-3.85-1.64-6.28-5.08-7.63a70.91,70.91,0,0,0-6.73-2.4c-10.14-2.81-20.6-3.37-31-4a7.59,7.59,0,0,0-7.37,3.81c-2.5.17-3.75-1.49-4.94-3.31C408.71,371.36,408.5,367.29,409.52,363.06Z" transform="translate(-101.6 -246.24)"/><path class="cls-12" d="M143.21,362.41c11.84-9.88,32.66-9.76,44.48-.1,10.7,8.75,15.9,20,16.42,33.59.12,3,1.15,6,.34,9.5-4.92-5.72-9.85-10.92-16.25-14.65-10.87-6.34-22.63-9-35-9.65-2.64-.13-4.77,1.43-6.68,3.17C141.93,377.51,141.45,370.13,143.21,362.41Z" transform="translate(-101.6 -246.24)"/><path class="cls-13" d="M261,335.39c-1.43,7.13-5.91,11.78-12.2,15,.24-4.62-1.17-8.81-2.81-13.08-4.27-11.12-4.57-22.72-3.93-34.48.6-11,4-20.76,11.44-29,5.7-6.33,12.46-11.08,20.85-13.21-.77,3.27-3.41,5.53-4.52,8.66C266,279.77,268,289,275.74,297c1.43,1.5,3.52,2.38,4.27,4.5-4.46.57-8.93,1.12-13.39,1.72a12.35,12.35,0,0,0-10.68,9.84c-1.18,5.26-.72,10.59-.42,15.87C255.71,332.18,257.31,334.78,261,335.39Z" transform="translate(-101.6 -246.24)"/><path class="cls-9" d="M194.45,426.49c-4.15,11.1-18.16,19.76-30.21,18.72-5.48-.47-10.78-1.46-15.41-4.7-.29-1.16-.54-2.32-.88-3.46-2.55-8.6-3.72-16.88,5.35-22.75a.78.78,0,0,0,.28-.29c4.1-8.54,10-7.36,16.91-3.55C179,415.13,188,418.93,194.45,426.49Z" transform="translate(-101.6 -246.24)"/><path class="cls-11" d="M466.31,388.69l8.88,5.72c-1.56,3.58-1.7,7.39-1.78,11.21-6.62-1.21-13.21-2.58-19.86-3.59a155.64,155.64,0,0,0-17.31-1.95c-8.92-.36-14.29,5.17-14.67,14.13A100.24,100.24,0,0,0,424,439.83c-9.27-5.89-13.91-14.59-15.16-25.27-.75-6.41.58-13-1.39-19.32l9.36-10.3c2.84,1.66,6,1.9,9.17,2.05,10.74.48,21.39,1.44,31.55,5.47C461.54,394,463.64,392.92,466.31,388.69Z" transform="translate(-101.6 -246.24)"/><path class="cls-11" d="M194.45,426.49c-6.5-7.56-15.5-11.36-24-16-6.87-3.81-12.81-5-16.91,3.55a.78.78,0,0,1-.28.29c-9.07,5.87-7.9,14.15-5.35,22.75.34,1.14.59,2.3.88,3.46-11.15-6.59-15.77-16.75-16-29.3l7.44-6.83c4.56.44,7.16-2.71,9.4-5.74,3.57-4.83,7.78-5.7,13.46-4.5,12.19,2.58,22.84,7.35,30.75,17.48C197.8,416.68,197.72,421.4,194.45,426.49Z" transform="translate(-101.6 -246.24)"/><path class="cls-14" d="M288,444c-4.08-2.72-8.19-5.4-12.24-8.16-1.51-1-2.8-9.61-1.67-11.2s2.17-.09,3.05.33a66.91,66.91,0,0,0,23.33,6.29A69.61,69.61,0,0,0,335,425.52c1.18-.52,2.25-1.42,4-1.17,0,2.88,0,5.76,0,8.64a2.85,2.85,0,0,1-1.47,2.63c-3.56,2.28-7.1,4.6-10.64,6.9-.92.07-1.85.06-2.75.22-8.57,1.51-17.08,2.71-25.91,1.51C295,443.8,291.43,441.8,288,444Z" transform="translate(-101.6 -246.24)"/><path class="cls-6" d="M330.83,479.83c-.39-.33-.91-.73-1.36-1.18-4-3.95-7.86-8-11.91-11.83-1.47-1.41-1.36-2.11.29-3.22q12.11-8.12,24.08-16.43c1.62-1.13,3-1.37,4,.45,1.09,2,5.36,2.68,2.95,6.31q-8.07,12.13-16.19,24.24C332.23,478.79,332,479.67,330.83,479.83Z" transform="translate(-101.6 -246.24)"/><path class="cls-13" d="M140.25,404.38l-7.44,6.83c-1.14-1.81-2.23-3.65-4.61-4.09-1.41-.25-1.92-1.2-1.95-2.59-.29-13.76,1.66-26.82,11.59-37.42a31.16,31.16,0,0,1,5.37-4.7c-1.76,7.72-1.28,15.1,3.32,21.86-2,3.44-5.28,5.8-7.93,8.68C134.42,397.48,134.93,401.34,140.25,404.38Z" transform="translate(-101.6 -246.24)"/><path class="cls-6" d="M296.8,465.17c-.56.62-1,1.12-1.46,1.59-3.94,4-8,7.84-11.82,11.9-1.54,1.62-2.25,1.07-3.25-.45-5.35-8.11-10.7-16.21-16.18-24.23-2.25-3.3,1.21-4,2.38-5.71.89-1.27,1.89-2.95,4.16-1.36,8.18,5.72,16.46,11.27,24.7,16.91A13.69,13.69,0,0,1,296.8,465.17Z" transform="translate(-101.6 -246.24)"/><path class="cls-15" d="M152,455.31c8.36,2.23,16.25,2.58,24.14.59,2.13-.54,2.53.29,2.43,2.15a19.45,19.45,0,0,0,1,8.25,1.92,1.92,0,0,1-.1,1.84,15.36,15.36,0,0,1-23.94,4.08c-2.84-2.51-5.52-4.65-3.69-9.23C152.64,460.94,152,458.28,152,455.31Z" transform="translate(-101.6 -246.24)"/><path class="cls-15" d="M454.36,458.89a3.76,3.76,0,0,1-1.27,4c-3.45,3.33-6.88,6.69-10.16,10.19-1.47,1.56-2.39,1.48-3.82,0-3.29-3.49-6.75-6.82-10.13-10.22a4,4,0,0,1-1.51-2.27c-.61-4.22.56-5.29,4.68-4.34a38,38,0,0,0,18.56-.2C453.65,455.25,455,455.76,454.36,458.89Z" transform="translate(-101.6 -246.24)"/><path class="cls-13" d="M416.83,384.94l-9.36,10.3c-7.62-9.26-6.7-23.57,2.06-32.18-1,4.23-.82,8.3,1.64,12.07,1.19,1.82,2.44,3.48,4.94,3.31C415.65,380.69,416.25,382.81,416.83,384.94Z" transform="translate(-101.6 -246.24)"/><path class="cls-15" d="M288,444c3.45-2.24,7-.24,10.31.21,8.83,1.2,17.34,0,25.91-1.51.9-.16,1.83-.15,2.75-.22-6.05,5-12.86,8.9-19.17,13.52-1.34,1-2.16.29-3.15-.4Z" transform="translate(-101.6 -246.24)"/><path class="cls-13" d="M124.45,430.37c3.48,7.72,8.49,13.3,14.37,18.21,2.24,1.87,1.22,4.46.91,6.69-.18,1.25-1.52.51-2.33.17a49.93,49.93,0,0,1-14.81-9.25,3.51,3.51,0,0,1-1.08-4.19C122.61,438.46,123.35,434.81,124.45,430.37Z" transform="translate(-101.6 -246.24)"/><path class="cls-12" d="M206.23,430.9c1.19,4.51,2.24,8.41,3.25,12.33.33,1.24-.58,1.94-1.31,2.7-4.31,4.5-9.64,7.38-15.34,9.68-.86.35-2.09.79-2.19-.56-.16-2.15-1.12-4.73,1.07-6.33C197.94,444.17,202.35,438.14,206.23,430.9Z" transform="translate(-101.6 -246.24)"/><path class="cls-1" d="M261,335.39c-3.64-.61-5.24-3.21-5.43-6.45-.3-5.28-.76-10.61.42-15.87a12.35,12.35,0,0,1,10.68-9.84c4.46-.6,8.93-1.15,13.39-1.72,9.69-.42,19.36-1,29.07,0,14.43,1.39,28.45,3.9,40.64,12.47a59.47,59.47,0,0,1,4.67,3.72c2.09,1.82,3.58,3.88,2.63,6.94s-2.94,4.28-5.93,4.35a6.61,6.61,0,0,1-4.25-2c-7.83-7.25-17.47-10.47-27.68-12.16-16-2.65-32.05-2.07-48.09-.1-2.89.36-3.82,1.44-3.59,4.27a87.64,87.64,0,0,1,0,9.17C267.38,333.1,265.89,334.7,261,335.39Z" transform="translate(-101.6 -246.24)"/><path class="cls-1" d="M416.83,384.94c-.58-2.13-1.18-4.25-.72-6.5a7.59,7.59,0,0,1,7.37-3.81c10.42.66,20.88,1.22,31,4a70.91,70.91,0,0,1,6.73,2.4c3.44,1.35,5.36,3.78,5.08,7.63-2.67,4.23-4.77,5.35-8.76,3.77-10.16-4-20.81-5-31.55-5.47C422.8,386.84,419.67,386.6,416.83,384.94Z" transform="translate(-101.6 -246.24)"/></svg>