<svg id="Layer_1" data-name="Layer 1" xmlns="http://www.w3.org/2000/svg" viewBox="0 0 355.54 355.59"><defs><style>.cls-1{fill:#071922;}.cls-2{fill:#52787f;}.cls-3{fill:#e9e9ef;}.cls-4{fill:#d2d3d3;}.cls-5{fill:#091a23;}.cls-6{fill:#081a22;}.cls-7{fill:#0a1b24;}.cls-8{fill:#e8e8ee;}.cls-9{fill:#d7d7d7;}.cls-10{fill:#52777e;}.cls-11{fill:#0a1c25;}.cls-12{fill:#36585d;}</style></defs><title>energy</title><path class="cls-1" d="M378.11,569.26c-.66,3.89-3.06,5.28-6.88,5.28q-117.63-.07-235.25,0c-5.23,0-7-1.73-7-6.93,0-5,0-10,0-15,0-4.75,1.82-6.57,6.55-6.58,12.61,0,25.22-.08,37.83,0,2.7,0,4-.38,3.86-3.51-.15-4.61.35-9.23.46-13.85.08-3.47,1.43-5.74,5.12-6.12,4.37.89,5.44,2.14,5.4,6.57a103,103,0,0,1-.62,13.82c-.32,2.16.36,3.11,2.79,3.08q15.91-.16,31.83,0c2.43,0,2.91-.94,2.86-3.09-.11-5.36,0-10.73,0-16.1,0-6.19,1.39-7.74,7.63-7.79,2.44,0,3-.95,2.81-3.11-.3-4.1-.5-8.21-.64-12.32-.32-10.09-.66-20.19-.82-30.29,0-2.47-.83-3.16-3.25-3.13q-18.72.15-37.45,0c-2.27,0-3,.69-3,3-.3,9.1-.88,18.18-1.16,27.27-.12,3.81-1.72,5.85-5.57,6-3.87-.6-5.06-3.15-4.92-6.71.35-8.87.57-17.74,1.07-26.59.13-2.33-.36-3-2.73-3-3.82.05-6-2-6-5.16s2.19-5.25,5.95-5.22c2.23,0,3.2-.3,3.27-2.93q.75-26,1.92-52.07c.11-2.55-.65-3.09-3-3.13-3.72-.06-6.06-2.42-5.74-5.47.35-3.44,2.54-5.14,5.88-4.89,2.71.2,3.31-.88,3.39-3.37q.79-25.86,1.86-51.7c.09-2.27-.23-3.32-2.91-3.23-3.68.13-6-2.23-5.91-5.26s2.34-5.2,5.81-5.07c2.84.11,3.55-.79,3.63-3.52.45-17,1-34,1.69-51,.09-2.45,0-3.85-3.2-3.67a5.11,5.11,0,0,1-5.54-5.32c.07-2.94,2.33-5,5.79-5.05q28.3,0,56.61,0c3.25,0,5.2,1.64,5.52,4.87a4.94,4.94,0,0,1-5.27,5.49c-3.16-.08-3.55,1-3.42,3.85q1.11,25.46,1.84,50.94c.07,2.46.46,3.46,3.23,3.36,3.78-.14,6,2,6,5.2s-2,5.18-5.94,5.14c-2.57,0-2.75,1-2.67,3.12.66,17.35,1.27,34.71,1.74,52.07.06,2.52.82,3.13,3.21,3.1,4,0,6,1.89,6,5.07s-2,5.15-5.92,5.3c-2.05.08-2.78.5-2.69,2.72.66,17.61,1.26,35.22,1.69,52.83.07,2.77,1.51,2.49,3.31,2.54,4.51.13,7.07,3.3,5.69,7-1,2.76-3.25,3.64-6,3.44-1.66-.12-2.45.17-2.37,2.18.6,15.23,1.08,30.47,1.61,45.7,0,.31,0,.81,1.06.66.95-.31.69-1.7.93-2.62A820.21,820.21,0,0,0,267.86,413c3.63-29,5.28-58.21,7.45-87.35a7,7,0,0,1,.08-1.12c.91-3.8.51-6.31-3.93-8.22-5.71-2.46-8.08-9.72-6.41-15.72a13.91,13.91,0,0,1,13.15-10.37c8-.12,16,0,24-.07,3.79-.05,5.85,1.62,6.38,5.31-.7,3.92-3.23,5.28-7,5.24-7.37-.07-14.75,0-22.12,0-2.47,0-4.22.79-4.32,3.51-.11,2.9,1.72,3.92,4.31,4,.88,0,1.75,0,2.63,0h37.12q28.3,0,56.62,0c2.85,0,5.64-.34,5.63-3.87s-2.9-3.71-5.7-3.68c-6,.07-12-.09-18,.06-3.9.1-6.53-1.25-7.51-5.19.78-4,3.13-5.54,7.19-5.4,6.62.21,13.25,0,19.87.06,7.41,0,12.84,4.34,14.33,11.23s-1.79,13.2-8.56,16c-2.1.88-2.32,2-2.17,3.91,2.1,27.15,3.6,54.34,6.61,81.42a836.33,836.33,0,0,0,20.4,111.46c1,4,2.46,5.27,6.41,4.88a91.44,91.44,0,0,1,11.23-.06c3.84.08,5.72,2,5.77,5.8.08,6.12.15,12.25,0,18.37-.07,2.41.75,2.87,3,2.86,14.37-.1,28.74-.06,43.12,0,5.43,0,7.09,1.69,7.11,7.17,0,5,0,10,0,15-.05,4.45-1.93,6.32-6.45,6.32-25,0-50,0-75,.06-3.91,0-6.1-1.6-6.91-5.32.83-4,3.36-5.3,7.32-5.28,22.37.1,44.74.06,67.11,0,1.11,0,2.91.81,3.26-.73a11.79,11.79,0,0,0,0-5.93c-.53-1.65-2.62-.76-4-.76q-163.08-.06-326.18,0H141c-.61,0-1.42,0-1.46.75-.09,2-.48,4.14.11,6,.52,1.64,2.62.75,4,.75q113.42.06,226.83,0C375.68,564,376.79,564.78,378.11,569.26ZM398.34,519c-.42-1.85-.73-3.42-1.13-5a783.05,783.05,0,0,1-21.27-120.79c-2.27-23.61-3.69-47.32-5.44-71-.16-2.09,0-3.73-3.09-3.71q-39.18.18-78.35,0c-2.12,0-2.87.64-2.84,2.7,0,1.61-.29,3.23-.41,4.85-1.58,21.17-2.81,42.38-4.79,63.52a786.56,786.56,0,0,1-22,125.58c-.83,3.18-.28,3.86,3,3.85q66.34-.17,132.71-.07Zm-70.21,27h2.62c28.87,0,57.75,0,86.62.06,2.69,0,3.81-.47,3.55-3.42a55.58,55.58,0,0,1,0-9.74c.25-2.86-.73-3.47-3.49-3.46q-89.25.12-178.5,0c-2.5,0-3.6.46-3.38,3.22a58.66,58.66,0,0,1,0,9.74c-.27,3.05.85,3.66,3.72,3.65C268.88,546,298.5,546,328.13,546ZM211.74,459.75c6,0,12-.18,18,.07,3.1.13,3.77-1,3.63-3.84-.41-8.46-.58-16.94-.85-25.41s-.62-17.19-.77-25.79c0-2.32-.89-3-3.1-2.94q-16.47.12-32.94,0c-2.24,0-3,.67-3.06,3q-.9,26-2.06,51.91c-.12,2.62.89,3.13,3.22,3.08C199.76,459.66,205.75,459.75,211.74,459.75Zm.11-68.38c5.12,0,10.25-.2,15.35.07,3.25.17,4-1,3.85-4-.65-16.44-1.12-32.89-1.67-49.34,0-.87-.31-1.73-.32-2.6,0-2-1.07-2.44-2.88-2.43-9.49.07-19,.09-28.46,0-2.15,0-2.76.76-2.8,2.82-.13,7-.46,14-.69,20.93-.35,10.6-.57,21.2-1.09,31.78-.11,2.33.59,2.85,2.61,2.83C201.12,391.33,206.48,391.37,211.85,391.37Zm.07-68.82c4.62,0,9.24-.1,13.86.05,2.29.07,3.12-.67,2.95-3-.33-4.47-.5-9-.67-13.45-.49-12.84-1-25.68-1.4-38.52-.06-1.87-.3-3-2.64-3-8.12.12-16.23.08-24.35,0-1.77,0-2.38.65-2.43,2.4q-.75,26.39-1.64,52.76c-.08,2.19.78,2.8,2.83,2.76C202.92,322.48,207.42,322.55,211.92,322.55Z" transform="translate(-128.98 -218.95)"/><path class="cls-2" d="M183.57,506.44c3.85-.15,5.45-2.19,5.57-6,.28-9.09.86-18.17,1.16-27.27.07-2.27.77-3,3-3q18.72.14,37.45,0c2.42,0,3.21.66,3.25,3.13.16,10.1.5,20.2.82,30.29.14,4.11.34,8.22.64,12.32.16,2.16-.37,3.09-2.81,3.11-6.24.05-7.62,1.6-7.63,7.79,0,5.37-.08,10.74,0,16.1,0,2.15-.43,3.12-2.86,3.09q-15.91-.16-31.83,0c-2.43,0-3.11-.92-2.79-3.08a103,103,0,0,0,.62-13.82c0-4.43-1-5.68-5.4-6.57A87.86,87.86,0,0,0,183.57,506.44Z" transform="translate(-128.98 -218.95)"/><path class="cls-3" d="M378.11,569.26c-1.32-4.48-2.43-5.26-7.61-5.26q-113.42,0-226.83,0c-1.36,0-3.46.89-4-.75-.59-1.81-.2-4-.11-6,0-.79.85-.74,1.46-.75h2.62q163.1,0,326.18,0c1.36,0,3.45-.89,4,.76a11.79,11.79,0,0,1,0,5.93c-.35,1.54-2.15.73-3.26.73-22.37,0-44.74.09-67.11,0-4,0-6.49,1.29-7.32,5.28Z" transform="translate(-128.98 -218.95)"/><path class="cls-4" d="M350.26,295.5c1,3.94,3.61,5.29,7.51,5.19,6-.15,12,0,18-.06,2.8,0,5.69.05,5.7,3.68s-2.78,3.87-5.63,3.87q-28.32,0-56.62,0H282.1c-.88,0-1.75,0-2.63,0-2.59-.08-4.42-1.1-4.31-4,.1-2.72,1.85-3.52,4.32-3.51,7.37,0,14.75,0,22.12,0,3.75,0,6.28-1.32,7-5.24l9.84,0c.69,3.87,3.2,5.28,6.91,5.2,3.34-.07,6.69-.13,10,0,3.88.17,6.43-1.33,7.41-5.19Z" transform="translate(-128.98 -218.95)"/><path class="cls-5" d="M359.61,219c3.71,0,6.46-.08,9.2,0,3.45.12,5.54,2.2,5.5,5.29s-2.15,5-5.63,5.19c-6.35.28-12.73-.58-19.05.61a30.48,30.48,0,0,0-24.95,28.34c0,.5,0,1-.07,1.5-.41,3.62-2.71,5.81-5.79,5.52s-4.68-2.5-4.68-6.09c0-17.69,12.85-34.24,30.11-38.87A52.37,52.37,0,0,1,359.61,219Z" transform="translate(-128.98 -218.95)"/><path class="cls-6" d="M371.63,237c5.62,0,11.24,0,16.86,0,3.87,0,6,1.87,6.12,5.06.1,3.37-2.11,5.4-6.14,5.42-10.61,0-21.23,0-31.85,0-8.32,0-12.94,4.12-14,12.36-.48,3.71-2.66,5.84-5.73,5.6s-4.82-2.57-4.74-6.41c.27-11.68,10.26-21.66,22.24-22,5.74-.17,11.49,0,17.24,0Z" transform="translate(-128.98 -218.95)"/><path class="cls-1" d="M406.24,229.5c-4.49,0-9,.06-13.46,0-3.75-.06-5.89-2.08-5.85-5.31s2.2-5.14,6-5.16q13.63-.07,27.29,0c3.75,0,5.89,2.07,5.85,5.3s-2.21,5.12-6,5.17C415.46,229.55,410.85,229.5,406.24,229.5Z" transform="translate(-128.98 -218.95)"/><path class="cls-7" d="M342.77,295.5c-1,3.86-3.53,5.36-7.41,5.19-3.34-.15-6.69-.09-10,0-3.71.08-6.22-1.33-6.91-5.2.51-4,2.81-5.52,6.7-5.35a99,99,0,0,0,10.48,0C339.65,289.86,342,291.53,342.77,295.5Z" transform="translate(-128.98 -218.95)"/><path class="cls-7" d="M416.24,247.46a33.51,33.51,0,0,1-5.21-.05c-2.95-.46-4.67-2.29-4.56-5.37a4.71,4.71,0,0,1,4.6-4.94,70.37,70.37,0,0,1,10.06,0,4.84,4.84,0,0,1,4.93,5,5,5,0,0,1-5,5.37c-1.6.13-3.23,0-4.84,0Z" transform="translate(-128.98 -218.95)"/><path class="cls-8" d="M398.34,519h-3.58q-66.36,0-132.71.07c-3.32,0-3.87-.67-3-3.85a786.56,786.56,0,0,0,22-125.58c2-21.14,3.21-42.35,4.79-63.52.12-1.62.43-3.24.41-4.85,0-2.06.72-2.71,2.84-2.7q39.17.1,78.35,0c3.11,0,2.93,1.62,3.09,3.71,1.75,23.66,3.17,47.37,5.44,71A783.05,783.05,0,0,0,397.21,514C397.61,515.58,397.92,517.15,398.34,519Zm-39.69-88.47a22.28,22.28,0,0,0-3.37,0c-2.87.45-4.24-.46-4.57-3.58-.28-2.57-1.93-4.81-3.06-7.16-1.32-2.74-5.77-3.67-5-7,.62-2.9,2.92-5.44,4.48-8.14.31-.53.63-1.07.9-1.63,1.64-3.37.83-6.2-2.6-7.73a40.45,40.45,0,0,0-34.39.07c-3.21,1.44-4.11,4.39-2.51,7.51a90.21,90.21,0,0,0,4.7,8.07c1.29,1.95,1.53,3.28-.65,4.89-2.53,1.86-5,4.52-5.31,7.49-.82,8-6,7.72-11.71,7.22-.62,0-1.24,0-1.87,0-4.81.08-6.91,2.3-6.3,7.06a40.49,40.49,0,0,0,16.48,28.27c3.68,2.75,6.54,2.1,9-1.93,1.55-2.56,3.12-5.11,4.46-7.78.93-1.84,2-2.1,3.84-1.41a20.36,20.36,0,0,0,14.64-.09c1.78-.67,2.67-.23,3.5,1.39,1.31,2.54,2.83,5,4.28,7.45,2.74,4.62,5.59,5.25,9.76,2a40.82,40.82,0,0,0,15.31-24.1c1.58-7.08,1.57-11.65-8.43-10.91C359.65,430.56,359.15,430.53,358.65,430.53Zm6.55-77.67c-.33-4.19-.7-9.78-1.21-15.35-.41-4.46-2.35-6.43-5.78-6.15s-5,2.86-4.65,7.49c.45,5.2.86,10.41,1.17,15.62.34,5.89,2.12,8.55,5.77,8.31S365.5,360,365.2,352.86Z" transform="translate(-128.98 -218.95)"/><path class="cls-9" d="M328.13,546c-29.63,0-59.25,0-88.88.06-2.87,0-4-.6-3.72-3.65a58.66,58.66,0,0,0,0-9.74c-.22-2.76.88-3.22,3.38-3.22q89.25.1,178.5,0c2.76,0,3.74.6,3.49,3.46a55.58,55.58,0,0,0,0,9.74c.26,3-.86,3.43-3.55,3.42-28.87-.1-57.75-.06-86.62-.06Z" transform="translate(-128.98 -218.95)"/><path class="cls-2" d="M211.74,459.75c-6,0-12-.09-18,0-2.33,0-3.34-.46-3.22-3.08q1.17-25.95,2.06-51.91c.08-2.3.82-3,3.06-3q16.47.14,32.94,0c2.21,0,3.06.62,3.1,2.94.15,8.6.5,17.2.77,25.79s.44,16.95.85,25.41c.14,2.85-.53,4-3.63,3.84C223.72,459.57,217.73,459.75,211.74,459.75Z" transform="translate(-128.98 -218.95)"/><path class="cls-10" d="M211.85,391.37c-5.37,0-10.73,0-16.1,0-2,0-2.72-.5-2.61-2.83.52-10.58.74-21.18,1.09-31.78.23-7,.56-13.95.69-20.93,0-2.06.65-2.84,2.8-2.82,9.48.1,19,.08,28.46,0,1.81,0,2.86.45,2.88,2.43,0,.87.29,1.73.32,2.6.55,16.45,1,32.9,1.67,49.34.12,3-.6,4.21-3.85,4C222.1,391.17,217,391.37,211.85,391.37Z" transform="translate(-128.98 -218.95)"/><path class="cls-2" d="M211.92,322.55c-4.5,0-9-.07-13.49,0-2.05,0-2.91-.57-2.83-2.76q.9-26.37,1.64-52.76c0-1.75.66-2.41,2.43-2.4,8.12.06,16.23.1,24.35,0,2.34,0,2.58,1.12,2.64,3,.42,12.84.91,25.68,1.4,38.52.17,4.49.34,9,.67,13.45.17,2.32-.66,3.06-2.95,3C221.16,322.45,216.54,322.55,211.92,322.55Z" transform="translate(-128.98 -218.95)"/><path class="cls-1" d="M358.65,430.53c.5,0,1,0,1.5,0,10-.74,10,3.83,8.43,10.91a40.82,40.82,0,0,1-15.31,24.1c-4.17,3.21-7,2.58-9.76-2-1.45-2.47-3-4.91-4.28-7.45-.83-1.62-1.72-2.06-3.5-1.39a20.36,20.36,0,0,1-14.64.09c-1.88-.69-2.91-.43-3.84,1.41-1.34,2.67-2.91,5.22-4.46,7.78-2.42,4-5.28,4.68-9,1.93a40.49,40.49,0,0,1-16.48-28.27c-.61-4.76,1.49-7,6.3-7.06.63,0,1.25,0,1.87,0,5.68.5,10.89.74,11.71-7.22.3-3,2.78-5.63,5.31-7.49,2.18-1.61,1.94-2.94.65-4.89a90.21,90.21,0,0,1-4.7-8.07c-1.6-3.12-.7-6.07,2.51-7.51a40.45,40.45,0,0,1,34.39-.07c3.43,1.53,4.24,4.36,2.6,7.73-.27.56-.59,1.1-.9,1.63-1.56,2.7-3.86,5.24-4.48,8.14-.73,3.36,3.72,4.29,5,7,1.13,2.35,2.78,4.59,3.06,7.16.33,3.12,1.7,4,4.57,3.58A22.28,22.28,0,0,1,358.65,430.53Zm-43,2A12.73,12.73,0,0,0,328,445.48a13.18,13.18,0,0,0,13.11-12.73c0-6.69-5.89-12.62-12.73-12.73A12.65,12.65,0,0,0,315.69,432.55Zm13-23.05c3.35,1.31,4.35-1.72,5.85-4.15,1-1.61.75-2.4-1.14-2.84a23.68,23.68,0,0,0-11,.19c-.85.2-1.27.43-1,1.47C322,407.17,324.91,409.5,328.7,409.5ZM353.85,441c-1.26.21-2.81-.46-4,.88-3.1,3.38-3.25,6.51-.68,10.44,1.06,1.63,1.82,1.31,2.75.09a34.44,34.44,0,0,0,4.68-7.56C358.08,441.16,358,441,353.85,441Zm-50.53,0c-4.61,0-4.87.45-3,4.44a30.94,30.94,0,0,0,4.63,7.13c.6.69,1.35,1.59,2,.4,1.1-2.1,3.71-4.06,2.39-6.59S307.48,440,303.32,441Z" transform="translate(-128.98 -218.95)"/><path class="cls-11" d="M365.2,352.86c.3,7.13-1.12,9.69-4.7,9.92s-5.43-2.42-5.77-8.31c-.31-5.21-.72-10.42-1.17-15.62-.39-4.63,1.16-7.21,4.65-7.49s5.37,1.69,5.78,6.15C364.5,343.08,364.87,348.67,365.2,352.86Z" transform="translate(-128.98 -218.95)"/><path class="cls-10" d="M315.69,432.55A12.65,12.65,0,0,1,328.39,420c6.84.11,12.76,6,12.73,12.73A13.18,13.18,0,0,1,328,445.48,12.73,12.73,0,0,1,315.69,432.55Z" transform="translate(-128.98 -218.95)"/><path class="cls-12" d="M328.7,409.5c-3.79,0-6.69-2.33-7.34-5.33-.23-1,.19-1.27,1-1.47a23.68,23.68,0,0,1,11-.19c1.89.44,2.14,1.23,1.14,2.84C333.05,407.78,332.05,410.81,328.7,409.5Z" transform="translate(-128.98 -218.95)"/><path class="cls-12" d="M353.85,441c4.15,0,4.23.16,2.71,3.85a34.44,34.44,0,0,1-4.68,7.56c-.93,1.22-1.69,1.54-2.75-.09-2.57-3.93-2.42-7.06.68-10.44C351,440.54,352.59,441.21,353.85,441Z" transform="translate(-128.98 -218.95)"/><path class="cls-12" d="M303.32,441c4.16-1.05,4.71,2.94,6,5.38s-1.29,4.49-2.39,6.59c-.62,1.19-1.37.29-2-.4a30.94,30.94,0,0,1-4.63-7.13C298.45,441.45,298.71,441,303.32,441Z" transform="translate(-128.98 -218.95)"/></svg>