<svg id="Layer_1" data-name="Layer 1" xmlns="http://www.w3.org/2000/svg" viewBox="0 0 512 512"><defs><style>.cls-1{fill:#020303;}.cls-2{fill:#96c8e6;}.cls-3{fill:#b9e96b;}.cls-4{fill:#5fb4fc;}.cls-5{fill:#b8e86b;}.cls-6{fill:#48c85b;}.cls-7{fill:#07af28;}.cls-8{fill:#95d429;}.cls-9{fill:#48c95b;}.cls-10{fill:#46c659;}</style></defs><title>environment</title><path class="cls-1" d="M51,458V420c2.4-4.48,1.62-9.57,2.68-14.31,1.28-5.74,4.24-8.48,9-7.57s6.69,4.37,5.75,10.31a194.88,194.88,0,0,0,.86,66.63A199.16,199.16,0,0,0,304.32,634c87.75-17.36,154.53-93.6,159.56-182.31,2.67-47-9.45-89.88-36.68-128.38a194.8,194.8,0,0,0-43.12-44.13c-1.27-.95-2.34-2.91-4.6-1-6.33,5.26-12.83,10.31-19.41,15.57,1.26.9,2.35,1.64,3.41,2.43,57.63,42.83,83,99.84,72.44,171C422.63,556.71,338.08,620.84,248,611.26c-6.33-.68-7.55-1.85-8.51-8.19,1.94-6,4-7.39,10.19-6.69a101.75,101.75,0,0,0,18.3.49,149.64,149.64,0,0,0,80.75-23.76c43.43-27.61,68.1-67.36,73.91-118.47a141.87,141.87,0,0,0-3.07-50c-11.79,6.61-23.2,13.06-31.94,23.21a30.47,30.47,0,0,0-7.61,18,77.49,77.49,0,0,0,1.62,23.35c4.44,18.49-.43,34.48-12,49A101.35,101.35,0,0,1,348,538l-1.3.9-.09-.08c-3.84,1.56-7.59,3.43-11.54,4.61-15.84,4.73-28.11-1.87-33.13-17.6a77.86,77.86,0,0,1-3-16.65c-1.63-17.47-.51-35-.94-52.46a100.47,100.47,0,0,0-2.48-21.78c-1.11-4.53-3.37-6.46-8.61-5.59-13.61,2.27-27.19,5-41.12,4.73-27.42-.51-46.91-22.53-44.29-49.86,1.67-17.37,10.79-30.4,23.27-41.63l4.45-4a131.7,131.7,0,0,1-60.32-22c-2.24-1.5-3.5-.63-5.1.72a159,159,0,0,0-43.35,57.23c-.58,1.29-1.57,2.56-.37,4.13,8.71,11.45,13.92,25,21.57,37a16.93,16.93,0,0,0,10,7.64c5.88,1.76,11.8,3.46,17.27,6.38,10.18,5.43,14.15,14.28,11.43,25.49-1.9,7.81-5.35,15-8.74,22.23-3.46,7.37-7.22,14.59-10.05,22.25a14,14,0,0,0,1.21,13.13c9.46,15.95,12.86,33.41,10.9,51.82-.28,2.61.34,3.87,2.37,5.23a152,152,0,0,0,27.59,14.94c4.92,2,7.23,5,6.36,10.32-4,5.5-6.08,6.35-11.65,3.81C134.56,569.72,98,520.38,92.48,450.5c-4.41-56.37,16.38-103.9,58.37-142,1-.92,2.51-1.54,2.68-3.14-29.27-24.76-51.15-55-68.55-88.82-2.34-4.54-1.61-8.19,2.18-11.54q9.75-8.59,20.26-16.23c27-19.6,55.84-35.32,88.45-43.5,6.66-1.68,13.67-1.72,20.13-4.3h28c.32.31.61.86.95.89,28.09,2.94,51.55,15.9,73,33.34,4.18,3.39,5.24,7,2.88,11.67-5.59,4.19-7.33,4.2-12.64-.18-14.75-12.18-30.84-21.91-49.48-27a94.16,94.16,0,0,0-26.21-3.63c2.93,3.84,5.2,6.84,7.48,9.83.47.7.63,1.93,2,1.14l-.07-.05c-.9,2.24,1.13,3.25,2.09,4.57,13.7,18.82,28.38,37,40.92,56.55,8.43,13.13,18.8,20.11,34.06,20.41l45.42,9c0-2.71-1.28-4.09-2.19-5.62a312.67,312.67,0,0,0-22.29-32.44c-4.85-6.2-4.87-7.3-.41-13.51,5.1-2.16,8.65-.46,12,3.85,8.74,11.36,17.44,22.8,24.1,35.46,5.63,10.68,12.61,19.56,22.87,26.1,4.86,3.09,9,7.43,13.24,11.39,4.09,3.77,8,7.78,12.25,12-.87-6.12-1.86-11.68-2.41-17.29-2.64-26.83,2.86-51.38,21.18-72,23-25.82,52.88-39.58,85.45-48.6,4.58-1.27,7.64.73,9.83,4.71a205.9,205.9,0,0,1,21,54.18c1.57,7,2.71,14.13,4,21.2v20c-1.39.33-1,1.52-1.12,2.42C559.24,280.36,550,298,535,312.65c-19.59,19.17-43.4,31-69.12,39.29-3.52,1.14-4.16,2.14-2.73,5.68,21.88,54.24,22.47,109-.29,162.67-30.65,72.32-85.91,115.17-163,129.91-5.59,1.07-11.42.62-16.81,2.8H247c-.43-1.31-1.59-.9-2.49-1-7.24-1.08-14.53-1.86-21.7-3.26C138.66,632.21,71.18,564.36,54.94,480.22,53.51,472.83,53.46,465.2,51,458ZM476,314.94c-.84.43-.92,1.21-.93,2-2.76,5.86-6,11.52-7,18.07l-.48.32c.09,0,.23,0,.27,0A1.25,1.25,0,0,0,468,335a7.49,7.49,0,0,0,2-.21c18.48-7,35.82-16,50.71-29.16,12.64-11.19,21.7-24.65,25.15-41.45.32-1.56,1.2-3.6-.21-4.71-1.18-.93-2.82.42-4.15,1-11.82,4.88-23.61,9.83-35.41,14.76-4.59,1.86-9.17,3.77-13.79,5.56-1.59.62-3,1.23-3.67,3-4.09,10.46-9.13,20.54-12.66,31.23Zm35.14-58.52c11.24-4.53,22.46-9.1,33.73-13.56,2.18-.87,2.37-2.38,2.31-4.35a104.65,104.65,0,0,0-3.26-21.13,169,169,0,0,0-12.72-35.76c-7.39,18-14.38,35-21.36,52.07-4,9.17-7.95,18.34-12.5,28.84Zm-14.25-71.93a135.05,135.05,0,0,0-32.78,20.7c-2.28,1.93-2.61,3.62-1.43,6.42,6.23,14.69,12.21,29.47,18.31,44.22a36.2,36.2,0,0,0,1.77,3.24l21.72-52.72,13.18-30.74C509.75,178.74,503.05,181,496.87,184.49ZM327.19,265.9c-10.1-2-20.21-4-30.28-6.12-2.73-.59-4.42.86-6.28,2.23L240.3,298.94q-14,10.28-28.05,20.56c1.59,1.86,3.43,1.61,5,2A84.79,84.79,0,0,0,234,323.59c11.91,1.16,23.6-.52,35.11-3.22,34.22-8,63.85-25.2,91.52-46.23a1.42,1.42,0,0,0,.55-2Zm-1.25,49c-1.66.73-3.37,1.38-5,2.21-16.19,8.35-33,15.54-51,18.14-12.29,1.78-21.52,8-30.78,14.94-8.37,6.26-15.38,13.78-19.72,23.46-10.15,22.67,4.5,45.49,29.1,45.33,12-.08,23.91-2.18,35.64-4.43,15.22-2.92,22.86,5.54,25.9,17,2.33,8.77,2.88,17.73,3,26.73.1,12.67-.08,25.34.18,38,.17,8.31.57,16.68,2.93,24.74s6.88,10.3,14.81,8a35.94,35.94,0,0,0,5.11-2c23.35-11,34.52-32.4,30.34-57.68-3.33-20.09-2.53-39.3,12.85-55.06A156.55,156.55,0,0,1,405,395.61c10.93-6.43,11-6.55,5.92-18.41a158.21,158.21,0,0,0-61.79-72.48c-1.74-1.11-3.16-2-5.35-.59C337.94,307.88,331.91,311.36,325.94,314.94Zm-212.7,80.45c-16.94,53.87,1.22,122.77,45.42,159.91,1.25-10.38-2.47-24.54-10.1-37.26a22.53,22.53,0,0,1-2.84-17.22c2.25-10.21,7.25-19.25,11.63-28.57a153.24,153.24,0,0,0,8.22-19.78c1.5-4.84.09-8.18-4.58-10a81.17,81.17,0,0,0-11.25-4c-10.87-2.52-18.19-9.1-23.23-18.8C122.38,411.67,117.91,403.89,113.24,395.39ZM274.36,255.31c-20.46-3.95-39.85-7.67-59.21-11.48a7,7,0,0,0-6,1.52q-25.9,19.1-51.93,38c-2.72,2-2.51,3.14-.17,5.17a180.52,180.52,0,0,0,25.21,18.72c11.62,6.93,11.59,7,22.26-.81.27-.19.55-.37.82-.57Zm.5-15.27a11,11,0,0,0-.79-1.85q-28.92-39.48-57.81-79c-1.28-1.74-2.5-2.1-4.6-1.77a177.69,177.69,0,0,0-35.5,9.83c-2.73,1.05-3.21,1.8-1.31,4.36Q195.09,198.91,215,226.4a7.15,7.15,0,0,0,4.88,3c7.19,1.32,14.34,2.86,21.52,4.25C252.43,235.78,263.46,237.86,274.86,240Zm175.28-19.4c-23.35,28.81-14.18,78.6,2.77,109.4,4.72-11.22,8.5-22.68,14.19-33.12,6.72-12.35,6.57-23.36.09-35.82C460.57,248.36,455.92,234.6,450.14,220.64Zm-258,18.63-86.58-16.82c1.18,2.27,1.79,3.61,2.54,4.86a293.61,293.61,0,0,0,27.69,39c7.44,8.8,7.45,8.79,16.52,2.13.54-.4,1.09-.78,1.62-1.17Zm1.8-15a6.78,6.78,0,0,0-.48-1.95c-11-15-22-30-32.94-45.11-1.66-2.3-3.12-1.54-5-.58a259.28,259.28,0,0,0-27.92,16.41A171.71,171.71,0,0,0,108,207.61Z" transform="translate(-51 -141)"/><path class="cls-2" d="M239.52,603.07c-10-2.25-20-4.1-29.55-8.05.87-5.29-1.44-8.32-6.36-10.32A152,152,0,0,1,176,569.76c-2-1.36-2.65-2.62-2.37-5.23,2-18.41-1.44-35.87-10.9-51.82a14,14,0,0,1-1.21-13.13c2.83-7.66,6.59-14.88,10.05-22.25,3.39-7.22,6.84-14.42,8.74-22.23,2.72-11.21-1.25-20.06-11.43-25.49-5.47-2.92-11.39-4.62-17.27-6.38a16.93,16.93,0,0,1-10-7.64c-7.65-12.08-12.86-25.59-21.57-37-1.2-1.57-.21-2.84.37-4.13a159,159,0,0,1,43.35-57.23c1.6-1.35,2.86-2.22,5.1-.72a131.7,131.7,0,0,0,60.32,22l-4.45,4c-12.48,11.23-21.6,24.26-23.27,41.63-2.62,27.33,16.87,49.35,44.29,49.86,13.93.26,27.51-2.46,41.12-4.73,5.24-.87,7.5,1.06,8.61,5.59A100.47,100.47,0,0,1,298,456.68c.43,17.49-.69,35,.94,52.46a77.86,77.86,0,0,0,3,16.65c5,15.73,17.29,22.33,33.13,17.6,3.95-1.18,7.7-3,11.54-4.61a2.67,2.67,0,0,1-.67,2.74c-11.59,15.21-25.82,27.47-41.77,37.89-11.32,7.4-23.7,12.52-36.19,17.46a101.75,101.75,0,0,1-18.3-.49C243.55,595.68,241.46,597.12,239.52,603.07Z" transform="translate(-51 -141)"/><path class="cls-3" d="M379.26,414.3c-15.38,15.76-16.18,35-12.85,55.06,4.18,25.28-7,46.7-30.34,57.68a35.94,35.94,0,0,1-5.11,2c-7.93,2.3-12.5-.09-14.81-8s-2.76-16.43-2.93-24.74c-.26-12.66-.08-25.33-.18-38-.07-9-.62-18-3-26.73-3-11.41-10.68-19.87-25.9-17-11.73,2.25-23.6,4.35-35.64,4.43-24.6.16-39.25-22.66-29.1-45.33,4.34-9.68,11.35-17.2,19.72-23.46,9.26-6.93,18.49-13.16,30.78-14.94,18-2.6,34.81-9.79,51-18.14,1.62-.83,3.33-1.48,5-2.21,9.07,7.67,16.71,16.69,23.64,26.25C365.45,363.09,375.82,387.31,379.26,414.3Z" transform="translate(-51 -141)"/><path class="cls-4" d="M268,596.87c12.49-4.94,24.87-10.06,36.19-17.46C320.15,569,334.38,556.73,346,541.52a2.67,2.67,0,0,0,.67-2.74l.09.08,1.3-.9a101.35,101.35,0,0,0,21.65-19.75c11.56-14.51,16.43-30.5,12-49a77.49,77.49,0,0,1-1.62-23.35,30.47,30.47,0,0,1,7.61-18c8.74-10.15,20.15-16.6,31.94-23.21a141.87,141.87,0,0,1,3.07,50c-5.81,51.11-30.48,90.86-73.91,118.47A149.64,149.64,0,0,1,268,596.87Z" transform="translate(-51 -141)"/><path class="cls-5" d="M113.24,395.39c4.67,8.5,9.14,16.28,13.27,24.23,5,9.7,12.36,16.28,23.23,18.8a81.17,81.17,0,0,1,11.25,4c4.67,1.84,6.08,5.18,4.58,10a153.24,153.24,0,0,1-8.22,19.78c-4.38,9.32-9.38,18.36-11.63,28.57A22.53,22.53,0,0,0,148.56,518c7.63,12.72,11.35,26.88,10.1,37.26C114.46,518.16,96.3,449.26,113.24,395.39Z" transform="translate(-51 -141)"/><path class="cls-6" d="M274.36,255.31l-69,50.6c-.27.2-.55.38-.82.57-10.67,7.79-10.64,7.74-22.26.81a180.52,180.52,0,0,1-25.21-18.72c-2.34-2-2.55-3.21.17-5.17q26.07-18.9,51.93-38a7,7,0,0,1,6-1.52C234.51,247.64,253.9,251.36,274.36,255.31Z" transform="translate(-51 -141)"/><path class="cls-7" d="M320.87,186.9c6.57,6,13.18,12,18.63,19.1-4.45,6.21-4.43,7.31.42,13.51A312.67,312.67,0,0,1,362.21,252c.91,1.53,2.21,2.91,2.19,5.62l-45.42-9c.16-2-.93-3.47-1.93-5-14.44-22-30.46-42.69-50.78-59.65-7.58-6.33-15-13.08-24.36-16.88l.07.05c-.34-.92-1.14-1.05-2-1.14-2.28-3-4.55-6-7.48-9.83a94.16,94.16,0,0,1,26.21,3.63c18.64,5.06,34.73,14.79,49.48,27C313.54,191.1,315.28,191.09,320.87,186.9Z" transform="translate(-51 -141)"/><path class="cls-8" d="M379.26,414.3c-3.44-27-13.81-51.21-29.68-73.11-6.93-9.56-14.57-18.58-23.64-26.25,6-3.58,12-7.06,17.86-10.81,2.19-1.4,3.61-.52,5.35.59a158.21,158.21,0,0,1,61.79,72.48c5.11,11.86,5,12-5.92,18.41A156.55,156.55,0,0,0,379.26,414.3Z" transform="translate(-51 -141)"/><path class="cls-6" d="M274.86,240c-11.4-2.18-22.43-4.26-33.45-6.4-7.18-1.39-14.33-2.93-21.52-4.25a7.15,7.15,0,0,1-4.88-3Q195,199,174.85,171.64c-1.9-2.56-1.42-3.31,1.31-4.36a177.69,177.69,0,0,1,35.5-9.83c2.1-.33,3.32,0,4.6,1.77q28.85,39.53,57.81,79A11,11,0,0,1,274.86,240Z" transform="translate(-51 -141)"/><path class="cls-9" d="M234,323.59a84.79,84.79,0,0,1-16.79-2.12c-1.55-.36-3.39-.11-5-2q14.08-10.32,28.05-20.56L290.63,262c1.86-1.37,3.55-2.82,6.28-2.23,10.07,2.14,20.18,4.1,30.28,6.12-2.78,3.8-6.47,6.61-10.06,9.56C292.07,296.09,265,313.11,234,323.59Z" transform="translate(-51 -141)"/><path class="cls-6" d="M450.14,220.64c5.78,14,10.43,27.72,17.05,40.46,6.48,12.46,6.63,23.47-.09,35.82-5.69,10.44-9.47,21.9-14.19,33.12C436,299.24,426.79,249.45,450.14,220.64Z" transform="translate(-51 -141)"/><path class="cls-7" d="M468,335c1-6.55,4.26-12.21,7-18.07a2,2,0,0,0,.93-2l-.06,0c1.73.29,2.74-1,3.87-1.89A82.25,82.25,0,0,0,496.47,295c4.27-6,8.42-12.21,9.57-19.79,11.8-4.93,23.59-9.88,35.41-14.76,1.33-.55,3-1.9,4.15-1,1.41,1.11.53,3.15.21,4.71-3.45,16.8-12.51,30.26-25.15,41.45-14.89,13.17-32.23,22.19-50.71,29.16a7.49,7.49,0,0,1-2,.21Z" transform="translate(-51 -141)"/><path class="cls-6" d="M192.11,239.27l-38.21,28c-.53.39-1.08.77-1.62,1.17-9.07,6.66-9.08,6.67-16.52-2.13a293.61,293.61,0,0,1-27.69-39c-.75-1.25-1.36-2.59-2.54-4.86Z" transform="translate(-51 -141)"/><path class="cls-7" d="M234,323.59c30.93-10.48,58-27.5,83.11-48.13,3.59-2.95,7.28-5.76,10.06-9.56l34,6.23a1.42,1.42,0,0,1-.55,2c-27.67,21-57.3,38.23-91.52,46.23C257.62,323.07,245.93,324.75,234,323.59Z" transform="translate(-51 -141)"/><path class="cls-6" d="M193.91,224.31,108,207.61a171.71,171.71,0,0,1,19.52-14.53,259.28,259.28,0,0,1,27.92-16.41c1.91-1,3.37-1.72,5,.58,10.93,15.08,22,30.07,32.94,45.11A6.78,6.78,0,0,1,193.91,224.31Z" transform="translate(-51 -141)"/><path class="cls-6" d="M504.46,206.35l-21.72,52.72a36.2,36.2,0,0,1-1.77-3.24c-6.1-14.75-12.08-29.53-18.31-44.22-1.18-2.8-.85-4.49,1.43-6.42a135.05,135.05,0,0,1,32.78-20.7C499.45,191.76,503.08,198.66,504.46,206.35Z" transform="translate(-51 -141)"/><path class="cls-7" d="M509.82,233.69c7-17,14-34.05,21.36-52.07a169,169,0,0,1,12.72,35.76,104.65,104.65,0,0,1,3.26,21.13c.06,2-.13,3.48-2.31,4.35-11.27,4.46-22.49,9-33.73,13.56,0-3.44.12-6.88-.15-10.29C510.64,242,512.18,237.64,509.82,233.69Z" transform="translate(-51 -141)"/><path class="cls-6" d="M241.91,167c9.38,3.8,16.78,10.55,24.36,16.88,20.32,17,36.34,37.65,50.78,59.65,1,1.53,2.09,3,1.93,5-15.26-.3-25.63-7.28-34.06-20.41-12.54-19.55-27.22-37.73-40.92-56.55C243,170.29,241,169.28,241.91,167Z" transform="translate(-51 -141)"/><path class="cls-10" d="M506,275.18c-1.15,7.58-5.3,13.75-9.57,19.79a82.25,82.25,0,0,1-16.68,18.11c-1.13.87-2.14,2.18-3.87,1.89,3.53-10.69,8.57-20.77,12.66-31.23.69-1.77,2.08-2.38,3.67-3C496.87,279,501.45,277,506,275.18Z" transform="translate(-51 -141)"/><path class="cls-7" d="M504.46,206.35c-1.38-7.69-5-14.59-7.59-21.86,6.18-3.53,12.88-5.75,20.77-8.88Z" transform="translate(-51 -141)"/><path class="cls-10" d="M509.82,233.69c2.36,3.95.82,8.29,1.15,12.44.27,3.41.12,6.85.15,10.29l-13.8,6.11C501.87,252,505.85,242.86,509.82,233.69Z" transform="translate(-51 -141)"/><path class="cls-6" d="M240,166c.82.09,1.62.22,2,1.14C240.65,167.88,240.49,166.65,240,166Z" transform="translate(-51 -141)"/><path class="cls-10" d="M476,314.94a2,2,0,0,1-.93,2C475.06,316.15,475.14,315.37,476,314.94Z" transform="translate(-51 -141)"/><path class="cls-7" d="M468,335a1.25,1.25,0,0,1-.16.35c0,.05-.18,0-.27,0L468,335Z" transform="translate(-51 -141)"/><path class="cls-2" d="M348,538l-1.3.9Z" transform="translate(-51 -141)"/></svg>