<svg id="Layer_1" data-name="Layer 1" xmlns="http://www.w3.org/2000/svg" viewBox="0 0 452.06 512"><defs><style>.cls-1{fill:#040304;}.cls-2{fill:#030303;}.cls-3{fill:#5691d6;}.cls-4{fill:#dcf4fd;}.cls-5{fill:#8bb9f8;}.cls-6{fill:#fddfd5;}.cls-7{fill:#ea5074;}.cls-8{fill:#f8cdbc;}.cls-9{fill:#b5355c;}.cls-10{fill:#aad6e6;}.cls-11{fill:#c6e4f4;}.cls-12{fill:#8dc3cf;}.cls-13{fill:#abd6e7;}.cls-14{fill:#c4e2f2;}</style></defs><title>fashion</title><path class="cls-1" d="M355,511.2c5.87,3.6,11.56,1.94,17-.91,8-4.2,13.93-10.76,19.41-17.73,13.26-16.85,22.79-35.86,31.75-55.2,5.95-12.85,12.49-25.37,21.83-36.18,10.48-12.14,23.37-19.33,39.69-20.29,11.32-.66,19.61,4.22,26.11,12.8C519.38,405,522.85,418.3,525,432.08c3.24,20.44.3,39.75-9.82,57.9a77.07,77.07,0,0,0-9.58,42.7c.65,12.13.16,24.32.12,36.48,0,11.17-5,16.25-16.08,16.41-2.83,0-5.67.09-8.5,0-9.81-.35-14.95-5.59-15-15.46-.09-19-.06-38-.1-57,0-6.17-.39-12.31-.9-18.46-.34-4.24-1.8-4.16-4.85-2.43-10.85,6.16-20,14.37-28.41,23.43-16,17.23-29.2,36.23-37.06,58.62-2.53,7.23-7.73,11.19-15.41,11.19-3.49,0-4,1.12-3.63,4.33,1.17,9.08,1.76,18.24,3,27.31.78,5.76-.86,9.71-5.73,13.15A119,119,0,0,1,316,652c-.78.09-1.69-.14-2,1H285c-.3-1.06-1.21-.92-2-1a243.65,243.65,0,0,1-39.39-8.7c-22-6.64-43.13-15.49-64.65-23.33-29.08-10.6-58.48-19.26-90-16.77-5.37.42-8.39-3.42-7.82-9.12s1.3-11.58,2.11-17.35a1097.44,1097.44,0,0,1,24.69-125.22c9-34.24,18.46-68.32,34.24-100.24.91-1.85.63-3.42.22-5.26-3.74-16.71-7.55-33.4-11-50.17-3.68-17.74-8.07-35.37-9.34-53.53-.45-6.41.78-8,7-10.23,6.4,1.88,7.54,3.45,8.05,10.16.31,4.14.81,8.28,1.5,12.37,4.7,27.7,11.41,55,17.21,82.46.79,3.75,2.16,4.7,5.83,4.69,38.63-.13,77.26-.08,115.89-.1,1.48,0,3-.21,4.45-.32,4.64.12,9.3.08,13.93.41,3,.21,3.92-.93,4.51-3.77,2.59-12.52,5.62-25,8.24-37.48,3.89-18.53,8.89-36.91,10.39-55.84,2.23-28.26,1.06-56.58.35-84.87-.08-3-.81-4.29-3.92-3.81a12.42,12.42,0,0,1-4,0c-4-.67-5,1.06-4.81,4.88.87,16.69-1.37,32.84-9,48-.88,1.4-1.78,2.79-2.63,4.2a78.11,78.11,0,0,1-128.12,8.5c-13.42-16.67-18-35.92-17.14-56.95.37-8.63.06-8.43-8.49-8.65-3.62-.1-4.33,1.07-4.35,4.45-.12,16-.62,32-.77,48,0,5.16-2.19,8.16-7.22,9.13-6.06-1.37-7.91-3.46-7.82-9.53.24-16.61.86-33.23.8-49.84,0-7.63,2-13.51,9.08-17.09h25c7,3.6,9.29,9.48,8.95,17.14a134.55,134.55,0,0,0,.37,22.45,63.38,63.38,0,0,0,58,55.28c30,2.19,57.45-17.33,65.81-46.55,3-10.61,2.82-21.43,2.46-32.21-.26-7.66,2.35-13,9.41-16.11h24c6.86,3.11,9.13,8.44,9.35,15.9.68,23.64.73,47.27.69,70.91-.05,25.52-6.33,50.05-11.55,74.75-2.95,14-6.16,27.89-9.23,41.84a7.44,7.44,0,0,0,.29,5.32c14.93,29.68,24.08,61.41,32.72,93.3,2.82,10.42,5.33,20.91,7.92,31.39,1.62,6.58.82,8.28-5.16,11.65-6.74-.69-7.95-2-9.92-10.21-8.46-35.43-18-70.54-31.85-104.3-6.5-15.8-6.63-15.75-23.77-14.69a2.68,2.68,0,0,0-.49.11c-3.66-.09-7.33,0-11-.33s-4.45,1-3.77,4.53c3.37,17.33,5.31,34.87,7.58,52.37.78,6-1.87,9.94-6.61,10.39-4.51.43-7.57-2.77-8.31-8.57-2.35-18.33-4.62-36.66-7.85-54.87-.51-2.86-1.48-3.9-4.45-3.86-13.49.14-27,.11-40.49,0-2.44,0-3.67.7-4,3.2-.59,4.29-1.5,8.53-2.1,12.81q-3.06,22-6,44c-.53,3.94-2.63,6.54-6.54,7.13-3.73.56-6.41-1.26-7.94-4.7-1-2.27-.45-4.59-.15-6.89,2.24-17.33,4.24-34.7,7.53-51.88.55-2.86-.25-3.78-3.22-3.72-9,.17-18,.19-27,0-2.84-.06-4.1,1.1-5.26,3.44a235.19,235.19,0,0,0-10.53,24.76c-23.25,64.81-37.21,131.78-46.56,199.83-.41,3,.65,3.3,3.1,3.26,24.67-.42,48.1,5.76,71.22,13.55,26.29,8.86,51.7,20.23,78.36,28.06,21.54,6.32,43.33,10.7,66,7.3a2.44,2.44,0,0,0,2.41-.59l.31.07.26-.2c15.9-1.51,30-7.79,43.1-16.57a3.15,3.15,0,0,0,1.5-3.35q-1.5-13.59-2.86-27.21c-.24-2.36-1.22-3.45-3.81-3.37-7.28.22-14.58.22-21.87.31-1.82-.1-3.64-.29-5.46-.29-22.46,0-44.92,0-67.39-.05-11.36,0-16.64-6.18-15.56-17.5,3-31.51,18.9-54.26,46.57-69.18,8.67-4.67,18.08-7.34,27.22-10.73,12.07-3.61,19.43,1.22,24,12.5C346.34,505.27,349.75,509.43,355,511.2Zm127.82,59.09c8,1,8,1,8-6.55,0-10.33-.08-20.66,0-31,.07-7.15-.43-14.3.73-21.44,1.8-11,6.6-20.94,11.59-30.7a70.27,70.27,0,0,0,7.76-40.09c-1.27-12.33-3.51-24.42-10.32-35.09-2.78-4.34-5.86-8.57-11.68-9.19-15.71-1.43-26.59,6.65-35.52,18.3C446.17,424,441,434.61,436,445.35c-7.82,16.94-16.25,33.55-27,48.85-7.62,10.81-16,20.91-27.48,27.95-9.39,5.78-19.35,7.93-30.05,4.21C341.17,522.79,334.81,515,330,505.77c-1.41-2.73-2.84-3.53-5.79-2.72-11.79,3.24-23.07,7.61-33.13,14.69-16.68,11.75-26.46,27.7-29.22,48-.51,3.79.55,4.83,4.38,4.82q55-.21,110,0c2.93,0,4.38-.85,5.45-3.7,11-29.15,29.2-53.27,52.24-73.9,7.82-7,16.19-13.4,26.31-16.9,10.91-3.78,15.86-1.09,18.56,10.16A85.79,85.79,0,0,1,481,506c.08,20,.08,40,.24,60C481.25,567.43,479.83,569.8,482.83,570.29Z" transform="translate(-81.06 -141)"/><path class="cls-2" d="M365,225.21c-3.14-2.55-4.65-5.62-3-9.65,2.6-6.51,4.81-13.42,13.22-14.66a33.17,33.17,0,0,1,5-.23c38,0,76,.11,114-.1,8.46,0,13.71,3.23,16.9,11.05,6.58,16.15,13.47,32.17,20.4,48.17,3,6.91,1.9,12.72-3.12,18.33q-39.69,44.29-79.19,88.77c-7.67,8.61-16,8.61-23.8-.09q-39.6-44.37-79.17-88.78c-5-5.62-6.24-11.47-3.07-18.32,2-4.37,3.84-8.83,5.75-13.25,2.72-6.28,4.12-7.09,11.12-6.4,7.35,5,2.95,11,.74,17,12.93,0,25.23-.09,37.52.07,2.67,0,2.8-1.32,3.07-3.26,1.55-11.18,2.9-22.41,5-33.5.85-4.58-.81-4.84-4.39-4.72-6.31.2-12.64.26-18.95,0-3.47-.15-5.32.86-6.63,4.22C374,225.8,371.24,226.88,365,225.21Zm91.05,110.86a21.48,21.48,0,0,0,2.2-1.94q26.1-29.26,52.15-58.56c.82-.93,1.59-1.91,2.95-3.53-12.9,0-24.83,0-36.76,0-1.54,0-2.42.41-2.77,2.09-.45,2.1-1.31,4.11-1.85,6.2-1.3,5.07-4.31,7.73-9.73,7.16-5.43-3-6.22-5.16-4.74-11.42.31-1.29,2.59-3.9-1-3.94-13.4-.15-26.8-.06-40.67-.06l21.48,70.87c3.77-12.33,7.05-23.3,10.48-34.22,1.71-5.47,4.24-6.88,10.14-6.13,4.51,2.48,5.57,6.14,4.06,11-2.3,7.29-4.37,14.64-6.54,22,0,.42-.25,1.12-.1,1.21C455.9,337,455.94,336.44,456.06,336.07Zm-18.84-79c5.66,0,11.34-.25,17,.09,3.83.23,4.31-1.19,3.79-4.5-1.76-11-3.49-22-4.8-33.06-.41-3.41-1.73-4-4.71-3.94-7.49.17-15,.25-22.47,0-3.26-.13-4.23,1.11-4.62,4.06q-2.33,17.29-5,34.54c-.35,2.27.11,2.92,2.37,2.88C424.91,257,431.07,257,437.22,257ZM514,257c-5.75-13.49-11.26-26.25-16.58-39.09-.95-2.3-2.47-2.27-4.33-2.27-7.15,0-14.31.18-21.45-.07-3.3-.11-3.9,1-3.43,4,1.76,11.32,3.36,22.67,4.93,34,.31,2.29.93,3.49,3.64,3.46C488.86,257,501,257,514,257ZM361,272l57.83,65a7.9,7.9,0,0,0,.13-2.27q-9.06-30.31-18.16-60.61A2.58,2.58,0,0,0,398,272C386,272.06,374.11,272,361,272Z" transform="translate(-81.06 -141)"/><path class="cls-3" d="M284,357a2.68,2.68,0,0,1,.49-.11c17.14-1.06,17.27-1.11,23.77,14.69,13.89,33.76,23.39,68.87,31.85,104.3,2,8.24,3.18,9.52,9.92,10.21,1.86,8.34,4.07,16.61,5,25.14-5.26-1.77-8.67-5.93-10.56-10.55-4.61-11.28-12-16.11-24-12.5a2.48,2.48,0,0,1-1.33-2c-2.18-14.07-5.58-27.89-8.83-41.73C303.29,414.76,295.29,385.37,284,357Z" transform="translate(-81.06 -141)"/><path class="cls-4" d="M365,225.21c6.23,1.67,9,.59,11.29-5.4,1.31-3.36,3.16-4.37,6.63-4.22,6.31.29,12.64.23,18.95,0,3.58-.12,5.24.14,4.39,4.72-2.06,11.09-3.41,22.32-5,33.5-.27,1.94-.4,3.29-3.07,3.26-12.29-.16-24.59-.07-37.52-.07,2.21-6,6.61-11.95-.74-17C360.45,234.7,364.59,230.58,365,225.21Z" transform="translate(-81.06 -141)"/><path class="cls-5" d="M284,357c11.29,28.4,19.29,57.79,26.26,87.48,3.25,13.84,6.65,27.66,8.83,41.73a2.48,2.48,0,0,0,1.33,2c-9.15,3.39-18.56,6.06-27.23,10.73-27.67,14.92-43.58,37.67-46.57,69.18-1.08,11.32,4.2,17.45,15.56,17.5,22.47.1,44.93,0,67.39.05,1.82,0,3.64.19,5.46.29.76,9.18.93,18.46,2.5,27.49,1.11,6.35-.56,10.29-5.66,13.78-4.31,3-9.23,5.06-12.9,8.92l-.26.2-.31-.07a1.94,1.94,0,0,0-2.41.59c-22.63,3.4-44.42-1-66-7.3-26.66-7.83-52.07-19.2-78.36-28.06-23.12-7.79-46.55-14-71.22-13.55-2.45,0-3.51-.27-3.1-3.26,9.35-68,23.31-135,46.56-199.83a235.19,235.19,0,0,1,10.53-24.76c1.16-2.34,2.42-3.5,5.26-3.44,9,.21,18,.19,27,0,3-.06,3.77.86,3.22,3.72-3.29,17.18-5.29,34.55-7.53,51.88-.3,2.3-.85,4.62.15,6.89,1.53,3.44,4.21,5.26,7.94,4.7,3.91-.59,6-3.19,6.54-7.13q3-22,6-44c.6-4.28,1.51-8.52,2.1-12.81.35-2.5,1.58-3.21,4-3.2,13.5.1,27,.13,40.49,0,3,0,3.94,1,4.45,3.86,3.23,18.21,5.5,36.54,7.85,54.87.74,5.8,3.8,9,8.31,8.57,4.74-.45,7.39-4.41,6.61-10.39-2.27-17.5-4.21-35-7.58-52.37-.68-3.53,0-4.88,3.77-4.53S280.34,356.88,284,357Z" transform="translate(-81.06 -141)"/><path class="cls-6" d="M129,232.06q0-7.31-.07-14.6c5-1,7.17-4,7.22-9.13.15-16,.65-32,.77-48,0-3.38.73-4.55,4.35-4.45,8.55.22,8.86,0,8.49,8.65-.91,21,3.72,40.28,17.14,56.95A78.11,78.11,0,0,0,295,213c.85-1.41,1.75-2.8,2.63-4.2,3.83,2.32,1.31,5.67,1.33,8.57.06,8.81.73,17.7-.17,26.42-2.1,20.53-6.31,40.75-10.22,61-2.34,12.15-5.17,24.22-6.66,36.52-1.49.11-3,.32-4.45.32-38.63,0-77.26,0-115.89.1-3.67,0-5-.94-5.83-4.69-5.8-27.48-12.51-54.76-17.21-82.46-.69-4.09-1.19-8.23-1.5-12.37C136.55,235.51,135.41,233.94,129,232.06Z" transform="translate(-81.06 -141)"/><path class="cls-7" d="M482.83,570.29c-3-.49-1.58-2.86-1.59-4.3-.16-20-.16-40-.24-60a85.79,85.79,0,0,0-2.2-19.82c-2.7-11.25-7.65-13.94-18.56-10.16-10.12,3.5-18.49,9.89-26.31,16.9-23,20.63-41.25,44.75-52.24,73.9-1.07,2.85-2.52,3.7-5.45,3.7q-55-.13-110,0c-3.83,0-4.89-1-4.38-4.82,2.76-20.29,12.54-36.24,29.22-48,10.06-7.08,21.34-11.45,33.13-14.69,2.95-.81,4.38,0,5.79,2.72,4.79,9.23,11.15,17,21.42,20.59,10.7,3.72,20.66,1.57,30.05-4.21C393,515.11,401.35,505,409,494.2c10.79-15.3,19.22-31.91,27-48.85,5-10.74,10.16-21.37,17.39-30.81,8.93-11.65,19.81-19.73,35.52-18.3.55,3.06,3,5.13,4.15,7.89,11.25,26.68,13.69,53.46.71,80.32-7.18,14.84-11.8,30.08-10.91,46.92C483.55,544.31,482.89,557.31,482.83,570.29Z" transform="translate(-81.06 -141)"/><path class="cls-8" d="M281.94,341.32c1.49-12.3,4.32-24.37,6.66-36.52,3.91-20.25,8.12-40.47,10.22-61,.9-8.72.23-17.61.17-26.42,0-2.9,2.5-6.25-1.33-8.57,7.61-15.13,9.85-31.28,9-48-.2-3.82.79-5.55,4.81-4.88a12.42,12.42,0,0,0,4,0c3.11-.48,3.84.8,3.92,3.81.71,28.29,1.88,56.61-.35,84.87-1.5,18.93-6.5,37.31-10.39,55.84C306,313,303,325.44,300.38,338c-.59,2.84-1.54,4-4.51,3.77C291.24,341.4,286.58,341.44,281.94,341.32Z" transform="translate(-81.06 -141)"/><path class="cls-9" d="M482.83,570.29c.06-13,.72-26,0-38.92-.89-16.84,3.73-32.08,10.91-46.92,13-26.86,10.54-53.64-.71-80.32-1.16-2.76-3.6-4.83-4.15-7.89,5.82.62,8.9,4.85,11.68,9.19,6.81,10.67,9,22.76,10.32,35.09a70.27,70.27,0,0,1-7.76,40.09c-5,9.76-9.79,19.67-11.59,30.7-1.16,7.14-.66,14.29-.73,21.44-.11,10.33,0,20.66,0,31C490.81,571.31,490.81,571.31,482.83,570.29Z" transform="translate(-81.06 -141)"/><path class="cls-3" d="M319,636.09c3.67-3.86,8.59-6,12.9-8.92,5.1-3.49,6.77-7.43,5.66-13.78-1.57-9-1.74-18.31-2.5-27.49,7.29-.09,14.59-.09,21.87-.31,2.59-.08,3.57,1,3.81,3.37q1.38,13.62,2.86,27.21a3.15,3.15,0,0,1-1.5,3.35C349,628.3,334.87,634.58,319,636.09Z" transform="translate(-81.06 -141)"/><path class="cls-3" d="M316,636.81a1.94,1.94,0,0,1,2.41-.59A2.44,2.44,0,0,1,316,636.81Z" transform="translate(-81.06 -141)"/><path class="cls-10" d="M457.9,302.57c-5.9-.75-8.43.66-10.14,6.13-3.43,10.92-6.71,21.89-10.48,34.22L415.8,272.05c13.87,0,27.27-.09,40.67.06,3.63,0,1.35,2.65,1,3.94-1.48,6.26-.69,8.38,4.74,11.42Z" transform="translate(-81.06 -141)"/><path class="cls-11" d="M437.22,257c-6.15,0-12.31-.07-18.47,0-2.26,0-2.72-.61-2.37-2.88q2.7-17.24,5-34.54c.39-3,1.36-4.19,4.62-4.06,7.48.28,15,.2,22.47,0,3-.07,4.3.53,4.71,3.94,1.31,11.06,3,22.07,4.8,33.06.52,3.31,0,4.73-3.79,4.5C448.56,256.78,442.88,257,437.22,257Z" transform="translate(-81.06 -141)"/><path class="cls-12" d="M457.9,302.57l4.35-15.1c5.42.57,8.43-2.09,9.73-7.16.54-2.09,1.4-4.1,1.85-6.2.35-1.68,1.23-2.09,2.77-2.09,11.93,0,23.86,0,36.76,0-1.36,1.62-2.13,2.6-2.95,3.53q-26.07,29.3-52.15,58.56a21.48,21.48,0,0,1-2.2,1.94,3.9,3.9,0,0,0-.64-.58c2.17-7.32,4.24-14.67,6.54-22C463.47,308.71,462.41,305.05,457.9,302.57Z" transform="translate(-81.06 -141)"/><path class="cls-13" d="M514,257c-13,0-25.09-.08-37.22.06-2.71,0-3.33-1.17-3.64-3.46-1.57-11.35-3.17-22.7-4.93-34-.47-3,.13-4.12,3.43-4,7.14.25,14.3.09,21.45.07,1.86,0,3.38,0,4.33,2.27C502.69,230.78,508.2,243.54,514,257Z" transform="translate(-81.06 -141)"/><path class="cls-14" d="M361,272c13.09,0,25,0,36.93,0a2.58,2.58,0,0,1,2.87,2.09q9.06,30.31,18.16,60.61a7.9,7.9,0,0,1-.13,2.27Z" transform="translate(-81.06 -141)"/><path class="cls-12" d="M456.06,336.07c-.12.37-.16,1-.74.63-.15-.09.06-.79.1-1.21A3.9,3.9,0,0,1,456.06,336.07Z" transform="translate(-81.06 -141)"/></svg>