<svg id="Layer_1" data-name="Layer 1" xmlns="http://www.w3.org/2000/svg" viewBox="0 0 384 347.44"><defs><style>.cls-1{fill:#050403;}.cls-2{fill:#050504;}.cls-3{fill:#e7824d;}.cls-4{fill:#050404;}.cls-5{fill:#bb6540;}.cls-6{fill:#fd9900;}.cls-7{fill:#d06c40;}.cls-8{fill:#ed8700;}.cls-9{fill:#b4623d;}.cls-10{fill:#fee8c7;}.cls-11{fill:#fad8a6;}.cls-12{fill:#f66167;}.cls-13{fill:#f8e3c3;}.cls-14{fill:#009d64;}.cls-15{fill:#00dea5;}</style></defs><title>furnishings</title><path class="cls-1" d="M302.38,407.5c.88-4.08,3.4-5.59,7.55-5.58,43.75.08,87.49,0,131.24.08,20.55,0,35.56,15.21,35.74,35.81q.07,8.63,0,17.25c0,1.5.13,2.51,1.89,3.05,10.45,3.16,16.83,10.21,19.39,20.79,0,.15.38.23.58.35V567c-2,2.65-4.72,3.49-8,3.48-25.94-.09-51.89,0-77.84-.06-5.56,0-6.92-1-8-5.78,1.12-4.39,2.56-5.56,7.38-5.64,7.82-.13,15.65-.16,23.47-.24a33,33,0,0,1,3.73.16c3.44.52,4.43-.83,4.35-4.29-.24-10.09-.08-20.19-.08-30.29,0-7.84,0-7.84-8-7.44a8.42,8.42,0,0,0-1.11-.14q-84,0-167.93-.08c-2.7,0-3,1.11-3,3.33.07,11.24,0,22.49,0,33.73,0,5.85-.61,5.23,5.19,5.23q58.29,0,116.58,0c5.44,0,6.91,1,8.27,5.63-1.22,4.73-2.56,5.8-7.66,5.81q-23.82,0-47.63,0H217.37c-7.37,0-8.84-1.45-8.84-8.69q0-37.87,0-75.75c0-13.72,6.74-23.33,19.65-27.77,2-.7,2.2-1.78,2.24-3.55.14-7.62-.56-15.25.48-22.85a34.72,34.72,0,0,1,33-29.78c6.87-.18,13.75,0,20.62-.1,3.86-.05,6.14,1.63,6.83,5.43-1,4.58-2.47,5.86-7.13,5.88-6.49,0-13-.09-19.49.05a23.34,23.34,0,0,0-22.64,20.11c-1,6.84-.13,13.73-.49,20.59-.13,2.54.68,3.54,3.15,4.44,11,4,17.52,11.79,18.59,23.51a144.89,144.89,0,0,1,.23,19.1c-.15,3.7,1,4.48,4.57,4.47q81.92-.18,163.83-.09c1.24,0,2.49-.09,3.74-.14a39.92,39.92,0,0,1,4.1.18c3,.41,4.19-.61,4-3.84-.26-5.23-.09-10.48-.06-15.72.06-13.89,6.49-23.05,19.59-27.73,1.65-.59,2.35-1.31,2.32-3.16-.13-6.11.08-12.23-.09-18.34-.32-11.16-7.47-20.05-17.89-22.52-2.5-1-5.13-.91-7.75-.91H310.1C305.06,413.25,303.82,412.3,302.38,407.5ZM479.26,558.84c2,.06,4,0,6,.2s2.27-.75,2.27-2.44c-.05-24.36.07-48.72-.13-73.08A15.25,15.25,0,0,0,474,468.77a8,8,0,0,0-4.77-.39c-8.62,1.33-14.11,7.61-14.16,16.56-.09,15.61,0,31.21,0,46.82,0,8.11,0,16.23,0,24.34,0,1.86.14,3,2.54,3C464.79,558.89,472,558.9,479.26,558.84Zm-240-90a15.69,15.69,0,0,0-19.34,15c-.26,24.24-.08,48.49-.12,72.74,0,1.67.36,2.52,2.25,2.48,7.5-.13,15-.16,22.48-.22.87.06,1.74.19,2.6.18,6-.06,5.13.6,5.14-5.19q.06-28.25,0-56.49c0-4.86.14-9.74-.17-14.59A15.12,15.12,0,0,0,239.24,468.82Z" transform="translate(-114.75 -223.03)"/><path class="cls-2" d="M114.75,334.5c1.36-.68,1.14-2.11,1.4-3.22q9.12-39.73,18.14-79.48c1-4.43,2.72-5.79,7.33-5.8q25.49,0,51,0c4.58,0,6.23,1.26,7.28,5.83q9.6,41.73,19.09,83.48c1.29,5.7-.88,8.31-6.65,8.38-3.5,0-7,.18-10.5-.05-2.64-.17-3.33.71-3.32,3.32.11,18.87.06,37.74.06,56.61,0,.87,0,1.75,0,2.62-.11,4.34-2.24,7-5.67,7s-5.6-2.6-5.61-6.94c0-19.49-.1-39,.07-58.48,0-3.29-.75-4.48-4.12-4.11s-7.78-1-9.76.67c-2.31,2-.73,6.57-.74,10q-.08,89.79-.12,179.57c0,3.74.7,5,4.77,5,14.85,0,25.92,10.8,25.94,24.79,0,4.54-1.93,6.73-6.54,6.75q-29.61.11-59.23,0c-4.93,0-6.94-2.44-6.66-7.4.79-14.21,11.43-24.21,26.22-24.15,3.71,0,4.39-1,4.38-4.5q-.18-93.17,0-186.32c0-3.7-1-4.5-4.53-4.42-11.11.24-22.24,0-33.36.15-3.52.06-6.51-.51-8.85-3.26Zm67.48-77.09c-11.74,0-23.49,0-35.23-.17-1.93,0-2.57.71-3,2.44q-7.9,35-15.93,70c-.38,1.64-.87,2.71,1.67,2.7,23-.13,46-.15,69-.2,1.24,0,2.5,0,3.72.18,3.64.52,4.21-.63,3.36-4.24-5.05-21.28-9.81-42.62-14.65-64C189.55,257,189.58,257,182.23,257.41ZM166.87,559.13v0c7,0,13.95,0,20.93,0,.94,0,2.25.45,2.71-.62s-.55-1.85-1.13-2.64a13.91,13.91,0,0,0-11.6-5.74c-7.23-.09-14.45-.1-21.67,0a13.76,13.76,0,0,0-11.91,6.55c-1.18,1.79-1,2.56,1.37,2.53C152.67,559.08,159.77,559.13,166.87,559.13Z" transform="translate(-114.75 -223.03)"/><path class="cls-3" d="M302.38,407.5c1.44,4.8,2.68,5.75,7.72,5.75H440c2.62,0,5.25-.06,7.75.91,1.87,3.5,5,6.11,6.75,9.71,3.91,8,3,16.51,2.93,24.94a4.22,4.22,0,0,1-3.06,3.88c-6.45,2.44-10.85,7.33-14.77,12.67A20.25,20.25,0,0,0,435.71,478c.12,9.11,0,18.22,0,27.32-1.25,0-2.5.14-3.74.14q-81.92,0-163.83.09c-3.56,0-4.72-.77-4.57-4.47a144.89,144.89,0,0,0-.23-19.1c-1.07-11.72-7.64-19.55-18.59-23.51-2.47-.9-3.28-1.9-3.15-4.44.36-6.86-.48-13.75.49-20.59a23.34,23.34,0,0,1,22.64-20.11c6.5-.14,13,0,19.49-.05,4.66,0,6.16-1.3,7.13-5.88Z" transform="translate(-114.75 -223.03)"/><path class="cls-4" d="M404.88,228.92c1-4.45,2.38-5.79,6.81-5.82q15.19-.12,30.38,0c5,0,6.95,2.07,7,7.22q0,64.68,0,129.36c0,5.24-2,7.14-7.35,7.14H265.44c-5.1,0-7.13-1.93-7.13-7q0-64.87,0-129.74c0-5.05,2-7,7.13-7q60.56-.06,121.11,0c4.72,0,6.06,1.19,7.25,5.84-1.5,4.67-2.78,5.54-8.35,5.54q-51.54,0-103.08,0c-1.26,0-2.63-.33-4.42.81,2.22,2,4.4,3.57,6,5.57,2.51,3.11,5.49,3.94,9.42,3.93,39.86-.14,79.72-.37,119.57.14,8.44.11,11.09-5.78,16.74-10.47-6.82,0-12.44,0-18.05,0C407.91,234.45,405.45,232.82,404.88,228.92Zm-113.62,84c5.57-6.17,10.38-11.54,15.23-16.87,7.56-8.29,16.75-8.32,24.23-.07,4.87,5.36,9.82,10.65,14.47,16.2,2,2.38,3,2.6,5.16.13,8.37-9.6,17-19,25.5-28.46s18.16-9.45,26.89,0c3.64,3.95,7.2,8,10.85,11.91.6.64,1,1.8,2.47,1.57,0-12.35-.11-24.68.08-37,.05-3.34-.7-4.38-4.24-4.37-38.84.14-77.69.09-116.53.09-.62,0-1.25,0-1.87,0-1.53-.11-2.26.41-2.26,2.11C291.28,276,291.26,293.83,291.26,312.93Zm98.9,20.86c7.62,0,15.24-.11,22.85,0,2.54.05,3.23-.82,3.14-3.22-.17-4.36-.12-8.74-.07-13.11a5,5,0,0,0-1.41-3.69c-6.91-7.55-13.75-15.17-20.66-22.72-3.7-4-5.95-4-9.55,0Q373.2,303.64,362,316.23c-6.52,7.32-6.42,7.27.06,14.66a7.86,7.86,0,0,0,6.76,3C375.91,333.65,383,333.79,390.16,333.79Zm39.69,21.55c-3.59-3.45-6.45-6.06-9.16-8.83a5,5,0,0,0-4-1.43q-63,0-126,0c-1.1,0-2.28-.26-3.21.65l-9.73,9.58ZM349.46,333.8C339.71,323,330.72,312.94,321.7,303c-2-2.18-4.13-2.18-6.13-.06-2.57,2.72-5,5.53-7.55,8.31-5.1,5.65-10.15,11.34-15.31,16.93a4.55,4.55,0,0,0-1.29,4.78c.61,1.69,2.39.84,3.62.85,10.73.07,21.46,0,32.19,0ZM269.7,346.23l1,.72c2.45-2.62,4.83-5.33,7.4-7.84a5.94,5.94,0,0,0,1.87-4.63q-.08-39.56-.05-79.1c0-1.1.31-2.33-.57-3.23-3-3.05-6.09-6.05-9.65-9.59ZM437.61,243.41l-1.16-1c-2,2.35-3.7,4.94-5.95,7-2.45,2.22-3.22,4.61-3.21,7.86.13,24.61.44,49.24-.13,73.84-.2,8.3,5.84,10.8,10.45,16.22Z" transform="translate(-114.75 -223.03)"/><path class="cls-5" d="M393.78,564.61C392.42,560,391,559,385.51,559q-58.29,0-116.58,0c-5.8,0-5.17.62-5.19-5.23,0-11.24,0-22.49,0-33.73,0-2.22.3-3.34,3-3.33q84,.12,167.93.08a8.42,8.42,0,0,1,1.11.14v41.86c-7.82.08-15.65.11-23.47.24-4.82.08-6.26,1.25-7.38,5.64Z" transform="translate(-114.75 -223.03)"/><path class="cls-3" d="M404.88,228.92c.57,3.9,3,5.53,6.77,5.55,5.61,0,11.23,0,18.05,0-5.65,4.69-8.3,10.58-16.74,10.47-39.85-.51-79.71-.28-119.57-.14-3.93,0-6.91-.82-9.42-3.93-1.62-2-3.8-3.55-6-5.57,1.79-1.14,3.16-.8,4.42-.81q51.54,0,103.08,0c5.57,0,6.85-.87,8.35-5.54Z" transform="translate(-114.75 -223.03)"/><path class="cls-6" d="M244.51,558.84c-7.49.06-15,.09-22.48.22-1.89,0-2.26-.81-2.25-2.48,0-24.25-.14-48.5.12-72.74a15.69,15.69,0,0,1,19.34-15,9.41,9.41,0,0,0,.92,2.41c3.52,4.72,4.44,10,4.4,15.81C244.42,511,244.51,534.91,244.51,558.84Z" transform="translate(-114.75 -223.03)"/><path class="cls-6" d="M479.26,558.84c-7.23.06-14.47,0-21.7.24-2.4.07-2.56-1.12-2.54-3,.05-8.11,0-16.23,0-24.34,0-15.61-.06-31.21,0-46.82.05-8.95,5.54-15.23,14.16-16.56a8,8,0,0,1,4.77.39,12.92,12.92,0,0,0,1.08,2.74,24.81,24.81,0,0,1,4.22,14.78C479.19,510.47,479.26,534.65,479.26,558.84Z" transform="translate(-114.75 -223.03)"/><path class="cls-7" d="M435.72,505.29c0-9.1.11-18.21,0-27.32a20.25,20.25,0,0,1,3.86-12.61c3.92-5.34,8.32-10.23,14.77-12.67a4.22,4.22,0,0,0,3.06-3.88c.12-8.43,1-16.95-2.93-24.94-1.77-3.6-4.88-6.21-6.75-9.71,10.42,2.47,17.57,11.36,17.89,22.52.17,6.11,0,12.23.09,18.34,0,1.85-.67,2.57-2.32,3.16-13.1,4.68-19.53,13.84-19.59,27.73,0,5.24-.2,10.49.06,15.72.16,3.23-1,4.25-4,3.84A39.92,39.92,0,0,0,435.72,505.29Z" transform="translate(-114.75 -223.03)"/><path class="cls-8" d="M479.26,558.84c0-24.19-.07-48.37,0-72.55a24.81,24.81,0,0,0-4.22-14.78,12.92,12.92,0,0,1-1.08-2.74,15.25,15.25,0,0,1,13.38,14.75c.2,24.36.08,48.72.13,73.08,0,1.69-.38,2.59-2.27,2.44S481.25,558.9,479.26,558.84Z" transform="translate(-114.75 -223.03)"/><path class="cls-8" d="M244.51,558.84c0-23.93-.09-47.87.05-71.8,0-5.79-.88-11.09-4.4-15.81a9.41,9.41,0,0,1-.92-2.41,15.12,15.12,0,0,1,12.85,13.93c.31,4.85.17,9.73.17,14.59q0,28.24,0,56.49c0,5.79.89,5.13-5.14,5.19C246.25,559,245.38,558.9,244.51,558.84Z" transform="translate(-114.75 -223.03)"/><path class="cls-9" d="M435.75,558.76V516.9c8-.4,8-.4,8,7.44,0,10.1-.16,20.2.08,30.29.08,3.46-.91,4.81-4.35,4.29A33,33,0,0,0,435.75,558.76Z" transform="translate(-114.75 -223.03)"/><path class="cls-10" d="M198.75,332.22c-23,0-46,.07-69,.2-2.54,0-2-1.06-1.67-2.7q8-35,15.93-70c.39-1.73,1-2.46,3-2.44,11.74.13,23.49.13,35.23.17a10.5,10.5,0,0,0,.11,1.87c3.43,14.86,7,29.71,10.28,44.59C194.73,313.31,197.34,322.64,198.75,332.22Z" transform="translate(-114.75 -223.03)"/><path class="cls-11" d="M198.75,332.22c-1.41-9.58-4-18.91-6.13-28.35-3.32-14.88-6.85-29.73-10.28-44.59a10.5,10.5,0,0,1-.11-1.87c7.35-.41,7.32-.4,9,6.8,4.84,21.33,9.6,42.67,14.65,64,.85,3.61.28,4.76-3.36,4.24C201.25,332.23,200,332.27,198.75,332.22Z" transform="translate(-114.75 -223.03)"/><path class="cls-12" d="M166.87,559.13c-7.1,0-14.2,0-21.3,0-2.38,0-2.55-.74-1.37-2.53a13.76,13.76,0,0,1,11.91-6.55c7.22-.11,14.44-.1,21.67,0a13.91,13.91,0,0,1,11.6,5.74c.58.79,1.53,1.69,1.13,2.64s-1.77.61-2.71.62c-7,0-14,0-20.93,0Z" transform="translate(-114.75 -223.03)"/><path class="cls-13" d="M291.26,312.93c0-19.1,0-36.93,0-54.76,0-1.7.73-2.22,2.26-2.11.62.05,1.25,0,1.87,0,38.84,0,77.69.05,116.53-.09,3.54,0,4.29,1,4.24,4.37-.19,12.32-.08,24.65-.08,37-1.52.23-1.87-.93-2.47-1.57-3.65-3.94-7.21-8-10.85-11.91-8.73-9.46-18.31-9.48-26.89,0s-17.13,18.86-25.5,28.46c-2.15,2.47-3.17,2.25-5.16-.13-4.65-5.55-9.6-10.84-14.47-16.2-7.48-8.25-16.67-8.22-24.23.07C301.64,301.39,296.83,306.76,291.26,312.93Zm56.42-50.6a15.85,15.85,0,0,0,.07,31.7,15.85,15.85,0,1,0-.07-31.7Z" transform="translate(-114.75 -223.03)"/><path class="cls-14" d="M390.16,333.79c-7.13,0-14.25-.14-21.36.06a7.86,7.86,0,0,1-6.76-3c-6.48-7.39-6.58-7.34-.06-14.66q11.2-12.6,22.48-25.13c3.6-4,5.85-4,9.55,0,6.91,7.55,13.75,15.17,20.66,22.72a5,5,0,0,1,1.41,3.69c-.05,4.37-.1,8.75.07,13.11.09,2.4-.6,3.27-3.14,3.22C405.4,333.68,397.78,333.79,390.16,333.79Z" transform="translate(-114.75 -223.03)"/><path class="cls-3" d="M429.85,355.34H277.73l9.73-9.58c.93-.91,2.11-.65,3.21-.65q63,0,126,0a5,5,0,0,1,4,1.43C423.4,349.28,426.26,351.89,429.85,355.34Z" transform="translate(-114.75 -223.03)"/><path class="cls-15" d="M349.46,333.8H327.23c-10.73,0-21.46,0-32.19,0-1.23,0-3,.84-3.62-.85a4.55,4.55,0,0,1,1.29-4.78c5.16-5.59,10.21-11.28,15.31-16.93,2.51-2.78,5-5.59,7.55-8.31,2-2.12,4.16-2.12,6.13.06C330.72,312.94,339.71,323,349.46,333.8Z" transform="translate(-114.75 -223.03)"/><path class="cls-9" d="M269.7,346.23V242.56c3.56,3.54,6.63,6.54,9.65,9.59.88.9.57,2.13.57,3.23q0,39.56.05,79.1a5.94,5.94,0,0,1-1.87,4.63c-2.57,2.51-5,5.22-7.4,7.84Z" transform="translate(-114.75 -223.03)"/><path class="cls-9" d="M437.61,243.41V347.33c-4.61-5.42-10.65-7.92-10.45-16.22.57-24.6.26-49.23.13-73.84,0-3.25.76-5.64,3.21-7.86,2.25-2,4-4.62,5.95-7Z" transform="translate(-114.75 -223.03)"/><path class="cls-1" d="M347.68,262.33A15.85,15.85,0,1,1,332,278.38,15.86,15.86,0,0,1,347.68,262.33Zm-.37,20.45c3.07,0,5.34-2.14,5.14-4.72s-1.72-4.36-4.55-4.46a4.61,4.61,0,0,0-.59,9.18Z" transform="translate(-114.75 -223.03)"/><path class="cls-6" d="M347.31,282.78a4.61,4.61,0,0,1,.59-9.18c2.83.1,4.34,1.75,4.55,4.46S350.38,282.82,347.31,282.78Z" transform="translate(-114.75 -223.03)"/></svg>