<svg id="Layer_1" data-name="Layer 1" xmlns="http://www.w3.org/2000/svg" viewBox="0 0 384 356.32"><defs><style>.cls-1{fill:#030303;}.cls-2{fill:#a9a9a9;}.cls-3{fill:#040404;}.cls-4{fill:#999;}.cls-5{fill:#595959;}.cls-6{fill:#040403;}.cls-7{fill:#020303;}.cls-8{fill:#575757;}.cls-9{fill:#f2f2f2;}.cls-10{fill:#f3df63;}.cls-11{fill:#7db2f7;}</style></defs><title>game</title><path class="cls-1" d="M498.75,537c-1.33.52-1.08,1.86-1.35,2.84-5.14,18.7-17,30.88-36.1,34.23s-34.95-3.56-46.12-19.66c-14.6-21-28.9-42.22-43.24-63.41-1.52-2.26-2.65-3.08-5.57-2a30.12,30.12,0,0,1-39.15-20.17c-.68-2.29-1.49-2.93-3.76-2.91q-16.69.15-33.37,0c-2.22,0-3.11.52-3.8,2.85a30.14,30.14,0,0,1-39.44,20.21c-2.58-.94-3.6-.39-5,1.71q-21.72,32.08-43.64,64c-14,20.41-40.85,26.35-61.56,13.62-10.58-6.5-17.27-16-20.46-28-.36-1.36-.16-3-1.42-4v-15c2.37-4.43,2.55-9.44,3.59-14.19,4-18.23,7.7-36.51,11.54-54.77,1-4.83,2.37-6,7.29-6.23,3.72,1.55,4.78,4.22,3.93,8.15q-4.9,22.49-9.51,45c-1.87,9.16-4.58,18.2-5.4,27.52-1.32,15,8.18,29.57,22.2,34.76a34.23,34.23,0,0,0,39.68-12.25c15.26-21.93,30.16-44.11,45.29-66.13,1.16-1.69.9-2.66-.25-4.14a29,29,0,0,1-6.35-21.36c1.53-15.06,12.89-26.19,27.91-27.68,13.9-1.38,27.35,7.79,31.56,21.86.71,2.37,1.71,2.82,3.86,2.8q16.68-.11,33.37.05c2.23,0,3.11-.6,3.8-2.89,4.31-14.4,18.64-23.77,32.71-21.67,23.95,3.59,34.68,29.28,20.37,48.91-1.12,1.54-1.31,2.5-.18,4.15,15.06,21.92,29.87,44,45.09,65.81,6.78,9.7,16.39,14.74,28.5,14.3a18.11,18.11,0,0,0,6.68-.45c19-4.26,30.23-22.52,26-42.32q-6.87-32.17-13.65-64.37c-1-4.77-.08-6.62,4.29-8.53,4.11-.11,6,2.09,6.77,6,4.65,22.47,9.41,44.91,14.13,67.36.1.51.16,1,.77,1.07ZM276.07,460.25c0-10.4-8.86-19.29-19-19.12-10.31.18-19.27,9.09-19.21,19.12a19.27,19.27,0,0,0,19.42,19.08A18.65,18.65,0,0,0,276.07,460.25Zm80.11,19.08a19.28,19.28,0,0,0,19.46-19.05c.09-10-8.84-18.93-19.19-19.15-10.12-.21-19,8.7-19,19.1A18.65,18.65,0,0,0,356.18,479.33Z" transform="translate(-114.75 -218.65)"/><path class="cls-2" d="M453.75,563.28c-12.11.44-21.72-4.6-28.5-14.3-15.22-21.8-30-43.89-45.09-65.81-1.13-1.65-.94-2.61.18-4.15,14.31-19.63,3.58-45.32-20.37-48.91-14.07-2.1-28.4,7.27-32.71,21.67-.69,2.29-1.57,2.91-3.8,2.89q-16.68-.17-33.37-.05c-2.15,0-3.15-.43-3.86-2.8C282,437.75,268.57,428.58,254.67,430c-15,1.49-26.38,12.62-27.91,27.68A29,29,0,0,0,233.11,479c1.15,1.48,1.41,2.45.25,4.14-15.13,22-30,44.2-45.29,66.13a34.23,34.23,0,0,1-39.68,12.25c-14-5.19-23.52-19.71-22.2-34.76.82-9.32,3.53-18.36,5.4-27.52q4.6-22.55,9.51-45c.85-3.93-.21-6.6-3.93-8.15L139,434.71c4.6.21,6.32-1,7.3-5.56,2.23-10.23,4.52-20.45,6.55-30.72,2-10,5-19.88,5.93-30.07,2-21.57,12.62-37.22,32.33-45.83s38.42-5.43,55,8.06c7.06,5.74,14.55,8.6,23.64,8.52q36.9-.33,73.8,0a34.55,34.55,0,0,0,23.92-8.73A50.17,50.17,0,0,1,405,318.26c3,3.07,6.95,4.63,10.33,7.08,10.29,7.45,16.94,17.35,20.58,29.41,1.63,5.4,1.5,11.05,2.39,16.54,1.6,9.78,4,19.44,6.1,29.13.28,1.28.7,2.45-.76,3.26-.51-1-1-2-1.54-3a21.82,21.82,0,1,0-13.56,32.1c10.83-2.7,16.65-11.54,16.33-24.79,1.12.11,1.25.88,1.44,1.82,2.25,11.18,4.51,22.36,6.87,33.51Q461,480.65,469,517.91c3.57,16.78,0,31.27-13.58,42.58A3.51,3.51,0,0,0,453.75,563.28ZM217.39,421.6c3.62,0,7.24,0,10.86,0,5.05,0,6.92-1.93,7-7.07.06-2.87.12-5.74,0-8.61-.1-2.07.56-2.92,2.73-2.81,3.11.14,6.24.11,9.36,0,4.28-.14,6.26-2,6.31-6.19.08-7.61.09-15.23,0-22.84,0-3.75-2.09-5.72-5.84-5.85-3.24-.11-6.49-.14-9.73,0-2.07.09-2.92-.51-2.82-2.7.16-3.24.15-6.5,0-9.74-.18-3.9-2.28-6.1-6.09-6.16q-11.41-.18-22.84,0c-3.87.06-5.94,2.26-6,6.15-.1,3.36-.1,6.74,0,10.11.06,1.79-.54,2.41-2.34,2.34-3.24-.12-6.49-.08-9.74,0-4.36.09-6.45,2.08-6.51,6.44q-.15,11,0,22.09c.06,4.16,2.13,6.19,6.25,6.36,3.12.13,6.25.16,9.36,0,2.22-.11,3.15.47,3,2.88a95.69,95.69,0,0,0,0,9.73c.13,3.69,2.2,5.76,5.87,5.87S213.64,421.59,217.39,421.6Zm156.44-71.2a21.9,21.9,0,1,0,21.94,22A22.15,22.15,0,0,0,373.83,350.4ZM303,388a5.31,5.31,0,0,0-2.77-4.5c-1.86-1.13-4-1.33-5.66,0A72.41,72.41,0,0,0,284,394.08a4.86,4.86,0,0,0-.2,5.66,5.47,5.47,0,0,0,4.9,2.95C292.07,402.74,302.91,392,303,388Zm21.3-5.38a6.86,6.86,0,0,0-2.3.8,57.58,57.58,0,0,0-11,11.13c-1.47,2.08-.91,4.61,1,6.47s4.33,2.47,6.49.88a57.18,57.18,0,0,0,10.84-10.75c1.32-1.67,1.12-3.8.05-5.66S326.61,382.8,324.31,382.64Z" transform="translate(-114.75 -218.65)"/><path class="cls-3" d="M405,318.26a50.17,50.17,0,0,0-37.44,12.12,34.55,34.55,0,0,1-23.92,8.73q-36.9-.35-73.8,0c-9.09.08-16.58-2.78-23.64-8.52-16.61-13.49-35.34-16.66-55-8.06s-30.33,24.26-32.33,45.83c-.95,10.19-3.95,20.05-5.93,30.07-2,10.27-4.32,20.49-6.55,30.72-1,4.52-2.7,5.77-7.3,5.56-3.59-1.52-4.57-4.21-3.78-7.89q5.81-27.06,11.51-54.14c1.34-6.46,1.32-13.13,3.2-19.54,12.84-43.85,66.83-61.17,102.09-32.21,7.74,6.37,15.76,7.1,24.71,6.82,1.66-.05,1.75-.88,1.74-2.12,0-3.88-.08-7.75,0-11.62.19-8.21,5.28-13.13,13.5-13.29,3-.06,7,1.34,8.59-.6s.46-5.73.46-8.71q0-32.06,0-64.1a22.37,22.37,0,0,1,.22-4.1,5.55,5.55,0,0,1,10.94.14,26.82,26.82,0,0,1,.19,4.11c0,23.24.07,46.48-.06,69.72,0,2.94.75,4,3.66,3.61a42.14,42.14,0,0,1,5.62,0c8,.1,13.1,5.05,13.34,13,.12,3.87,0,7.74,0,11.62,0,1.36,0,2.41,1.9,2.34,3.87-.14,7.75.11,11.61-.15,4.41-.29,7.86-2.71,11.19-5.51a64.57,64.57,0,0,1,101.89,25.57A73.23,73.23,0,0,1,466,366.91c1.13,10.42,4.05,20.53,6.09,30.8,2,9.91,4.21,19.75,6.3,29.63,1,4.94.33,6.5-3.85,8.91-4.88-.35-6.23-1.56-7.25-6.38-2.16-10.25-4.48-20.46-6.48-30.75-2.06-10.64-5.47-21.07-6.13-31.93C453.09,341.76,430.63,319.42,405,318.26Zm-98.38,9.46c4.74,0,9.49-.06,14.24,0,1.95,0,2.67-.68,2.61-2.61-.1-3.37-.12-6.75,0-10.12.08-2.27-.76-3.06-3-3-9.12.1-18.25.08-27.37,0-2,0-3.05.46-3,2.69q.17,5.25,0,10.5c-.05,2,.77,2.6,2.67,2.56C297.34,327.66,302,327.72,306.59,327.72Z" transform="translate(-114.75 -218.65)"/><path class="cls-4" d="M405,318.26c25.66,1.16,48.12,23.5,49.67,48.93.66,10.86,4.07,21.29,6.13,31.93,2,10.29,4.32,20.5,6.48,30.75,1,4.82,2.37,6,7.25,6.38l2.58,11.36c-4.37,1.91-5.31,3.76-4.29,8.53q6.81,32.19,13.65,64.37c4.22,19.8-7,38.06-26,42.32a18.11,18.11,0,0,1-6.68.45,3.51,3.51,0,0,1,1.67-2.79c13.58-11.31,17.15-25.8,13.58-42.58q-7.94-37.27-15.85-74.57c-2.36-11.15-4.62-22.33-6.87-33.51-.19-.94-.32-1.71-1.44-1.82l-.21-1.45c1.23-1,.6-1.34-.51-1.55l-.51-1.33c1.46-.81,1-2,.76-3.26-2.11-9.69-4.5-19.35-6.1-29.13-.89-5.49-.76-11.14-2.39-16.54-3.64-12.06-10.29-22-20.58-29.41C411.92,322.89,407.93,321.33,405,318.26Z" transform="translate(-114.75 -218.65)"/><path class="cls-5" d="M276.07,460.25a18.65,18.65,0,0,1-18.79,19.08,19.27,19.27,0,0,1-19.42-19.08c-.06-10,8.9-18.94,19.21-19.12C267.21,441,276.05,449.85,276.07,460.25Z" transform="translate(-114.75 -218.65)"/><path class="cls-5" d="M356.18,479.33a18.65,18.65,0,0,1-18.76-19.1c0-10.4,8.91-19.31,19-19.1,10.35.22,19.28,9.13,19.19,19.15A19.28,19.28,0,0,1,356.18,479.33Z" transform="translate(-114.75 -218.65)"/><path class="cls-1" d="M217.39,421.59c-3.75,0-7.49.08-11.24,0s-5.74-2.18-5.87-5.87a95.69,95.69,0,0,1,0-9.73c.15-2.41-.78-3-3-2.88-3.11.16-6.24.13-9.36,0-4.12-.17-6.19-2.2-6.25-6.36q-.16-11,0-22.09c.06-4.36,2.15-6.35,6.51-6.44,3.25-.06,6.5-.1,9.74,0,1.8.07,2.4-.55,2.34-2.34-.11-3.37-.11-6.75,0-10.11.11-3.89,2.18-6.09,6-6.15q11.42-.17,22.84,0c3.81.06,5.91,2.26,6.09,6.16.14,3.24.15,6.5,0,9.74-.1,2.19.75,2.79,2.82,2.7,3.24-.15,6.49-.12,9.73,0,3.75.13,5.79,2.1,5.84,5.85.11,7.61.1,15.23,0,22.84-.05,4.16-2,6-6.31,6.19-3.12.11-6.25.14-9.36,0-2.17-.11-2.83.74-2.73,2.81.14,2.87.08,5.74,0,8.61-.1,5.14-2,7-7,7.07C224.63,421.62,221,421.6,217.39,421.59ZM200.56,379.5c-7.59,0-7.59,0-7.58,7.49a18.75,18.75,0,0,1,0,2.25c-.24,2,.61,2.63,2.55,2.55,3.12-.13,6.25-.1,9.36,0,4.63.13,6.59,2.12,6.66,6.67,0,3.12.12,6.25,0,9.36-.09,1.93.46,2.5,2.47,2.56,10,.28,10,.35,10-9.68,0-7.64,1.29-8.93,8.92-8.94,10.06,0,10,0,9.58-10-.08-1.83-.6-2.34-2.35-2.27-3.25.13-6.5.09-9.74,0-4.17-.09-6.21-2.05-6.39-6.15a48,48,0,0,1,0-7.86c.48-3.81-.85-4.85-4.65-4.69-7.8.33-7.81.1-7.81,7.76C211.54,379,211,379.5,200.56,379.5Z" transform="translate(-114.75 -218.65)"/><path class="cls-6" d="M373.83,350.4A21.9,21.9,0,1,1,352,372.45,22.13,22.13,0,0,1,373.83,350.4Zm10.5,21.89a10.47,10.47,0,1,0-20.93,0,10.47,10.47,0,0,0,20.93,0Z" transform="translate(-114.75 -218.65)"/><path class="cls-7" d="M444.63,406.56l.21,1.45c.32,13.25-5.5,22.09-16.33,24.79a21.83,21.83,0,1,1,13.56-32.1c.56,1,1,2,1.54,3l.51,1.33Zm-11,5a10.26,10.26,0,0,0-10.44-10.35,10.6,10.6,0,0,0-10.54,10.39,10.75,10.75,0,0,0,10.76,10.63A10.49,10.49,0,0,0,433.6,411.52Z" transform="translate(-114.75 -218.65)"/><path class="cls-3" d="M303,388c-.1,4-10.94,14.72-14.33,14.67a5.47,5.47,0,0,1-4.9-2.95,4.86,4.86,0,0,1,.2-5.66,72.41,72.41,0,0,1,10.6-10.55c1.68-1.34,3.8-1.14,5.66,0A5.31,5.31,0,0,1,303,388Z" transform="translate(-114.75 -218.65)"/><path class="cls-1" d="M324.31,382.64c2.3.16,4.07,1,5.14,2.87s1.27,4-.05,5.66a57.18,57.18,0,0,1-10.84,10.75c-2.16,1.59-4.57.94-6.49-.88s-2.51-4.39-1-6.47a57.58,57.58,0,0,1,11-11.13A6.86,6.86,0,0,1,324.31,382.64Z" transform="translate(-114.75 -218.65)"/><path class="cls-8" d="M306.59,327.72c-4.63,0-9.25-.06-13.87,0-1.9,0-2.72-.58-2.67-2.56q.17-5.25,0-10.5c-.06-2.23,1-2.71,3-2.69,9.12.06,18.25.08,27.37,0,2.28,0,3.12.77,3,3-.13,3.37-.11,6.75,0,10.12.06,1.93-.66,2.65-2.61,2.61C316.08,327.66,311.33,327.72,306.59,327.72Z" transform="translate(-114.75 -218.65)"/><path class="cls-2" d="M444.63,406.56l-.51-1.55C445.23,405.22,445.86,405.58,444.63,406.56Z" transform="translate(-114.75 -218.65)"/><path class="cls-9" d="M200.56,379.5c10.42,0,11-.55,11-11,0-7.66,0-7.43,7.81-7.76,3.8-.16,5.13.88,4.65,4.69a48,48,0,0,0,0,7.86c.18,4.1,2.22,6.06,6.39,6.15,3.24.07,6.49.11,9.74,0,1.75-.07,2.27.44,2.35,2.27.42,10,.48,10-9.58,10-7.63,0-8.92,1.3-8.92,8.94,0,10,0,10-10,9.68-2-.06-2.56-.63-2.47-2.56.16-3.11.08-6.24,0-9.36-.07-4.55-2-6.54-6.66-6.67-3.11-.09-6.24-.12-9.36,0-1.94.08-2.79-.57-2.55-2.55a18.75,18.75,0,0,0,0-2.25C193,379.5,193,379.5,200.56,379.5Z" transform="translate(-114.75 -218.65)"/><path class="cls-10" d="M384.33,372.29a10.47,10.47,0,0,1-20.93,0,10.47,10.47,0,1,1,20.93,0Z" transform="translate(-114.75 -218.65)"/><path class="cls-11" d="M433.6,411.52a10.49,10.49,0,0,1-10.22,10.67,10.75,10.75,0,0,1-10.76-10.63,10.6,10.6,0,0,1,10.54-10.39A10.26,10.26,0,0,1,433.6,411.52Z" transform="translate(-114.75 -218.65)"/></svg>