<svg id="Layer_1" data-name="Layer 1" xmlns="http://www.w3.org/2000/svg" viewBox="0 0 366.73 372.47"><defs><style>.cls-1{fill:#040303;}.cls-2{fill:#040403;}.cls-3{fill:#040404;}.cls-4{fill:#030303;}.cls-5{fill:#fe5078;}.cls-6{fill:#fe1739;}.cls-7{fill:#9aeae5;}.cls-8{fill:#5fe3db;}.cls-9{fill:#fc4f77;}.cls-10{fill:#fc7da6;}.cls-11{fill:#f9d731;}.cls-12{fill:#f5e76a;}.cls-13{fill:#5ad9d1;}</style></defs><title>gift</title><path d="M306.75,582.75c-34.75,0-69.5,0-104.24.08-3.12,0-3.85-.72-3.84-3.84q.18-56.24,0-112.49c0-3.12.73-3.83,3.84-3.83q104.24.15,208.49,0c3.11,0,3.84.72,3.83,3.84q-.18,56.24,0,112.49c0,3.12-.73,3.84-3.84,3.83C376.24,582.7,341.5,582.75,306.75,582.75Zm0-107.88c-2.87,0-5.76.12-8.6-.18s-3.47.69-3.46,3.47c.12,27.1,0,54.21.1,81.31,0,3.69-1.66,8.92.71,10.68s7.4.45,11.25.48c2.87,0,5.76-.11,8.6.17s3.49-.66,3.48-3.46c-.12-27.1,0-54.21-.1-81.31,0-3.69,1.66-8.91-.73-10.68S310.59,474.9,306.74,474.87Zm-96,47.91c0,14.86.05,29.72-.05,44.58,0,2.38.25,3.48,3.12,3.46q33-.2,65.93,0c2.51,0,3.06-.75,3.05-3.14q-.12-45,0-89.9c0-2.49-.72-3.08-3.13-3.07q-33,.14-65.93,0c-2.51,0-3.07.75-3.05,3.14C210.8,492.81,210.75,507.8,210.75,522.78Zm120-.12c0,15,.05,30-.05,45,0,2.37.53,3.17,3.06,3.16q33-.15,66,0c2.54,0,3.06-.8,3.06-3.17q-.12-44.8,0-89.6c0-2.56-.56-3.37-3.26-3.35q-32.81.17-65.61,0c-2.7,0-3.27.8-3.25,3.36C330.81,492.92,330.75,507.79,330.75,522.66Z" transform="translate(-125.83 -210.36)"/><path class="cls-1" d="M187.34,285.09c-10.73-6.52-16.12-15.3-15-27.41A27,27,0,0,1,220.75,244c3.9,5.16,7.43,10.59,11.58,16.55.56-6.42,1.09-12.16,1.55-17.91.94-11.86,8-21,18.84-24.51a26.94,26.94,0,0,1,28.87,8.14c7.37,8.56,8.6,20.24,3.26,30.79-.28.55-.55,1.1-.85,1.71,1.39.53,2.52-.11,3.68-.42,18.42-4.9,36.86-9.74,55.24-14.79,2.38-.66,3-.1,3.51,2,3.5,13.38,7,26.78,10.74,40.08.9,3.17.07,3.94-2.8,4.7q-52.75,14-105.45,28.17-54,14.44-107.95,28.94c-2.51.68-3.32.4-4-2.25-3.48-13.51-7.16-27-10.89-40.42-.65-2.33-.1-3.12,2.24-3.73,19-5,38-10.15,57.05-15.25C185.82,285.62,186.25,285.45,187.34,285.09Zm57.19,21.76a8.07,8.07,0,0,0,1.48-.09Q293.5,294,341,281.35c2.52-.67,2-2,1.59-3.59-1.5-5.66-3.14-11.29-4.48-17-.64-2.74-1.79-3.11-4.39-2.4-16.59,4.56-33.23,8.9-49.83,13.39-15.15,4.09-30.26,8.28-45.39,12.42a9.18,9.18,0,0,0-1.49.15Q189.7,297,142.37,309.68c-2.1.56-2.13,1.32-1.6,3.12,1.66,5.74,3.26,11.51,4.6,17.34.62,2.7,1.56,3.25,4.28,2.5,20.33-5.55,40.72-10.82,61-16.38C222,313.17,233.41,310.58,244.53,306.85Zm-18.11-33.69C221,265.29,216.21,258,211,251a14.67,14.67,0,0,0-18.47-4.19,15.26,15.26,0,0,0-8.06,16.9c1.36,6.71,7.4,12.09,14.41,11.79C207.83,275.16,216.73,274,226.42,273.16Zm17.36-4.61c8.95-4.2,17.45-7.76,25.52-12.09,6.09-3.27,8.31-11.15,5.94-17.68a15.26,15.26,0,0,0-15.52-10c-6.9.59-12.91,6-13.64,12.8C245.14,250.26,244.58,259,243.78,268.55Z" transform="translate(-125.83 -210.36)"/><path class="cls-2" d="M424.94,289.82c1-8.3,1.81-16.08,3-23.8a7.82,7.82,0,0,0-2.38-7.61C420,252.87,414.78,247,409,240.79c6.79-1.32,13-3,19.37-3.64s10.24-3.35,12.82-9.22,6.13-11.33,9.58-17.57c4,7.28,8,14,11.44,20.93a8.46,8.46,0,0,0,7,5c7.62,1.23,15.17,2.83,23.36,4.39-6,6.42-11.47,12.5-17.2,18.33a6.67,6.67,0,0,0-1.91,6.33c1.11,7.89,2.05,15.81,3.15,24.41-3.5-1.6-6.45-3-9.43-4.3-5.56-2.46-10.93-7.25-16.63-7-5.53.26-10.86,4.53-16.28,7Zm7.27-42c3.47,3.84,7.24,6.32,8.3,9.65s-.42,7.76-.82,12.06c3.87-1.69,7.47-4.47,11.08-4.48s7.21,2.77,11.84,4.77c-3.86-9.23-1.28-16,6.32-21.6-9.72.55-15.18-4.14-18.19-13C447.79,244.17,442.21,248.69,432.21,247.83Z" transform="translate(-125.83 -210.36)"/><path class="cls-3" d="M324.77,437.2A114.09,114.09,0,0,1,428.08,325.29c4.87-.45,9.73-.45,14.59-.58,1.62,0,2.05.44,2.14,2.08.53,9.84.58,9.83-9.22,10-47.57.88-90.1,38-97.38,84.87a94.3,94.3,0,0,0-1.38,19.76c.16,2.95-.84,3.79-3.52,3.33a7,7,0,0,0-1.12,0C324.67,444.75,324.67,444.75,324.77,437.2Z" transform="translate(-125.83 -210.36)"/><path class="cls-2" d="M271,346.74c7.1-1.39,13.64-2.83,20.24-3.89a7,7,0,0,0,5.61-4.13c3-5.87,6.3-11.59,9.83-18,3,5.48,6.16,10.38,8.53,15.61,2,4.46,4.94,6.56,9.76,7.13,5.68.67,11.28,2.05,17.53,3.24-4.94,5.3-9.5,10.37-14.26,15.25a6.35,6.35,0,0,0-2.07,5.92c1,6.77,1.73,13.58,2.63,20.92-6.82-3.21-13.14-6.11-19.39-9.17a5.39,5.39,0,0,0-5.25,0c-6.24,3.07-12.57,6-19.53,9.24.79-6.44,1.27-12.36,2.31-18.17.74-4.14.16-7.26-3.11-10.28C279.41,356.24,275.5,351.53,271,346.74Zm35.71-.28c-.81,0-1,.73-1.17,1.22-1.4,4.62-4.86,6.16-9.27,6.37a8.19,8.19,0,0,0-1.6.57c4.86,3.59,6.59,8.06,4.1,14.28l7.93-3.72,7.33,3.33c-.2-3-.95-5.68-.38-8.08s3.66-3.5,4.67-6.55c-5.56.48-9.05-1.88-10.81-6.81C307.46,346.81,307,346.66,306.75,346.46Z" transform="translate(-125.83 -210.36)"/><path class="cls-3" d="M264.75,420.21c.07,6.54.07,6.54-6.58,6.54-5.4,0-5.4,0-5.42-5.44-.14-30.74-23.89-54.43-54.67-54.56-5.33,0-5.33,0-5.33-5.54,0-6.52,0-6.52,6.65-6.46A66.1,66.1,0,0,1,264.75,420.21Z" transform="translate(-125.83 -210.36)"/><path class="cls-3" d="M470.43,414.68C444,414.63,424.53,426,412.9,450c-1.24,2.56-2.27,2.46-4.43,1.36-7.94-4-8.13-4.07-3.66-11.85,13.37-23.27,33.64-35.39,60.38-36.72,4.48-.23,9,0,13.48-.1,1.62,0,2.05.43,2.14,2.08C481.35,414.76,481.4,414.75,470.43,414.68Z" transform="translate(-125.83 -210.36)"/><path class="cls-3" d="M142.76,409c27.63-.2,48.68,11.43,62.8,35.35,1.08,1.83,1.33,2.84-.87,3.92-2.68,1.3-5.29,4.3-7.71,4.07-1.79-.16-3.19-4.31-4.81-6.65-11-15.84-26.2-24.11-45.45-24.89-3.74-.15-7.49-.13-11.24,0-2,.07-3-.26-2.77-2.56.35-3.06-1.34-7.44.64-8.9S139.54,409,142.76,409Z" transform="translate(-125.83 -210.36)"/><path class="cls-4" d="M408.73,294.88a18,18,0,1,1-17.67-18.11A18.08,18.08,0,0,1,408.73,294.88Zm-18.11-6.11a6,6,0,1,0,6.1,5.75A6,6,0,0,0,390.62,288.77Z" transform="translate(-125.83 -210.36)"/><path class="cls-4" d="M456.73,372.7a18,18,0,1,1-18.23-17.95A18,18,0,0,1,456.73,372.7Zm-12,0a6,6,0,1,0-5.84,6.05A6,6,0,0,0,444.74,372.69Z" transform="translate(-125.83 -210.36)"/><path class="cls-4" d="M234.73,408.74a18,18,0,1,1-18.18-18A18,18,0,0,1,234.73,408.74Zm-12,.2a6,6,0,1,0-6.09,5.8A6.05,6.05,0,0,0,222.74,408.94Z" transform="translate(-125.83 -210.36)"/><path class="cls-4" d="M378.86,438.73a18,18,0,1,1,17.87-17.92A18.06,18.06,0,0,1,378.86,438.73Zm0-24a6,6,0,1,0,5.85,6A6,6,0,0,0,378.88,414.77Z" transform="translate(-125.83 -210.36)"/><path class="cls-5" d="M210.75,522.78c0-15,.05-30-.05-44.95,0-2.39.54-3.15,3.05-3.14q33,.15,65.93,0c2.41,0,3.13.58,3.13,3.07q-.13,45,0,89.9c0,2.39-.54,3.15-3.05,3.14q-33-.15-65.93,0c-2.87,0-3.13-1.08-3.12-3.46C210.8,552.5,210.75,537.64,210.75,522.78Z" transform="translate(-125.83 -210.36)"/><path class="cls-6" d="M330.75,522.66c0-14.87.06-29.74-.06-44.61,0-2.56.55-3.38,3.25-3.36q32.81.17,65.61,0c2.7,0,3.26.79,3.26,3.35q-.13,44.81,0,89.6c0,2.37-.52,3.18-3.06,3.17q-33-.15-66,0c-2.53,0-3.08-.79-3.06-3.16C330.8,552.65,330.75,537.66,330.75,522.66Z" transform="translate(-125.83 -210.36)"/><path class="cls-7" d="M306.74,570.63c-3.85,0-8.76,1.37-11.25-.48s-.7-7-.71-10.68c-.06-27.1,0-54.21-.1-81.31,0-2.78.6-3.76,3.46-3.47s5.73.14,8.6.18Z" transform="translate(-125.83 -210.36)"/><path class="cls-8" d="M306.74,570.63V474.87c3.85,0,8.75-1.37,11.25.48s.72,7,.73,10.68c.06,27.1,0,54.21.1,81.31,0,2.8-.65,3.75-3.48,3.46S309.61,570.67,306.74,570.63Z" transform="translate(-125.83 -210.36)"/><path class="cls-9" d="M238.5,284.18c15.13-4.14,30.24-8.33,45.39-12.42,16.6-4.49,33.24-8.83,49.83-13.39,2.6-.71,3.75-.34,4.39,2.4,1.34,5.7,3,11.33,4.48,17,.42,1.6.93,2.92-1.59,3.59q-47.53,12.6-95,25.41a8.07,8.07,0,0,1-1.48.09A204,204,0,0,0,238.5,284.18Z" transform="translate(-125.83 -210.36)"/><path class="cls-10" d="M238.5,284.18a204,204,0,0,1,6,22.67c-11.12,3.73-22.55,6.32-33.84,9.41-20.32,5.56-40.71,10.83-61,16.38-2.72.75-3.66.2-4.28-2.5-1.34-5.83-2.94-11.6-4.6-17.34-.53-1.8-.5-2.56,1.6-3.12q47.34-12.6,94.64-25.35A9.18,9.18,0,0,1,238.5,284.18Z" transform="translate(-125.83 -210.36)"/><path class="cls-11" d="M432.21,247.83c10,.86,15.58-3.66,18.53-12.57,3,8.83,8.47,13.52,18.19,13-7.6,5.57-10.18,12.37-6.32,21.6-4.63-2-8.24-4.78-11.84-4.77s-7.21,2.79-11.08,4.48c.4-4.3,1.92-8.59.82-12.06S435.68,251.67,432.21,247.83Z" transform="translate(-125.83 -210.36)"/><path class="cls-12" d="M306.74,365.18l-7.93,3.72c2.49-6.22.76-10.69-4.1-14.28a8.19,8.19,0,0,1,1.6-.57c4.41-.21,7.87-1.75,9.27-6.37.15-.49.36-1.22,1.17-1.22Q306.75,355.82,306.74,365.18Z" transform="translate(-125.83 -210.36)"/><path class="cls-11" d="M306.74,365.18q0-9.36,0-18.72c.28.2.71.35.8.61,1.76,4.93,5.25,7.29,10.81,6.81-1,3.05-4.11,4.2-4.67,6.55s.18,5.12.38,8.08Z" transform="translate(-125.83 -210.36)"/><path class="cls-9" d="M390.62,288.77a6,6,0,1,1-5.84,6A6,6,0,0,1,390.62,288.77Z" transform="translate(-125.83 -210.36)"/><path class="cls-13" d="M444.74,372.69a6,6,0,1,1-6-5.93A6,6,0,0,1,444.74,372.69Z" transform="translate(-125.83 -210.36)"/><path class="cls-13" d="M222.74,408.94a6,6,0,1,1-5.72-6.18A6,6,0,0,1,222.74,408.94Z" transform="translate(-125.83 -210.36)"/><path class="cls-11" d="M378.88,414.77a6,6,0,1,1-6.12,5.74A6,6,0,0,1,378.88,414.77Z" transform="translate(-125.83 -210.36)"/></svg>