<svg id="Layer_1" data-name="Layer 1" xmlns="http://www.w3.org/2000/svg" viewBox="0 0 384 384"><defs><style>.cls-1{fill:#030302;}.cls-2{fill:#010101;}.cls-3{fill:#020303;}.cls-4{fill:#9e512d;}.cls-5{fill:#7d8c92;}.cls-6{fill:#7e8d93;}.cls-7{fill:#9d9d9d;}.cls-8{fill:#535b5f;}.cls-9{fill:#6d6d6d;}.cls-10{fill:#5f7c8a;}.cls-11{fill:#37464e;}.cls-12{fill:#02a6ef;}.cls-13{fill:#010203;}.cls-14{fill:#f79301;}</style></defs><title>mineral</title><path class="cls-1" d="M202.5,204.75c3.8,1.56,7.91,1.37,11.87,2a235.46,235.46,0,0,1,55.1,16.17c1.86.79,3.29,1,5.18,0a9.21,9.21,0,0,1,7.65-.6c2.61,1,3.37-.1,4.39-2.17,6.52-13.15,16.55-16.46,29.62-9.92,2.78,1.4,5.58,2.77,8.34,4.22,10.42,5.46,14,16.1,8.77,26.61-1.55,3.1-3,5.57,1,7.86a5.32,5.32,0,0,1,2.52,4c.25,3.92,3.12,5.2,5.91,6.88,25.4,15.28,48.13,33.57,65,58.31,12.71,18.62,19.82,39,18.84,61.87-.35,8.18-6.11,14.08-13.64,13.8-4.11-.16-6.87-2.5-9.38-5.46a299,299,0,0,0-59.4-53.52,307.38,307.38,0,0,0-32.75-19.52,4.33,4.33,0,0,0-4.47-.18,9.23,9.23,0,0,1-8,.56c-2.56-1.12-3.15.25-4,2q-18.84,37.78-37.76,75.54-29.59,59.16-59.21,118.31c-7.77,15.46-26,19.85-39.15,9.59-9.67-7.55-12.5-20.48-6.78-32,9.84-19.89,19.81-39.71,29.73-59.56q33.61-67.21,67.26-134.42c1.08-2.15,1.62-3.55-1-5.05a8,8,0,0,1-3.78-5.81c-.36-2.66-2-3.62-4.14-4.63a296,296,0,0,0-111.81-29.22c-6.56-.39-11-3.12-13.73-9V234a35.61,35.61,0,0,1,7.46-8.53,97.75,97.75,0,0,1,37.46-17.75c4.75-1.16,9.71-1.23,14.33-3Zm75.85,32.3c-6.87,13.66-13.67,27.35-20.66,40.95-1.14,2.23-.44,3,1.42,3.89,6.93,3.37,13.77,6.93,20.71,10.27,4.46,2.16,8.68,4.82,13.43,6.36,2,1.81,4.6,2.41,6.79,3.79,1.72,1.07,2.59.58,3.44-1.14Q313.7,280.55,324.07,260c1-2,.42-2.8-1.38-3.69q-20.62-10.22-41.15-20.61C279.73,234.78,278.77,235.09,278.35,237.05ZM400.5,365.32l13.33,14.86c.94-18.67-4.6-37.1-16.29-54.21-16-23.37-37.51-40.55-61.36-55.18-2.74-1.68-3.48-.15-4.07,2.06-4.57,9-9,18-13.79,26.95-1.5,2.82-1.27,4.07,1.73,5.62a307.65,307.65,0,0,1,49.84,32.38C380.68,346.33,390.56,355.85,400.5,365.32ZM161.93,501.09a12.54,12.54,0,0,0,9.82,12.72c6.25,1.45,11.59-1.32,14.85-7.85q24.83-49.57,49.61-99.16,23.63-47.24,47.32-94.43c1.3-2.6,1-3.72-1.67-4.93-5.68-2.58-11.26-5.4-16.74-8.38-2.33-1.27-3.23-.89-4.4,1.47q-48.42,97-97,194C162.68,496.66,161.75,498.85,161.93,501.09ZM128.26,237.23c8,.81,15,1.34,22,2.29a314.2,314.2,0,0,1,94.55,28.22c2.27,1.09,3.35,1,4.53-1.48q6.87-14.33,14.22-28.44c1.33-2.54.62-3.23-1.7-4.17a229.94,229.94,0,0,0-47-13.61c-19.63-3.35-39.22-3.86-58.55,2A75.66,75.66,0,0,0,128.26,237.23Zm177.37-17.48c-3.89.1-8.43,5-8.58,8.43-.06,1.22.84,1.44,1.56,1.81,6.24,3.15,12.5,6.26,18.76,9.38.74.37,1.43,1,2.39.31,4.3-3,4.12-10.89-.49-13.53-3.67-2.11-7.55-3.87-11.37-5.72A11.43,11.43,0,0,0,305.63,219.75Z" transform="translate(-114.75 -204.75)"/><path class="cls-2" d="M183,588.75c-4.47-3.44-5-4.9-3.32-10.51,7.78-26.66,26.6-40.56,52.95-45.67A74.5,74.5,0,0,1,249,531c1.91.06,2.81-.68,3.73-2.28,8.51-14.84,24.09-22,41-18.82,2.13.4,3.18.09,4.26-2.05,14.75-29.22,39.29-43.73,71.18-47.1,2.54-.27,4.61.7,6.67,1.94,7,4.19,14.27,7.55,22.37,9.13,14.87,2.91,25.3-6.78,29.32-16.67a17.3,17.3,0,0,1,6.66-8.15c13-9,16.43-23,9.1-38-2-4.07-2-7.5-.49-11.69,9.26-26.45,7.41-52.24-5.36-77.2-3.7-7.23-3.45-9.61,2.31-15.52,5.36-5.51,12.18-8.09,19.54-9.45a5.68,5.68,0,0,0,4.46-3.22,49.6,49.6,0,0,1,23.9-21.81c5.46-2.45,7.5-1.9,11.12,2.83V579.75c-2.32,4-5.32,7.28-9.75,9Zm290.16-12.89a70.52,70.52,0,0,1,8.23.19c3.93.52,4.68-1.06,4.68-4.75q-.15-140.23-.08-280.47c0-.75,0-1.5,0-2.25,0-1.69-.4-2.52-2.1-1.16-5.07,4.06-9,8.9-10.66,15.33-1.93,3.41-5,4.57-8.75,4.67-4.46.11-8.48,1.8-12.36,3.92-2.61,1.43-3.26,2.87-1.83,5.91q18.54,39.28,5.7,80.88a12.32,12.32,0,0,0,.22,8.88c8.22,20.85,1.22,40.65-14.93,50.78-1.41.89-1.85,2.3-2.44,3.65A38.77,38.77,0,0,1,398,484.67a67.23,67.23,0,0,1-24.87-8.83,13.47,13.47,0,0,0-9.27-1.75,73.09,73.09,0,0,0-21.05,6.35c-16.72,8.25-28.69,20.93-35.65,38.28-2.21,5.5-5,7.28-9.65,5.33-14.35-6-30.81,1.58-35.79,15.35-1.16,3.2-3.58,4.61-7,4.44a85.26,85.26,0,0,0-16.82.62c-14.12,2.14-26.7,7.25-36.15,18.49a41.91,41.91,0,0,0-7.58,13H469.41C470.66,576,471.91,575.9,473.16,575.86Z" transform="translate(-114.75 -204.75)"/><path class="cls-3" d="M348.79,447.84c-11.6.14-20.83-8.56-22.62-20.72-2.23-15.19,7.7-23.72,18.4-28.19,5-2.09,10.18-3.38,15.64-1.55a11.75,11.75,0,0,1,4.63,2.35c8.32,8.17,12.85,18.13,11.89,29.79-.61,7.28-5.94,11.93-12.37,14.84A36.85,36.85,0,0,1,348.79,447.84Zm2.54-12.79c2.91-.14,6.8-1.78,10.43-4.05a5.43,5.43,0,0,0,2.44-6.18c-.91-4.33-3-8.17-4.83-12.13-1.29-2.75-3.32-3.56-6.09-3a22,22,0,0,0-11.47,5.94c-3.41,3.34-4,8.08-1.86,13.15C342,433.5,344.49,435.08,351.33,435.05Z" transform="translate(-114.75 -204.75)"/><path class="cls-4" d="M161.93,501.09c-.18-2.24.75-4.43,1.82-6.56q48.51-97,97-194c1.17-2.36,2.07-2.74,4.4-1.47,5.48,3,11.06,5.8,16.74,8.38,2.69,1.21,3,2.33,1.67,4.93q-23.77,47.16-47.32,94.43Q211.4,456.38,186.6,506c-3.26,6.53-8.6,9.3-14.85,7.85A12.54,12.54,0,0,1,161.93,501.09Z" transform="translate(-114.75 -204.75)"/><path class="cls-5" d="M128.26,237.23A75.66,75.66,0,0,1,156.39,222c19.33-5.83,38.92-5.32,58.55-2a229.94,229.94,0,0,1,47,13.61c2.32.94,3,1.63,1.7,4.17q-7.38,14.09-14.22,28.44c-1.18,2.45-2.26,2.57-4.53,1.48a314.2,314.2,0,0,0-94.55-28.22C143.3,238.57,136.25,238,128.26,237.23Z" transform="translate(-114.75 -204.75)"/><path class="cls-6" d="M400.5,365.32c-9.94-9.47-19.82-19-30.61-27.52a307.65,307.65,0,0,0-49.84-32.38c-3-1.55-3.23-2.8-1.73-5.62,4.75-8.9,9.22-17.95,13.79-26.95,20.76,14.18,39.34,30.62,53.1,51.93C393.2,337.17,398.77,350.54,400.5,365.32Z" transform="translate(-114.75 -204.75)"/><path class="cls-7" d="M293.25,298.52c-4.75-1.54-9-4.2-13.43-6.36-6.94-3.34-13.78-6.9-20.71-10.27-1.86-.91-2.56-1.66-1.42-3.89,7-13.6,13.79-27.29,20.66-40.95,9.83,4,19,9.32,28.58,13.93,5.49,2.65,6.48,5.74,3.78,11.16q-8,16.11-16.06,32.19C294,295.66,293.08,296.91,293.25,298.52Z" transform="translate(-114.75 -204.75)"/><path class="cls-8" d="M400.5,365.32c-1.73-14.78-7.3-28.15-15.29-40.54-13.76-21.31-32.34-37.75-53.1-51.93.59-2.21,1.33-3.74,4.07-2.06C360,285.42,381.58,302.6,397.54,326c11.69,17.11,17.23,35.54,16.29,54.21Z" transform="translate(-114.75 -204.75)"/><path class="cls-9" d="M293.25,298.52c-.17-1.61.74-2.86,1.4-4.19q8-16.09,16.06-32.19c2.7-5.42,1.71-8.51-3.78-11.16-9.54-4.61-18.75-9.91-28.58-13.93.42-2,1.38-2.27,3.19-1.35q20.54,10.38,41.15,20.61c1.8.89,2.39,1.68,1.38,3.69q-10.41,20.52-20.59,41.17c-.85,1.72-1.72,2.21-3.44,1.14C297.85,300.93,295.22,300.33,293.25,298.52Z" transform="translate(-114.75 -204.75)"/><path class="cls-4" d="M305.63,219.75a11.43,11.43,0,0,1,2.27.68c3.82,1.85,7.7,3.61,11.37,5.72,4.61,2.64,4.79,10.56.49,13.53-1,.67-1.65.06-2.39-.31-6.26-3.12-12.52-6.23-18.76-9.38-.72-.37-1.62-.59-1.56-1.81C297.2,224.71,301.74,219.85,305.63,219.75Z" transform="translate(-114.75 -204.75)"/><path class="cls-10" d="M473.16,575.86c-1.25,0-2.5.11-3.75.11H194.12a41.91,41.91,0,0,1,7.58-13c9.45-11.24,22-16.35,36.15-18.49a85.26,85.26,0,0,1,16.82-.62c3.44.17,5.86-1.24,7-4.44,5-13.77,21.44-21.4,35.79-15.35,4.63,2,7.44.17,9.65-5.33,7-17.35,18.93-30,35.65-38.28a73.09,73.09,0,0,1,21.05-6.35,13.47,13.47,0,0,1,9.27,1.75A67.23,67.23,0,0,0,398,484.67a38.77,38.77,0,0,0,40.87-23.23c.59-1.35,1-2.76,2.44-3.65,16.15-10.13,23.15-29.93,14.93-50.78a12.32,12.32,0,0,1-.22-8.88q12.86-41.5-5.7-80.88c-1.43-3-.78-4.48,1.83-5.91,3.88-2.12,7.9-3.81,12.36-3.92,3.76-.1,6.82-1.26,8.75-4.66q0,88.53,0,177.06c0,1.3.53,2.76-.66,3.89a41.31,41.31,0,0,0-7.93-8.4,6.26,6.26,0,0,0-8.78.28c-2.39,2.5-2.51,5.94,0,8.8a74.17,74.17,0,0,0,5.78,5.85c4,3.72,7.75,3.22,10.82-1.34,1,.67.83,1.74.83,2.71Q473.2,533.73,473.16,575.86ZM362.8,545.55c-1.64-5.86-2.81-12.87-6.58-18.8-2.83-4.45-7.49-6.19-12.75-4.85a135,135,0,0,0-14.26,4.41,12.29,12.29,0,0,0-7.59,15.16c1.2,4.44,2.53,8.87,4.1,13.19a12.56,12.56,0,0,0,15.71,7.87c4.19-1.19,8.37-2.46,12.48-3.89C359.37,556.72,362.8,551.88,362.8,545.55Zm86.5-17.91c-.42-5.79-2.55-10.14-7.51-12.16a104.68,104.68,0,0,0-15.3-4.77,11.93,11.93,0,0,0-14.1,7.67A141.23,141.23,0,0,0,408,532.25a12.35,12.35,0,0,0,7.9,15c4.45,1.61,9,3,13.55,4.23,5.18,1.41,10.75-.45,13.42-5C446.35,540.56,447.62,533.75,449.3,527.64Zm-162,22.81a6.31,6.31,0,0,0-10.48-4.79,89.45,89.45,0,0,0-6.88,6.89,6.42,6.42,0,0,0,.23,8.83,6.16,6.16,0,0,0,8.78.07c2.41-2.17,4.62-4.57,6.88-6.9A5.22,5.22,0,0,0,287.34,550.45Zm102.57-41.91H390c0-.74,0-1.49,0-2.24-.15-4.46-2.56-7-6.55-7-3.83,0-6.12,2.54-6.22,6.86,0,2-.09,4,0,6a6.08,6.08,0,0,0,5.86,6.1,6.32,6.32,0,0,0,6.78-5.61A29.63,29.63,0,0,0,389.91,508.54Z" transform="translate(-114.75 -204.75)"/><path class="cls-11" d="M472.55,483.71c1.19-1.13.66-2.59.66-3.89q0-88.53,0-177.06c1.65-6.44,5.59-11.28,10.66-15.34,1.7-1.36,2.11-.53,2.1,1.16,0,.75,0,1.5,0,2.25q0,140.24.08,280.47c0,3.69-.75,5.27-4.68,4.75a70.52,70.52,0,0,0-8.23-.19q0-42.14.07-84.25c0-1,.19-2-.83-2.71A9.54,9.54,0,0,0,472.55,483.71Z" transform="translate(-114.75 -204.75)"/><path class="cls-12" d="M351.33,435.05c-6.84,0-9.33-1.55-11.38-6.31-2.18-5.07-1.55-9.81,1.86-13.15a22,22,0,0,1,11.47-5.94c2.77-.52,4.8.29,6.09,3,1.84,4,3.92,7.8,4.83,12.13a5.43,5.43,0,0,1-2.44,6.18C358.13,433.27,354.24,434.91,351.33,435.05Z" transform="translate(-114.75 -204.75)"/><path class="cls-13" d="M362.8,545.55c0,6.33-3.43,11.17-8.89,13.09-4.11,1.43-8.29,2.7-12.48,3.89a12.56,12.56,0,0,1-15.71-7.87c-1.57-4.32-2.9-8.75-4.1-13.19a12.29,12.29,0,0,1,7.59-15.16,135,135,0,0,1,14.26-4.41c5.26-1.34,9.92.4,12.75,4.85C360,532.68,361.16,539.69,362.8,545.55ZM344.86,534.6c-3.5,1.21-7.6,1.7-10.28,3.91-1.45,1.19,1.2,4.9,1.78,7.53.15.73.46,1.42.62,2.15.37,1.7,1.2,2,2.92,1.56,10.34-2.6,10.75-3.32,6.85-13.24C346.4,535.62,346.4,534.41,344.86,534.6Z" transform="translate(-114.75 -204.75)"/><path class="cls-2" d="M449.3,527.64c-1.68,6.11-2.95,12.92-6.43,18.87-2.67,4.54-8.24,6.4-13.42,5-4.56-1.25-9.1-2.62-13.55-4.23a12.35,12.35,0,0,1-7.9-15,141.23,141.23,0,0,1,4.39-13.87,11.93,11.93,0,0,1,14.1-7.67,104.68,104.68,0,0,1,15.3,4.77C446.75,517.5,448.88,521.85,449.3,527.64Zm-13.26.58c.18-1.15-.3-1.48-.94-1.68l-9.26-2.93c-1.14-.36-1.68,0-2.22,1.21-4.41,9.6-4.19,10.19,5.62,13.32.71.23,1.44.41,2.14.67s1.19.12,1.43-.63Z" transform="translate(-114.75 -204.75)"/><path class="cls-13" d="M472.55,483.71a9.54,9.54,0,0,1-.15,5.19c-3.07,4.56-6.85,5.06-10.82,1.34a74.17,74.17,0,0,1-5.78-5.85c-2.47-2.86-2.35-6.3,0-8.8a6.26,6.26,0,0,1,8.78-.28A41.31,41.31,0,0,1,472.55,483.71Z" transform="translate(-114.75 -204.75)"/><path class="cls-13" d="M287.33,550.44a5.19,5.19,0,0,1-1.46,4.11c-2.26,2.33-4.47,4.73-6.88,6.9a6.16,6.16,0,0,1-8.78-.07,6.42,6.42,0,0,1-.23-8.83,89.45,89.45,0,0,1,6.88-6.89,6.3,6.3,0,0,1,10.47,4.78Z" transform="translate(-114.75 -204.75)"/><path class="cls-13" d="M389.91,508.54a29.63,29.63,0,0,1,0,4.11,6.32,6.32,0,0,1-6.78,5.61,6.08,6.08,0,0,1-5.86-6.1c-.12-2-.08-4,0-6,.1-4.32,2.39-6.82,6.22-6.86,4,0,6.4,2.53,6.55,7,0,.75,0,1.5,0,2.24Z" transform="translate(-114.75 -204.75)"/><path class="cls-12" d="M344.86,534.6c1.54-.19,1.54,1,1.89,1.91,3.9,9.92,3.49,10.64-6.85,13.24-1.72.44-2.55.14-2.92-1.56-.16-.73-.47-1.42-.62-2.15-.58-2.63-3.23-6.34-1.78-7.53C337.26,536.3,341.36,535.81,344.86,534.6Z" transform="translate(-114.75 -204.75)"/><path class="cls-14" d="M436,528.22l-3.23,10c-.24.75-.72.88-1.43.63s-1.43-.44-2.14-.67c-9.81-3.13-10-3.72-5.62-13.32.54-1.18,1.08-1.57,2.22-1.21l9.26,2.93C435.74,526.74,436.22,527.07,436,528.22Z" transform="translate(-114.75 -204.75)"/></svg>