<svg id="Layer_1" data-name="Layer 1" xmlns="http://www.w3.org/2000/svg" viewBox="0 0 286.47 384"><defs><style>.cls-1{fill:#030303;}.cls-2{fill:#01cff9;}.cls-3{fill:#ebf1f2;}.cls-4{fill:#fad59a;}.cls-5{fill:#f9c46b;}.cls-6{fill:#ecf2f3;}.cls-7{fill:#d4e4e9;}.cls-8{fill:#fab23f;}.cls-9{fill:#08a8ef;}.cls-10{fill:#b3c1cc;}.cls-11{fill:#98acb4;}.cls-12{fill:#fa616c;}.cls-13{fill:#edbd6e;}.cls-14{fill:#f89601;}</style></defs><title>paper</title><path class="cls-1" d="M315,204.75a51.41,51.41,0,0,1,6,2.31c7.55,4,11.72,10.26,12.05,18.89.07,1.87,0,3.75-.09,5.63-.19,4.4-1,8.8,3.5,12.06,1.87,1.35,2.33,4.2,2.15,6.57s.95,2.82,3,2.93c2.6.14,5.24,0,7.79.87a15.88,15.88,0,0,1,11.39,16.19c-.52,15.74-1.26,31.47-1.93,47.2q-.45,10.68-1,21.35c-.23,4.38-2.41,6.65-6.05,6.42-3.41-.21-5.43-2.69-5.25-6.85.93-21.73,2-43.45,2.86-65.18.32-7.44-2.68-9.93-10-8.82-1.86.29-1.31,1.55-1.37,2.49q-.64,11.61-1.16,23.21c-1.42,33.09-2.79,66.18-4.29,99.27-.11,2.42.55,3,2.83,2.91,5.5-.15,11-.1,16.5,0,1.75,0,2.57-.44,3.12-2.26q10.16-33.45,20.49-66.83a2.92,2.92,0,0,0-.91-3.58c-3.73-3.24-4.44-7.4-2.84-11.91,1.86-5.23,2.13-11.09,6.17-15.45.83-.9,0-1.93-.22-2.83-4.77-16.05-.21-29.53,11.52-40.85,5.69-5.48,11.37-10.91,14.87-18.14a39.18,39.18,0,0,0,3.14-10.73c1.11-6.77,5.06-8.91,11.26-6.23C442,223.53,452,245.49,449.66,269.44c-1.41,14.43-6.33,27.43-17.59,37.32a2.41,2.41,0,0,0-1,2.2c.42,6.44-2.48,12.13-4.46,18-1.19,3.5-4.27,5.56-8,6-1.64.18-2.39.68-2.86,2.21q-8.34,27.54-16.76,55.07a14.3,14.3,0,0,0-.28,2c8.43,0,16.67,0,24.91,0,7.39,0,11.23,3.89,11.31,11.35,0,3,.05,6,0,9-.18,10-5.87,17.71-15.45,20.58-1.81.54-2.53,1.19-2.71,3.15-1.59,18-3.31,36.07-5,54.11q-3.62,38.8-7.2,77.61c-.15,1.62-.33,3.24-.36,4.86-.11,7.54-3.19,13.09-10.44,15.93H207c-7.36-3.65-10-9.93-9.81-17.75a25.18,25.18,0,0,0-.27-3l-6.42-69.37c-1.9-20.52-3.84-41-5.65-61.55-.21-2.39-.86-3.53-3.38-4.26a20.49,20.49,0,0,1-14.84-19.43c-.13-3.62-.12-7.25,0-10.87.19-6.18,3.75-9.94,10-10.31,2.09-.13,2.38-.66,2.16-2.65-2-18.12-3.81-36.25-5.74-54.38q-4.68-43.76-9.41-87.5c-.7-6.6,2.57-10.89,9.21-11.66q26.22-3,52.5-5.68c5.8-.58,10.2,3.19,10.83,9,2.59,23.83,5.07,47.67,7.6,71.5,1,9,2,18.07,2.93,27.1a13.74,13.74,0,0,0,1.53-4.68c3.74-20.74,7.41-41.5,11.25-62.22A14.09,14.09,0,0,1,274,259.51c2.48.05,5.65,2.3,7.2.2,1.31-1.78.6-5.06.75-7.68.07-1.24,0-2.5.13-3.74.22-3,1-6.07,3.49-7.58,3.81-2.35,3.76-5.75,3.85-9.34.05-2,0-4,.2-6,.9-9.29,5.62-15.75,14.32-19.32.95-.39,2.32,0,2.86-1.31Zm-3,32.58c9.57,1.28,9.57,1.28,9.77-8.05,0-1,.06-2,0-3-.26-6.49-5.52-10.77-12.11-9.88-7.49,1.71-10.71,7.52-8.84,18.94.65,4,5.74.8,8.59,1.95A7.13,7.13,0,0,0,312,237.33Zm97.46,81.91a20.26,20.26,0,0,0,2.09.78c5.78,1.5,4.71,2.57,6.62-3.54,1.6-5.11,1.58-5.12-3.53-6.62-.94-.28-1.9-.49-2.86-.73q-9.27-2.91-18.56-5.81c-7.94-2.47-7.85-2.44-10.05,5.67-.5,1.86,0,2.4,1.57,2.86C393,314.29,401.19,316.78,409.43,319.24ZM283.5,324.73c5.2,1.6,5.21,1.6,6.22-3.7.5-2.66.95-5.33,1.44-8,.94-5.22.95-5.22-4.64-5.58-6.45-1.24-12.9-2.46-19.35-3.71-1.48-.28-2.23,0-2.48,1.75-.64,4.42-1.43,8.83-2.33,13.21-.34,1.65-.18,2.56,1.67,2.85C270.53,322.57,277,323.66,283.5,324.73ZM386,328.32q-9.49,30.68-19,61.34c-.64,2.07,0,2.62,2.06,2.53,3.73-.17,7.47-.14,11.21-.18,2.29-.46,5.58,2,6.74-1.72,6-19.33,11.92-38.71,17.89-58.06.51-1.66.1-2.49-1.63-3a130.1,130.1,0,0,1-12.46-3.85C387.51,324.14,386.14,325,386,328.32Zm-71.71,16.07-14.57-.82c-1.44-.09-2.45-.11-2.8,1.91-2.57,14.85-5.3,29.67-8,44.49-.29,1.55,0,2.25,1.8,2.22,7.11-.14,14.22-.14,21.32-.19,2,.05,4-.05,6,.19,2.68.34,3.31-.84,3.39-3.31.43-11.86.92-23.72,1.58-35.58C323.44,344.11,323.57,344.11,314.24,344.39Zm0-11.57c2.25.11,4.5.08,6.73.35s2.94-.63,3-2.88c.95-24.08,2-48.15,3-72.23.36-9.09.24-9.09-9-8.87-7.22-.33-14.44-.6-21.65-1-2.21-.13-3.19.45-3.11,2.83a46.86,46.86,0,0,1-.34,8.21c-.41,2.85.38,3.79,3.34,4.27,9.14,1.5,13.79,8.43,12.18,17.63-2.83,16.18-5.67,32.36-8.66,48.51-.42,2.25,0,2.75,2.18,2.76C306,332.37,310.12,332.65,314.22,332.82Zm-32.94,3.37c-6.25-1.13-12.53-2.14-18.74-3.45-2.15-.46-2.76,0-3.12,2.13-1.58,9.46-3.52,18.87-5,28.34-1.38,8.55-4.13,17-2.4,25.87.43,2.23.9,3.25,3.41,3.13,5.36-.24,10.73-.16,16.09-.21,5.42.36,5.49.37,6.41-4.73q4-22.25,7.94-44.53C286.84,337,286.81,337,281.28,336.19Zm137.23-37.1c2.26,1.44,4.16.82,6.07-.82a30.55,30.55,0,0,0,6.73-8c7.65-13.46,9.52-27.66,4.9-42.49a37,37,0,0,0-16.43-21c-1-.6-2.29-1.83-2.29.75a57.58,57.58,0,0,1-13.31,22.22c-2.6,2.68-5.39,5.18-8,7.81-8.74,8.67-11.22,19.76-6.84,30.46.62,1.5,1.24,2.7,3.16,3.24C401.18,293.73,409.83,296.45,418.51,299.09ZM338.24,473.36q-42.71-.06-85.42-.18c-2.18,0-2.38.86-2.36,2.61.06,8.37.13,16.74,0,25.11,0,2.52.74,3.08,3.14,3.05,12.11-.11,24.23,0,36.35-.05l48.32-.15c3.36.05,6.73,0,10.09.19,2.1.13,2.81-.49,2.75-2.67-.15-5.36,0-10.73-.06-16.09,0-3.85-.13-7.7-.2-11.54C346.64,472.8,342.43,473.31,338.24,473.36Zm42.76-4.1c6.12,0,12.24-.06,18.36.21,2.63.12,3.12-1,3.3-3.22.75-9.34,1.38-18.7,2.55-28,.5-4-.8-4.4-4.25-4.39-28.87.13-57.74.08-86.62.07-5.46,0-6.61-.83-8.23-5.69,1.57-4.77,2.77-5.68,7.84-5.69q32.6,0,65.2,0c3.61,0,7.23-.14,10.84-.22,6,.07,12-.07,17.92.26,15.57.89,16-5.83,15.7-16.64-.05-2-.69-2.55-2.6-2.52-9.34.12-18.68.12-28,.17-.87,0-1.74-.14-2.62-.14H181.54c-.75,0-1.5,0-2.25,0s-1.18.52-1.38,1.39c-2.62,11.36,2.34,17.69,13.91,17.69h92.23c5.15,0,6.43,1,7.8,5.69-1.37,4.69-2.68,5.68-7.8,5.69H200.47c-.88,0-1.75,0-2.63,0-1.44,0-1.94.51-1.75,2,.63,5.19,1.13,10.39,1.67,15.59s.84,10.2,1.11,15.31c.12,2.19,1.17,2.57,3.12,2.56,11.75-.08,23.49-.05,35.24,0,1.44,0,2.49-.14,3.3-1.66,2.19-4.15,5.81-5.88,10.48-5.88q49.68.06,99.34,0c4.65,0,8.27,1.64,10.57,5.75a2.84,2.84,0,0,0,2.85,1.81C369.51,469.29,375.25,469.3,381,469.26Zm-7.54,80.84c-1.37-.05-2.73-.15-4.09-.15q-27.06,0-54.12,0c-4.86,0-6.12-1-7.38-5.58,1.2-4.61,2.69-5.74,7.68-5.76l59.44-.16c6.23.05,12.47.05,18.7.19,1.81,0,2.26-.65,2.41-2.35q2.41-26.64,5-53.26c.18-1.86-.36-2.38-2.18-2.34-6.24.13-12.47.13-18.71.17-5.12,0-10.24,0-15.36-.19-2.34-.1-2.6,1-2.57,2.89.09,6.62.07,13.24,0,19.87-.06,7.13-4.58,11.78-11.69,11.79q-49.87.07-99.74,0c-7.13,0-11.65-4.64-11.7-11.78-.06-6.62-.12-13.25,0-19.87.06-2.35-.67-2.93-2.94-2.91q-16.69.17-33.38,0c-2.12,0-2.75.5-2.53,2.71,1.72,17.28,3.44,34.56,4.85,51.86.26,3.22,1.59,3.4,4.11,3.4q38.07-.11,76.12,0c5,0,6.23,1,7.8,5.77-1.67,4.88-2.6,5.57-7.9,5.58-25,0-50,.06-75-.07-3,0-3.82.79-3.46,3.77.75,6.32,1.33,12.67,1.67,19,.21,3.81,1.72,4.87,5.56,4.86,49-.14,98-.09,146.94-.1,3.37,0,6.75-.08,10.12-.12,6,.05,11.93,0,17.89.19,2.46.07,3.33-1,3.52-3.24.63-7.3,1.27-14.61,2-21.91.17-1.72-.25-2.5-2.14-2.46C386.13,550,379.79,550,373.46,550.1ZM227.24,392c3.61.05,7.24-.05,10.85.2,2.47.17,3.11-.77,2.65-3-.17-.86-.18-1.74-.27-2.61q-4-37.42-8-74.83c-2.34-22-4.71-43.94-7-65.91-.29-2.92-.86-4.58-4.38-3.72a73.1,73.1,0,0,1-8.9,1.11c-11.67,1.19-23.34,2.4-35,3.56-1.54.15-2.2.62-2,2.34.62,4.82,1.13,9.67,1.55,14.52.15,1.7.52,2.43,2.46,2.05a65.87,65.87,0,0,1,7.44-.83c3.57-.27,6.34,1.9,6.68,5.11.32,3-1.8,5.56-5.28,6.1-2.46.38-5,.61-7.44.81-1.66.14-2.43.69-2.21,2.56.72,5.95,1.31,11.92,1.89,17.88.15,1.54.74,2.17,2.38,1.94a80.66,80.66,0,0,1,8.2-.79,5.48,5.48,0,0,1,6,5c.35,3.1-1.74,5.72-5.13,6.24a45.57,45.57,0,0,1-7.07.73c-2.47,0-2.9,1-2.58,3.2.53,3.71.73,7.46,1.14,11.18.29,2.59-.19,6,1.28,7.54,1.78,1.84,5.13-.36,7.84-.16.49,0,1-.09,1.49-.1,3.93-.14,6.32,1.72,6.55,5.06s-1.82,5.68-5.61,6.21c-2.47.34-5,.64-7.45.77-1.66.08-2.07.65-1.82,2.29.51,3.46.8,6.94,1.2,10.42.36,3.09-.32,7.19,1.4,9s5.81,0,8.86-.23c.25,0,.49-.09.74-.11,3.23-.14,5.78,1.77,6.26,4.69.52,3.19-1.28,5.81-4.73,6.47a77.92,77.92,0,0,1-7.8.92c-1.72.16-2.73.57-2.36,2.69.55,3.2.9,6.44,1.14,9.67.13,1.75.75,2.28,2.53,2.26C204.25,392.07,215.74,392.06,227.24,392ZM273.88,270.9c-2.5-.08-3.3,1.66-3.67,3.78-.88,5-1.64,10.07-2.65,15.07-.38,1.87-.17,2.57,1.91,2.9,7.5,1.19,15,2.56,22.42,4,1.68.33,2.25-.21,2.51-1.69,1-5.52,2-11,2.92-16.54a2.88,2.88,0,0,0-2.42-3.62C287.94,273.44,281,272.2,273.88,270.9Z" transform="translate(-163.53 -204.75)"/><path class="cls-2" d="M375,538.43l-59.44.16c-5,0-6.48,1.15-7.68,5.76H293.26c-1.57-4.81-2.82-5.76-7.8-5.77q-38.06,0-76.12,0c-2.52,0-3.85-.18-4.11-3.4-1.41-17.3-3.13-34.58-4.85-51.86-.22-2.21.41-2.73,2.53-2.71q16.69.13,33.38,0c2.27,0,3,.56,2.94,2.91-.16,6.62-.1,13.25,0,19.87.05,7.14,4.57,11.77,11.7,11.78q49.88.06,99.74,0c7.11,0,11.63-4.66,11.69-11.79.05-6.63.07-13.25,0-19.87,0-1.94.23-3,2.57-2.89,5.12.21,10.24.15,15.36.19.06,2.61-.71,5.12-.82,7.74-.27,6.42-.85,12.84-1.59,19.22Q376,523.09,375,538.43Z" transform="translate(-163.53 -204.75)"/><path class="cls-3" d="M227.24,392c-11.5.05-23,.06-34.48.18-1.78,0-2.4-.51-2.53-2.26-.24-3.23-.59-6.47-1.14-9.67-.37-2.12.64-2.53,2.36-2.69a77.92,77.92,0,0,0,7.8-.92c3.45-.66,5.25-3.28,4.73-6.47-.48-2.92-3-4.83-6.26-4.69-.25,0-.49.09-.74.11-3,.19-7.09,2.06-8.86.23s-1-5.89-1.4-9c-.4-3.48-.69-7-1.2-10.42-.25-1.64.16-2.21,1.82-2.29,2.49-.13,5-.43,7.45-.77,3.79-.53,5.85-2.86,5.61-6.21s-2.62-5.2-6.55-5.06c-.5,0-1,.13-1.49.1-2.71-.2-6.06,2-7.84.16-1.47-1.51-1-4.95-1.28-7.54-.41-3.72-.61-7.47-1.14-11.18-.32-2.23.11-3.21,2.58-3.2a45.57,45.57,0,0,0,7.07-.73c3.39-.52,5.48-3.14,5.13-6.24a5.48,5.48,0,0,0-6-5,80.66,80.66,0,0,0-8.2.79c-1.64.23-2.23-.4-2.38-1.94-.58-6-1.17-11.93-1.89-17.88-.22-1.87.55-2.42,2.21-2.56,2.48-.2,5-.43,7.44-.81,3.48-.54,5.6-3.07,5.28-6.1-.34-3.21-3.11-5.38-6.68-5.11a65.87,65.87,0,0,0-7.44.83c-1.94.38-2.31-.35-2.46-2.05-.42-4.85-.93-9.7-1.55-14.52-.23-1.72.43-2.19,2-2.34,11.68-1.16,23.35-2.37,35-3.56.55,6.68,1,13.37,1.68,20,.86,8.5,1.93,17,2.83,25.49.85,8,1.58,16,2.42,24.06.91,8.62,1.92,17.24,2.84,25.86.84,7.9,1.51,15.81,2.45,23.69C225.62,372.25,227.22,382.05,227.24,392Z" transform="translate(-163.53 -204.75)"/><path class="cls-4" d="M293.26,544.36h14.61c1.26,4.57,2.52,5.57,7.38,5.58q27.06,0,54.12,0c1.36,0,2.72.1,4.09.15-.16,9.12-1.64,18.13-2.24,27.21-3.37,0-6.75.12-10.12.12-49,0-98,0-146.94.1-3.84,0-5.35-1-5.56-4.86-.34-6.36-.92-12.71-1.67-19-.36-3,.43-3.78,3.46-3.77,25,.13,50,.08,75,.07C290.66,549.93,291.59,549.24,293.26,544.36Z" transform="translate(-163.53 -204.75)"/><path class="cls-2" d="M291.85,428.25c-1.37-4.71-2.65-5.69-7.8-5.69H191.82c-11.57,0-16.53-6.33-13.91-17.69.2-.87.49-1.37,1.38-1.39s1.5,0,2.25,0H390.37c.88,0,1.75.09,2.62.14-.06,6.39.95,13-3,18.73-3.61.08-7.23.22-10.84.22q-32.61,0-65.2,0c-5.07,0-6.27.92-7.84,5.69Z" transform="translate(-163.53 -204.75)"/><path class="cls-5" d="M291.85,428.25h14.26c1.62,4.86,2.77,5.69,8.23,5.69,28.88,0,57.75.06,86.62-.07,3.45,0,4.75.42,4.25,4.39-1.17,9.29-1.8,18.65-2.55,28-.18,2.19-.67,3.34-3.3,3.22-6.12-.27-12.24-.17-18.36-.21.93-2.27.75-4.65.75-7,0-7.89-2.85-10.74-10.85-10.74H325.55l-127.79.06c-.54-5.2-1-10.4-1.67-15.59-.19-1.53.31-2.08,1.75-2,.88,0,1.75,0,2.63,0h83.58C289.17,433.93,290.48,432.94,291.85,428.25Z" transform="translate(-163.53 -204.75)"/><path class="cls-6" d="M338.23,503.75l-48.32.15c-12.12,0-24.24-.06-36.35.05-2.4,0-3.19-.53-3.14-3.05.17-8.37.1-16.74,0-25.11,0-1.75.18-2.62,2.36-2.61q42.71.18,85.42.18Z" transform="translate(-163.53 -204.75)"/><path class="cls-4" d="M197.76,451.57l127.79-.06H370.9c8,0,10.85,2.85,10.85,10.74,0,2.36.18,4.74-.75,7-5.75,0-11.49,0-17.23.18a2.84,2.84,0,0,1-2.85-1.81c-2.3-4.11-5.92-5.75-10.57-5.75q-49.67.06-99.34,0c-4.67,0-8.29,1.73-10.48,5.88-.81,1.52-1.86,1.66-3.3,1.66-11.75,0-23.49-.06-35.24,0-2,0-3-.37-3.12-2.56C198.6,461.77,198.15,456.68,197.76,451.57Z" transform="translate(-163.53 -204.75)"/><path class="cls-7" d="M227.24,392c0-10-1.62-19.76-2.79-29.61-.94-7.88-1.61-15.79-2.45-23.69-.92-8.62-1.93-17.24-2.84-25.86-.84-8-1.57-16.05-2.42-24.06-.9-8.51-2-17-2.83-25.49-.67-6.67-1.13-13.36-1.68-20a73.1,73.1,0,0,0,8.9-1.11c3.52-.86,4.09.8,4.38,3.72,2.26,22,4.63,43.94,7,65.91q4,37.41,8,74.83c.09.87.1,1.75.27,2.61.46,2.22-.18,3.16-2.65,3C234.48,392,230.85,392.06,227.24,392Z" transform="translate(-163.53 -204.75)"/><path class="cls-4" d="M418.51,299.09c-8.68-2.64-17.33-5.36-26.05-7.84-1.92-.54-2.54-1.74-3.16-3.24-4.38-10.7-1.9-21.79,6.84-30.46,2.65-2.63,5.44-5.13,8-7.81a57.58,57.58,0,0,0,13.31-22.22c3.15,4.6,7.1,8.67,9.17,14,3.46,8.91,5.14,18,4,27.67C429.26,280.33,426,290.5,418.51,299.09Z" transform="translate(-163.53 -204.75)"/><path class="cls-8" d="M271.48,392c-5.36.05-10.73,0-16.09.21-2.51.12-3-.9-3.41-3.13-1.73-8.89,1-17.32,2.4-25.87,1.52-9.47,3.46-18.88,5-28.34.36-2.16,1-2.59,3.12-2.13,6.21,1.31,12.49,2.32,18.74,3.45a15,15,0,0,1-.08,2.23Q276.36,365.23,271.48,392Z" transform="translate(-163.53 -204.75)"/><path class="cls-9" d="M375,538.43q1-15.34,2.83-30.63c.74-6.38,1.32-12.8,1.59-19.22.11-2.62.88-5.13.82-7.74,6.24,0,12.47,0,18.71-.17,1.82,0,2.36.48,2.18,2.34q-2.6,26.63-5,53.26c-.15,1.7-.6,2.39-2.41,2.35C387.46,538.48,381.22,538.48,375,538.43Z" transform="translate(-163.53 -204.75)"/><path class="cls-10" d="M314.22,332.82c-4.1-.17-8.21-.45-12.31-.45-2.18,0-2.6-.51-2.18-2.76,3-16.15,5.83-32.33,8.66-48.51,1.61-9.2-3-16.13-12.18-17.63-3-.48-3.75-1.42-3.34-4.27a46.86,46.86,0,0,0,.34-8.21c-.08-2.38.9-3,3.11-2.83,7.21.43,14.43.7,21.65,1C317,277.08,316,305,314.22,332.82Z" transform="translate(-163.53 -204.75)"/><path class="cls-3" d="M312,392c-7.1.05-14.21.05-21.32.19-1.8,0-2.09-.67-1.8-2.22,2.71-14.82,5.44-29.64,8-44.49.35-2,1.36-2,2.8-1.91l14.57.82Q313.12,368.2,312,392Z" transform="translate(-163.53 -204.75)"/><path class="cls-8" d="M380.23,392c-3.74,0-7.48,0-11.21.18-2,.09-2.7-.46-2.06-2.53q9.53-30.66,19-61.34a51.78,51.78,0,0,1,9.61,2.93c2,.91,2.73,2.05,2,4.4C391.71,354.41,386,373.21,380.23,392Z" transform="translate(-163.53 -204.75)"/><path class="cls-11" d="M314.22,332.82C316,305,317,277.08,318,249.19c9.26-.22,9.38-.22,9,8.87-1,24.08-2.06,48.15-3,72.23-.09,2.25-.7,3.16-3,2.88S316.47,332.93,314.22,332.82Z" transform="translate(-163.53 -204.75)"/><path class="cls-12" d="M273.88,270.9c7.08,1.3,14.06,2.54,21,3.9a2.88,2.88,0,0,1,2.42,3.62c-.94,5.52-2,11-2.92,16.54-.26,1.48-.83,2-2.51,1.69-7.45-1.44-14.92-2.81-22.42-4-2.08-.33-2.29-1-1.91-2.9,1-5,1.77-10.05,2.65-15.07C270.58,272.56,271.38,270.82,273.88,270.9Z" transform="translate(-163.53 -204.75)"/><path class="cls-13" d="M371.22,577.31c.6-9.08,2.08-18.09,2.24-27.21,6.33-.06,12.67-.07,19-.21,1.89,0,2.31.74,2.14,2.46-.71,7.3-1.35,14.61-2,21.91-.19,2.21-1.06,3.31-3.52,3.24C383.15,577.31,377.18,577.36,371.22,577.31Z" transform="translate(-163.53 -204.75)"/><path class="cls-9" d="M390,422.32c3.95-5.77,2.94-12.34,3-18.73,9.34,0,18.68,0,28-.17,1.91,0,2.55.53,2.6,2.52.27,10.81-.13,17.53-15.7,16.64C402,422.25,396,422.39,390,422.32Z" transform="translate(-163.53 -204.75)"/><path class="cls-5" d="M418.51,299.09c7.45-8.59,10.75-18.76,12.11-29.91,1.18-9.69-.5-18.76-4-27.67-2.07-5.32-6-9.39-9.17-14,0-2.58,1.31-1.35,2.29-.75a37,37,0,0,1,16.43,21c4.62,14.83,2.75,29-4.9,42.49a30.55,30.55,0,0,1-6.73,8C422.67,299.91,420.77,300.53,418.51,299.09Z" transform="translate(-163.53 -204.75)"/><path class="cls-14" d="M380.23,392c5.76-18.8,11.48-37.6,17.32-56.36.73-2.35,0-3.49-2-4.4a51.78,51.78,0,0,0-9.61-2.93c.2-3.31,1.57-4.18,4.83-2.91a130.1,130.1,0,0,0,12.46,3.85c1.73.48,2.14,1.31,1.63,3C398.89,351.58,393,371,387,390.29,385.81,394,382.52,391.55,380.23,392Z" transform="translate(-163.53 -204.75)"/><path class="cls-7" d="M312,392q1.13-23.81,2.26-47.61c9.33-.28,9.2-.28,8.69,8.91-.66,11.86-1.15,23.72-1.58,35.58-.08,2.47-.71,3.65-3.39,3.31C316,392,314,392.05,312,392Z" transform="translate(-163.53 -204.75)"/><path class="cls-3" d="M283.5,324.73c-6.49-1.07-13-2.16-19.47-3.18-1.85-.29-2-1.2-1.67-2.85.9-4.38,1.69-8.79,2.33-13.21.25-1.73,1-2,2.48-1.75,6.45,1.25,12.9,2.47,19.35,3.71C286.14,313.32,284.71,319,283.5,324.73Z" transform="translate(-163.53 -204.75)"/><path class="cls-7" d="M338.23,503.75V473.36c4.19-.05,8.4-.56,12.57.28.07,3.84.18,7.69.2,11.54,0,5.36-.09,10.73.06,16.09.06,2.18-.65,2.8-2.75,2.67C345,503.74,341.59,503.8,338.23,503.75Z" transform="translate(-163.53 -204.75)"/><path class="cls-14" d="M271.48,392q4.86-26.78,9.72-53.58a15,15,0,0,0,.08-2.23c5.53.84,5.56.85,4.55,6.55q-3.93,22.27-7.94,44.53C277,392.37,276.9,392.36,271.48,392Z" transform="translate(-163.53 -204.75)"/><path class="cls-2" d="M409.43,319.24c-8.24-2.46-16.47-4.95-24.72-7.39-1.56-.46-2.07-1-1.57-2.86,2.2-8.11,2.11-8.14,10.05-5.67q9.29,2.88,18.56,5.81C412.15,312.77,409.85,315.79,409.43,319.24Z" transform="translate(-163.53 -204.75)"/><path class="cls-3" d="M312,237.33a7.13,7.13,0,0,1-2.57,0c-2.85-1.15-7.94,2-8.59-1.95-1.87-11.42,1.35-17.23,8.84-18.94.69,2,1.8,3.77,2.46,5.8C313.79,227.33,311.7,232.3,312,237.33Z" transform="translate(-163.53 -204.75)"/><path class="cls-7" d="M312,237.33c-.27-5,1.82-10,.14-15.11-.66-2-1.77-3.81-2.46-5.8,6.59-.89,11.85,3.39,12.11,9.88,0,1,0,2,0,3C321.54,238.61,321.54,238.61,312,237.33Z" transform="translate(-163.53 -204.75)"/><path class="cls-7" d="M283.5,324.73c1.21-5.73,2.64-11.41,3-17.28,5.59.36,5.58.36,4.64,5.58-.49,2.67-.94,5.34-1.44,8C288.71,326.33,288.7,326.33,283.5,324.73Z" transform="translate(-163.53 -204.75)"/><path class="cls-9" d="M409.43,319.24c.42-3.45,2.72-6.47,2.32-10.11,1,.24,1.92.45,2.86.73,5.11,1.5,5.13,1.51,3.53,6.62-1.91,6.11-.84,5-6.62,3.54A20.26,20.26,0,0,1,409.43,319.24Z" transform="translate(-163.53 -204.75)"/></svg>