<svg id="Layer_1" data-name="Layer 1" xmlns="http://www.w3.org/2000/svg" viewBox="0 0 312.08 384"><defs><style>.cls-1{fill:#25252a;}.cls-2{fill:#24252a;}.cls-3{fill:#b0c0e4;}.cls-4{fill:#9fb3d7;}.cls-5{fill:#e5ebfd;}.cls-6{fill:#cfdaf6;}.cls-7{fill:#afbfe3;}.cls-8{fill:#ced9f5;}.cls-9{fill:#4293fe;}</style></defs><title>box</title><path class="cls-1" d="M354.08,333.16c4-3.93,5.52-4.18,10.5-1.44q31.64,17.37,63.27,34.75a16.51,16.51,0,0,1,4.86,4q13.76,16.58,27.58,33.12c3.91,4.71,3.27,8.22-2.08,11.19-7.52,4.18-15,8.4-22.64,12.39-2.21,1.15-2.89,2.45-2.88,4.9.1,27.37,0,54.73.14,82.1,0,4.49-1.65,7.08-5.5,9.19q-58.41,31.93-116.69,64.1c-.58.32-1.52.31-1.64,1.27h-4.5c-2-2.09-4.75-3-7.2-4.35q-55.35-30.51-110.79-60.86c-4.11-2.24-5.89-4.91-5.86-9.72.2-27.24.06-54.48.15-81.72,0-2.42-.61-3.76-2.84-4.93-7.63-4-15.12-8.22-22.63-12.4-5.38-3-6-6.44-2.09-11.16Q167,387,180.8,370.49a17.42,17.42,0,0,1,5.22-4.18l62.91-34.6c4.94-2.72,6.6-2.47,10.48,1.48,1,4.51-1,7.17-4.89,9.29-17.12,9.23-34.13,18.65-51.16,28-1.14.63-2.54,1-3.39,2.46,1,.61,1.89,1.22,2.84,1.74q50,27.5,99.95,55c1.28.7,2.42,1.81,4,1.79,1.22.05,2.1-.74,3.07-1.27q50.64-27.82,101.25-55.68c.83-.46,1.88-.68,2.42-2-1.11-.66-2.23-1.37-3.39-2-17-9.38-34-18.85-51.15-28.05C355,340.27,353.12,337.63,354.08,333.16ZM300.47,572.39V455.7l-17.64,21.13c-3.8,4.55-5.79,4.94-10.89,2.13q-38-20.91-76-41.81c-.93-.51-1.75-1.44-3.17-1.11,0,25.1,0,50.2-.05,75.29,0,2.24,1.49,2.61,2.85,3.36L288,565.52ZM420.75,435.52c-1.61.84-2.71,1.38-3.78,2l-75.74,41.66c-4.74,2.6-6.87,2.13-10.34-2q-6.11-7.35-12.22-14.7c-1.77-2.12-3.58-4.2-5.71-6.69V572.06a3.19,3.19,0,0,0,.91-.09q52.49-28.83,105-57.64a3.48,3.48,0,0,0,1.93-3.59C420.73,485.87,420.75,461,420.75,435.52Zm-82,31.2c.6-.31,1.28-.63,1.93-1q52.14-28.67,104.3-57.3c2.2-1.2,2.18-1.95.64-3.75-6.1-7.11-12.13-14.29-18-21.6-1.75-2.19-3.06-2.37-5.51-1-20.71,11.53-41.51,22.9-62.27,34.32-13.67,7.51-27.3,15.08-41,22.49-2.46,1.33-2.5,2.18-.72,4.24,6.13,7.09,12,14.37,18,21.54C336.86,465.48,337.35,466.64,338.77,466.72Zm-150-86c-1.41,0-1.88,1.22-2.56,2-6.1,7.26-12.07,14.64-18.28,21.81-1.8,2.08-1.27,2.8.82,3.95q52,28.49,103.85,57.13c2.3,1.26,3.41.73,4.88-1.08,5.91-7.27,11.85-14.51,18-21.57,1.91-2.21,1.41-3-.87-4.21q-51.81-28.38-103.55-56.89C190.29,381.52,189.51,381.14,188.77,380.76Z" transform="translate(-150.72 -204.75)"/><path class="cls-2" d="M333,204.75c3,2.1,3.84,5,3.82,8.62-.13,23.85,0,47.69-.14,71.53,0,3,.49,4.05,3.76,3.94,8.36-.27,16.73,0,25.09-.11,3,0,5.42.79,6.69,3.72s.06,5.27-2,7.37Q356.79,313.38,343.4,327c-.92.8-1.9,1.56-2.77,2.43q-14.11,14.09-28.21,28.22c-1.62,1.62-3.3,3-5.68,3.24-2.38-.24-4-1.65-5.67-3.26Q285.65,342.24,270.15,327q-13.29-13.44-26.58-26.87c-1.43-1.44-2.72-2.92-2.81-5.09-.15-3.66,2.54-6.21,6.82-6.24,8.61-.05,17.23-.16,25.84.07,2.94.08,3.4-.86,3.39-3.54-.11-24,0-47.94-.13-71.92,0-3.65.77-6.53,3.82-8.62H285c1.8,1.67,3.75,3.25,3.87,6l-.12,81.32c0,6.94-1.71,8.68-8.55,8.68H261.49c1,1.08,1.34,1.55,1.77,2,13.78,13.78,27.61,27.52,41.29,41.4,2.06,2.09,3,1.35,4.68-.31q20.2-20.34,40.5-40.59c.63-.63,1.73-1.05,1.55-2.28a3.66,3.66,0,0,0-.75-.18l-16.86,0c-7.36,0-8.92-1.58-8.92-9.06l-.12-80.94c.12-2.76,2.06-4.33,3.87-6Z" transform="translate(-150.72 -204.75)"/><path class="cls-3" d="M270.15,327q15.47,15.32,30.92,30.64c1.63,1.61,3.29,3,5.67,3.26l.05,70.59c-1.61,0-2.75-1.09-4-1.79q-50-27.43-99.95-55c-.95-.52-1.85-1.13-2.84-1.74.85-1.49,2.25-1.83,3.39-2.46,17-9.38,34-18.8,51.16-28,3.93-2.12,5.92-4.78,4.89-9.29C262.71,330.63,266.5,328.93,270.15,327Z" transform="translate(-150.72 -204.75)"/><path class="cls-4" d="M306.79,431.45l-.05-70.59c2.38-.23,4.06-1.62,5.68-3.24q14.07-14.14,28.21-28.22c.87-.87,1.85-1.63,2.77-2.43,3.67,1.88,7.51,3.47,10.68,6.19-1,4.47.92,7.11,4.91,9.26,17.13,9.2,34.12,18.67,51.15,28.05,1.16.64,2.28,1.35,3.39,2-.54,1.34-1.59,1.56-2.42,2q-50.61,27.86-101.25,55.68C308.89,430.71,308,431.5,306.79,431.45Z" transform="translate(-150.72 -204.75)"/><path class="cls-5" d="M300.47,572.39,288,565.52l-92.4-50.83c-1.36-.75-2.86-1.12-2.85-3.36.08-25.09.05-50.19.05-75.29,1.42-.33,2.24.6,3.17,1.11q38,20.89,76,41.81c5.1,2.81,7.09,2.42,10.89-2.13l17.64-21.13Z" transform="translate(-150.72 -204.75)"/><path class="cls-6" d="M420.75,435.52c0,25.48,0,50.35,0,75.22a3.48,3.48,0,0,1-1.93,3.59q-52.52,28.78-105,57.64a3.19,3.19,0,0,1-.91.09V455.72c2.13,2.49,3.94,4.57,5.71,6.69q6.13,7.35,12.22,14.7c3.47,4.17,5.6,4.64,10.34,2L417,437.49C418,436.9,419.14,436.36,420.75,435.52Z" transform="translate(-150.72 -204.75)"/><path class="cls-7" d="M338.77,466.72c-1.42-.08-1.91-1.24-2.6-2.06-6-7.17-11.91-14.45-18-21.54-1.78-2.06-1.74-2.91.72-4.24,13.72-7.41,27.35-15,41-22.49,20.76-11.42,41.56-22.79,62.27-34.32,2.45-1.36,3.76-1.18,5.51,1,5.86,7.31,11.89,14.49,18,21.6,1.54,1.8,1.56,2.55-.64,3.75Q392.81,437,340.7,465.73C340.05,466.09,339.37,466.41,338.77,466.72Z" transform="translate(-150.72 -204.75)"/><path class="cls-8" d="M188.77,380.76c.74.38,1.52.76,2.28,1.18q51.76,28.47,103.55,56.89c2.28,1.25,2.78,2,.87,4.21-6.14,7.06-12.08,14.3-18,21.57-1.47,1.81-2.58,2.34-4.88,1.08Q220.75,437,168.75,408.56c-2.09-1.15-2.62-1.87-.82-3.95,6.21-7.17,12.18-14.55,18.28-21.81C186.89,382,187.36,380.8,188.77,380.76Z" transform="translate(-150.72 -204.75)"/><path class="cls-9" d="M288.87,210.75h35.76l.12,80.94c0,7.48,1.56,9.06,8.92,9.06l16.86,0a3.66,3.66,0,0,1,.75.18c.18,1.23-.92,1.65-1.55,2.28q-20.24,20.31-40.5,40.59c-1.64,1.66-2.62,2.4-4.68.31-13.68-13.88-27.51-27.62-41.29-41.4-.43-.43-.81-.9-1.77-2H280.2c6.84,0,8.54-1.74,8.55-8.68Z" transform="translate(-150.72 -204.75)"/></svg>