<svg id="Layer_1" data-name="Layer 1" xmlns="http://www.w3.org/2000/svg" viewBox="0 0 339.02 384"><defs><style>.cls-1{fill:#030304;}.cls-2{fill:#fd7f85;}.cls-3{fill:#b0e2f7;}.cls-4{fill:#8fd7f8;}.cls-5{fill:#fb636d;}.cls-6{fill:#1d779e;}.cls-7{fill:#0c5e7f;}.cls-8{fill:#73cbf5;}.cls-9{fill:#ce565e;}.cls-10{fill:#b1e29d;}.cls-11{fill:#8ed4f4;}.cls-12{fill:#93d2a1;}.cls-13{fill:#fbdc7b;}</style></defs><title>packaging</title><path class="cls-1" d="M360.75,204.75a47.75,47.75,0,0,1,6.74,2.55c7.58,4.17,11.87,10.62,12,19.35q.27,18,0,36c0,2.81.92,4,3.38,5.23,39.65,19.66,69.14,49,85.35,90.68a121.4,121.4,0,0,1,8,44.31q0,72.34,0,144.68c0,21.51-12.07,36.2-33.28,40.64-.16,0-.25.38-.37.58H291c-1.37-1.48-3.37-1.26-5.07-1.82A38.92,38.92,0,0,1,258.76,550c-.08-54.06-.15-108.12.13-162.18.11-21.6,1.91-43.12,6.62-64.29,1.05-4.76,2.46-6,7.39-6.13,3.61,1.74,4.56,4.62,3.71,8.36-5,22.16-6.43,44.7-6.55,67.32-.2,35.71,0,71.43-.17,107.15,0,3.46.91,4.26,4.3,4.26q87.1-.17,174.21-.09c1.25,0,2.49-.11,3.73-.17,1.61.11,3.21.29,4.81.3,8.75,0,8.69,0,8.09-8.61-.13-1.82-.77-2.39-2.47-2.32-3.47.14-6.94.19-10.41.27l-13.83-.14a28.91,28.91,0,0,1-9.92-1.5,25.61,25.61,0,0,1-16.53-27.92c1.89-12.12,12.14-21,25.07-21.49,5.1-.21,10.21-.17,15.32-.25,3.12.07,6.24,0,9.35.25,2.63.2,3.38-.74,3.35-3.35-.13-12.87,0-25.75-.09-38.62a100,100,0,0,0-4-28.47c-13.82-45.25-44-75.92-86-95.9a9.22,9.22,0,0,0-5.85-.59,12.29,12.29,0,0,0-1.47-.18c-20.43,0-40.86,0-61.29-.07a7,7,0,0,0-4.68,1.89c-7.38,6.05-12.52,13.78-16.49,22.33-1.63,3.53-4,5.31-8,4.26-3.77-3-4.24-4.77-2.27-8.93,4.91-10.35,11.1-19.74,20.32-26.8,1.52-1.17,1.67-2.55,1.66-4.23,0-10.47.35-21-.12-31.4-.58-13.12,3-23,18.32-28Zm91.5,277.54c3.36.07,6.72,0,10.07.24,2.29.14,2.67-.9,2.62-2.87-.11-4.74.07-9.48-.07-14.21-.11-3.68,1.69-8.74-.72-10.7-2.69-2.18-7.63-.68-11.59-.52a1.18,1.18,0,0,0-.35.11,89.73,89.73,0,0,0-17.11,0c-7.34.81-12.38,7.07-12.17,14.52a13.75,13.75,0,0,0,12.93,13.44C441.31,482.59,446.79,482.32,452.25,482.29ZM355.53,264.08c3.24,0,6.48-.09,9.7.11,2.57.17,3.1-.95,3.08-3.27-.09-11.19,0-22.39-.06-33.58,0-5.15-2.57-8.66-7.35-10.59-2.77-1.13-5.61-.76-8.45-.56-10.87-.06-21.74-.17-32.61-.16-7.18,0-11.67,4.51-11.72,11.7-.07,8.75,0,17.5,0,26.25,0,10.67,0,10.67,10.69,10.23a2.41,2.41,0,0,1,.38,0c2,.23,2.58-.79,2.52-2.66-.09-3-.08-6,0-9a5.19,5.19,0,0,1,5.13-5.43c3.15-.26,5.21,1.61,5.88,4.65a23,23,0,0,1,.21,4.85c0,8.13,0,8.05,8.06,7.63,2-.1,2.57-.82,2.51-2.69a91.5,91.5,0,0,1,.06-9.37,5.11,5.11,0,0,1,5.45-5.08,5.32,5.32,0,0,1,5.64,4.95c.22,1.6-.06,3.26.12,4.87C355,259.31,353.91,261.85,355.53,264.08Zm95.85,291.41a4.66,4.66,0,0,0-.73-.13q-88.63,0-177.25,0c-2.72,0-2.74.89-2,3.09a28,28,0,0,0,26.83,19.06q43.47.07,86.94,0,26.42,0,52.83-.11c11.48.18,23.42-9.13,25.88-20,.41-1.79,0-2.27-1.68-2.18C458.58,555.36,455,554.83,451.38,555.49Zm.88-39.58c-1.37-.07-2.73-.21-4.1-.21q-86.76,0-173.53-.11c-4,0-4.93,1.16-4.74,4.92.31,6.36.3,12.75,0,19.11-.17,3.49.61,4.54,4.36,4.54q87.15-.21,174.28-.11c1.25,0,2.49-.14,3.73-.21,3.35.07,6.7,0,10,.26,2.24.14,2.69-.85,2.64-2.85-.12-4.72.06-9.45-.07-14.17-.1-3.69,1.68-8.88-.69-10.7C461.34,514.2,456.33,515.61,452.26,515.91Z" transform="translate(-137.14 -204.75)"/><path class="cls-1" d="M153,380c-4.34-3-4.89-5.21-2.32-9.67a59.84,59.84,0,0,1,15.73-18.36,3.71,3.71,0,0,0,1.69-3.4c-.07-5.49-.11-11,0-16.48,0-1.93-.45-2.54-2.48-2.6-6.21-.21-7.45-1.66-7.45-8,0-4-.09-8,0-12a17.57,17.57,0,0,1,17.13-17q14.81-.24,29.6,0a17.55,17.55,0,0,1,17.08,17c.14,4.5.08,9,0,13.49s-1.93,6.56-6.36,6.42c-3.14-.11-3.94,1-3.54,3.81a13,13,0,0,1,0,1.87c0,4.63-.59,9.34.15,13.84.8,4.83,6.13,6.38,9,9.81,11.63,13.68,17.46,29.73,20.12,47.16a146,146,0,0,1,1.4,22.41q-.06,42.92,0,85.82c0,4.15-.94,7-5.15,8.85a6.38,6.38,0,0,0-.07,11.66c4.31,2,5.37,4.89,5.24,9.2-.21,7.24,0,14.49-.06,21.73,0,11.66-6.84,20.06-18.29,22.61-.16,0-.25.37-.37.57H216c-3.25-1.91-7.06-3-9.49-6.15-.54-.69-1-.44-1.51,0-3.15,3.34-7.38,4.6-11.5,6.1h-8.25c-3.33-2-7.21-3.18-9.95-6.15-.73-.8-1.28-.4-1.81.22-2.85,3.31-6.77,4.67-10.74,5.93H154.5c0-.12-.06-.31-.13-.34-13-4.75-18.1-14.21-17.11-27.72.46-6.22.12-12.5.07-18.74,0-3.2,1.07-5.52,4.24-6.72a6.46,6.46,0,0,0,4.54-6.26,6.56,6.56,0,0,0-4.66-6.55c-2.95-1.12-4.11-3.36-4.1-6.43.05-32,0-64,.15-96a96.7,96.7,0,0,1,2.6-21.53c1.12-4.79,2.44-5.83,7.56-5.67,3.32,1.81,4.25,4.41,3.39,8.16a108.18,108.18,0,0,0-2.46,21.92c0,1.69.29,2.44,2.2,2.43q34.1-.15,68.2-.17c3.24.05,6.49-.07,9.72.19,2.62.21,3.1-.87,3-3.19-.39-6.73-.75-13.46-2.2-20.06-3.86-17.42-10.26-33.36-26-43.76a5.62,5.62,0,0,1-2.56-5.1c.05-4.12.11-8.24,0-12.35-.12-3.69,1.66-8.77-.74-10.71-2.69-2.17-7.63-.65-11.59-.52a1.61,1.61,0,0,0-.36.1c-1.86-.07-3.74,0-5.58-.26-2.59-.32-3.45.58-3.37,3.26.2,6.61,0,13.23.09,19.85,0,2.59-.74,4.64-3,6a47.11,47.11,0,0,0-16,17.43C158.69,379,156.4,380.45,153,380ZM198,318c1.73.07,3.46.19,5.2.19,8.25,0,8.25,0,7.59-8.14a6.48,6.48,0,0,0-6.48-6.35c-2.6-.1-5.21.06-7.81.1L176,303.71a6.16,6.16,0,0,0-4.1,1.52c-1.92,1.61-3.54,10.21-2.34,12.34.47.84,1.27.66,2,.65Q184.75,318.16,198,318ZM219,491.8c3.37.05,6.74,0,10.1.17,1.87.08,2.63-.42,2.62-2.47q-.1-25.28,0-50.54c0-2.06-.75-2.54-2.62-2.46-3.36.15-6.73.12-10.09.16-22.6,0-45.2-.06-67.79-.18-2.25,0-2.65.82-2.64,2.83q.1,24.9,0,49.82c0,2.42.82,2.88,3,2.85,8.11-.11,16.23,0,24.34-.08,4-.06,6.46,1.45,7.23,5.44-1.08,4.57-2.6,5.86-7.2,5.88-8.12,0-16.24,0-24.37,0-.94,0-2.06-.43-2.8.51-1,1.31.2,9.67,1.54,10.8,9.49,8,9.52,20.32,0,28.49-1,.84-1.8,1.52-1.78,3,.09,7.13-.18,14.26.13,21.37.22,4.87,3.43,7.94,7.85,9.53,3.78,1.37,6.93.22,9.73-2.78,5.45-5.83,10.14-5.86,16.12-.33,2.28,2.11,4.71,3.69,7.94,3.63,3.53-.06,6-2,8.35-4.41,3.89-3.87,8.61-4.44,12.48-1.58a52.13,52.13,0,0,1,4.12,3.76c2.7,2.9,6,2.85,9.23,1.42,4.26-1.89,7.08-5.1,7.13-10,.07-6.62,0-13.24.05-19.85a4.37,4.37,0,0,0-1.77-3.78c-9.51-8.15-9.45-20.38.05-28.43,1.33-1.13,2.53-9.45,1.55-10.8-.53-.74-1.34-.54-2.05-.53-3.5,0-7,.07-10.48.12l-14.43-.13c-4.82-.05-6.31-1.23-7.43-5.89.79-4,3.25-5.55,7.24-5.44C209.24,492,214.11,491.85,219,491.8Z" transform="translate(-137.14 -204.75)"/><path class="cls-2" d="M452.26,442.59c-5.11.08-10.22,0-15.32.25-12.93.52-23.18,9.37-25.07,21.49a25.61,25.61,0,0,0,16.53,27.92,28.91,28.91,0,0,0,9.92,1.5l13.83.14c0,3.46,0,6.91,0,10.36-1.24.06-2.48.17-3.73.17q-87.11,0-174.21.09c-3.39,0-4.32-.8-4.3-4.26.15-35.72,0-71.44.17-107.15.12-22.62,1.51-45.16,6.55-67.32.85-3.74-.1-6.62-3.71-8.36a110.56,110.56,0,0,1,4.19-13.28c4,1.05,6.33-.73,8-4.26,4-8.55,9.11-16.28,16.49-22.33a7,7,0,0,1,4.68-1.89c20.43.07,40.86,0,61.29.07a12.29,12.29,0,0,1,1.47.18c.64,1,1.8,1.29,2.77,1.82A166.15,166.15,0,0,1,433.47,337c11.91,19.82,18.64,41.12,18.77,64.35C452.31,415.12,452.26,428.86,452.26,442.59ZM404.11,323.84c1.59-2.88,2-5.78-.77-8.12-8.13-6.76-16.91-12.43-27.45-14.66-10.88-2.31-19.71,2.93-21.06,12.46a30.72,30.72,0,0,0,1.77,14.73c5.09,14.37,14.19,26,25.19,36.21,8.84,8.24,18.51,15.27,30.45,18.36,15.12,3.92,24.89-4.57,22.67-20-1.54-10.64-6.93-19.69-13.43-28-2.2-2.82-5.2-2.49-8-.51C411.25,330,407.54,327.05,404.11,323.84ZM310.56,461c-.33,6.74,3.11,9.18,9.37,6.63,5.2-2.11,10.4-4.19,15.54-6.43a6.08,6.08,0,0,1,5.33,0c5,2.21,10.12,4.21,15.2,6.28,7,2.87,10.44.16,9.68-7.51-.55-5.47-.8-11-1.3-16.43a5.3,5.3,0,0,1,1.52-4.36q5.81-6.6,11.4-13.4c3.86-4.67,2.51-8.84-3.28-10.3-5.2-1.3-10.39-2.64-15.63-3.73a8.42,8.42,0,0,1-6.33-4.48c-2.55-4.71-5.52-9.19-8.36-13.74-3.29-5.26-7.77-5.3-11.05-.07-3,4.75-6,9.51-8.77,14.38a7.2,7.2,0,0,1-5.16,3.73c-5.48,1.17-10.92,2.52-16.36,3.89-5.78,1.47-7.19,5.71-3.4,10.28s7.55,9,11.43,13.38a5.79,5.79,0,0,1,1.59,4.73C311.45,449.56,311,455.29,310.56,461Z" transform="translate(-137.14 -204.75)"/><path class="cls-3" d="M153,380c3.4.49,5.69-1,7.34-3.91a47.11,47.11,0,0,1,16-17.43c2.23-1.39,3-3.44,3-6-.08-6.62.11-13.24-.09-19.85-.08-2.68.78-3.58,3.37-3.26,1.84.22,3.72.19,5.58.26,0,4.87.34,9.76,0,14.59-.44,5.61,1.46,9.82,5.67,13.44a59.86,59.86,0,0,1,15.61,20.71A106.39,106.39,0,0,1,219,425.14q-34.1.08-68.2.17c-1.91,0-2.23-.74-2.2-2.43A108.18,108.18,0,0,1,151.05,401c.86-3.75-.07-6.35-3.39-8.16C148.58,388.17,149.55,383.55,153,380Z" transform="translate(-137.14 -204.75)"/><path class="cls-4" d="M452.26,543.84c-1.24.07-2.48.21-3.73.21q-87.13,0-174.28.11c-3.75,0-4.53-1-4.36-4.54.3-6.36.31-12.75,0-19.11-.19-3.76.7-4.93,4.74-4.92q86.76.23,173.53.11c1.37,0,2.73.14,4.1.21Z" transform="translate(-137.14 -204.75)"/><path class="cls-2" d="M438,577.38q-26.42.06-52.83.11-43.47,0-86.94,0a28,28,0,0,1-26.83-19.06c-.71-2.2-.69-3.09,2-3.09q88.62.07,177.25,0a4.66,4.66,0,0,1,.73.13c.56,2.21-.43,4.11-1.22,6A35.86,35.86,0,0,1,438,577.38Z" transform="translate(-137.14 -204.75)"/><path class="cls-5" d="M452.26,442.59c0-13.73.05-27.47,0-41.2-.13-23.23-6.86-44.53-18.77-64.35a166.15,166.15,0,0,0-61.72-59.31c-1-.53-2.13-.78-2.77-1.82a9.22,9.22,0,0,1,5.85.59c42,20,72.21,50.65,86,95.9a100,100,0,0,1,4,28.47c.1,12.87,0,25.75.09,38.62,0,2.61-.72,3.55-3.35,3.35C458.5,442.59,455.38,442.66,452.26,442.59Z" transform="translate(-137.14 -204.75)"/><path class="cls-6" d="M355.53,264.08c-1.62-2.23-.5-4.77-.76-7.15-.18-1.61.1-3.27-.12-4.87a5.32,5.32,0,0,0-5.64-4.95,5.11,5.11,0,0,0-5.45,5.08,91.5,91.5,0,0,0-.06,9.37c.06,1.87-.5,2.59-2.51,2.69-8.06.42-8.05.5-8.06-7.63a23,23,0,0,0-.21-4.85c-.67-3-2.73-4.91-5.88-4.65a5.19,5.19,0,0,0-5.13,5.43c-.1,3-.11,6,0,9,.06,1.87-.5,2.89-2.52,2.66a2.41,2.41,0,0,0-.38,0c-10.69.44-10.69.44-10.69-10.23,0-8.75-.05-17.5,0-26.25.05-7.19,4.54-11.7,11.72-11.7,10.87,0,21.74.1,32.61.16,2.75,4.8,3.22,10,3.12,15.44C355.37,242.44,355.53,253.26,355.53,264.08Z" transform="translate(-137.14 -204.75)"/><path class="cls-4" d="M452.25,482.29c-5.46,0-10.94.3-16.39,0a13.75,13.75,0,0,1-12.93-13.44c-.21-7.45,4.83-13.71,12.17-14.52a89.73,89.73,0,0,1,17.11,0Q452.23,468.32,452.25,482.29Z" transform="translate(-137.14 -204.75)"/><path class="cls-7" d="M355.53,264.08c0-10.82-.16-21.64,0-32.45.1-5.45-.37-10.64-3.12-15.44,2.84-.2,5.68-.57,8.45.56,4.78,1.93,7.32,5.44,7.35,10.59.05,11.19,0,22.39.06,33.58,0,2.32-.51,3.44-3.08,3.27C362,264,358.77,264.1,355.53,264.08Z" transform="translate(-137.14 -204.75)"/><path class="cls-8" d="M452.25,482.29q0-14,0-28a1.18,1.18,0,0,1,.35-.11c4-.16,8.9-1.66,11.59.52,2.41,2,.61,7,.72,10.7.14,4.73,0,9.47.07,14.21.05,2-.33,3-2.62,2.87C459,482.31,455.61,482.36,452.25,482.29Z" transform="translate(-137.14 -204.75)"/><path class="cls-8" d="M452.26,543.84V515.91c4.07-.3,9.08-1.71,11.92.47,2.37,1.82.59,7,.69,10.7.13,4.72-.05,9.45.07,14.17.05,2-.4,3-2.64,2.85C459,543.89,455.61,543.91,452.26,543.84Z" transform="translate(-137.14 -204.75)"/><path class="cls-9" d="M438,577.38a35.86,35.86,0,0,0,12.19-15.86c.79-1.92,1.78-3.82,1.22-6,3.58-.66,7.2-.13,10.79-.3,1.66-.09,2.09.39,1.68,2.18C461.39,568.25,449.45,577.56,438,577.38Z" transform="translate(-137.14 -204.75)"/><path class="cls-9" d="M452.13,504.25c0-3.45,0-6.9,0-10.36,3.47-.08,6.94-.13,10.41-.27,1.7-.07,2.34.5,2.47,2.32.6,8.63.66,8.64-8.09,8.61C455.34,504.54,453.74,504.36,452.13,504.25Z" transform="translate(-137.14 -204.75)"/><path class="cls-3" d="M215.28,575.26a52.13,52.13,0,0,0-4.12-3.76c-3.87-2.86-8.59-2.29-12.48,1.58-2.37,2.36-4.82,4.35-8.35,4.41-3.23.06-5.66-1.52-7.94-3.63-6-5.53-10.67-5.5-16.12.33-2.8,3-6,4.15-9.73,2.78-4.42-1.59-7.63-4.66-7.85-9.53-.31-7.11,0-14.24-.13-21.37,0-1.5.81-2.18,1.78-3,9.48-8.17,9.45-20.46,0-28.49-1.34-1.13-2.57-9.49-1.54-10.8.74-.94,1.86-.51,2.8-.51,8.13,0,16.25,0,24.37,0,4.6,0,6.12-1.31,7.2-5.88h14c1.12,4.66,2.61,5.84,7.43,5.89l14.43.13c0,2.36-.13,4.74,0,7.09a8.06,8.06,0,0,1-3.17,7.55,13.34,13.34,0,0,0-.07,21.47c1.79,1.38,3.21,3.12,3.21,5.64,0,7.84.15,15.69-.11,23.53C218.82,571.18,218.66,574.26,215.28,575.26Z" transform="translate(-137.14 -204.75)"/><path class="cls-10" d="M197.13,497.34h-14c-.77-4-3.25-5.5-7.23-5.44-8.11.13-16.23,0-24.34.08-2.2,0-3-.43-3-2.85q.17-24.92,0-49.82c0-2,.39-2.84,2.64-2.83,22.59.12,45.19.14,67.79.18q0,27.57,0,55.14c-4.87.05-9.74.22-14.61.1C200.38,491.79,197.92,493.37,197.13,497.34Zm-25.41-33a18.41,18.41,0,1,0,18.46-18.62A18.45,18.45,0,0,0,171.72,464.37Z" transform="translate(-137.14 -204.75)"/><path class="cls-11" d="M219,425.14a106.39,106.39,0,0,0-9.54-46.66,59.86,59.86,0,0,0-15.61-20.71c-4.21-3.62-6.11-7.83-5.67-13.44.38-4.83.05-9.72,0-14.59a1.61,1.61,0,0,1,.36-.1c4-.13,8.9-1.65,11.59.52,2.4,1.94.62,7,.74,10.71.13,4.11.07,8.23,0,12.35a5.62,5.62,0,0,0,2.56,5.1c15.73,10.4,22.13,26.34,26,43.76,1.45,6.6,1.81,13.33,2.2,20.06.14,2.32-.34,3.4-3,3.19C225.48,425.07,222.23,425.19,219,425.14Z" transform="translate(-137.14 -204.75)"/><path class="cls-11" d="M215.28,575.26c3.38-1,3.54-4.08,3.62-6.62.26-7.84.08-15.69.11-23.53,0-2.52-1.42-4.26-3.21-5.64a13.34,13.34,0,0,1,.07-21.47,8.06,8.06,0,0,0,3.17-7.55c-.18-2.35,0-4.73,0-7.09,3.49-.05,7-.1,10.48-.12.71,0,1.52-.21,2.05.53,1,1.35-.22,9.67-1.55,10.8-9.5,8-9.56,20.28-.05,28.43a4.37,4.37,0,0,1,1.77,3.78c-.08,6.61,0,13.23-.05,19.85,0,5-2.87,8.16-7.13,10C221.28,578.11,218,578.16,215.28,575.26Z" transform="translate(-137.14 -204.75)"/><path class="cls-12" d="M219,491.8q0-27.57,0-55.14c3.36,0,6.73,0,10.09-.16,1.87-.08,2.63.4,2.62,2.46q-.1,25.28,0,50.54c0,2.05-.75,2.55-2.62,2.47C225.72,491.82,222.35,491.85,219,491.8Z" transform="translate(-137.14 -204.75)"/><path class="cls-4" d="M198,318q-13.26.1-26.52.18c-.7,0-1.5.19-2-.65-1.2-2.13.42-10.73,2.34-12.34a6.16,6.16,0,0,1,4.1-1.52l20.55.13C199.28,308.33,197.49,313.31,198,318Z" transform="translate(-137.14 -204.75)"/><path class="cls-8" d="M198,318c-.52-4.73,1.27-9.71-1.5-14.2,2.6,0,5.21-.2,7.81-.1a6.48,6.48,0,0,1,6.48,6.35c.66,8.15.66,8.16-7.59,8.14C201.47,318.23,199.74,318.11,198,318Z" transform="translate(-137.14 -204.75)"/><path class="cls-1" d="M310.56,461c.47-5.72.89-11.45,1.42-17.17a5.79,5.79,0,0,0-1.59-4.73q-5.82-6.58-11.43-13.38c-3.79-4.57-2.38-8.81,3.4-10.28,5.44-1.37,10.88-2.72,16.36-3.89a7.2,7.2,0,0,0,5.16-3.73c2.79-4.87,5.78-9.63,8.77-14.38,3.28-5.23,7.76-5.19,11.05.07,2.84,4.55,5.81,9,8.36,13.74a8.42,8.42,0,0,0,6.33,4.48c5.24,1.09,10.43,2.43,15.63,3.73,5.79,1.46,7.14,5.63,3.28,10.3s-7.53,9-11.4,13.4a5.3,5.3,0,0,0-1.52,4.36c.5,5.47.75,11,1.3,16.43.76,7.67-2.65,10.38-9.68,7.51-5.08-2.07-10.18-4.07-15.2-6.28a6.08,6.08,0,0,0-5.33,0c-5.14,2.24-10.34,4.32-15.54,6.43C313.67,470.19,310.23,467.75,310.56,461Zm27.59-55c-2.41,3.9-4.56,7.13-6.43,10.5a9.46,9.46,0,0,1-6.94,5.08c-3.94.76-7.81,1.9-12.07,3,3,3.49,5.45,6.61,8.15,9.54a8.89,8.89,0,0,1,2.52,7.49c-.44,4.13-.6,8.29-.9,12.81,4.2-1.69,8-3,11.55-4.72a9.22,9.22,0,0,1,8.56.1c3.6,1.67,7.35,3,11.27,4.63-.3-4.42-.41-8.54-.93-12.61a8.72,8.72,0,0,1,2.38-7.52c2.75-3,5.34-6.22,8.34-9.74-4.45-1.1-8.39-2.18-12.39-3a8.82,8.82,0,0,1-6.41-4.6C342.86,413.37,340.59,410,338.15,406Z" transform="translate(-137.14 -204.75)"/><path class="cls-1" d="M413.46,334.29c2.82-2,5.82-2.31,8,.51,6.5,8.35,11.89,17.4,13.43,28,2.22,15.41-7.55,23.9-22.67,20-11.94-3.09-21.61-10.12-30.45-18.36-11-10.23-20.1-21.84-25.19-36.21a30.72,30.72,0,0,1-1.77-14.73c1.35-9.53,10.18-14.77,21.06-12.46,10.54,2.23,19.32,7.9,27.45,14.66,2.81,2.34,2.36,5.24.77,8.12-3.16,2.45-6.05,2.05-9.09-.45-5.62-4.61-11.67-8.56-18.73-10.63-3.06-.9-6.57-2.33-9.21.32s-1.37,6.12-.54,9.24c2.48,9.23,7.6,17,13.69,24.21,9.21,10.86,19.55,20.33,33.37,25.06,3,1,6.51,2.42,9.18-.35,2.45-2.54,1.3-5.95.58-8.93-1.76-7.26-5.5-13.59-9.86-19.56C411.4,339.86,411,337.12,413.46,334.29Z" transform="translate(-137.14 -204.75)"/><path class="cls-1" d="M171.72,464.37a18.41,18.41,0,1,1,18.36,18.34A18.46,18.46,0,0,1,171.72,464.37ZM190.19,457a7.23,7.23,0,0,0-.31,14.46,7.23,7.23,0,1,0,.31-14.46Z" transform="translate(-137.14 -204.75)"/><path class="cls-13" d="M338.15,406c2.44,3.95,4.71,7.36,6.7,10.92a8.82,8.82,0,0,0,6.41,4.6c4,.83,7.94,1.91,12.39,3-3,3.52-5.59,6.71-8.34,9.74a8.72,8.72,0,0,0-2.38,7.52c.52,4.07.63,8.19.93,12.61-3.92-1.6-7.67-3-11.27-4.63a9.22,9.22,0,0,0-8.56-.1c-3.57,1.74-7.35,3-11.55,4.72.3-4.52.46-8.68.9-12.81a8.89,8.89,0,0,0-2.52-7.49c-2.7-2.93-5.19-6.05-8.15-9.54,4.26-1.07,8.13-2.21,12.07-3a9.46,9.46,0,0,0,6.94-5.08C333.59,413.14,335.74,409.91,338.15,406Z" transform="translate(-137.14 -204.75)"/><path class="cls-13" d="M190.19,457a7.23,7.23,0,1,1-7.24,7.09A7.26,7.26,0,0,1,190.19,457Z" transform="translate(-137.14 -204.75)"/></svg>