<svg id="Layer_1" data-name="Layer 1" xmlns="http://www.w3.org/2000/svg" viewBox="0 0 384 384"><defs><style>.cls-1{fill:#010203;}.cls-2{fill:#02a8f2;}.cls-3{fill:#f4f4f4;}.cls-4{fill:#00bad2;}.cls-5{fill:#535b5f;}.cls-6{fill:#3e50b4;}.cls-7{fill:#f2f2f2;}.cls-8{fill:#0376ba;}.cls-9{fill:#5f7b89;}.cls-10{fill:#d0d8dc;}.cls-11{fill:#37464e;}.cls-12{fill:#273491;}.cls-13{fill:#00828e;}.cls-14{fill:#5ca316;}</style></defs><title>printer</title><path class="cls-1" d="M114.75,486.75V355.5c3.63-3.86,7.3-7.68,10.87-11.6q22.22-24.36,44.37-48.8c7.48-8.26,16.64-13.09,27.83-13.42,9.49-.28,19-.25,28.48-.12,2.87,0,3.8-.62,3.77-3.67-.15-19.11.13-38.23-.17-57.34-.12-7.83,2.69-13.12,10.1-15.8H373.5c7.43,2.67,10.21,8,10.1,15.8-.29,19.11,0,38.23-.17,57.35,0,3.06.91,3.72,3.77,3.66,8.5-.18,17-.07,25.49-.06A39.9,39.9,0,0,1,436,288.37c5.41,3.74,9.43,8.9,13.82,13.67q24.51,26.68,48.93,53.46V486.75c-1,.24-.76,1.16-1,1.81C492,508,478.32,518.29,458.07,518.31q-16.31,0-32.6,0H415.7c1.16,1.65,1.9,2.75,2.7,3.82,6.43,8.59,12.84,17.2,19.33,25.75,3.47,4.56,4.61,9.4,1.95,14.65s-7.06,7-12.66,7c-10.74-.09-21.49,0-32.23,0-1.05,0-2.18-.3-3.16.33,2.64,10,.13,15.1-9.13,18.9H230.25c-4.78-2.3-8.56-5.38-9.49-11.06-.46-2.82.76-5.33,1.16-8.19-11.82,0-23.44-.08-35,0-5.72.06-10.36-1.69-13-7s-1.41-10.3,2.15-15c6.75-8.82,13.36-17.76,20-26.68.52-.71,1.68-1.24,1-2.63-14.82,0-29.68.14-44.54,0a38.33,38.33,0,0,1-36-26.8C116,489.86,116.12,488,114.75,486.75Zm248.18-19.4c-1.12-.05-2.24-.14-3.36-.14H245c-6.61,0-8.43,2.1-8.75,8.77-.16,3.48,1,4,4.21,4,29.83-.12,59.67-.06,89.51-.08,11.49,0,23-.08,34.45-.13,3.37.06,6.74.14,10.1.14.93,0,2,.28,2.59-.92,2.52-5-1.42-11.65-7-11.78C367.67,467.19,365.3,467.31,362.93,467.35Zm-18,51.35a9.35,9.35,0,0,0-1.47-.23c-27.12,0-54.25,0-81.37-.08-2.29,0-3,1.12-3.72,2.8-6.31,14-12.69,27.89-19,41.85-1.89,4.15-3.72,8.33-5.77,12.93h4.54q42.38,0,84.74,0c15.63,0,31.25-.08,46.87-.12h10.15c-.63-1.53-1-2.56-1.48-3.56q-10.65-23.43-21.32-46.84c-3.42-7.5-3.42-7.49-11.78-6.86A1.65,1.65,0,0,0,344.94,518.7Zm24.76-25.8c-.62,0-1.24-.14-1.86-.14q-66,0-131.91-.07c-2.38,0-3.58,1.1-4.83,2.77q-17.94,24-35.93,47.95c-3.11,4.15-6.19,8.32-9.28,12.48.54.39.72.64.9.64,13.24.05,26.48.06,39.72.13,1.58,0,2.1-.94,2.65-2.14,6.57-14.54,13.26-29,19.71-43.65,1.61-3.66,3.74-5.44,7.87-5.43q50,.15,100.05,0c4.14,0,6.25,1.81,7.86,5.46,6.44,14.61,13.14,29.1,19.69,43.66a3,3,0,0,0,3.06,2.11c9.37-.11,18.73-.13,28.1-.17,3,0,6,.12,9,.08.92,0,2.21.55,2.69-.57s-.76-1.72-1.32-2.48c-13.28-17.76-26.94-35.25-39.68-53.39C381.68,493.78,376.84,491.57,369.7,492.9ZM367.49,411a29.88,29.88,0,0,0-9.94-1.51c-33.86,0-67.72,0-101.59,0a44.92,44.92,0,0,0-45.2,45.22q0,21,0,42v4.4c2.79-3.65,4.75-6.71,7.19-9.32,4.55-4.87,6-10.35,5.72-17-.46-12.46,7.73-20.37,20.19-20.38q62.79,0,125.58,0c10.43,0,16.45,4.34,19.92,14.23,1,4.18.55,8.43.63,12.66,0,1.37-.1,2.76.8,3.95,3.78,5,7.58,10.08,12,15.91v-4.56c0-13.61-.06-27.22,0-40.83.06-11-3-20.95-10-29.45C386.16,418.35,378.05,412.6,367.49,411Zm99-59.32h10.37c-.28-1.8-1.43-2.46-2.23-3.35-4.18-4.65-8.4-9.25-12.61-13.87-9.77-10.7-19.47-21.47-29.35-32.08-4.38-4.71-9.72-7.73-16.46-7.49-10.2-1.33-20.45-.25-30.68-.6-2.07-.07-2,1.31-2,2.76,0,6.63.11,13.25-.05,19.87-.06,2.55.86,3.26,3.26,3.13,2.2-.11,4.52-.43,6.57.89a6,6,0,0,1,2.72,7.14c-1,3.77-4,4.74-7.57,4.74q-76.1,0-152.2.11c-4.5,0-9,.06-13.48-.34-3.5-.31-5.55-3.1-5.46-6.47a6,6,0,0,1,5.91-6,18,18,0,0,1,3.74,0c2.54.29,3.19-.82,3.14-3.22-.14-6.49-.12-13,0-19.49,0-2.2-.54-3.11-2.92-3.08-9.12.12-18.25,0-27.37.08-8.2.07-14.89,3.35-20.39,9.48-11.77,13.11-23.69,26.09-35.54,39.12-2.48,2.73-4.94,5.47-8,8.85H462C463.47,351.77,465,351.72,466.46,351.69ZM357.75,319.52c3.11.06,6.24-.07,9.33.23s3.68-.76,3.67-3.67c-.12-26.29-.07-52.59-.07-78.89,0-5.73-.08-11.46,0-17.19,0-2-.58-2.6-2.53-2.5-3.48.17-7,.11-10.46.15l-114,0c-.51-.11-.88,0-.78.61,0,.5-.16,1-.16,1.49,0,32.37.05,64.74-.08,97.11,0,3.22,1.6,2.88,3.66,2.88q52.69,0,105.37,0C353.77,319.7,355.76,319.58,357.75,319.52ZM461.93,505.27c13.24-.31,24-11.64,24-25.66.09-25,0-50,0-75,0-12-.1-24,.07-36,0-3-.9-3.93-3.79-3.69s-6,.16-9,.22c-1.61-.08-3.23-.21-4.85-.21q-101.4,0-202.81,0H131.41c-2.13,0-4-.44-4,3,.13,37.37,0,74.73.13,112.09,0,14.26,11.31,25.29,25.62,25.39,13.87.11,27.74-.05,41.61.1,2.76,0,3.23-.89,3.22-3.39-.11-15.75-.1-31.49-.05-47.24.11-32.81,25.46-58.16,58.23-58.2,33.74-.05,67.48,0,101.22,0a56.52,56.52,0,0,1,11.9,1.18c27.42,5.88,46.06,28.79,46.18,56.82.08,15.87,0,31.74,0,47.61,0,1.51-.61,3.26,2.17,3.23C432.45,505.39,447.19,505.36,461.93,505.27Z" transform="translate(-114.75 -204.75)"/><path class="cls-2" d="M461.93,505.27c-14.74.09-29.48.12-44.22.3-2.78,0-2.17-1.72-2.17-3.23,0-15.87,0-31.74,0-47.61-.12-28-18.76-50.94-46.18-56.82a56.52,56.52,0,0,0-11.9-1.18c-33.74,0-67.48,0-101.22,0-32.77,0-58.12,25.39-58.23,58.2,0,15.75-.06,31.49.05,47.24,0,2.5-.46,3.42-3.22,3.39-13.87-.15-27.74,0-41.61-.1-14.31-.1-25.58-11.13-25.62-25.39-.13-37.36,0-74.72-.13-112.09,0-3.48,1.83-3,4-3h134.2q101.42,0,202.81,0c1.62,0,3.24.13,4.85.21,0,9.7,0,19.41,0,29.11,0,1.32.49,2.76-.64,3.91-.4-1-.73-2.12-1.23-3.12-3.41-6.8-8.87-10.74-16.51-11.06-7.95-.32-14.08,3.13-17.78,10.17-3.63,6.87-3.16,13.8,1.37,20.13a18.08,18.08,0,0,0,18.3,7.76c8.16-1.22,13.34-6.26,15.86-14.07,1.05,1,.63,2.35.63,3.55,0,22.71.07,45.43,0,68.14a32.59,32.59,0,0,1-5.35,18C466.08,500.43,463.19,502.21,461.93,505.27ZM153.09,435c0-6,0-12,0-18,0-4.65-2.6-7.56-6.48-7.47-3.69.08-6.26,3-6.28,7.39q-.07,18.15,0,36.31c0,4.73,2.54,7.47,6.56,7.39s6.16-2.67,6.2-7.3C153.13,447.22,153.09,441.11,153.09,435Zm0-47.9h0c0-.87,0-1.75,0-2.62-.15-4.13-2.68-6.9-6.32-6.93s-6.28,2.77-6.44,6.85a46.69,46.69,0,0,0,0,6.37,6.4,6.4,0,0,0,6.51,6c3.41-.08,5.92-2.6,6.17-6.26C153.14,389.35,153.07,388.22,153.07,387.09Zm307.3,92.7a6.57,6.57,0,0,0-6.65-6.23,6.38,6.38,0,0,0-6.07,6.72,6.25,6.25,0,0,0,6.37,6A6.43,6.43,0,0,0,460.37,479.79Zm-6.49-44.66a6.36,6.36,0,0,0-6.22,6.58,6.15,6.15,0,0,0,6.56,6.14,6.4,6.4,0,0,0,6.15-6.3A6.6,6.6,0,0,0,453.88,435.13Zm.23,32a6.62,6.62,0,0,0,6.25-6.67,6.43,6.43,0,0,0-6.75-6.06,6.15,6.15,0,0,0-6,6.38A6.36,6.36,0,0,0,454.11,467.17Z" transform="translate(-114.75 -204.75)"/><path class="cls-3" d="M243.76,217.63l114,0q0,50.94,0,101.87c-2,.06-4,.18-6,.18q-52.68,0-105.37,0c-2.06,0-3.68.34-3.66-2.88.13-32.37.08-64.74.08-97.11,0-.5.11-1,.16-1.49Z" transform="translate(-114.75 -204.75)"/><path class="cls-4" d="M466.46,351.69c-1.5,0-3,.08-4.49.08H135.86c3-3.38,5.5-6.12,8-8.85,11.85-13,23.77-26,35.54-39.12,5.5-6.13,12.19-9.41,20.39-9.48,9.12-.08,18.25,0,27.37-.08,2.38,0,3,.88,2.92,3.08-.12,6.5-.14,13,0,19.49.05,2.4-.6,3.51-3.14,3.22a18,18,0,0,0-3.74,0,6,6,0,0,0-5.91,6c-.09,3.37,2,6.16,5.46,6.47,4.47.4,9,.34,13.48.34q76.1,0,152.2-.11c3.54,0,6.53-1,7.57-4.74a6,6,0,0,0-2.72-7.14c-2.05-1.32-4.37-1-6.57-.89-2.4.13-3.32-.58-3.26-3.13.16-6.62.06-13.24.05-19.87,0-1.45-.05-2.83,2-2.76,10.23.35,20.48-.73,30.68.6,1.32,3.18,4.06,5.28,6.25,7.72,11.47,12.76,23.28,25.21,34.64,38.06C460.26,344.28,464.3,347.21,466.46,351.69Z" transform="translate(-114.75 -204.75)"/><path class="cls-5" d="M389.35,468.67c-3.47-9.89-9.49-14.23-19.92-14.23q-62.79,0-125.58,0c-12.46,0-20.65,7.92-20.19,20.38.25,6.66-1.17,12.14-5.72,17-2.44,2.61-4.4,5.67-7.19,9.32v-4.4q0-21,0-42A44.92,44.92,0,0,1,256,409.54c33.87-.06,67.73,0,101.59,0a29.88,29.88,0,0,1,9.94,1.51c1,2.69,3.77,3.42,5.61,5.18,9.76,9.29,15.57,20.64,16.72,34C390.35,456.27,390.82,462.54,389.35,468.67Z" transform="translate(-114.75 -204.75)"/><path class="cls-6" d="M415.5,556.5c-9.37,0-18.73.06-28.1.17a3,3,0,0,1-3.06-2.11c-6.55-14.56-13.25-29-19.69-43.66-1.61-3.65-3.72-5.47-7.86-5.46q-50,.15-100.05,0c-4.13,0-6.26,1.77-7.87,5.43-6.45,14.61-13.14,29.11-19.71,43.65-.55,1.2-1.07,2.15-2.65,2.14-13.24-.07-26.48-.08-39.72-.13-.18,0-.36-.25-.9-.64,3.09-4.16,6.17-8.33,9.28-12.48q18-24,35.93-47.95c1.25-1.67,2.45-2.77,4.83-2.77q66,.13,131.91.07c.62,0,1.24.09,1.86.14a5.53,5.53,0,0,0,.55,1.37Q392,523.2,413.74,552.1A6.65,6.65,0,0,1,415.5,556.5Z" transform="translate(-114.75 -204.75)"/><path class="cls-7" d="M369.73,575.85c-15.62,0-31.24.11-46.87.12q-42.37,0-84.74,0h-4.54c2-4.6,3.88-8.78,5.77-12.93,6.34-14,12.72-27.89,19-41.85.76-1.68,1.43-2.81,3.72-2.8,27.12.1,54.25.06,81.37.08a9.35,9.35,0,0,1,1.47.23,10.57,10.57,0,0,0,.46,1.78c7,15.34,14.13,30.63,21,46C367.75,569.49,369.88,572.3,369.73,575.85Zm-63.36-12.66c12.74,0,25.47,0,38.21,0,4.1,0,6.93-2.74,7-6.31s-2.78-6.41-6.81-6.41c-25.35-.05-50.7,0-76,0a6.35,6.35,0,0,0-5.92,3.23c-2.62,4.52.71,9.5,6.48,9.54C281.65,563.24,294,563.19,306.37,563.19Zm.25-19.31c8.25,0,16.49,0,24.74,0,4.47,0,7.31-2.48,7.39-6.21s-2.89-6.54-7.51-6.55q-24.56-.06-49.11,0c-4.42,0-7.32,2.59-7.4,6.3s2.87,6.44,7.52,6.46C290.38,543.91,298.5,543.88,306.62,543.88Z" transform="translate(-114.75 -204.75)"/><path class="cls-8" d="M472.58,398.22c1.13-1.15.63-2.59.64-3.91,0-9.7,0-19.41,0-29.11,3-.06,6,0,9-.22s3.84.66,3.79,3.69c-.17,12-.07,24-.07,36,0,25,.06,50,0,75,0,14-10.77,25.35-24,25.66,1.26-3.06,4.15-4.84,5.92-7.57a32.59,32.59,0,0,0,5.35-18c.09-22.71.05-45.43,0-68.14,0-1.2.42-2.52-.63-3.55A24.19,24.19,0,0,0,472.58,398.22Z" transform="translate(-114.75 -204.75)"/><path class="cls-9" d="M364.38,479.81c-11.48.05-23,.13-34.45.13-29.84,0-59.68,0-89.51.08-3.16,0-4.37-.56-4.21-4,.32-6.67,2.14-8.77,8.75-8.77H359.57c1.12,0,2.24.09,3.36.14C364.7,471.35,364.66,475.57,364.38,479.81Z" transform="translate(-114.75 -204.75)"/><path class="cls-10" d="M357.75,319.52q0-50.94,0-101.87c3.48,0,7,0,10.46-.15,1.95-.1,2.57.52,2.53,2.5-.12,5.73,0,11.46,0,17.19,0,26.3-.05,52.6.07,78.89,0,2.91-.69,4-3.67,3.67S360.86,319.58,357.75,319.52Z" transform="translate(-114.75 -204.75)"/><path class="cls-11" d="M389.35,468.67c1.47-6.13,1-12.4.47-18.49-1.15-13.35-7-24.7-16.72-34-1.84-1.76-4.64-2.49-5.61-5.18,10.56,1.59,18.67,7.34,25.27,15.34,7,8.5,10.06,18.46,10,29.45-.07,13.61,0,27.22,0,40.83v4.56c-4.39-5.83-8.19-10.87-12-15.91-.9-1.19-.77-2.58-.8-3.95C389.9,477.1,390.36,472.85,389.35,468.67Z" transform="translate(-114.75 -204.75)"/><path class="cls-12" d="M415.5,556.5a6.65,6.65,0,0,0-1.76-4.4Q392,523.21,370.25,494.27a5.53,5.53,0,0,1-.55-1.37c7.14-1.33,12,.88,16.46,7.24,12.74,18.14,26.4,35.63,39.68,53.39.56.76,1.78,1.41,1.32,2.48s-1.77.56-2.69.57C421.48,556.62,418.49,556.53,415.5,556.5Z" transform="translate(-114.75 -204.75)"/><path class="cls-13" d="M466.46,351.69c-2.16-4.48-6.2-7.41-9.39-11-11.36-12.85-23.17-25.3-34.64-38.06-2.19-2.44-4.93-4.54-6.25-7.72,6.74-.24,12.08,2.78,16.46,7.49,9.88,10.61,19.58,21.38,29.35,32.08,4.21,4.62,8.43,9.22,12.61,13.87.8.89,1.95,1.55,2.23,3.35Z" transform="translate(-114.75 -204.75)"/><path class="cls-10" d="M369.73,575.85c.15-3.55-2-6.36-3.31-9.35-6.89-15.39-14-30.68-21-46a10.57,10.57,0,0,1-.46-1.78,1.65,1.65,0,0,1,.36-.11c8.36-.63,8.36-.64,11.78,6.86q10.67,23.41,21.32,46.84c.46,1,.85,2,1.48,3.56Z" transform="translate(-114.75 -204.75)"/><path class="cls-11" d="M364.38,479.81c.28-4.24.32-8.46-1.45-12.46,2.37,0,4.74-.16,7.11-.1,5.61.13,9.55,6.81,7,11.78-.6,1.2-1.66.92-2.59.92C371.12,480,367.75,479.87,364.38,479.81Z" transform="translate(-114.75 -204.75)"/><path class="cls-10" d="M243.76,217.63l-.78.61C242.88,217.58,243.25,217.52,243.76,217.63Z" transform="translate(-114.75 -204.75)"/><path class="cls-1" d="M472.58,398.22a24.19,24.19,0,0,1,0,9.81c-2.52,7.81-7.7,12.85-15.86,14.07a18.08,18.08,0,0,1-18.3-7.76c-4.53-6.33-5-13.26-1.37-20.13,3.7-7,9.83-10.49,17.78-10.17,7.64.32,13.1,4.26,16.51,11.06C471.85,396.1,472.18,397.18,472.58,398.22ZM460.4,403a6.66,6.66,0,0,0-6.72-6.2,6.2,6.2,0,0,0-6,6.73,6.14,6.14,0,0,0,6.34,6A6.61,6.61,0,0,0,460.4,403Z" transform="translate(-114.75 -204.75)"/><path class="cls-1" d="M153.09,435c0,6.12,0,12.23,0,18.35,0,4.63-2.29,7.22-6.2,7.3s-6.54-2.66-6.56-7.39q-.07-18.15,0-36.31c0-4.39,2.59-7.31,6.28-7.39,3.88-.09,6.45,2.82,6.48,7.47C153.13,423,153.09,429,153.09,435Z" transform="translate(-114.75 -204.75)"/><path class="cls-1" d="M153.07,387.09c0,1.13.07,2.26,0,3.38-.25,3.66-2.76,6.18-6.17,6.26a6.4,6.4,0,0,1-6.51-6,46.69,46.69,0,0,1,0-6.37c.16-4.08,2.84-6.88,6.44-6.85s6.17,2.8,6.32,6.93c0,.87,0,1.75,0,2.62Z" transform="translate(-114.75 -204.75)"/><path class="cls-1" d="M460.37,479.79a6.43,6.43,0,0,1-6.35,6.49,6.25,6.25,0,0,1-6.37-6,6.38,6.38,0,0,1,6.07-6.72A6.57,6.57,0,0,1,460.37,479.79Z" transform="translate(-114.75 -204.75)"/><path class="cls-1" d="M453.88,435.13a6.6,6.6,0,0,1,6.49,6.42,6.4,6.4,0,0,1-6.15,6.3,6.15,6.15,0,0,1-6.56-6.14A6.36,6.36,0,0,1,453.88,435.13Z" transform="translate(-114.75 -204.75)"/><path class="cls-1" d="M454.11,467.17a6.36,6.36,0,0,1-6.46-6.35,6.15,6.15,0,0,1,6-6.38,6.43,6.43,0,0,1,6.75,6.06A6.62,6.62,0,0,1,454.11,467.17Z" transform="translate(-114.75 -204.75)"/><path class="cls-1" d="M306.37,563.19c-12.36,0-24.72,0-37.08,0-5.77,0-9.1-5-6.48-9.54a6.35,6.35,0,0,1,5.92-3.23c25.34,0,50.69,0,76,0,4,0,6.88,2.83,6.81,6.41s-2.9,6.29-7,6.31C331.84,563.23,319.11,563.19,306.37,563.19Z" transform="translate(-114.75 -204.75)"/><path class="cls-1" d="M306.62,543.88c-8.12,0-16.24,0-24.37,0-4.65,0-7.61-2.62-7.52-6.46s3-6.28,7.4-6.3q24.56-.06,49.11,0c4.62,0,7.6,2.71,7.51,6.55s-2.92,6.19-7.39,6.21C323.11,543.92,314.87,543.88,306.62,543.88Z" transform="translate(-114.75 -204.75)"/><path class="cls-14" d="M460.4,403A6.61,6.61,0,0,1,454,409.5a6.14,6.14,0,0,1-6.34-6,6.2,6.2,0,0,1,6-6.73A6.66,6.66,0,0,1,460.4,403Z" transform="translate(-114.75 -204.75)"/></svg>