<svg id="Layer_1" data-name="Layer 1" xmlns="http://www.w3.org/2000/svg" viewBox="0 0 384 377.46"><defs><style>.cls-1{fill:#030202;}.cls-2{fill:#fc8f2a;}.cls-3{fill:#ee5924;}.cls-4{fill:#ef5924;}.cls-5{fill:#e4e4e4;}.cls-6{fill:#1a1a1a;}.cls-7{fill:#e3e3e3;}.cls-8{fill:#ec5823;}.cls-9{fill:#040201;}</style></defs><title>sports (1)</title><path class="cls-1" d="M114.75,354.75V330c1-.3.68-1.17.77-1.85C119,299.64,129.5,274,149.19,253c36.5-39.07,81.27-52.6,133.29-40.51,25.8,6,47.51,19.62,65.52,39.1a128.27,128.27,0,0,1,28.24,47.94c1.18,3.65,2.93,4.86,6.53,4.85a85.49,85.49,0,0,1,23.65,3.36c47.85,13.62,77.79,44.51,89.52,93,1.24,5.16.94,10.55,2.81,15.56v21c-1.12.44-.72,1.48-.81,2.26a115.84,115.84,0,0,1-11.85,39.94c-18.57,35.82-47.7,57.81-87.38,65.51a21.64,21.64,0,0,0-9.37,4.18,175.86,175.86,0,0,1-66.25,31.72c-18.88,4.54-38.07,5-57.32,4.69a183.62,183.62,0,0,1-56.9-9.79c-25.25-8.63-46.37-24-66.88-40.4-9.28-7.41-9.86-20-1.42-28.35A374.17,374.17,0,0,1,169,481.47a179.21,179.21,0,0,1,24.43-16.15c-.28-1.26-1.21-1.25-1.8-1.55C148.52,442,123.16,407.43,116,359.57,115.79,358,116.24,356.06,114.75,354.75ZM414,527.26c6.34-1.23,11.82-4.5,17.31-7.59a106.9,106.9,0,0,0,32.56-28.56c1.38-1.8,1.18-3.57.21-5.58s-2.31-2.58-4.43-2.56q-15.35.12-30.69,0a4.18,4.18,0,0,0-4.35,2.68c-3.65,7.51-7.42,15-11.18,22.43-.69,1.37-1.46,2.87-.75,4.27,2.47,4.83,2.39,9.8,1.3,14.9l-.16.33ZM271.11,572.8c12.43,0,21.54-.23,30.61-1.25A158,158,0,0,0,360.15,553c13.55-7.38,25.46-17.12,37.78-26.26,5.12-3.79,5.34-7.72.7-12.06-4.84-4.51-9.76-8.94-14.65-13.41C347.12,467.56,304,453,254.24,459,229.4,462,206.78,471.14,186,485c-12.76,8.49-23.61,19.22-34.85,29.49-5,4.59-4.74,8.38.79,12.56,5.78,4.36,11.56,8.73,17.39,13a170,170,0,0,0,37,21A164.37,164.37,0,0,0,271.11,572.8Zm-1.77-259.93c-.74-.9-1.34-1.68-2-2.43-20.3-23.67-31-51.16-32.71-82.23-.34-6.28-.38-6.44-6.3-5.42a119.64,119.64,0,0,0-58.49,27.61c-1.5,1.28-1.58,2.09-.15,3.51q38.88,38.76,77.64,77.64c1.36,1.36,2.15,1.48,3.56,0,5.57-5.74,11.27-11.34,16.92-17C268.33,314.08,268.78,313.52,269.34,312.87ZM128.92,326c-.17,2.42,2.41,1.54,4,1.62a145.13,145.13,0,0,1,41.77,8,131,131,0,0,1,42.72,25c2,1.72,3,1.6,4.8-.24,5.17-5.43,10.51-10.7,15.89-15.93,1.5-1.46,2-2.26.18-4q-38.69-38.47-77.17-77.16c-1.91-1.92-2.78-1.48-4.28.3a121.62,121.62,0,0,0-18.22,28.68A119.37,119.37,0,0,0,128.92,326ZM128,348.27a121.11,121.11,0,0,0,29.22,73.33c1.58,1.87,2.39,1.27,3.74-.09q23.79-23.89,47.69-47.68c1.8-1.78,1.67-2.6-.23-4.2-20.92-17.7-45.17-27-72.36-29C127.8,340,127.8,340.08,128,348.27ZM255,221.08a46.73,46.73,0,0,1-4.83,0c-2.58-.31-3.58.34-3.09,3.23.64,3.81.69,7.71,1.1,11.55,2.71,25.08,12.5,47.07,28.78,66.26,1.37,1.62,2.09,1.31,3.39,0q24.06-24.18,48.23-48.25c1.43-1.42,1.4-2.11-.16-3.44C307.05,232.25,282.35,222.51,255,221.08Zm77.16,105.85a5.87,5.87,0,0,0-1.29.25,110.45,110.45,0,0,0-38.2,30c-1.34,1.63-1.31,2.48.7,3.15,4.55,1.52,6.74,4.94,8.32,9.3,2.77,7.69,6,15.21,9,22.82a5.15,5.15,0,0,0,3.13,3.34c7.29,2.79,14.57,5.64,21.77,8.65a4.15,4.15,0,0,0,4.46-.43c9.5-6.4,19-12.79,28.58-19.08a3.71,3.71,0,0,0,1.9-3.61c-.08-6.61-.13-13.23,0-19.84a5.1,5.1,0,0,0-2.54-4.87c-10.37-7.12-20.63-14.41-31-21.56C334.19,333.08,331.9,330.84,332.19,326.93Zm-82.5,118.23c-.11-.58-.17-.82-.21-1.07a121.62,121.62,0,0,0-27.8-61.24c-1.62-1.92-2.37-1.69-4-.1q-23.79,23.94-47.73,47.7c-1.82,1.8-1.63,2.68.24,4.26a125.13,125.13,0,0,0,38,22.05,4.62,4.62,0,0,0,3.56.06,167.11,167.11,0,0,1,36-9.84C249.18,446.77,250,446.33,249.69,445.16Zm235.79-14.81c-7.34,2.09-7.34,2.1-13.88-2.26-9.44-6.29-18.92-12.53-28.26-19a4.74,4.74,0,0,0-5.68-.31c-4.71,2.55-9.49,5-14.34,7.27a5.4,5.4,0,0,0-3.12,3.82c-3.11,11.12-6.16,22.25-9.45,33.32a3.55,3.55,0,0,0,1.11,4.2c3.68,3.56,7.34,7.15,10.86,10.87a6.05,6.05,0,0,0,4.89,2c11.88-.08,23.75.09,35.62-.11,4.52-.07,8.39.44,10.32,5.48C480.88,461.11,485,446.28,485.48,430.35Zm-63.32-103.6c.2,4.27-2.28,6.49-5.29,8.56-10.27,7.06-20.41,14.3-30.66,21.39-1.68,1.16-2.55,2.31-2.5,4.5.17,6.74.12,13.49,0,20.23a3.79,3.79,0,0,0,2,3.62q13.9,9.13,27.67,18.45a3.61,3.61,0,0,0,4.1.31c5.26-2.55,10.56-5,15.93-7.35a5.22,5.22,0,0,0,3.09-3.83c3.46-12.29,7.06-24.55,10.46-36.87,1-3.62,2.47-6.57,6.79-7.29A107.58,107.58,0,0,0,422.16,326.75ZM377,450.76c6,0,12-.12,18,.07,2.4.08,3.29-1,3.86-3,2.73-9.82,5.46-19.65,8.36-29.43.66-2.21.2-3.32-1.69-4.56-8.67-5.64-17.25-11.42-25.81-17.23-1.89-1.28-3.31-1.4-5.34,0-8.42,5.8-16.95,11.42-25.53,17-2.17,1.41-2.47,2.8-1.71,5.26,2.92,9.51,5.69,19.07,8.23,28.69.69,2.66,1.89,3.35,4.4,3.29C365.53,450.67,371.28,450.77,377,450.76ZM306.48,326.61c.67-.39,1.22-.68,1.73-1a119.72,119.72,0,0,1,54-20.61c2.43-.29,2.23-1.34,1.56-3.18a125.41,125.41,0,0,0-22.42-38.61c-1.34-1.58-2.1-1.95-3.72-.31q-24,24.18-48.2,48.21c-1.37,1.36-1.55,2.13.08,3.46a144,144,0,0,0,15.1,11C305.19,326,305.85,326.26,306.48,326.61Zm38.4,133.17a4.82,4.82,0,0,0,.14-1.2c-3.73-13.11-7.51-26.2-11.15-39.34-.46-1.68-1.55-2.06-2.81-2.57-6.68-2.65-13.41-5.21-20-8.05-2.09-.89-3.31-.57-4.84,1C298.51,417.45,290.62,425.1,283,433c-3.89,4-7.58,7.81-14,3.19a37.46,37.46,0,0,1,.57,4.58c-.07,3.35,1.44,4.26,4.71,4.08a118.29,118.29,0,0,1,20.16,1.06A171.46,171.46,0,0,1,344.88,459.78Zm117.2-98.24c-2.31-.34-3.38.47-4.06,3-2.71,10.07-5.71,20.07-8.75,30-.57,1.89-.19,2.9,1.39,3.94q13.54,8.93,27,18a4.77,4.77,0,0,0,5.18.27c3.64-1.6,2-4.18,1.71-6.65-2.11-17-8.61-32.3-18.06-46.46A4.17,4.17,0,0,0,462.08,361.54ZM255.47,415.61c.49-.56.76-.72.77-.91a119.69,119.69,0,0,1,11.6-41.88c.88-1.82.1-2.68-1-3.79-5.23-5.18-10.48-10.34-15.59-15.64-1.54-1.6-2.44-1.85-4.12-.1q-7.87,8.25-16.12,16.16c-1.74,1.68-1.76,2.76-.19,4.55a132.87,132.87,0,0,1,16.6,23.9C250.46,403.54,252.88,409.47,255.47,415.61Zm121.64-98.9a22.36,22.36,0,0,1-5.51.54c-7.16-.21-14,1.52-21,2.89-2.6.51-2.83,2.37-3.6,4.19-.87,2,1,2.44,1.87,3.09,8.83,6.27,17.76,12.4,26.6,18.66,1.36,1,2.13.91,3.52-.09,8.71-6.23,17.56-12.26,26.3-18.45.95-.68,2.82-.91,2.26-2.9s-1.16-3.73-3.53-4.35A127.24,127.24,0,0,0,377.11,316.71ZM402.52,501c3.68-7.35,7.17-14.47,10.84-21.5.85-1.61-.05-2.21-.9-3.06-3.53-3.53-7.1-7-10.55-10.61a5.28,5.28,0,0,0-4.24-1.75c-8.36.08-16.71,0-25.07,0H355.23C372.91,474,387.94,487,402.52,501ZM268.65,419.56c-.37,2.34,1.61,2.68,3.06,3.56,1.65,1,2.75.31,3.91-.86q11-11,22-21.95a3,3,0,0,0,.84-3.88c-2.93-7-5.65-14.07-8.43-21.12a7.82,7.82,0,0,0-2.68-3.52c-2-1.46-3.55-1.78-5.06,1-1.69,3.06-3.19,6.18-4.58,9.37A108.83,108.83,0,0,0,268.65,419.56Zm9.9-97.33a14.83,14.83,0,0,0-1.27,1c-5.92,5.91-11.8,11.86-17.77,17.72-1.61,1.58-.34,2.35.6,3.3,4.32,4.33,8.74,8.56,12.93,13,1.81,1.94,2.67,1.29,3.9-.46a117.35,117.35,0,0,1,17.17-19.73c1.7-1.54,1.13-2.28-.42-3.29a126.09,126.09,0,0,1-13.33-10.28A22.16,22.16,0,0,0,278.55,322.23Z" transform="translate(-114.75 -208.17)"/><path class="cls-2" d="M271.11,572.8a164.37,164.37,0,0,1-64.8-11.74,170,170,0,0,1-37-21c-5.83-4.3-11.61-8.67-17.39-13-5.53-4.18-5.81-8-.79-12.56,11.24-10.27,22.09-21,34.85-29.49,20.78-13.83,43.4-23,68.24-25.94,49.73-6,92.88,8.53,129.74,42.22,4.89,4.47,9.81,8.9,14.65,13.41,4.64,4.34,4.42,8.27-.7,12.06-12.32,9.14-24.23,18.88-37.78,26.26a158,158,0,0,1-58.43,18.57C292.65,572.57,283.54,572.78,271.11,572.8Zm67.57-57.61a6.22,6.22,0,0,0-5-6.15c-6.32-1.65-6.35-1.65-8.05-8.18a5.89,5.89,0,0,0-6.26-4.82,5.73,5.73,0,0,0-5.92,5.19c-.25,1.73-.22,3.49-.34,5.23-.05.82.2,2-1,2.08-3.62.11-7.43.71-10.79-.22-2.19-.6-.44-4-1.06-6.12-.1-.36-.12-.74-.19-1.11a6.24,6.24,0,0,0-12.14-.47,23.38,23.38,0,0,0-.46,6c0,.82.21,2-1.08,2-3.62,0-7.46.7-10.77-.32-2.27-.69-.36-4.28-1-6.47a2.32,2.32,0,0,1,0-.38,5.88,5.88,0,0,0-5.82-5.35c-3.13-.19-5.45,1.41-6.41,4.64a22.78,22.78,0,0,0-.44,5.58c0,.81.32,2.17-.75,2.22-3.74.16-7.63.64-11.17-.22-1.95-.48-.44-3.79-.86-5.78-.08-.36-.05-.75-.12-1.12a6,6,0,0,0-5.88-5.33,5.92,5.92,0,0,0-6.28,4.31c-.69,1.95-.41,4-.51,5.95,0,.8.34,2.15-.77,2.2-3.74.16-7.63.66-11.17-.2-1.93-.46-.44-3.78-.84-5.76-.1-.49-.07-1-.18-1.49a6.09,6.09,0,0,0-6.17-5c-3,0-6.1,1.69-5.91,4.64.45,6.73-2.47,8.61-8.66,8.66-3.17,0-4.77,3.11-4.5,6.32a5.79,5.79,0,0,0,5.49,5.67,27.18,27.18,0,0,0,4.86.14c1.83-.11,2.45.62,2.32,2.39a24,24,0,0,0,.07,4.49c.53,4.35,4.45,7,8.39,5.54,3.26-1.19,4.3-3.83,4.32-7.14,0-5.25.1-5.25,5.4-5.25h.75c6.17,0,6.16,0,6.63,5.94a10.54,10.54,0,0,0,.3,1.84c.92,3.32,3.08,5,6.57,4.88,3.2-.15,5.3-2.4,5.87-5.74.39-2.26-1.29-5.35,1-6.58,1.84-1,4.63-.3,7-.34.75,0,1.51.07,2.25,0,1.9-.21,2.74.49,2.62,2.51a15.44,15.44,0,0,0,.4,5.57c1,3.18,3.14,4.76,6.41,4.58a5.68,5.68,0,0,0,5.78-5.31,50.58,50.58,0,0,0,.19-5.23c0-.88,0-2,1.15-2,3.62-.06,7.43-.66,10.77.3,2.09.6.36,4.08,1,6.18.07.24.12.49.17.73.74,3.53,3.18,5.61,6.55,5.35s5.25-2.26,5.94-5.66c.46-2.27-1.19-5.44,1-6.61,2-1,4.87-.34,7.36-.4a8.36,8.36,0,0,0,1.12,0c2.6-.38,3.73.67,3.36,3.32a11.28,11.28,0,0,0,0,2.25c.31,4.62,2.64,7.18,6.48,7.13s6.1-2.67,6.39-7.27c.32-5.14.32-5.14,5.7-5.43C336,521.23,338.65,518.81,338.68,515.19Z" transform="translate(-114.75 -208.17)"/><path class="cls-3" d="M269.34,312.87c-.56.65-1,1.21-1.51,1.72-5.65,5.66-11.35,11.26-16.92,17-1.41,1.44-2.2,1.32-3.56,0q-38.76-38.88-77.64-77.64c-1.43-1.42-1.35-2.23.15-3.51a119.64,119.64,0,0,1,58.49-27.61c5.92-1,6-.86,6.3,5.42,1.69,31.07,12.41,58.56,32.71,82.23C268,311.19,268.6,312,269.34,312.87Z" transform="translate(-114.75 -208.17)"/><path class="cls-4" d="M128.92,326a119.37,119.37,0,0,1,9.65-33.78,121.62,121.62,0,0,1,18.22-28.68c1.5-1.78,2.37-2.22,4.28-.3q38.49,38.68,77.17,77.16c1.78,1.77,1.32,2.57-.18,4-5.38,5.23-10.72,10.5-15.89,15.93-1.75,1.84-2.84,2-4.8.24a131,131,0,0,0-42.72-25,145.13,145.13,0,0,0-41.77-8C131.33,327.53,128.75,328.41,128.92,326Z" transform="translate(-114.75 -208.17)"/><path class="cls-4" d="M128,348.27c-.17-8.19-.17-8.26,8.06-7.66,27.19,2,51.44,11.32,72.36,29,1.9,1.6,2,2.42.23,4.2q-23.93,23.76-47.69,47.68c-1.35,1.36-2.16,2-3.74.09A121.11,121.11,0,0,1,128,348.27Z" transform="translate(-114.75 -208.17)"/><path class="cls-4" d="M255,221.08c27.32,1.43,52,11.17,73.42,29.33,1.56,1.33,1.59,2,.16,3.44q-24.18,24.06-48.23,48.25c-1.3,1.3-2,1.61-3.39,0-16.28-19.19-26.07-41.18-28.78-66.26-.41-3.84-.46-7.74-1.1-11.55-.49-2.89.51-3.54,3.09-3.23A46.73,46.73,0,0,0,255,221.08Z" transform="translate(-114.75 -208.17)"/><path class="cls-5" d="M332.19,326.93c-.29,3.91,2,6.15,4.91,8.16,10.35,7.15,20.61,14.44,31,21.56a5.1,5.1,0,0,1,2.54,4.87c-.16,6.61-.11,13.23,0,19.84a3.71,3.71,0,0,1-1.9,3.61c-9.57,6.29-19.08,12.68-28.58,19.08a4.15,4.15,0,0,1-4.46.43c-7.2-3-14.48-5.86-21.77-8.65a5.15,5.15,0,0,1-3.13-3.34c-3-7.61-6.26-15.13-9-22.82-1.58-4.36-3.77-7.78-8.32-9.3-2-.67-2-1.52-.7-3.15a110.45,110.45,0,0,1,38.2-30A5.87,5.87,0,0,1,332.19,326.93Z" transform="translate(-114.75 -208.17)"/><path class="cls-3" d="M249.69,445.16c.28,1.17-.51,1.61-1.85,1.82a167.11,167.11,0,0,0-36,9.84,4.62,4.62,0,0,1-3.56-.06,125.13,125.13,0,0,1-38-22.05c-1.87-1.58-2.06-2.46-.24-4.26q24-23.76,47.73-47.7c1.59-1.59,2.34-1.82,4,.1a121.62,121.62,0,0,1,27.8,61.24C249.52,444.34,249.58,444.58,249.69,445.16Z" transform="translate(-114.75 -208.17)"/><path class="cls-5" d="M485.48,430.35c-.47,15.93-4.6,30.76-11.93,45.31-1.93-5-5.8-5.55-10.32-5.48-11.87.2-23.74,0-35.62.11a6.05,6.05,0,0,1-4.89-2c-3.52-3.72-7.18-7.31-10.86-10.87a3.55,3.55,0,0,1-1.11-4.2c3.29-11.07,6.34-22.2,9.45-33.32a5.4,5.4,0,0,1,3.12-3.82c4.85-2.27,9.63-4.72,14.34-7.27a4.74,4.74,0,0,1,5.68.31c9.34,6.43,18.82,12.67,28.26,19C478.14,432.45,478.14,432.44,485.48,430.35Z" transform="translate(-114.75 -208.17)"/><path class="cls-5" d="M422.16,326.75a107.58,107.58,0,0,1,31.6,21.72c-4.32.72-5.79,3.67-6.79,7.29-3.4,12.32-7,24.58-10.46,36.87a5.22,5.22,0,0,1-3.09,3.83c-5.37,2.32-10.67,4.8-15.93,7.35a3.61,3.61,0,0,1-4.1-.31q-13.77-9.31-27.67-18.45a3.79,3.79,0,0,1-2-3.62c.09-6.74.14-13.49,0-20.23,0-2.19.82-3.34,2.5-4.5,10.25-7.09,20.39-14.33,30.66-21.39C419.88,333.24,422.36,331,422.16,326.75Z" transform="translate(-114.75 -208.17)"/><path class="cls-6" d="M377,450.77c-5.75,0-11.5-.1-17.24,0-2.51.06-3.71-.63-4.4-3.29-2.54-9.62-5.31-19.18-8.23-28.69-.76-2.46-.46-3.85,1.71-5.26,8.58-5.56,17.11-11.18,25.53-17,2-1.39,3.45-1.27,5.34,0,8.56,5.81,17.14,11.59,25.81,17.23,1.89,1.24,2.35,2.35,1.69,4.56-2.9,9.78-5.63,19.61-8.36,29.43-.57,2-1.46,3.09-3.86,3C389,450.64,383,450.76,377,450.77Z" transform="translate(-114.75 -208.17)"/><path class="cls-3" d="M306.48,326.61c-.63-.35-1.29-.66-1.91-1a144,144,0,0,1-15.1-11c-1.63-1.33-1.45-2.1-.08-3.46q24.17-24,48.2-48.21c1.62-1.64,2.38-1.27,3.72.31a125.41,125.41,0,0,1,22.42,38.61c.67,1.84.87,2.89-1.56,3.18a119.72,119.72,0,0,0-54,20.61C307.7,325.93,307.15,326.22,306.48,326.61Z" transform="translate(-114.75 -208.17)"/><path class="cls-7" d="M344.88,459.78a171.46,171.46,0,0,0-50.42-13.89,118.29,118.29,0,0,0-20.16-1.06c-3.27.18-4.78-.73-4.71-4.08a37.46,37.46,0,0,0-.57-4.58c6.37,4.62,10.06.82,14-3.19,7.65-7.88,15.54-15.53,23.23-23.37,1.53-1.56,2.75-1.88,4.84-1,6.61,2.84,13.34,5.4,20,8.05,1.26.51,2.35.89,2.81,2.57,3.64,13.14,7.42,26.23,11.15,39.34A4.82,4.82,0,0,1,344.88,459.78Z" transform="translate(-114.75 -208.17)"/><path class="cls-6" d="M414,527.24c1.09-5.1,1.17-10.07-1.3-14.9-.71-1.4.06-2.9.75-4.27,3.76-7.46,7.53-14.92,11.18-22.43A4.18,4.18,0,0,1,429,483q15.34.15,30.69,0c2.12,0,3.46.56,4.43,2.56s1.17,3.78-.21,5.58a106.9,106.9,0,0,1-32.56,28.56c-5.49,3.09-11,6.36-17.31,7.59Z" transform="translate(-114.75 -208.17)"/><path class="cls-6" d="M462.08,361.54a4.17,4.17,0,0,1,4.41,2.14c9.45,14.16,15.95,29.45,18.06,46.46.3,2.47,1.93,5.05-1.71,6.65a4.77,4.77,0,0,1-5.18-.27q-13.44-9.07-27-18c-1.58-1-2-2-1.39-3.94,3-10,6-20,8.75-30C458.7,362,459.77,361.2,462.08,361.54Z" transform="translate(-114.75 -208.17)"/><path class="cls-3" d="M255.47,415.61c-2.59-6.14-5-12.07-8.08-17.71a132.87,132.87,0,0,0-16.6-23.9c-1.57-1.79-1.55-2.87.19-4.55q8.24-7.9,16.12-16.16c1.68-1.75,2.58-1.5,4.12.1,5.11,5.3,10.36,10.46,15.59,15.64,1.13,1.11,1.91,2,1,3.79a119.69,119.69,0,0,0-11.6,41.88C256.23,414.89,256,415.05,255.47,415.61Z" transform="translate(-114.75 -208.17)"/><path class="cls-6" d="M377.11,316.71A127.24,127.24,0,0,1,404,320.29c2.37.62,3,2.37,3.53,4.35s-1.31,2.22-2.26,2.9c-8.74,6.19-17.59,12.22-26.3,18.45-1.39,1-2.16,1.05-3.52.09-8.84-6.26-17.77-12.39-26.6-18.66-.91-.65-2.74-1.06-1.87-3.09.77-1.82,1-3.68,3.6-4.19,6.95-1.37,13.83-3.1,21-2.89A22.36,22.36,0,0,0,377.11,316.71Z" transform="translate(-114.75 -208.17)"/><path class="cls-7" d="M402.52,501c-14.58-14-29.61-27-47.29-36.88H372.6c8.36,0,16.71,0,25.07,0a5.28,5.28,0,0,1,4.24,1.75c3.45,3.59,7,7.08,10.55,10.61.85.85,1.75,1.45.9,3.06C409.69,486.56,406.2,493.68,402.52,501Z" transform="translate(-114.75 -208.17)"/><path class="cls-6" d="M268.65,419.56a108.83,108.83,0,0,1,9-37.44c1.39-3.19,2.89-6.31,4.58-9.37,1.51-2.74,3.05-2.42,5.06-1a7.82,7.82,0,0,1,2.68,3.52c2.78,7.05,5.5,14.13,8.43,21.12a3,3,0,0,1-.84,3.88q-11,10.9-22,21.95c-1.16,1.17-2.26,1.88-3.91.86C270.26,422.24,268.28,421.9,268.65,419.56Z" transform="translate(-114.75 -208.17)"/><path class="cls-8" d="M278.55,322.23a22.16,22.16,0,0,1,1.81,1.29,126.09,126.09,0,0,0,13.33,10.28c1.55,1,2.12,1.75.42,3.29a117.35,117.35,0,0,0-17.17,19.73c-1.23,1.75-2.09,2.4-3.9.46-4.19-4.46-8.61-8.69-12.93-13-.94-.95-2.21-1.72-.6-3.3,6-5.86,11.85-11.81,17.77-17.72A14.83,14.83,0,0,1,278.55,322.23Z" transform="translate(-114.75 -208.17)"/><path class="cls-6" d="M414,527.26l-.18.31c.05-.11.1-.22.16-.33Z" transform="translate(-114.75 -208.17)"/><path class="cls-9" d="M338.68,515.19c0,3.62-2.72,6-7,6.27-5.38.29-5.38.29-5.7,5.43-.29,4.6-2.6,7.23-6.39,7.27s-6.17-2.51-6.48-7.13a11.28,11.28,0,0,1,0-2.25c.37-2.65-.76-3.7-3.36-3.32a8.36,8.36,0,0,1-1.12,0c-2.49.06-5.38-.63-7.36.4-2.23,1.17-.58,4.34-1,6.61-.69,3.4-2.49,5.4-5.94,5.66s-5.81-1.82-6.55-5.35c-.05-.24-.1-.49-.17-.73-.61-2.1,1.12-5.58-1-6.18-3.34-1-7.15-.36-10.77-.3-1.18,0-1.12,1.12-1.15,2a50.58,50.58,0,0,1-.19,5.23,5.68,5.68,0,0,1-5.78,5.31c-3.27.18-5.42-1.4-6.41-4.58a15.44,15.44,0,0,1-.4-5.57c.12-2-.72-2.72-2.62-2.51-.74.08-1.5,0-2.25,0-2.37,0-5.16-.67-7,.34-2.27,1.23-.59,4.32-1,6.58-.57,3.34-2.67,5.59-5.87,5.74-3.49.16-5.65-1.56-6.57-4.88a10.54,10.54,0,0,1-.3-1.84c-.47-5.94-.46-5.94-6.63-5.94H229c-5.3,0-5.37,0-5.4,5.25,0,3.31-1.06,5.95-4.32,7.14-3.94,1.43-7.86-1.19-8.39-5.54a24,24,0,0,1-.07-4.49c.13-1.77-.49-2.5-2.32-2.39a27.18,27.18,0,0,1-4.86-.14,5.79,5.79,0,0,1-5.49-5.67c-.27-3.21,1.33-6.3,4.5-6.32,6.19-.05,9.11-1.93,8.66-8.66-.19-2.95,2.94-4.66,5.91-4.64a6.09,6.09,0,0,1,6.17,5c.11.48.08,1,.18,1.49.4,2-1.09,5.3.84,5.76,3.54.86,7.43.36,11.17.2,1.11-.05.73-1.4.77-2.2.1-2-.18-4,.51-5.95a5.92,5.92,0,0,1,6.28-4.31,6,6,0,0,1,5.88,5.33c.07.37,0,.76.12,1.12.42,2-1.09,5.3.86,5.78,3.54.86,7.43.38,11.17.22,1.07-.05.71-1.41.75-2.22a22.78,22.78,0,0,1,.44-5.58c1-3.23,3.28-4.83,6.41-4.64a5.88,5.88,0,0,1,5.82,5.35,2.32,2.32,0,0,0,0,.38c.67,2.19-1.24,5.78,1,6.47,3.31,1,7.15.36,10.77.32,1.29,0,1.05-1.17,1.08-2a23.38,23.38,0,0,1,.46-6,6.24,6.24,0,0,1,12.14.47c.07.37.09.75.19,1.11.62,2.08-1.13,5.52,1.06,6.12,3.36.93,7.17.33,10.79.22,1.19,0,.94-1.26,1-2.08.12-1.74.09-3.5.34-5.23a5.73,5.73,0,0,1,5.92-5.19,5.89,5.89,0,0,1,6.26,4.82c1.7,6.53,1.73,6.53,8.05,8.18A6.22,6.22,0,0,1,338.68,515.19Z" transform="translate(-114.75 -208.17)"/></svg>