<svg id="Layer_1" data-name="Layer 1" xmlns="http://www.w3.org/2000/svg" viewBox="0 0 339.94 409.21"><defs><style>.cls-1{fill:#020203;}.cls-2{fill:#d9d9d9;}.cls-3{fill:#7f7f7f;}.cls-4{fill:#626263;}.cls-5{fill:#5b636f;}.cls-6{fill:#b6c7d0;}.cls-7{fill:#030304;}.cls-8{fill:#050506;}.cls-9{fill:#909aa3;}.cls-10{fill:#010102;}.cls-11{fill:#020304;}</style></defs><title>stones</title><path class="cls-1" d="M280.78,600.93c-14.26-.41-28.53.07-42.78-.76-22-1.27-43.3-5.36-63.12-15.37-14.84-7.48-27.44-17.54-34-33.38-8.1-19.52-5-37.74,7.45-54.54a73.21,73.21,0,0,1,5.41-6.4c5.91-6.35,7.71-6.62,15.07-2.59,2.62,5.57.75,9.94-3.56,13.76-3,2.69-5.13,6.16-7.17,9.57-7.48,12.51-7.48,25.31-.45,37.94,6.1,11,16.14,17.51,27.13,22.67,20.3,9.53,42,12.43,64.11,12.77,37,.58,74.09.7,111.13,1a151.45,151.45,0,0,0,28.6-2.4c19.66-3.6,37.86-10.51,53.48-23.46,20.67-17.14,24-41.67,8.19-61.8C441.83,487.22,431,479.6,418.72,474a110,110,0,0,0-54.82-9.52c-16.45,1.32-32.87,2.85-49.3,4.35-11.92,1.08-23.84,2.16-35.75,3.42-15.42,1.63-30.77,1.78-46.16-.71-7.23-1.17-14.07-3.63-21.17-5.19-4.62-2.54-9.45-4.76-13.81-7.69-26.8-17.93-30.31-49.51-8.37-73.18a99.42,99.42,0,0,1,23.1-18.24c-7.4-3.42-14-7-19.67-12.14-9-8.16-14.39-18-14.77-30.32-.22-7.57,2.37-10.45,9.95-10.58,3.19,1.49,5.75,3.54,5.74,7.41,0,13.75,7.87,22.2,19.21,28,16.89,8.65,34.95,10.13,53.3,6.72,25.11-4.66,50.11-9.88,75.13-15.05,14.44-3,28.23-7.67,40-17.07,14.78-11.83,15.63-28.33.63-39.77S350.11,267.21,330.5,272c-19.23,4.75-38.8,8.1-58.19,12.2-18.14,3.85-35.91,3.53-53.11-4.18-6.47-3.28-12.47-7.21-16.81-13.15-9.73-13.32-9.56-28.51.33-41.75a55.79,55.79,0,0,1,38.59-22.56c25.21-3.27,50.31-7.67,75.58-9.93,19.8-1.77,38.05,4.77,50.69,21.49,9.08,12,7.53,28.07-2.81,39.16-1,1.06-2,2.11-3.31,3.51,7.71,2.26,14.94,4.84,21.62,8.72,11.15,6.49,20.23,14.93,23.94,27.66,4.72,16.17-.79,29.54-12.56,40.76-2.76,2.63-5.86,4.91-9.12,7.61a106.08,106.08,0,0,1,24.57,8.89c11.11,5.89,20.81,13.45,27.57,24.24,11.42,18.24,9.64,39.45-4.33,55.9A84.78,84.78,0,0,1,409.5,450c-1.11.61-2.51.91-3.32,2.56,10.36,3,20.38,6.68,29.62,12.2,13.36,8,24.8,18,32.53,31.67,13,23.06,10,48.25-8,67.8-16.67,18.1-37.93,27.82-61.45,33.32a140.31,140.31,0,0,1-21.68,3.3c-.56,0-1,.14-1.18.77H332c-2.85-1.56-5.88-.57-8.84-.66-3.45.3-7-1.17-10.36.66H293.6C289.4,600,285.06,601.05,280.78,600.93ZM250.44,374c-1.86-.09-3.72-.23-5.58-.26a22.52,22.52,0,0,0-6,.23c-17.59,4.4-32,13.67-42.33,28.61-6,8.6-7.6,18-3,28s12.84,15.79,22.57,19.74c19.43,7.89,39.71,8.12,60.17,6.2q40.56-3.81,81.1-7.73C376,447,393.52,442.31,409,431.36c8.52-6.05,15.72-13.4,18.75-23.66,4.16-14.08-1.83-25.07-12.13-34-17.56-15.17-38.48-20-61.07-18-15.79,1.41-31.09,5.89-46.66,8.7C288.76,367.89,270,373.53,250.44,374Zm.86-103.29a84,84,0,0,0,9.54-.76c18.52-3.56,37-7.3,55.53-10.94,12.24-2.4,24.07-5.75,33.94-13.93,9.22-7.62,9.84-17.92.73-25.6-11.76-9.93-25.69-13-40.73-10.27-20.67,3.79-41.52,6.15-62.4,8.43-11.54,1.25-21.91,5.39-30,14.19-10.2,11.08-8.55,23.69,4.35,31.54C231.15,268.8,241,270.74,251.3,270.73Z" transform="translate(-136.37 -192.39)"/><path class="cls-2" d="M280.78,600.93c4.28.12,8.62-1,12.82.67H280.8C280.8,601.38,280.79,601.15,280.78,600.93Z" transform="translate(-136.37 -192.39)"/><path class="cls-3" d="M312.8,601.6c3.35-1.83,6.91-.36,10.36-.66,0,.22,0,.44,0,.66Z" transform="translate(-136.37 -192.39)"/><path class="cls-4" d="M323.2,601.6c0-.22,0-.44,0-.66,3,.09,6-.9,8.84.66Z" transform="translate(-136.37 -192.39)"/><path class="cls-5" d="M211.52,466.39c7.1,1.56,13.94,4,21.17,5.19,15.39,2.49,30.74,2.34,46.16.71,11.91-1.26,23.83-2.34,35.75-3.42,16.43-1.5,32.85-3,49.3-4.35A110,110,0,0,1,418.72,474c12.31,5.56,23.11,13.18,31.53,23.88,15.84,20.13,12.48,44.66-8.19,61.8-15.62,12.95-33.82,19.86-53.48,23.46a151.45,151.45,0,0,1-28.6,2.4c-37-.28-74.09-.4-111.13-1-22.08-.34-43.81-3.24-64.11-12.77-11-5.16-21-11.72-27.13-22.67-7-12.63-7-25.43.45-37.94,2-3.41,4.14-6.88,7.17-9.57,4.31-3.82,6.18-8.19,3.56-13.76a3.63,3.63,0,0,1,3.14-2.31c2.94,1.41,5.72,3.36,9.3,2.22,4.92-1.57,6.63-4.89,6-11.79A88.56,88.56,0,0,1,211.52,466.39ZM379.9,487c.07,4.59,3.31,7.55,9.06,8.22A65.71,65.71,0,0,1,417.39,505c6.07,3.9,11.69,8.24,13.54,16,1,4.07,5.3,6.09,9.12,5.05a8,8,0,0,0,6.09-9.05,23.26,23.26,0,0,0-3.73-10,58.27,58.27,0,0,0-21.6-18.52,82.33,82.33,0,0,0-32.37-9.26C383.26,478.79,379.84,482.18,379.9,487Z" transform="translate(-136.37 -192.39)"/><path class="cls-6" d="M219.2,280.06c17.2,7.71,35,8,53.11,4.18,19.39-4.1,39-7.45,58.19-12.2,19.61-4.83,36.46,1,51.44,12.45s14.15,27.94-.63,39.77c-11.75,9.4-25.54,14.09-40,17.07-25,5.17-50,10.39-75.13,15.05-18.35,3.41-36.41,1.93-53.3-6.72-11.34-5.81-19.21-14.26-19.21-28,0-3.87-2.55-5.92-5.74-7.41-.43-2.33,1.31-4.1,1.65-6.23,4.91,1.71,8.07,1.07,10.68-2.15s2.55-6.23-.33-11.21c4.09-5.48,10-8.49,15.75-11.78C217,282.13,219,282.14,219.2,280.06Zm130.88,7.08a56.2,56.2,0,0,0-16.2,2.62c-3.82,1.16-5.7,4.49-5.23,8.38a7.14,7.14,0,0,0,6,6.61,14.33,14.33,0,0,0,5.93-.26c7.72-1.9,15.14-2,22.52,1.72a7.66,7.66,0,0,0,10.47-3.74c1.88-4.13.39-8.42-4-10.72A37.23,37.23,0,0,0,350.08,287.14Z" transform="translate(-136.37 -192.39)"/><path class="cls-7" d="M187.19,476c.67,6.9-1,10.22-6,11.79-3.58,1.14-6.36-.81-9.3-2.22-.15-.76-.24-1.54-.45-2.28-1.28-4.53,0-8.15,3.76-10.26,3.5-2,7.29-1.33,10.44,1.75C186.14,475.24,186.69,475.6,187.19,476Z" transform="translate(-136.37 -192.39)"/><path class="cls-8" d="M200,294.65c2.88,5,3,7.94.33,11.21s-5.77,3.86-10.68,2.15c-4.14-4.16-4.75-7.9-1.91-11.8S194.23,291.87,200,294.65Z" transform="translate(-136.37 -192.39)"/><path class="cls-9" d="M250.44,374c19.59-.49,38.32-6.13,57.4-9.58,15.57-2.81,30.87-7.29,46.66-8.7,22.59-2,43.51,2.82,61.07,18,10.3,8.9,16.29,19.89,12.13,34-3,10.26-10.23,17.61-18.75,23.66-15.43,10.95-33,15.67-51.56,17.43q-40.54,3.85-81.1,7.73c-20.46,1.92-40.74,1.69-60.17-6.2-9.73-3.95-18-9.79-22.57-19.74s-3-19.38,3-28c10.35-14.94,24.74-24.21,42.33-28.61a22.52,22.52,0,0,1,6-.23C246.72,373.79,248.58,373.93,250.44,374Zm118.12-5.41A50.42,50.42,0,0,0,354.69,370a7.72,7.72,0,0,0-5.86,8.78,7.88,7.88,0,0,0,7.74,6.72,45.18,45.18,0,0,0,4.76-.41c14.53-1.12,28.22.31,38.63,12.28,2.45,2.81,6.27,3.11,9.49,1.25a7.71,7.71,0,0,0,3.57-9.25,16.78,16.78,0,0,0-5.34-7.31C396.42,372.34,383.07,368.77,368.56,368.61Z" transform="translate(-136.37 -192.39)"/><path class="cls-5" d="M251.3,270.73c-10.32,0-20.15-1.93-29.05-7.34-12.9-7.85-14.55-20.46-4.35-31.54,8.1-8.8,18.47-12.94,30-14.19,20.88-2.28,41.73-4.64,62.4-8.43,15-2.77,29,.34,40.73,10.27,9.11,7.68,8.49,18-.73,25.6-9.87,8.18-21.7,11.53-33.94,13.93-18.51,3.64-37,7.38-55.53,10.94A84,84,0,0,1,251.3,270.73ZM287.92,234a12.92,12.92,0,0,0,.67,2.45c1.74,4,5.45,5.37,10.75,4.21,10-2.17,19.82-6.35,30.39-2.22,4,1.56,7.87-.6,9.45-4.34a7.58,7.58,0,0,0-3.41-9.91,27.71,27.71,0,0,0-10.14-3.35c-11.58-1.71-22.26,2.37-33.07,5.35C289.34,227.07,287.92,230,287.92,234Z" transform="translate(-136.37 -192.39)"/><path class="cls-10" d="M379.9,487c-.06-4.78,3.36-8.17,8.54-7.82a82.33,82.33,0,0,1,32.37,9.26,58.27,58.27,0,0,1,21.6,18.52,23.26,23.26,0,0,1,3.73,10,8,8,0,0,1-6.09,9.05c-3.82,1-8.15-1-9.12-5.05-1.85-7.74-7.47-12.08-13.54-16A65.71,65.71,0,0,0,389,495.18C383.21,494.51,380,491.55,379.9,487Z" transform="translate(-136.37 -192.39)"/><path class="cls-11" d="M350.08,287.14a37.23,37.23,0,0,1,19.43,4.61c4.42,2.3,5.91,6.59,4,10.72a7.66,7.66,0,0,1-10.47,3.74c-7.38-3.69-14.8-3.62-22.52-1.72a14.33,14.33,0,0,1-5.93.26,7.14,7.14,0,0,1-6-6.61c-.47-3.89,1.41-7.22,5.23-8.38A56.2,56.2,0,0,1,350.08,287.14Z" transform="translate(-136.37 -192.39)"/><path class="cls-1" d="M368.56,368.61c14.51.16,27.86,3.73,39.12,13.44a16.78,16.78,0,0,1,5.34,7.31,7.71,7.71,0,0,1-3.57,9.25c-3.22,1.86-7,1.56-9.49-1.25-10.41-12-24.1-13.4-38.63-12.28a45.18,45.18,0,0,1-4.76.41,7.88,7.88,0,0,1-7.74-6.72,7.72,7.72,0,0,1,5.86-8.78A50.42,50.42,0,0,1,368.56,368.61Z" transform="translate(-136.37 -192.39)"/><path class="cls-1" d="M287.92,234c0-4,1.42-6.92,4.64-7.81,10.81-3,21.49-7.06,33.07-5.35a27.71,27.71,0,0,1,10.14,3.35,7.58,7.58,0,0,1,3.41,9.91c-1.58,3.74-5.48,5.9-9.45,4.34-10.57-4.13-20.38,0-30.39,2.22-5.3,1.16-9-.22-10.75-4.21A12.92,12.92,0,0,1,287.92,234Z" transform="translate(-136.37 -192.39)"/></svg>