<svg id="Layer_1" data-name="Layer 1" xmlns="http://www.w3.org/2000/svg" viewBox="0 0 380.91 384"><defs><style>.cls-1{fill:#030202;}.cls-2{fill:#fdbfc5;}.cls-3{fill:#f6e5c5;}.cls-4{fill:#fcb1b8;}.cls-5{fill:#f7e6c6;}.cls-6{fill:#f1d8a5;}.cls-7{fill:#ee6c8f;}.cls-8{fill:#c6c1c8;}.cls-9{fill:#070505;}.cls-10{fill:#040303;}.cls-11{fill:#010101;}.cls-12{fill:#fbfbfb;}</style></defs><title>tours</title><path class="cls-1" d="M239.25,204.75c3.86,2,6.58,4.78,6.38,9.48-.07,1.56.7,1.88,2.05,1.81,1.62-.08,3.25,0,4.87,0,8.54,0,12.95,4.4,12.95,12.88,0,31.87.07,63.73-.09,95.6,0,3.56,1.06,4.26,4.3,4.13,6-.26,12-.15,18-.06,11.2.17,19.05,8,19.1,19.2.07,16,.1,32-.05,48,0,3,.51,4.11,3.79,4,6.73-.27,6.74-.07,6.74-6.92,0-2,0-4,0-6,.08-7.05,3.81-10.83,10.94-10.87,12.13-.06,24.25,0,36.37,0,8.37,0,16.74,0,25.12,0,7.57,0,11.17,3.69,11.27,11.33a87,87,0,0,1-.06,9c-.27,2.92.82,3.47,3.55,3.46,24.87-.11,49.74-.05,74.6-.09,3.71,0,7.23.43,10.38,2.5,5.5,3.61,7.75,8.82,7.75,15.29q-.06,48.74,0,97.47v52.86c0,12.63-2.4,16.39-13.44,21H233.25c-9.94-4.22-13.22-12.06-12.07-22.29,0-.37-.05-.76,0-1.12.34-2.2-.68-2.7-2.74-2.69q-29.05.09-58.11,0c-2.16,0-2.78.67-2.73,2.78.13,5.12-.15,10.25.11,15.36.18,3.57-.87,6.2-4,8H150c-3-2-3.94-4.88-3.65-8.38.18-2.23.05-4.49,0-6.74,0-3.49,1.17-8-.55-10.19s-6.55-.48-10-.75c-.25,0-.5,0-.75,0-11-.33-18.72-8.14-18.73-19.17q-.09-57.15,0-114.3c0-4.6,1.36-6.18,5.86-7.18,4.49,1.33,5.4,2.57,5.4,7.56q0,55.82,0,111.62c0,8.06,2.13,10.18,10.21,10.18H273c1.24,0,2.49-.11,3.73-.16,3.12,0,6.24.15,9.36.15,7.12,0,9.44-2.3,9.44-9.38q0-38.79,0-77.59,0-57.72,0-115.45c0-6.49-2.59-9.08-9.08-9.09-3.24,0-6.49.09-9.73.14-.5-.05-1-.14-1.49-.14q-69.48,0-139,0c-5.88,0-8.67,2.86-8.68,8.81,0,18.23-.09,36.46,0,54.69,0,4.11-1.39,6.69-5.43,7.68-4.87-1.44-5.89-2.73-5.89-7.65q0-27.54,0-55.1c0-11.78,7.94-19.64,19.8-19.72,8.25-.06,16.49-.13,24.74.05,2.81.06,3.75-.53,3.72-3.59-.15-20.86-.08-41.73-.08-62.6,0-11.37-.05-22.74,0-34.11.06-7.76,4.67-12.23,12.44-12.29,1.87,0,3.75,0,5.62,0,1.07,0,2,0,1.87-1.53-.46-4.78,2.45-7.49,6.05-9.75ZM468,411.09c-4.11,0-8.24.1-12.34-.21-3.27-.24-4.32.6-4.31,4.14q.2,79,.1,158c0,1.24.09,2.48.14,3.73-.11.55.15.7.65.59l15.75,0c3.37,0,6.74.12,10.11.12,6.47,0,7.82-1.36,7.82-7.93V418.85c0-.88.06-1.76,0-2.62-.32-3.35-2-5.29-5.54-5.27C476.23,411,472.11,411,468,411.09ZM375.82,405c.74-3.24,2.58-5.14,6.06-5.37,2.54-.17,6,1.24,7.38-.75,1.24-1.8.39-5,.46-7.66a2.29,2.29,0,0,1,0-.37c.47-2.86-.55-3.8-3.61-3.77-16.1.16-32.2.08-48.3.08-9.35,0-9.25,0-9.32,9.21,0,2.57.58,3.4,3.26,3.34,8.74-.18,17.48,0,26.21-.09,3.84-.05,6.15,1.55,6.86,5.35-.94,4.53-2.54,5.93-7.1,5.94-15.49,0-31,.13-46.47-.07-3.51-.05-4.54.65-4.52,4.38q.22,64.1.08,128.18c0,11.33-7.67,19-19,19.25-2.75.06-5.51.18-8.25,0-2.42-.19-3,.76-2.86,3a71,71,0,0,1,0,9c-.16,2.31.54,2.92,2.88,2.92q67.47-.12,134.93,0c2.44,0,3.13-.62,3.12-3.09q-.11-80.22,0-160.42c0-2.44-.62-3.16-3.1-3.12-10.24.14-20.49.06-30.73.05C378.56,410.93,377.28,410,375.82,405ZM254.23,278V232.31c0-5,0-4.89-5.17-5.06-2.45-.08-3.42.42-3.6,3.11-.35,5-3.61,8.14-8.48,8.18q-21.93.15-43.84,0c-4.85,0-8.48-3.35-8.58-8.09-.12-5.66-4.18-2.48-6.42-3.06-2.91-.75-2.33,1.68-2.33,3.31,0,31.47,0,62.94-.08,94.42,0,2.79.65,3.52,3.49,3.51q35.78-.19,71.56,0c2.67,0,3.57-.45,3.53-3.39C254.14,309.5,254.23,293.76,254.23,278ZM440.16,494.26V418.15c0-7.22,0-7-7.18-7.31-3.66-.16-4.16,1.19-4.16,4.39q.14,77.06.07,154.1c0,7.41,0,7.18,7.35,7.49,3.53.16,4-1.09,4-4.2C440.11,546.5,440.16,520.38,440.16,494.26ZM249.38,562.69h-8.24c-9,0-9,0-8.69,9,.14,3.87,1.89,5.7,5.79,5.73,8.23.06,16.46-.06,24.7.07,2.24,0,2.7-.76,2.6-2.78a91.13,91.13,0,0,1,0-9.35c.11-2.1-.54-2.82-2.7-2.75C258.36,562.8,253.87,562.69,249.38,562.69ZM215.25,227.3h10.87c8.44,0,8.35,0,8.27-8.41,0-2.31-.67-2.95-3-2.91-9.12.13-18.24.05-27.36.05-8.6,0-8.52,0-8.4,8.61,0,2.13.58,2.77,2.72,2.71C204,227.21,209.63,227.3,215.25,227.3Z" transform="translate(-116.3 -204.75)"/><path class="cls-2" d="M122.18,422l0-11c4-1,5.46-3.57,5.43-7.68-.13-18.23-.08-36.46,0-54.69,0-5.95,2.8-8.81,8.68-8.81q69.5,0,139,0c.5,0,1,.09,1.49.14,1.87,4,2.31,8.28,2.3,12.7Q279,446.35,279,540a27.86,27.86,0,0,1-2.28,11.24c-1.24,0-2.49.16-3.73.16H137.8c-8.08,0-10.21-2.12-10.21-10.18q0-55.82,0-111.62C127.58,424.59,126.67,423.35,122.18,422Zm148.14,23.8V430.46q0-30.16,0-60.32c0-4.35-2.27-6.87-5.76-6.77-3.33.09-5.39,2.57-5.54,6.68,0,.62,0,1.25,0,1.87q0,73.82,0,147.62a22.12,22.12,0,0,0,.12,3.36c.5,3.23,2.91,5.36,5.89,5.07a5.36,5.36,0,0,0,5.23-5.35c.11-1.24.07-2.49.07-3.74Q270.33,482.34,270.32,445.82Zm-35.43.18V372.2c0-1.25.05-2.51-.07-3.75a5.53,5.53,0,0,0-10.77-1.14,15.2,15.2,0,0,0-.43,4.43q0,74,0,148a11.7,11.7,0,0,0,.4,4.44c1,2.66,3,4,5.79,3.76a5.16,5.16,0,0,0,5-4.76,27.36,27.36,0,0,0,.1-3.74Q234.9,482.73,234.89,446Zm-35.35-.47V426.8q0-28.29,0-56.57c0-4.35-2.16-6.89-5.67-6.86s-5.52,2.62-5.59,7v149.1a29.08,29.08,0,0,0,.06,3.37,5.53,5.53,0,0,0,5.83,5.14c3.16-.27,5-2.1,5.33-5.26a29,29,0,0,0,0-3.36Q199.55,482.43,199.54,445.53Zm-35.33.09v-73.8a25.25,25.25,0,0,0-.07-3.37,5.5,5.5,0,0,0-5.93-5,5.31,5.31,0,0,0-5.23,5.32c0,.62,0,1.25,0,1.88V520.86a14.52,14.52,0,0,0,0,1.87c.36,3.18,2.19,5.06,5.34,5.21s5.12-1.73,5.76-4.78a18.61,18.61,0,0,0,.12-3.74Z" transform="translate(-116.3 -204.75)"/><path class="cls-3" d="M375.82,405c1.46,5,2.74,5.91,8,5.92,10.24,0,20.49.09,30.73-.05,2.48,0,3.11.68,3.1,3.12q-.11,80.21,0,160.42c0,2.47-.68,3.1-3.12,3.09q-67.47-.1-134.93,0c-2.34,0-3-.61-2.88-2.92a71,71,0,0,0,0-9c-.13-2.22.44-3.17,2.86-3,2.74.21,5.5.09,8.25,0,11.3-.24,19-7.92,19-19.25q.06-64.08-.08-128.18c0-3.73,1-4.43,4.52-4.38,15.48.2,31,.1,46.47.07,4.56,0,6.16-1.41,7.1-5.94ZM353.62,535.5c6.74,0,13.48,0,20.23,0,7.62-.07,13-5.33,13.1-12.9.1-5.25.09-10.49,0-15.74-.12-7.35-5-12.82-12.27-12.94q-21.15-.36-42.33,0c-7.29.11-12.14,5.45-12.27,12.86q-.13,7.88,0,15.74c.13,7.92,5.3,13,13.3,13C340.13,535.54,346.87,535.5,353.62,535.5Z" transform="translate(-116.3 -204.75)"/><path class="cls-4" d="M276.75,551.22A27.86,27.86,0,0,0,279,540q-.07-93.63,0-187.28c0-4.42-.43-8.66-2.3-12.7,3.24-.05,6.49-.15,9.73-.14,6.49,0,9.08,2.6,9.08,9.09q0,57.74,0,115.45,0,38.81,0,77.59c0,7.08-2.32,9.39-9.44,9.38C283,551.37,279.87,551.27,276.75,551.22Z" transform="translate(-116.3 -204.75)"/><path class="cls-5" d="M468,577.34l-15.75,0-.65-.59c-.05-1.25-.14-2.49-.14-3.73q0-79-.1-158c0-3.54,1-4.38,4.31-4.14,4.1.31,8.23.16,12.34.21a18.23,18.23,0,0,1,.79,5.51q0,77.61,0,155.23A16.32,16.32,0,0,1,468,577.34Z" transform="translate(-116.3 -204.75)"/><path class="cls-6" d="M468,577.34a16.32,16.32,0,0,0,.8-5.51q0-77.61,0-155.23a18.23,18.23,0,0,0-.79-5.51c4.12,0,8.24-.11,12.36-.13,3.51,0,5.22,1.92,5.54,5.27.08.86,0,1.74,0,2.62V569.53c0,6.57-1.35,8-7.82,7.93C474.72,577.46,471.35,577.38,468,577.34Z" transform="translate(-116.3 -204.75)"/><path class="cls-7" d="M440.16,494.26c0,26.12-.05,52.24.07,78.36,0,3.11-.46,4.36-4,4.2-7.34-.31-7.35-.08-7.35-7.49q0-77.06-.07-154.1c0-3.2.5-4.55,4.16-4.39,7.17.33,7.18.09,7.18,7.31Z" transform="translate(-116.3 -204.75)"/><path class="cls-3" d="M249.38,562.69c4.49,0,9,.11,13.47-.05,2.16-.07,2.81.65,2.7,2.75a91.13,91.13,0,0,0,0,9.35c.1,2-.36,2.82-2.6,2.78-8.24-.13-16.47,0-24.7-.07-3.9,0-5.65-1.86-5.79-5.73-.33-9-.33-9,8.69-9Z" transform="translate(-116.3 -204.75)"/><path class="cls-8" d="M215.25,227.3c-5.62,0-11.25-.09-16.87,0-2.14.06-2.69-.58-2.72-2.71-.12-8.61-.2-8.61,8.4-8.61,9.12,0,18.24.08,27.36-.05,2.3,0,2.94.6,3,2.91.08,8.42.17,8.41-8.27,8.41Z" transform="translate(-116.3 -204.75)"/><path class="cls-6" d="M451.58,576.77l.65.59C451.73,577.47,451.47,577.32,451.58,576.77Z" transform="translate(-116.3 -204.75)"/><path class="cls-9" d="M270.32,445.82q0,36.53,0,73.06c0,1.25,0,2.5-.07,3.74A5.36,5.36,0,0,1,265,528c-3,.29-5.39-1.84-5.89-5.07a22.12,22.12,0,0,1-.12-3.36q0-73.8,0-147.62c0-.62,0-1.25,0-1.87.15-4.11,2.21-6.59,5.54-6.68,3.49-.1,5.75,2.42,5.76,6.77q.06,30.15,0,60.32Z" transform="translate(-116.3 -204.75)"/><path class="cls-10" d="M234.89,446q0,36.72,0,73.43a27.36,27.36,0,0,1-.1,3.74,5.16,5.16,0,0,1-5,4.76c-2.79.28-4.75-1.1-5.79-3.76a11.7,11.7,0,0,1-.4-4.44q0-74,0-148a15.2,15.2,0,0,1,.43-4.43,5.53,5.53,0,0,1,10.77,1.14c.12,1.24.07,2.5.07,3.75Z" transform="translate(-116.3 -204.75)"/><path class="cls-11" d="M199.54,445.53q0,36.9,0,73.81a29,29,0,0,1,0,3.36c-.35,3.16-2.17,5-5.33,5.26a5.53,5.53,0,0,1-5.83-5.14,29.08,29.08,0,0,1-.06-3.37V370.35c.07-4.36,2.14-6.94,5.59-7s5.66,2.51,5.67,6.86q0,28.29,0,56.57Z" transform="translate(-116.3 -204.75)"/><path class="cls-11" d="M164.21,445.62v73.8a18.61,18.61,0,0,1-.12,3.74c-.64,3.05-2.56,4.92-5.76,4.78s-5-2-5.34-5.21a14.52,14.52,0,0,1,0-1.87V370.64c0-.63,0-1.26,0-1.88a5.31,5.31,0,0,1,5.23-5.32,5.5,5.5,0,0,1,5.93,5,25.25,25.25,0,0,1,.07,3.37Z" transform="translate(-116.3 -204.75)"/><path class="cls-10" d="M353.62,535.5c-6.75,0-13.49,0-20.23,0-8-.06-13.17-5.09-13.3-13q-.13-7.87,0-15.74c.13-7.41,5-12.75,12.27-12.86q21.17-.31,42.33,0c7.26.12,12.15,5.59,12.27,12.94.08,5.25.09,10.49,0,15.74-.14,7.57-5.48,12.83-13.1,12.9C367.1,535.55,360.36,535.5,353.62,535.5Zm-.09-11.25c6.37,0,12.74-.07,19.11,0,2.22,0,3.17-.64,3.1-3q-.19-6.56,0-13.11c.07-2.25-.68-3.15-3-3.14q-19.31.09-38.6,0c-2.42,0-2.91,1.08-2.86,3.21.12,4.24.19,8.5,0,12.73-.13,2.75,1,3.38,3.5,3.32C341,524.15,347.28,524.25,353.53,524.25Z" transform="translate(-116.3 -204.75)"/><path class="cls-12" d="M353.53,524.25c-6.25,0-12.5-.1-18.74,0-2.52.06-3.63-.57-3.5-3.32.21-4.23.14-8.49,0-12.73-.05-2.13.44-3.22,2.86-3.21q19.29.12,38.6,0c2.29,0,3,.89,3,3.14q-.19,6.55,0,13.11c.07,2.35-.88,3-3.1,3C366.27,524.18,359.9,524.25,353.53,524.25Z" transform="translate(-116.3 -204.75)"/></svg>