<svg id="Layer_1" data-name="Layer 1" xmlns="http://www.w3.org/2000/svg" viewBox="0 0 316.24 384"><defs><style>.cls-1{fill:#090908;}.cls-2{fill:#a9d466;}.cls-3{fill:#8e5a46;}.cls-4{fill:#97c74e;}.cls-5{fill:#a8d366;}.cls-6{fill:#97c64e;}.cls-7{fill:#a7d265;}.cls-8{fill:#784c3b;}.cls-9{fill:#a7d365;}.cls-10{fill:#7c4e3c;}.cls-11{fill:#96c54e;}.cls-12{fill:#0c0a09;}</style></defs><title>agriculture</title><path class="cls-1" d="M151.5,588.75c-.94-1.63-2.6-2.81-2.84-4.9-.41-3.61,2-6.3,6.1-6.33,8.62-.07,17.25-.12,25.87,0,2.36,0,2.91-.66,2.86-2.92-.1-4.74-.35-9.5.75-14.18a32.82,32.82,0,0,1,30.51-25.9c2.74-.16,5.5-.21,8.24-.11,1.93.07,2.77-.24,2.87-2.54.95-20.59,14.65-33.55,35.32-33.59,12.5,0,25-.05,37.5,0,2.14,0,3-.31,3-2.79-.31-32.77-1.78-65.43-8.38-97.66-3.14-15.31-10-36.27-14.78-44.62-10.25,6.55-21.3,10.81-33.58,11.48-19.67,1.06-35.82-6.5-49.1-20.5-16.78-17.7-26.27-39.18-31.61-62.7-.36-1.58-.65-3.17-1-4.77-.9-4.53.08-6.15,4.68-7.74,3.71,0,5.59,1.85,6.32,5.49,1,4.87,2.13,9.73,3.55,14.49,5.76,19.42,14.73,37.06,29.81,51,8.64,8,18.76,13.06,30.86,13.27,12.47,1.32,23.44-2.77,33.72-9.35,1.34-.85.94-1.8.3-2.84-2.44-4-4.51-8.28-7.59-11.9-4.42-7.41-9.86-14.07-15.35-20.68-8.13-9.81-16.95-19-25.85-28.07-2.63-2.69-2.57-5.91-.11-8.26s5.37-2.18,8,.29c1.72,1.62,3.35,3.35,5,5.06,4.53,4.74,9,9.49,14.09,14.79.57-5,1-9.16,1.55-13.33s2.81-6.25,6.24-5.93c3.67.35,5.41,2.84,4.92,7.29-.76,7.06-1.62,14.11-2.41,21.17-.15,1.35-.37,2.65.65,3.9,3.07,3.77,6,7.63,9,11.45l11.79,18.38a54.58,54.58,0,0,0,9.69-13.34,3.61,3.61,0,0,0,.32-3.21c-4.08-10.58-1.92-20.61,2.86-30.35a6,6,0,0,0,.24-5,68.43,68.43,0,0,0-14.84-24.9c-10-10.84-22.06-18.7-35.36-24.75A182.07,182.07,0,0,0,189,218.11c-4.49-1.11-9.12-1.15-13.69-1.65-2.54-.27-3.42.29-3.64,3a204.38,204.38,0,0,0-.66,22.81c.12,3.94-1.25,6.49-5.17,7.46-5.1-1-6-2.15-6.14-7.19a242.68,242.68,0,0,1,1.57-31.77c.3-2.75,1.78-4.47,3.76-6h12.75c4.82,1.66,9.92,1.41,14.88,2.18,25.6,3.95,50.12,11,72.43,24.58,17.11,10.38,30.93,23.87,39.23,43a107,107,0,0,1,15-13.89A100.46,100.46,0,0,1,338.84,249c4-1.79,6.29-1.22,8.64,2.37C358,267.59,364.06,285.1,363,304.69c-.92,17.44-10,30.19-24.83,34.68a35.07,35.07,0,0,1-15.93,1.12c-2.05-.34-2.84.37-3.33,2.25-6.21,23.61-10.6,47.55-10.7,72,0,10.43,1.87,20.86,2.89,31.27,1.06.06,1.07-.73,1.27-1.21a125,125,0,0,1,26-39.46c1.19-1.24,2-2.19,1.16-4.12-9.18-20.45-1.35-44.36,20.28-56.16,15-8.18,31.16-10.93,48-10.64a145.2,145.2,0,0,1,37.64,5.67c4.83,1.38,6.31,3.56,5.2,8.28-5.18,22.05-14,42.39-29.53,59.23-8.85,9.57-19,17.37-32.19,20.06-15.49,3.16-28.94-.9-40-12.22-1.95-2-2.74-2.22-4.71,0C328.13,433.3,319,454.37,315,477.9a171.28,171.28,0,0,0-1.84,17.5c-.15,2.37.46,3,2.79,3,12.12-.11,24.24-.07,36.37-.05,20.67.05,34.29,12.95,35.29,33.61.11,2.32,1,2.56,2.88,2.52,4.37-.1,8.78-.29,13.08.65,15.61,3.4,25.84,16,26.44,32.42.12,3.22-1.06,7.67.6,9.36,2,2,6.38.54,9.73.59,5.37.09,10.75,0,16.12,0,3,0,6.11-.36,7.76,3.08s-.3,5.79-2.25,8.18H378c-1.46-1.69-3.18-3.24-3.21-5.73,1.19-4.46,2.49-5.48,7-5.53l12.68-.11c4.73,0,9.46.1,14.19.11,10.11,0,10.11,0,9.95-10.11s-6-17.92-15.67-20.71c-5.72-1.65-11.62-.64-17.45-.68-3.69-.13-7.4-.24-9.06-4.48,0-3.48.09-7,0-10.44a21.57,21.57,0,0,0-15.33-20.31c-6.26-1.85-12.73-1.75-19.18-1a11.91,11.91,0,0,0-1.84-.29c-26.74,0-53.47-.11-80.21,0-7.59,0-14,2.92-18.7,9.31-4.28,5.89-4.23,12.58-4.17,19.37.06,5.7-1.87,7.58-7.63,7.63-4.62,0-9.25,0-13.87,0a20.66,20.66,0,0,0-14.12,6c-6.21,5.78-6.7,13.2-6.69,21,0,3.83,1,4.7,4.78,4.69q72.9-.2,145.8-.08c4.95,0,6.19,1,7.42,5.53,0,2.48-1.74,4-3.21,5.72ZM327.74,297c5.09,2.76,5.56,4.43,3.41,9.93-2.53,6.5-4.73,13.12-7.31,19.59-1,2.54-.07,2.9,2.1,3.15a22.27,22.27,0,0,0,23.6-15.18c6-18.82-.17-35.79-8.75-52.28-.79-1.51-1.66-.66-2.42-.23-6,3.37-11.86,6.85-16.84,11.65-8.71,6.86-15.3,15.26-18.7,25.92-2.92,9.14,0,18.85,7.11,24.18,1.75,1.32,2.57,1.35,3.29-1,2.23-7.12,4.93-14.07,7.79-21C322.3,298.68,324.26,296.84,327.74,297ZM372.6,416.73A28.67,28.67,0,0,0,387,417.94c6.68-1.13,11.37-5.66,16.34-9.46,18.68-14.32,28.32-34.38,34.77-56.34.52-1.77,0-2.38-1.77-2.77-6.83-1.5-13.66-2.92-20.68-3.16a89.92,89.92,0,0,0-24.58.37c-12.37,1.83-24.07,5.58-33.73,13.9-10.38,8.94-13.65,23.48-8,34.46.62-.43,1.25-.81,1.82-1.27,13.86-11.22,29.32-19.75,45.53-27,5.64-2.52,8.68-.68,9.31,5.57L405,374.83c-6,3.87-13.05,5.75-19.19,10.1,1.44.7,2.46,1.16,3.46,1.67,3.63,1.85,4.68,4.38,3.16,7.56s-4.22,4.16-7.82,2.66c-3-1.25-6-2.55-8.87-4a4,4,0,0,0-4.48.17c-5,3.33-9.78,6.91-14.51,10.59-1.85,1.43-1.48,2.38-.05,3.76A36.66,36.66,0,0,0,372.6,416.73Zm-72.76-39c.47-2,.73-2.79.86-3.63a311.66,311.66,0,0,1,6.4-30.68c1.69-6.54,1.76-6.53-3.49-10.43a10.91,10.91,0,0,1-1.45-1.17c-1.2-1.31-2-1.37-3,.33a58.59,58.59,0,0,1-9.85,12.17,2.59,2.59,0,0,0-.65,3.54A200.51,200.51,0,0,1,299.84,377.72Z" transform="translate(-148.62 -204.75)"/><path class="cls-2" d="M165.81,249.74c3.92-1,5.29-3.52,5.17-7.46a204.38,204.38,0,0,1,.66-22.81c.22-2.72,1.1-3.28,3.64-3,4.57.5,9.2.54,13.69,1.65,4.27,2.67,9.28,3.32,13.88,5.1,20.91,8.11,40,18.86,54.79,36.22,14.47,16.94,20,35.73,13,57.43-3-3.82-5.93-7.68-9-11.45-1-1.25-.8-2.55-.65-3.9.79-7.06,1.65-14.11,2.41-21.17.49-4.45-1.25-6.94-4.92-7.29-3.43-.32-5.66,1.72-6.24,5.93s-1,8.37-1.55,13.33c-5-5.3-9.56-10.05-14.09-14.79-1.64-1.71-3.27-3.44-5-5.06-2.61-2.47-5.63-2.53-8-.29s-2.52,5.57.11,8.26c8.9,9.1,17.72,18.26,25.85,28.07,5.49,6.61,10.93,13.27,15.35,20.68-5,5.82-9.28,12.32-15.77,16.75-3.56,2.43-7.11,4.89-10.66,7.34-12.1-.21-22.22-5.3-30.86-13.27-15.08-13.9-24-31.54-29.81-51-1.42-4.76-2.57-9.62-3.55-14.49-.73-3.64-2.61-5.52-6.32-5.49Q166.87,259.4,165.81,249.74Z" transform="translate(-148.62 -204.75)"/><path class="cls-3" d="M374.79,583H352.71c-1.23-4.58-2.47-5.53-7.42-5.53q-72.9,0-145.8.08c-3.75,0-4.78-.86-4.78-4.69,0-7.83.48-15.25,6.69-21a20.66,20.66,0,0,1,14.12-6c4.62-.06,9.25,0,13.87,0,5.76-.05,7.69-1.93,7.63-7.63-.06-6.79-.11-13.48,4.17-19.37,4.66-6.39,11.11-9.27,18.7-9.31,26.74-.15,53.47-.06,80.21,0a11.91,11.91,0,0,1,1.84.29c1,2.1,3,3.24,4.41,5a24.35,24.35,0,0,1,5.42,15.47c0,9.78,0,9.83,9.59,9.76,5.09,0,10.16-.05,15.08,1.53,1.66,4.24,5.37,4.35,9.06,4.48,3.68,5.38,7.27,10.81,9.12,17.16,0,.07.22.09.33.13l.42,3c-1.94,3.59-.34,7.45-.89,11.15l-12.68.11C377.28,577.54,376,578.56,374.79,583ZM265.9,524.86a5.33,5.33,0,0,0-5.51,5.35A5.69,5.69,0,0,0,266,536a5.6,5.6,0,0,0,5.47-5.9A5.14,5.14,0,0,0,265.9,524.86Zm-48.79,33.08a5.52,5.52,0,0,0-5.54,5.73,5.51,5.51,0,1,0,11-.32A5.5,5.5,0,0,0,217.11,557.94Zm95.64-8.8c.05-3.33-2-5.46-5.2-5.53-3.4-.07-5.36,1.81-5.45,5.2s2,5.78,4.93,5.94A5.48,5.48,0,0,0,312.75,549.14Z" transform="translate(-148.62 -204.75)"/><path class="cls-4" d="M270.62,316.86c7-21.7,1.49-40.49-13-57.43-14.83-17.36-33.88-28.11-54.79-36.22-4.6-1.78-9.61-2.43-13.88-5.1a182.07,182.07,0,0,1,56.35,15.62c13.3,6.05,25.38,13.91,35.36,24.75a68.43,68.43,0,0,1,14.84,24.9,6,6,0,0,1-.24,5c-4.78,9.74-6.94,19.77-2.86,30.35a3.61,3.61,0,0,1-.32,3.21,54.58,54.58,0,0,1-9.69,13.34Z" transform="translate(-148.62 -204.75)"/><path class="cls-5" d="M406,372.26c-.63-6.25-3.67-8.09-9.31-5.57-16.21,7.23-31.67,15.76-45.53,27-.57.46-1.2.84-1.82,1.27-5.68-11-2.41-25.52,8-34.46,9.66-8.32,21.36-12.07,33.73-13.9a89.92,89.92,0,0,1,24.58-.37c-1.77,5.89-3.36,11.84-5.38,17.64C409.21,366.78,408.78,370.15,406,372.26Z" transform="translate(-148.62 -204.75)"/><path class="cls-4" d="M406,372.26c2.78-2.11,3.21-5.48,4.24-8.41,2-5.8,3.61-11.75,5.38-17.64,7,.24,13.85,1.66,20.68,3.16,1.76.39,2.29,1,1.77,2.77-6.45,22-16.09,42-34.77,56.34-5,3.8-9.66,8.33-16.34,9.46a28.67,28.67,0,0,1-14.36-1.21c.2-.81.89-1.15,1.5-1.58,10.76-7.51,19-17.3,25.61-28.55,2.16-3.7,4.77-7.28,5.24-11.77Z" transform="translate(-148.62 -204.75)"/><path class="cls-6" d="M321.53,273.61c5-4.8,10.88-8.28,16.84-11.65.76-.43,1.63-1.28,2.42.23,8.58,16.49,14.71,33.46,8.75,52.28a22.27,22.27,0,0,1-23.6,15.18c-2.17-.25-3.12-.61-2.1-3.15,2.58-6.47,4.78-13.09,7.31-19.59,2.15-5.5,1.68-7.17-3.41-9.93a94.43,94.43,0,0,0-1.58-9.85C324.93,282.53,324.74,277.54,321.53,273.61Z" transform="translate(-148.62 -204.75)"/><path class="cls-7" d="M321.53,273.61c3.21,3.93,3.4,8.92,4.63,13.52a94.43,94.43,0,0,1,1.58,9.85c-3.48-.14-5.44,1.7-6.72,4.8-2.86,6.9-5.56,13.85-7.79,21-.72,2.31-1.54,2.28-3.29,1-7.07-5.33-10-15-7.11-24.18C306.23,288.87,312.82,280.47,321.53,273.61Z" transform="translate(-148.62 -204.75)"/><path class="cls-8" d="M376.44,541.51c-4.92-1.58-10-1.57-15.08-1.53-9.59.07-9.62,0-9.59-9.76a24.35,24.35,0,0,0-5.42-15.47c-1.37-1.75-3.43-2.89-4.41-5,6.45-.75,12.92-.85,19.18,1a21.57,21.57,0,0,1,15.33,20.31C376.53,534.55,376.45,538,376.44,541.51Z" transform="translate(-148.62 -204.75)"/><path class="cls-9" d="M405,374.83c-.47,4.49-3.08,8.07-5.24,11.77-6.58,11.25-14.85,21-25.61,28.55-.61.43-1.3.77-1.5,1.58a36.66,36.66,0,0,1-16-9.38c-1.43-1.38-1.8-2.33.05-3.76,4.73-3.68,9.52-7.26,14.51-10.59a4,4,0,0,1,4.48-.17c2.9,1.44,5.88,2.74,8.87,4,3.6,1.5,6.29.55,7.82-2.66s.47-5.71-3.16-7.56c-1-.51-2-1-3.46-1.67C391.9,380.58,399,378.7,405,374.83Z" transform="translate(-148.62 -204.75)"/><path class="cls-10" d="M395,563.28c-.11,0-.31-.06-.33-.13-1.85-6.35-5.44-11.78-9.12-17.16,5.83,0,11.73-1,17.45.68,9.69,2.79,15.52,10.64,15.67,20.71s.16,10.13-9.95,10.11c-4.73,0-9.46-.07-14.19-.11.55-3.7-1.05-7.56.88-11.15a24.12,24.12,0,0,0,1.92,1.74,4.83,4.83,0,0,0,5.56.54,5.15,5.15,0,0,0,3-4.76c0-3-1.13-5.07-4.18-5.7C398.26,557.35,396.17,559,395,563.28Z" transform="translate(-148.62 -204.75)"/><path class="cls-11" d="M238.49,353.27c3.55-2.45,7.1-4.91,10.66-7.34,6.49-4.43,10.77-10.93,15.77-16.75,3.08,3.62,5.15,7.88,7.59,11.9.64,1,1,2-.3,2.84C261.93,350.5,251,354.59,238.49,353.27Z" transform="translate(-148.62 -204.75)"/><path class="cls-12" d="M265.9,524.86a5.14,5.14,0,0,1,5.52,5.28A5.6,5.6,0,0,1,266,536a5.69,5.69,0,0,1-5.56-5.83A5.33,5.33,0,0,1,265.9,524.86Z" transform="translate(-148.62 -204.75)"/><path class="cls-12" d="M217.11,557.94a5.5,5.5,0,0,1,5.48,5.41,5.51,5.51,0,1,1-11,.32A5.52,5.52,0,0,1,217.11,557.94Z" transform="translate(-148.62 -204.75)"/><path class="cls-1" d="M312.75,549.14a5.48,5.48,0,0,1-5.72,5.61c-2.91-.16-5-2.7-4.93-5.94s2-5.27,5.45-5.2C310.79,543.68,312.8,545.81,312.75,549.14Z" transform="translate(-148.62 -204.75)"/><path class="cls-1" d="M395,563.28c1.22-4.25,3.31-5.93,6.68-5.23,3.05.63,4.19,2.73,4.18,5.7a5.15,5.15,0,0,1-3,4.76,4.83,4.83,0,0,1-5.56-.54,24.12,24.12,0,0,1-1.92-1.74C395.23,565.25,395.09,564.26,395,563.28Z" transform="translate(-148.62 -204.75)"/></svg>