<svg id="Layer_1" data-name="Layer 1" xmlns="http://www.w3.org/2000/svg" viewBox="0 0 384 292.55"><defs><style>.cls-1{fill:#08101c;}.cls-2{fill:#f6d607;}.cls-3{fill:#67a0d5;}.cls-4{fill:#c1bea9;}.cls-5{fill:#323d2c;}.cls-6{fill:#313c2c;}.cls-7{fill:#fdf859;}.cls-8{fill:#485043;}.cls-9{fill:#669ed2;}.cls-10{fill:#99d1fa;}.cls-11{fill:#e7e6db;}.cls-12{fill:#3178ae;}.cls-13{fill:#070e1a;}.cls-14{fill:#1c2617;}</style></defs><title>automotive</title><path class="cls-1" d="M498.75,527.25a11.3,11.3,0,0,1-3.41,2.8c-7.88,4-15.72,8.07-23.62,12-4.22,2.12-6.69.51-6.71-4.29,0-8.74-.07-17.47,0-26.21,0-1.86-.42-3.11-2.24-3.7a5.28,5.28,0,0,1-.69-.29c-4-2-8.06-5.59-12-5.49-4.28.11-8.44,3.78-12.75,5.69-1.9.85-2.41,2-2.39,4,.12,8.61.08,17.22,0,25.83,0,5.1-2.37,6.57-6.88,4.29-5-2.52-9.85-5.35-15-7.61-2.95-1.31-3.37-2.74-1.68-5.2,1-2.89,2.72-3.46,5.21-1.54a6.4,6.4,0,0,0,1.72.7l9.14,4.92c0-8.64.11-16.5-.06-24.36-.06-3.19,1.09-5.09,4-6.41,3.26-1.49,6.35-3.38,9.51-5.09a27.16,27.16,0,0,0,4.37-2c3.16-2.16,6.07-2,9.37-.13,4.63,2.68,9.45,5,14.27,7.37a5.63,5.63,0,0,1,3.62,5.84c-.17,7.36,0,14.73-.07,22.09,0,1.75.21,2.77,2.23,1.62,2.48-1.41,5-2.75,7.51-4.12,1.9-.89,3.75-2,5.72-2.65,2.63-.93,3.41-2.53,3.37-5.32-.17-11.61-.14-23.23,0-34.84a4.28,4.28,0,0,0-2.81-4.55c-6.61-3.19-13.07-6.7-19.67-9.93-2.67-1.3-3.89-3-3.88-6.08q.11-67.8,0-135.59a6,6,0,0,1,3.81-6.13c6.39-3.09,12.63-6.5,19-9.57,2.53-1.21,3.63-2.6,3.55-5.63-.25-9.6-.74-19.28.12-28.82.65-7.28-1.95-11.13-8.49-13.1-.23-.07-.48-.11-.72-.16-2.18-1.2-4.39-2.34-6.53-3.62-2.33-1.4-3.37-1.35-3.28,1.89.2,7-.07,14,.12,21,.09,3.22-1.09,5.12-4,6.37a51.37,51.37,0,0,0-8.3,4.3c-6.26,4.16-12.48,5.9-19,.72-.08-.06-.24,0-.37,0-1.39-.79-2.76-1.61-4.17-2.37-10.82-5.81-9-2.75-9.16-15.13-.07-5.89,0-11.79,0-18.34l-9.13,4.95c-2.24,1.07-4.43,2.28-6.74,3.17s-3,2.29-3,4.8c.16,11.61.14,23.22,0,34.83,0,2.41.53,3.75,2.87,4.86,6.75,3.2,13.31,6.8,20,10.12a5.52,5.52,0,0,1,3.47,5.56Q435,396.81,435,465a5.53,5.53,0,0,1-3.47,5.57c-5.38,2.62-10.52,5.78-16.05,8-5.37,2.14-7.93,5.23-6.82,11.13.53,2.79-.63,4.89-3.7,5.47-4.81,5.75-4.84,9.46-.12,13.52.8.92,1.64,1.81,2.39,2.78,2.82,3.68-.77,5.43-2.37,7.78-4.19,4.1-8.36,8.21-12.56,12.29-2.84,2.76-4.46,2.76-7.28.07l-.27-.26c-5.79-5.65-5.77-5.61-13.26-2.49a2.44,2.44,0,0,0-1.85,2.74c.12,2.36.06,4.74,0,7.11-.05,2.89-1.55,4.35-4.45,4.34-7.12,0-14.24,0-21.36,0-2.72,0-4.15-1.41-4.18-4.17,0-.5,0-1,0-1.5-.05-8.45-.07-8.39-8.24-11.15a2,2,0,0,0-2.52.74c-1.59,1.59-3.21,3.15-4.76,4.78-2.39,2.49-4.64,2.44-7.05-.05-4.69-4.85-9.54-9.54-14.18-14.44a5.46,5.46,0,0,0-4.43-2q-21.18.15-42.35,0a3.41,3.41,0,0,0-3.42,2c-20.94,34.48-67.6,34.46-88.5-.06-1-1.66-2.07-2-3.85-2-13.36.08-26.73,0-40.09.09a6.42,6.42,0,0,1-5.56-2.3V471c2.58-3.52,6.37-2.24,9.68-2.15,3,.08,4-.57,3.91-3.81-.26-9.24,0-18.49-.14-27.74a7.74,7.74,0,0,1,2.24-5.65c18.72-20.88,41.74-34.13,69.38-39.15,9.13-1.66,18.37-1.88,27.63-1.78,9,.1,18-.05,27,.08a6,6,0,0,0,5.31-2.5c9.32-11.41,17.86-23.49,28.3-33.95q45.78-45.83,110.54-49c2.41-.12,2.82-.83,2.8-3-.11-10.87,0-21.74-.1-32.62,0-3,.91-4.91,3.64-6.26,7.82-3.87,15.54-7.93,23.32-11.87q6.83-3.45,6.84,4.3c0,8.5.1,17,0,25.49a4.15,4.15,0,0,0,2.84,4.51c4.21,1.85,8.3,5.57,12.43,5.55s8.2-3.76,12.39-5.65c1.9-.86,2.46-2,2.44-4-.12-8.63-.08-17.25,0-25.87,0-5.11,2.43-6.65,6.9-4.35,8.94,4.6,17.84,9.28,26.75,13.92v50.25c-1.69,1-3.33,2.08-5.06,3-6.3,3.26-12.6,6.54-19,9.62a3.44,3.44,0,0,0-2.25,3.67q.07,64.77,0,129.54c0,2.17.87,3,2.58,3.88,6.57,3.27,13.07,6.69,19.64,10a10.91,10.91,0,0,1,4.09,3.1ZM298.54,378.87c-8.81-.42-10.76,1.36-10.59,9.17.05,2.13.68,2.77,2.78,2.74,9.37-.09,18.73,0,28.09-.06,4.17,0,5.9-1.72,6.54-6-.69-4.15-2.38-5.89-6.24-5.93C312.26,378.72,305.4,378.83,298.54,378.87ZM157.39,485.19a59.15,59.15,0,0,1,.15-6c.3-2.54-.74-3.07-3.1-3-7.84.14-15.68.05-23.53.05-8.94,0-8.94,0-8.55,8.94,0,6.6,0,13.2-.14,19.8,0,2.07.54,2.82,2.71,2.8q14.94-.15,29.89,0c2.17,0,2.75-.73,2.71-2.8C157.4,498.39,157.43,491.79,157.39,485.19Zm102.22,0c0,6.61,0,13.22-.12,19.83,0,1.72.17,2.77,2.36,2.76,14.09-.08,28.19,0,42.28-.08,3.46,0,5.08-2.91,3.7-6a20.5,20.5,0,0,1-1.39-3.46c-.63-2.62-2.1-3.44-4.81-3.34-11,.39-9.76-.36-10-9.71a59.15,59.15,0,0,1,.15-6c.29-2.53-.73-3.08-3.1-3-6.84.15-13.69.05-20.53.05C259.22,476.25,259.22,476.25,259.61,485.19Zm20.78-90.65c0-2.5.1-5,.11-7.49,0-10.53,5-15.66,15.49-15.75a5.22,5.22,0,0,0,4.39-2.17c3-3.52,6-7,9.28-10.29a117,117,0,0,1,66.69-33.51c11.94-1.8,23.92-1.11,35.89-1.35,1.11,0,2.34.39,3.64-.49-2.08-1.09-3.85-2-5.62-2.93s-3.58-1.77-5.35-2.7c-1.2-.63-2.82-1.14-3-2.59-.4-3-2.41-2.56-4.37-2.45a160.27,160.27,0,0,0-69.17,19.81c-27,14.73-45.67,37.91-63.75,61.77-2.26,3.42-5.53,3.92-9.39,3.87q-19.47-.25-38.94,0a99.59,99.59,0,0,0-28,4.61A108.58,108.58,0,0,0,163.06,414h6.13c1.88,0,3.75,0,5.62,0,5.22,0,6.61,1.7,5.74,7a21.85,21.85,0,0,1-21.7,18.53c-6.75.07-13.5.12-20.24,0-2.36-.06-3,.67-2.91,2.95.14,7.87.12,15.75,0,23.62,0,2.07.49,2.81,2.69,2.77,7.49-.12,15-.13,22.49,0,1.87,0,2.57-.81,3.4-2.17,20.88-34.31,67.43-34.31,88.4,0a3.78,3.78,0,0,0,3.81,2.13c10.37-.1,20.74-.06,31.11,0,2.11,0,4.14.33,5.08-2.4.41-1.21,1.93-1.42,3.24-1.41,2.13,0,4.26-.13,6.37,0s2.8-.68,3.87-2.46c3.18-5.29,2.53-9.35-2.68-12.66a3.86,3.86,0,0,1-.54-.53c-2.35-2.28-2.26-4.55,0-6.82,3.44-3.44,6.9-6.88,10.33-10.34,7.88-8,7.21-8,14.95,0,1.36,1.39,2.38,1.6,4.46,1.07,6-1.52,8.41-4.83,7.09-10.87a4.66,4.66,0,0,1,0-1.12c.07-2.9,1.5-4.34,4.44-4.33,7.12,0,14.25,0,21.37,0,2.76,0,4.17,1.37,4.19,4.14,0,2.37,0,4.74,0,7.12,0,1.15.07,2,1.4,2.65,7.57,3.8,7.55,3.85,13.47-2l.54-.53c2.93-2.79,4.4-2.84,7.27,0,4.73,4.65,9.34,9.4,14.07,14,2.44,2.39,2.67,4.62.07,7-1.56,1.44-3,3-4.5,4.5-.65.68-1.39,1.2-1.1,2.52,1.47,6.82,3.5,8.52,10.62,8.54l2.62,0c1.21,0,2.45.4,2.82,1.49.84,2.42,2.08,2,3.74,1a52.22,52.22,0,0,1,5-2.55,2.76,2.76,0,0,0,1.8-2.89q-.14-29.24-.17-58.47l0-8.94c0-19.81,0-39.62.07-59.43,0-2.28-.16-3.87-3.12-3.65s-6,.08-9,.09c-13,.18-26-.95-38.91,1.55-2.29-.33-4.44.51-6.59,1a112.5,112.5,0,0,0-50.1,25.34c-3.84,3.36-7.78,6.8-10.94,11.82h11.49c3.9,0,6.69,2.39,9.6,4.5,2.05,3.85,4.1,7.76,2.66,12.29-.79,2.47.3,2.75,2.29,2.72,5.82-.09,11.65-.1,17.48-.15,19.95.05,39.91.16,59.86.06,3.07,0,4.44.8,4,3.92-.21,1.75.73,3.77-2.76,3.75q-64-.21-128-.06C282.76,398.28,280.93,397.38,280.39,394.54ZM165.1,490.45c-.5,24.46,17.75,44,41.64,44.9,25.75,1,46.07-19.36,45.11-45.11-.89-23.89-20.42-42.13-44.9-41.64a47.7,47.7,0,0,0-13.74,2.82A43.67,43.67,0,0,0,165.1,490.45ZM347.35,426a41.55,41.55,0,0,0-.11,4.86c.31,3.68-1,5.86-4.83,6.69a34,34,0,0,0-9.94,4.22,4.52,4.52,0,0,1-6.08-.72c-1.86-1.79-3.47-5.18-5.7-4.88-2.08.27-3.8,3.32-5.67,5.15l-.27.27c-4.45,4.44-4.56,4.56.09,9,2.72,2.57,3.29,4.94,1.17,8.17a30,30,0,0,0-3.91,9.67c-.69,3-2.45,4-5.36,4.08-2.45.09-5.07-1-7.37.73,0,2.24-.11,4.49-.11,6.73,0,7.34,0,7.44,7.26,7.43,3.11,0,4.87,1.1,5.63,4.2a36.62,36.62,0,0,0,4.31,10.32c1.4,2.32,1.32,4.37-.72,6.39-1.75,1.74-4.83,3.27-4.77,5.42.07,2.35,3.21,3.86,5,5.71,4.7,4.82,4.83,4.86,9.79-.13,2.31-2.34,4.49-2.75,7.28-1a33.22,33.22,0,0,0,10,4.14c3.08.74,4.22,2.52,4.21,5.63,0,7.42.09,7.42,7.63,7.42,7.23,0,7.33,0,7.32-7.33,0-3.13,1.2-4.83,4.27-5.59a36.76,36.76,0,0,0,10.32-4.3c2.17-1.31,4.13-1.37,6.11.5s3.56,5.26,5.67,5,4.06-3.34,6-5.26c4.57-4.51,4.54-4.52.09-9.05-1.48-1.51-3.8-3.29-2.42-5.35,3.5-5.24,3.11-12.4,8.43-16.63a1.55,1.55,0,0,0,.46-1.69c-1.54-6.92,2.22-10.37,8.09-12.47.13,0,.14-.38.27-.78-2.28,0-4.51-.11-6.73,0-3.16.18-4.85-1.25-5.58-4.27a36.86,36.86,0,0,0-4.32-10.32c-1.46-2.39-1.21-4.37.76-6.37,1.73-1.77,5-3.37,4.69-5.43s-3.17-3.89-5-5.74c-4.74-4.8-4.8-4.83-9.55,0-1.93,1.94-3.84,3.27-6.56,1.69a46.45,46.45,0,0,0-11.71-4.83,4.1,4.1,0,0,1-3.3-4c-.28-2.87,1.47-6.82-.93-8.35-2.15-1.36-5.81-.35-8.81-.37-1.37,0-2.75,0-4.12,0C347.25,424.54,347.18,425.22,347.35,426Zm-205.84,5.9c6.69,0,12.65.21,18.59-.06a12.88,12.88,0,0,0,12.12-10.19A44.48,44.48,0,0,0,141.51,431.94Z" transform="translate(-114.75 -250.53)"/><path class="cls-2" d="M440.88,296.2c.13,0,.29,0,.37,0,6.56,5.18,12.78,3.44,19-.72a51.37,51.37,0,0,1,8.3-4.3c2.92-1.25,4.1-3.15,4-6.37-.19-7,.08-14-.12-21-.09-3.24.95-3.29,3.28-1.89,2.14,1.28,4.35,2.42,6.53,3.62,0,14.75-.13,29.5,0,44.25,0,3.13-1,4.65-3.75,5.92-6.67,3.13-13.17,6.63-19.81,9.83a4.43,4.43,0,0,0-2.82,4.63q.1,66.55,0,133.11a4.41,4.41,0,0,0,2.87,4.6c6.86,3.32,13.59,6.9,20.47,10.19a4.56,4.56,0,0,1,3,4.85c-.12,15-.05,30,0,45-2.5,1.37-5,2.71-7.51,4.12-2,1.15-2.24.13-2.23-1.62,0-7.36-.1-14.73.07-22.09a5.63,5.63,0,0,0-3.62-5.84c-4.82-2.33-9.64-4.69-14.27-7.37-3.3-1.91-6.21-2-9.37.13a27.16,27.16,0,0,1-4.37,2,10.31,10.31,0,0,0-5.46.77c-4.86,2.54-9.75,5-14.71,7.36-1.93.91-2.36,2.16-2.34,4.11.07,6.24,0,12.47-.06,18.7a6.4,6.4,0,0,1-1.72-.7c-2.49-1.92-4.18-1.35-5.21,1.54l-.34-.14c-5-1.39-7.1-4.62-6.23-9.75,1.6-2.35,5.19-4.1,2.37-7.78-.75-1-1.59-1.86-2.39-2.78l.12-13.52c3.07-.58,4.23-2.68,3.7-5.47-1.11-5.9,1.45-9,6.82-11.13,5.53-2.2,10.67-5.36,16.05-8A5.53,5.53,0,0,0,435,465q-.07-68.16,0-136.32a5.52,5.52,0,0,0-3.47-5.56c-6.69-3.32-13.25-6.92-20-10.12-2.34-1.11-2.9-2.45-2.87-4.86.12-11.61.14-23.22,0-34.83,0-2.51.67-3.9,3-4.8s4.5-2.1,6.74-3.17l.09,6.33c.07,5-1.42,10.76.65,14.65,2.19,4.09,8.55,4.94,13,7.38C434.85,295.15,437.54,296.84,440.88,296.2Z" transform="translate(-114.75 -250.53)"/><path class="cls-3" d="M427.44,403.48q.07,29.24.17,58.47a2.76,2.76,0,0,1-1.8,2.89,52.22,52.22,0,0,0-5,2.55c-1.66,1-2.9,1.45-3.74-1-.37-1.09-1.61-1.49-2.82-1.49l-2.62,0c-7.12,0-9.15-1.72-10.62-8.54-.29-1.32.45-1.84,1.1-2.52,1.46-1.54,2.94-3.06,4.5-4.5,2.6-2.4,2.37-4.63-.07-7-4.73-4.64-9.34-9.39-14.07-14-2.87-2.82-4.34-2.77-7.27,0l-.54.53c-5.92,5.83-5.9,5.78-13.47,2-1.33-.67-1.41-1.5-1.4-2.65,0-2.38,0-4.75,0-7.12,0-2.77-1.43-4.14-4.19-4.14-7.12,0-14.25,0-21.37,0-2.94,0-4.37,1.43-4.44,4.33a4.66,4.66,0,0,0,0,1.12c1.32,6-1.12,9.35-7.09,10.87-2.08.53-3.1.32-4.46-1.07-7.74-8-7.07-8-14.95,0-3.43,3.46-6.89,6.9-10.33,10.34-2.28,2.27-2.37,4.54,0,6.82a3.86,3.86,0,0,0,.54.53c5.21,3.31,5.86,7.37,2.68,12.66-1.07,1.78-1.85,2.61-3.87,2.46s-4.24,0-6.37,0c-1.31,0-2.83.2-3.24,1.41-.94,2.73-3,2.41-5.08,2.4-10.37,0-20.74-.07-31.11,0a3.78,3.78,0,0,1-3.81-2.13c-21-34.32-67.52-34.32-88.4,0-.83,1.36-1.53,2.21-3.4,2.17-7.5-.16-15-.15-22.49,0-2.2,0-2.72-.7-2.69-2.77.11-7.87.13-15.75,0-23.62,0-2.28.55-3,2.91-2.95,6.74.16,13.49.11,20.24,0A21.85,21.85,0,0,0,180.55,421c.87-5.26-.52-6.94-5.74-7-1.87,0-3.74,0-5.62,0h-6.13a108.58,108.58,0,0,1,25.26-11.09c1,.89,2.13.57,3.21.57Q309.49,403.51,427.44,403.48Z" transform="translate(-114.75 -250.53)"/><path class="cls-4" d="M347.35,426c-.17-.82-.1-1.5,1-1.52,1.37,0,2.75,0,4.12,0,3,0,6.66-1,8.81.37,2.4,1.53.65,5.48.93,8.35a4.1,4.1,0,0,0,3.3,4,46.45,46.45,0,0,1,11.71,4.83c2.72,1.58,4.63.25,6.56-1.69,4.75-4.79,4.81-4.76,9.55,0,1.83,1.85,4.67,3.62,5,5.74s-3,3.66-4.69,5.43c-2,2-2.22,4-.76,6.37a36.86,36.86,0,0,1,4.32,10.32c.73,3,2.42,4.45,5.58,4.27,2.22-.14,4.45,0,6.73,0-.13.4-.14.74-.27.78-5.87,2.1-9.63,5.55-8.09,12.47a1.55,1.55,0,0,1-.46,1.69c-5.32,4.23-4.93,11.39-8.43,16.63-1.38,2.06.94,3.84,2.42,5.35,4.45,4.53,4.48,4.54-.09,9.05-1.94,1.92-3.79,4.94-6,5.26s-3.78-3.16-5.67-5-3.94-1.81-6.11-.5a36.76,36.76,0,0,1-10.32,4.3c-3.07.76-4.27,2.46-4.27,5.59,0,7.33-.09,7.33-7.32,7.33-7.54,0-7.64,0-7.63-7.42,0-3.11-1.13-4.89-4.21-5.63a33.22,33.22,0,0,1-10-4.14c-2.79-1.75-5-1.34-7.28,1-5,5-5.09,5-9.79.13-1.81-1.85-4.95-3.36-5-5.71-.06-2.15,3-3.68,4.77-5.42,2-2,2.12-4.07.72-6.39a36.62,36.62,0,0,1-4.31-10.32c-.76-3.1-2.52-4.21-5.63-4.2-7.27,0-7.28-.09-7.26-7.43,0-2.24.07-4.49.11-6.73A37.46,37.46,0,0,0,324.61,480c.3,2.23.46,4.48.92,6.66,3.28,15.7,19,25.86,35.14,22.73,15.77-3.07,26.5-18.61,23.62-34.2C381.48,460,370.72,451,354,449.88c0-1.37.07-2.75,0-4.12C353.83,438.5,352.07,431.77,347.35,426Z" transform="translate(-114.75 -250.53)"/><path class="cls-5" d="M415.46,331.55c3,0,6,.14,9-.09s3.13,1.37,3.12,3.65c-.06,19.81-.05,39.62-.07,59.43l-11.16,0c.43-3.12-.94-3.93-4-3.92-19.95.1-39.91,0-59.86-.06.2-1.67,1.55-2.53,2.62-3.51,11.73-10.77,23.36-21.65,35.33-32.15,3.27-2.87,6.44-5.86,9.65-8.77C405.28,341.43,411,337.17,415.46,331.55Z" transform="translate(-114.75 -250.53)"/><path class="cls-6" d="M207,448.6c24.48-.49,44,17.75,44.9,41.64,1,25.75-19.36,46.07-45.11,45.11-23.89-.89-42.14-20.44-41.64-44.9,5,2.17,9.92,4.71,15.62,4.53.29,1.21.56,2.42.86,3.62a27.66,27.66,0,0,0,33.54,20.32c19-4.9,27.11-26.33,16.19-42.69-4.77-7.15-11.8-10.35-19.83-12C211.66,458.52,209.12,453.61,207,448.6Z" transform="translate(-114.75 -250.53)"/><path class="cls-7" d="M482.27,528c0-15-.08-30,0-45a4.56,4.56,0,0,0-3-4.85c-6.88-3.29-13.61-6.87-20.47-10.19a4.41,4.41,0,0,1-2.87-4.6q.1-66.56,0-133.11a4.43,4.43,0,0,1,2.82-4.63c6.64-3.2,13.14-6.7,19.81-9.83,2.71-1.27,3.79-2.79,3.75-5.92-.17-14.75-.05-29.5,0-44.25.24.05.49.09.72.16,6.54,2,9.14,5.82,8.49,13.1-.86,9.54-.37,19.22-.12,28.82.08,3-1,4.42-3.55,5.63-6.4,3.07-12.64,6.48-19,9.57A6,6,0,0,0,465,329q.11,67.8,0,135.59c0,3.08,1.21,4.78,3.88,6.08,6.6,3.23,13.06,6.74,19.67,9.93a4.28,4.28,0,0,1,2.81,4.55c-.13,11.61-.16,23.23,0,34.84,0,2.79-.74,4.39-3.37,5.32C486,526,484.17,527.07,482.27,528Z" transform="translate(-114.75 -250.53)"/><path class="cls-8" d="M415.46,331.55c-4.43,5.62-10.18,9.88-15.42,14.63-3.21,2.91-6.38,5.9-9.65,8.77-12,10.5-23.6,21.38-35.33,32.15-1.07,1-2.42,1.84-2.62,3.51-5.83.05-11.66.06-17.48.15-2,0-3.08-.25-2.29-2.72,1.44-4.53-.61-8.44-2.66-12.29a2.91,2.91,0,0,0,2-.89c6.41-5.92,12.79-11.85,19.24-17.71,7-6.35,14.13-12.58,21.1-19,1.6-1.47,3.68-2.68,4.21-5.08C389.44,330.6,402.47,331.73,415.46,331.55Z" transform="translate(-114.75 -250.53)"/><path class="cls-9" d="M264.6,394.4c18.08-23.86,36.75-47,63.75-61.77a160.27,160.27,0,0,1,69.17-19.81c2-.11,4-.52,4.37,2.45.2,1.45,1.82,2,3,2.59,1.77.93,3.57,1.79,5.35,2.7s3.54,1.84,5.62,2.93c-1.3.88-2.53.47-3.64.49-12,.24-23.95-.45-35.89,1.35a117,117,0,0,0-66.69,33.51c-3.27,3.26-6.3,6.77-9.28,10.29A5.22,5.22,0,0,1,296,371.3c-10.51.09-15.47,5.22-15.49,15.75,0,2.49-.07,5-.11,7.49Z" transform="translate(-114.75 -250.53)"/><path class="cls-10" d="M264.6,394.4l15.79.14c.54,2.84,2.37,3.74,5.13,3.74q64-.06,128,.06c3.49,0,2.55-2,2.76-3.75l11.16,0,0,8.94q-118,0-235.91,0c-1.08,0-2.26.32-3.21-.57a99.59,99.59,0,0,1,28-4.61q19.47-.3,38.94,0C259.07,398.32,262.34,397.82,264.6,394.4Z" transform="translate(-114.75 -250.53)"/><path class="cls-11" d="M347.35,426c4.72,5.73,6.48,12.46,6.65,19.72,0,1.37,0,2.75,0,4.12-17.63,1.9-27.72,12.24-29.36,30.08a37.46,37.46,0,0,1-25.24-6.72c2.3-1.72,4.92-.64,7.37-.73,2.91-.11,4.67-1.11,5.36-4.08a30,30,0,0,1,3.91-9.67c2.12-3.23,1.55-5.6-1.17-8.17-4.65-4.4-4.54-4.52-.09-9l.27-.27c1.87-1.83,3.59-4.88,5.67-5.15,2.23-.3,3.84,3.09,5.7,4.88a4.52,4.52,0,0,0,6.08.72,34,34,0,0,1,9.94-4.22c3.84-.83,5.14-3,4.83-6.69A41.55,41.55,0,0,1,347.35,426Z" transform="translate(-114.75 -250.53)"/><path class="cls-6" d="M376.55,333.1c-.53,2.4-2.61,3.61-4.21,5.08-7,6.39-14.09,12.62-21.1,19-6.45,5.86-12.83,11.79-19.24,17.71a2.91,2.91,0,0,1-2,.89c-2.91-2.11-5.7-4.49-9.6-4.5H308.92c3.16-5,7.1-8.46,10.94-11.82A112.5,112.5,0,0,1,370,334.09C372.11,333.61,374.26,332.77,376.55,333.1Z" transform="translate(-114.75 -250.53)"/><path class="cls-12" d="M291.64,485.19c.23,9.35-1,10.1,10,9.71,2.71-.1,4.18.72,4.81,3.34a20.5,20.5,0,0,0,1.39,3.46c1.38,3.09-.24,6-3.7,6-14.09.1-28.19,0-42.28.08-2.19,0-2.39-1-2.36-2.76.08-6.61.08-13.22.12-19.83Z" transform="translate(-114.75 -250.53)"/><path class="cls-8" d="M207,448.6c2.17,5,4.71,9.92,4.53,15.62A29.51,29.51,0,0,0,194.65,468c-10.24,6.08-14.27,15.41-13.93,27-5.7.18-10.61-2.36-15.62-4.53a43.67,43.67,0,0,1,28.11-39A47.7,47.7,0,0,1,207,448.6Z" transform="translate(-114.75 -250.53)"/><path class="cls-12" d="M157.39,485.19c0,6.6,0,13.2.14,19.8,0,2.07-.54,2.82-2.71,2.8q-14.94-.15-29.89,0c-2.17,0-2.75-.73-2.71-2.8.13-6.6.1-13.2.14-19.8Z" transform="translate(-114.75 -250.53)"/><path class="cls-10" d="M157.39,485.19h-35c-.39-8.94-.39-8.94,8.55-8.94,7.85,0,15.69.09,23.53-.05,2.36,0,3.4.49,3.1,3A59.15,59.15,0,0,0,157.39,485.19Z" transform="translate(-114.75 -250.53)"/><path class="cls-10" d="M291.64,485.19h-32c-.39-8.94-.39-8.94,8.55-8.94,6.84,0,13.69.1,20.53-.05,2.37-.05,3.39.5,3.1,3A59.15,59.15,0,0,0,291.64,485.19Z" transform="translate(-114.75 -250.53)"/><path class="cls-12" d="M325.36,384.71c-.64,4.29-2.37,6-6.54,6-9.36.07-18.72,0-28.09.06-2.1,0-2.73-.61-2.78-2.74-.17-7.81,1.78-9.59,10.59-9.17.29,4.48,1.59,5.85,5.87,5.87C311.4,384.78,318.38,384.72,325.36,384.71Z" transform="translate(-114.75 -250.53)"/><path class="cls-7" d="M418.4,528.25c0-6.23.13-12.46.06-18.7,0-1.95.41-3.2,2.34-4.11,5-2.32,9.85-4.82,14.71-7.36a10.31,10.31,0,0,1,5.46-.77c-3.16,1.71-6.25,3.6-9.51,5.09-2.89,1.32-4,3.22-4,6.41.17,7.86.06,15.72.06,24.36Z" transform="translate(-114.75 -250.53)"/><path class="cls-7" d="M440.88,296.2c-3.34.64-6-1.05-8.74-2.53-4.44-2.44-10.8-3.29-13-7.38-2.07-3.89-.58-9.69-.65-14.65l-.09-6.33,9.13-4.95c0,6.55-.06,12.45,0,18.34.14,12.38-1.66,9.32,9.16,15.13C438.12,294.59,439.49,295.41,440.88,296.2Z" transform="translate(-114.75 -250.53)"/><path class="cls-2" d="M141.51,431.94a44.48,44.48,0,0,1,30.71-10.25,12.88,12.88,0,0,1-12.12,10.19C154.16,432.15,148.2,431.94,141.51,431.94Z" transform="translate(-114.75 -250.53)"/><path class="cls-9" d="M325.36,384.71c-7,0-14,.07-20.95,0-4.28,0-5.58-1.39-5.87-5.87,6.86,0,13.72-.15,20.58-.09C323,378.82,324.67,380.56,325.36,384.71Z" transform="translate(-114.75 -250.53)"/><path class="cls-12" d="M405,495.12l-.12,13.52C400.16,504.58,400.19,500.87,405,495.12Z" transform="translate(-114.75 -250.53)"/><path class="cls-1" d="M324.61,480c1.64-17.84,11.73-28.18,29.36-30.08,16.75,1.14,27.51,10.12,30.32,25.27,2.88,15.59-7.85,31.13-23.62,34.2-16.12,3.13-31.86-7-35.14-22.73C325.07,484.44,324.91,482.19,324.61,480Zm51.83,5.26c.26-1.46.54-2.92.78-4.39.56-3.39-.47-4.77-4.31-4.68-11.36.28-22.72.1-34.08.1-7.33,0-7.74.53-6.13,7.91a7.78,7.78,0,0,0,.36,1.06,22.26,22.26,0,0,0,43.38,0ZM335.5,468.41H374c-4.88-7.3-11.25-10.93-19.43-10.85C346.54,457.64,340.28,461.23,335.5,468.41Z" transform="translate(-114.75 -250.53)"/><path class="cls-13" d="M180.72,495c-.34-11.56,3.69-20.89,13.93-27a29.51,29.51,0,0,1,16.83-3.79c8,1.66,15.06,4.86,19.83,12,10.92,16.36,2.83,37.79-16.19,42.69a27.66,27.66,0,0,1-33.54-20.32C181.28,497.4,181,496.19,180.72,495Zm27.8-23.23a20.4,20.4,0,0,0-20.27,20.13c0,11.05,9.2,20.43,20,20.37,11.21-.07,20.49-9.12,20.47-19.94A20.41,20.41,0,0,0,208.52,471.75Z" transform="translate(-114.75 -250.53)"/><path class="cls-12" d="M376.44,485.22a22.26,22.26,0,0,1-43.38,0Z" transform="translate(-114.75 -250.53)"/><path class="cls-10" d="M376.44,485.22H333.06a7.78,7.78,0,0,1-.36-1.06c-1.61-7.38-1.2-7.91,6.13-7.91,11.36,0,22.72.18,34.08-.1,3.84-.09,4.87,1.29,4.31,4.68C377,482.3,376.7,483.76,376.44,485.22Z" transform="translate(-114.75 -250.53)"/><path class="cls-9" d="M335.5,468.41c4.78-7.18,11-10.77,19.05-10.85,8.18-.08,14.55,3.55,19.43,10.85Z" transform="translate(-114.75 -250.53)"/><path class="cls-14" d="M208.52,471.75a20.41,20.41,0,0,1,20.23,20.56c0,10.82-9.26,19.87-20.47,19.94-10.83.06-20.06-9.32-20-20.37A20.4,20.4,0,0,1,208.52,471.75Z" transform="translate(-114.75 -250.53)"/></svg>