<svg id="Layer_1" data-name="Layer 1" xmlns="http://www.w3.org/2000/svg" viewBox="0 0 348 354.05"><defs><style>.cls-1{fill:#010101;}.cls-2{fill:#030404;}.cls-3{fill:#f8acb0;}.cls-4{fill:#fc9126;}.cls-5{fill:#feb7d0;}.cls-6{fill:#eaeaea;}.cls-7{fill:#f9b440;}.cls-8{fill:#4798ce;}.cls-9{fill:#ccc;}.cls-10{fill:#3c80b3;}.cls-11{fill:#428cc4;}.cls-12{fill:#b8b8b8;}.cls-13{fill:#df8022;}.cls-14{fill:#bbeff3;}.cls-15{fill:#dbf3f4;}</style></defs><title>beauty</title><path class="cls-1" d="M460.21,516.75c4.5,0,9,0,13.41,0,4.89,0,7.09,2.2,7.12,7.08q.08,10.88,0,21.75c0,4.91-2.21,7.06-7.06,7.16-6.34.13-6.33.13-7.82,6.14-1,3.87-1.92,7.75-2.92,11.61-1.34,5.16-2.76,6.25-8.13,6.25H249.32c-2.39,0-4.8.15-6.68-1.7-.95-.93-1.78-.35-2.72,0a34.23,34.23,0,0,1-11.42,1.73c-19.87,0-39.75,0-59.62,0-18,0-30.12-12.12-30.12-30.07q0-57.18,0-114.36c0-16.67,11.35-28.63,28-29.54,6.45-.35,8.63-5,8-11-.11-1.11-.91-1-1.55-1.2-3.3-1.16-4.52-3.56-4.49-7,.09-7.38,0-14.75.05-22.13,0-4.41,2.3-6.68,6.74-6.69q23.24-.07,46.49,0c4.42,0,6.69,2.3,6.73,6.71.07,7.5,0,15,0,22.5a7.06,7.06,0,0,1-2.76,5.84c-1,.86-3.28,0-3.27,2.32,0,2.61-.24,5.26,1.52,7.54a6.78,6.78,0,0,0,4.64,2.9,51.66,51.66,0,0,1,10.33,1.61c2.41.72,1.47-1.4,1.48-2.3.06-14.25-.05-28.5.08-42.74.07-7.86-.67-15.75.56-23.58a40.86,40.86,0,0,1,32.59-33.92c2.55-.47,2.9-1.46,2.85-3.62-.12-4.87,0-9.75-.05-14.62,0-3.1,1.26-5.4,4.25-6.31,1.53-.46,1.81-1.17,1.79-2.59-.07-6.38-.12-12.75,0-19.13,0-2.11-.55-2.72-2.68-2.68-6.75.14-13.5.08-20.25,0-4.89,0-7.05-2.21-7.11-7.09,0-3.25-.09-6.5,0-9.75A13.27,13.27,0,0,1,266,222.79c19.37-.11,38.74-.07,58.12,0,4.49,0,6.62,2.38,6.63,7.19q0,21.75,0,43.49c0,2,.12,3.34,2.53,4,2.69.79,3.52,3.27,3.51,6,0,5,.07,10-.05,15,0,2,.45,2.7,2.56,3.11,19.81,3.83,33.42,20.54,33.46,41.13q.11,55.11-.06,110.24c0,3.07.64,3.9,3.81,3.86,18-.17,36,0,54-.11,15.38-.12,27.3,6,34.27,19.8s5.05,27.07-4.37,39.29C460.26,516,460.3,516.22,460.21,516.75Zm-87.34,42c-.31,6-.31,6,5.61,6,23.08,0,46.17-.11,69.25.11,3.73,0,5.2-1.13,5.4-4.56a10.91,10.91,0,0,1,.29-1.47c1.78-6.08,1.78-6.08-4.54-6.08H377.73c-5.11,0-5.11,0-5,5.27A6,6,0,0,0,372.87,558.76Zm-54.24-288c0-11.23,0-22.46.15-33.7,0-1.78-.48-2.35-2.29-2.32q-9.74.15-19.48,0c-1.81,0-2.31.54-2.29,2.32.11,11.24.11,22.47.15,33.7a18.46,18.46,0,0,1-.13,2.24c-.57,3.11.64,4,3.78,3.86,4.85-.3,9.73-.08,14.59-.08C318.94,276.75,318.94,276.75,318.63,270.73Zm-108,126a16.12,16.12,0,0,1,.11-1.85c.6-3.41-.77-4.46-4.18-4.24-4.71.31-9.45.08-14.17.08-5.8,0-5.8,0-5.57,6-2.62,12.12-8.31,17.05-20.81,18a16,16,0,0,0-8.63,3.28c-4.69,3.62-6.75,8.44-6.67,14.34.08,6.34,0,6.34,6.14,6.34H202.6c6.19,0,8.14,1.9,8.15,8q0,40.11,0,80.22c0,5.85-2,7.81-7.92,7.82-13.37,0-26.74,0-40.11,0-3.85,0-9.06-1.32-11.19.64-2.46,2.24-.72,7.52-.74,11.46-.06,11.13,6.79,17.88,18,17.89q30,0,60,0c11.15,0,17.94-6.82,18-18q0-28.31,0-56.61c0-19.49,0-39,0-58.47,0-9.14-6.48-16.17-15.27-16.88C218.92,413.77,213.23,408.84,210.65,396.76Zm43,167.82c1,.09,1.47.16,1.94.16,34.11,0,68.22,0,102.34.08,2.75,0,2.9-1.09,2.89-3.26q-.06-109.45,0-218.93c0-17.14-12.74-29.79-29.86-29.86q-24-.11-48,0c-17.38.05-30,12.67-30.12,30,0,12.87.09,25.74-.08,38.61,0,2.84.72,3.47,3.49,3.45,20.12-.13,40.24-.07,60.35-.07,6.38,0,8.23,1.85,8.23,8.25v91.47c0,6.41-1.86,8.28-8.21,8.28-18.12,0-36.24.06-54.36-.07-2.74,0-3.53.57-3.51,3.44.16,16.37,0,32.74.13,49.11C258.86,552,257.71,558.36,253.61,564.58ZM312.75,439c0-12.86-.13-25.73.09-38.58.05-3.25-.93-3.81-3.92-3.77-14.86.16-29.72.06-44.58.08-3.72,0-8.75-1.31-10.83.58-2.39,2.16-.67,7.26-.71,11.08,0,2.29-.63,4.66.94,6.86,3.76,5.26,5.08,11.24,5,17.66-.09,14.86,0,29.71-.09,44.57,0,2.58.54,3.33,3.23,3.31,15.85-.14,31.71-.17,47.57,0,3.06,0,3.34-1.06,3.31-3.61C312.69,464.5,312.75,451.76,312.75,439Zm-162,47.34c0,11.12.08,22.24-.06,33.36,0,2.44.61,3.1,3.07,3.08q21-.18,42,0c2.44,0,3.08-.62,3.07-3.07q-.15-33,0-66c0-2.44-.61-3.1-3.07-3.08q-21,.18-42,0c-2.44,0-3.1.62-3.07,3.07C150.83,464.63,150.75,475.5,150.75,486.37ZM404.9,468.75c-9.62,0-19.25.09-28.86-.06-2.54,0-3.39.5-3.36,3.22q.22,20.8,0,41.61c0,2.63.64,3.31,3.28,3.29,18.74-.12,37.49,0,56.23-.08,13.87,0,24.53-10.52,24.54-24s-10.63-23.93-24.47-24C423.14,468.7,414,468.75,404.9,468.75Zm16,60H380.82c-8.09,0-7.94,0-8.15,8.16-.08,3.07.67,3.93,3.85,3.92,27.86-.14,55.73-.08,83.59-.08,8.73,0,8.62,0,8.7-8.72,0-2.58-.58-3.37-3.27-3.34C450.67,528.82,435.8,528.75,420.93,528.75Zm-114.26-228h9c9.3,0,9.18,0,9.17-9.29,0-2.51-.91-2.78-3-2.75-8,.11-16,0-24,0-9.3,0-9.18,0-9.17,9.29,0,2.51.91,2.81,3,2.75C296.68,300.66,301.67,300.75,306.67,300.75Zm-107.86,66h-9c-9.29,0-9.17,0-9.15,9.31,0,2.55,1,2.76,3,2.73,8-.1,16,0,24,0,9.29,0,9.22,0,9.12-9.31,0-2-.43-2.81-2.64-2.74C209.05,366.86,203.93,366.75,198.81,366.75Zm75.22-126c1.87,0,3.76-.13,5.61,0,2.27.2,3.32-.29,3.2-2.94-.1-2.27-.39-3.32-3-3.15a109.66,109.66,0,0,1-11.61,0c-2.51-.1-3.45.61-3.58,3.32-.15,3,1.45,2.8,3.4,2.73S272,240.75,274,240.75Z" transform="translate(-138.74 -222.72)"/><path class="cls-2" d="M409,312.75a24,24,0,1,1-24.21,23.87A24.07,24.07,0,0,1,409,312.75Zm11.34,21.63c-1-5.14-4.07-8.17-9.17-9.2-5.58-1-10.38,1.19-12.91,5.88a12,12,0,0,0,16.21,16.21C419.16,344.69,421.34,339.92,420.3,334.38Z" transform="translate(-138.74 -222.72)"/><path class="cls-2" d="M408.57,444.75a24,24,0,1,1,24.17-23.54A24,24,0,0,1,408.57,444.75Zm2.56-35.57c-5.58-1-10.38,1.19-12.91,5.88a12,12,0,0,0,16.21,16.21c4.73-2.58,6.91-7.35,5.87-12.89C419.32,413.24,416.23,410.21,411.13,409.18Z" transform="translate(-138.74 -222.72)"/><path class="cls-2" d="M486.74,384.77a18,18,0,1,1-17.76-18A18.06,18.06,0,0,1,486.74,384.77ZM474,387c1.38-4.08.48-6-3.63-7.86-3.9-.61-6.64.9-7.49,4.14a6.05,6.05,0,0,0,3.61,7C469.53,391.53,472.14,390.4,474,387Z" transform="translate(-138.74 -222.72)"/><path class="cls-3" d="M253.61,564.58c4.1-6.22,5.25-12.56,5.19-19.35-.15-16.37,0-32.74-.13-49.11,0-2.87.77-3.46,3.51-3.44,18.12.13,36.24.08,54.36.07,6.35,0,8.21-1.87,8.21-8.28V393c0-6.4-1.85-8.25-8.23-8.25-20.11,0-40.23-.06-60.35.07-2.77,0-3.53-.61-3.49-3.45.17-12.87,0-25.74.08-38.61.07-17.33,12.74-29.95,30.12-30q24-.08,48,0c17.12.07,29.85,12.72,29.86,29.86q.07,109.47,0,218.93c0,2.17-.14,3.27-2.89,3.26-34.12-.11-68.23-.07-102.34-.08C255.08,564.74,254.61,564.67,253.61,564.58Zm95.14-39c0-2.74.06-5.48,0-8.21-.11-4-2.59-6.63-6.1-6.56s-5.8,2.58-5.87,6.4q-.13,8.6,0,17.18c.07,3.8,2.53,6.33,5.9,6.38s5.91-2.47,6.05-6.23C348.84,531.52,348.75,528.53,348.75,525.54Zm-12-35.69c0,6,1.95,8.89,6,8.88s6-2.86,6-8.9-1.8-8.94-5.84-9.06S336.74,483.59,336.74,489.85Z" transform="translate(-138.74 -222.72)"/><path class="cls-4" d="M210.65,396.76c2.58,12.08,8.27,17,20.81,18,8.79.71,15.24,7.74,15.27,16.88.06,19.49,0,39,0,58.47q0,28.3,0,56.61c0,11.17-6.8,18-18,18q-30,0-60,0c-11.24,0-18.09-6.76-18-17.89,0-3.94-1.72-9.22.74-11.46,2.13-2,7.34-.63,11.19-.64,13.37,0,26.74,0,40.11,0,5.91,0,7.91-2,7.92-7.82q0-40.11,0-80.22c0-6.06-2-7.95-8.15-8H156.87c-6.15,0-6.06,0-6.14-6.34-.08-5.9,2-10.72,6.67-14.34a16,16,0,0,1,8.63-3.28c12.5-1,18.19-5.91,20.81-18Z" transform="translate(-138.74 -222.72)"/><path class="cls-5" d="M312.75,439c0,12.73-.06,25.47.05,38.2,0,2.55-.25,3.64-3.31,3.61-15.86-.19-31.72-.16-47.57,0-2.69,0-3.25-.73-3.23-3.31.13-14.86,0-29.71.09-44.57,0-6.42-1.28-12.4-5-17.66-1.57-2.2-1-4.57-.94-6.86,0-3.82-1.68-8.92.71-11.08,2.08-1.89,7.11-.57,10.83-.58,14.86,0,29.72.08,44.58-.08,3,0,4,.52,3.92,3.77C312.62,413.3,312.75,426.17,312.75,439Z" transform="translate(-138.74 -222.72)"/><path class="cls-6" d="M150.75,486.37c0-10.87.08-21.74-.06-32.61,0-2.45.63-3.09,3.07-3.07q21,.18,42,0c2.46,0,3.08.64,3.07,3.08q-.15,33,0,66c0,2.45-.63,3.09-3.07,3.07q-21-.18-42,0c-2.46,0-3.1-.64-3.07-3.08C150.83,508.61,150.75,497.49,150.75,486.37Z" transform="translate(-138.74 -222.72)"/><path class="cls-7" d="M404.9,468.75c9.12,0,18.24-.05,27.37,0,13.84.09,24.48,10.58,24.47,24s-10.67,23.91-24.54,24c-18.74.07-37.49,0-56.23.08-2.64,0-3.31-.66-3.28-3.29q.19-20.81,0-41.61c0-2.72.82-3.26,3.36-3.22C385.65,468.84,395.28,468.75,404.9,468.75Zm-2.19,24h0c3.49,0,7,.07,10.47,0a25.72,25.72,0,0,0,16.66-6.64c3.32-2.91,3.84-6.35,1.51-9.16s-5.87-2.94-9.21-.08a15.92,15.92,0,0,1-11,3.92c-6.49-.07-13-.05-19.45,0-4.36,0-7,2.38-7,6.06s2.67,5.88,7.1,5.93C395.48,492.78,399.1,492.75,402.71,492.75Z" transform="translate(-138.74 -222.72)"/><path class="cls-8" d="M420.93,528.75c14.87,0,29.74.07,44.61-.06,2.69,0,3.3.76,3.27,3.34-.08,8.72,0,8.72-8.7,8.72-27.86,0-55.73-.06-83.59.08-3.18,0-3.93-.85-3.85-3.92.21-8.15.06-8.16,8.15-8.16Z" transform="translate(-138.74 -222.72)"/><path class="cls-9" d="M294.87,270.73c0-11.23,0-22.46-.15-33.7,0-1.78.48-2.35,2.29-2.32q9.74.15,19.48,0c1.81,0,2.31.54,2.29,2.32-.11,11.24-.11,22.47-.15,33.7Z" transform="translate(-138.74 -222.72)"/><path class="cls-10" d="M372.87,558.76a6,6,0,0,1-.09-.74c-.16-5.27-.16-5.27,5-5.27h71.15c6.32,0,6.32,0,4.54,6.08Z" transform="translate(-138.74 -222.72)"/><path class="cls-11" d="M372.87,558.76l80.55.07a10.91,10.91,0,0,0-.29,1.47c-.2,3.43-1.67,4.6-5.4,4.56-23.08-.22-46.17-.11-69.25-.11C372.56,564.75,372.56,564.75,372.87,558.76Z" transform="translate(-138.74 -222.72)"/><path class="cls-6" d="M306.67,300.75c-5,0-10-.09-15,0-2.11.06-3-.24-3-2.75,0-9.29-.13-9.29,9.17-9.29,8,0,16,.07,24,0,2.11,0,3,.24,3,2.75,0,9.29.13,9.29-9.17,9.29Z" transform="translate(-138.74 -222.72)"/><path class="cls-6" d="M198.81,366.75c5.12,0,10.24.11,15.35-.05,2.21-.07,2.62.7,2.64,2.74.1,9.31.17,9.31-9.12,9.31-8,0-16-.06-24,0-2.07,0-3-.18-3-2.73,0-9.31-.14-9.31,9.15-9.31Z" transform="translate(-138.74 -222.72)"/><path class="cls-12" d="M294.87,270.73h23.76c.31,6,.31,6-5.52,6-4.86,0-9.74-.22-14.59.08-3.14.19-4.35-.75-3.78-3.86A18.46,18.46,0,0,0,294.87,270.73Z" transform="translate(-138.74 -222.72)"/><path class="cls-13" d="M210.65,396.76H186.84c-.23-6-.23-6,5.57-6,4.72,0,9.46.23,14.17-.08,3.41-.22,4.78.83,4.18,4.24A16.12,16.12,0,0,0,210.65,396.76Z" transform="translate(-138.74 -222.72)"/><path class="cls-6" d="M274,240.75c-2,0-4-.05-6,0s-3.55.31-3.4-2.73c.13-2.71,1.07-3.42,3.58-3.32a109.66,109.66,0,0,0,11.61,0c2.62-.17,2.91.88,3,3.15.12,2.65-.93,3.14-3.2,2.94C277.79,240.62,275.9,240.75,274,240.75Z" transform="translate(-138.74 -222.72)"/><path class="cls-14" d="M420.3,334.38c1,5.54-1.14,10.31-5.87,12.89a12,12,0,0,1-16.21-16.21c2.53-4.69,7.33-6.88,12.91-5.88-.46.72-1,1.43-1.4,2.17-1.62,2.81-1.46,5.54.88,7.78s4.87,2.2,7.52.65C418.87,335.34,419.58,334.84,420.3,334.38Z" transform="translate(-138.74 -222.72)"/><path class="cls-15" d="M420.3,334.38c-.72.46-1.43,1-2.17,1.4-2.65,1.55-5.3,1.47-7.52-.65s-2.5-5-.88-7.78c.43-.74.94-1.45,1.4-2.17C416.23,326.21,419.32,329.24,420.3,334.38Z" transform="translate(-138.74 -222.72)"/><path class="cls-14" d="M420.3,418.38c1,5.54-1.14,10.31-5.87,12.89a12,12,0,0,1-16.21-16.21c2.53-4.69,7.33-6.88,12.91-5.88-.46.72-1,1.43-1.4,2.17-1.62,2.81-1.46,5.54.88,7.78s4.87,2.2,7.52.65C418.87,419.34,419.58,418.84,420.3,418.38Z" transform="translate(-138.74 -222.72)"/><path class="cls-15" d="M420.3,418.38c-.72.46-1.43,1-2.17,1.4-2.65,1.55-5.3,1.47-7.52-.65s-2.5-5-.88-7.78c.43-.74.94-1.45,1.4-2.17C416.23,410.21,419.32,413.24,420.3,418.38Z" transform="translate(-138.74 -222.72)"/><path class="cls-14" d="M474,387c-1.88,3.39-4.49,4.52-7.51,3.25a6.05,6.05,0,0,1-3.61-7c.85-3.24,3.59-4.75,7.49-4.14C467.48,384,468.71,386.62,474,387Z" transform="translate(-138.74 -222.72)"/><path class="cls-15" d="M474,387c-5.31-.39-6.54-3.06-3.63-7.86C474.5,381,475.4,382.93,474,387Z" transform="translate(-138.74 -222.72)"/><path class="cls-2" d="M348.75,525.54c0,3,.09,6,0,9-.14,3.76-2.67,6.28-6.05,6.23s-5.83-2.58-5.9-6.38q-.13-8.58,0-17.18c.07-3.82,2.48-6.34,5.87-6.4s6,2.53,6.1,6.56C348.81,520.06,348.75,522.8,348.75,525.54Z" transform="translate(-138.74 -222.72)"/><path class="cls-2" d="M336.74,489.85c0-6.26,2-9.21,6.18-9.08s5.84,2.92,5.84,9.06-1.93,8.89-6,8.9S336.75,495.87,336.74,489.85Z" transform="translate(-138.74 -222.72)"/><path class="cls-2" d="M402.71,492.75c-3.61,0-7.23,0-10.84,0-4.43-.05-7.06-2.27-7.1-5.93s2.59-6,7-6.06c6.48-.05,13-.07,19.45,0a15.92,15.92,0,0,0,11-3.92c3.34-2.86,6.86-2.74,9.21.08s1.81,6.25-1.51,9.16a25.72,25.72,0,0,1-16.66,6.64c-3.48.09-7,0-10.47,0Z" transform="translate(-138.74 -222.72)"/></svg>