<svg id="Layer_1" data-name="Layer 1" xmlns="http://www.w3.org/2000/svg" viewBox="0 0 409.59 335.18"><defs><style>.cls-1{fill:#040303;}.cls-2{fill:#e0edf9;}.cls-3{fill:#54a1ee;}.cls-4{fill:#fd8f1d;}.cls-5{fill:#feb025;}.cls-6{fill:#fdd8a7;}.cls-7{fill:#60aef4;}.cls-8{fill:#fa4b4b;}.cls-9{fill:#f0c590;}.cls-10{fill:#60acf2;}.cls-11{fill:#fbd6a6;}.cls-12{fill:#2d5770;}.cls-13{fill:#c9dbe9;}.cls-14{fill:#1d4758;}.cls-15{fill:#e85629;}</style></defs><title>construction</title><path class="cls-1" d="M151.18,416.93c-4.85-1.25-6.1-2.74-6.13-7.81-.07-11.32-.05-22.65-.07-34v-4.75c-5.18,4.73-9.55,9.12-14.32,13a17.7,17.7,0,0,1-26.13-4.32c-1.12-1.74-2-3.64-2.93-5.47v-8.8c3.07-7,8.94-11.66,14.31-16.72,9.21-8.69,18.39-17.4,27.68-26a6.32,6.32,0,0,0,2.23-5.17c-.12-13.46-.1-26.92-.11-40.38,0-8.17,3.16-11.36,11.31-11.42,6.79-.05,13.59,0,20.39-.06,10.15,0,12.33,1.91,13.35,11.91,1.49-.17,2.15-1.46,3.07-2.32,10.5-9.84,20.94-19.75,31.44-29.59,9.55-9,18.86-9,28.48,0,10.52,9.79,21,19.63,31.75,29.71a75.1,75.1,0,0,1,8.85-14.43c9.77-11.85,22.06-19.44,37.3-22a5.07,5.07,0,0,0,3.78-2.53c5.56-8.9,26.18-9,31.9-.13a6,6,0,0,0,4.52,2.74c25.42,4.06,46.87,26.74,49.79,52.51.15,1.33.38,2.65.42,4,.11,3.17.53,5.59,3.86,7.74,5.33,3.42,4.8,9.69,3.86,15-1.2,6.77-.82,13.49-.92,20.24-.15,9.82-4.29,14.6-14.14,15.66-1.58.17-1.84.68-2.08,2.09-2.91,17.62-11.72,31.79-25.79,42.59-3.23,2.48-1.83,5.44-2.3,8.27-.6,3.66.69,6,4.32,7.16a15.8,15.8,0,0,1,3.57,1.76c2.84,1.71,5.3,2.86,8.3-.27,2-2.05,5.12-2,7.94-1,22.28,7.89,44.78,15.23,66.78,23.84,21,8.23,31.52,24.77,33,47.12.42,6.25.54,12.51.83,18.77.18,3.9-1.66,6.28-5.34,7.35-5-1.19-6.16-2.6-6.37-7.6-.24-5.45-.59-10.89-.74-16.34-.59-21-12.85-36.3-33.17-41.42-1.84-.46-2.41-.06-2.37,1.77.11,6,.15,12,.22,17.93-.07,3.44-.21,6.89-.2,10.33q.06,30.45.19,60.9c-.07,4.39-.07,8.79-.23,13.17-.07,2,.57,2.8,2.71,2.78,10.13-.09,20.26,0,30.39-.06,3.41,0,5.17-1.76,5-5.26-.07-1.46-.08-2.93-.16-4.4-.23-4.06,1.51-6.62,5.61-7.4,4.21.42,6,3,6.16,7,.12,3.45.5,6.9-.54,10.32a15.57,15.57,0,0,1-13.6,11.18c-1.33.11-2.66.16-4,.16l-282.75,0c-3.76,0-7.45-.18-10.76-2.3-5.58-3.58-7.85-8.73-7.56-15.27.71-16.24,1.25-32.5,2.09-48.74.15-3-.35-3.83-3.48-3.76-10.52.22-21.06.13-31.59.1-8.86,0-13.53-4.62-13.62-13.55-.12-10.53-.12-21.07-.09-31.6,0-5.22,1.25-6.71,6.06-7.8,4.07.73,5.68,3.27,5.66,7.28,0,8.58.07,17.16.12,25.73a27.52,27.52,0,0,1-.16,4c-.65,3.61.86,4.4,4.3,4.28,8.35-.27,16.73-.1,25.09-.11s8.21,0,9.39-8c2-7.37,4.88-14.34,9.79-20.28a8.38,8.38,0,0,0,1.92-5.81c-.09-21.7-.08-43.41-.09-65.11,0-9.07,3.45-12.58,12.47-12.62q20-.09,40-.1c9,0,12.5,3.57,12.52,12.58,0,11.85.06,23.7,0,35.55,0,2.12,0,3.24,2.74,2.17,5.9-2.36,11.93-4.41,17.91-6.58,3.12-.83,6.61-1.71,9.1.65,3.24,3.07,5.89,2.12,9,.22,1.8-1.11,3.78-1.91,5.65-2.89.79-.41,1.88-.62,1.82-1.83-.26-5,1.74-10.44-4.49-13.9-4.37-2.44-7.39-6.78-10.58-10.7-4-5-6.68-10.74-9.68-16.31-.94-4.26-2.92-8.28-3.15-12.69-.12-2.39-.72-3.33-3.42-3.44A13.09,13.09,0,0,1,274.29,342c-.23-1.71-.36-3.42-.54-5.13,1.31-8-.59-15.77-.92-23.66a2.81,2.81,0,0,0-1.17-2c-10.16-9.54-20.35-19.05-30.48-28.63-1.24-1.17-2-1.22-3.25,0-3.75,3.74-7.6,7.38-11.42,11.06a4.09,4.09,0,0,0-.67.4q-33.75,31.8-67.54,63.57c-1.5,1.41-1.56,2.89-1.56,4.64,0,15.59,0,31.18.07,46.77C156.84,413.17,155.48,416,151.18,416.93ZM168.1,298.61c3.12-2.84,6.23-5.69,9.38-8.51a4.52,4.52,0,0,0,1.52-3.45c.47-10,.5-10-9.43-9.84-.52,0-1,.08-1.58.12-2.39,0-4.8.05-7.18-.16-2.53-.23-3.44.51-3.38,3.23.2,8.52.07,17.05.13,25.58,0,.8-.56,1.91,1.69,2.71ZM240,382.53c-5.71,0-11.43.07-17.13-.18-3-.13-3.86.76-3.83,3.78.16,14.74.09,29.48.1,44.23v11.36c6.9-4.21,14.32-5.54,20.87-9,6.66-1.35,12.81-4.23,19.22-6.34,1.61-.53,1.55-2,1.55-3.32,0-12.51-.07-25,0-37.54,0-2.49-.86-3.22-3.25-3.16C251.67,382.53,245.81,382.49,240,382.53Zm1.5,159.06c0-.66.14-1.33.14-2q0-45.6,0-91.19c0-.91-.1-1.81-.16-2.91a42.65,42.65,0,0,0-10.3,3.39c-13.28,5.77-22.19,15.67-24,30.08-2.66,20.75-2.51,41.73-3.18,62.63-.16,1-.41,2.07-.47,3.12-.44,6.8.67,8,7.39,8h20.29C242.08,552.72,242.08,552.72,241.46,541.59Zm50.91-236c-.5,3.42-2.24,5.6-5.87,6-.94.1-1.88.28-1.86,1.59,0,1.66,1.24,1.41,2.27,1.45s1.86,0,2.79,0H401.22c4.93,0,9.86,0,14.79,0,1,0,2.24.4,2.36-1.32s-1.08-1.58-2.1-1.72c-4.29-.58-5.7-3.41-5.75-7.31,0-1.47,0-2.93,0-4.4-.5-21.8-10.44-37.75-30.36-46.59-11.36-5-8.92-4.19-8.93,6-.06,2.13-.07,4.26-.21,6.38-.53,8.6-5.73,15.13-13.59,16.53a45.59,45.59,0,0,1-9.57.26,16.5,16.5,0,0,1-15.1-11.66c-1.29-3.91-.75-7.92-.78-11.89-.08-9.93,0-9.94-9.13-5.84C302,262.4,290.83,281.61,292.37,305.58Zm10,22.64c-.53-.17-.71.06-.62.57,0,6.9.05,13.81-.18,20.7-.64,19.21,18.58,45.51,40.81,48a26.18,26.18,0,0,0,10.62,1.1c22.68-1.62,37-14.35,45.48-34.56,4.65-11.08,2.28-22.85,2.76-34.33.07-1.85-1.4-1.59-2.56-1.59q-13.77.06-27.52.15ZM253.57,541.59c-.07,2.25,0,4.53-.25,6.76-.42,3.38.59,4.49,4.26,4.47,25.83-.19,51.65-.1,77.47-.1,11,0,11,0,10.41-11.15,0-16,.05-32,.19-48,0-2-1-2.76-2.43-3.64-10.5-6.56-21-13.18-31.44-19.76-7.51-4.71-13-11-15-19.79-1.45-6.21-2.88-12.44-3.89-18.74-.61-3.74-1.87-4.22-5.31-2.92-10.07,3.82-20.23,7.38-30.45,10.78-2.88,1-3.82,2.24-3.81,5.32.14,26.78.07,53.57.09,80.36C253.37,530.67,253.5,536.13,253.57,541.59Zm196-44.81c0-17.59,0-35.18.05-52.77,0-2.14-.44-3.29-2.66-4.05-11.07-3.77-22.1-7.7-33.1-11.67-2.18-.79-3.07-.4-3.48,1.95-.95,5.37-2.23,10.68-3.18,16.05a34,34,0,0,1-16.55,24.22c-10.24,6.23-20.27,12.78-30.47,19.07a5.19,5.19,0,0,0-2.9,5.06q.17,27.2,0,54.38c0,3,.76,3.78,3.77,3.77q42.38-.18,84.76,0c3.32,0,3.86-1.08,3.84-4C449.53,531.44,449.59,514.11,449.59,496.78ZM281.38,289.36c.58-2.25-.58-3-1.56-3.94l-34.13-32c-4.77-4.45-7.62-4.43-12.34,0L117.25,362.86a20.11,20.11,0,0,0-2.47,2.59c-2,2.71-2,5.56.23,8s5.09,2.74,8,1.07A17.58,17.58,0,0,0,126,372q36.24-34.12,72.46-68.27,17.91-16.86,35.82-33.7c3.88-3.64,6.45-3.62,10.4-.08l1.16,1.1q14.72,13.81,29.47,27.6c1.09,1,1.94,2.83,3.94,2.11,2.32-.85,1.22-2.95,1.43-4.51C281.07,293.77,281.21,291.24,281.38,289.36ZM305.6,434c-.13,3.68,1.08,6.53,1.45,9.5,1,8,5.24,13.58,12.14,17.68,9.95,5.91,19.67,12.2,29.39,18.48,2.09,1.35,3.59,1.39,5.69,0,9.5-6.13,18.81-12.64,28.74-18,11.31-6.07,12.94-16.41,14.54-28.09-13.78,11.1-29,16.5-45.86,16.62C334.66,450.34,319.37,444.81,305.6,434Zm67.77-28c-14.85,5.4-28.82,5.61-42.93.49-.81,4.75.79,9.95-3.38,13-3.61,2.68-7.81,4.57-11.89,6.89,24.15,18.82,58.56,13.24,72.38-.65C379,422.27,370.07,419,373.37,406ZM359.25,255.87c0-2.79,0-5.58,0-8.37-.07-5.22-1.76-6.6-8-6.65-5.62-.06-7.65,1.61-7.74,6.63-.1,4.79,0,9.57,0,14.36,0,8,2.51,10.12,10.53,9,3.38-.48,5.3-2.21,5.28-5.78C359.23,262,359.24,258.93,359.25,255.87Zm53.58,79c0,1.45,0,2.9,0,4.35,0,1.22-.5,2.82,1.72,2.71a2.49,2.49,0,0,0,2.66-2.75c0-3,0-6.06.06-9.09.06-1.9-1-2.07-2.48-2.1s-2.05.69-2,2.13S412.83,333.31,412.83,334.89Zm-122.89.22h0c0-1.86,0-3.72,0-5.58,0-1.59-1.19-1.46-2.26-1.45s-2-.08-2,1.29c0,3.45-.06,6.91.06,10.36.06,1.66,1.34,2.17,2.82,2.11s1.35-1.32,1.37-2.35C290,338,289.94,336.57,289.94,335.11Z" transform="translate(-101.6 -229.11)"/><path class="cls-2" d="M273.75,336.85c.18,1.71.31,3.42.54,5.13A13.09,13.09,0,0,0,287,353.47c2.7.11,3.3,1,3.42,3.44.23,4.41,2.21,8.43,3.15,12.69-1.31,1.17-.77,2.74-.77,4.13-.05,13.54,0,27.09,0,40.63-6,2.17-12,4.22-17.91,6.58-2.7,1.07-2.75-.05-2.74-2.17.05-11.85,0-23.7,0-35.55,0-9-3.56-12.58-12.52-12.58q-20,0-40,.1c-9,0-12.47,3.55-12.47,12.62,0,21.7,0,43.41.09,65.11a8.38,8.38,0,0,1-1.92,5.81c-4.91,5.94-7.78,12.91-9.79,20.28L157,474.38c-.05-8.57-.15-17.15-.12-25.73,0-4-1.59-6.55-5.66-7.28V416.93c4.3-.91,5.66-3.76,5.63-7.9-.1-15.59,0-31.18-.07-46.77,0-1.75.06-3.23,1.56-4.64q33.84-31.72,67.54-63.57a4.09,4.09,0,0,1,.67-.4c1.77,1.39,3.66,2.65,5.29,4.19,11.38,10.77,22.68,21.62,34.07,32.37C268.36,332.57,271.12,334.64,273.75,336.85Z" transform="translate(-101.6 -229.11)"/><path class="cls-3" d="M461.53,465.58c-.07-6-.11-12-.22-17.93,0-1.83.53-2.23,2.37-1.77C484,451,496.26,466.3,496.85,487.3c.15,5.45.5,10.89.74,16.34.21,5,1.38,6.41,6.37,7.6l.9,24.4c-4.1.78-5.84,3.34-5.61,7.4.08,1.47.09,2.94.16,4.4.15,3.5-1.61,5.25-5,5.26-10.13,0-20.26,0-30.39.06-2.14,0-2.78-.74-2.71-2.78.16-4.38.16-8.78.23-13.17,4.41-1.53,5.17-5.59,6.44-9.31s.13-7.57.08-11.36c-.15-12.18-.51-24.37-1.78-36.48C465.75,474.78,465,469.64,461.53,465.58Z" transform="translate(-101.6 -229.11)"/><path class="cls-4" d="M449.59,496.78c0,17.33-.06,34.66.07,52,0,3-.52,4.06-3.84,4q-42.37-.22-84.76,0c-3,0-3.8-.78-3.77-3.77q.21-27.19,0-54.38a5.19,5.19,0,0,1,2.9-5.06c10.2-6.29,20.23-12.84,30.47-19.07a34,34,0,0,0,16.55-24.22c.95-5.37,2.23-10.68,3.18-16.05.41-2.35,1.3-2.74,3.48-1.95,11,4,22,7.9,33.1,11.67,2.22.76,2.67,1.91,2.66,4.05C449.56,461.6,449.59,479.19,449.59,496.78Z" transform="translate(-101.6 -229.11)"/><path class="cls-5" d="M253.57,541.59c-.07-5.46-.2-10.92-.21-16.37,0-26.79,0-53.58-.09-80.36,0-3.08.93-4.36,3.81-5.32,10.22-3.4,20.38-7,30.45-10.78,3.44-1.3,4.7-.82,5.31,2.92,1,6.3,2.44,12.53,3.89,18.74,2,8.81,7.54,15.08,15,19.79,10.48,6.58,20.94,13.2,31.44,19.76,1.4.88,2.44,1.64,2.43,3.64-.14,16-.15,32-.19,48Z" transform="translate(-101.6 -229.11)"/><path class="cls-6" d="M342.4,397.46c-22.23-2.46-41.45-28.76-40.81-48,.23-6.89.13-13.8.18-20.7l.62-.57h68.79c0,7.19-.12,14.38.06,21.56.23,9.81-3.16,18.48-8.11,26.65A66,66,0,0,1,342.4,397.46Z" transform="translate(-101.6 -229.11)"/><path class="cls-5" d="M292.37,305.58c-1.54-24,9.59-43.18,30.48-52.6,9.1-4.1,9-4.09,9.13,5.84,0,4-.51,8,.78,11.89a16.5,16.5,0,0,0,15.1,11.66,45.59,45.59,0,0,0,9.57-.26c7.86-1.4,13.06-7.93,13.59-16.53.14-2.12.15-4.25.21-6.38,5.64,4.18,8.92,10.14,11.87,16.23a55.64,55.64,0,0,1,5.21,21.47c.31,5.75-1.53,8.7-7.21,8.7Q336.73,305.62,292.37,305.58Z" transform="translate(-101.6 -229.11)"/><path class="cls-7" d="M203.92,541.6c.67-20.9.52-41.88,3.18-62.63,1.85-14.41,10.76-24.31,24-30.08a42.65,42.65,0,0,1,10.3-3.39c.06,1.1.16,2,.16,2.91q0,45.6,0,91.19c0,.66-.09,1.33-.14,2Z" transform="translate(-101.6 -229.11)"/><path class="cls-8" d="M281.38,289.36c-.17,1.88-.31,4.41-.66,6.91-.21,1.56.89,3.66-1.43,4.51-2,.72-2.85-1.09-3.94-2.11q-14.78-13.74-29.47-27.6l-1.16-1.1c-3.95-3.54-6.52-3.56-10.4.08q-17.94,16.83-35.82,33.7Q162.27,337.89,126,372a17.58,17.58,0,0,1-3.07,2.53c-2.87,1.67-5.74,1.43-8-1.07s-2.23-5.32-.23-8a20.11,20.11,0,0,1,2.47-2.59l116.1-109.41c4.72-4.45,7.57-4.47,12.34,0l34.13,32C280.8,286.34,282,287.11,281.38,289.36Z" transform="translate(-101.6 -229.11)"/><path class="cls-4" d="M292.37,305.58q44.37,0,88.73,0c5.68,0,7.52-3,7.21-8.7a55.64,55.64,0,0,0-5.21-21.47c-3-6.09-6.23-12.05-11.87-16.23,0-10.16-2.43-11,8.93-6,19.92,8.84,29.86,24.79,30.36,46.59,0,1.47,0,2.93,0,4.4.05,3.9,1.46,6.73,5.75,7.31,1,.14,2.21.08,2.1,1.72s-1.4,1.31-2.36,1.32c-4.93,0-9.86,0-14.79,0H289.7c-.93,0-1.86,0-2.79,0s-2.24.21-2.27-1.45c0-1.31.92-1.49,1.86-1.59C290.13,311.18,291.87,309,292.37,305.58Z" transform="translate(-101.6 -229.11)"/><path class="cls-9" d="M342.4,397.46a66,66,0,0,0,20.73-21c4.95-8.17,8.34-16.84,8.11-26.65-.18-7.18-.05-14.37-.06-21.56q13.76-.08,27.52-.15c1.16,0,2.63-.26,2.56,1.59-.48,11.48,1.89,23.25-2.76,34.33C390,384.21,375.7,396.94,353,398.56A26.18,26.18,0,0,1,342.4,397.46Z" transform="translate(-101.6 -229.11)"/><path class="cls-10" d="M305.6,434c13.77,10.83,29.06,16.36,46.09,16.24,16.87-.12,32.08-5.52,45.86-16.62-1.6,11.68-3.23,22-14.54,28.09-9.93,5.35-19.24,11.86-28.74,18-2.1,1.35-3.6,1.31-5.69,0-9.72-6.28-19.44-12.57-29.39-18.48-6.9-4.1-11.13-9.66-12.14-17.68C306.68,440.51,305.47,437.66,305.6,434Z" transform="translate(-101.6 -229.11)"/><path class="cls-11" d="M373.37,406c-3.3,13.06,5.64,16.29,14.18,19.78-13.82,13.89-48.23,19.47-72.38.65,4.08-2.32,8.28-4.21,11.89-6.89,4.17-3.1,2.57-8.3,3.38-13C344.55,411.59,358.52,411.38,373.37,406Z" transform="translate(-101.6 -229.11)"/><path class="cls-12" d="M240,432.72c-6.55,3.46-14,4.79-20.87,9V430.36c0-14.75.06-29.49-.1-44.23,0-3,.87-3.91,3.83-3.78,5.7.25,11.42.14,17.13.18Q240,407.63,240,432.72Z" transform="translate(-101.6 -229.11)"/><path class="cls-4" d="M253.57,541.59l91.89,0c.61,11.15.61,11.15-10.41,11.15-25.82,0-51.64-.09-77.47.1-3.67,0-4.68-1.09-4.26-4.47C253.59,546.12,253.5,543.84,253.57,541.59Z" transform="translate(-101.6 -229.11)"/><path class="cls-13" d="M273.75,336.85c-2.63-2.21-5.39-4.28-7.88-6.64-11.39-10.75-22.69-21.6-34.07-32.37-1.63-1.54-3.52-2.8-5.29-4.19,3.82-3.68,7.67-7.32,11.42-11.06,1.22-1.22,2-1.17,3.25,0,10.13,9.58,20.32,19.09,30.48,28.63a2.81,2.81,0,0,1,1.17,2C273.16,321.08,275.06,328.9,273.75,336.85Z" transform="translate(-101.6 -229.11)"/><path class="cls-14" d="M240,432.72q0-25.1,0-50.19c5.85,0,11.71,0,17.56-.17,2.39-.06,3.26.67,3.25,3.16-.1,12.51,0,25,0,37.54,0,1.35.06,2.79-1.55,3.32C252.78,428.49,246.63,431.37,240,432.72Z" transform="translate(-101.6 -229.11)"/><path class="cls-13" d="M292.8,414.36c0-13.54,0-27.09,0-40.63,0-1.39-.54-3,.77-4.13,3,5.57,5.65,11.34,9.68,16.31,3.19,3.92,6.21,8.26,10.58,10.7,6.23,3.46,4.23,8.89,4.49,13.9.06,1.21-1,1.42-1.82,1.83-1.87,1-3.85,1.78-5.65,2.89-3.09,1.9-5.74,2.85-9-.22C299.41,412.65,295.92,413.53,292.8,414.36Z" transform="translate(-101.6 -229.11)"/><path class="cls-15" d="M359.25,255.87c0,3.06,0,6.11,0,9.17,0,3.57-1.9,5.3-5.28,5.78-8,1.14-10.52-1-10.53-9,0-4.79-.07-9.57,0-14.36.09-5,2.12-6.69,7.74-6.63,6.27.05,8,1.43,8,6.65C359.28,250.29,359.25,253.08,359.25,255.87Z" transform="translate(-101.6 -229.11)"/><path class="cls-3" d="M203.92,541.6h37.54c.62,11.13.62,11.13-10.33,11.13H210.84c-6.72,0-7.83-1.2-7.39-8C203.51,543.67,203.76,542.64,203.92,541.6Z" transform="translate(-101.6 -229.11)"/><path class="cls-7" d="M461.53,465.58c3.43,4.06,4.22,9.2,4.73,14.08,1.27,12.11,1.63,24.3,1.78,36.48,0,3.79,1.22,7.58-.08,11.36s-2,7.78-6.44,9.31q-.11-30.45-.19-60.9C461.32,472.47,461.46,469,461.53,465.58Z" transform="translate(-101.6 -229.11)"/><path class="cls-13" d="M157,474.38l38.62.18c-1.18,7.95-1.18,7.95-9.39,8s-16.74-.16-25.09.11c-3.44.12-4.95-.67-4.3-4.28A27.52,27.52,0,0,0,157,474.38Z" transform="translate(-101.6 -229.11)"/><path class="cls-5" d="M168.1,298.61l-8.85,9.68c-2.25-.8-1.69-1.91-1.69-2.71-.06-8.53.07-17.06-.13-25.58-.06-2.72.85-3.46,3.38-3.23,2.38.21,4.79.12,7.18.16Q168.05,287.78,168.1,298.61Z" transform="translate(-101.6 -229.11)"/><path class="cls-4" d="M168.1,298.61q0-10.85-.11-21.68c.53,0,1.06-.11,1.58-.12,9.93-.15,9.9-.15,9.43,9.84a4.52,4.52,0,0,1-1.52,3.45C174.33,292.92,171.22,295.77,168.1,298.61Z" transform="translate(-101.6 -229.11)"/><path class="cls-9" d="M412.83,334.89c0-1.58.05-3.17,0-4.75s.37-2.17,2-2.13,2.54.2,2.48,2.1c-.1,3,0,6.06-.06,9.09a2.49,2.49,0,0,1-2.66,2.75c-2.22.11-1.69-1.49-1.72-2.71C412.79,337.79,412.83,336.34,412.83,334.89Z" transform="translate(-101.6 -229.11)"/><path class="cls-11" d="M289.94,335.11c0,1.46,0,2.92,0,4.38,0,1,.24,2.29-1.37,2.35s-2.76-.45-2.82-2.11c-.12-3.45-.07-6.91-.06-10.36,0-1.37,1-1.28,2-1.29s2.24-.14,2.26,1.45c0,1.86,0,3.72,0,5.58Z" transform="translate(-101.6 -229.11)"/><path class="cls-9" d="M302.39,328.22l-.62.57C301.68,328.28,301.86,328.05,302.39,328.22Z" transform="translate(-101.6 -229.11)"/></svg>