<svg id="Layer_1" data-name="Layer 1" xmlns="http://www.w3.org/2000/svg" viewBox="0 0 360.15 360.03"><defs><style>.cls-1{fill:#010101;}.cls-2{fill:#57a3fe;}.cls-3{fill:#fed9a9;}.cls-4{fill:#2487fe;}.cls-5{fill:#fdc376;}.cls-6{fill:#46f6fd;}.cls-7{fill:#45f5fc;}.cls-8{fill:#fbc175;}.cls-9{fill:#010202;}.cls-10{fill:#fcdc54;}</style></defs><title>electricity</title><path class="cls-1" d="M359.1,576.75q-52.87,0-105.74,0c-26.33,0-47.85-17.45-53.49-43.14a57.46,57.46,0,0,1-1.14-12.29c0-36.24,0-72.49.09-108.73,0-3-.51-4-3.76-3.92-16.24.2-32.49.11-48.74.09-12.15,0-19.56-7.45-19.57-19.64q0-76.31,0-152.61c0-12.43,7.36-19.75,19.83-19.75H262.82c12.66,0,19.93,7.31,19.93,20V388.64c0,12.91-7.25,20.1-20.24,20.11-16.25,0-32.5.05-48.74-.06-2.43,0-3.08.59-3.08,3.06.09,36.87,0,73.74.09,110.61.08,24,18.52,42.34,42.65,42.36q106.86.12,213.73,0c5.55,0,7.55-2.09,7.59-7.76,0-1.12,0-2.25,0-3.37-.11-4.62-2.3-6.82-7-6.84-10.5,0-21,0-31.49,0-29,0-58,.07-87,0-14.2-.05-23-14.62-16.18-26.7,3.48-6.16,9-9.24,16-9.26,13.24,0,26.49,0,39.74,0,5.88,0,7.87-2,7.87-7.85,0-14.62,0-29.24.05-43.87,0-2.09-.39-3.18-2.64-4-9.61-3.67-15.3-12.28-15.4-22.65,0-3-.13-6,0-9,.13-2.15-.42-3-2.75-3.32-28.24-3.8-50.21-24.45-56-52.43a64,64,0,0,1-1.33-13c0-15.5,0-31,0-46.49,0-11.88,7.53-19.47,19.5-19.23,3.78.08,4.67-.87,4.6-4.61-.25-14.12-.13-28.25-.09-42.37,0-14.43,10.37-25.17,24.11-25.12,13.56.06,23.83,10.78,23.87,25,0,14.5.11,29-.07,43.49,0,3.07.91,3.67,3.71,3.57,5.75-.21,11.51-.23,17.25,0,2.75.12,3.2-.83,3.18-3.34q-.18-22.49,0-45a24,24,0,0,1,45.43-10.44,25.39,25.39,0,0,1,2.56,11.58c0,14.62.05,29.25-.08,43.87,0,2.54.46,3.59,3.2,3.28,11.78-1.3,21.5,7.49,21,21-.56,14.72-.1,29.49-.14,44.24C486.66,388,463,415.2,429.3,420c-2.1.31-2.66,1.07-2.59,3.07a85,85,0,0,1-.09,11.62c-1,9.61-6.08,16.53-15.07,20.16-2.31.94-2.87,2-2.85,4.29.1,14.5.06,29,.05,43.5,0,12.73-7.27,20.06-19.9,20.07H350.61c-5,0-7.86,2.23-7.84,6s3,6,8,6H466.6c12.95,0,20.08,7.21,20.18,20.19,0,4.81-.16,9.51-3,13.64-3.94,5.7-9.42,8.2-16.31,8.19Q413.28,576.7,359.1,576.75Zm27.18-186c9.06-7.32,18.77-8.2,29.1-2.95,5.74,4.2,10.15,9.44,10.83,16.71.37,4,2.16,3.79,5,3.18,25.73-5.47,43.43-27.17,43.51-53.5.05-15.1,0-30.2,0-45.29a22.82,22.82,0,0,0-.05-2.62c-.51-4.25-3.46-5.92-9.73-5.56-4.42.25-1.56,3.55-2.12,5.35-.49,1.6-.08,3.47-.1,5.21-.05,4.75-1.27,6.28-6,7.56-11.62,0-23.24-.06-34.85-.13-4.91,0-7.06-2.2-7.13-7.08,0-2.87-.11-5.75,0-8.62.09-1.77-.44-2.36-2.28-2.33q-9.74.17-19.49,0c-1.8,0-2.37.52-2.3,2.31.14,3.12.12,6.25,0,9.37-.13,4-2.39,6.3-6.35,6.33q-17.61.12-35.23,0c-4,0-6.23-2.35-6.36-6.31-.11-3.12,0-6.24,0-9.37,0-.78.39-1.72-.72-2.25-4.86-2.36-11.21,1.31-11.23,6.67-.06,16.62-.3,33.24.11,49.85a48.52,48.52,0,0,0,12,31.14c8.47,11,19.76,17.16,33.28,19.55,1.34.24,2.59.59,2.75-1.68C379.35,400.23,382.2,395.19,386.28,390.78Zm-247.4-12c0,3.12-.12,6.24-.12,9.36,0,6.92,1.71,8.65,8.57,8.65H262c7.13,0,8.79-1.67,8.79-8.82V237.7c0-.87,0-1.75,0-2.62-.21-4-2.39-6.21-6.39-6.3s-7.73.06-11.6.1c-1.12,0-2.24-.12-3.36-.12H147.15c-6.62,0-8.4,1.79-8.4,8.45q0,55.23,0,110.47C138.76,358,138.83,368.38,138.88,378.74Zm239.87-106.1c0-10.61.07-21.22,0-31.83a12,12,0,1,0-23.94,0c-.08,21.1,0,42.2-.07,63.29,0,2.11.56,2.75,2.68,2.7,6.12-.14,12.24-.17,18.35,0,2.47.07,3.1-.66,3.07-3.09C378.67,293.36,378.75,283,378.75,272.64Zm72,0c0-10.61.07-21.22,0-31.83a12,12,0,1,0-23.94,0c-.08,21.1,0,42.19-.07,63.29,0,2.09.52,2.76,2.67,2.71,6.11-.14,12.23-.17,18.35,0,2.44.07,3.11-.62,3.08-3.08C450.67,293.37,450.75,283,450.75,272.65Zm-36,148.46c0-4.11.08-8.23,0-12.34a12,12,0,1,0-24,0q-.15,12,0,23.93a12,12,0,1,0,24,0C414.82,428.84,414.75,425,414.75,421.11Z" transform="translate(-126.75 -216.75)"/><path class="cls-2" d="M138.88,378.74c0-10.36-.12-20.72-.12-31.07q0-55.25,0-110.47c0-6.66,1.78-8.45,8.4-8.45H249.38c1.12,0,2.24.07,3.36.12q0,32.24,0,64.49,0,36.36,0,72.74c0,7.18-4.78,12.54-11.54,12.6-11.5.1-23,0-34.49-.08a10.49,10.49,0,0,0,4-4.3q17.34-34.84,34.75-69.66c2.91-5.85.38-9.88-6.14-9.91-8.38,0-16.76-.14-25.13.06-2.78.06-3.54-.62-3.5-3.47.17-12.37,0-24.75.11-37.12,0-3.51-1-6.29-4.58-7.24s-5.84,1.06-7.4,4.19Q181.46,286,164.06,320.82c-2.89,5.79-.31,9.89,6.15,9.92,8.5.05,17,.1,25.49,0,2.45-.05,3.13.62,3.1,3.08-.12,12.38,0,24.75-.11,37.13,0,3.49,1,6,4.1,7.72Z" transform="translate(-126.75 -216.75)"/><path class="cls-3" d="M415.38,387.83c-10.33-5.25-20-4.37-29.1,2.95-14.48-.39-29.08,1.23-43.39-2.33a48.52,48.52,0,0,1-12-31.14c-.41-16.61-.17-33.23-.11-49.85,0-5.36,6.37-9,11.23-6.67,1.11.53.71,1.47.72,2.25,0,3.13-.06,6.25,0,9.37.13,4,2.38,6.28,6.36,6.31q17.61.12,35.23,0c4,0,6.22-2.37,6.35-6.33.11-3.12.13-6.25,0-9.37-.07-1.79.5-2.34,2.3-2.31q9.75.15,19.49,0c1.84,0,2.37.56,2.28,2.33-.13,2.87-.06,5.75,0,8.62.07,4.88,2.22,7,7.13,7.08,11.61.07,23.23.09,34.85.13-.07,8.44.48,16.89-1.47,25.24a59.78,59.78,0,0,1-16.76,29.81A57.73,57.73,0,0,1,415.38,387.83Z" transform="translate(-126.75 -216.75)"/><path class="cls-4" d="M138.88,378.74l63.91-.11h3.92c11.49,0,23,.18,34.49.08,6.76-.06,11.54-5.42,11.54-12.6q0-36.37,0-72.74,0-32.25,0-64.49c3.87,0,7.74-.18,11.6-.1s6.18,2.34,6.39,6.3c0,.87,0,1.75,0,2.62V387.93c0,7.15-1.66,8.82-8.79,8.82H147.33c-6.86,0-8.58-1.73-8.57-8.65C138.76,385,138.83,381.86,138.88,378.74Z" transform="translate(-126.75 -216.75)"/><path class="cls-5" d="M415.38,387.83a57.73,57.73,0,0,0,23.13-13.91,59.78,59.78,0,0,0,16.76-29.81c2-8.35,1.4-16.8,1.47-25.24,4.74-1.28,6-2.81,6-7.56,0-1.74-.39-3.61.1-5.21.56-1.8-2.3-5.1,2.12-5.35,6.27-.36,9.22,1.31,9.73,5.56a22.82,22.82,0,0,1,.05,2.62c0,15.09,0,30.19,0,45.29-.08,26.33-17.78,48-43.51,53.5-2.86.61-4.65.83-5-3.18C425.53,397.27,421.12,392,415.38,387.83Z" transform="translate(-126.75 -216.75)"/><path class="cls-6" d="M378.75,272.64c0,10.36-.08,20.72.06,31.08,0,2.43-.6,3.16-3.07,3.09-6.11-.18-12.23-.15-18.35,0-2.12.05-2.69-.59-2.68-2.7.07-21.09,0-42.19.07-63.29a12,12,0,1,1,23.94,0C378.82,251.42,378.75,262,378.75,272.64Z" transform="translate(-126.75 -216.75)"/><path class="cls-6" d="M450.75,272.65c0,10.36-.08,20.72.06,31.08,0,2.46-.64,3.15-3.08,3.08-6.12-.18-12.24-.15-18.35,0-2.15.05-2.68-.62-2.67-2.71.07-21.1,0-42.19.07-63.29a12,12,0,1,1,23.94,0C450.82,251.43,450.75,262,450.75,272.65Z" transform="translate(-126.75 -216.75)"/><path class="cls-7" d="M414.75,421.11c0,3.86.07,7.73,0,11.59a12,12,0,1,1-24,0q-.15-12,0-23.93a12,12,0,1,1,24,0C414.83,412.88,414.75,417,414.75,421.11ZM403,414.75c-6.27,0-6.27,0-6.27,6.1,0,5.9,0,5.9,5.73,5.9,6.27,0,6.27,0,6.27-6.1C408.75,414.75,408.75,414.75,403,414.75Z" transform="translate(-126.75 -216.75)"/><path class="cls-8" d="M342.89,388.45c14.31,3.56,28.91,1.94,43.39,2.33-4.08,4.41-6.93,9.45-7.36,15.54-.16,2.27-1.41,1.92-2.75,1.68C362.65,405.61,351.36,399.43,342.89,388.45Z" transform="translate(-126.75 -216.75)"/><path class="cls-9" d="M206.71,378.63h-3.92c-3.06-1.68-4.14-4.23-4.1-7.72.14-12.38,0-24.75.11-37.13,0-2.46-.65-3.13-3.1-3.08-8.49.14-17,.09-25.49,0-6.46,0-9-4.13-6.15-9.92Q181.4,286,198.81,251.18c1.56-3.13,3.77-5.16,7.4-4.19s4.6,3.73,4.58,7.24c-.09,12.37.06,24.75-.11,37.12,0,2.85.72,3.53,3.5,3.47,8.37-.2,16.75-.1,25.13-.06,6.52,0,9.05,4.06,6.14,9.91q-17.34,34.86-34.75,69.66A10.49,10.49,0,0,1,206.71,378.63Zm-28-60.43c.33.31.41.44.49.44,8,.05,16,.07,24,.11,5.41,0,7.51,2.09,7.53,7.43,0,6.56,0,13.12,0,19.68l.65.16c6.47-13,12.95-25.94,19.61-39.27H212c-13.17,0-13.2,0-13.2-13V279.66l-.64-.17Z" transform="translate(-126.75 -216.75)"/><path d="M403,414.75c5.73,0,5.73,0,5.73,5.9,0,6.1,0,6.1-6.27,6.1-5.73,0-5.73,0-5.73-5.9C396.75,414.75,396.75,414.75,403,414.75Z" transform="translate(-126.75 -216.75)"/><path class="cls-10" d="M178.75,318.2l19.36-38.71.64.17v14.07c0,13,0,13,13.2,13H231c-6.66,13.33-13.14,26.3-19.61,39.27l-.65-.16c0-6.56,0-13.12,0-19.68,0-5.34-2.12-7.39-7.53-7.43-8,0-16-.06-24-.11C179.16,318.64,179.08,318.51,178.75,318.2Z" transform="translate(-126.75 -216.75)"/></svg>