<svg id="Layer_1" data-name="Layer 1" xmlns="http://www.w3.org/2000/svg" viewBox="0 0 384 363.64"><defs><style>.cls-1{fill:#030303;}.cls-2{fill:#f7dc8e;}.cls-3{fill:#050404;}.cls-4{fill:#ee9c9e;}.cls-5{fill:#ef9d9f;}.cls-6{fill:#ec878e;}.cls-7{fill:#ec9b9d;}</style></defs><title>food</title><path class="cls-1" d="M415.55,349.53c.92-.82,1.89-1.59,2.76-2.46q33.58-33.57,67.17-67.16c5.17-5.17,9.25-4.75,13.27,1.34v4.5c-2.12,2.25-4.18,4.56-6.37,6.75-27.38,27.41-54.86,54.73-82.16,82.22-14.83,14.95-32.15,20.3-52.6,14.62-1.75-.49-2.71.09-3.81,1.35-6.17,7.05-12.34,14.11-18.69,21-1.77,1.92-1.39,2.83.37,4.37q31,27.42,62,55c16.91,15,34,29.86,50.69,45.1a35.8,35.8,0,0,1-9.87,59.58c-14.43,6.25-30.58,2.37-41.76-10.18q-30.54-34.29-61-68.69c-11.86-13.37-23.79-26.67-35.52-40.15-2.09-2.41-3-2.06-4.91.08q-48.45,54.75-97,109.36c-9.66,10.84-21.93,14.72-35.92,11.23-13.71-3.42-22.62-12.47-26-26.24-3.24-13.33.18-25.28,10.34-34.45,27.17-24.53,54.68-48.69,82-73,2.92-2.6,6-2.74,9.3-1,4,4.65,3.79,7.84-1,12.09Q197,490.18,157.05,525.63c-10.2,9.07-10.84,23.67-1.54,32.81s23.63,8.31,32.57-1.77L346.77,377.9c4.34-4.89,5.71-5.17,11.68-2.85,13.5,5.23,26.13,3.42,37.22-5.75C402.86,363.35,409.22,356.42,415.55,349.53ZM446.26,543c.06-7.07-2.46-12.39-8.64-17.89Q418,507.65,398.4,490.27q-35.86-31.83-71.68-63.72c-2.29-2.05-3.35-1.73-5.14.42-4,4.81-8.12,9.5-12.44,14-2,2-1.92,3.22,0,5.35q34.32,38.42,68.44,77c10.11,11.39,20.15,22.85,30.38,34.14a21.59,21.59,0,0,0,24.28,5.77A22,22,0,0,0,446.26,543Z" transform="translate(-114.75 -214.98)"/><path class="cls-1" d="M114.75,276.75c1.4-.75.88-2.22,1.12-3.33,5.28-24.29,23.73-39.51,48.66-40.16,14.11-.37,27.5,2.75,40.37,8.24,22.86,9.76,43,23.66,58.62,43,17.48,21.66,19.93,46.13,9.08,71.77-1,2.26-.74,3.38,1.07,4.94q11.07,9.54,21.84,19.43c1.73,1.59,2.69,1.31,4.26-.11Q311.3,370.07,323,359.86c1.39-1.22,1.68-2.21,1.17-4.13-5.2-19.33-.91-36.39,13.2-50.6q43.32-43.63,86.92-87c3.22-3.21,6.33-4,9.34-2.31,4.54,2.48,4.82,7.64.56,11.9Q401,261,367.7,294.29c-.87.87-1.66,1.83-2.49,2.75-6.13,6-12.41,11.93-18.35,18.16-11.3,11.82-13.91,25.49-7.93,40.74,1.85,4.7,1.41,7-2.34,10.29q-29.28,26-58.59,52c-4.87,4.31-7.45,4.32-12.31.11-7.91-9-15.85-18-23.68-27-1.19-1.38-2.12-1.18-3.5-.54-28.64,13.42-61.14,5.64-82.18-17.46-17.17-18.87-31.21-39.45-38.31-64.26-1.28-4.48-1.42-9.23-3.27-13.56ZM258.07,366c-3.16-3.55-2.46-7-.32-10.92,9-16.59,10.05-33.6,1.87-50.89-2.33-6.19-6.32-11.29-10.9-15.91a155.91,155.91,0,0,0-39.07-29.31c-15.38-7.94-31.42-13.36-49.15-11.46-15.8,1.69-27.54,12.19-30.81,27.74-2,9.62-1.2,19.13,1.29,28.52,6.88,25.88,21.77,46.8,40.68,65.17a33.83,33.83,0,0,0,9.67,6.93,5,5,0,0,0,.85.68c18.17,9.54,36.36,9.49,54.37-.28,3.94-2.13,7.37-2.89,10.93.3,7.73,8.8,15.48,17.57,23.16,26.41,1.22,1.4,2.06,1.73,3.57.29q5.43-5.13,11.17-9.94c1.64-1.37,1.39-2.16-.06-3.43C276.2,381.93,267.15,373.94,258.07,366Z" transform="translate(-114.75 -214.98)"/><path class="cls-2" d="M265.69,418.35c4.86,4.21,7.44,4.2,12.31-.11q29.31-26,58.59-52c3.75-3.32,4.19-5.59,2.34-10.29-6-15.25-3.37-28.92,7.93-40.74,5.94-6.23,12.22-12.12,18.35-18.16l10,10.76c-2.32,2.92-3.58,6-1.22,9.48,2.55,3.77,6.51,3.92,11.3.52a78.13,78.13,0,0,0,9.23,9.32c-2.87,4.06-3,7.38-.45,10.11s5.89,2.78,10.13.23l11.38,12.07c-6.33,6.89-12.69,13.82-19.88,19.77-11.09,9.17-23.72,11-37.22,5.75-6-2.32-7.34-2-11.68,2.85L188.08,556.67c-8.94,10.08-23.32,10.85-32.57,1.77s-8.66-23.74,1.54-32.81q39.9-35.49,79.85-70.91c4.78-4.25,5-7.44,1-12.09,4.59-2.63,8-6.63,12-10C255.28,428,260.43,423.12,265.69,418.35Z" transform="translate(-114.75 -214.98)"/><path class="cls-3" d="M385.26,317.8c-4.79,3.4-8.75,3.25-11.3-.52-2.36-3.49-1.1-6.56,1.22-9.48,1.1-1,2.25-2,3.3-3l65.43-65.43a31.79,31.79,0,0,1,3-2.82,6.83,6.83,0,0,1,9.63,9.54,28.37,28.37,0,0,1-2.81,3l-66,66C386.89,315.92,386.09,316.88,385.26,317.8Z" transform="translate(-114.75 -214.98)"/><path class="cls-1" d="M404.17,337.46c-4.24,2.55-7.58,2.48-10.13-.23s-2.42-6.05.45-10.11c5.68-5.59,11.4-11.16,17-16.79q26.24-26.19,52.43-52.42a24.07,24.07,0,0,1,2.44-2.3,6.83,6.83,0,0,1,9.75,9.36,23.31,23.31,0,0,1-2.78,3Q440,301.37,406.66,334.71C405.79,335.59,405,336.54,404.17,337.46Z" transform="translate(-114.75 -214.98)"/><path class="cls-4" d="M446.26,543a22,22,0,0,1-14,20.27,21.59,21.59,0,0,1-24.28-5.77c-10.23-11.29-20.27-22.75-30.38-34.14q-34.2-38.54-68.44-77c-1.9-2.13-2-3.3,0-5.35,4.32-4.5,8.46-9.19,12.44-14,1.79-2.15,2.85-2.47,5.14-.42q35.73,32,71.68,63.72,19.62,17.4,39.22,34.82C443.8,530.59,446.32,535.91,446.26,543Z" transform="translate(-114.75 -214.98)"/><path class="cls-5" d="M181.33,375.83a33.83,33.83,0,0,1-9.67-6.93c-18.91-18.37-33.8-39.29-40.68-65.17-2.49-9.39-3.32-18.9-1.29-28.52,3.27-15.55,15-26,30.81-27.74,17.73-1.9,33.77,3.52,49.15,11.46a155.91,155.91,0,0,1,39.07,29.31c4.58,4.62,8.57,9.72,10.9,15.91,0,1.87-.18,3.75-.1,5.61a59.68,59.68,0,0,1-8.22,33.57C239.08,364,221.36,375.77,197,376.48A79.33,79.33,0,0,1,181.33,375.83Z" transform="translate(-114.75 -214.98)"/><path class="cls-6" d="M181.33,375.83a79.33,79.33,0,0,0,15.63.65c24.4-.71,42.12-12.5,54.34-33.15a59.68,59.68,0,0,0,8.22-33.57c-.08-1.86.06-3.74.1-5.61,8.18,17.29,7.11,34.3-1.87,50.89-2.14,3.95-2.84,7.37.32,10.92a82.62,82.62,0,0,0-10.59,10.57c-3.56-3.19-7-2.43-10.93-.3-18,9.77-36.2,9.82-54.37.28A5,5,0,0,1,181.33,375.83Z" transform="translate(-114.75 -214.98)"/><path class="cls-7" d="M247.48,376.53A82.62,82.62,0,0,1,258.07,366c9.08,8,18.13,16,27.25,23.9,1.45,1.27,1.7,2.06.06,3.43q-5.73,4.8-11.17,9.94c-1.51,1.44-2.35,1.11-3.57-.29C263,394.1,255.21,385.33,247.48,376.53Z" transform="translate(-114.75 -214.98)"/></svg>