<svg id="Layer_1" data-name="Layer 1" xmlns="http://www.w3.org/2000/svg" viewBox="0 0 358.5 384"><defs><style>.cls-1{fill:#040404;}.cls-2{fill:#020201;}.cls-3{fill:#020202;}.cls-4{fill:#d8d9dd;}.cls-5{fill:#e1aa34;}.cls-6{fill:#95979d;}.cls-7{fill:#030303;}</style></defs><title>industrial</title><path class="cls-1" d="M221.25,588.75c-3.44-2.2-4.2-5.48-4.13-9.33.13-8,0-16,.08-24,0-2.09-.5-3.34-2.64-3.73a5,5,0,0,1-2.08-.79c-5.95-4.48-10-1.78-14.11,3.09s-8.89,9.12-13.45,13.58c-3.86,3.78-7.18,3.82-11,0q-12.66-12.52-25.19-25.19c-3.78-3.82-3.78-7.2,0-11,5.87-6,11.73-12,17.82-17.7,1.95-1.85,2.09-3.32.79-5.37a6.68,6.68,0,0,1-1.06-2.38c-.92-6.07-4.59-7.35-10.24-6.88-6.58.54-13.24.15-19.87.11-6.42,0-8.6-2.21-8.62-8.53q0-17.25,0-34.5c0-5.8,2.38-8.19,8.19-8.24,7.87-.06,15.76-.21,23.62.08,3.3.13,5.21-.66,5.76-4a3.24,3.24,0,0,1,.56-1.37c3.81-5.17,2.05-8.83-2.53-12.66-5.16-4.31-9.68-9.39-14.4-14.21-3.77-3.85-3.81-7.22,0-11Q161.2,392,173.87,379.52c3.91-3.86,7.12-3.84,11,0q9.09,8.94,18,18c1.41,1.45,2.6,2.16,4.45.86a7,7,0,0,1,2.72-1.2c6.28-1.06,7.78-4.79,7.22-10.8-.62-6.57-.19-13.24-.13-19.86.06-6,2.21-8.1,8.18-8.11q17.43,0,34.87,0c5.84,0,8.16,2.31,8.19,8.15,0,8.38.08,16.75,0,25.13,0,2.06.83,2.71,2.51,3.8,7.37,4.78,12.65,2.86,17.68-3.8,3.28-4.35,7.64-7.89,11.55-11.75,4.43-4.36,7.51-4.41,11.84-.11q12.23,12.17,24.39,24.39c4.46,4.48,4.41,7.52-.14,12.1-5.73,5.76-11.42,11.56-17.28,17.19-1.76,1.68-2.09,3.12-.83,5.13a20.53,20.53,0,0,1,1.42,3c2.57,6.2,2.56,6.2,9.42,6.2s13.75,0,20.62,0c6.13,0,8.33,2.24,8.35,8.38q0,17.45,0,34.87c0,5.7-2.22,8-7.93,8q-12.75.12-25.5,0c-1.88,0-3.07.39-3.52,2.39a24.8,24.8,0,0,1-1.43,3.85c-2.53,6.18-2.54,6.18,2.07,10.79,5,5,10.1,10,15.1,15.12,4,4.05,4,7.2-.05,11.28q-12.4,12.51-24.92,24.92c-4,4-7.25,3.92-11.29-.07q-9.07-9-18-18.06c-1.34-1.38-2.46-1.84-4.15-.76a24.18,24.18,0,0,1-3.37,1.6c-6.48,2.78-6.48,2.78-6.48,10,0,6.5-.11,13,0,19.5.1,4.18-1,7.47-5.21,9.07Zm-65.56-128c-4.12,0-8.25.15-12.36-.05-2.55-.13-3.14.79-3.08,3.19.16,6.37.23,12.75,0,19.11-.12,3,.93,3.49,3.6,3.43,7.5-.17,15-.09,22.49-.05,5.51,0,7.14,1.09,8.78,6.23a102,102,0,0,0,6.43,15.51c2.39,4.68,2,6.55-1.71,10.3-5.46,5.49-10.91,11-16.47,16.39-1.5,1.46-2,2.35-.2,4.08q7.36,6.95,14.32,14.3c1.72,1.83,2.58,1.32,4-.18,5.49-5.64,11.08-11.19,16.68-16.72,3.46-3.43,5.37-3.81,9.67-1.65a108.08,108.08,0,0,0,15.84,6.61c5.16,1.64,6.27,3.31,6.29,8.75,0,7.63.09,15.25,0,22.87,0,2.27.32,3.31,3,3.22,6.61-.21,13.24-.18,19.86,0,2.42.06,2.9-.77,2.86-3-.13-7.75-.06-15.5,0-23.24,0-5.51,1-6.94,6.31-8.66a98.94,98.94,0,0,0,15.16-6.31c4.84-2.5,6.71-2.12,10.61,1.75,5.59,5.55,11.18,11.1,16.68,16.73,1.34,1.38,2.15,1.39,3.52,0,4.68-4.85,9.4-9.68,14.32-14.29,2-1.85,1.4-2.79-.19-4.33-5.47-5.31-10.82-10.74-16.2-16.15-3.95-4-4.34-5.75-1.81-10.59a100.31,100.31,0,0,0,6.32-15.15c1.76-5.42,3.22-6.43,9-6.45,7.75,0,15.49-.07,23.24,0,1.93,0,2.59-.5,2.55-2.5-.11-6.87-.13-13.75,0-20.62.05-2.35-1-2.59-2.9-2.57-8,.08-16,0-24,.06-4.11,0-6.59-1.8-7.72-5.65a89,89,0,0,0-6.65-16.22c-2.32-4.44-1.88-6.38,1.71-10,5.46-5.51,10.9-11,16.46-16.41,1.59-1.55,2.18-2.49.19-4.34-4.83-4.52-9.46-9.27-14-14.05-1.52-1.59-2.42-1.8-4.08-.07-5.36,5.59-10.9,11-16.4,16.46-4,4-5.71,4.37-10.58,1.82A99.29,99.29,0,0,0,262,406c-5.5-1.8-6.37-3.1-6.38-9,0-7.62-.09-15.25.05-22.87,0-2.3-.57-3-2.91-2.94q-9.93.23-19.86,0c-2.29-.06-3,.54-2.93,2.88.15,7.62.07,15.25.05,22.87,0,5.74-1.07,7.3-6.41,9a100.93,100.93,0,0,0-15.49,6.47c-4.54,2.35-6.37,2-10-1.62-5.68-5.63-11.35-11.26-16.94-17-1.33-1.37-2.13-1.45-3.51,0-4.69,4.85-9.42,9.67-14.34,14.28-1.95,1.82-1.47,2.79.16,4.37,5.65,5.48,11.14,11.13,16.74,16.66,2.83,2.79,3.63,5.81,1.63,9.43a83.85,83.85,0,0,0-7,16.88c-1.12,3.79-3.64,5.42-7.53,5.34S159.57,460.7,155.69,460.7Z" transform="translate(-127.51 -204.75)"/><path class="cls-2" d="M340.5,204.75c2.11,1.47,4.32,2.82,4.54,5.8.1,1.43,1.48,1.24,2.33,1.38,23.56,3.83,37,19.55,46.56,39.73,8.14,17.26,11.9,35.65,13.35,54.56.56,7.29.44,7.3,7.55,7.3,4.13,0,8.25-.06,12.37,0,5,.09,7.47,2.39,7.56,7.32q.24,11.82,0,23.62c-.11,5.48-2.58,7.42-8.91,7.42h-195c-6.25,0-12.5.05-18.75,0-5.44-.06-7.72-2.26-7.79-7.77q-.15-11.43,0-22.87c.08-5.39,2.5-7.66,7.91-7.72,5.25,0,10.52-.3,15.74.1,3.28.25,3.37-1.51,3.5-3.7a175.44,175.44,0,0,1,7.71-43C244.15,251.57,251,237.28,263,226a51.21,51.21,0,0,1,26.92-13.7c2.24-.39,4.4-.48,4.68-3.56.16-1.83,2.41-2.4,3.16-4ZM319.36,339.08h94.1c8.57,0,8.4,0,8.63-8.52.09-3.39-.82-4.35-4.3-4.34q-63.36.19-126.72.09c-10.54,0-10.49,0-9.92-10.49.09-1.78.58-2.51,2.37-2.32a22.88,22.88,0,0,0,2.62,0q52.68,0,105.35,0c2.29,0,4,.27,3.49-3.23-.8-5.67-1.06-11.43-2-17.1-2.66-16-6.71-31.49-15.38-45.41-6.82-10.94-15.73-19.24-28.65-22.57-3.33-.85-4,0-3.93,3.23.15,14.75.07,29.5.07,44.24,0,8.84,0,8.7-9,8.87-3.18.07-3.89-.92-3.86-4,.14-19,0-38,.12-57,0-2.41-.59-3.21-3.09-3.14-6.37.18-12.75.22-19.11,0-2.9-.11-3.48.81-3.46,3.55.13,17.12.06,34.24.06,51.36,0,9.23,0,9.1-9.37,9.21-2.89,0-3.49-.84-3.47-3.57.13-15.25.06-30.49.06-45.74,0-8.68-.25-8.82-8.39-5.62-13.11,5.15-21.44,15.17-27.53,27.3-9.06,18-12.54,37.49-13.9,57.44-.12,1.71.29,2.19,1.93,2.16,4.37-.07,8.74,0,13.12,0,9.29,0,9.18,0,9.29,9.3,0,2.76-.63,3.59-3.49,3.56-13-.17-26-.07-39-.07-8.85,0-8.69,0-8.89,9-.07,3.25,1,3.83,4,3.82C253.87,339,286.62,339.08,319.36,339.08Z" transform="translate(-127.51 -204.75)"/><path class="cls-3" d="M441.09,469.72c0,3.21.07,6.43,0,9.63-.13,4.38-2.29,6.81-6.67,6.91q-12.36.27-24.73,0c-4.56-.09-6.78-2.56-6.9-7.11-.09-3.21,0-6.42,0-10.54-2.64,2.67-4.67,4.79-6.77,6.84-4.14,4-7.25,4.11-11.29.14q-8.16-8-16.16-16.16c-3.69-3.78-3.68-7-.06-10.75,2.12-2.2,4.39-4.24,7.34-7.08-4.1,0-7.05.06-10,0-5.37-.13-7.83-2.48-7.9-7.78q-.15-11.43,0-22.86c.06-5.37,2.41-7.62,7.83-7.79,1.5-.05,3,0,4.49,0H375c-1.7-2.89-4-4.53-5.91-6.51-4.34-4.53-4.43-7.43-.07-11.83q7.75-7.86,15.62-15.64c4.06-4,7.21-4,11.27,0,2.12,2,4.16,4.19,6.86,6.92,0-4-.06-7.23,0-10.42.12-4.76,2.44-7.17,7.15-7.22q12.18-.13,24.36,0c4.32.06,6.66,2.46,6.79,6.77.11,3.24,0,6.49,0,10.14,2.86-1.54,4.55-4,6.62-6,4.43-4.23,7.48-4.3,11.84,0,5.23,5.19,10.46,10.39,15.62,15.65,3.91,4,3.86,7.24-.08,11.29a35,35,0,0,0-5.71,6.81c3,0,6.08-.08,9.11,0,5.17.18,7.44,2.51,7.48,7.74q.1,11.43,0,22.86c0,5.32-2.45,7.68-7.84,7.82a41.82,41.82,0,0,0-9.44.85c2.32,2.16,4.74,4.22,6.94,6.51,3.26,3.39,3.3,6.8,0,10.18q-8.22,8.46-16.68,16.7c-3.66,3.58-7,3.5-10.77-.18-2.12-2.09-4-4.4-6-6.61ZM428.3,379.94c0-8.76,0-8.76-8.65-8.74a10.72,10.72,0,0,1-1.5,0c-2.21-.33-2.74.73-2.67,2.77.14,3.87,0,7.75,0,11.63,0,3.25-1.49,5.35-4.4,6.73-6.06,2.86-7.72,2.44-13.88-3.69-2.28-2.27-4.92-6.43-6.93-6.17-2.69.35-4.86,4.24-7.38,6.47-1.54,1.36-1.32,2.29.07,3.59,2.56,2.38,4.9,5,7.46,7.38,3.12,2.91,3.81,6,2.14,10.08s-4.33,6.23-8.78,6c-1.25,0-2.5,0-3.75,0-9.62,0-9.55,0-9.46,9.61,0,2.38.61,3.36,3.15,3.24,3.86-.18,7.74,0,11.62,0a6.49,6.49,0,0,1,5.55,2.55c3.92,5.21,3.65,9.25-1,13.89-.88.89-1.76,1.77-2.65,2.65-6.12,6.11-6,6,0,12.33,2.14,2.23,3.54,2.93,5.74.13,1.83-2.35,4.28-4.2,6.28-6.43,3-3.32,6.27-4,10.4-2.16,4.76,2.18,5.76,3.45,5.78,8.84,0,1.12,0,2.25,0,3.37,0,10,0,9.93,10.23,9.51,1.89-.07,2.66-.54,2.59-2.54-.13-3.75,0-7.5-.06-11.25-.09-4.09,2-6.36,5.64-7.88s7-1.8,9.9,1.39c.93,1,1.94,1.95,2.91,2.92,7.37,7.38,7.33,7.34,14.43-.47,1.22-1.35,1.22-2.11,0-3.3-2.55-2.4-5-4.92-7.45-7.4-3.94-4-4.25-5.58-2.14-10.66,1.88-4.5,3.38-5.47,8.63-5.51h3.37c10.36,0,10.32,0,9.71-10.41-.1-1.74-.55-2.46-2.36-2.41-3.37.1-6.76-.08-10.12.05-4.46.18-7.68-1.2-9.35-5.74-1.92-5.23-1.78-6.6,2.51-10.92L456.3,397c6.41-6.41,6.33-6.34,0-12.88-1.92-2-3.18-2.58-5.17-.12a84.64,84.64,0,0,1-6.31,6.4c-4,3.94-5.95,4.41-10.64,2.49s-5.84-3.62-5.86-9.2Z" transform="translate(-127.51 -204.75)"/><path class="cls-4" d="M155.69,460.7c3.88,0,7.75-.07,11.62,0s6.41-1.55,7.53-5.34a83.85,83.85,0,0,1,7-16.88c2-3.62,1.2-6.64-1.63-9.43-5.6-5.53-11.09-11.18-16.74-16.66-1.63-1.58-2.11-2.55-.16-4.37,4.92-4.61,9.65-9.43,14.34-14.28,1.38-1.42,2.18-1.34,3.51,0,5.59,5.73,11.26,11.36,16.94,17,3.63,3.6,5.46,4,10,1.62a100.93,100.93,0,0,1,15.49-6.47c5.34-1.73,6.39-3.29,6.41-9,0-7.62.1-15.25-.05-22.87,0-2.34.64-2.94,2.93-2.88q9.93.23,19.86,0c2.34-.06,3,.64,2.91,2.94-.14,7.62-.06,15.25-.05,22.87,0,5.89.88,7.19,6.38,9a99.29,99.29,0,0,1,15.15,6.32c4.87,2.55,6.57,2.16,10.58-1.82,5.5-5.46,11-10.87,16.4-16.46,1.66-1.73,2.56-1.52,4.08.07,4.58,4.78,9.21,9.53,14,14.05,2,1.85,1.4,2.79-.19,4.34-5.56,5.39-11,10.9-16.46,16.41-3.59,3.62-4,5.56-1.71,10a89,89,0,0,1,6.65,16.22c1.13,3.85,3.61,5.7,7.72,5.65,8-.1,16,0,24-.06,1.92,0,2.95.22,2.9,2.57-.14,6.87-.12,13.75,0,20.62,0,2-.62,2.52-2.55,2.5-7.75-.1-15.49-.07-23.24,0-5.76,0-7.22,1-9,6.45A100.31,100.31,0,0,1,304,507.93c-2.53,4.84-2.14,6.63,1.81,10.59,5.38,5.41,10.73,10.84,16.2,16.15,1.59,1.54,2.17,2.48.19,4.33-4.92,4.61-9.64,9.44-14.32,14.29-1.37,1.41-2.18,1.4-3.52,0-5.5-5.63-11.09-11.18-16.68-16.73-3.9-3.87-5.77-4.25-10.61-1.75a98.94,98.94,0,0,1-15.16,6.31c-5.35,1.72-6.3,3.15-6.31,8.66,0,7.74-.09,15.49,0,23.24,0,2.22-.44,3.05-2.86,3-6.62-.17-13.25-.2-19.86,0-2.67.09-3-.95-3-3.22.12-7.62.07-15.24,0-22.87,0-5.44-1.13-7.11-6.29-8.75a108.08,108.08,0,0,1-15.84-6.61c-4.3-2.16-6.21-1.78-9.67,1.65-5.6,5.53-11.19,11.08-16.68,16.72-1.46,1.5-2.32,2-4,.18q-6.94-7.35-14.32-14.3c-1.85-1.73-1.3-2.62.2-4.08,5.56-5.39,11-10.9,16.47-16.39,3.73-3.75,4.1-5.62,1.71-10.3a102,102,0,0,1-6.43-15.51c-1.64-5.14-3.27-6.21-8.78-6.23-7.49,0-15-.12-22.49.05-2.67.06-3.72-.45-3.6-3.43.25-6.36.18-12.74,0-19.11-.06-2.4.53-3.32,3.08-3.19C147.44,460.85,151.57,460.7,155.69,460.7ZM191.55,474c.77,28.66,24.1,51.51,51.79,50.73,28.82-.81,51.33-24.06,50.6-52.27s-24.46-51-52.34-50.16C213.45,423.23,190.8,446.63,191.55,474Z" transform="translate(-127.51 -204.75)"/><path class="cls-5" d="M319.36,339.08c-32.74,0-65.49,0-98.23.07-3,0-4.08-.57-4-3.82.2-9,0-9,8.89-9,13,0,26-.1,39,.07,2.86,0,3.52-.8,3.49-3.56-.11-9.3,0-9.3-9.29-9.3-4.38,0-8.75,0-13.12,0-1.64,0-2.05-.45-1.93-2.16,1.36-19.95,4.84-39.4,13.9-57.44,6.09-12.13,14.42-22.15,27.53-27.3,8.14-3.2,8.39-3.06,8.39,5.62,0,15.25.07,30.49-.06,45.74,0,2.73.58,3.61,3.47,3.57,9.37-.11,9.37,0,9.37-9.21,0-17.12.07-34.24-.06-51.36,0-2.74.56-3.66,3.46-3.55,6.36.24,12.74.2,19.11,0,2.5-.07,3.1.73,3.09,3.14-.09,19,0,38-.12,57,0,3,.68,4,3.86,4,9-.17,9,0,9-8.87,0-14.74.08-29.49-.07-44.24,0-3.2.6-4.08,3.93-3.23,12.92,3.33,21.83,11.63,28.65,22.57,8.67,13.92,12.72,29.43,15.38,45.41.94,5.67,1.2,11.43,2,17.1.49,3.5-1.2,3.23-3.49,3.23q-52.68,0-105.35,0a22.88,22.88,0,0,1-2.62,0c-1.79-.19-2.28.54-2.37,2.32-.57,10.49-.62,10.49,9.92,10.49q63.36,0,126.72-.09c3.48,0,4.39.95,4.3,4.34-.23,8.52-.06,8.52-8.63,8.52Z" transform="translate(-127.51 -204.75)"/><path class="cls-6" d="M428.3,379.94v3.75c0,5.58,1.08,7.24,5.86,9.2s6.68,1.45,10.64-2.49a84.64,84.64,0,0,0,6.31-6.4c2-2.46,3.25-1.86,5.17.12,6.35,6.54,6.43,6.47,0,12.88l-2.38,2.39c-4.29,4.32-4.43,5.69-2.51,10.92,1.67,4.54,4.89,5.92,9.35,5.74,3.36-.13,6.75.05,10.12-.05,1.81-.05,2.26.67,2.36,2.41.61,10.41.65,10.41-9.71,10.41h-3.37c-5.25,0-6.75,1-8.63,5.51-2.11,5.08-1.8,6.69,2.14,10.66,2.47,2.48,4.9,5,7.45,7.4,1.26,1.19,1.26,1.95,0,3.3-7.1,7.81-7.06,7.85-14.43.47-1-1-2-1.91-2.91-2.92-2.93-3.19-6.2-2.95-9.9-1.39s-5.73,3.79-5.64,7.88c.09,3.75-.07,7.5.06,11.25.07,2-.7,2.47-2.59,2.54-10.23.42-10.23.47-10.23-9.51,0-1.12,0-2.25,0-3.37,0-5.39-1-6.66-5.78-8.84-4.13-1.89-7.41-1.16-10.4,2.16-2,2.23-4.45,4.08-6.28,6.43-2.2,2.8-3.6,2.1-5.74-.13-6.05-6.31-6.14-6.22,0-12.33.89-.88,1.77-1.76,2.65-2.65,4.64-4.64,4.91-8.68,1-13.89a6.49,6.49,0,0,0-5.55-2.55c-3.88,0-7.76-.15-11.62,0-2.54.12-3.12-.86-3.15-3.24-.09-9.61-.16-9.61,9.46-9.61,1.25,0,2.5,0,3.75,0,4.45.18,7.07-1.87,8.78-6s1-7.17-2.14-10.08c-2.56-2.38-4.9-5-7.46-7.38-1.39-1.3-1.61-2.23-.07-3.59,2.52-2.23,4.69-6.12,7.38-6.47,2-.26,4.65,3.9,6.93,6.17,6.16,6.13,7.82,6.55,13.88,3.69,2.91-1.38,4.44-3.48,4.4-6.73,0-3.88.09-7.76,0-11.63-.07-2,.46-3.1,2.67-2.77a10.72,10.72,0,0,0,1.5,0C428.3,371.18,428.3,371.18,428.3,379.94Zm-31.83,42.48a25.42,25.42,0,0,0,25.46,25.43c14.15,0,25.93-11.83,25.63-25.75a25.55,25.55,0,0,0-51.09.32Z" transform="translate(-127.51 -204.75)"/><path class="cls-7" d="M191.55,474c-.75-27.41,21.9-50.81,50-51.7,27.88-.87,51.61,21.86,52.34,50.16s-21.78,51.46-50.6,52.27C215.65,525.55,192.32,502.7,191.55,474Zm12.82-.48c0,20.94,17.49,38.43,38.41,38.4s38.42-17.61,38.4-38.44-17.62-38.42-38.44-38.42S204.37,452.64,204.37,473.56Z" transform="translate(-127.51 -204.75)"/><path class="cls-7" d="M396.47,422.42a25.55,25.55,0,0,1,51.09-.32c.3,13.92-11.48,25.76-25.63,25.75A25.42,25.42,0,0,1,396.47,422.42Zm25.62,12.64a12.8,12.8,0,0,0,12.66-12.94A13,13,0,0,0,422,409.54a12.78,12.78,0,0,0-12.76,12.85A12.61,12.61,0,0,0,422.09,435.06Z" transform="translate(-127.51 -204.75)"/></svg>