<svg id="Layer_1" data-name="Layer 1" xmlns="http://www.w3.org/2000/svg" viewBox="0 0 384 315.69"><defs><style>.cls-1{fill:#040302;}.cls-2{fill:#facc38;}.cls-3{fill:#fa9221;}.cls-4{fill:#6ac1fb;}.cls-5{fill:#69bef8;}.cls-6{fill:#93def8;}.cls-7{fill:#41ade9;}.cls-8{fill:#91dcf6;}.cls-9{fill:#41ace7;}</style></defs><title>jewelry</title><path class="cls-1" d="M114.75,420.75c1.83-2.8,1.38-6.13,2.06-9.2q16.1-72.58,87.13-94.37l3-1L176.24,281c-4.17-4.78-4.17-6.26-.08-11.26,7.42-9.09,14.89-18.15,22.2-27.33a8.59,8.59,0,0,1,7.38-3.51q29.81.12,59.61,0a8.62,8.62,0,0,1,7.42,3.43c7.65,9.55,15.45,19,23.16,28.49,2.83,3.48,2.79,5.84-.2,9.28q-14.36,16.56-28.79,33.07c-.8.92-1.58,1.87-2.6,3.1a135.41,135.41,0,0,1,23,8.28,111.41,111.41,0,0,1,17.09,10c1.6,1.17,2.66,1.37,4.5.12,65.85-44.61,153.37-17.45,182,56.43a120.89,120.89,0,0,1,7,28.62c.09.66-.25,1.56.8,1.82v24.75c-1.18.39-.74,1.45-.85,2.22a129.93,129.93,0,0,1-4.84,21.88C467.65,548.12,376.89,579,309,533c-1.74-1.18-2.8-1.16-4.53,0-27.11,18.59-57,25-89.35,19.81-47.34-7.64-87-45.27-97.42-92.18-1.06-4.78-1.07-9.78-3-14.38Zm212,9.32c-4.12-.23-5.89-2.7-6.33-6.52-.23-2.11-.52-4.21-.93-6.29a82.69,82.69,0,0,0-12.56-30.52c-19.6,26.55-18.94,68.88.06,94,.89-1.41,1.8-2.72,2.59-4.1a84.6,84.6,0,0,0,10.42-29c.61-3.77,2.48-5.86,6.35-6,4.6,1.76,5.45,3.39,4.65,8.25a95.1,95.1,0,0,1-12.5,33.83c-4.49,7.52-4.39,7.41,2,13.53,2.28,2.19,3.32,1.76,4.94-.63,16.14-23.74,22.73-49.9,18.59-78.27a109.25,109.25,0,0,0-128.4-92.21c-64.22,11.84-104.08,77.56-84.79,139.79,16.42,53,69,85.1,124,75.73a108.78,108.78,0,0,0,39.84-15.46c2.26-1.42,3.27-2.38.56-4.39a26.21,26.21,0,0,1-4.78-4.75c-1.5-1.89-2.68-1.71-4.63-.54-22.59,13.54-46.83,17.24-72.43,11.45-65.13-14.72-95.81-92.67-58.27-147.83,2.76-4.06,4.48-4.6,9.14-2.89,2.92,3.1,2.32,6,.13,9.4q-18.5,28.33-12.92,61.79c9.79,58.06,75.76,89.15,126.5,59.7,2.76-1.6,2.89-2.53,1.09-5.07a120.46,120.46,0,0,1,0-138.58c2-2.8,1.27-3.65-1.26-5.12-30.16-17.41-68.66-14.15-96.39,8.38-3.14,2.55-6,4-9.65,1.18-2.29-4.43-2-6.26,1.79-9.35q36.22-29.32,82-20.49c39.81,7.72,72.42,43.48,76.09,83.19C332.08,427.07,331.21,428.45,326.73,430.07Zm125.69,56.34c-3.22-3.72-3.32-5-.64-9.66a85.1,85.1,0,0,0,10.31-57.7c-9.63-58-76.19-89.16-126.88-59.34-2.29,1.35-2.61,2.05-1,4.33a120.4,120.4,0,0,1,.14,139.21c-1.82,2.59-1.28,3.36,1.17,4.78,31.8,18.49,72.7,13.88,100.39-11.44,4-3.66,5.19-3.86,9.53-1.58,2.41,4.36,2.22,6.07-1.49,9.45-23.27,21.22-50.71,29.74-81.62,24.77C294.66,518.35,259.65,442,295.13,383.61c4.38-7.21,4.23-7.06-1.76-13-2.72-2.68-3.84-1.88-5.66.83-15.88,23.6-22.18,49.54-18.28,77.65,8.51,61.29,66.23,103.1,127.3,92.51a109.49,109.49,0,0,0,89.43-124.3c-11.89-77.52-99.1-118-165.71-76.87-4.56,2.81-4.56,2.81-.65,6.66a36,36,0,0,1,3.4,3.48c1.31,1.71,2.35,1.78,4.28.61,20.09-12.17,41.78-16.41,65-13.09,67.1,9.57,103.86,87.15,68.65,145C458.78,487.05,457.25,487.63,452.42,486.41ZM221.06,281.07c3.6,10.37,7.07,20.34,10.5,30.32.94,2.74,3.17,1.11,4.79,1.44s2.84.18,3.5-1.77c3.12-9.34,6.35-18.63,9.59-27.93.5-1.42.31-2.08-1.35-2.07C239.24,281.09,230.38,281.07,221.06,281.07Zm14.81-11.25c3.87,0,7.74-.11,11.61,0,2.42.1,2.73-.81,2-2.86-1.65-4.82-3.28-9.66-4.73-14.55-.52-1.76-1.33-2.39-3.14-2.34-4,.11-8,.1-12,0-1.73,0-2.71.37-3.24,2.22q-2.2,7.52-4.8,14.92c-.74,2.1-.18,2.64,1.89,2.59C227.64,269.75,231.76,269.82,235.87,269.82Zm-44.59,11.24,28.32,32.48c.11-.62.3-1,.2-1.29q-5-14.87-10.14-29.71a2,2,0,0,0-2.22-1.5C202.36,281.09,197.28,281.06,191.28,281.06Zm60.24,30.51.92,1,27.5-31.46c-5.61,0-10.18.14-14.73-.06-2.41-.11-3.49.69-4.24,3C257.94,293.22,254.69,302.39,251.52,311.57Zm-60.91-41.75c6,0,11-.07,16,.05a2.75,2.75,0,0,0,3.17-2.31c1.54-5.12,3.23-10.2,4.83-15.31.19-.62.94-1.3,0-2-.74-.56-8-.05-8.68.75C201,257,196.1,263.1,190.61,269.82Zm89.95,0c-4.62-5.69-8.94-10.46-12.58-15.7-2.53-3.64-5.58-4.37-9.54-4.05-1.81.15-2.5.55-1.87,2.42q2.6,7.78,5.07,15.61c.34,1.09.84,1.73,2.05,1.72Z" transform="translate(-114.75 -238.87)"/><path class="cls-2" d="M171.74,368.89a55.09,55.09,0,0,0-7.54,8.32c-4.66-1.71-6.38-1.17-9.14,2.89-37.54,55.16-6.86,133.11,58.27,147.83,25.6,5.79,49.84,2.09,72.43-11.45,1.95-1.17,3.13-1.35,4.63.54a26.21,26.21,0,0,0,4.78,4.75c2.71,2,1.7,3-.56,4.39a108.78,108.78,0,0,1-39.84,15.46c-54.93,9.37-107.53-22.75-124-75.73-19.29-62.23,20.57-127.95,84.79-139.79A109.25,109.25,0,0,1,344,418.31c4.14,28.37-2.45,54.53-18.59,78.27-1.62,2.39-2.66,2.82-4.94.63-6.39-6.12-6.49-6-2-13.53A95.1,95.1,0,0,0,331,449.85c.8-4.86-.05-6.49-4.65-8.25a58.48,58.48,0,0,0,.4-11.53c4.48-1.62,5.35-3,4.9-7.83-3.67-39.71-36.28-75.47-76.09-83.19q-45.69-8.85-82,20.49C169.72,362.63,169.45,364.46,171.74,368.89Z" transform="translate(-114.75 -238.87)"/><path class="cls-3" d="M445.43,495l7-8.6c4.83,1.22,6.36.64,8.76-3.29,35.21-57.85-1.55-135.43-68.65-145-23.27-3.32-45,.92-65,13.09-1.93,1.17-3,1.1-4.28-.61a36,36,0,0,0-3.4-3.48c-3.91-3.85-3.91-3.85.65-6.66,66.61-41.11,153.82-.65,165.71,76.87a109.49,109.49,0,0,1-89.43,124.3c-61.07,10.59-118.79-31.22-127.3-92.51-3.9-28.11,2.4-54.05,18.28-77.65,1.82-2.71,2.94-3.51,5.66-.83,6,5.91,6.14,5.76,1.76,13-35.48,58.4-.47,134.74,67.19,145.62,30.91,5,58.35-3.55,81.62-24.77C447.65,501.08,447.84,499.37,445.43,495Z" transform="translate(-114.75 -238.87)"/><path class="cls-4" d="M221.06,281.07c9.32,0,18.18,0,27,0,1.66,0,1.85.65,1.35,2.07-3.24,9.3-6.47,18.59-9.59,27.93-.66,1.95-2,2.08-3.5,1.77s-3.85,1.3-4.79-1.44C228.13,301.41,224.66,291.44,221.06,281.07Z" transform="translate(-114.75 -238.87)"/><path class="cls-5" d="M235.87,269.82c-4.11,0-8.23-.07-12.35,0-2.07,0-2.63-.49-1.89-2.59q2.58-7.39,4.8-14.92c.53-1.85,1.51-2.26,3.24-2.22,4,.09,8,.1,12,0,1.81-.05,2.62.58,3.14,2.34,1.45,4.89,3.08,9.73,4.73,14.55.7,2.05.39,3-2,2.86C243.61,269.71,239.74,269.82,235.87,269.82Z" transform="translate(-114.75 -238.87)"/><path class="cls-6" d="M191.28,281.06c6,0,11.08,0,16.16,0a2,2,0,0,1,2.22,1.5q5.07,14.85,10.14,29.71c.1.29-.09.67-.2,1.29Z" transform="translate(-114.75 -238.87)"/><path class="cls-7" d="M251.52,311.57c3.17-9.18,6.42-18.35,9.45-27.58.75-2.29,1.83-3.09,4.24-3,4.55.2,9.12.06,14.73.06l-27.5,31.46Z" transform="translate(-114.75 -238.87)"/><path class="cls-8" d="M190.61,269.82C196.1,263.1,201,257,206,251c.66-.8,7.94-1.31,8.68-.75.89.67.14,1.35,0,2-1.6,5.11-3.29,10.19-4.83,15.31a2.75,2.75,0,0,1-3.17,2.31C201.64,269.75,196.66,269.82,190.61,269.82Z" transform="translate(-114.75 -238.87)"/><path class="cls-9" d="M280.56,269.82H263.69c-1.21,0-1.71-.63-2.05-1.72q-2.47-7.83-5.07-15.61c-.63-1.87.06-2.27,1.87-2.42,4-.32,7,.41,9.54,4.05C271.62,259.36,275.94,264.13,280.56,269.82Z" transform="translate(-114.75 -238.87)"/></svg>