<svg id="Layer_1" data-name="Layer 1" xmlns="http://www.w3.org/2000/svg" viewBox="0 0 128 151.1"><defs><style>.cls-1{fill:#030302;}.cls-2{fill:#f9ac4a;}.cls-3{fill:#2a8de4;}.cls-4{fill:#82d616;}.cls-5{fill:#eb5380;}.cls-6{fill:#89693a;}.cls-7{fill:#886839;}.cls-8{fill:#040301;}.cls-9{fill:#846538;}</style></defs><title>jute</title><path class="cls-1" d="M243.67,471.34a3.54,3.54,0,0,1-1.75-3.7q1.62-30,3.14-60.06c.66-12.81,1.26-25.62,1.88-38.43a3.74,3.74,0,0,1,.57-1.79c2.39-3.95,4.79-7.88,7.13-11.85.77-1.32,1.74-2.13,3.31-1.9,1.19.17,1.13-.5,1-1.31-.63-5.21-1.23-10.43-1.87-15.65-.26-2.17.48-3.29,2.65-3.56,7.8-.95,15.6-1.84,23.4-2.76l.59,0a8.31,8.31,0,0,0,6.38-3c5.65-6.18,12.91-8.31,21-6.28s13.35,7.34,15.72,15.39a1.75,1.75,0,0,0,1.54,1.43c7,1.59,13.94,3.25,20.91,4.9,2.43.57,3.05,1.61,2.47,4.05l-1.59,6.84c1.42,0,2.69,0,4,0a2.92,2.92,0,0,1,2.79,1.55c2.46,4.13,5,8.23,7.44,12.35a3.47,3.47,0,0,1,.5,1.67q1.35,27.6,2.73,55.21,1.1,21.42,2.26,42.84c.1,1.73,0,3.22-1.72,4.14Zm62.24-5.09q28.53,0,57.08,0c1.37,0,1.71-.35,1.63-1.7-.44-7.41-.8-14.82-1.18-22.23q-.79-15.39-1.57-30.78c-.65-12.72-1.34-25.43-1.94-38.14-.07-1.47-.36-2-1.95-2q-52.07.07-104.13,0a8.61,8.61,0,0,1-.88,0c-.78-.08-1,.3-1,1-.27,5.94-.59,11.88-.89,17.82q-.8,15.76-1.59,31.52-1.1,21.35-2.25,42.7c-.07,1.32.22,1.71,1.62,1.71Q277.38,466.21,305.91,466.25Zm-27.69-99.9c-.65-2.72-1.26-5.29-1.86-7.87-.5-2.18.13-3.2,2.33-3.73q10.95-2.65,21.9-5.27c.83-.2,1.46-.3,1.28-1.55-.62-4.43-1.1-8.87-1.55-13.32-.1-1-.47-1.13-1.31-1-3.61.46-7.22.88-10.83,1.31-7.9.93-15.79,1.88-23.7,2.79-2.12.24-2.11.18-1.85,2.26.58,4.77,1.14,9.56,1.71,14.33q.65,5.49,1.32,11c.06.48-.06,1.12.81,1.11C270.35,366.33,274.22,366.35,278.22,366.35Zm56.31,0c2.07,0,4.13,0,6.2,0,.85,0,1.29-.15,1.5-1.11,1.23-5.51,2.48-11,3.87-16.48.35-1.37-.09-1.64-1.25-1.9-8.61-2-17.2-4-25.8-6-2.55-.6-2.55-.59-3.13,1.92-.71,3.11-.71,3.11,2.38,2.36,2.74-.65,3.74,0,4.41,2.75,1.36,5.67,2.78,11.34,4.05,17,.28,1.21.78,1.46,1.88,1.42C330.6,366.29,332.57,366.35,334.53,366.35Zm-32,0c6,0,12.09,0,18.13,0,.81,0,1.24,0,1-1.08-1.16-4.56-2.24-9.15-3.29-13.74-.2-.86-.58-1-1.35-.77-1.94.5-3.91,1-5.86,1.42q-14,3.38-28,6.73c-1,.23-1.29.6-1,1.58.43,1.51.83,3,1.11,4.57.19,1,.62,1.32,1.66,1.31C290.72,366.32,296.62,366.35,302.52,366.35Zm-5.95-37.59,4.77-.55c2.48-.28,3.42.51,3.7,3,.58,5.22,1.21,10.44,1.83,15.66,0,.36-.05.83.45,1a2.66,2.66,0,0,0,2.49-1.45c.69-2.91,1.36-5.82,2-8.74.64-2.74,1.56-3.3,4.31-2.66,1.68.4,3.37.76,5.33,1.19-2.57-5.77-6.63-9.26-12.48-10.41A14.45,14.45,0,0,0,296.57,328.76Zm61.06,37.56a59.62,59.62,0,0,1-3.06-5.24c-.91-2-2.23-2.8-4.35-2.41a.71.71,0,0,1-.29,0c-.67-.1-1,.23-1.12.85-.45,2-.9,4-1.4,6-.15.6,0,.79.58.79Zm-103.48,0c2,0,3.72,0,5.43,0,.83,0,1-.34.91-1.07-.23-1.89-.42-3.79-.65-5.69,0-.38-.11-.81-.63-.87s-.62.22-.8.53Z" transform="translate(-241.91 -320.24)"/><path class="cls-2" d="M305.91,466.25q-28.55,0-57.08,0c-1.4,0-1.69-.39-1.62-1.71q1.17-21.35,2.25-42.7.81-15.76,1.59-31.52c.3-5.94.62-11.88.89-17.82,0-.73.25-1.11,1-1a8.61,8.61,0,0,0,.88,0q52.07,0,104.13,0c1.59,0,1.88.49,1.95,2,.6,12.71,1.29,25.42,1.94,38.14q.79,15.39,1.57,30.78c.38,7.41.74,14.82,1.18,22.23.08,1.35-.26,1.7-1.63,1.7Q334.44,466.21,305.91,466.25Zm16.62-68.73h0c0,1.33,0,2.66,0,4a16.63,16.63,0,0,1-15.63,16.06c-8,.68-15.66-5.26-17.24-13.43-.72-3.74-.18-7.55-.35-11.33a1.68,1.68,0,0,1,1.08-1.79,7.55,7.55,0,0,0,3.75-8.76,7.67,7.67,0,0,0-14.83.2,7.48,7.48,0,0,0,3.84,8.58,1.72,1.72,0,0,1,1,1.81,107.26,107.26,0,0,0,.18,10.76c1.16,10.2,10,18.58,20.11,19,11,.51,20.55-6.66,22.72-17,.88-4.19.44-8.42.52-12.64a1.93,1.93,0,0,1,1.16-2,7.57,7.57,0,0,0,3.83-8.09,7.7,7.7,0,0,0-14.93-.76,7.59,7.59,0,0,0,3.72,8.9,1.69,1.69,0,0,1,1.09,1.79C322.47,394.37,322.53,396,322.53,397.52Z" transform="translate(-241.91 -320.24)"/><path class="cls-3" d="M278.22,366.35c-4,0-7.87,0-11.75,0-.87,0-.75-.63-.81-1.11q-.68-5.47-1.32-11c-.57-4.77-1.13-9.56-1.71-14.33-.26-2.08-.27-2,1.85-2.26,7.91-.91,15.8-1.86,23.7-2.79,3.61-.43,7.22-.85,10.83-1.31.84-.11,1.21.06,1.31,1,.45,4.45.93,8.89,1.55,13.32.18,1.25-.45,1.35-1.28,1.55q-10.95,2.63-21.9,5.27c-2.2.53-2.83,1.55-2.33,3.73C277,361.06,277.57,363.63,278.22,366.35Z" transform="translate(-241.91 -320.24)"/><path class="cls-4" d="M334.53,366.35c-2,0-3.93-.06-5.89,0-1.1,0-1.6-.21-1.88-1.42-1.27-5.69-2.69-11.36-4.05-17-.67-2.78-1.67-3.4-4.41-2.75-3.09.75-3.09.75-2.38-2.36.58-2.51.58-2.52,3.13-1.92,8.6,2,17.19,4,25.8,6,1.16.26,1.6.53,1.25,1.9-1.39,5.47-2.64,11-3.87,16.48-.21,1-.65,1.13-1.5,1.11C338.66,366.32,336.6,366.35,334.53,366.35Z" transform="translate(-241.91 -320.24)"/><path class="cls-5" d="M302.52,366.35c-5.9,0-11.8,0-17.69,0-1,0-1.47-.29-1.66-1.31-.28-1.54-.68-3.06-1.11-4.57-.28-1,0-1.35,1-1.58q14-3.33,28-6.73c1.95-.47,3.92-.92,5.86-1.42.77-.2,1.15-.09,1.35.77,1.05,4.59,2.13,9.18,3.29,13.74.28,1.09-.15,1.08-1,1.08C314.61,366.34,308.56,366.35,302.52,366.35Z" transform="translate(-241.91 -320.24)"/><path class="cls-6" d="M357.63,366.32H348c-.6,0-.73-.19-.58-.79.5-2,.95-4,1.4-6,.14-.62.45-.95,1.12-.85a.71.71,0,0,0,.29,0c2.12-.39,3.44.43,4.35,2.41A59.62,59.62,0,0,0,357.63,366.32Z" transform="translate(-241.91 -320.24)"/><path class="cls-7" d="M254.15,366.32l4.26-7.09c.18-.31.4-.57.8-.53s.58.49.63.87c.23,1.9.42,3.8.65,5.69.09.73-.08,1.09-.91,1.07C257.87,366.28,256.16,366.32,254.15,366.32Z" transform="translate(-241.91 -320.24)"/><path class="cls-8" d="M322.53,397.52c0-1.57-.06-3.15,0-4.72a1.69,1.69,0,0,0-1.09-1.79,7.59,7.59,0,0,1-3.72-8.9,7.7,7.7,0,0,1,14.93.76,7.57,7.57,0,0,1-3.83,8.09,1.93,1.93,0,0,0-1.16,2c-.08,4.22.36,8.45-.52,12.64-2.17,10.36-11.74,17.53-22.72,17-10.13-.47-18.95-8.85-20.11-19a107.26,107.26,0,0,1-.18-10.76,1.72,1.72,0,0,0-1-1.81,7.48,7.48,0,0,1-3.84-8.58A7.66,7.66,0,1,1,290.36,391a1.68,1.68,0,0,0-1.08,1.79c.17,3.78-.37,7.59.35,11.33,1.58,8.17,9.27,14.11,17.24,13.43A16.63,16.63,0,0,0,322.5,401.5c.05-1.32,0-2.65,0-4ZM289,385.34a2.41,2.41,0,0,0-.85-3.11,2.27,2.27,0,0,0-3.1.15,2.16,2.16,0,0,0-.56,3C286.38,383.94,286.91,383.94,289,385.34Zm38.36.14a2.49,2.49,0,0,0-.83-3.29,2.29,2.29,0,0,0-3,.12,2.17,2.17,0,0,0-.69,2.88A3,3,0,0,1,327.37,385.48Z" transform="translate(-241.91 -320.24)"/><path class="cls-9" d="M289,385.34c-2.1-1.4-2.63-1.4-4.51,0a2.16,2.16,0,0,1,.56-3,2.27,2.27,0,0,1,3.1-.15A2.41,2.41,0,0,1,289,385.34Z" transform="translate(-241.91 -320.24)"/><path class="cls-9" d="M327.37,385.48a3,3,0,0,0-4.51-.29,2.17,2.17,0,0,1,.69-2.88,2.29,2.29,0,0,1,3-.12A2.49,2.49,0,0,1,327.37,385.48Z" transform="translate(-241.91 -320.24)"/></svg>