<svg id="Layer_1" data-name="Layer 1" xmlns="http://www.w3.org/2000/svg" viewBox="0 0 342.06 360.04"><defs><style>.cls-1{fill:#7f5a2f;}.cls-2{fill:#020101;}.cls-3{fill:#020201;}.cls-4{fill:#e8ad48;}.cls-5{fill:#d39e47;}.cls-6{fill:#e7ac47;}.cls-7{fill:#714e26;}.cls-8{fill:#a07735;}.cls-9{fill:#9b7433;}.cls-10{fill:#030301;}.cls-11{fill:#040301;}</style></defs><title>leather</title><path class="cls-1" d="M318.84,402.69l8.16.07c.12,11.12-.8,22.2-1.61,33.26-.92,12.69,8.65,21.14,20.32,20.88,21.85-.5,43.73-.56,65.58,0,11.53.31,22.55-7.77,20.54-23.6-1.28-10.12-1.41-20.38-2.05-30.58l8.88-.05a12.07,12.07,0,0,1,.07,2.24c-.52,3.2.85,4.08,3.93,3.89,4.1-.27,8.24-.07,12.36-.07,9,0,13.72,4.7,13.73,13.55q0,57.17.07,114.33c0,3.18-.62,4.21-4.05,4.2q-116-.17-232,0c-3.45,0-4.06-1-4-4.2q.16-57,.07-114c0-9.24,4.75-13.92,14.12-13.92H312.6C318.61,408.75,318.61,408.75,318.84,402.69Z" transform="translate(-138.72 -216.72)"/><path class="cls-2" d="M192.76,390.63c6,.3,6,.3,6,6.49v171c0,6.91-1.72,8.64-8.59,8.64h-43.5c-5.91,0-7.91-2-7.91-7.82q0-134.05,0-268.11a83.92,83.92,0,0,1,88.93-84c40.58,2.17,74.18,34.26,78.42,74.88a84,84,0,0,1-87,92.93c-9.05-.35-17.73-2.57-26.33-5.22-.75-.4-1.48-.86-2.26-1.19a82.77,82.77,0,0,1-33.1-24.76c-2.21-2.74-4.19-5.66-6.57-8.89v11.67q-.06,70.07-.16,140.13c0,2.58,1.33,2.38,3,2.37,9.74,0,19.49-.15,29.22.07,3.13.07,3.89-.74,3.87-3.87-.12-32.6-.07-65.2-.07-97.79C186.75,390.93,186.75,390.93,192.76,390.63Zm-42-90.16c0,39.84,32.18,72.26,71.72,72.25a72,72,0,0,0,72.26-72.45c0-39.29-32.4-71.43-72.09-71.52C183.28,228.67,150.75,261.12,150.75,300.47Zm17.8,222.28h9.34c9.05,0,9,0,8.92-9.16,0-2.32-.62-2.93-2.92-2.89-8,.14-15.94.05-23.91.05-9.62,0-9.55,0-9.28,9.54.05,2,.58,2.55,2.53,2.5C158.34,522.66,163.44,522.75,168.55,522.75Zm-17.8,27.35v5.62c0,9.25,0,9.18,9.35,9.08,2.07,0,2.75-.5,2.7-2.66-.15-6.11-.05-12.24-.05-18.36,0-9.48,0-9.43-9.72-9.08-1.75.07-2.38.44-2.32,2.28C150.84,541.35,150.75,545.73,150.75,550.1Zm24-.57v6c0,9.52,0,9.46,9.53,9.27,1.9,0,2.56-.44,2.52-2.46-.14-6.12-.05-12.24-.05-18.37,0-9.52,0-9.47-9.53-9.27-1.89,0-2.6.44-2.52,2.46C174.87,541.28,174.75,545.41,174.75,549.53Z" transform="translate(-138.72 -216.72)"/><path d="M318.84,402.69c-.23,6.06-.23,6.06-6.24,6.06H242.87c-9.37,0-14.12,4.68-14.12,13.92q0,57-.07,114c0,3.17.6,4.21,4,4.2q116-.17,232,0c3.43,0,4.06-1,4.05-4.2q-.17-57.17-.07-114.33c0-8.85-4.77-13.53-13.73-13.55-4.12,0-8.26-.2-12.36.07-3.08.19-4.45-.69-3.93-3.89a12.07,12.07,0,0,0-.07-2.24c.22-5.94.23-6,6.13-5.91,5.61.12,11.25-.64,16.81.54,11.07,2.35,19.06,11.62,19.09,22.84q.17,66.54,0,133.08c0,13.34-10.82,23.47-24.56,23.49q-57.36.07-114.71,0H242.83c-16.17,0-26.08-10-26.08-26.17V422.76c0-16,9.94-26,25.86-26h70.1C318.62,396.75,318.62,396.75,318.84,402.69Zm29.87,150.06H313.86c-27.24,0-54.47,0-81.71-.06-3.38,0-3.82,1-2.76,3.92,1.86,5.09,6.35,8.13,12.57,8.13H346.15q54.72,0,109.44,0c5.43,0,9.4-2.16,11.94-6.87,2.29-4.24,1.7-5.16-3-5.16Z" transform="translate(-138.72 -216.72)"/><path class="cls-3" d="M429.78,402.74c.64,10.2.77,20.46,2.05,30.58,2,15.83-9,23.91-20.54,23.6-21.85-.58-43.73-.52-65.58,0-11.67.26-21.24-8.19-20.32-20.88.81-11.06,1.73-22.14,1.61-33.26.73-11.84,1.48-23.68,2.17-35.52q.75-12.72,1.35-25.45c.51-10.77-1-21.45-1.61-32.16-.94-16.47-2.33-32.9-3.28-49.36-.65-11.16,7.34-19.48,18.49-19.5q34.68-.09,69.36,0c11.09,0,19,7.91,18.5,19.06-.93,21.84-1.84,43.7-3.45,65.5A426,426,0,0,0,429.78,402.74Zm-64-64c-2.25-3.74-3.84-6.41-5.45-9.08-4.92-8.19-4.9-8.14,3.43-12.76,1.63-.9,2.51-1,3.47.82,1.45,2.76,3.35,5.29,4.74,8.07,1.53,3.08,2.44,3,4.53.23a17.74,17.74,0,0,1,23.43-4.84,18.34,18.34,0,0,1,7.63,22.18c-.8,2.22-4.19,4.22-2.56,6.2,1.37,1.68,4.83,1.55,7.25,2.5,2.77,1.08,3.23-.17,3.23-2.54,0-3.24.13-6.49.3-9.74,1.41-26.31,2.88-52.61,4.24-78.92.31-6.13-1.76-8.11-7.88-8.11H345.74c-6.34,0-8.55,2.54-8.09,8.74,1,14.06,1.94,28.14,2.88,42.22.55,8.34,1,16.69,1.66,25,.1,1.38-.22,3.18,1.74,3.75C350.84,334.5,357.76,336.47,365.73,338.75Zm26.11,20c2.14,3.6,3.76,6.34,5.4,9.08,5.11,8.49,5.09,8.45-3.77,13-1.4.71-2.12.73-2.93-.75-1.57-2.84-3.47-5.5-5-8.37s-2.35-3.31-4.53-.27a17.5,17.5,0,0,1-23.05,5c-7.94-4.49-11.08-13.66-8-22.3.79-2.25,4.21-4.22,2.6-6.21-1.36-1.68-4.81-1.58-7.24-2.53-2.73-1-3.26.14-3.25,2.54,0,3.25-.13,6.5-.31,9.74-1.4,26.32-2.87,52.63-4.23,78.94-.31,6.14,1.76,8.12,7.87,8.12h66.37c6.33,0,8.54-2.55,8.08-8.75-1-13.95-1.93-27.9-2.86-41.85-.57-8.48-1.06-16.95-1.68-25.42-.1-1.38.19-3.17-1.77-3.73C406.63,363,399.71,361,391.84,358.78Zm-3.37-16c5.5,0,8.25-2.12,8.27-6a6,6,0,0,0-5.92-6c-4-.05-5.82,2.81-6.17,8.11C384.42,342.44,385.81,343.3,388.47,342.76Zm-19.34,12c-5.55,0-8.27,2-8.37,5.85a6,6,0,0,0,6.15,6.15c3.84-.11,5.63-2.85,5.92-8C373,355.47,372.13,354,369.13,354.74Z" transform="translate(-138.72 -216.72)"/><path class="cls-4" d="M192.76,390.63c-6,.3-6,.3-6,6.54,0,32.59-.05,65.19.07,97.79,0,3.13-.74,3.94-3.87,3.87-9.73-.22-19.48-.1-29.22-.07-1.7,0-3,.21-3-2.37q.17-70.06.16-140.13a3.13,3.13,0,0,1,2.44,1.51c10.45,13,23.72,22,39.32,27.72Zm-30,41.82c0,6.3,0,6.3,6.07,6.3s5.93,0,5.93-6.07,0-5.93-6.07-5.93S162.75,426.75,162.75,432.45Zm12,24.6c0-6.3,0-6.3-6.07-6.3s-5.93,0-5.93,6.07,0,5.93,6.07,5.93S174.75,462.75,174.75,457.05Zm0,23.88c0-6.18,0-6.18-6.19-6.18-5.81,0-5.81,0-5.81,5.82,0,6.18,0,6.18,6.19,6.18C174.75,486.75,174.75,486.75,174.75,480.93Z" transform="translate(-138.72 -216.72)"/><path class="cls-5" d="M192.62,385.49c-15.6-5.7-28.87-14.71-39.32-27.72a3.13,3.13,0,0,0-2.44-1.51V344.59c2.38,3.23,4.36,6.15,6.57,8.89a82.77,82.77,0,0,0,33.1,24.76c.78.33,1.51.79,2.26,1.19Q192.72,382.46,192.62,385.49Z" transform="translate(-138.72 -216.72)"/><path class="cls-6" d="M150.75,300.47c0-39.35,32.53-71.8,71.89-71.72,39.69.09,72.09,32.23,72.09,71.52a72,72,0,0,1-72.26,72.45C182.93,372.73,150.76,340.31,150.75,300.47Zm48,.1A24,24,0,1,0,223,276.75,24.07,24.07,0,0,0,198.75,300.57Zm24,48.18c0,6.56,0,6.56,6.79,5.52,25.78-3.95,43.75-22.36,47-48.15.68-5.37.68-5.37-4.6-5.37-1.62,0-3.25.1-4.87,0s-2.25.47-2.44,2.26c-2.22,21.63-15.54,35.91-36.6,39.39C222.75,343.24,222.75,343.24,222.75,348.75Zm0-95.86c0-6.39,0-6.39-4.43-6-24.11,2-44.36,20.3-48.69,43.91-1.88,10.24-1.75,10.33,8.67,10,2-.06,2.42-.63,2.58-2.53,1.81-20.91,15.6-35.65,36.46-39.13C222.75,258.25,222.75,258.25,222.75,252.89Z" transform="translate(-138.72 -216.72)"/><path class="cls-4" d="M168.55,522.75c-5.11,0-10.21-.09-15.32,0-1.95.05-2.48-.53-2.53-2.5-.27-9.54-.34-9.54,9.28-9.54,8,0,16,.09,23.91-.05,2.3,0,2.91.57,2.92,2.89,0,9.16.13,9.16-8.92,9.16Z" transform="translate(-138.72 -216.72)"/><path class="cls-7" d="M348.71,552.75H464.52c4.71,0,5.3.92,3,5.16-2.54,4.71-6.51,6.88-11.94,6.87q-54.72-.09-109.44,0H242c-6.22,0-10.71-3-12.57-8.13-1.06-2.9-.62-3.94,2.76-3.92,27.24.11,54.47.06,81.71.06Z" transform="translate(-138.72 -216.72)"/><path class="cls-8" d="M365.73,338.75c-8-2.28-14.89-4.25-21.8-6.25-2-.57-1.64-2.37-1.74-3.75-.62-8.34-1.11-16.69-1.66-25-.94-14.08-1.85-28.16-2.88-42.22-.46-6.2,1.75-8.74,8.09-8.74h66.35c6.12,0,8.19,2,7.88,8.11-1.36,26.31-2.83,52.61-4.24,78.92-.17,3.25-.3,6.5-.3,9.74,0,2.37-.46,3.62-3.23,2.54-2.42-.95-5.88-.82-7.25-2.5-1.63-2,1.76-4,2.56-6.2a18.34,18.34,0,0,0-7.63-22.18A17.74,17.74,0,0,0,376.45,326c-2.09,2.79-3,2.85-4.53-.23-1.39-2.78-3.29-5.31-4.74-8.07-1-1.81-1.84-1.72-3.47-.82-8.33,4.62-8.35,4.57-3.43,12.76C361.89,332.34,363.48,335,365.73,338.75Z" transform="translate(-138.72 -216.72)"/><path class="cls-8" d="M391.84,358.78c7.87,2.25,14.79,4.22,21.7,6.21,2,.56,1.67,2.35,1.77,3.73.62,8.47,1.11,16.94,1.68,25.42.93,13.95,1.83,27.9,2.86,41.85.46,6.2-1.75,8.75-8.08,8.75H345.4c-6.11,0-8.18-2-7.87-8.12,1.36-26.31,2.83-52.62,4.23-78.94.18-3.24.31-6.49.31-9.74,0-2.4.52-3.59,3.25-2.54,2.43,1,5.88.85,7.24,2.53,1.61,2-1.81,4-2.6,6.21-3,8.64.1,17.81,8,22.3a17.5,17.5,0,0,0,23.05-5c2.18-3,3-2.62,4.53.27s3.39,5.53,5,8.37c.81,1.48,1.53,1.46,2.93.75,8.86-4.51,8.88-4.47,3.77-13C395.6,365.12,394,362.38,391.84,358.78Z" transform="translate(-138.72 -216.72)"/><path class="cls-9" d="M388.47,342.76c-2.66.54-4.05-.32-3.82-3.89.35-5.3,2.21-8.16,6.17-8.11a6,6,0,0,1,5.92,6C396.72,340.64,394,342.74,388.47,342.76Z" transform="translate(-138.72 -216.72)"/><path class="cls-9" d="M369.13,354.74c3-.72,3.89.73,3.7,4-.29,5.13-2.08,7.87-5.92,8a6,6,0,0,1-6.15-6.15C360.86,356.74,363.58,354.75,369.13,354.74Z" transform="translate(-138.72 -216.72)"/><path d="M162.75,432.45c0-5.7,0-5.7,5.93-5.7s6.07,0,6.07,5.93,0,6.07-5.93,6.07S162.75,438.75,162.75,432.45Z" transform="translate(-138.72 -216.72)"/><path d="M174.75,457.05c0,5.7,0,5.7-5.93,5.7s-6.07,0-6.07-5.93,0-6.07,5.93-6.07S174.75,450.75,174.75,457.05Z" transform="translate(-138.72 -216.72)"/><path d="M174.75,480.93c0,5.82,0,5.82-5.81,5.82-6.19,0-6.19,0-6.19-6.18,0-5.82,0-5.82,5.81-5.82C174.75,474.75,174.75,474.75,174.75,480.93Z" transform="translate(-138.72 -216.72)"/><path class="cls-10" d="M198.75,300.57a24,24,0,1,1,23.53,24.18A24.06,24.06,0,0,1,198.75,300.57Zm24.17,12.16a12,12,0,1,0-12.16-12A12,12,0,0,0,222.92,312.73Z" transform="translate(-138.72 -216.72)"/><path class="cls-11" d="M222.75,348.75c0-5.51,0-5.51,5.27-6.38,21.06-3.48,34.38-17.76,36.6-39.39.19-1.79.7-2.39,2.44-2.26s3.25,0,4.87,0c5.28,0,5.28,0,4.6,5.37-3.24,25.79-21.21,44.2-47,48.15C222.75,355.31,222.75,355.31,222.75,348.75Z" transform="translate(-138.72 -216.72)"/><path class="cls-10" d="M222.75,252.89c0,5.36,0,5.36-5.41,6.26-20.86,3.48-34.65,18.22-36.46,39.13-.16,1.9-.62,2.47-2.58,2.53-10.42.31-10.55.22-8.67-10,4.33-23.61,24.58-41.88,48.69-43.91C222.75,246.5,222.75,246.5,222.75,252.89Z" transform="translate(-138.72 -216.72)"/></svg>