<svg id="Layer_1" data-name="Layer 1" xmlns="http://www.w3.org/2000/svg" viewBox="0 0 409.69 324.49"><defs><style>.cls-1{fill:#040403;}.cls-2{fill:#fbc04f;}.cls-3{fill:#fbce63;}.cls-4{fill:#6d636f;}.cls-5{fill:#fbce62;}.cls-6{fill:#5b525e;}.cls-7{fill:#f7bd4e;}.cls-8{fill:#5b515d;}.cls-9{fill:#fabf4e;}.cls-10{fill:#f7cb61;}.cls-11{fill:#070603;}.cls-12{fill:#020202;}.cls-13{fill:#090703;}</style></defs><title>machines</title><path class="cls-1" d="M388.36,313.75c.9,5,.19,6.58-4.48,8.86-18,8.8-36.06,17.61-54.15,26.27a7.87,7.87,0,0,0-4.85,6.07c-1.27,6.25-2.81,12.45-4.4,18.63a8.82,8.82,0,0,0,.16,5c5.05,16.66,10,33.35,15,50a52.8,52.8,0,0,1,2.45,16.5c-.12,7.6,0,15.2-.05,22.8-.09,9.22-4.9,14-14.07,14.17-5.07.07-10.14.12-15.2,0-2.34-.07-2.85.78-2.9,3-.24,10.72-.31,10.69,10.36,10.73,8.13,0,16.27-.19,24.38.25,16.43.9,29,14.32,29.51,31,.47,15.67-12,29.76-28.05,31.52a75.32,75.32,0,0,1-8.36.5q-99,0-198,0c-14,0-24.62-5.58-31.15-18.33-1.19-2.33-1-5.2-3-7.14V520.8c2.33-2.49,2.33-6,4.07-8.84,5.83-9.52,14-15.35,25.22-15.9,10.5-.52,21.05-.35,31.58-.24,2.71,0,3.43-.81,3.24-3.35-.26-3.3,1-7.59-.64-9.66s-6.21-.52-9.48-.69c-3.86-.2-7.74,0-11.57-.38-9.14-.94-16.34-7.88-16.58-17.06-.42-15.85-.47-31.73,0-47.58.32-10.83,9-17.65,21.14-17.66,36.13,0,72.26-.07,108.39.08,3.85,0,5.43-.64,5-4.87-.44-4.49-.12-9.06-.09-13.59,0-6.42,2.94-11,9.12-13,2-.65,2.19-2,2.64-3.52,3.44-11.31,7.08-22.57,10.25-34,2.44-8.81,7.84-14.37,16.24-17.73,34.54-13.8,69-27.85,103.52-41.63,3.16-1.26,4.13-3,4.29-6.14.31-5.84.87-11.67,1.58-17.48.5-4.14,3-7,6.74-8.76a55.27,55.27,0,0,1,12.08-4c6.24-1.26,12.15,2.76,14.05,9.59,3.31,11.91,6.45,23.86,9.68,35.8q24,88.92,48.05,177.84a16.32,16.32,0,0,0,3.21,5.86c8.46,10.77,10.29,22.8,5,35.26C503.06,511.42,493.48,519,479.91,520c-17,1.38-34.1.37-51.16.5-4.34,0-6.88-2.66-6.72-6.26s2.59-5.51,6.84-5.69c7.92-.34,7.92-.34,10.47-8q7.19-21.57,14.38-43.12c.94-2.78,1.81-5.52,5.23-6.48,2.3-.64.51-2.28.19-3.23-5.24-15.62-10.59-31.2-15.9-46.79q-15-44-29.87-87.93c-.94-2.79-1.62-4.4-5-2.46s-6.14.52-8.36-2.32c-.89-5.16-.1-6.74,4.74-9.12,6.21-3.05,12.47-6,18.64-9.09,4.06-2.06,5.42-5.41,3.86-8.82s-4.93-4.73-9.13-3q-57.87,23.29-115.69,46.71a10.27,10.27,0,0,0-6.33,6.75c-3.35,11.06-6.61,22.16-10,33.2-.64,2.07-.2,2.54,1.83,2.52,6.26-.08,12.53-.17,18.78,0,2.45.08,3.21-.95,3.68-3,1.28-5.71,2.79-11.36,4-17.08a9.64,9.64,0,0,1,5.71-7.12c19.52-9.38,39-18.89,58.5-28.31C383.37,309.6,384.88,310,388.36,313.75ZM204,476c1.52-4.9,2.92-5.87,8.82-5.87H315.91c10.46,0,10.36,0,10.27-10.5,0-2.72-.92-3.33-3.46-3.32-11.32,0-22.63-.09-33.94-.16-5.92-1.33-9.56-5.9-14-9.47-10.11-8.14-14.72-18.23-12.91-31.14.47-3.35-.87-4.16-4.16-4.15-36.24.12-72.48.07-108.71.07-.8,0-1.61,0-2.4,0-4.81.46-7.31,2.91-7.33,7.76-.07,12.52,0,25,.09,37.56-.64,11.63.93,13.32,12.45,13.32,10.38,0,20.76,0,31.15,0,4.12,0,7,1.4,7.56,5.87-.27,4.37-3.21,5.8-7,6.25-5.89.7-5.9.67-5.9,6.46a15.88,15.88,0,0,1,0,2.39C177,495,178.7,496,182.51,496c34.12-.14,68.24-.08,102.36-.08,8.93,0,8.74,0,9-9.06.1-3.73-1.06-4.66-4.69-4.64-25.33.16-50.65.09-76,.08C207.35,482.24,205.7,481.08,204,476Zm109.31,71c-2-3.76-4.25-6.94-5.18-10.7-2.23-9-1.44-17.71,3.64-25.7,1.32-2.09,1-2.83-1.45-2.69-.66,0-1.33,0-2,0q-72.75,0-145.5,0c-1.28,0-2.62-.36-4.12.48,3.67,5.83,6.15,12,6.15,19s-2.58,13.37-6.48,19.57ZM486,451.73q-22.81-84.37-45.54-168.4l-1.3.18A14.3,14.3,0,0,1,438,292c-2.51,4.94-6.59,8-11.55,9.89-3,1.16-3.5,2.56-2.44,5.61,8.8,25.36,17.42,50.78,26.09,76.19q10.89,31.88,21.76,63.77c.48,1.41.4,3.22,2.72,3.33C478.23,451,481.9,451.39,486,451.73ZM274.18,404.08v8.39c0,17,0,17,12.28,28.8a9.58,9.58,0,0,0,7.12,2.93c8.79-.08,17.58,0,26.37,0,6.33,0,6.5-.2,5.65-6.5a12.86,12.86,0,0,0-.45-1.93q-8-26.75-15.94-53.48c-.62-2.1-1.58-3-3.89-3q-14,.17-28,0c-2.43,0-3.25.82-3.22,3.24C274.26,389.7,274.18,396.89,274.18,404.08ZM463.76,508.59c3.87,0,7.74.1,11.6,0,12.1-.38,20.78-7.2,23.22-18.12a22.64,22.64,0,0,0-12.34-25.29c-6.52-3.24-13.55-2.17-20.43-2.28-1.34,0-1.58,1.14-1.93,2.19-4.55,13.75-9.1,27.51-13.75,41.24-.63,1.86-.22,2.34,1.63,2.3C455.76,508.54,459.76,508.59,463.76,508.59Zm-330.7-.77a19.63,19.63,0,0,0-19.44,19.63,19.6,19.6,0,1,0,39.2-.39A19.5,19.5,0,0,0,133.06,507.82ZM319,527.17A19.65,19.65,0,0,0,338.22,547c10.61.26,20-9,19.94-19.67a19.67,19.67,0,0,0-19.57-19.51A19.36,19.36,0,0,0,319,527.17ZM437.92,274q-3-11.12-5.94-22.23c-1.42-5.35-1.45-5.46-6.63-3.54-1.67.62-4.27.25-4.47,3.13-.28,4-.57,8-.9,12-.11,1.4.14,2.25,1.86,2.26C428.58,265.56,433.6,268.81,437.92,274Z" transform="translate(-101.6 -234.59)"/><path class="cls-2" d="M388.36,313.75c-3.48-3.8-5-4.15-9.74-1.86-19.51,9.42-39,18.93-58.5,28.31a9.64,9.64,0,0,0-5.71,7.12c-1.24,5.72-2.75,11.37-4,17.08-.47,2.09-1.23,3.12-3.68,3-6.25-.21-12.52-.12-18.78,0-2,0-2.47-.45-1.83-2.52,3.43-11,6.69-22.14,10-33.2a10.27,10.27,0,0,1,6.33-6.75q57.84-23.37,115.69-46.71c4.2-1.7,7.54-.44,9.13,3s.2,6.76-3.86,8.82c-6.17,3.11-12.43,6-18.64,9.09-4.84,2.38-5.63,4-4.74,9.12Z" transform="translate(-101.6 -234.59)"/><path class="cls-3" d="M139.36,456.79c0-12.52-.16-25-.09-37.56,0-4.85,2.52-7.3,7.33-7.76.79-.07,1.6,0,2.4,0,36.23,0,72.47.05,108.71-.07,3.29,0,4.63.8,4.16,4.15-1.81,12.91,2.8,23,12.91,31.14,4.44,3.57,8.08,8.14,14,9.47-1.13,1.07-2.53.66-3.82.66Zm38.84-19.65c5.85,0,11.71.06,17.56,0,4.9-.06,7.41-2.09,7.49-5.83s-2.46-6.14-7.21-6.18q-18-.14-35.92,0c-4.41,0-7.09,2.42-7.2,5.89s2.72,6,7.32,6.1C166.22,437.21,172.21,437.14,178.2,437.14Z" transform="translate(-101.6 -234.59)"/><path class="cls-4" d="M313.33,546.94H158.39c3.9-6.2,6.48-12.44,6.48-19.57s-2.48-13.19-6.15-19c1.5-.84,2.84-.48,4.12-.48q72.75,0,145.5,0c.67,0,1.34,0,2,0,2.43-.14,2.77.6,1.45,2.69-5.08,8-5.87,16.66-3.64,25.7C309.08,540,311.32,543.18,313.33,546.94Zm-77.66-25.47q-24.58,0-49.17,0c-5.1,0-7.85,2.08-7.93,5.85s2.9,6,7.87,6.14c.4,0,.8,0,1.2,0q48.38,0,96.75,0a13.24,13.24,0,0,0,4.72-.63c2.91-1.09,4.11-3.23,3.77-6.26a5.24,5.24,0,0,0-4.85-5,26.53,26.53,0,0,0-4-.14Z" transform="translate(-101.6 -234.59)"/><path class="cls-5" d="M486,451.73c-4.12-.34-7.79-.75-11.46-.93-2.32-.11-2.24-1.92-2.72-3.33q-10.9-31.87-21.76-63.77c-8.67-25.41-17.29-50.83-26.09-76.19-1.06-3.05-.6-4.45,2.44-5.61,5-1.89,9-4.95,11.55-9.89a14.3,14.3,0,0,0,1.2-8.5l1.3-.18Q463.22,367.45,486,451.73Z" transform="translate(-101.6 -234.59)"/><path class="cls-6" d="M274.18,404.08c0-7.19.08-14.38,0-21.57,0-2.42.79-3.27,3.22-3.24q14,.15,28,0c2.31,0,3.27.89,3.89,3q7.91,26.76,15.94,53.48a12.86,12.86,0,0,1,.45,1.93c.85,6.3.68,6.5-5.65,6.5-8.79,0-17.58-.05-26.37,0a9.58,9.58,0,0,1-7.12-2.93c-12.25-11.84-12.28-11.81-12.28-28.8Z" transform="translate(-101.6 -234.59)"/><path class="cls-7" d="M139.36,456.79H285c1.29,0,2.69.41,3.82-.66,11.31.07,22.62.21,33.94.16,2.54,0,3.43.6,3.46,3.32.09,10.5.19,10.5-10.27,10.5H212.84c-5.9,0-7.3,1-8.82,5.87l-13.5,0c-.57-4.47-3.44-5.89-7.56-5.87-10.39.05-20.77,0-31.15,0C140.29,470.11,138.72,468.42,139.36,456.79Z" transform="translate(-101.6 -234.59)"/><path class="cls-2" d="M463.76,508.59c-4,0-8,0-12,0-1.85,0-2.26-.44-1.63-2.3,4.65-13.73,9.2-27.49,13.75-41.24.35-1.05.59-2.21,1.93-2.19,6.88.11,13.91-1,20.43,2.28a22.64,22.64,0,0,1,12.34,25.29c-2.44,10.92-11.12,17.74-23.22,18.12C471.5,508.69,467.63,508.59,463.76,508.59Z" transform="translate(-101.6 -234.59)"/><path class="cls-8" d="M190.52,476l13.5,0c1.68,5.1,3.33,6.26,9.17,6.27,25.32,0,50.64.08,76-.08,3.63,0,4.79.91,4.69,4.64-.24,9.05-.05,9.06-9,9.06-34.12,0-68.24-.06-102.36.08-3.81,0-5.49-1-4.87-4.89a15.88,15.88,0,0,0,0-2.39c0-5.79,0-5.76,5.9-6.46C187.31,481.76,190.25,480.33,190.52,476Z" transform="translate(-101.6 -234.59)"/><path class="cls-9" d="M133.06,507.82a19.5,19.5,0,0,1,19.76,19.24,19.6,19.6,0,1,1-19.76-19.24Zm6.13,19.42a5.87,5.87,0,0,0-6.25-5.74,6,6,0,0,0-5.67,6,6.34,6.34,0,0,0,5.92,5.87A6.08,6.08,0,0,0,139.19,527.24Z" transform="translate(-101.6 -234.59)"/><path class="cls-2" d="M319,527.17a19.36,19.36,0,0,1,19.61-19.34,19.67,19.67,0,0,1,19.57,19.51c0,10.71-9.33,19.93-19.94,19.67A19.65,19.65,0,0,1,319,527.17Zm25.48.06a5.84,5.84,0,0,0-6.26-5.73,5.72,5.72,0,0,0-5.56,6,5.93,5.93,0,0,0,6.2,5.83A6.11,6.11,0,0,0,344.46,527.23Z" transform="translate(-101.6 -234.59)"/><path class="cls-10" d="M437.92,274c-4.32-5.17-9.34-8.42-16.08-8.43-1.72,0-2-.86-1.86-2.26.33-4,.62-8,.9-12,.2-2.88,2.8-2.51,4.47-3.13,5.18-1.92,5.21-1.81,6.63,3.54Q434.93,262.87,437.92,274Z" transform="translate(-101.6 -234.59)"/><path class="cls-11" d="M178.2,437.14c-6,0-12,.07-18,0-4.6-.07-7.42-2.52-7.32-6.1s2.79-5.86,7.2-5.89q18-.17,35.92,0c4.75,0,7.29,2.39,7.21,6.18s-2.59,5.77-7.49,5.83C189.91,437.2,184.05,437.14,178.2,437.14Z" transform="translate(-101.6 -234.59)"/><path class="cls-12" d="M235.67,521.47H284a26.53,26.53,0,0,1,4,.14,5.24,5.24,0,0,1,4.85,5c.34,3-.86,5.17-3.77,6.26a13.24,13.24,0,0,1-4.72.63q-48.37,0-96.75,0c-.4,0-.8,0-1.2,0-5-.16-7.94-2.49-7.87-6.14s2.83-5.85,7.93-5.85Q211.08,521.45,235.67,521.47Z" transform="translate(-101.6 -234.59)"/><path class="cls-13" d="M139.19,527.24a6.08,6.08,0,0,1-6,6.1,6.34,6.34,0,0,1-5.92-5.87,6,6,0,0,1,5.67-6A5.87,5.87,0,0,1,139.19,527.24Z" transform="translate(-101.6 -234.59)"/><path class="cls-13" d="M344.46,527.23a6.11,6.11,0,0,1-5.62,6.07,5.93,5.93,0,0,1-6.2-5.83,5.72,5.72,0,0,1,5.56-6A5.84,5.84,0,0,1,344.46,527.23Z" transform="translate(-101.6 -234.59)"/></svg>