<svg id="Layer_1" data-name="Layer 1" xmlns="http://www.w3.org/2000/svg" viewBox="0 0 372.01 372.07"><defs><style>.cls-1{fill:#020202;}.cls-2{fill:#040303;}.cls-3{fill:#030303;}.cls-4{fill:#b07845;}.cls-5{fill:#eecfb3;}.cls-6{fill:#b3db7e;}.cls-7{fill:#fb806c;}.cls-8{fill:#edcdb2;}.cls-9{fill:#c6cad2;}.cls-10{fill:#eacbb0;}.cls-11{fill:#e3e6ea;}.cls-12{fill:#f9d46f;}.cls-13{fill:#f9d56f;}.cls-14{fill:#f27b68;}</style></defs><title>outsourcing</title><path class="cls-1" d="M306.47,582.75c-30.62,0-61.24,0-91.87.07-2.93,0-4-.42-3.94-3.72.19-17.5.06-35,.09-52.5.05-24.7,15-43.74,39-49.72,8.7-2.17,17.38-4.45,26.1-6.57,4.3-1,3.16-5.14,4.58-7.77,1.05-1.94-1.1-2.43-2.2-3.26a46.67,46.67,0,0,1-14.61-17.75c-1-2.14-2.05-2.82-4.4-2.84-18.41-.18-29.5-17.65-21.87-34.4a5.6,5.6,0,0,0,.09-4.6c-5.35-15-2.73-28.47,8.13-40.19a6.31,6.31,0,0,0,1.5-3.67c3.75-22.93,20.35-37.06,43.56-37.08q18,0,36,0c14.79,0,25.47,9,27.8,23.57a5.07,5.07,0,0,0,3,4.17A40.73,40.73,0,0,1,375.64,398a5.6,5.6,0,0,0,.13,5.45,23.78,23.78,0,0,1-20.93,35.21c-2.8,0-4.09.88-5.24,3.36a43.61,43.61,0,0,1-14.83,17.53c-1.76,1.24-1.89,2.26-1.42,4.29,1,4.34,3.06,6.52,7.75,7.41,8.8,1.67,17.47,4.09,26.09,6.55a49.15,49.15,0,0,1,35.49,46.36c.23,18.62,0,37.25.16,55.87,0,3-1.43,2.74-3.38,2.74Q353,582.74,306.47,582.75Zm1.06-252v0c-6.49,0-13-.11-19.49,0-15.19.29-28.16,12.29-29.07,27.4a12.77,12.77,0,0,1-4.32,9.29c-6.39,6.1-8.86,13.68-7.52,22.47.35,2.36,1,3.7,3.76,2.32a14.59,14.59,0,0,1,6.9-1.46c1.67.06,2.35-.77,3.06-2.11,3.62-6.83,9.4-10,17.1-10q28.86.07,57.72,0c7.71,0,13.45,3.22,17,10.07.62,1.18,1.19,2.06,2.75,2a16.92,16.92,0,0,1,7,1.31c1.87.73,2.58.1,3.19-1.71,3.66-11-1.48-25.46-11.29-31.76-1.61-1-2.42-1-3.45.79a25.55,25.55,0,0,1-10.74,10.16c-7.2,3.72-7.2,3.71-9.77-3.94a5.27,5.27,0,0,0-.25-.7c-1.5-2.88-.68-4.18,2.5-5.26a14.72,14.72,0,0,0,9.95-16.48c-1.43-7.46-7.35-12.36-15.15-12.43C320.78,330.71,314.16,330.75,307.53,330.75Zm-.64,60c-9.75,0-19.49,0-29.24,0-4.5,0-6.84,2.22-6.87,6.57-.07,8.49-.25,17,.09,25.49.7,17.82,15.65,32.77,33.49,33.84,18.33,1.1,34.79-11.68,37.69-29.48,1.58-9.68.45-19.46.66-29.19.11-5.1-2.15-7.22-7.32-7.24C325.89,390.73,316.39,390.75,306.89,390.75Zm-10.06,180c.4-1.62-.51-2.63-1-3.73Q280,531.28,264.08,495.56c-4.14-9.32-4.13-9.32-14-6.43-15.32,4.48-26.66,18-27.15,33.61-.49,15.23-.12,30.49-.2,45.74,0,1.83.58,2.33,2.34,2.3,6.5-.09,13-.1,19.5,0,1.94,0,2.23-.77,2.22-2.43-.07-10.13,0-20.25-.08-30.37,0-4.14-1.73-7.69-4.23-11-1.71-2.26-5.86-3.61-5-6.6.75-2.54,4-4.29,6-6.5,1.17-1.27,1.9-.93,3,.08,8.05,7.23,12.6,15.9,12.25,27-.28,9-.07,18-.05,27,0,1.26-.53,2.8,1.81,2.79C272.67,570.71,284.77,570.74,296.83,570.74Zm19.87,0c12,0,24.12,0,36.21,0,2.33,0,1.83-1.49,1.83-2.77,0-9.87,0-19.75,0-29.62a29.26,29.26,0,0,1,7.48-19.51c5.92-6.79,5.85-6.69,12.25-.52,2.08,2,2.36,3.26,0,5.21-4.45,3.72-7.66,8.31-7.72,14.39-.11,10.12,0,20.25-.09,30.37,0,2.06.69,2.49,2.57,2.46,6.25-.11,12.51-.18,18.75,0,2.55.09,2.77-1,2.76-3-.08-14.37,0-28.75-.09-43.12a36.68,36.68,0,0,0-8-22.53c-6.54-8.51-15.61-12.44-25.75-14.73-2.67-.6-3.86-.34-5,2.3-11.39,25.92-22.94,51.77-34.4,77.65C317.08,568.31,316.23,569.23,316.7,570.74Zm-10-8.79c4.64-10.43,8.87-20,13.14-29.47a5.06,5.06,0,0,0,.08-3.28c-1.35-6.59-2.67-13.19-4-19.77-.73-3.5-.11-8.47-2.64-10.09s-7.23-.44-11-.62c-1.93-.09-2.79.39-3.18,2.53-1.75,9.43-3.75,18.81-5.66,28.21a5,5,0,0,0,.27,3.26C298,542.14,302.14,551.58,306.74,562Zm0-75.65c7.09,2.53,11.05-1.09,13.8-7a3.78,3.78,0,0,1,.82-1.24c3.24-3,2.52-6.31,1-9.82-.58-1.36-1-1.83-2.68-1.36a45.21,45.21,0,0,1-25.82-.06c-1.68-.51-2.06.12-2.69,1.41-1.8,3.7-1.26,6.69,1.12,10.21C295.87,483.83,298.82,489.38,306.7,486.3Zm-22,26.06c.76-3.82.94-6.76,1.94-9.38,2.45-6.4.79-11.58-3.31-16.76-3.86-4.9-3.66-5.14-9.55-3.12-1.39.47-1.71.95-1.06,2.38C276.61,494.06,280.4,502.68,284.7,512.36Zm44.11,0,10.26-23.07c2.65-5.95,2.62-5.85-3.66-7.19a2.59,2.59,0,0,0-3.28,1.38c-1.85,2.94-3.78,5.85-5.81,8.68a4.93,4.93,0,0,0-.77,4.22C326.58,501.33,327.59,506.32,328.81,512.32Zm-69.92-97.47h-.14c0-3.36-.07-6.72,0-10.08.05-1.63-.39-2.17-2.1-1.91-5.42.83-9.93,6.15-9.93,11.89a12.34,12.34,0,0,0,9.94,11.88c1.78.28,2.4-.11,2.26-2.09C258.72,421.32,258.89,418.08,258.89,414.85Zm95.86.21h-.13c0,3.11.19,6.23-.06,9.32-.18,2.18.52,2.57,2.46,2.2a12.06,12.06,0,0,0,.31-23.59c-1.8-.41-2.77-.3-2.63,2C354.89,408.34,354.75,411.71,354.75,415.06Z" transform="translate(-120.75 -210.75)"/><path class="cls-2" d="M192.57,354.75A72,72,0,1,1,264.75,283,72.13,72.13,0,0,1,192.57,354.75Zm49.94-38.93c16.8-23.19,12.39-58-9.56-77.55-23.5-21-58.06-20.71-81,.61-23.23,21.55-24.17,55.39-8.91,76.89a54.81,54.81,0,0,1,29.1-29c-12.09-15.24-12.34-31-.91-42.82a29.83,29.83,0,0,1,39.55-3.14A29,29,0,0,1,221.94,258c2.55,11.12-1,20.57-8.66,28.79A54.7,54.7,0,0,1,242.51,315.82Zm-26.74-14.11c-4.14,10.31-11.17,16.52-22.06,16.93S175,313.55,170.58,303.5c-1-2.38-2-1.07-2.94-.34a41.76,41.76,0,0,0-15,21.39,3,3,0,0,0,1,3.55c20.06,19.29,58,19.32,78.22,0,1-.92,1.63-1.66,1.16-3.18A42.14,42.14,0,0,0,215.77,301.71Zm-22.89-54.95a18,18,0,1,0,17.86,18.3A18.06,18.06,0,0,0,192.88,246.76Zm-.2,48a44.87,44.87,0,0,0-9.65,1.13c-1.85.35-2.09,1.16-1.55,2.82a11.92,11.92,0,0,0,22.44.24c.56-1.62.6-2.75-1.59-3.11A49,49,0,0,0,192.68,294.76Z" transform="translate(-120.75 -210.75)"/><path class="cls-2" d="M420.68,210.75a72,72,0,1,1-71.93,72A72.11,72.11,0,0,1,420.68,210.75Zm20.7,76.06a56.32,56.32,0,0,1,17.47,11.71,57.94,57.94,0,0,1,11.67,17.24c15.77-22.36,14-57.32-10.9-78.65a59.89,59.89,0,0,0-82.06,4c-22.54,23.41-20,57-6.46,74.42a56.11,56.11,0,0,1,11.75-17.25,57.41,57.41,0,0,1,17.2-11.51c-12.51-16.71-12.19-32.78.68-44.36a29.9,29.9,0,0,1,40.52.44C453.7,254.58,453.85,270.89,441.38,286.81Zm-20.49,56a60.73,60.73,0,0,0,38.3-14c1.83-1.51,2.22-2.83,1.43-5.09a43.48,43.48,0,0,0-16.38-21.76c-1.95-1.37-3.06-1.21-4.68.47-5.55,5.76-11.32,11.3-16.89,17-1.48,1.52-2.32,1.57-3.82,0-5.65-5.83-11.51-11.47-17.16-17.3-1.43-1.47-2.45-1.53-4.09-.42a42.88,42.88,0,0,0-16.72,21.94c-.79,2.26-.4,3.58,1.43,5.08A60.54,60.54,0,0,0,420.89,342.79Zm17.85-78a18,18,0,1,0-18.26,17.92A18.08,18.08,0,0,0,438.74,264.82Zm-26.69,31.06,7.27,6.95c.73.69,1.29,1.48,2.45.43,2.54-2.3,5.2-4.47,7.81-6.69A28.86,28.86,0,0,0,412.05,295.88Z" transform="translate(-120.75 -210.75)"/><path d="M189.75,456.75c12,0,24,.07,36-.06,2.44,0,3.09.61,3.07,3.06-.05,9,.05,9-9.07,9-17.87,0-35.74.07-53.61-.07-2.81,0-3.47.65-3.45,3.45.13,19.75,0,39.49.14,59.24,0,2.8-.64,3.51-3.45,3.46-8.62-.18-8.62,0-8.62-8.72,0-22,.06-44-.07-66,0-2.81.65-3.49,3.45-3.45C166,456.85,177.88,456.75,189.75,456.75Z" transform="translate(-120.75 -210.75)"/><path d="M423.75,456.75c12,0,24,.07,36-.06,2.45,0,3.08.62,3.07,3.07q-.15,36,0,72c0,2.44-.61,3.09-3.06,3.07-9,0-9,.05-9-9.07,0-17.87-.07-35.74.07-53.61,0-2.8-.65-3.47-3.45-3.45-19.74.13-39.49,0-59.24.14-2.79,0-3.51-.63-3.46-3.45.18-8.62,0-8.62,8.71-8.62Z" transform="translate(-120.75 -210.75)"/><path d="M426.75,418c0,8-.1,16,.06,24,.05,2.38-.64,2.87-2.91,2.84q-18.18-.17-36.36,0c-2.37,0-2.85-.64-2.85-2.9,0-9.16-.08-9.16,8.91-9.16,6.12,0,12.25-.13,18.36.06,2.39.08,2.87-.65,2.85-2.91-.12-12,0-24-.13-36,0-2.67.7-3.26,3.29-3.23,8.78.12,8.78,0,8.78,8.92Z" transform="translate(-120.75 -210.75)"/><path d="M186.75,417.51c0-7.88.13-15.75-.07-23.62-.07-2.72.77-3.24,3.31-3.21,8.76.12,8.76,0,8.76,8.94,0,10,.11,20-.07,30-.05,2.72.77,3.26,3.32,3.2,7.87-.17,15.74.07,23.61-.13,2.72-.07,3.24.77,3.2,3.32-.11,8.75,0,8.75-8.94,8.75-10,0-20-.11-30,.07-2.72.05-3.25-.78-3.19-3.32C186.86,433.5,186.75,425.5,186.75,417.51Z" transform="translate(-120.75 -210.75)"/><path class="cls-3" d="M156.7,546.76a18,18,0,1,1-17.94,17.85A18,18,0,0,1,156.7,546.76Zm6,18.13a6,6,0,1,0-6,5.85A6,6,0,0,0,162.73,564.89Z" transform="translate(-120.75 -210.75)"/><path class="cls-3" d="M474.74,564.87a18,18,0,1,1-17.68-18.11A18.06,18.06,0,0,1,474.74,564.87Zm-18.28,5.87a6,6,0,1,0-5.7-6.19A6.07,6.07,0,0,0,456.46,570.74Z" transform="translate(-120.75 -210.75)"/><path d="M192.9,366.75c5.85,0,5.85,0,5.85,5.78,0,6.22,0,6.22-6.15,6.22-5.85,0-5.85,0-5.85-5.78C186.75,366.75,186.75,366.75,192.9,366.75Z" transform="translate(-120.75 -210.75)"/><path d="M420.88,366.75c5.87,0,5.87,0,5.87,5.75,0,6.25,0,6.25-6.13,6.25-5.87,0-5.87,0-5.87-5.75C414.75,366.75,414.75,366.75,420.88,366.75Z" transform="translate(-120.75 -210.75)"/><path class="cls-4" d="M307.53,330.75c6.63,0,13.25,0,19.87,0,7.8.07,13.72,5,15.15,12.43a14.72,14.72,0,0,1-9.95,16.48c-3.18,1.08-4,2.38-2.5,5.26a5.27,5.27,0,0,1,.25.7c2.57,7.65,2.57,7.66,9.77,3.94a25.55,25.55,0,0,0,10.74-10.16c1-1.8,1.84-1.83,3.45-.79,9.81,6.3,14.95,20.79,11.29,31.76-.61,1.81-1.32,2.44-3.19,1.71a16.92,16.92,0,0,0-7-1.31c-1.56.08-2.13-.8-2.75-2-3.59-6.85-9.33-10.08-17-10.07q-28.86,0-57.72,0c-7.7,0-13.48,3.14-17.1,10-.71,1.34-1.39,2.17-3.06,2.11a14.59,14.59,0,0,0-6.9,1.46c-2.8,1.38-3.41,0-3.76-2.32-1.34-8.79,1.13-16.37,7.52-22.47a12.77,12.77,0,0,0,4.32-9.29c.91-15.11,13.88-27.11,29.07-27.4,6.5-.13,13,0,19.49,0Z" transform="translate(-120.75 -210.75)"/><path class="cls-5" d="M306.89,390.75c9.5,0,19,0,28.5,0,5.17,0,7.43,2.14,7.32,7.24-.21,9.73.92,19.51-.66,29.19-2.9,17.8-19.36,30.58-37.69,29.48-17.84-1.07-32.79-16-33.49-33.84-.34-8.49-.16-17-.09-25.49,0-4.35,2.37-6.55,6.87-6.57C287.4,390.72,297.14,390.75,306.89,390.75Z" transform="translate(-120.75 -210.75)"/><path class="cls-6" d="M296.83,570.74c-12.06,0-24.16,0-36.26,0-2.34,0-1.8-1.53-1.81-2.79,0-9-.23-18,.05-27,.35-11.1-4.2-19.77-12.25-27-1.13-1-1.86-1.35-3-.08-2,2.21-5.28,4-6,6.5-.89,3,3.26,4.34,5,6.6,2.5,3.29,4.19,6.84,4.23,11,.09,10.12,0,20.24.08,30.37,0,1.66-.28,2.46-2.22,2.43-6.5-.11-13-.1-19.5,0-1.76,0-2.35-.47-2.34-2.3.08-15.25-.29-30.51.2-45.74.49-15.6,11.83-29.13,27.15-33.61,9.88-2.89,9.87-2.89,14,6.43Q280,531.29,295.83,567C296.32,568.11,297.23,569.12,296.83,570.74Z" transform="translate(-120.75 -210.75)"/><path class="cls-6" d="M316.7,570.74c-.47-1.51.38-2.43.82-3.41,11.46-25.88,23-51.73,34.4-77.65,1.17-2.64,2.36-2.9,5-2.3,10.14,2.29,19.21,6.22,25.75,14.73a36.68,36.68,0,0,1,8,22.53c.13,14.37,0,28.75.09,43.12,0,2.08-.21,3.14-2.76,3-6.24-.2-12.5-.13-18.75,0-1.88,0-2.6-.4-2.57-2.46.11-10.12,0-20.25.09-30.37.06-6.08,3.27-10.67,7.72-14.39,2.34-2,2.06-3.2,0-5.21-6.4-6.17-6.33-6.27-12.25.52a29.26,29.26,0,0,0-7.48,19.51c-.07,9.87,0,19.75,0,29.62,0,1.28.5,2.78-1.83,2.77C340.82,570.71,328.72,570.74,316.7,570.74Z" transform="translate(-120.75 -210.75)"/><path class="cls-7" d="M306.74,562c-4.6-10.37-8.77-19.81-13-29.23a5,5,0,0,1-.27-3.26c1.91-9.4,3.91-18.78,5.66-28.21.39-2.14,1.25-2.62,3.18-2.53,3.73.18,8.28-1.1,11,.62s1.91,6.59,2.64,10.09c1.38,6.58,2.7,13.18,4,19.77a5.06,5.06,0,0,1-.08,3.28C315.61,542,311.38,551.52,306.74,562Z" transform="translate(-120.75 -210.75)"/><path class="cls-8" d="M306.7,486.3c-7.88,3.08-10.83-2.47-14.43-7.82-2.38-3.52-2.92-6.51-1.12-10.21.63-1.29,1-1.92,2.69-1.41a45.21,45.21,0,0,0,25.82.06c1.66-.47,2.1,0,2.68,1.36,1.5,3.51,2.22,6.83-1,9.82a3.78,3.78,0,0,0-.82,1.24C317.75,485.21,313.79,488.83,306.7,486.3Z" transform="translate(-120.75 -210.75)"/><path class="cls-9" d="M284.7,512.36c-4.3-9.68-8.09-18.3-12-26.88-.65-1.43-.33-1.91,1.06-2.38,5.89-2,5.69-1.78,9.55,3.12,4.1,5.18,5.76,10.36,3.31,16.76C285.64,505.6,285.46,508.54,284.7,512.36Z" transform="translate(-120.75 -210.75)"/><path class="cls-9" d="M328.81,512.32c-1.22-6-2.23-11-3.26-16a4.93,4.93,0,0,1,.77-4.22c2-2.83,4-5.74,5.81-8.68a2.59,2.59,0,0,1,3.28-1.38c6.28,1.34,6.31,1.24,3.66,7.19Z" transform="translate(-120.75 -210.75)"/><path class="cls-10" d="M258.89,414.85c0,3.23-.17,6.47.06,9.69.14,2-.48,2.37-2.26,2.09a12.34,12.34,0,0,1-9.94-11.88c0-5.74,4.51-11.06,9.93-11.89,1.71-.26,2.15.28,2.1,1.91-.1,3.36,0,6.72,0,10.08Z" transform="translate(-120.75 -210.75)"/><path class="cls-10" d="M354.75,415.06c0-3.35.14-6.72-.05-10.06-.14-2.31.83-2.42,2.63-2a12.06,12.06,0,0,1-.31,23.59c-1.94.37-2.64,0-2.46-2.2.25-3.09.06-6.21.06-9.32Z" transform="translate(-120.75 -210.75)"/><path class="cls-11" d="M242.51,315.82a54.7,54.7,0,0,0-29.23-29c7.64-8.22,11.21-17.67,8.66-28.79a29,29,0,0,0-11.2-17.19,29.83,29.83,0,0,0-39.55,3.14c-11.43,11.81-11.18,27.58.91,42.82a54.81,54.81,0,0,0-29.1,29c-15.26-21.5-14.32-55.34,8.91-76.89,23-21.32,57.54-21.57,81-.61C254.9,257.84,259.31,292.63,242.51,315.82Z" transform="translate(-120.75 -210.75)"/><path class="cls-12" d="M215.77,301.71A42.14,42.14,0,0,1,233,325c.47,1.52-.2,2.26-1.16,3.18-20.23,19.28-58.16,19.25-78.22,0a3,3,0,0,1-1-3.55,41.76,41.76,0,0,1,15-21.39c1-.73,1.91-2,2.94.34,4.37,10.05,12.11,15.54,23.13,15.14S211.63,312,215.77,301.71Z" transform="translate(-120.75 -210.75)"/><path class="cls-8" d="M192.88,246.76a18,18,0,1,1-18.12,17.67A18.08,18.08,0,0,1,192.88,246.76Z" transform="translate(-120.75 -210.75)"/><path class="cls-10" d="M192.68,294.77a48.27,48.27,0,0,1,9.65,1.07c2.19.36,2.15,1.49,1.59,3.11a11.92,11.92,0,0,1-22.44-.24c-.54-1.66-.3-2.47,1.55-2.82A44.23,44.23,0,0,1,192.68,294.77Z" transform="translate(-120.75 -210.75)"/><path class="cls-11" d="M441.38,286.81c12.47-15.92,12.32-32.23-.13-43.92a29.9,29.9,0,0,0-40.52-.44c-12.87,11.58-13.19,27.65-.68,44.36a57.41,57.41,0,0,0-17.2,11.51,56.11,56.11,0,0,0-11.75,17.25c-13.5-17.47-16.08-51,6.46-74.42a59.89,59.89,0,0,1,82.06-4c24.93,21.33,26.67,56.29,10.9,78.65a57.94,57.94,0,0,0-11.67-17.24A56.32,56.32,0,0,0,441.38,286.81Z" transform="translate(-120.75 -210.75)"/><path class="cls-13" d="M420.89,342.79a60.54,60.54,0,0,1-38.58-14.06c-1.83-1.5-2.22-2.82-1.43-5.08a42.88,42.88,0,0,1,16.72-21.94c1.64-1.11,2.66-1,4.09.42,5.65,5.83,11.51,11.47,17.16,17.3,1.5,1.55,2.34,1.5,3.82,0,5.57-5.74,11.34-11.28,16.89-17,1.62-1.68,2.73-1.84,4.68-.47a43.48,43.48,0,0,1,16.38,21.76c.79,2.26.4,3.58-1.43,5.09A60.73,60.73,0,0,1,420.89,342.79Z" transform="translate(-120.75 -210.75)"/><path class="cls-8" d="M438.74,264.82A18,18,0,1,1,421,246.76,18.09,18.09,0,0,1,438.74,264.82Z" transform="translate(-120.75 -210.75)"/><path class="cls-10" d="M412.05,295.88a28.86,28.86,0,0,1,17.53.69c-2.61,2.22-5.27,4.39-7.81,6.69-1.16,1.05-1.72.26-2.45-.43Z" transform="translate(-120.75 -210.75)"/><path class="cls-14" d="M162.73,564.89a6,6,0,1,1-5.74-6.13A6,6,0,0,1,162.73,564.89Z" transform="translate(-120.75 -210.75)"/><path class="cls-14" d="M456.46,570.74a6,6,0,1,1,6.27-5.61A6.06,6.06,0,0,1,456.46,570.74Z" transform="translate(-120.75 -210.75)"/></svg>