<svg id="Layer_1" data-name="Layer 1" xmlns="http://www.w3.org/2000/svg" viewBox="0 0 384 384"><defs><style>.cls-1{fill:#242021;}.cls-2{fill:#dedee0;}.cls-3{fill:#2487fe;}.cls-4{fill:#d9d9db;}.cls-5{fill:#87868e;}.cls-6{fill:#272324;}.cls-7{fill:#262223;}.cls-8{fill:#252123;}.cls-9{fill:#252122;}.cls-10{fill:#242124;}.cls-11{fill:#242328;}.cls-12{fill:#242227;}.cls-13{fill:#2485f8;}</style></defs><title>pc-hardware</title><path class="cls-1" d="M114.75,585V208.5l3.75-3.75h171c3.56,2.12,4.58,5.27,4.55,9.34-.15,21,.06,42-.19,63-.05,4,1.2,4.52,4.74,4.52q89-.16,178-.09c4.67,0,9.17.56,13.27,3.12,4.69,2.92,6.87,7.56,8.84,12.39V497.25c-.78.15-.78.87-1,1.42-3,8-8.77,12.5-17.35,13.16-2.36.18-4.74.16-7.1.16q-65.37,0-130.73-.07c-3.15,0-3.95.81-3.86,3.9q.34,12.36,0,24.72c-.08,2.94.88,3.44,3.56,3.41,12.86-.14,25.72,0,38.58-.1a11.58,11.58,0,0,1,9,3.69c9.36,9.54,18.87,18.93,28.31,28.38,5.1,5.11,5,8.34-.4,12.83H118.5Zm204.9-105a12.7,12.7,0,0,0-.11,2.6c.58,3.3-.94,4-3.93,3.79-4.36-.25-8.74-.06-13.11-.06-8.54,0-8.33,0-8.63,8.49-.13,3.66.9,4.48,4.5,4.48q88.83-.18,177.67-.09c8.17,0,9.94-1.77,9.94-9.85q0-92.4,0-184.8c0-8.61-1.63-10.23-10.32-10.23H303.61c-10.15,0-10.09,0-9.7,10.38.08,2,.66,2.57,2.59,2.54,5.37-.11,10.74,0,16.12,0,6.67,0,6.67,0,7,6.33a11.31,11.31,0,0,0-.1,2.24c.54,3.4-.74,4.53-4.24,4.34-5.61-.3-11.26.15-16.86-.16-3.56-.2-4.57.75-4.56,4.45.14,46.37.09,92.73.09,139.1,0,2.37.15,4.76,0,7.12s.79,3,3,2.91c5.25-.13,10.5,0,15.75,0C319.31,473.48,319.31,473.48,319.65,480ZM281.2,396.62q0-87.53.07-175.07c0-3.23-.67-4.12-4-4.11q-72.92.19-145.83,0c-3.54,0-3.94,1.14-3.94,4.19q.12,175.06,0,350.14c0,3.33.71,4.31,4.21,4.3q72.54-.19,145.08,0c4,0,4.54-1.23,4.53-4.77Q281.11,484,281.2,396.62ZM400.14,576c-6.06-6.05-11.42-11.25-16.58-16.65A8.19,8.19,0,0,0,377,556.6c-20.73.1-41.46.07-62.19,0-5.12,0-8.06-2.39-8-6.33s3.09-6.34,8.1-6.43c2.62,0,5.26-.17,7.86,0s3.38-.93,3.34-3.46c-.12-8.37-.14-16.74,0-25.1,0-2.71-1-3.37-3.5-3.33-8.24.12-16.49.18-24.73,0-3.12-.08-4,.84-4,4q.21,28.1,0,56.2c0,3.19.95,3.9,4,3.89,32.34-.11,64.69-.07,97-.07Z" transform="translate(-114.75 -204.75)"/><path class="cls-2" d="M281.2,396.62q0,87.35.07,174.7c0,3.54-.52,4.78-4.53,4.77q-72.54-.27-145.08,0c-3.5,0-4.21-1-4.21-4.3q.14-175.06,0-350.14c0-3.05.4-4.2,3.94-4.19q72.91.21,145.83,0c3.37,0,4,.88,4,4.11Q281.12,309.09,281.2,396.62Zm-77-76.61h49.09c8.68,0,8.47,0,8.77-8.76.12-3.69-1.24-4.18-4.43-4.17-33.85.11-67.69.07-101.54.07-9.33,0-9.18,0-9.33,9.3-.06,3.18,1.11,3.63,3.87,3.62C168.44,320,186.29,320,204.15,320Zm-.18,25.6h49.09c8.87,0,8.73,0,8.92-8.95.06-3.05-.65-4-3.84-3.94-34.1.13-68.2.08-102.3.08-9.1,0-8.94,0-9.13,9.08-.07,3.3,1.1,3.82,4,3.8C168.5,345.55,186.24,345.61,204,345.61Zm13.28,147.17a19.14,19.14,0,0,0,18.95,19.14,19.17,19.17,0,1,0-.07-38.34A19.13,19.13,0,0,0,217.25,492.78Zm-25.81,0a19.12,19.12,0,0,0-18.91-19.17,19.17,19.17,0,1,0,0,38.34A19.11,19.11,0,0,0,191.44,492.75Zm-44.65,51.33v3c0,10.22,0,10.17,10.31,9.68,1.92-.09,2.6-.63,2.55-2.58-.12-4.48,0-9,0-13.45,0-10.18,0-10.12-10.34-9.7-2,.08-2.57.71-2.51,2.6C146.87,537.11,146.79,540.59,146.79,544.08Zm25.62-.42V547c0,9.93,0,9.86,9.89,9.73,2.23,0,3.06-.54,3-2.91-.19-4.35-.06-8.72-.06-13.08,0-10.54,0-10.5-10.66-9.73-1.59.11-2.19.54-2.15,2.16C172.47,536.68,172.41,540.17,172.41,543.66Zm38.34.16v-3c0-10.13,0-10-10.21-9.8-2.28.05-2.65.89-2.6,2.86.12,4.49,0,9,.05,13.47,0,3-1,6.92.55,8.66,1.78,2.06,5.85.35,8.9.71,2.52.3,3.58-.43,3.37-3.18C210.56,550.32,210.75,547.06,210.75,543.82Zm25.56,0v-3c0-10.5,0-10.5-10.56-9.77a2.32,2.32,0,0,1-.37,0c-1.54-.17-1.88.66-1.87,2q0,10.86,0,21.7c0,1.14.18,1.94,1.6,1.9,3.59-.12,7.72.86,10.58-.63,1.94-1,.39-5.54.6-8.48C236.38,546.35,236.31,545.09,236.31,543.85Zm25.59,0v-3c0-10.21,0-10.21-10.16-9.8a2.41,2.41,0,0,1-.38,0c-1.83-.24-2.34.64-2.31,2.37.09,4.49,0,9,0,13.46,0,10.52,0,10.47,10.57,9.84,1.82-.1,2.33-.69,2.28-2.41C261.83,550.85,261.9,547.36,261.9,543.87Z" transform="translate(-114.75 -204.75)"/><path class="cls-3" d="M319.65,480c-.34-6.5-.34-6.5-7-6.5-5.25,0-10.5-.09-15.75,0-2.21.06-3.19-.54-3-2.91s0-4.75,0-7.12c0-46.37,0-92.73-.09-139.1,0-3.7,1-4.65,4.56-4.45,5.6.31,11.25-.14,16.86.16,3.5.19,4.78-.94,4.24-4.34a11.31,11.31,0,0,1,.1-2.24h12.51c.36,6.5.36,6.5,7,6.5q58.49,0,117-.07c3.37,0,4.38.78,4.37,4.3q-.18,72.54,0,145.09c0,3.23-.7,4.23-4.09,4.21-22-.17-44-.09-66-.09-6.63,0-6.63,0-7.11,6.5H370.92c-.05-.5-.13-1-.14-1.49-.08-5.45.77-5-5-5H364.7c-6.57,0-6.57,0-7,6.51H345.24c-.05-.49-.12-1-.13-1.48-.11-5-.1-5-5.3-5h-.75c-6.55,0-6.55,0-6.9,6.51Z" transform="translate(-114.75 -204.75)"/><path class="cls-4" d="M370.92,480H383.3c.6,6.34.6,6.34,7.23,6.34,26.23,0,52.46-.07,78.69.09,3.42,0,4-1,4-4.17q-.15-85.46,0-170.89c0-3.57-1.08-4.23-4.37-4.22q-65,.15-130,.07c-6.32,0-6.32,0-6.72,6.34H319.65c-.36-6.33-.36-6.33-7-6.33-5.38,0-10.75-.07-16.12,0-1.93,0-2.51-.57-2.59-2.54-.39-10.38-.45-10.38,9.7-10.38H475.67c8.69,0,10.32,1.62,10.32,10.23q0,92.4,0,184.8c0,8.08-1.77,9.85-9.94,9.85q-88.83,0-177.67.09c-3.6,0-4.63-.82-4.5-4.48.3-8.48.09-8.49,8.63-8.49,4.37,0,8.75-.19,13.11.06,3,.17,4.51-.49,3.93-3.79a12.7,12.7,0,0,1,.11-2.6h12.51c.4,6.35.4,6.35,6.18,6.35,6.46,0,6.46,0,6.9-6.35h12.48a11.79,11.79,0,0,1,.15,2.57c-.5,3.15.87,4.26,3.88,3.79a12.55,12.55,0,0,1,1.84,0C370.3,486.32,370.3,486.32,370.92,480Z" transform="translate(-114.75 -204.75)"/><path class="cls-5" d="M400.14,576H395c-32.35,0-64.7,0-97,.07-3.05,0-4-.7-4-3.89q.22-28.1,0-56.2c0-3.13.85-4.05,4-4,8.24.21,16.49.15,24.73,0,2.51,0,3.54.62,3.5,3.33-.15,8.36-.13,16.73,0,25.1,0,2.53-.62,3.67-3.34,3.46s-5.24-.08-7.86,0c-5,.09-8,2.53-8.1,6.43s2.9,6.33,8,6.33c20.73,0,41.46.06,62.19,0a8.19,8.19,0,0,1,6.55,2.73C388.72,564.73,394.08,569.93,400.14,576Z" transform="translate(-114.75 -204.75)"/><path class="cls-6" d="M204.15,320c-17.86,0-35.71-.05-53.57.06-2.76,0-3.93-.44-3.87-3.62.15-9.3,0-9.3,9.33-9.3,33.85,0,67.69,0,101.54-.07,3.19,0,4.55.48,4.43,4.17-.3,8.76-.09,8.76-8.77,8.76Z" transform="translate(-114.75 -204.75)"/><path class="cls-7" d="M204,345.61c-17.73,0-35.47-.06-53.21.07-2.95,0-4.12-.5-4-3.8.19-9.08,0-9.08,9.13-9.08,34.1,0,68.2.05,102.3-.08,3.19,0,3.9.89,3.84,3.94-.19,8.95-.05,8.95-8.92,8.95Z" transform="translate(-114.75 -204.75)"/><path class="cls-8" d="M217.25,492.78a19.13,19.13,0,0,1,18.88-19.2,19.17,19.17,0,1,1,.07,38.34A19.14,19.14,0,0,1,217.25,492.78ZM236.43,499a6.24,6.24,0,1,0-.15-12.47,6.24,6.24,0,1,0,.15,12.47Z" transform="translate(-114.75 -204.75)"/><path class="cls-8" d="M191.44,492.75a19.11,19.11,0,0,1-18.91,19.17,19.17,19.17,0,1,1,0-38.34A19.12,19.12,0,0,1,191.44,492.75Zm-12.84,0a6.1,6.1,0,0,0-6-6.27A6.24,6.24,0,1,0,172.5,499,6.11,6.11,0,0,0,178.6,492.79Z" transform="translate(-114.75 -204.75)"/><path class="cls-6" d="M146.79,544.08c0-3.49.08-7,0-10.46-.06-1.89.53-2.52,2.51-2.6,10.35-.42,10.35-.48,10.34,9.7,0,4.49-.08,9,0,13.45,0,2-.63,2.49-2.55,2.58-10.31.49-10.31.54-10.31-9.68Z" transform="translate(-114.75 -204.75)"/><path class="cls-9" d="M172.41,543.66c0-3.49.06-7,0-10.46,0-1.62.56-2.05,2.15-2.16,10.66-.77,10.66-.81,10.66,9.73,0,4.36-.13,8.73.06,13.08.1,2.37-.73,2.88-3,2.91-9.89.13-9.89.2-9.89-9.73Z" transform="translate(-114.75 -204.75)"/><path class="cls-1" d="M210.75,543.82c0,3.24-.19,6.5.06,9.72.21,2.75-.85,3.48-3.37,3.18-3.05-.36-7.12,1.35-8.9-.71-1.51-1.74-.52-5.69-.55-8.66-.05-4.49.07-9-.05-13.47-.05-2,.32-2.81,2.6-2.86,10.21-.24,10.21-.33,10.21,9.8Z" transform="translate(-114.75 -204.75)"/><path class="cls-9" d="M236.31,543.85c0,1.24.07,2.5,0,3.74-.21,2.94,1.34,7.48-.6,8.48-2.86,1.49-7,.51-10.58.63-1.42,0-1.6-.76-1.6-1.9q0-10.84,0-21.7c0-1.35.33-2.18,1.87-2a2.32,2.32,0,0,0,.37,0c10.56-.73,10.56-.73,10.56,9.77Z" transform="translate(-114.75 -204.75)"/><path class="cls-7" d="M261.9,543.87c0,3.49-.07,7,0,10.47.05,1.72-.46,2.31-2.28,2.41-10.57.63-10.57.68-10.57-9.84,0-4.49.06-9,0-13.46,0-1.73.48-2.61,2.31-2.37a2.41,2.41,0,0,0,.38,0c10.16-.41,10.16-.41,10.16,9.8Z" transform="translate(-114.75 -204.75)"/><path class="cls-10" d="M332.16,313.53c.4-6.34.4-6.34,6.72-6.34q65,0,130-.07c3.29,0,4.38.65,4.37,4.22q-.19,85.44,0,170.89c0,3.19-.62,4.19-4,4.17-26.23-.16-52.46-.09-78.69-.09-6.63,0-6.63,0-7.23-6.34.48-6.5.48-6.5,7.11-6.5,22,0,44-.08,66,.09,3.39,0,4.1-1,4.09-4.21q-.15-72.54,0-145.09c0-3.52-1-4.31-4.37-4.3q-58.49.17-117,.07C332.52,320,332.52,320,332.16,313.53Z" transform="translate(-114.75 -204.75)"/><path class="cls-11" d="M370.92,480c-.62,6.35-.62,6.35-7.33,6.35a12.55,12.55,0,0,0-1.84,0c-3,.47-4.38-.64-3.88-3.79a11.79,11.79,0,0,0-.15-2.57c.41-6.51.41-6.51,7-6.51h1.12c5.73,0,4.88-.43,5,5C370.79,479,370.87,479.47,370.92,480Z" transform="translate(-114.75 -204.75)"/><path class="cls-12" d="M345.24,480c-.44,6.35-.44,6.35-6.9,6.35-5.78,0-5.78,0-6.18-6.35.35-6.51.35-6.51,6.9-6.51h.75c5.2,0,5.19,0,5.3,5C345.12,479,345.19,479.48,345.24,480Z" transform="translate(-114.75 -204.75)"/><path class="cls-13" d="M236.43,499a6.24,6.24,0,1,1-.15-12.47,6.24,6.24,0,1,1,.15,12.47Z" transform="translate(-114.75 -204.75)"/><path class="cls-13" d="M178.6,492.79a6.11,6.11,0,0,1-6.1,6.19,6.24,6.24,0,1,1,.07-12.46A6.1,6.1,0,0,1,178.6,492.79Z" transform="translate(-114.75 -204.75)"/></svg>