<svg id="Layer_1" data-name="Layer 1" xmlns="http://www.w3.org/2000/svg" viewBox="0 0 409.62 374.66"><defs><style>.cls-1{fill:#040303;}.cls-2{fill:#fc4b4b;}.cls-3{fill:#fcd7a7;}.cls-4{fill:#dfedf9;}.cls-5{fill:#f2c691;}.cls-6{fill:#caddeb;}.cls-7{fill:#ef3838;}.cls-8{fill:#2d5871;}.cls-9{fill:#1d4859;}.cls-10{fill:#1d4758;}.cls-11{fill:#2d5870;}.cls-12{fill:#fbae24;}.cls-13{fill:#fd8f1d;}</style></defs><title>real-estate</title><path class="cls-1" d="M423.27,320.22c3.34-2.29,6.36-2,9.32.85,11,10.34,22.09,20.48,32.9,31,12.29,11.91,7.7,31-8.43,35.43-7.69,2.11-14.44-.08-20.21-5.45-4.68-4.36-9.31-8.78-14-13.11-.92-.85-1.56-2.15-3.22-2.32v107c1.93.33,2.88-1,4-1.78,15.62-10.4,31.17-20.89,46.8-31.28,10.8-7.18,22.07-6.93,31.46.55,11.23,8.95,12.63,26.2,2.46,36.46-7.21,7.28-15.06,13.94-22.68,20.81-17.71,16-35.77,31.59-53.1,48-13,12.24-27.94,18.62-45.46,20.92q-52.06,6.83-103.95,15c-15.11,2.39-29.54,2.6-43.55-4.47-4.48-2.26-9.42-3.6-14.14-5.39l-55.14-20.91c-1-.36-1.93-.66-3.09-1.06-.7,4-1.07,7.84-3.17,11.22-3.74,6-9,9.74-16.11,10.4a155.29,155.29,0,0,1-21.57.17c-9.81-.45-16.34-5.58-19.75-14.75-.22-.59-.2-1.35-1.05-1.51V538.4c1.78-1.22,3-3.41,5.55-3.31,4.29.61,6,2.37,6.3,6.72.16,2.79,0,5.59,0,8.38.13,6.27,3.77,10.12,10.07,10.53,2,.13,4-.07,6-.12,3.59,0,7.2.29,10.78.13,7.3-.33,10.84-4.13,10.88-11.49,0-8.27,0-16.53,0-24.79q0-55,0-110c0-7.66-3.63-11.28-11.24-11.32-3.46,0-6.93.06-10.39.1-.93-.05-1.86-.12-2.79-.13-10.42-.1-13.3,2.75-13.3,13.12v42.33c0,14.38,0,28.76,0,43.13,0,5.56-1.56,7.42-6.5,8.21-2.58,0-3.78-2.05-5.38-3.52V408c1.35-1.07,1.23-2.82,1.93-4.2,4.11-8.12,10.76-12.28,19.8-12.53,5.59-.16,11.19-.07,16.79,0,13.34.1,22.13,8.24,22.83,21.54.15,2.93,1,3.45,3.64,3.34a127.13,127.13,0,0,1,21.54,1c2,.26,2.6-.13,2.59-2.14-.05-16,0-32,0-49-4.15,3.89-7.66,7.21-11.21,10.49-2.83,2.62-5.56,5.39-8.59,7.76a20.42,20.42,0,0,1-27.82-2.35c-7.18-7.82-7.57-19.9-.13-27.59,8.23-8.51,17.07-16.45,25.68-24.61,6.77-6.42,13.52-12.85,20.4-19.15a7.55,7.55,0,0,0,2.71-6.2c-.17-16.66-.18-33.32-.21-50,0-9.33,3.29-12.59,12.78-12.61l26.39,0c9.89,0,13.06,3.16,13.11,13.12v3.2c1.61-.05,2.16-1.26,3-2q21.14-19.83,42.22-39.72c10.28-9.65,21.52-9.58,31.85.1q41,38.42,82,76.8c4.29,4,4.6,5.43,2.22,10.38-3.78,2.42-6.84,1.38-10-1.55q-40.92-38.46-82-76.78c-6.26-5.86-10.35-5.85-16.5,0Q225.22,292.5,153.81,359.78c-1.06,1-2.24,1.9-2.69,3.39-2.48,4-2.12,8.19,1,11.17a8.75,8.75,0,0,0,11.35.85,39.86,39.86,0,0,0,4.55-3.88q65.2-61.41,130.37-122.85c5.59-5.27,7.41-5.27,13,0Q369.32,302.74,427.26,357c6,5.65,12,11.37,18.16,16.88,4,3.58,9.13,3.45,12.61.09,3.32-3.23,3.53-7.65.56-11.86-.78-2-2.56-3-4-4.34-9.86-9.28-19.78-18.5-29.64-27.78C421.18,326.42,421,324.85,423.27,320.22ZM217.59,253.71c-4,0-8,0-12-.17-2-.08-2.46.69-2.43,2.54.1,6.12.05,12.24.05,18.36v22.78l14.39-13.94c4.3-4,8.56-7.94,12.9-11.85A4.08,4.08,0,0,0,232,268c-.14-4.64-.19-9.27-.27-13.91C227.07,253,222.32,253.72,217.59,253.71Zm87.18,196.6c8.16,1,16.33,1.93,24.46,3.1,2.75.39,2.78-1,2.77-3,0-8.39,0-16.78,0-25.17q0-20.58,0-41.16c0-2.05.23-4.12-2.88-4.07-8.11.15-16.23.2-24.35.29-8-.07-16-.1-23.92-.23-2,0-2.44.95-2.43,2.71q.06,30.93,0,61.85c0,2,.75,3,2.66,3.17Zm-11.34-180.8a3.25,3.25,0,0,0-.68.39q-44.4,41.79-88.83,83.55a5.11,5.11,0,0,0-1.56,4.23c0,19.59.09,39.18,0,58.78,0,2.31.45,3.47,2.94,4.09a115.74,115.74,0,0,1,29.39,12.12,122.23,122.23,0,0,0,28.23,11.86c3,.81,3.82.42,3.79-2.89-.17-20.12-.15-40.25-.14-60.38,0-8.55,4-12.53,12.4-12.55,16.92,0,33.86.27,50.78-.2,9.14-.25,14,4.86,13.84,13.75-.32,23.05,0,46.12,0,69.17,0,2-.18,3.69,2.57,4.5,16.54,4.85,25.28,16.37,27.24,33.17.35,3,1.32,4,4.13,3.49,9.06,1.86,17.32.58,24.26-6.1a12.11,12.11,0,0,1,3.3-2.22c2.43-1.12,2.88-2.93,2.87-5.46q-.18-60.17-.12-120.33A8,8,0,0,0,405,352c-11.36-10.48-22.6-21.09-33.88-31.66q-31.93-29.93-63.85-59.89c-1.63-1.53-2.66-2.05-4.42-.16C299.82,263.5,296.57,266.45,293.43,269.51ZM163.26,506.39c-.06,9.19,0,18.39-.27,27.57-.1,3.12,1.09,4.3,3.84,5.33,26.64,10,53.26,20,79.77,30.26a43.27,43.27,0,0,0,22.68,2.25q57.68-8.47,115.41-16.62c12.94-1.8,24.27-6.42,33.77-15.59,6.62-6.38,13.63-12.34,20.47-18.49l55-49.46c4.51-4.05,6.75-8.8,4.75-14.91-.48-3.11-2.38-5.3-4.78-7.09-4.91-3.66-10.85-3.42-17.05.73q-39.19,26.17-78.32,52.45a13.44,13.44,0,0,1-8.59,2.3c-21.58-1-43.06-3.16-64.56-5q-42.81-3.72-85.62-7.4c-4.39-.38-7-2.91-6.84-6.3.22-3.66,3.2-5.85,7.81-5.45,22.43,2,44.85,4,67.28,6,16.86,1.48,33.73,2.86,50.58,4.4,2.7.25,3.43-.36,3.07-3.12-1.44-11-10.36-20.39-21.41-21.76-16.26-2-32.52-4.07-48.83-5.58-22-2-43.09-6.55-62.35-17.9-19.51-11.5-40.8-15.66-63.23-15.11-2.37.06-2.86.84-2.8,3,.14,4.66,0,9.33.05,14Q163.15,475.6,163.26,506.39Z" transform="translate(-101.6 -209.14)"/><path class="cls-2" d="M423.27,320.22c-2.31,4.63-2.09,6.2,1.69,9.76,9.86,9.28,19.78,18.5,29.64,27.78,1.43,1.34,3.21,2.39,4,4.34-2.34,2.43-5.24,2.41-8.38,2.3-6.52-.25-10.06-5.25-14.15-8.94-13.42-12.11-26.54-24.56-39.6-37.07-7.77-7.45-15.68-14.74-23.61-22-13.31-12.23-26.4-24.71-39.58-37.09-8.82-8.28-17.68-16.52-26.41-24.89-1.71-1.64-2.66-1.35-4.23.13-12.46,11.78-25.11,23.36-37.48,35.23-8.93,8.56-18,16.93-27,25.43q-20.86,19.75-41.8,39.4-13.54,12.68-27,25.45c-5.64,5.37-11.49,6-18.24,3.15.45-1.49,1.63-2.39,2.69-3.39q71.41-67.27,142.84-134.54c6.15-5.8,10.24-5.81,16.5,0q41,38.37,82,76.78c3.12,2.93,6.18,4,10,1.55Z" transform="translate(-101.6 -209.14)"/><path class="cls-3" d="M163.26,506.39q-.09-30.78-.18-61.57c0-4.67.09-9.34-.05-14-.06-2.15.43-2.93,2.8-3,22.43-.55,43.72,3.61,63.23,15.11,19.26,11.35,40.4,15.86,62.35,17.9,16.31,1.51,32.57,3.56,48.83,5.58,11.05,1.37,20,10.75,21.41,21.76.36,2.76-.37,3.37-3.07,3.12-16.85-1.54-33.72-2.92-50.58-4.4-22.43-2-44.85-4-67.28-6-4.61-.4-7.59,1.79-7.81,5.45-.19,3.39,2.45,5.92,6.84,6.3q42.81,3.74,85.62,7.4c21.5,1.88,43,4.08,64.56,5a13.44,13.44,0,0,0,8.59-2.3q39.11-26.31,78.32-52.45c6.2-4.15,12.14-4.39,17.05-.73,2.4,1.79,4.3,4,4.78,7.09a5.22,5.22,0,0,0-3.89,1.64q-16,13.71-32.11,27.29C449.8,496.5,436.93,507.35,423.92,518c-9.51,7.79-20.83,11.69-32.82,13-10.63,1.19-21.37,1.69-32.06,2.42-15.19,1-30.38,2-45.56,3.27-9.5.78-19.09.71-28.55,1.83-5,.59-10,.6-15,1.16-6.67.74-13.7,1.37-20.17-1-20.3-7.47-40.46-15.35-60.7-23C180.47,512.54,172.08,508.88,163.26,506.39Z" transform="translate(-101.6 -209.14)"/><path class="cls-4" d="M377.58,492.59c-2.81.52-3.78-.45-4.13-3.49-2-16.8-10.7-28.32-27.24-33.17-2.75-.81-2.57-2.47-2.57-4.5,0-23.05-.35-46.12,0-69.17.12-8.89-4.7-14-13.84-13.75-16.92.47-33.86.16-50.78.2-8.44,0-12.4,4-12.4,12.55,0,20.13,0,40.26.14,60.38,0,3.31-.82,3.7-3.79,2.89a122.23,122.23,0,0,1-28.23-11.86,115.74,115.74,0,0,0-29.39-12.12c-2.49-.62-2.95-1.78-2.94-4.09.07-19.6,0-39.19,0-58.78a5.11,5.11,0,0,1,1.56-4.23q44.47-41.73,88.83-83.55a3.25,3.25,0,0,1,.68-.39c4.43,4,9,7.87,13.25,12,7.71,7.51,15.71,14.71,23.59,22,15.09,14,30,28.28,44.94,42.4a7,7,0,0,1,2.44,5.56Q377.54,422.06,377.58,492.59Z" transform="translate(-101.6 -209.14)"/><path class="cls-5" d="M163.26,506.39c8.82,2.49,17.21,6.15,25.77,9.37,20.24,7.63,40.4,15.51,60.7,23,6.47,2.37,13.5,1.74,20.17,1,5-.56,10-.57,15-1.16,9.46-1.12,19.05-1.05,28.55-1.83,15.18-1.26,30.37-2.24,45.56-3.27,10.69-.73,21.43-1.23,32.06-2.42,12-1.35,23.31-5.25,32.82-13,13-10.67,25.88-21.52,38.75-32.36q16.13-13.56,32.11-27.29a5.22,5.22,0,0,1,3.89-1.64c2,6.11-.24,10.86-4.75,14.91l-55,49.46c-6.84,6.15-13.85,12.11-20.47,18.49-9.5,9.17-20.83,13.79-33.77,15.59q-57.75,8-115.41,16.62a43.27,43.27,0,0,1-22.68-2.25c-26.51-10.29-53.13-20.29-79.77-30.26-2.75-1-3.94-2.21-3.84-5.33C163.29,524.78,163.2,515.58,163.26,506.39Z" transform="translate(-101.6 -209.14)"/><path class="cls-6" d="M377.58,492.59q0-70.53.07-141.06a7,7,0,0,0-2.44-5.56c-15-14.12-29.85-28.39-44.94-42.4-7.88-7.32-15.88-14.52-23.59-22-4.27-4.16-8.82-8-13.25-12,3.14-3.06,6.39-6,9.38-9.22,1.76-1.89,2.79-1.37,4.42.16q31.88,30,63.85,59.89C382.36,330.91,393.6,341.52,405,352a8,8,0,0,1,2.93,6.48q-.09,60.16.12,120.33c0,2.53-.44,4.34-2.87,5.46a12.11,12.11,0,0,0-3.3,2.22C394.9,493.17,386.64,494.45,377.58,492.59Z" transform="translate(-101.6 -209.14)"/><path class="cls-7" d="M151.12,363.17c6.75,2.85,12.6,2.22,18.24-3.15q13.42-12.78,27-25.45,21-19.62,41.8-39.4c9-8.5,18.07-16.87,27-25.43,12.37-11.87,25-23.45,37.48-35.23,1.57-1.48,2.52-1.77,4.23-.13,8.73,8.37,17.59,16.61,26.41,24.89,13.18,12.38,26.27,24.86,39.58,37.09,7.93,7.29,15.84,14.58,23.61,22,13.06,12.51,26.18,25,39.6,37.07,4.09,3.69,7.63,8.69,14.15,8.94,3.14.11,6,.13,8.38-2.3,3,4.21,2.76,8.63-.56,11.86-3.48,3.36-8.59,3.49-12.61-.09-6.17-5.51-12.13-11.23-18.16-16.88q-57.93-54.25-115.85-108.52c-5.63-5.28-7.45-5.28-13,0Q233.2,309.9,168,371.31a39.86,39.86,0,0,1-4.55,3.88,8.75,8.75,0,0,1-11.35-.85C149,371.36,148.64,367.2,151.12,363.17Z" transform="translate(-101.6 -209.14)"/><path class="cls-8" d="M107.15,535.09c.27-8.39.59-16.79-.17-25.17,4.94-.79,6.48-2.65,6.5-8.21,0-14.37,0-28.75,0-43.13V416.25c0-10.37,2.88-13.22,13.3-13.12.93,0,1.86.08,2.79.13,2.73,4.72,2.45,9.9,2.45,15.09q-.06,64.36,0,128.71c0,4.74-.32,9.28-2.51,13.54-2,0-4,.25-6,.12-6.3-.41-9.94-4.26-10.07-10.53,0-2.79.11-5.59,0-8.38C113.19,537.46,111.44,535.7,107.15,535.09Z" transform="translate(-101.6 -209.14)"/><path class="cls-9" d="M129.55,560.6c2.19-4.26,2.52-8.8,2.51-13.54q-.13-64.35,0-128.71c0-5.19.28-10.37-2.45-15.09,3.46,0,6.93-.12,10.39-.1,7.61,0,11.23,3.66,11.24,11.32q0,55,0,110c0,8.26,0,16.52,0,24.79,0,7.36-3.58,11.16-10.88,11.49C136.75,560.89,133.14,560.65,129.55,560.6Z" transform="translate(-101.6 -209.14)"/><path class="cls-10" d="M304.72,380.35c8.12-.09,16.24-.14,24.35-.29,3.11-.05,2.88,2,2.88,4.07q0,20.58,0,41.16c0,8.39,0,16.78,0,25.17,0,1.93,0,3.34-2.77,3-8.13-1.17-16.3-2.09-24.46-3.1Q304.76,415.33,304.72,380.35Z" transform="translate(-101.6 -209.14)"/><path class="cls-11" d="M304.72,380.35q0,35,0,70L281,447.85c-1.91-.2-2.67-1.16-2.66-3.17q.08-30.93,0-61.85c0-1.76.42-2.74,2.43-2.71C288.77,380.25,296.75,380.28,304.72,380.35Z" transform="translate(-101.6 -209.14)"/><path class="cls-12" d="M217.64,283.28l-14.39,13.94V274.44c0-6.12.05-12.24-.05-18.36,0-1.85.45-2.62,2.43-2.54,4,.17,8,.13,12,.17Z" transform="translate(-101.6 -209.14)"/><path class="cls-13" d="M217.64,283.28l0-29.57c4.73,0,9.48-.71,14.18.36.08,4.64.13,9.27.27,13.91a4.08,4.08,0,0,1-1.5,3.45C226.2,275.34,221.94,279.32,217.64,283.28Z" transform="translate(-101.6 -209.14)"/></svg>