<svg id="Layer_1" data-name="Layer 1" xmlns="http://www.w3.org/2000/svg" viewBox="0 0 511.09 477.46"><defs><style>.cls-1{fill:#030303;}.cls-2{fill:#030404;}.cls-3{fill:#f8debf;}.cls-4{fill:#edceae;}.cls-5{fill:#cd3735;}.cls-6{fill:#f23b44;}.cls-7{fill:#73cbed;}.cls-8{fill:#51b0df;}.cls-9{fill:#040202;}.cls-10{fill:#dfdedc;}.cls-11{fill:#030304;}.cls-12{fill:#d4d4d4;}.cls-13{fill:#e7e7e7;}.cls-14{fill:#040404;}</style></defs><title>shield</title><path class="cls-1" d="M50.9,406.73c5.23-10.81,14.3-13.27,25.5-12.79,13.78.59,27.62.55,41.4.05,25.66-.93,33.59,2.76,31.93,31.74-.06,1,.07,2,0,3-.18,2,.29,2.92,2.62,3,20.34,1.06,38.88,7.77,56.24,18.15,4.13,2.47,8.51,4.5,12.65,6.94,14.75,8.67,30.58,12.78,47.72,13.83,28.19,1.74,56.33,4.51,84.46,7.12a45,45,0,0,1,40.76,41.53c.32,4,1.84,5,5.43,5A123.24,123.24,0,0,1,413,525c2.87.31,4.7-1.3,6.73-2.66q46.38-31,92.74-62c13.61-9.06,29.8-7.6,40.53,3.36,12.56,12.82,11.89,32.65-1.9,45.27-18.9,17.28-38,34.3-57.06,51.42C482.7,570.64,471,580.5,460,591.17c-14.94,14.57-32.75,21.65-53.23,24.33-40.51,5.31-81,11-121.29,17.62-22,3.62-43.13,4.71-63.5-6.14-3.48-1.85-7.39-2.9-11.11-4.31q-28.83-10.9-57.67-21.78c-.91-.35-1.85-.63-3.54-1.19,0,2.32.1,4.21,0,6.09-.53,9.09-7.61,16.56-16.68,16.66-21.79.24-43.57.15-65.36,0-6.32,0-10.9-3.45-14.3-8.63-.78-1.18-.73-3-2.44-3.51Zm42.92,200.6c11.6.07,23.21-.05,34.81.3,4.83.15,6.23-1.52,6.2-6.28-.17-33.67-.1-67.34-.08-101,0-6.6,1.64-8.61,7.89-9.9,5.36,1,7.16,4.47,7.13,9.68-.08,14.44.07,28.88.13,43.32-.06,12,0,23.94-.25,35.91-.07,3.17.9,4.56,3.92,5.69q44.94,16.83,89.77,34a36.54,36.54,0,0,0,18.1,2.14c10.05-1.32,20.06-2.87,30.09-4.32,38.3-5.52,76.57-11.29,114.92-16.45,16.37-2.2,30.48-8,42.61-19.49,15.83-15,32.31-29.22,48.5-43.79,14.46-13,29-25.94,43.34-39.09,8.19-7.5,8.11-17.55.2-24.68-6.6-5.32-13.05-5.42-20.93-.15Q472.53,505,425,537a17.56,17.56,0,0,1-12.14,3.07c-8.6-.77-17.29-1.74-25.88-1.34-22.57,1-45.12,2.89-67.68,4.25-26.72,1.62-53.43,3.18-80.16,4.52-9.37.46-17.06-3.69-23.3-10.49-3.16-3.45-3.16-7.8-.29-10.73,3-3.08,7.58-3.07,11,.49,4.37,4.52,9.45,6.21,15.7,5.82q66.94-4.23,133.91-8.15c3.11-.18,3.36-1.46,3.18-4-1-14.22-12.9-26.39-27.53-27.69-27.81-2.48-55.59-5.44-83.46-7-19.69-1.12-37.84-6-54.8-15.92-6.88-4-14-7.64-21-11.44-11.83-6.44-24.56-9.82-37.85-11.56-4.24-.55-5.56.63-5.11,4.86.39,3.61,0,7.31.1,11,.15,5.07-2,8.25-7.1,9.19-6.08-1.21-7.87-3.28-7.89-9.42,0-16-.06-31.92,0-47.88,0-3.08-.61-5.43-4.17-5.4-12.28.08-24.58-.54-36.86.33-7-.11-13.94-.35-20.91-.3s-7,.26-7,7V576.79c0,8.65.09,17.3,0,25.94,0,3.32,1,5,4.55,4.87C78.19,607.4,86,607.4,93.82,607.33Z" transform="translate(-50.9 -158.18)"/><path class="cls-2" d="M306,158.19q36.42,0,72.84,0c12.27,0,16.82,3.9,18.64,15.84,3.66,23.95,16.36,41.28,38.28,51.72,10.13,4.82,13.75,10.13,12.35,21.26C438,327.28,404.39,393.67,334.21,438.17c-6.29,4-13.09,7.16-19.57,10.85-4.77,2.7-9.21,2.49-14.16.11-60.35-29-99.41-76.68-121.69-139a268.14,268.14,0,0,1-14.26-61.44c-1.2-11,1.92-16.59,12.06-21.47Q205.33,213.44,213,182.5a72.69,72.69,0,0,0,1.51-8.83c1.14-9.56,6.48-14.51,16.22-14.54,25.11-.06,50.22,0,75.34,0ZM289.16,425.87c4.62,3.26,9.82,5.48,14.71,8.24,2.63,1.49,4.65,1.29,7.29-.12,75.66-40.15,111.31-106.19,122.18-188.36.45-3.44-.81-5.16-3.87-6.44a72.77,72.77,0,0,1-22.29-14.83A79.73,79.73,0,0,1,383,178c-.29-1.88.67-4.91-3.3-4.83-12.79.27-25.59.32-38.39.45-1-.08-2-.22-3-.21-35.06.24-70.12.57-105.18.61-3.76,0-3.86,1.9-4.24,4.42-4.37,28.72-19.68,49.49-45.72,62.26-3.24,1.58-4.24,3.32-3.79,6.9,5.27,41.67,18.73,80.34,42.39,115.18C239.48,388.78,261.72,410.14,289.16,425.87Z" transform="translate(-50.9 -158.18)"/><path class="cls-3" d="M149.9,543.45c-.06-14.44-.21-28.88-.13-43.32,0-5.21-1.77-8.65-7.13-9.68V471.76c5.11-.94,7.25-4.12,7.1-9.19-.11-3.65.29-7.35-.1-11-.45-4.23.87-5.41,5.11-4.86,13.29,1.74,26,5.12,37.85,11.56,7,3.8,14.09,7.44,21,11.44,17,9.88,35.11,14.8,54.8,15.92,27.87,1.59,55.65,4.55,83.46,7,14.63,1.3,26.54,13.47,27.53,27.69.18,2.58-.07,3.86-3.18,4q-67,3.93-133.91,8.15c-6.25.39-11.33-1.3-15.7-5.82-3.46-3.56-8-3.57-11-.49-2.87,2.93-2.87,7.28.29,10.73,6.24,6.8,13.93,11,23.3,10.49,26.73-1.34,53.44-2.9,80.16-4.52,22.56-1.36,45.11-3.2,67.68-4.25,8.59-.4,17.28.57,25.88,1.34A17.56,17.56,0,0,0,425,537q47.49-32,95.19-63.78c7.88-5.27,14.33-5.17,20.93.15-5.62,6.93-13.51,11.06-20.47,16.28C497.87,506.7,474.54,523,452,540.34a93.14,93.14,0,0,1-49.07,19.25c-15.07,1.51-30,4.28-45,6.48q-21.78,3.18-43.55,6.34-23.24,3.36-46.48,6.7c-7.87,1.13-15.78,2.25-23.5-.64-21.25-7.93-42.44-16-63.69-24C170.5,550.66,160.56,546.05,149.9,543.45Z" transform="translate(-50.9 -158.18)"/><path class="cls-4" d="M149.9,543.45c10.66,2.6,20.6,7.21,30.81,11,21.25,8,42.44,16,63.69,24,7.72,2.89,15.63,1.77,23.5.64q23.24-3.33,46.48-6.7,21.78-3.15,43.55-6.34c15-2.2,29.94-5,45-6.48A93.14,93.14,0,0,0,452,540.34c22.53-17.35,45.86-33.64,68.62-50.7,7-5.22,14.85-9.35,20.47-16.28,7.91,7.13,8,17.18-.2,24.68-14.34,13.15-28.88,26.08-43.34,39.09-16.19,14.57-32.67,28.83-48.5,43.79-12.13,11.47-26.24,17.29-42.61,19.49-38.35,5.16-76.62,10.93-114.92,16.45-10,1.45-20,3-30.09,4.32a36.54,36.54,0,0,1-18.1-2.14q-44.84-17.13-89.77-34c-3-1.13-4-2.52-3.92-5.69C149.9,567.39,149.84,555.42,149.9,543.45Z" transform="translate(-50.9 -158.18)"/><path class="cls-5" d="M142.64,471.76v18.69c-6.25,1.29-7.89,3.3-7.89,9.9,0,33.66-.09,67.33.08,101,0,4.76-1.37,6.43-6.2,6.28-11.6-.35-23.21-.23-34.81-.3q.08-6.66.17-13.3c1.65.08,3.3.27,5,.22,10.27-.31,18.17-4.9,23.13-13.82,5.1-9.16,4.62-18.47-1.1-27.25-6.4-9.84-16-12.66-27.16-11.76l-.06-132c12.28-.87,24.58-.25,36.86-.33,3.56,0,4.19,2.32,4.17,5.4-.09,16-.06,31.92,0,47.88C134.77,468.48,136.56,470.55,142.64,471.76Z" transform="translate(-50.9 -158.18)"/><path class="cls-6" d="M93.75,409.39l.06,132-3.73,1.34a26.25,26.25,0,0,0-17.49,25.3c.13,12.56,7.17,21.09,21.4,26q-.09,6.65-.17,13.3c-7.81.07-15.63.07-23.43.27-3.56.09-4.6-1.55-4.55-4.87.13-8.64,0-17.29,0-25.94V416.12c0-6.77.11-7,7-7S86.78,409.28,93.75,409.39Z" transform="translate(-50.9 -158.18)"/><path class="cls-7" d="M289.16,425.87c-27.44-15.73-49.68-37.09-67.37-63.14-23.66-34.84-37.12-73.51-42.39-115.18-.45-3.58.55-5.32,3.79-6.9,26-12.77,41.35-33.54,45.72-62.26.38-2.52.48-4.41,4.24-4.42,35.06,0,70.12-.37,105.18-.61,1,0,2,.13,3,.21l2.07,12.65c-2.82.11-5.64.31-8.46.33q-41.9.3-83.79.56c-6.61,0-10.76,2.34-12.48,7.87a92.65,92.65,0,0,1-39.54,52c-4.3,2.77-6,7-4.9,12.12,1.58,7.46,3.06,14.95,4.86,22.37,1.4,5.75,3.94,7.37,10.11,7.2,1,6.15,4,11.63,5.64,17.54-4.36,2.94-5.41,6.67-3.25,11.58A224.92,224.92,0,0,0,244,371.13c15.85,19.15,34.93,34.37,56.4,46.73C297.36,421.5,293.84,424.5,289.16,425.87Z" transform="translate(-50.9 -158.18)"/><path class="cls-8" d="M289.16,425.87c4.68-1.37,8.2-4.37,11.27-8,5.18,2.85,9.93,2.1,15-.84,40.47-23.54,68.5-57.72,86.63-100.5,2-4.79.83-8.36-3.44-11.09q2.88-8.88,5.75-17.75c6.27-.18,8.42-1.73,9.75-7.69,1.59-7.11,2.84-14.3,4.39-21.42,1.3-6-.83-10.36-5.86-13.55-18.8-11.9-31.74-28.35-38.68-49.54-2.08-6.34-6-9-12.69-9.09-6-.09-11.94-.11-17.91-.16l-2.07-12.65c12.8-.13,25.6-.18,38.39-.45,4-.08,3,2.95,3.3,4.83a79.73,79.73,0,0,0,24.19,46.41,72.77,72.77,0,0,0,22.29,14.83c3.06,1.28,4.32,3,3.87,6.44C422.47,327.8,386.82,393.84,311.16,434c-2.64,1.41-4.66,1.61-7.29.12C299,431.35,293.78,429.13,289.16,425.87Z" transform="translate(-50.9 -158.18)"/><path class="cls-9" d="M94,594c-14.23-4.88-21.27-13.41-21.4-26a26.25,26.25,0,0,1,17.49-25.3l3.73-1.34c11.14-.9,20.76,1.92,27.16,11.76,5.72,8.78,6.2,18.09,1.1,27.25-5,8.92-12.86,13.51-23.13,13.82C97.29,594.3,95.64,594.11,94,594Zm5-37.69a11.22,11.22,0,0,0-11.42,11.25,11.46,11.46,0,0,0,11.11,11.68,11.78,11.78,0,0,0,11.81-11.62A11.46,11.46,0,0,0,99,556.34Z" transform="translate(-50.9 -158.18)"/><path class="cls-10" d="M214.81,306.21c-1.69-5.91-4.69-11.39-5.64-17.54,4.72-2.52,5.74-6.37,4.38-11.34s-2.21-10-3.6-15c-.86-3.07.05-4.73,2.61-6.54a104.1,104.1,0,0,0,36.71-46.11c3.13-7.54,3.08-7.61,11.37-7.63q29.88-.07,59.76,0a5.58,5.58,0,0,0,.06,1.48c5.15,14.87,14.21,27.06,25.81,37.47,2.31,2.07,5.15,3.61,6.06,6.9-3.46.49-5.4,2.82-7.21,5.56C331.59,274,317.87,294.35,304.5,315c-2.49,3.85-3.8,3.53-6.69.6-6.42-6.51-13.18-12.68-19.85-18.93-4.34-4.06-8.55-4.34-11.81-.93s-2.65,7.75,1.54,11.76q14.42,13.8,28.94,27.47c5.14,4.83,9.66,4.27,13.63-1.7q24-36.09,47.89-72.24a10.41,10.41,0,0,0,2-8,2.11,2.11,0,0,1,2.2,2.16c.25,2.7-.42,5.24-.92,7.84-5.48,28.15-14.8,54.81-29.71,79.46a213.3,213.3,0,0,1-24.87,33.28c-5.51,6.05-11.06,12.26-18.57,16.1a29.05,29.05,0,0,1-2.51-1.54c-27-20.41-46.34-46.69-60-77.43C222.88,306.36,221.48,305.56,214.81,306.21Z" transform="translate(-50.9 -158.18)"/><path class="cls-2" d="M320.4,202q-29.88,0-59.76,0c-8.29,0-8.24.09-11.37,7.63a104.1,104.1,0,0,1-36.71,46.11c-2.56,1.81-3.47,3.47-2.61,6.54,1.39,4.94,2.25,10,3.6,15s.34,8.82-4.38,11.34c-6.17.17-8.71-1.45-10.11-7.2-1.8-7.42-3.28-14.91-4.86-22.37-1.09-5.12.6-9.35,4.9-12.12a92.65,92.65,0,0,0,39.54-52c1.72-5.53,5.87-7.82,12.48-7.87q41.89-.29,83.79-.56c2.82,0,5.64-.22,8.46-.33,6,.05,11.94.07,17.91.16,6.72.11,10.61,2.75,12.69,9.09,6.94,21.19,19.88,37.64,38.68,49.54,5,3.19,7.16,7.56,5.86,13.55-1.55,7.12-2.8,14.31-4.39,21.42-1.33,6-3.48,7.51-9.75,7.69-5.18-2.36-6.12-6.41-4.83-11.55s2.29-10.38,3.5-15.55c.55-2.35.12-3.91-2.1-5.41a103.1,103.1,0,0,1-39.79-51c-.59-1.59-1.13-2.9-3.37-2.85C345.32,201.64,332.86,201.8,320.4,202Z" transform="translate(-50.9 -158.18)"/><path class="cls-11" d="M214.81,306.21c6.67-.65,8.07.15,10.95,6.67,13.62,30.74,33,57,60,77.43a29.05,29.05,0,0,0,2.51,1.54c4.89,4.28,10.63,7.28,16,10.81,2.34,1.53,4.16,1.33,6.3-.17,5.85-4.08,12-7.79,17.63-12.12,26.87-20.55,46-47,59.26-78,2.9-6.8,4.8-7.93,11.18-7,4.27,2.73,5.47,6.3,3.44,11.09-18.13,42.78-46.16,77-86.63,100.5-5.07,2.94-9.82,3.69-15,.84C279,405.5,259.88,390.28,244,371.13a224.92,224.92,0,0,1-32.47-53.34C209.4,312.88,210.45,309.15,214.81,306.21Z" transform="translate(-50.9 -158.18)"/><path class="cls-12" d="M398.62,305.42c-6.38-.94-8.28.19-11.18,7-13.23,30.95-32.39,57.41-59.26,78-5.66,4.33-11.78,8-17.63,12.12-2.14,1.5-4,1.7-6.3.17-5.39-3.53-11.13-6.53-16-10.81,7.51-3.84,13.06-10.05,18.57-16.1a213.3,213.3,0,0,0,24.87-33.28c14.91-24.65,24.23-51.31,29.71-79.46.5-2.6,1.17-5.14.92-7.84a2.11,2.11,0,0,0-2.2-2.16c-1.74-3-4.11-5.06-7.77-5.14-.91-3.29-3.75-4.83-6.06-6.9-11.6-10.41-20.66-22.6-25.81-37.47a5.58,5.58,0,0,1-.06-1.48c12.46-.22,24.92-.38,37.38-.7,2.24,0,2.78,1.26,3.37,2.85a103.1,103.1,0,0,0,39.79,51c2.22,1.5,2.65,3.06,2.1,5.41-1.21,5.17-2.22,10.4-3.5,15.55s-.35,9.19,4.83,11.55Q401.51,296.55,398.62,305.42Z" transform="translate(-50.9 -158.18)"/><path class="cls-13" d="M99,556.34a11.46,11.46,0,0,1,11.5,11.31,11.78,11.78,0,0,1-11.81,11.62,11.46,11.46,0,0,1-11.11-11.68A11.22,11.22,0,0,1,99,556.34Z" transform="translate(-50.9 -158.18)"/><path class="cls-14" d="M352.33,247.87c3.66.08,6,2.14,7.77,5.14a10.41,10.41,0,0,1-2,8q-24,36.11-47.89,72.24c-4,6-8.49,6.53-13.63,1.7q-14.55-13.65-28.94-27.47c-4.19-4-4.71-8.45-1.54-11.76s7.47-3.13,11.81.93c6.67,6.25,13.43,12.42,19.85,18.93,2.89,2.93,4.2,3.25,6.69-.6,13.37-20.61,27.09-41,40.62-61.53C346.93,250.69,348.87,248.36,352.33,247.87Z" transform="translate(-50.9 -158.18)"/></svg>