<svg id="Layer_1" data-name="Layer 1" xmlns="http://www.w3.org/2000/svg" viewBox="0 0 360.28 384"><defs><style>.cls-1{fill:#020202;}.cls-2{fill:#9bc4f9;}.cls-3{fill:#7198d3;}.cls-4{fill:#cbf39e;}.cls-5{fill:#dc636d;}.cls-6{fill:#fcde7c;}.cls-7{fill:#cae0fd;}.cls-8{fill:#7fb2f8;}.cls-9{fill:#76c0a2;}.cls-10{fill:#e3eff9;}.cls-11{fill:#fcce64;}.cls-12{fill:#b1e29d;}.cls-13{fill:#407092;}.cls-14{fill:#5581bd;}.cls-15{fill:#345b79;}</style></defs><title>supplies</title><path class="cls-1" d="M380.29,355.67c-3.84-.68-5.38-3-5.37-6.86.07-20,0-40,0-60,0-5.1,1.85-6.92,7-7,5.77-.11,5.77-.11,5.77-6,0-7.25-.12-14.5.06-21.74.06-2.2-.72-3-2.67-3.61-3.94-1.15-7.81-2.51-12.09-3.92-1.11,6.62-2,13.08-4,19.35-5,16.18-13.42,30-27.26,40.12-2.14,1.58-4.31,2.58-6.92,1.39-4.31-2-4.36-7.08,0-10.25a60.32,60.32,0,0,0,19.4-23.83,83.29,83.29,0,0,0,7.38-27.68c.2-2.16-.32-3-2.46-3.67a57.19,57.19,0,0,1-10.81-4.09c-7.45-4-10.85-9.75-10.11-17.2.72-7.22,5.79-13,13.46-15.28.29-.09.5-.44.75-.67h39c2.13,1.44,3.84,3.16,3.89,6-.85,4-3.41,5.38-7.34,5.33-10.23-.11-20.47,0-30.7,0-4.15,0-6.94,1.91-7.73,5.14s.74,5.38,4.95,7.31a47.08,47.08,0,0,0,4.9,1.8c11.34,3.75,22.66,7.57,34,11.17,4,1.26,5.57,3.61,5.49,7.71-.16,8.11-.05,16.23-.05,24.34,0,8.84,0,8.84,9,8.15,4.74.06,9.48.08,14.21.2,1.65,0,2.18-.62,2.15-2.21-.12-7.73-.16-15.46-.23-23.19,1.17-4.74,2.61-5.88,7.55-5.9L459,250.4c4.74,0,9.47.1,14.21.1.78,0,2.1.36,2.09-.86,0-2.49.86-5-1.44-7.31-8.26-8.14-16.36-16.44-24.49-24.7a4.4,4.4,0,0,0-3.53-1.66c-3.86.15-7.72.12-11.59.16-5.84,0-11.69-.21-17.53-.08-3.94.08-6.42-1.44-7.32-5.34.09-2.76,1.79-4.48,3.86-6h39c8.07,8.11,15.65,16.79,24.34,24.17,8.22,7,11.57,14.9,10.18,25.47-.71,5.44-2,7.38-7.56,7.38-13.37,0-26.74.12-40.1-.07-3.06-.05-3.75.91-3.59,3.73a92.69,92.69,0,0,1,0,12.36c-.25,3.31.73,4.23,4.08,4.11,7.36-.27,8.72,1.29,8.73,8.65,0,25.11,0,50.21.09,75.32.06,13.13,4.31,24.7,13.43,34.33,2.4,2.54,4.71,5.17,7.14,7.69,9.31,9.66,14.65,21.13,14.7,34.59q.24,60.7,0,121.42c0,10.87-7.66,20.49-18,23.75-1.22.39-2.8-.33-3.7,1.1H147c-.37-1.24-1.6-1-2.45-1.35-10.63-3.89-17.6-12.9-17.64-24.07q-.19-64.67,0-129.33a25.32,25.32,0,0,1,24.63-25.22c2.79-.1,3.15-1.1,3.13-3.51-.1-15.5-.08-31,0-46.49.06-22.44,14.17-39.92,36.1-44.79,23.54-5.23,48.74,12.21,52.27,36.06,1.13,7.6.59,15.21.67,22.82.11,10.87.08,21.74,0,32.61,0,2.23.25,3.42,3,3.27a20.29,20.29,0,0,1,11.4,3.09c1.59.93,2.53.78,3.86-.41a60.38,60.38,0,0,1,16.29-10.49c1.85-.79,2.29-1.83,2.27-3.67-.07-9.62-.05-19.25,0-28.87,0-5.38,1.78-7.16,7.16-7.23,3.62,0,7.25-.09,10.87,0,1.88.06,2.66-.45,2.62-2.49-.12-5.87-.06-11.74,0-17.62,0-1.27-.13-2.14-1.77-2.08-4,.14-8-.2-12,.3-7.16.9-12.28,5.09-16,11.13-2.49,4-5.52,5.11-8.59,3.18s-3.39-5.31-.87-9.19c7-10.83,16.72-16.82,29.92-16.68,10.49.12,21,0,31.49.05,3.75,0,6.11,2.35,6.1,5.65s-2.35,5.46-6.14,5.57c-1.5.05-3,0-4.5,0-6.4,0-6.4,0-6.4,6.46,0,4.38.08,8.75,0,13.12-.06,2,.6,2.65,2.58,2.59,3.87-.12,7.74-.1,11.62,0,4.63.1,6.55,2.06,6.57,6.69,0,9.75.08,19.5,0,29.24,0,2.05.53,3.16,2.44,4a57.82,57.82,0,0,1,14,8.61c1.11.91,1.9,1.72,3.28.09,3.39-4,7.09-7.74,10.52-11.71a43.72,43.72,0,0,0,10.55-22c.6-3.79,2.43-6.2,6.51-6.41,4.6,2.05,5.4,3.46,4.55,8.38a53.89,53.89,0,0,1-8.49,21.35c-4.36,6.45-10,11.76-15.14,17.56-5.68,6.45-9.42,13.82-10.1,22.43-.44,5.72-.24,11.48-.45,17.21-.08,2,.58,2.58,2.54,2.54,5.49-.11,11-.21,16.47,0,2.94.13,4.65-.93,6.42-3.23,18.76-24.39,51-24.9,70.23-.94,2.84,3.54,5.61,4.8,9.74,3.94,4.73.06,9.47,0,14.2.19,1.77.06,2.21-.51,2.37-2.29,1.59-18.28-2.47-34.45-17-46.85-.38-.33-.68-.73-1-1.09-11.83-12-17.38-26.47-17.41-43.19,0-11.48-.1-22.95,0-34.43,0-2.24-.55-3.1-2.91-3-4.48.21-9,.16-13.45.21-10.74,0-21.47,0-32.2-.21-2.16,0-2.4.87-2.38,2.65.09,5.87.06,11.74,0,17.61C386.17,353.17,384.78,354.79,380.29,355.67Zm-75.05,38.8A68.61,68.61,0,0,1,319,395.79c2.23.49,2.86-.21,2.82-2.38-.09-6-.12-12,0-18,.05-2.37-.87-3-3.06-2.91-4.48.14-9,.08-13.46.1-3.6,0-7.2,0-10.8-.13-2.05-.09-2.87.56-2.83,2.73q.17,9.12,0,18.26c0,2.31.8,2.64,2.89,2.27C298.08,395.17,301.67,394.89,305.24,394.47ZM216,396.05q-20.24-.06-40.48-.11c-10.18,0-10.13,0-9.68,10.1.08,1.84.49,2.68,2.53,2.66,15.86-.11,31.73-.13,47.59-.18,2.37.06,4.73.16,7.09.16,9.83,0,9.77,0,9.48-9.9-.06-2-.47-3-2.7-2.88C225.21,396.06,220.6,396,216,396.05Zm204.76-102.8c-10.61,0-21.23-.06-31.84-.15-1.79,0-2.76.35-2.72,2.45.1,6.37.07,12.74,0,19.11,0,1.66.38,2.52,2.28,2.5,10.73-.11,21.47-.14,32.21-.2,4.61.07,9.22.09,13.83.22,2,.05,2.65-.82,2.63-2.69,0-6.24-.09-12.48,0-18.72.05-2.28-1-2.71-2.95-2.66C429.73,293.23,425.24,293.21,420.75,293.25Zm-222,31.43c-14.05-.53-27.61,9.81-31.5,24-2.22,8.1-1.15,16.39-1.28,24.6-.06,3.69-1.67,8.75.73,10.71s7.15.43,10.86.7c2.48.17,3.18-.65,3.13-3.12-.15-7.74-.1-15.49,0-23.23,0-4,1.92-6.06,5.94-6.12,8.37-.13,16.74,0,25.11-.05a9.91,9.91,0,0,1,4.29,1.15,9,9,0,0,1,1.88,6.27c0,7.37.06,14.74-.06,22.11,0,2.23.49,3.15,2.9,3a77,77,0,0,1,9,0c2,.09,2.87-.34,2.83-2.62-.14-8.62.16-17.25-.15-25.86C231.72,338.21,216,323.65,198.72,324.68ZM299.59,547.44c-2.32,4.15-4.11,4.95-8.53,3.6a52.37,52.37,0,0,1-12.59-5.65c-2.24-1.41-4.45-2.88-6.7-4.34-1.44,12.34,2.55,24.9-4.47,36.26h76.28c-6.85-10.81-3.11-22.76-4.61-34.44A61.32,61.32,0,0,1,322.62,551c-4.71,1.41-6.38.77-8.93-3.5-.3-4.05,1.8-6.2,5.52-7.27a44.27,44.27,0,0,0,18.21-10.71,5.35,5.35,0,0,0,2-4.19q-.08-33.54,0-67.07a4.64,4.64,0,0,0-1.34-3.7c-8.14-7.74-17.48-12.73-29-12.95-15.28-1.07-27.22,5.29-37,16.57-.76.88-.58,1.86-.58,2.83q0,30.68,0,61.35a5.59,5.59,0,0,0,1.53,4,44.16,44.16,0,0,0,20.92,13.77c2.81.83,4.95,2.23,5.87,5.12ZM456,529.62c-4.28-.78-7,.66-10,4.28-10.84,13.37-24.93,19.68-42.33,16.55-11.87-2.14-21-8.89-28.19-18.33-.94-1.23-1.53-2.72-3.67-2.67-6.36.15-12.74.07-19.11,0-1.28,0-2.11.16-2.09,1.77.12,11.37-.15,22.75.37,34.09.31,6.76,6.58,12.07,13.55,12.09,28.73.07,57.46,0,86.2-.07,2.74,0,5.49.22,8.22.08,7.26-.38,13.34-6.3,13.48-13.52.2-10.73,0-21.46.11-32.18,0-1.84-.6-2.33-2.35-2.28C465.48,529.6,460.74,529.58,456,529.62ZM243.75,467.33a4.75,4.75,0,0,0-.74-.12q-51.1,0-102.2-.08c-2.55,0-2.76,1-2.75,3.08.06,18.85.09,37.69,0,56.53,0,2.72.55,3.59,3.44,3.56,14.6-.17,29.2,0,43.8-.1,3.82,0,6.18,1.52,6.85,5.36-.91,4.55-2.48,5.9-7.1,5.91q-21.93,0-43.85,0c-1.66,0-3.19-.26-3.13,2.35.16,6.49-.14,13,.12,19.48.34,8.28,6.58,14.16,14.93,14.17q46.11.09,92.2,0c8.68,0,14.82-6.25,14.94-14.92.08-5.87-.14-11.75.08-17.61.11-2.77-.62-3.56-3.47-3.53-14.49.15-29,.08-43.48.06-4.6,0-6.07-1.27-7.17-5.89.81-4,3.3-5.43,7.26-5.4,10.1.09,20.2,0,30.3-.09,4.74,0,9.48,0,14.22.17,1.82,0,2.32-.56,2.31-2.33q-.07-29.22,0-58.45c0-1.78-.5-2.38-2.31-2.32C253.23,467.31,248.49,467.29,243.75,467.33Zm212.94,3.26c-.62-.07-1.24-.18-1.86-.2-11.82-.26-10.18,1.37-17.26-8.19-7.62-10.28-18.31-15.31-31.47-13-10.51,1.88-18,8.21-23.56,17a8,8,0,0,1-7.66,4.2c-7-.17-14,0-21-.09-2.3,0-3.32.43-3.29,3.07q.18,21,0,42c0,2.31.65,3,2.95,2.93,6.49-.15,13,.22,19.48-.14,4.82-.27,7.71,1.46,10.39,5.51,6.71,10.14,16,16.5,28.63,16.28s21.79-7.05,28.45-17.37c2-3.05,4.27-4.63,8-4.38,2.73.19,5.48-.05,8.23-.1,4.48,0,9,0,13.43.17,1.73.05,2.41-.44,2.4-2.28q-.09-21.67,0-43.33c0-1.84-.72-2.35-2.43-2.3C465.64,470.5,461.17,470.52,456.69,470.59ZM199.22,455.94c19.23,0,38.46-.05,57.7.05,2.52,0,3.49-.5,3.39-3.24-.22-5.86,0-11.74-.08-17.61-.08-9.14-6.13-15.19-15.36-15.21q-45.7-.06-91.42,0c-9.16,0-15.23,6.1-15.34,15.26-.07,5.61.16,11.24-.09,16.85-.14,3.07.68,4,3.87,4C161,455.86,180.11,455.94,199.22,455.94Zm72.25-13.2,2.94-2.11c11.46-8.08,24.09-11.77,38.15-10.26a53.5,53.5,0,0,1,24.36,8.89c2.26,1.52,3.11,1.07,2.85-1.53-.29-2.94,1.19-5.53,1.51-8.32.38-3.4,4.54-6.37,2.17-9.75-2.09-3-5.79-4.65-9.07-6.49a56.67,56.67,0,0,0-64.12,5.94c-.93.79-2.83,1.33-1.82,3.14C271.91,428.45,271.59,435.23,271.47,442.74Zm-79.65-69.83c0,3.61.05,6.61,0,9.61,0,1.58.53,2.24,2.17,2.2,3.37-.09,6.74-.12,10.11,0,2,.07,2.58-.76,2.55-2.64-.09-4.62,0-9.24,0-13.87,0-4.81,0-4.89-4.82-4.78-3.2.08-7.33-1.41-9.34.68S192.11,370.32,191.82,372.91Z" transform="translate(-126.8 -204.75)"/><path class="cls-2" d="M380.29,355.67c4.49-.88,5.88-2.5,5.91-7.09,0-5.87.06-11.74,0-17.61,0-1.78.22-2.68,2.38-2.65,10.73.16,21.46.16,32.2.21.41,14.93-.84,29.89.75,44.8a50.78,50.78,0,0,0,6.71,20.73c4.15,7,10.19,12.49,15.54,18.52a47.32,47.32,0,0,1,10.88,19.27c2.43,9,.94,18.09,1.38,27.12-4.13.86-6.9-.4-9.74-3.94-19.27-24-51.47-23.45-70.23.94-1.77,2.3-3.48,3.36-6.42,3.23-5.48-.24-11-.14-16.47,0-2,0-2.62-.57-2.54-2.54.21-5.73,0-11.49.45-17.21.68-8.61,4.42-16,10.1-22.43,5.1-5.8,10.78-11.11,15.14-17.56a53.89,53.89,0,0,0,8.49-21.35c.85-4.92,0-6.33-4.55-8.38Q380.26,362.68,380.29,355.67Z" transform="translate(-126.8 -204.75)"/><path class="cls-3" d="M456.72,518.1c-2.75,0-5.5.29-8.23.1-3.7-.25-6,1.33-8,4.38-6.66,10.32-15.71,17.14-28.45,17.37s-21.92-6.14-28.63-16.28c-2.68-4-5.57-5.78-10.39-5.51-6.48.36-13,0-19.48.14-2.3.05-3-.62-2.95-2.93q.15-21,0-42c0-2.64,1-3.1,3.29-3.07,7,.11,14-.08,21,.09a8,8,0,0,0,7.66-4.2c5.54-8.79,13-15.12,23.56-17,13.16-2.34,23.85,2.69,31.47,13,7.08,9.56,5.44,7.93,17.26,8.19.62,0,1.24.13,1.86.2Zm-45.24-51.22h0c-3.87,0-7.74-.11-11.61,0-3.52.13-5.89,2.47-5.94,5.49a5.63,5.63,0,0,0,5.77,5.67q11.79.27,23.58,0c3.83-.08,6-2.52,5.82-5.9-.14-3.19-2.27-5.18-6-5.31S415.35,466.88,411.48,466.88Zm.26,43.75c-4,0-8-.08-12,0-3.31.08-5.62,2.24-5.83,5.17a5.61,5.61,0,0,0,5.49,5.94q12.16.29,24.34,0a5.33,5.33,0,0,0,5.34-6c-.19-3.08-2.28-5-5.75-5.14C419.49,510.55,415.61,510.63,411.74,510.63Zm.05-21.85c-3.87,0-7.74-.08-11.6,0s-6.25,2.36-6.26,5.51,2.51,5.61,6.2,5.67q11.42.16,22.83,0c3.92-.06,6.12-2.25,6.14-5.6s-2.1-5.47-6.08-5.58C419.28,488.7,415.54,488.78,411.79,488.78Z" transform="translate(-126.8 -204.75)"/><path class="cls-4" d="M299.79,545.2c-.92-2.89-3.06-4.29-5.87-5.12A44.16,44.16,0,0,1,273,526.31a5.59,5.59,0,0,1-1.53-4q.07-30.67,0-61.35c0-1-.18-1.95.58-2.83,9.75-11.28,21.69-17.64,37-16.57.81,1.34,2.21,1.93,3.45,2.72a47.52,47.52,0,0,1,12.65,12,59.59,59.59,0,0,1,.13,70.61C318.78,535.66,310.44,542.07,299.79,545.2Z" transform="translate(-126.8 -204.75)"/><path class="cls-5" d="M206.19,535.58c1.1,4.62,2.57,5.88,7.17,5.89,14.49,0,29,.09,43.48-.06,2.85,0,3.58.76,3.47,3.53-.22,5.86,0,11.74-.08,17.61-.12,8.67-6.26,14.9-14.94,14.92q-46.09.09-92.2,0c-8.35,0-14.59-5.89-14.93-14.17-.26-6.48,0-13-.12-19.48-.06-2.61,1.47-2.35,3.13-2.35q21.92,0,43.85,0c4.62,0,6.19-1.36,7.1-5.91Z" transform="translate(-126.8 -204.75)"/><path class="cls-6" d="M206.19,535.58l-14.07,0c-.67-3.84-3-5.38-6.85-5.36-14.6.06-29.2-.07-43.8.1-2.89,0-3.46-.84-3.44-3.56.12-18.84.09-37.68,0-56.53,0-2.07.2-3.08,2.75-3.08q51.09.15,102.2.08a4.75,4.75,0,0,1,.74.12v14.74c-1.5,0-3,.11-4.48.11-11.6,0-23.2,0-34.79,0-3.63,0-5.81,2.13-5.91,5.36s2.07,5.49,5.54,5.82c1.11.11,2.24,0,3.36,0l36.28.12v10.32c-2.12,0-4.24.11-6.35.11-11,0-22,0-32.92,0-3.57,0-5.82,2.21-5.91,5.39a5.51,5.51,0,0,0,5.16,5.77,24.83,24.83,0,0,0,3,.06l37,.11v14.73c-10.1,0-20.2.18-30.3.09C209.49,530.15,207,531.61,206.19,535.58Zm-36.47-15.7a21.23,21.23,0,1,0-21.28-21.05A21.23,21.23,0,0,0,169.72,519.88Z" transform="translate(-126.8 -204.75)"/><path class="cls-5" d="M199.22,455.94c-19.11,0-38.22-.08-57.33.08-3.19,0-4-.9-3.87-4,.25-5.61,0-11.24.09-16.85.11-9.16,6.18-15.25,15.34-15.26q45.7-.07,91.42,0c9.23,0,15.28,6.07,15.36,15.21.06,5.87-.14,11.75.08,17.61.1,2.74-.87,3.26-3.39,3.24C237.68,455.89,218.45,455.94,199.22,455.94Z" transform="translate(-126.8 -204.75)"/><path class="cls-2" d="M450.75,577.37c-28.74,0-57.47.14-86.2.07-7,0-13.24-5.33-13.55-12.09-.52-11.34-.25-22.72-.37-34.09,0-1.61.81-1.78,2.09-1.77,6.37,0,12.75.11,19.11,0,2.14-.05,2.73,1.44,3.67,2.67,7.23,9.44,16.32,16.19,28.19,18.33,17.4,3.13,31.49-3.18,42.33-16.55,2.94-3.62,5.7-5.06,10-4.28,0,10.55-.25,21.1.11,31.64A22.79,22.79,0,0,1,450.75,577.37Z" transform="translate(-126.8 -204.75)"/><path class="cls-7" d="M395.39,210.71h14c.9,3.9,3.38,5.42,7.32,5.34,5.84-.13,11.69,0,17.53.08,6.11,6.19,12,12.6,18.38,18.5,4.73,4.39,7.29,9.28,6.37,15.77l-27.35.13c-4.94,0-6.38,1.16-7.55,5.9l-10.86.05c-4.31,0-5.18.87-5.22,5.31-.05,6.61,0,13.22-.05,19.84-9,.69-9,.69-9-8.15,0-8.11-.11-16.23.05-24.34.08-4.1-1.53-6.45-5.49-7.71-11.39-3.6-22.71-7.42-34-11.17a47.08,47.08,0,0,1-4.9-1.8c-4.21-1.93-5.7-4.21-4.95-7.31s3.58-5.13,7.73-5.14c10.23,0,20.47-.08,30.7,0C392,216.09,394.54,214.69,395.39,210.71Z" transform="translate(-126.8 -204.75)"/><path class="cls-8" d="M456,459c-.44-9,1.05-18.15-1.38-27.12a47.32,47.32,0,0,0-10.88-19.27c-5.35-6-11.39-11.49-15.54-18.52a50.78,50.78,0,0,1-6.71-20.73c-1.59-14.91-.34-29.87-.75-44.8,4.48,0,9,0,13.45-.21,2.36-.11,2.92.75,2.91,3-.08,11.48,0,22.95,0,34.43,0,16.72,5.58,31.22,17.41,43.19.35.36.65.76,1,1.09,14.54,12.4,18.6,28.57,17,46.85-.16,1.78-.6,2.35-2.37,2.29C465.48,459,460.74,459,456,459Z" transform="translate(-126.8 -204.75)"/><path class="cls-9" d="M313.69,547.45c2.55,4.27,4.22,4.91,8.93,3.5A61.32,61.32,0,0,0,339,542.87c1.5,11.68-2.24,23.63,4.61,34.44H267.3c7-11.36,3-23.92,4.47-36.26,2.25,1.46,4.46,2.93,6.7,4.34A52.37,52.37,0,0,0,291.06,551c4.42,1.35,6.21.55,8.53-3.6A41.21,41.21,0,0,0,313.69,547.45Z" transform="translate(-126.8 -204.75)"/><path class="cls-9" d="M271.47,442.74c.12-7.51.44-14.29-3-20.49-1-1.81.89-2.35,1.82-3.14a56.67,56.67,0,0,1,64.12-5.94c3.28,1.84,7,3.5,9.07,6.49,2.37,3.38-1.79,6.35-2.17,9.75-.32,2.79-1.8,5.38-1.51,8.32.26,2.6-.59,3-2.85,1.53a53.5,53.5,0,0,0-24.36-8.89c-14.06-1.51-26.69,2.18-38.15,10.26Z" transform="translate(-126.8 -204.75)"/><path class="cls-10" d="M216,353.34a9.91,9.91,0,0,0-4.29-1.15c-8.37,0-16.74-.08-25.11.05-4,.06-5.9,2.09-5.94,6.12-.07,7.74-.12,15.49,0,23.23.05,2.47-.65,3.29-3.13,3.12-3.71-.27-8.59,1.16-10.86-.7s-.79-7-.73-10.71c.13-8.21-.94-16.5,1.28-24.6,3.89-14.21,17.45-24.55,31.5-24a8.79,8.79,0,0,0,1.2,1.37C209,333,214.76,341.81,216,353.34Z" transform="translate(-126.8 -204.75)"/><path class="cls-11" d="M243.75,530.09V515.36c3.23-.68,5.46-2.33,5.37-5.94-.08-3.42-2.28-4.95-5.37-5.54V493.56c3.13-.79,5.5-2.32,5.37-6-.11-3.41-2.24-5-5.37-5.51V467.33c4.74,0,9.48,0,14.22-.17,1.81-.06,2.32.54,2.31,2.32q-.07,29.22,0,58.45c0,1.77-.49,2.38-2.31,2.33C253.23,530.11,248.49,530.14,243.75,530.09Z" transform="translate(-126.8 -204.75)"/><path class="cls-7" d="M216,353.34c-1.21-11.53-7-20.38-16.05-27.29a8.79,8.79,0,0,1-1.2-1.37c17.32-1,33,13.53,33.64,31.53.31,8.61,0,17.24.15,25.86,0,2.28-.83,2.71-2.83,2.62a77,77,0,0,0-9,0c-2.41.17-2.94-.75-2.9-3,.12-7.37,0-14.74.06-22.11A9,9,0,0,0,216,353.34Z" transform="translate(-126.8 -204.75)"/><path class="cls-12" d="M313.69,547.45a41.21,41.21,0,0,1-14.1,0c.07-.74.14-1.49.2-2.24,10.65-3.13,19-9.54,25.5-18.36a59.59,59.59,0,0,0-.13-70.61,47.52,47.52,0,0,0-12.65-12c-1.24-.79-2.64-1.38-3.45-2.72,11.48.22,20.82,5.21,29,12.95a4.64,4.64,0,0,1,1.34,3.7q0,33.53,0,67.07a5.35,5.35,0,0,1-2,4.19,44.27,44.27,0,0,1-18.21,10.71C315.49,541.25,313.39,543.4,313.69,547.45Z" transform="translate(-126.8 -204.75)"/><path class="cls-13" d="M420.69,317c-10.74.06-21.48.09-32.21.2-1.9,0-2.29-.84-2.28-2.5.06-6.37.09-12.74,0-19.11,0-2.1.93-2.47,2.72-2.45,10.61.09,21.23.11,31.84.15Z" transform="translate(-126.8 -204.75)"/><path class="cls-8" d="M450.75,577.37a22.79,22.79,0,0,0,5.36-16.11c-.36-10.54-.11-21.09-.11-31.64,4.74,0,9.48,0,14.21-.15,1.75-.05,2.37.44,2.35,2.28-.08,10.72.09,21.45-.11,32.18-.14,7.22-6.22,13.14-13.48,13.52C456.24,577.59,453.49,577.41,450.75,577.37Z" transform="translate(-126.8 -204.75)"/><path class="cls-14" d="M456.72,518.1l0-47.51c4.48-.07,8.95-.09,13.43-.23,1.71-.05,2.43.46,2.43,2.3q-.09,21.66,0,43.33c0,1.84-.67,2.33-2.4,2.28C465.68,518.14,461.2,518.15,456.72,518.1Z" transform="translate(-126.8 -204.75)"/><path class="cls-13" d="M216,408.52c-15.86.05-31.73.07-47.59.18-2,0-2.45-.82-2.53-2.66-.45-10.11-.5-10.12,9.68-10.1q20.24,0,40.48.11Q216,402.29,216,408.52Z" transform="translate(-126.8 -204.75)"/><path class="cls-2" d="M459,250.4c.92-6.49-1.64-11.38-6.37-15.77-6.37-5.9-12.27-12.31-18.38-18.5,3.87,0,7.73,0,11.59-.16a4.4,4.4,0,0,1,3.53,1.66c8.13,8.26,16.23,16.56,24.49,24.7,2.3,2.26,1.43,4.82,1.44,7.31,0,1.22-1.31.87-2.09.86C468.46,250.5,463.73,250.44,459,250.4Z" transform="translate(-126.8 -204.75)"/><path class="cls-2" d="M408,281.63c0-6.62,0-13.23.05-19.84,0-4.44.91-5.28,5.22-5.31l10.86-.05c.07,7.73.11,15.46.23,23.19,0,1.59-.5,2.25-2.15,2.21C417.44,281.71,412.7,281.69,408,281.63Z" transform="translate(-126.8 -204.75)"/><path class="cls-15" d="M420.69,317l.06-23.71c4.49,0,9,0,13.47-.14,1.95-.05,3,.38,2.95,2.66-.11,6.24-.07,12.48,0,18.72,0,1.87-.67,2.74-2.63,2.69C429.91,317.05,425.3,317,420.69,317Z" transform="translate(-126.8 -204.75)"/><path class="cls-15" d="M305.28,372.65c4.49,0,9,0,13.46-.1,2.19-.07,3.11.54,3.06,2.91-.14,6-.11,12,0,18,0,2.17-.59,2.87-2.82,2.38a68.61,68.61,0,0,0-13.72-1.32Q305.26,383.56,305.28,372.65Z" transform="translate(-126.8 -204.75)"/><path class="cls-13" d="M305.28,372.65q0,10.91,0,21.82c-3.57.42-7.16.7-10.7,1.31-2.09.37-2.93,0-2.89-2.27q.17-9.13,0-18.26c0-2.17.78-2.82,2.83-2.73C298.08,372.66,301.68,372.62,305.28,372.65Z" transform="translate(-126.8 -204.75)"/><path class="cls-5" d="M191.82,372.91c.29-2.59-1.39-6.7.62-8.79s6.14-.6,9.34-.68c4.81-.11,4.82,0,4.82,4.78,0,4.63-.06,9.25,0,13.87,0,1.88-.53,2.71-2.55,2.64-3.37-.13-6.74-.1-10.11,0-1.64,0-2.2-.62-2.17-2.2C191.87,379.52,191.82,376.52,191.82,372.91Z" transform="translate(-126.8 -204.75)"/><path class="cls-15" d="M216,408.52q0-6.24,0-12.47c4.61,0,9.22,0,13.83-.15,2.23-.08,2.64.89,2.7,2.88.29,9.91.35,9.92-9.48,9.9C220.68,408.68,218.32,408.58,216,408.52Z" transform="translate(-126.8 -204.75)"/><path class="cls-1" d="M411.48,466.88c3.87,0,7.74-.1,11.6,0s5.88,2.12,6,5.31c.15,3.38-2,5.82-5.82,5.9q-11.79.24-23.58,0a5.63,5.63,0,0,1-5.77-5.67c.05-3,2.42-5.36,5.94-5.49,3.87-.15,7.74,0,11.61,0Z" transform="translate(-126.8 -204.75)"/><path class="cls-1" d="M411.74,510.63c3.87,0,7.75-.08,11.61,0,3.47.09,5.56,2.06,5.75,5.14a5.33,5.33,0,0,1-5.34,6q-12.17.29-24.34,0a5.61,5.61,0,0,1-5.49-5.94c.21-2.93,2.52-5.09,5.83-5.17C403.75,510.55,407.75,510.63,411.74,510.63Z" transform="translate(-126.8 -204.75)"/><path class="cls-1" d="M411.79,488.78c3.75,0,7.49-.08,11.23,0,4,.11,6.11,2.14,6.08,5.58s-2.22,5.54-6.14,5.6q-11.41.16-22.83,0c-3.69-.06-6.21-2.53-6.2-5.67s2.47-5.41,6.26-5.51S407.92,488.78,411.79,488.78Z" transform="translate(-126.8 -204.75)"/><path class="cls-1" d="M169.72,519.88a21.23,21.23,0,0,1-.3-42.45,21.23,21.23,0,1,1,.3,42.45Zm0-31a9.86,9.86,0,0,0-.25,19.71,10,10,0,0,0,10.19-9.74A9.85,9.85,0,0,0,169.69,488.84Z" transform="translate(-126.8 -204.75)"/><path class="cls-1" d="M243.75,482.07c3.13.52,5.26,2.1,5.37,5.51.13,3.66-2.24,5.19-5.37,6l-36.28-.12c-1.12,0-2.25.07-3.36,0-3.47-.33-5.64-2.65-5.54-5.82s2.28-5.34,5.91-5.36c11.59-.06,23.19,0,34.79,0C240.76,482.18,242.25,482.11,243.75,482.07Z" transform="translate(-126.8 -204.75)"/><path class="cls-1" d="M243.75,503.88c3.09.59,5.29,2.12,5.37,5.54.09,3.61-2.14,5.26-5.37,5.94l-37-.11a24.83,24.83,0,0,1-3-.06,5.51,5.51,0,0,1-5.16-5.77c.09-3.18,2.34-5.37,5.91-5.39,11-.07,21.94,0,32.92,0C239.51,504,241.63,503.92,243.75,503.88Z" transform="translate(-126.8 -204.75)"/><path class="cls-5" d="M169.69,488.84a9.85,9.85,0,0,1,9.94,10,10,10,0,0,1-10.19,9.74,9.86,9.86,0,0,1,.25-19.71Z" transform="translate(-126.8 -204.75)"/></svg>