<svg id="Layer_1" data-name="Layer 1" xmlns="http://www.w3.org/2000/svg" viewBox="0 0 280.16 409.67"><defs><style>.cls-1{fill:#030303;}.cls-2{fill:#040404;}.cls-3{fill:#979798;}.cls-4{fill:#c1c1c1;}.cls-5{fill:#f94b54;}.cls-6{fill:#8b8a8a;}.cls-7{fill:#676767;}.cls-8{fill:#666;}</style></defs><title>telecommunications</title><path class="cls-1" d="M216.8,601.6c-.57-1.13-1.84-.91-2.76-1.36-5.72-2.84-9.11-7.28-9.37-13.75-.18-4.52-.2-9.06-.08-13.59.25-9.86,6.51-16,16.4-16.31,6-.18,6-.18,6.43-6.15.61-9.35,6.28-15.18,15.82-15.71,2.56-.15,3.33-1.12,3.95-3.27q25.26-86.91,50.67-173.78c.68-2.31.58-3.35-1.76-4.62a21.26,21.26,0,0,1-10.73-24.36,21.67,21.67,0,0,1,42.18.32,21.36,21.36,0,0,1-10.8,24c-2.26,1.24-2.53,2.22-1.84,4.6q25.45,86.85,50.69,173.77c.61,2.12,1.28,3.18,3.9,3.33,10.17.57,15.87,6.82,15.82,17.26,0,3.42.53,4.78,4.45,4.71,12.57-.26,18.45,5.86,18.48,18.55v6.8c0,11.49-2.73,15.57-13.05,19.55H372c-1.12-1.84-3.19-3.1-3.29-5.55.77-4.85,2.48-6.38,7.39-6.45,3.19-.05,6.39,0,9.58,0,11,0,11.17-.17,10.33-11.19.78-9.31.35-9.79-8.85-9.79H224.44c-7.64,0-8.05.42-7.85,8.22a14,14,0,0,0,.2,1.57c-.07.67-.17,1.32-.18,2-.17,9.13-.09,9.2,8.92,9.2H349.84c5.71,0,7.31,1.34,8.05,6.55-.17,2.81-2.28,4.09-4.29,5.45Zm144.09-45.17c2.51.06,5,.16,7.53.17,5.33,0,5.51-.26,5-5.57-.29-2.87-1.75-4.35-4.58-4.39-2.64,0-5.28.08-7.91.14-3,0-6.14-.44-9.13-.07-4.58.58-3.67,4.36-3.8,7.48-.14,3.52,2.46,2.4,4.18,2.44C355.06,556.71,358,556.51,360.89,556.43Zm-108.77-9.62c-2.64-.1-5.29-.36-7.92-.24-3.9.17-4.9,2-4.94,7,0,4.12,2.76,3.06,4.92,3.1,2.64.05,5.29-.14,7.94-.22,3.44.06,6.88.13,10.32.17.76,0,1.92.21,2.09-.66a12.76,12.76,0,0,0-.2-7c-.72-1.84-2.47-2.3-4.28-2.29C257.41,546.63,254.77,546.74,252.12,546.81Zm54.05,9.78c8.66,0,17.33-.15,26,.08,3.16.08,4-.81,3.92-3.94-.14-11.08,4.6-16.61,15.4-18,2.51-.32,2.4-1.15,1.81-3-1.06-3.29-2.11-6.59-2.88-10a10.7,10.7,0,0,0-4.59-6.6Q327.3,502,309,488.43c-1.93-1.43-3.18-1.52-5.16,0-9.92,7.4-19.67,15.1-30.08,21.77C266.21,515,261.58,521,260,529.76c-.65,3.48-1,4.92,3.29,5.31,7.13.64,12.22,5.9,13.34,12.82a20.45,20.45,0,0,1,.18,5.18c-.29,2.71.52,3.66,3.43,3.59C288.84,556.46,297.51,556.59,306.17,556.59Zm21.14-101.35a3.58,3.58,0,0,1-1-.55c-6.22-5.42-12.47-10.82-18.61-16.33-1.32-1.17-2-.54-3,.3-6,5.28-12,10.57-18.05,15.77-1.56,1.33-1.45,2.06.2,3.22q8.82,6.21,17.43,12.68c1.57,1.17,2.65,1.13,4.19,0,5.75-4.3,11.61-8.46,17.39-12.72C326.47,457.16,327.43,457,327.31,455.24Zm-20.54-82.6-.75,0c-2.76,9.33-4.94,18.89-8.45,27.94-3.05,7.86-1.88,13.16,5.27,17.87,3,2,4.19,1.86,7.15,0,7.27-4.68,8.2-10.08,5.22-17.88C311.75,391.5,309.53,382,306.77,372.64ZM269.16,498.86c9-6.54,17.16-12.46,25.29-18.39.82-.6,2-1.11.36-2.27-5.35-3.82-10.63-7.72-16.19-11.78C275.47,477.21,272.47,487.49,269.16,498.86Zm65-32.43-11.66,8.46c-5.93,4.31-5.93,4.31,0,8.61l21.14,15.36C340.33,487.51,337.34,477.24,334.18,466.43ZM316.09,333.81a9.7,9.7,0,1,0-19.39.18c0,5.28,4.83,10,10,9.83A10.09,10.09,0,0,0,316.09,333.81ZM291,423.94c-1.37,4.74-2.62,9.07-4.16,14.37,2.22-1.88,3.64-3.05,5-4.26C297.49,429.09,297.49,429.08,291,423.94Zm30.77-.14c-2,1.69-3.4,3-4.95,4.25-1.16.92-1,1.58.06,2.46,2.8,2.36,5.53,4.79,9.13,7.93Z" transform="translate(-166.31 -191.93)"/><path class="cls-2" d="M407.6,332.35C405.92,372.66,388,403,352.15,422.42c-4.46,2.41-7.87,1.76-9.68-1.6s-.48-6.57,4-8.91c17.07-8.86,30.26-21.69,39-38.82,26.37-51.8-1.67-113.17-58.07-127.43C277.21,233,225.13,268.1,218.34,319.22c-5.13,38.68,12.86,73.84,47.2,92.22.47.25.95.49,1.41.75,3.87,2.25,5.1,5.33,3.41,8.55s-5.05,4.05-8.95,2.1a96.11,96.11,0,0,1-23.27-16c-24.36-22.94-35.08-51.27-32.4-84.48,3.58-44.48,39.8-83,83.93-89.7,47.09-7.19,90.26,16.23,109.57,59.65A98.22,98.22,0,0,1,407.6,332.35Z" transform="translate(-166.31 -191.93)"/><path class="cls-2" d="M166.32,333.9c.34-68.64,45.46-124.29,111.43-138.59,41.57-9,79.44.16,113.49,25.47,3.43,2.55,4.27,6.11,2.26,9s-5.82,3.34-9.52.55a128.7,128.7,0,0,0-50.6-23.48c-64.26-13.93-130.6,25.08-149.63,88a128.26,128.26,0,0,0,68.5,153.47c1.32.62,2.65,1.22,3.93,1.92,3.42,1.89,4.69,4.94,3.36,7.93-1.45,3.27-4.66,4.44-8.41,2.84a132,132,0,0,1-28-16q-47-35.56-55.57-94A110.14,110.14,0,0,1,166.32,333.9Z" transform="translate(-166.31 -191.93)"/><path class="cls-2" d="M244.78,332.4A61.63,61.63,0,0,1,300.5,271c31.6-3,60.85,18.53,66.38,49.69,4.36,24.53-3.87,44.79-23,60.6a23.27,23.27,0,0,1-5.11,3.09c-2.89,1.33-5.55.81-7.33-2a5.52,5.52,0,0,1,1-7.58,24.41,24.41,0,0,1,2.83-2.21c18.12-13.25,25.43-36.22,18.05-56.74s-27.66-34.44-48.69-33.21c-23.12,1.35-42.05,16.74-46.56,39.1-4.09,20.31,2.41,37.26,18.78,50.22,1.05.82,2.19,1.53,3.18,2.41,2.82,2.51,3.25,5.84,1.17,8.5a6.14,6.14,0,0,1-8.29,1,61.3,61.3,0,0,1-24.09-30A62.56,62.56,0,0,1,244.78,332.4Z" transform="translate(-166.31 -191.93)"/><path class="cls-2" d="M446.46,331.71c.57,55.46-33.32,107.37-84.28,129.09-4.07,1.74-7.25.82-8.82-2.53s-.34-6.5,3.77-8.34a129.06,129.06,0,0,0,42.78-30.16c19.35-20.88,30.83-45.44,33.7-73.78,3.79-37.49-7-70.45-31.65-98.89a35.33,35.33,0,0,1-2.25-2.8c-2.17-3.11-1.79-6.45.89-8.5s5.85-1.72,8.52,1.22a139.76,139.76,0,0,1,37.34,94.69Z" transform="translate(-166.31 -191.93)"/><path class="cls-3" d="M368.71,596.05a47.74,47.74,0,0,0-10.82.1c-.74-5.21-2.34-6.55-8.05-6.55H225.53c-9,0-9.09-.07-8.92-9.2,0-.67.11-1.32.18-2,3.64,1,7.37.78,11.09.78h157c3.72,0,7.45.18,11.09-.78.84,11,.68,11.19-10.33,11.19-3.19,0-6.39,0-9.58,0C371.19,589.67,369.48,591.2,368.71,596.05Z" transform="translate(-166.31 -191.93)"/><path class="cls-4" d="M396,578.4c-3.64,1-7.37.78-11.09.78h-157c-3.72,0-7.45.18-11.09-.78a14,14,0,0,1-.2-1.57c-.2-7.8.21-8.22,7.85-8.22H387.16C396.36,568.61,396.79,569.09,396,578.4Z" transform="translate(-166.31 -191.93)"/><path class="cls-5" d="M316.09,333.81a10.09,10.09,0,0,1-9.4,10c-5.16.21-10-4.55-10-9.83a9.7,9.7,0,1,1,19.39-.18Z" transform="translate(-166.31 -191.93)"/><path class="cls-6" d="M252.12,546.81c2.65-.07,5.29-.18,7.93-.2,1.81,0,3.56.45,4.28,2.29a12.76,12.76,0,0,1,.2,7c-.17.87-1.33.66-2.09.66-3.44,0-6.88-.11-10.32-.17Z" transform="translate(-166.31 -191.93)"/><path class="cls-7" d="M360.89,556.43c-2.91.08-5.83.28-8.74.2-1.72,0-4.32,1.08-4.18-2.44.13-3.12-.78-6.9,3.8-7.48,3-.37,6.08,0,9.12.07Z" transform="translate(-166.31 -191.93)"/><path class="cls-8" d="M252.12,546.81v9.62c-2.65.08-5.3.27-7.94.22-2.16,0-5,1-4.92-3.1,0-5,1-6.81,4.94-7C246.83,546.45,249.48,546.71,252.12,546.81Z" transform="translate(-166.31 -191.93)"/><path class="cls-6" d="M360.89,556.43v-9.65c2.64-.06,5.28-.18,7.92-.14,2.83,0,4.29,1.52,4.58,4.39.54,5.31.36,5.6-5,5.57C365.91,556.59,363.4,556.49,360.89,556.43Z" transform="translate(-166.31 -191.93)"/></svg>