<svg id="Layer_1" data-name="Layer 1" xmlns="http://www.w3.org/2000/svg" viewBox="0 0 384 384"><defs><style>.cls-1{fill:#030303;}.cls-2{fill:#a9a9a9;}.cls-3{fill:#c894e3;}.cls-4{fill:#e2c6f0;}.cls-5{fill:#d3aeea;}.cls-6{fill:#d2ade8;}.cls-7{fill:#ba7fdf;}.cls-8{fill:#ab65d5;}.cls-9{fill:#c794e2;}.cls-10{fill:#030204;}.cls-11{fill:#e1c6ef;}</style></defs><title>decorative-textile</title><path class="cls-1" d="M170.25,588.75H168c-.29-1-1.17-.7-1.84-.78-25.77-3.43-44.42-20.43-50.3-45.79-.23-1,.24-2.34-1.11-2.93v-237c1.3-2.3,3.06-3.94,5.86-4.09,4.54,1.44,5.39,2.69,5.39,8q0,92.79,0,185.56c0,1.28-.49,2.67.52,4a61.11,61.11,0,0,1,11.27-11c18.05-12.86,37.38-14.78,57.85-6.62A62.1,62.1,0,0,1,218.4,496.5V492q0-113.73,0-227.47c0-2,0-4-.15-6-1.53-24.49-25-44.28-49.49-41.68-17.9,0-36.39,15.35-41.26,34.19-2.11,8.13-1.4,16.39-1.43,24.61,0,3.95-1.44,6.47-5.42,7.28-2.78-.08-4.47-1.8-5.89-3.92V254.25c1.39-.72.93-2.2,1.2-3.29,5.81-23.58,20.53-38.26,43.94-44.41,2.69-.71,5.62-.26,8.11-1.8h6.75c.23.82.91.66,1.5.7,27.76,2.19,49.51,22.67,52.95,50.31.45,3.63,1.71,4,4.73,4q119.52-.11,239.05-.06c1.37,0,2.75,0,4.12,0,10.68.55,18.14,6.61,21,17,.08.29.43.51.66.76v294c-1.12.27-1,1.37-1.24,2.09-3.39,8.69-9.7,13.51-18.94,14.57a14.84,14.84,0,0,0-1.48-.15q-151.92,0-303.84,0C172.25,588,171,587.38,170.25,588.75Zm262.36-317q7.71,12.31,15.41,24.62,9,14.4-.06,28.76-5.68,9-11.43,17.93c-2.75,4.28-4.25,4.81-9,3.33-3-2.95-2.88-5.95-.59-9.35,3.89-5.8,7.49-11.79,11.32-17.63s3.8-11.57,0-17.46q-9.19-14.1-18.09-28.39a4.87,4.87,0,0,0-4.75-2.67c-12.74.12-25.49.05-38.23.09-.88,0-2-.54-2.81.67q7.81,12.25,15.66,24.55c6.2,9.73,6.14,19.46-.08,29.17-4.7,7.35-9.34,14.75-14.12,22.05-3.76,5.75-3.81,11.37-.06,17.13,4.83,7.42,9.57,14.9,14.32,22.38q9.14,14.4,0,28.84c-4.74,7.47-9.46,15-14.3,22.38-3.77,5.77-3.7,11.38,0,17.13,4.63,7.1,9.06,14.34,13.73,21.42,6.71,10.16,6.76,20.24.1,30.44-4.83,7.41-9.57,14.89-14.3,22.38A13.66,13.66,0,0,0,375.3,545c2,3.17,4.1,6.24,6.16,9.35,4.37,7,8.81,13.9,13.09,20.92,1,1.61,2.25,1.66,3.78,1.65q12.56,0,25.11,0h16.83L425.44,554.2a16,16,0,0,0-.84-1.65c-6.82-10.28-6.65-20.47.14-30.74,4.61-7,8.93-14.11,13.51-21.08,3.86-5.87,3.89-11.56,0-17.43-4.84-7.41-9.57-14.89-14.28-22.37-6-9.48-6-19,0-28.5,4.77-7.59,9.64-15.13,14.5-22.67,3.61-5.62,3.63-11.2,0-16.82Q432,382.89,425.6,372.79c-2.78-4.38-2.55-6.13,1.18-9.72,3.8-1,6.37.36,8.41,3.74,4.06,6.73,8.42,13.28,12.66,19.91q9.31,14.56,0,29.18c-4.69,7.36-9.34,14.76-14.12,22.08-3.84,5.89-3.78,11.61.07,17.48,4.73,7.2,9.28,14.51,13.93,21.76q9.48,14.76,0,29.5-7.27,11.34-14.49,22.73c-3,4.71-3.39,9.65-.61,14.54,2,3.55,4.44,6.89,6.68,10.32,4.45,7.08,8.93,14.12,13.29,21.25.94,1.53,2.21,1.36,3.55,1.36h18c9.64,0,13.3-3.68,13.3-13.36q0-75.56,0-151.12,0-64.68,0-129.37c0-7.7-4-11.91-11.65-12.11-3.62-.09-7.24.1-10.86.16-10.73-.32-21.47-.29-32.21,0l-.52.13ZM225,554.24c-4.4,8.54-9.94,16.2-18.1,22.38h62.62l-15.15-23.23a16.88,16.88,0,0,0-.82-1.65c-6.2-9.72-6.07-19.41.12-29.08,4.29-6.71,8.63-13.38,12.84-20.15,1.79-2.88,4.11-4.21,7.48-3.51,4.18,3.14,4.68,5.41,1.94,9.74-4.38,6.92-8.86,13.79-13.23,20.72-3.21,5.09-3.33,10.3-.12,15.45,2,3.16,4.06,6.22,6.11,9.33,4.37,7,8.81,13.86,13.08,20.88,1,1.73,2.38,1.84,4.06,1.83,9,0,18,0,27,0h14.82l-15.43-23.64c-7.7-11.69-6.62-22.88,1.45-34,4.31-5.95,7.9-12.41,12-18.55,3.88-5.88,3.87-11.57,0-17.46-4.86-7.4-9.57-14.91-14.3-22.4-6-9.5-5.95-19,.06-28.51,4.67-7.38,9.32-14.78,14.13-22.07,4-6,4-11.77,0-17.79-4.82-7.28-9.44-14.7-14.13-22.07q-9.17-14.42,0-28.84c4.75-7.47,9.46-15,14.3-22.4,3.68-5.64,3.75-11.14.1-16.81q-9.31-14.47-18.48-29.06a4.63,4.63,0,0,0-4.52-2.42c-12.87.1-25.74,0-38.62.08-.77,0-1.76-.48-2.45.78,5.1,8,10.23,16.1,15.43,24.16,6.35,9.84,6.38,19.64.06,29.49-4.71,7.36-9.33,14.78-14.12,22.08-3.79,5.78-3.74,11.38,0,17.13,4.5,6.9,8.75,14,13.35,20.79,7.17,10.63,7.24,21.08.09,31.74-4.65,6.95-9,14.11-13.54,21.12-3.68,5.64-3.68,11.16,0,16.8,3.95,6.06,7.7,12.26,11.7,18.29,2.08,3.12,2.26,6-.23,8.85-4.71,2-6.59,1.4-9.35-2.91q-5.87-9.14-11.68-18.31c-6.11-9.63-6-19.24.11-28.83,4.7-7.36,9.33-14.77,14.12-22.07,3.86-5.88,3.87-11.58,0-17.46-4.85-7.41-9.57-14.92-14.3-22.4-6-9.51-5.95-19,.05-28.51q7.21-11.38,14.5-22.72c3.54-5.51,3.62-10.95,0-16.48-4.34-6.7-8.57-13.48-12.9-20.19-2.43-3.76-4.18-8.88-7.66-10.77s-8.79-.24-13.24-.7c-4.06-.42-4.59,1.21-4.59,4.79q.15,123.15.14,246.29C229.73,533,229.3,543.87,225,554.24Zm101.64.18c4.39,7,8.84,13.87,13.13,20.89,1,1.61,2.27,1.63,3.79,1.63,7.74,0,15.48,0,23.22,0H382.4l-14.84-22.69a14.19,14.19,0,0,0-.81-1.66c-7-10.43-6.65-20.71.29-31.07,4.66-6.93,9-14.09,13.54-21.1,3.64-5.64,3.66-11.19,0-16.83q-7.3-11.31-14.5-22.71c-6-9.49-5.95-19,.05-28.5,4.6-7.28,9.15-14.59,13.94-21.74,4.16-6.22,4.26-12.19.07-18.44-4.78-7.16-9.32-14.47-13.94-21.74q-9.15-14.4,0-28.83c4.75-7.48,9.47-15,14.31-22.39,3.77-5.78,3.69-11.38,0-17.14q-9.25-14.29-18.29-28.73a4.57,4.57,0,0,0-4.48-2.47c-11,.12-22,.05-33,.05H319.1c5.69,8.95,11,17.23,16.25,25.53,6,9.5,6,19,0,28.51-4.46,7.07-8.79,14.24-13.55,21.1s-4.63,13.24.09,20c4.55,6.56,8.6,13.46,13,20.14,6.58,10.06,6.6,20.05.05,30.13-4.69,7.21-9.21,14.54-13.93,21.74-3.78,5.77-3.74,11.37,0,17.12,4.7,7.21,9.23,14.54,13.92,21.75,6.57,10.09,6.5,20.07-.08,30.13-4.78,7.31-9.39,14.73-14.11,22.07-3.46,5.39-3.5,10.77,0,16.16C322.61,548.39,324.61,551.39,326.59,554.42Zm-108.21-23.5a46.19,46.19,0,1,0-46.31,46A46.24,46.24,0,0,0,218.38,530.92Z" transform="translate(-114.75 -204.75)"/><path class="cls-2" d="M170.25,588.75c.72-1.37,2-.71,3-.71q151.92-.06,303.84,0a14.84,14.84,0,0,1,1.48.15.81.81,0,0,1-.07.59Z" transform="translate(-114.75 -204.75)"/><path class="cls-3" d="M120.61,298.16l0-15.24c4-.81,5.4-3.33,5.42-7.28,0-8.22-.68-16.48,1.43-24.61,4.87-18.84,23.36-34.22,41.26-34.19.45,1,1.45,1.33,2.27,1.87,16.73,11.06,24.68,26.83,24.71,46.67q.09,76,0,152.08,0,30.35-.07,60.68c-20.47-8.16-39.8-6.24-57.85,6.62a61.11,61.11,0,0,0-11.27,11c-1-1.37-.52-2.76-.52-4q0-92.78,0-185.56C126,300.85,125.15,299.6,120.61,298.16Z" transform="translate(-114.75 -204.75)"/><path class="cls-4" d="M274.47,482.2c2.49-2.89,2.31-5.73.23-8.85-4-6-7.75-12.23-11.7-18.29-3.68-5.64-3.68-11.16,0-16.8,4.57-7,8.89-14.17,13.54-21.12,7.15-10.66,7.08-21.11-.09-31.74-4.6-6.83-8.85-13.89-13.35-20.79-3.76-5.75-3.81-11.35,0-17.13,4.79-7.3,9.41-14.72,14.12-22.08,6.32-9.85,6.29-19.65-.06-29.49-5.2-8.06-10.33-16.16-15.43-24.16.69-1.26,1.68-.78,2.45-.78,12.88,0,25.75,0,38.62-.08a4.63,4.63,0,0,1,4.52,2.42q9.13,14.6,18.48,29.06c3.65,5.67,3.58,11.17-.1,16.81-4.84,7.42-9.55,14.93-14.3,22.4q-9.17,14.42,0,28.84c4.69,7.37,9.31,14.79,14.13,22.07,4,6,3.92,11.8,0,17.79-4.81,7.29-9.46,14.69-14.13,22.07-6,9.48-6.07,19-.06,28.51,4.73,7.49,9.44,15,14.3,22.4,3.87,5.89,3.88,11.58,0,17.46-4.07,6.14-7.66,12.6-12,18.55-8.07,11.14-9.15,22.33-1.45,34-1,1.41-2.48.94-3.79,1q-19.84,0-39.7,0c-2.05-3.11-4.15-6.17-6.11-9.33-3.21-5.15-3.09-10.36.12-15.45,4.37-6.93,8.85-13.8,13.23-20.72,2.74-4.33,2.24-6.6-1.94-9.74,1.88-1.26,1.8-3.26,2.09-5.2C276.64,489.75,274.76,486.09,274.47,482.2Z" transform="translate(-114.75 -204.75)"/><path class="cls-4" d="M426.78,363.07c-3.73,3.59-4,5.34-1.18,9.72q6.42,10.09,12.89,20.15c3.62,5.62,3.6,11.2,0,16.82-4.86,7.54-9.73,15.08-14.5,22.67-6,9.48-6,19,0,28.5,4.71,7.48,9.44,15,14.28,22.37,3.85,5.87,3.82,11.56,0,17.43-4.58,7-8.9,14.12-13.51,21.08-6.79,10.27-7,20.46-.14,30.74a16,16,0,0,1,.84,1.65l-44,.17c-2.06-3.11-4.19-6.18-6.16-9.35a13.66,13.66,0,0,1,.05-15.51c4.73-7.49,9.47-15,14.3-22.38,6.66-10.2,6.61-20.28-.1-30.44-4.67-7.08-9.1-14.32-13.73-21.42-3.74-5.75-3.81-11.36,0-17.13,4.84-7.41,9.56-14.91,14.3-22.38q9.15-14.42,0-28.84c-4.75-7.48-9.49-15-14.32-22.38-3.75-5.76-3.7-11.38.06-17.13,4.78-7.3,9.42-14.7,14.12-22.05,6.22-9.71,6.28-19.44.08-29.17q-7.81-12.3-15.66-24.55c.83-1.21,1.93-.67,2.81-.67,12.74,0,25.49,0,38.23-.09a4.87,4.87,0,0,1,4.75,2.67q8.91,14.28,18.09,28.39c3.84,5.89,3.9,11.59,0,17.46S430.86,331.23,427,337c-2.29,3.4-2.41,6.4.59,9.35C425.49,351.86,423.85,357.35,426.78,363.07Z" transform="translate(-114.75 -204.75)"/><path class="cls-5" d="M326.59,554.42c-2-3-4-6-5.93-9.07-3.45-5.39-3.41-10.77,0-16.16,4.72-7.34,9.33-14.76,14.11-22.07,6.58-10.06,6.65-20,.08-30.13-4.69-7.21-9.22-14.54-13.92-21.75-3.76-5.75-3.8-11.35,0-17.12,4.72-7.2,9.24-14.53,13.93-21.74,6.55-10.08,6.53-20.07-.05-30.13-4.37-6.68-8.42-13.58-13-20.14-4.72-6.79-4.85-13.17-.09-20s9.09-14,13.55-21.1c6-9.48,6-19,0-28.51-5.25-8.3-10.56-16.58-16.25-25.53h5.61c11,0,22,.07,33-.05a4.57,4.57,0,0,1,4.48,2.47q9,14.43,18.29,28.73c3.73,5.76,3.81,11.36,0,17.14-4.84,7.41-9.56,14.91-14.31,22.39q-9.15,14.4,0,28.83c4.62,7.27,9.16,14.58,13.94,21.74,4.19,6.25,4.09,12.22-.07,18.44-4.79,7.15-9.34,14.46-13.94,21.74-6,9.47-6,19-.05,28.5q7.2,11.4,14.5,22.71c3.65,5.64,3.63,11.19,0,16.83-4.54,7-8.88,14.17-13.54,21.1-6.94,10.36-7.29,20.64-.29,31.07a14.19,14.19,0,0,1,.81,1.66Z" transform="translate(-114.75 -204.75)"/><path class="cls-6" d="M274.47,482.2c.29,3.89,2.17,7.55,1.56,11.6-.29,1.94-.21,3.94-2.09,5.2-3.37-.7-5.69.63-7.48,3.51-4.21,6.77-8.55,13.44-12.84,20.15-6.19,9.67-6.32,19.36-.12,29.08a16.88,16.88,0,0,1,.82,1.65c-1,1.32-2.49.84-3.79.85-8.53,0-17.06,0-25.58,0,4.35-10.37,4.78-21.24,4.77-32.31q-.16-123.15-.14-246.29c0-3.58.53-5.21,4.59-4.79,4.45.46,9.74-1.2,13.24.7s5.23,7,7.66,10.77c4.33,6.71,8.56,13.49,12.9,20.19,3.58,5.53,3.5,11,0,16.48q-7.29,11.34-14.5,22.72c-6,9.48-6.07,19-.05,28.51,4.73,7.48,9.45,15,14.3,22.4,3.86,5.88,3.85,11.58,0,17.46-4.79,7.3-9.42,14.71-14.12,22.07-6.13,9.59-6.22,19.2-.11,28.83q5.82,9.16,11.68,18.31C267.88,483.6,269.76,484.17,274.47,482.2Z" transform="translate(-114.75 -204.75)"/><path class="cls-3" d="M465,271.13c3.62-.06,7.24-.25,10.86-.16,7.61.2,11.64,4.41,11.65,12.11q0,64.68,0,129.37,0,75.56,0,151.12c0,9.68-3.66,13.35-13.3,13.36h-18c-1.34,0-2.61.17-3.55-1.36-4.36-7.13-8.84-14.17-13.29-21.25,4.63,0,9.25,0,13.87-.06,6.92,0,11.77-4.84,11.77-11.74Q465,406.82,465,271.13Z" transform="translate(-114.75 -204.75)"/><path class="cls-5" d="M465,271.13q0,135.69,0,271.38c0,6.9-4.85,11.69-11.77,11.74-4.62,0-9.24,0-13.87.06-2.24-3.43-4.66-6.77-6.68-10.32-2.78-4.89-2.36-9.83.61-14.54q7.22-11.38,14.49-22.73,9.5-14.78,0-29.5c-4.65-7.25-9.2-14.56-13.93-21.76-3.85-5.87-3.91-11.59-.07-17.48,4.78-7.32,9.43-14.72,14.12-22.08q9.31-14.61,0-29.18c-4.24-6.63-8.6-13.18-12.66-19.91-2-3.38-4.61-4.73-8.41-3.74-2.93-5.72-1.29-11.21.78-16.69,4.72,1.48,6.22.95,9-3.33q5.75-8.94,11.43-17.93,9.09-14.36.06-28.76-7.71-12.3-15.41-24.62a.92.92,0,0,0,.16-.62C443.51,270.84,454.25,270.81,465,271.13Z" transform="translate(-114.75 -204.75)"/><path class="cls-7" d="M195.67,478.14q0-30.33.07-60.68,0-76,0-152.08c0-19.84-8-35.61-24.71-46.67-.82-.54-1.82-.86-2.27-1.87,24.46-2.6,48,17.19,49.49,41.68.13,2,.15,4,.15,6q0,113.73,0,227.47v4.52A62.1,62.1,0,0,0,195.67,478.14Z" transform="translate(-114.75 -204.75)"/><path class="cls-8" d="M218.38,530.92a46.19,46.19,0,1,1-46-46.39A46.06,46.06,0,0,1,218.38,530.92ZM202,530.63a29.75,29.75,0,1,0-29.59,29.86A29.68,29.68,0,0,0,202,530.63Z" transform="translate(-114.75 -204.75)"/><path class="cls-9" d="M225,554.24c8.52,0,17.05,0,25.58,0,1.3,0,2.76.47,3.79-.85l15.15,23.23H206.85C215,570.44,220.55,562.78,225,554.24Z" transform="translate(-114.75 -204.75)"/><path class="cls-5" d="M268.64,554.24q19.85,0,39.7,0c1.31,0,2.8.46,3.79-1l15.43,23.64H312.74c-9,0-18,0-27,0-1.68,0-3-.1-4.06-1.83C277.45,568.1,273,561.19,268.64,554.24Z" transform="translate(-114.75 -204.75)"/><path class="cls-5" d="M381.46,554.37l44-.17,14.83,22.73H423.44q-12.56,0-25.11,0c-1.53,0-2.8,0-3.78-1.65C390.27,568.27,385.83,561.34,381.46,554.37Z" transform="translate(-114.75 -204.75)"/><path class="cls-9" d="M326.59,554.42l41-.18,14.84,22.69H366.73c-7.74,0-15.48,0-23.22,0-1.52,0-2.8,0-3.79-1.63C335.43,568.29,331,561.37,326.59,554.42Z" transform="translate(-114.75 -204.75)"/><path class="cls-3" d="M432.77,271.12a.92.92,0,0,1-.16.62l-.36-.49Z" transform="translate(-114.75 -204.75)"/><path class="cls-10" d="M202,530.63A29.75,29.75,0,1,1,172.1,501,29.57,29.57,0,0,1,202,530.63Zm-11.24.13a18.5,18.5,0,1,0-18.58,18.49A18.45,18.45,0,0,0,190.72,530.76Z" transform="translate(-114.75 -204.75)"/><path class="cls-11" d="M190.72,530.76a18.5,18.5,0,1,1-18.59-18.52A18.35,18.35,0,0,1,190.72,530.76Z" transform="translate(-114.75 -204.75)"/></svg>