<svg id="Layer_1" data-name="Layer 1" xmlns="http://www.w3.org/2000/svg" viewBox="0 0 384 384"><defs><style>.cls-1{fill:#0f0d0e;}.cls-2{fill:#b8bbcc;}.cls-3{fill:#fb6f67;}.cls-4{fill:#e4e9ed;}.cls-5{fill:#d7dfe9;}.cls-6{fill:#f98f57;}.cls-7{fill:#9a9faf;}.cls-8{fill:#fd9158;}.cls-9{fill:#f56d65;}.cls-10{fill:#fc5076;}.cls-11{fill:#0e0b0c;}</style></defs><title>service</title><path class="cls-1" d="M435.75,588.75H424.5c-.2-.8-.88-.72-1.48-.79-35.88-4.33-62.25-36.29-59.35-71.81.15-1.93-.77-3-1.94-4.13-14.58-14.56-29.2-29.09-43.66-43.77-2.14-2.18-3.12-1.62-4.91.21-8.83,9-17.8,17.88-26.72,26.8q-41.61,41.6-83.2,83.21c-5.85,5.86-12.54,7.85-20.47,5-.77-.27-1.49-1-2.42-.28-3.89,3-8.52,4.2-13.1,5.54h-10.5c-3.6-2.35-8.3-2.77-11.35-6C134.32,571.26,120,562.38,114.75,546V534.75c1.94-3.83,2.74-8.2,5.54-11.62.74-.9,0-1.65-.29-2.41-2.77-7.77-1-14.45,4.78-20.2q12.19-12.18,24.39-24.38c3.57-3.55,5.16-3.74,9.52-1.28,2.13,3.57,1.43,6.55-1.6,9.32a101,101,0,0,0-7.88,8,6.61,6.61,0,0,0,.38,9.15,6.69,6.69,0,0,0,9.17.24,23.13,23.13,0,0,0,1.9-1.81l68.9-68.91a19,19,0,0,0,2.25-2.5,6.64,6.64,0,0,0-.81-8.57,6.49,6.49,0,0,0-8.55-.73,23.4,23.4,0,0,0-3,2.76q-21.89,21.84-43.7,43.75c-2.87,2.89-5.72,3.84-9.28,1.52-2.47-4.24-2.26-5.95,1.31-9.52Q201.36,423.92,235,390.3c1.51-1.5,2.73-2.39.47-4.61-14.86-14.63-29.56-29.43-44.26-44.22a5,5,0,0,0-4.29-1.53,67.31,67.31,0,0,1-69.27-49.19c-1.15-4.12-2-8.33-2.94-12.5v-12c1.46-1.06.87-2.75,1.06-4.09.8-5.6,3-10.05,8.75-11.86s10,.95,13.91,4.93c8.67,8.83,17.51,17.48,26.18,26.3,1.51,1.52,2.75,2,4.84,1.19,5-1.88,10.11-3.56,15.23-5.13a4.27,4.27,0,0,0,3.19-3.18c1.52-4.87,3.05-9.76,4.88-14.52,1-2.6.52-4.2-1.48-6.15-9.13-8.89-18.05-18-27.09-27-3.58-3.56-5.12-7.73-3.6-12.6,1.47-4.69,4.87-7.36,9.73-8.28,1-.19,2.34.25,2.9-1.14H190.5c.24.23.47.63.74.66,31.09,3,61.42,31.73,59,71.38-.14,2.23.89,3.41,2.23,4.75q32.5,32.46,64.91,65c2.25,2.27,3.28,2.1,5.43-.06,24.31-24.48,48.76-48.82,73.09-73.27,2.76-2.77,5.5-3.7,9-1.69,2.76,4.15,2.56,6.1-1.12,9.78l-71.3,71.3-21.74,21.74c-1,1-2.33,1.78-.51,3.47,4.4,4.06,8.6,8.34,12.88,12.53,3.88,4.51,3.88,4.51,8,.36q68.61-68.61,137.31-137.15c5.72-5.68,10.13-11.7,12.48-19.44,1.82-6,4.37-11.77,7-18.63L474,221.09c-2.91,1-5.79,2.24-8.76,3.08-4.93,1.4-8.74,4.24-12.3,7.9-10.05,10.36-20.35,20.47-30.57,30.67-3.67,3.65-5.51,3.82-9.75,1-1.9-3.47-1-6.23,1.74-9q17.17-16.92,34.09-34.08a23.22,23.22,0,0,1,8.71-5.52c9.15-3.37,18.22-6.95,27.33-10.44h5.25a15.88,15.88,0,0,1,9,9v6c-4.11,8.5-6.93,17.52-10.32,26.3a26.71,26.71,0,0,1-6.24,9.58Q419.57,318.14,357,380.68c-2.2,2.19-2.24,3.22,0,5.43q32.36,32.07,64.44,64.4a7.76,7.76,0,0,0,6.48,2.6c33-1.22,61,19.94,69,51.79.62,2.45.4,5.12,1.86,7.35v18c-1,.23-.81,1.13-.91,1.8-.81,5.22-3.29,9.22-8.51,10.83-5.56,1.71-9.82-.68-13.68-4.64-8.73-8.94-17.66-17.67-26.43-26.56-1.5-1.52-2.75-2-4.88-1.18-5,1.89-10.13,3.49-15.24,5.08a4.29,4.29,0,0,0-3.19,3.18c-1.53,5-3.18,10-5,14.87-.87,2.31-.47,3.74,1.32,5.48,9.2,9,18.24,18.15,27.34,27.24,3.53,3.52,5.22,7.59,3.65,12.55s-5.24,7.55-10.37,8.5C440.48,587.84,437.93,587.4,435.75,588.75ZM326.81,429.13c4.56,5.29,4.56,5.29,9.23.61a21,21,0,0,1,2.13-2.09c2.69-2,2.67-3.54.14-6-18.37-18.13-36.57-36.44-54.82-54.7-4.84-4.83-4.84-4.83-9.51.57-.48.4-.92.85-1.43,1.2-3.18,2.16-2.8,3.94-.06,6.53,7.42,7,14.49,14.38,21.73,21.58Q310.5,413,326.81,429.13ZM165.9,569l-37.64-36.84c-3.86,6.06-3,14.72,2.64,20.63,6.48,6.76,13.17,13.34,19.87,19.88a13,13,0,0,0,8.21,4.08c2.21,1.18,4.6.86,6.88.5,2-.31,4.86-.36,5.54-2.27.53-1.47-2.13-2.66-3.31-4A20.53,20.53,0,0,0,165.9,569Zm134-131.66,10.24,9.52c.65-4.71,1.25-9.25,1.93-13.77a3.75,3.75,0,0,0-1.17-3.67c-2.9-2.7-5.71-5.51-8.56-8.27q-14.22-14.35-28.45-28.69c-.51-.5-1.26-1.2-1.83-1.13-5.2.58-10.38,1.31-15.18,1.94ZM202,553.51c3.91,3.55,7,3.34,11.22-.92q30.88-30.84,61.73-61.71c2.92-2.92,5.92-5.75,8.7-8.79,2.92-3.2,2.78-6.09-.15-9.55-3.85-3-6.52-2.87-10.1.68-8,7.91-15.89,15.87-23.83,23.81q-23.16,23.16-46.31,46.33C199.56,547,199.29,549.52,202,553.51Zm-7.57,8.89c-7.93-10.26-7.43-18.7,1.7-27.82q34.15-34.19,68.33-68.33c8.78-8.79,17.25-9.39,27.26-2a40.55,40.55,0,0,1,2.77,3.94c.81,1.49,1.45,1.75,2.7.44,2.48-2.62,5-5.16,7.64-7.66,1.11-1.05.93-1.77-.1-2.71-2.37-2.19-4.66-4.46-7-6.69q-17-17.16-34.05-34.31-9-9-18-18c-.79-.78-1.44-2.27-3-.75-3,3-6.17,6-9.36,9.05.93.72,1.2,1,1.5,1.16,11.17,7.12,12.77,19.95,3.5,29.26q-35.34,35.44-70.78,70.8c-3.92,3.92-8.56,6-14.13,5.7-7.27-.41-12.3-4.29-16.15-11.39-1.27,1.6-2.17,3-3.3,4.12-5.38,5.48-5.38,8.25.13,13.77q18.28,18.3,36.59,36.59c4.77,4.75,9.63,9.42,14.46,14.12,4,3.91,8.91,1.76,14.18-6Zm3.57-344a46.33,46.33,0,0,0-21.06-2c-1.74.2-4.42-.5-5,1.36-.5,1.5,1.92,2.65,3.12,3.86,8.53,8.6,17.07,17.2,25.71,25.7,4.09,4,5.22,8.59,3.38,14-2,5.9-4,11.79-5.89,17.74a12.84,12.84,0,0,1-8.83,8.88c-5.8,1.9-11.63,3.74-17.37,5.8s-10.4.74-14.61-3.55c-8.75-8.92-17.64-17.7-26.51-26.5-.92-.91-1.58-2.27-3.3-2.45a49.79,49.79,0,0,0-.47,20.44c5.45,30,30.66,49.31,61.17,46.88a11,11,0,0,1,9.59,3.63c16,16.27,32.27,32.39,48.45,48.53.86.86,1.57,2.4,2.85,2.24,4.21-.55,8.51-.67,12.72-2.06-5.34-7.77-4.87-12.58,1.65-19.09,2.39-2.39,4.71-4.84,7.18-7.14,4.85-4.51,11.33-4.59,16.21-.12,2.85,2.61,5.52,5.43,8.26,8.17,5.92,5.92,5.92,5.93,11.57-.41.47-.39,1-.76,1.4-1.19,4-4,4-4,0-8Q275,319.95,241.87,286.84c-2.26-2.25-3.69-4.51-3.16-7.91a49.86,49.86,0,0,0-3.31-26.82C228.35,234.94,216.16,223.27,198,218.36ZM476.12,522.47c2.59,2.69,5.16,5.39,7.78,8,.57.57,1.08,1.62,2.11,1.13s.65-1.53.78-2.35a53.93,53.93,0,0,0-6.9-36.74c-7.7-13.07-18.66-22.22-33.66-26a46,46,0,0,0-21.73-1.89,7.55,7.55,0,0,1-7.09-2.31c-1.1-1.18-2.33-2.23-3.51-3.34-.58-.64-1.12-1.32-1.73-1.94l-60.69-60.69c-5.26-5.26-5.26-5.26-10.25.33a47.49,47.49,0,0,1-3.81,3.57c-2.1,1.6-2,2.8-.08,4.61,4,3.65,7.72,7.49,11.41,11.39,4.71,5,4.73,11.51.08,16.5-2.9,3.1-5.94,6.08-9,9a11.6,11.6,0,0,1-11.77,2.88c-2.06-.55-3.52-2.16-5.7-3.16-.48,3.25-.73,6.24-1.4,9.14s.17,5,2.38,7.16C339,473.29,354.38,489,370.14,504.37c3.86,3.76,5.2,7.47,4.81,12.83A55.78,55.78,0,0,0,415.47,575a53.89,53.89,0,0,0,26.91.91c-.43-1.65-1.57-2.31-2.42-3.16q-13.5-13.56-27-27.05c-3.94-3.92-5.09-8.4-3.28-13.69,2.06-6,4-12.06,6-18.09a12.59,12.59,0,0,1,8.68-8.55c5.71-1.79,11.38-3.72,17-5.73,5.93-2.1,10.86-1,15.3,3.62C463,509.79,469.63,516.07,476.12,522.47Z" transform="translate(-114.75 -204.75)"/><path class="cls-2" d="M413.9,459c1.18,1.11,2.41,2.16,3.51,3.34a7.55,7.55,0,0,0,7.09,2.31,46,46,0,0,1,21.73,1.89c0,1.91,1.78,2.32,2.95,3.09a60,60,0,0,1,15.29,15.2c8.11,11.22,11.3,24,11.65,37.6-6.49-6.4-13.11-12.68-19.44-19.24-4.44-4.62-9.37-5.72-15.3-3.62-5.64,2-11.31,3.94-17,5.73a12.59,12.59,0,0,0-8.68,8.55c-2,6-4,12.08-6,18.09-1.81,5.29-.66,9.77,3.28,13.69q13.56,13.49,27,27.05c.85.85,2,1.51,2.42,3.16a53.89,53.89,0,0,1-26.91-.91A55.78,55.78,0,0,1,375,517.2c.39-5.36-.95-9.07-4.81-12.83C354.38,489,339,473.29,323.33,457.85c-2.21-2.18-3.08-4.17-2.38-7.16s.92-5.89,1.4-9.14c2.18,1,3.64,2.61,5.7,3.16a11.6,11.6,0,0,0,11.77-2.88c3.07-2.94,6.11-5.92,9-9,4.65-5,4.63-11.53-.08-16.5-3.69-3.9-7.46-7.74-11.41-11.39-2-1.81-2-3,.08-4.61a47.49,47.49,0,0,0,3.81-3.57c1.88.07,2.75,1.62,3.86,2.73,17.51,17.47,35.16,34.8,52.38,52.56C402.22,456.93,406.89,460.25,413.9,459ZM408,482.84a5.23,5.23,0,0,0-2.89-4.36,4.84,4.84,0,0,0-5.95.4c-3.5,3.2-6.83,6.58-10,10.08-1.57,1.72-1.42,4-.29,6a5.35,5.35,0,0,0,5,2.8C397.26,497.69,408,486.73,408,482.84Z" transform="translate(-114.75 -204.75)"/><path class="cls-2" d="M306.76,362.27c-5.65,6.34-5.65,6.33-11.57.41-2.74-2.74-5.41-5.56-8.26-8.17-4.88-4.47-11.36-4.39-16.21.12-2.47,2.3-4.79,4.75-7.18,7.14-6.52,6.51-7,11.32-1.65,19.09-4.21,1.39-8.51,1.51-12.72,2.06-1.28.16-2-1.38-2.85-2.24-16.18-16.14-32.4-32.26-48.45-48.53a11,11,0,0,0-9.59-3.63c-30.51,2.43-55.72-16.91-61.17-46.88a49.79,49.79,0,0,1,.47-20.44c1.72.18,2.38,1.54,3.3,2.45,8.87,8.8,17.76,17.58,26.51,26.5,4.21,4.29,8.88,5.59,14.61,3.55s11.57-3.9,17.37-5.8A12.84,12.84,0,0,0,198.2,279c1.85-5.95,3.88-11.84,5.89-17.74,1.84-5.4.71-10-3.38-14-8.64-8.5-17.18-17.1-25.71-25.7-1.2-1.21-3.62-2.36-3.12-3.86.62-1.86,3.3-1.16,5-1.36a46.33,46.33,0,0,1,21.06,2c.07,1.9,1.8,2.3,3,3.08a57.17,57.17,0,0,1,15.26,15.2c7.55,10.85,11.93,22.8,11,36.13-.47,6.42,1.72,10.78,6.29,15.26,23.73,23.25,47.1,46.87,70.58,70.38C305.15,359.53,306.7,360.4,306.76,362.27Zm-81-61.21c0-4.22-4.77-7.24-8.22-4.82A50,50,0,0,0,206.65,307c-2.54,3.35.34,8.27,4.54,8.42C214.67,315.54,225.72,304.63,225.74,301.06Z" transform="translate(-114.75 -204.75)"/><path class="cls-3" d="M291.7,464.28c-10-7.42-18.48-6.82-27.26,2q-34.17,34.15-68.33,68.33c-9.13,9.12-9.63,17.56-1.7,27.82a54.69,54.69,0,0,0-9.27,9.29c-4.83-4.7-9.69-9.37-14.46-14.12Q152.35,539.3,134.09,521c-5.51-5.52-5.51-8.29-.13-13.77,1.13-1.15,2-2.52,3.3-4.12,3.85,7.1,8.88,11,16.15,11.39,5.57.32,10.21-1.78,14.13-5.7q35.39-35.4,70.78-70.8c9.27-9.31,7.67-22.14-3.5-29.26-.3-.19-.57-.44-1.5-1.16,3.19-3.08,6.32-6,9.36-9.05,1.53-1.52,2.18,0,3,.75q9,9,18,18,17,17.15,34.05,34.31C297,456.42,296.24,461.26,291.7,464.28ZM258.09,451a5.14,5.14,0,0,0-3.27-5.18c-2.56-1.09-4.81-.32-6.79,1.66q-35.37,35.43-70.77,70.82c-2.86,2.87-2.93,6.22-.42,8.58s5.54,2.11,8.32-.66q35.43-35.37,70.8-70.78A5.82,5.82,0,0,0,258.09,451Z" transform="translate(-114.75 -204.75)"/><path class="cls-4" d="M404.92,271.54a37.7,37.7,0,0,0,7.71-7.79c4.24,2.81,6.08,2.64,9.75-1,10.22-10.2,20.52-20.31,30.57-30.67,3.56-3.66,7.37-6.5,12.3-7.9,3-.84,5.85-2,8.76-3.08-1.65,8.25-5.74,15.63-8.29,23.56a19.15,19.15,0,0,1-5.11,7.67q-67.23,67.13-134.38,134.35c-1.14,1.13-2.51,2.09-3.1,3.69-4.28-4.19-8.48-8.47-12.88-12.53-1.82-1.69-.53-2.43.51-3.47l21.74-21.74,71.3-71.3C407.48,277.64,407.68,275.69,404.92,271.54Z" transform="translate(-114.75 -204.75)"/><path class="cls-5" d="M323.13,390.36c.59-1.6,2-2.56,3.1-3.69q67.17-67.2,134.38-134.35a19.15,19.15,0,0,0,5.11-7.67c2.55-7.93,6.64-15.31,8.29-23.56l13.9-5.59c-2.59,6.86-5.14,12.63-7,18.63-2.35,7.74-6.76,13.76-12.48,19.44Q399.64,322,331.16,390.72C327,394.87,327,394.87,323.13,390.36Z" transform="translate(-114.75 -204.75)"/><path class="cls-6" d="M158.69,474.86q3.87-3.89,7.73-7.76c3.56,2.31,6.41,1.36,9.28-1.53q21.75-22,43.7-43.75a23.4,23.4,0,0,1,3-2.76,6.49,6.49,0,0,1,8.55.73,6.64,6.64,0,0,1,.81,8.57,19,19,0,0,1-2.25,2.5l-68.9,68.91a23.13,23.13,0,0,1-1.9,1.81,6.69,6.69,0,0,1-9.17-.24,6.61,6.61,0,0,1-.38-9.15,101,101,0,0,1,7.88-8C160.12,481.41,160.82,478.43,158.69,474.86Z" transform="translate(-114.75 -204.75)"/><path class="cls-7" d="M306.76,362.27c-.06-1.87-1.61-2.74-2.72-3.86-23.48-23.51-46.85-47.13-70.58-70.38-4.57-4.48-6.76-8.84-6.29-15.26,1-13.33-3.42-25.28-11-36.13a57.17,57.17,0,0,0-15.26-15.2c-1.16-.78-2.89-1.18-3-3.08,18.18,4.91,30.37,16.58,37.42,33.75a49.86,49.86,0,0,1,3.31,26.82c-.53,3.4.9,5.66,3.16,7.91q33.18,33.07,66.29,66.24c4,4,4,4,0,8C307.73,361.51,307.23,361.88,306.76,362.27Z" transform="translate(-114.75 -204.75)"/><path class="cls-8" d="M202,553.51c-2.69-4-2.42-6.47,1.26-10.15q23.13-23.19,46.31-46.33c7.94-7.94,15.85-15.9,23.83-23.81,3.58-3.55,6.25-3.67,10.1-.68a21.3,21.3,0,0,1-1.4,1.74Q243.4,513,204.7,551.66C203.91,552.45,203.22,553.39,202,553.51Z" transform="translate(-114.75 -204.75)"/><path class="cls-9" d="M202,553.51c1.24-.12,1.93-1.06,2.72-1.85q38.7-38.68,77.38-77.38a21.3,21.3,0,0,0,1.4-1.74c2.93,3.46,3.07,6.35.15,9.55-2.78,3-5.78,5.87-8.7,8.79q-30.85,30.86-61.73,61.71C208.94,556.85,205.89,557.06,202,553.51Z" transform="translate(-114.75 -204.75)"/><path class="cls-3" d="M299.94,437.36l-43-44.07c4.8-.63,10-1.36,15.18-1.94.57-.07,1.32.63,1.83,1.13q14.25,14.32,28.45,28.69A91.09,91.09,0,0,0,299.94,437.36Z" transform="translate(-114.75 -204.75)"/><path class="cls-8" d="M159,576.77a13,13,0,0,1-8.21-4.08c-6.7-6.54-13.39-13.12-19.87-19.88-5.67-5.91-6.5-14.57-2.64-20.63L165.9,569Z" transform="translate(-114.75 -204.75)"/><path class="cls-7" d="M413.9,459c-7,1.21-11.68-2.11-16.43-7-17.22-17.76-34.87-35.09-52.38-52.56-1.11-1.11-2-2.66-3.86-2.73,5-5.59,5-5.59,10.25-.33l60.69,60.69C412.78,457.72,413.32,458.4,413.9,459Z" transform="translate(-114.75 -204.75)"/><path class="cls-7" d="M476.12,522.47c-.35-13.63-3.54-26.38-11.65-37.6a60,60,0,0,0-15.29-15.2c-1.17-.77-2.9-1.18-2.95-3.09,15,3.76,26,12.91,33.66,26a53.93,53.93,0,0,1,6.9,36.74c-.13.82.16,1.91-.78,2.35s-1.54-.56-2.11-1.13C481.28,527.86,478.71,525.16,476.12,522.47Z" transform="translate(-114.75 -204.75)"/><path class="cls-3" d="M274,367.48c4.67-5.4,4.67-5.4,9.51-.57,18.25,18.26,36.45,36.57,54.82,54.7,2.53,2.5,2.55,4.05-.14,6a21,21,0,0,0-2.13,2.09c-4.67,4.68-4.67,4.68-9.24-.61,3.56-3.37,3.47-6.22-.42-10.12q-24.7-24.72-49.43-49.42C276.09,368.73,275.37,367.63,274,367.48Z" transform="translate(-114.75 -204.75)"/><path class="cls-8" d="M274,367.48c1.39.15,2.11,1.25,3,2.11Q301.69,394.3,326.38,419c3.89,3.9,4,6.75.42,10.12Q310.51,413,294.22,396.79c-7.24-7.2-14.31-14.56-21.73-21.58-2.74-2.59-3.12-4.37.06-6.53C273.06,368.33,273.5,367.88,274,367.48Z" transform="translate(-114.75 -204.75)"/><path class="cls-10" d="M299.94,437.36a91.09,91.09,0,0,1,2.44-16.19c2.85,2.76,5.66,5.57,8.56,8.27a3.75,3.75,0,0,1,1.17,3.67c-.68,4.52-1.28,9.06-1.93,13.77Z" transform="translate(-114.75 -204.75)"/><path class="cls-10" d="M291.7,464.28c4.54-3,5.26-7.86,6-12.68,2.32,2.23,4.61,4.5,7,6.69,1,.94,1.21,1.66.1,2.71-2.6,2.5-5.16,5-7.64,7.66-1.25,1.31-1.89,1-2.7-.44A40.55,40.55,0,0,0,291.7,464.28Z" transform="translate(-114.75 -204.75)"/><path class="cls-10" d="M185.14,571.69a54.69,54.69,0,0,1,9.27-9.29l4.91,3.26C194.05,573.45,189.13,575.6,185.14,571.69Z" transform="translate(-114.75 -204.75)"/><path class="cls-3" d="M159,576.77,165.9,569a20.53,20.53,0,0,1,2.19,2c1.18,1.36,3.84,2.55,3.31,4-.68,1.91-3.52,2-5.54,2.27C163.58,577.63,161.19,578,159,576.77Z" transform="translate(-114.75 -204.75)"/><path class="cls-1" d="M408,482.84c0,3.89-10.77,14.85-14.17,14.89a5.35,5.35,0,0,1-5-2.8c-1.13-2-1.28-4.25.29-6,3.19-3.5,6.52-6.88,10-10.08a4.84,4.84,0,0,1,5.95-.4A5.23,5.23,0,0,1,408,482.84Z" transform="translate(-114.75 -204.75)"/><path class="cls-1" d="M225.74,301.06c0,3.57-11.07,14.48-14.55,14.36-4.2-.15-7.08-5.07-4.54-8.42a50,50,0,0,1,10.87-10.76C221,293.82,225.76,296.84,225.74,301.06Z" transform="translate(-114.75 -204.75)"/><path class="cls-11" d="M258.09,451a5.82,5.82,0,0,1-2.13,4.44q-35.4,35.38-70.8,70.78c-2.78,2.77-5.92,2.91-8.32.66s-2.44-5.71.42-8.58Q212.63,482.9,248,447.51c2-2,4.23-2.75,6.79-1.66A5.14,5.14,0,0,1,258.09,451Z" transform="translate(-114.75 -204.75)"/></svg>