<svg id="Layer_1" data-name="Layer 1" xmlns="http://www.w3.org/2000/svg" viewBox="0 0 384 352.3"><defs><style>.cls-1{fill:#030303;}.cls-2{fill:#080808;}.cls-3{fill:#dad7e8;}.cls-4{fill:#7fb2f8;}.cls-5{fill:#f7f4f4;}.cls-6{fill:#7fb3f9;}.cls-7{fill:#e2f4fd;}.cls-8{fill:#25447b;}.cls-9{fill:#facc62;}.cls-10{fill:#c7e0eb;}.cls-11{fill:#213769;}.cls-12{fill:#619ff3;}.cls-13{fill:#010202;}.cls-14{fill:#f4f1f1;}</style></defs><title>transportation-delivery</title><path class="cls-1" d="M480.83,292.12c5-1,6.35-.31,8.55,4.22a94.71,94.71,0,0,1,8.6,28.81c.09.67-.25,1.56.77,1.85v21.75c-1.44.7-1,2.2-1.15,3.28Q491,391.14,459,414.57c-2,1.49-1.85,2.24-.32,3.9,9.67,10.43,19.21,21,28.85,31.43,4.42,4.8,9,9.46,11.2,15.85v55.5c-3.78,9.49-11.08,12.84-20.82,11.92-.62-.06-1.27.08-1.87,0-3.57-.63-5.34.59-5.2,4.45a13.64,13.64,0,0,1-1.05,4.33c-5.89,19.14-24,32-43.29,30.86-20.8-1.25-37.09-15.71-40.64-36.45-.49-2.84-1.44-3.25-3.94-3.23-17,.1-34,0-51,0-14.49,0-29,.08-43.49-.07-2.55,0-3.43.73-3.66,3.16A34.39,34.39,0,0,1,281,546.31c-2,4.72-3.62,5.56-8.73,4.52-3.33-2.64-3.1-5.7-1.58-9.34,6.55-15.75-1.27-34.95-16.39-40.63a45.19,45.19,0,0,0-5.51-2.15c-23.3-5.9-44.59,15.55-38.56,38.79,5.16,19.88,27.09,29.09,43.25,21.25,3.74-1.33,7.48-3.9,11.18.06,1.26,5.65.54,7.13-4.69,9.7-25.84,12.64-56.85-3.53-61.35-32-.35-2.23-.75-3.52-3.54-3.41-3.13.13-2,2.17-2.14,3.66s0,3.24,0,4.86c-.09,4.66-2,6.63-6.58,6.66q-10.5.07-21,0c-4.3,0-6.88-2.25-6.78-5.75.09-3.34,2.6-5.44,6.68-5.48,4.75,0,9.5-.06,14.24,0,1.49,0,2.23-.2,2.23-2s-1-1.9-2.35-1.88q-5.61.06-11.24,0c-8-.07-12.18-4.24-12.2-12.27q0-17.43,0-34.85c0-1.94,0-3.23-2.43-4.16-4-1.57-4.5-7.54-.69-9.31,3.13-1.46,3.23-3.42,3.12-6.08a60.63,60.63,0,0,1,0-7.86c.25-2.83-.51-3.84-3.6-3.77-9.73.22-19.48,0-29.21.13-3.44,0-6.31-.63-8.42-3.48V447c2.15-2.8,5-3.45,8.45-3.39,9.87.16,19.74,0,29.61.1,2.33,0,3.21-.45,3.19-3q-.19-24.36,0-48.73c0-2.13-.56-2.76-2.7-2.71-5.62.15-11.25.09-16.87,0-4.07,0-6.58-2.17-6.65-5.51s2.53-5.7,6.81-5.73c5.62,0,11.25,0,16.87,0,1.4,0,2.3,0,2.86-1.86,2.28-7.59,6.9-10.78,15-10.78H312.94a93.5,93.5,0,0,1-4-30.56c1.73-35.77,18.4-62.49,49.19-80.46,2.76-1.61,3.91-3.13,3.71-6.31-.3-4.61-.14-9.24-.06-13.86.14-8.38,5.25-13.55,13.63-13.58q28.29-.09,56.59,0c8.66,0,13.63,5.1,13.71,13.79.05,4.49.22,9-.06,13.48-.2,3.14.74,4.87,3.65,6.36a88.11,88.11,0,0,1,24.43,19c3.21,3.48,3.35,5.15.88,9.28-4.38,2.1-5.8,1.78-9.18-1.62a108.1,108.1,0,0,0-8.39-7.92c-9.83-8-20.69-14-33.28-16.49-8.84-2.69-17.86-3.09-27-2.36-52.92,4.27-88.68,57.1-73.07,107.84.87,2.84,2.09,3.54,4.9,3.52,23.24-.12,46.47.06,69.7-.14,8.18-.06,14.65,2.61,20.1,8.8,8.56,9.74,17.52,19.13,26.32,28.67,5.44,6.31,3.66,5.82,9.56,1.32,31.8-24.27,42-66.18,25.17-102.42C477.13,296.75,477.31,295.48,480.83,292.12Zm-3.86,215H465.4c2,3.6,3.94,6.9,4.45,10.52.6,4.29,2.85,4.9,6.36,4.12,2.11.06,4.22.21,6.33.15,3.07-.09,4.76-1.66,5-4.85.69-10.42.72-10.43-9.8-10.06A6.33,6.33,0,0,0,477,507.09ZM441,558.7c13.52-4.5,22.27-21.54,18.42-36.55-2.5-9.73-8-17.31-17.63-21.21-12.79-6.45-28.62-2.9-38.12,8.54-9,10.83-9.42,27.7-1,39C411.8,560.63,427.5,564.83,441,558.7ZM456.7,443.45a33.53,33.53,0,0,0,9.48-.07c-1.05-1.21-1.75-2.06-2.49-2.87-18-19.71-36.07-39.35-54-59.16-3.45-3.81-7.3-5.38-12.26-4.55-6.24-.05-12.47,0-18.7-.21-2.35-.08-2.93.69-2.92,3q.13,30.51,0,61c0,2.46.65,3.21,3.12,3.16,7.1-.15,14.22-.08,21.33,0,5.15,0,6.3.94,7.48,5.71-.58,4.13-3.23,5.58-7.11,5.56-7.37,0-14.74,0-22.11,0-9.68,0-13.91-4.26-13.91-13.94,0-20.24,0-40.49.05-60.73,0-2.52-.23-3.85-3.34-3.71-6,.28-12,.19-18,0-2.33-.07-2.93.63-2.93,2.93q.1,56.6,0,113.2c0,2.58.87,3,3.19,3q27.74-.12,55.48,0a7.46,7.46,0,0,0,4.5-1.34c15.71-10.67,34.18-10.66,49.8,0a6.09,6.09,0,0,0,3.74,1.34c6.37-.1,12.74-.11,19.11-.15,2.37,0,4.73.21,7.09.09,1.79-.08,4.67,1.21,4.17-2.63-.32-2.52,1.63-6.15-3.82-5.74a5.48,5.48,0,0,1-5.77-7.43c1.13-3,3.6-3.86,6.62-3.71,1.4.06,2.66.43,3.05-2,1.35-8.38-4.81-12.6-9.35-17.67-2.64-2.94-6.27-1.24-9.5-1.31-1.36-.07-2.72-.21-4.09-.22-12.81,0-25.63,0-38.45,0-4.8,0-6.15-1.15-7.29-5.71.59-4,3.05-5.58,7-5.58C436.15,443.64,446.42,443.52,456.7,443.45ZM248.84,376.64c-25.62,0-51.23,0-76.85-.05-3.46,0-4.89,1-4.87,4.71.15,19.74.11,39.49,0,59.23,0,2.37.54,3.24,3.08,3.17,6.87-.17,13.74-.14,20.61,0,4.61.08,7.32,3.56,6,7.31-1.1,3.09-3.55,3.95-6.53,3.94-6.75,0-13.5.1-20.25-.05-2.36-.06-3,.7-2.88,3a85.38,85.38,0,0,1,0,10.49c-.18,2.66,1,3,3.24,3,6.74-.12,13.49-.11,20.24,0,4,.06,6.58,2.41,6.55,5.69s-2.58,5.48-6.66,5.55c-4.5.08-9-.07-13.49.06-3.19.09-7.42-1.45-9.25.73-1.57,1.86-.34,6-.61,9.05-.23,2.61.6,3.36,3.27,3.33,13.74-.14,27.49-.08,41.23,0a7.94,7.94,0,0,0,4.85-1.46c15.23-10.51,34.08-10.48,49.48.06a7.5,7.5,0,0,0,4.49,1.41c18.49-.05,37-.08,55.48,0,2.6,0,3.34-.62,3.33-3.28q-.13-56.24,0-112.47c0-2.95-.93-3.43-3.6-3.42C300.07,376.68,274.46,376.64,248.84,376.64Zm185.58-129.2c0-4.59,0-8.93,0-13.28,0-2.17-1.33-2.31-3-2.31-18.48,0-37,0-55.45,0-2.34,0-3.09.95-3,3.14.09,3.24.2,6.5,0,9.73-.19,2.69.73,2.75,2.93,2.07a92.31,92.31,0,0,1,35.85-3.91A111.86,111.86,0,0,1,434.42,247.44ZM278.07,507a46.06,46.06,0,0,1,5.24,13.24c.35,1.77,1.4,1.72,2.7,1.72,13.58,0,27.17,0,40.76,0,2,0,2.55-.7,2.48-2.59q-.18-5,0-10.1c.07-1.78-.51-2.34-2.31-2.34C310.86,507,294.78,507,278.07,507Zm113.47,0c-16.6,0-32.6,0-48.6-.05-2,0-2.59.56-2.5,2.53.15,3.37.11,6.75,0,10.13-.06,1.74.45,2.39,2.3,2.38,13.63-.07,27.25,0,40.87,0,1.28,0,2.39.08,2.72-1.72C387.18,515.64,389.15,511.47,391.54,507Zm-187.22,0c-12.06,0-23.51,0-35,0-1.54,0-2.25.35-2.2,2.06.11,3.61.1,7.23,0,10.84,0,1.64.59,2.12,2.18,2.11q13.65-.09,27.28,0a2.13,2.13,0,0,0,2.49-2A46.39,46.39,0,0,1,204.32,507Z" transform="translate(-114.75 -220.56)"/><path class="cls-2" d="M114.75,414c2-2.73,4.65-3.67,8-3.56,5.61.17,11.23,0,16.84.06,4.46.05,6.88,2.09,6.9,5.63s-2.34,5.59-6.82,5.63c-5.49,0-11-.15-16.46.07-3.43.14-6.27-.63-8.46-3.33Z" transform="translate(-114.75 -220.56)"/><path class="cls-2" d="M114.75,474.75c2-2.74,4.71-3.63,8-3.48,4,.18,8-.06,12,.07S141,473.69,141,477s-2.32,5.51-6.17,5.61c-4.62.11-9.25-.1-13.87.07-2.86.1-4.42-1.74-6.2-3.39Z" transform="translate(-114.75 -220.56)"/><path class="cls-3" d="M480.83,292.12c-3.52,3.36-3.7,4.63-1.41,9.56,16.85,36.24,6.63,78.15-25.17,102.42-5.9,4.5-4.12,5-9.56-1.32,1.42,0,2.16-1.07,3.07-1.9a70.27,70.27,0,0,0,9.47-11A86,86,0,0,0,474,343c2.55-1,4.14-2.75,4.13-5.56s-1.68-4.52-4.2-5.5c.33-4-.66-7.88-1.4-11.76-4.16-21.65-15.35-39-32.3-52.9-5.11-4.18-11-7.12-16.46-10.78,12.59,2.47,23.45,8.5,33.28,16.49a108.1,108.1,0,0,1,8.39,7.92c3.38,3.4,4.8,3.72,9.18,1.62Z" transform="translate(-114.75 -220.56)"/><path class="cls-2" d="M237.34,318.44q-23.78,0-47.55,0a16.37,16.37,0,0,1-4.08-.37,5.05,5.05,0,0,1-3.94-5.27,5.13,5.13,0,0,1,4.3-5.36,17.78,17.78,0,0,1,3.72-.27q47.94,0,95.86,0a19.84,19.84,0,0,1,3,.16c3,.47,4.69,2.26,4.77,5.29.08,3.23-1.64,5.15-4.78,5.69a23.19,23.19,0,0,1-3.73.14Z" transform="translate(-114.75 -220.56)"/><path class="cls-1" d="M259.09,278.15c15.86,0,31.72,0,47.58,0,2.57,0,4.7.64,6,3a5.21,5.21,0,0,1-.31,5.67c-1.48,2.24-3.74,2.62-6.23,2.62q-27.35-.06-54.7,0c-13.11,0-26.22,0-39.34,0-3,0-5.48-.9-6.51-3.94-1.33-3.92,1.38-7.28,5.95-7.31,9.49-.08,19,0,28.47,0Z" transform="translate(-114.75 -220.56)"/><path class="cls-1" d="M269.58,344.31c-7.87,0-15.75,0-23.62,0-4.12,0-6.6-2.09-6.69-5.44-.09-3.51,2.48-5.78,6.77-5.79q23.79,0,47.6,0c4.3,0,6.95,2.25,6.92,5.69s-2.63,5.54-7,5.55C285.57,344.33,277.57,344.31,269.58,344.31Z" transform="translate(-114.75 -220.56)"/><path class="cls-1" d="M209.67,344.3c-4,0-8,.08-11.95,0-3.59-.09-5.75-2.22-5.8-5.47a5.39,5.39,0,0,1,5.6-5.7q12.49-.19,25,0a5.58,5.58,0,0,1-.17,11.15C218.14,344.39,213.91,344.3,209.67,344.3Z" transform="translate(-114.75 -220.56)"/><path class="cls-4" d="M248.84,376.64c25.62,0,51.23,0,76.85-.06,2.67,0,3.61.47,3.6,3.42q-.17,56.24,0,112.47c0,2.66-.73,3.3-3.33,3.28-18.49-.11-37-.08-55.48,0a7.5,7.5,0,0,1-4.49-1.41c-15.4-10.54-34.25-10.57-49.48-.06a7.94,7.94,0,0,1-4.85,1.46c-13.74,0-27.49-.1-41.23,0-2.67,0-3.5-.72-3.27-3.33.27-3.09-1-7.19.61-9.05,1.83-2.18,6.06-.64,9.25-.73,4.49-.13,9,0,13.49-.06,4.08-.07,6.62-2.27,6.66-5.55s-2.53-5.63-6.55-5.69c-6.75-.1-13.5-.11-20.24,0-2.28,0-3.42-.34-3.24-3a85.38,85.38,0,0,0,0-10.49c-.12-2.27.52-3,2.88-3,6.75.15,13.5,0,20.25.05,3,0,5.43-.85,6.53-3.94,1.34-3.75-1.37-7.23-6-7.31-6.87-.13-13.74-.16-20.61,0-2.54.07-3.09-.8-3.08-3.17.09-19.74.13-39.49,0-59.23,0-3.73,1.41-4.72,4.87-4.71C197.61,376.68,223.22,376.64,248.84,376.64Zm-8.5,14c-7.36-.36-13,4.21-18.06,9.84-3.49,3.84-3.57,6.26.16,9.93,6.41,6.31,12.81,12.63,19.35,18.81,1.75,1.65,1.93,2.57.07,4.3-5.49,5.1-10.8,10.4-16.17,15.64-8.09,7.89-8.08,8.75-.06,16.57,8.79,8.56,21.38,8.79,30.29.34,7.8-7.38,15.49-14.9,23.11-22.47,7.23-7.19,7.29-17.13.07-24.36-7.68-7.69-15.52-15.23-23.37-22.75C251.7,392.6,246.83,390.57,240.34,390.61ZM191.3,435h9.36c.25,0,.5,0,.75,0,3.48-.26,5.71-2.49,5.67-5.68s-2.27-5.46-5.8-5.52q-9.74-.15-19.46,0c-3.57.05-5.81,2.28-5.87,5.46s2.28,5.62,6,5.73C185.07,435,188.19,435,191.3,435Z" transform="translate(-114.75 -220.56)"/><path class="cls-5" d="M474,343a86,86,0,0,1-16.75,46.95,70.27,70.27,0,0,1-9.47,11c-.91.83-1.65,1.91-3.07,1.9-8.8-9.54-17.76-18.93-26.32-28.67-5.45-6.19-11.92-8.86-20.1-8.8-23.23.2-46.46,0-69.7.14-2.81,0-4-.68-4.9-3.52-15.61-50.74,20.15-103.57,73.07-107.84,9.15-.73,18.17-.33,27,2.36,5.44,3.66,11.35,6.6,16.46,10.78,17,13.87,28.14,31.25,32.3,52.9.74,3.88,1.73,7.75,1.4,11.76-3.11,0-6.24-.25-9.33,0a5.4,5.4,0,0,0-5.17,5.76c.11,3,2.25,5.17,5.6,5.32C468,343.09,471,343,474,343ZM398.2,317.11c0,6.49,0,13,0,19.48,0,4.4,2,6.34,6.43,6.4q8.81.11,17.61,0c4-.05,6.15-2.09,6.18-5.48s-2.16-5.54-6-5.71a81.15,81.15,0,0,0-9.74,0c-2.67.21-3.3-.69-3.26-3.28.16-10.12.08-20.24.05-30.35,0-4.34-2.15-7-5.57-7.05s-5.64,2.57-5.67,6.88C398.17,304.37,398.2,310.74,398.2,317.11ZM338.67,343h0c1.37,0,2.74.08,4.1,0,3.17-.23,5.05-1.94,5.32-5.14a5.23,5.23,0,0,0-4.9-5.91,29.12,29.12,0,0,0-9.27.1,5.12,5.12,0,0,0-4.48,5.56,5.21,5.21,0,0,0,5.14,5.37C335.93,343.07,337.31,343,338.67,343Zm59.55-70.5c0,1.37-.1,2.75,0,4.11a5.25,5.25,0,0,0,5.29,5.24,5.14,5.14,0,0,0,5.76-4.71,36.19,36.19,0,0,0,0-9.3c-.4-3-2.52-4.83-5.76-4.64s-5,2.05-5.27,5.2A40,40,0,0,0,398.22,272.47Z" transform="translate(-114.75 -220.56)"/><path class="cls-6" d="M418.9,449.22c1.14,4.56,2.49,5.69,7.29,5.71,12.82,0,25.64,0,38.45,0,1.37,0,2.73.15,4.09.22a16.69,16.69,0,0,0,1.33,1.77c4.45,4.52,6.82,9.62,6.33,16.29-.55,7.41-.14,14.88-.15,22.33-6.37,0-12.74.05-19.11.15a6.09,6.09,0,0,1-3.74-1.34c-15.62-10.66-34.09-10.67-49.8,0a7.46,7.46,0,0,1-4.5,1.34q-27.75-.06-55.48,0c-2.32,0-3.2-.43-3.19-3q.13-56.6,0-113.2c0-2.3.6-3,2.93-2.93,6,.16,12,.25,18,0,3.11-.14,3.35,1.19,3.34,3.71-.09,20.24-.05,40.49-.05,60.73,0,9.68,4.23,13.93,13.91,13.94,7.37,0,14.74,0,22.11,0,3.88,0,6.53-1.43,7.11-5.56Z" transform="translate(-114.75 -220.56)"/><path class="cls-7" d="M418.9,449.22l-11.13.17c-1.18-4.77-2.33-5.69-7.48-5.71-7.11,0-14.23-.11-21.33,0-2.47,0-3.13-.7-3.12-3.16q.17-30.51,0-61c0-2.27.57-3,2.92-3,6.23.21,12.46.16,18.7.21a7.24,7.24,0,0,0,.87,1.6c8.94,10,17.84,20,26.88,29.89,9.73,10.63,19.59,21.14,29.41,31.68a7.9,7.9,0,0,1,2.07,3.48c-10.28.07-20.55.19-30.82.19C422,443.64,419.49,445.18,418.9,449.22Z" transform="translate(-114.75 -220.56)"/><path class="cls-8" d="M441,558.7c-13.49,6.13-29.19,1.93-38.32-10.26-8.43-11.26-8-28.13,1-39,9.5-11.44,25.33-15,38.12-8.54.44,2.64,2.67,4.1,4.15,6,11.08,14.33,10,35.47-2.69,48.46C442.3,556.36,441,557.12,441,558.7Zm5.38-28.91c0-10.29-7.62-18.2-17.73-18.29a18.33,18.33,0,0,0-18.35,18.29,18.07,18.07,0,0,0,18,17.78C438.6,547.61,446.33,540,446.37,529.79Z" transform="translate(-114.75 -220.56)"/><path class="cls-8" d="M253.5,558.75c-16.16,7.84-38.09-1.37-43.25-21.25-6-23.24,15.26-44.69,38.56-38.79a45.19,45.19,0,0,1,5.51,2.15c-.19,1.65,1.12,2.41,2,3.36,13.36,13.75,13.17,37.27-.39,51C255,556.21,253.53,557,253.5,558.75Zm-12.39-11.18c10,0,18.39-8.22,18.3-17.91a18.26,18.26,0,1,0-36.51.24C223,539.53,231.28,547.56,241.11,547.57Z" transform="translate(-114.75 -220.56)"/><path class="cls-9" d="M434.42,247.44a111.86,111.86,0,0,0-22.69-4.6,92.31,92.31,0,0,0-35.85,3.91c-2.2.68-3.12.62-2.93-2.07.23-3.23.12-6.49,0-9.73-.07-2.19.68-3.15,3-3.14,18.48.07,37,.05,55.45,0,1.65,0,3,.14,3,2.31C434.39,238.51,434.42,242.85,434.42,247.44Z" transform="translate(-114.75 -220.56)"/><path class="cls-4" d="M278.07,507c16.71,0,32.79,0,48.87,0,1.8,0,2.38.56,2.31,2.34q-.18,5.06,0,10.1c.07,1.89-.44,2.61-2.48,2.59-13.59-.08-27.18,0-40.76,0-1.3,0-2.35.05-2.7-1.72A46.06,46.06,0,0,0,278.07,507Z" transform="translate(-114.75 -220.56)"/><path class="cls-4" d="M391.54,507c-2.39,4.52-4.36,8.69-5.2,13.24-.33,1.8-1.44,1.72-2.72,1.72-13.62,0-27.24,0-40.87,0-1.85,0-2.36-.64-2.3-2.38.1-3.38.14-6.76,0-10.13-.09-2,.52-2.53,2.5-2.53C358.94,507,374.94,507,391.54,507Z" transform="translate(-114.75 -220.56)"/><path class="cls-10" d="M456.7,443.45a7.9,7.9,0,0,0-2.07-3.48c-9.82-10.54-19.68-21.05-29.41-31.68-9-9.89-17.94-19.91-26.88-29.89a7.24,7.24,0,0,1-.87-1.6c5-.83,8.81.74,12.26,4.55,17.89,19.81,36,39.45,54,59.16.74.81,1.44,1.66,2.49,2.87A33.53,33.53,0,0,1,456.7,443.45Z" transform="translate(-114.75 -220.56)"/><path class="cls-4" d="M204.32,507a46.39,46.39,0,0,0-5.2,13,2.13,2.13,0,0,1-2.49,2q-13.63-.12-27.28,0c-1.59,0-2.22-.47-2.18-2.11.09-3.61.1-7.23,0-10.84,0-1.71.66-2.06,2.2-2.06C180.81,507,192.26,507,204.32,507Z" transform="translate(-114.75 -220.56)"/><path class="cls-11" d="M253.5,558.75c0-1.74,1.45-2.54,2.47-3.57,13.56-13.69,13.75-37.21.39-51-.92-1-2.23-1.71-2-3.36,15.12,5.68,22.94,24.88,16.39,40.63-1.52,3.64-1.75,6.7,1.58,9.34a29.21,29.21,0,0,1-7.61,8C261,554.85,257.24,557.42,253.5,558.75Z" transform="translate(-114.75 -220.56)"/><path class="cls-12" d="M476.24,495.56c0-7.45-.4-14.92.15-22.33.49-6.67-1.88-11.77-6.33-16.29a16.69,16.69,0,0,1-1.33-1.77c3.23.07,6.86-1.63,9.5,1.31,4.54,5.07,10.7,9.29,9.35,17.67-.39,2.42-1.65,2.05-3.05,2-3-.15-5.49.69-6.62,3.71a5.48,5.48,0,0,0,5.77,7.43c5.45-.41,3.5,3.22,3.82,5.74.5,3.84-2.38,2.55-4.17,2.63C481,495.77,478.61,495.6,476.24,495.56Z" transform="translate(-114.75 -220.56)"/><path class="cls-11" d="M441,558.7c0-1.58,1.31-2.34,2.25-3.29,12.66-13,13.77-34.13,2.69-48.46-1.48-1.91-3.71-3.37-4.15-6,9.68,3.9,15.13,11.48,17.63,21.21C463.26,537.16,454.51,554.2,441,558.7Z" transform="translate(-114.75 -220.56)"/><path class="cls-12" d="M477,507.09a6.33,6.33,0,0,1,.74-.12c10.52-.37,10.49-.36,9.8,10.06-.21,3.19-1.9,4.76-5,4.85-2.11.06-4.22-.09-6.33-.15C476.38,516.85,477.45,512,477,507.09Z" transform="translate(-114.75 -220.56)"/><path class="cls-4" d="M477,507.09c.48,4.92-.59,9.76-.76,14.64-3.51.78-5.76.17-6.36-4.12-.51-3.62-2.47-6.92-4.45-10.52Z" transform="translate(-114.75 -220.56)"/><path class="cls-2" d="M474,343c-3,0-6,.14-9,0-3.35-.15-5.49-2.29-5.6-5.32a5.4,5.4,0,0,1,5.17-5.76c3.09-.25,6.22,0,9.33,0,2.52,1,4.19,2.69,4.2,5.5S476.53,342,474,343Z" transform="translate(-114.75 -220.56)"/><path class="cls-1" d="M240.34,390.61c6.49,0,11.36,2,15.39,5.85,7.85,7.52,15.69,15.06,23.37,22.75,7.22,7.23,7.16,17.17-.07,24.36-7.62,7.57-15.31,15.09-23.11,22.47-8.91,8.45-21.5,8.22-30.29-.34-8-7.82-8-8.68.06-16.57,5.37-5.24,10.68-10.54,16.17-15.64,1.86-1.73,1.68-2.65-.07-4.3-6.54-6.18-12.94-12.5-19.35-18.81-3.73-3.67-3.65-6.09-.16-9.93C227.38,394.82,233,390.25,240.34,390.61Zm-5.83,13.73c6.54,7.06,13,14.21,19.62,21.16,4.52,4.72,4.68,7.05.09,11.54-6.25,6.11-12.42,12.31-18.83,18.26-2.28,2.11-1.56,3.1.59,4.32a9.91,9.91,0,0,0,11.81-1.4q11.84-11.21,23.4-22.7c2.73-2.71,2.77-5.51,0-8.23-7.71-7.67-15.44-15.3-23.37-22.73C243.41,400.41,237.92,400.9,234.51,404.34Z" transform="translate(-114.75 -220.56)"/><path class="cls-13" d="M191.3,435c-3.11,0-6.23.07-9.35,0-3.72-.11-6.07-2.42-6-5.73s2.3-5.41,5.87-5.46q9.72-.15,19.46,0c3.53.06,5.77,2.33,5.8,5.52s-2.19,5.42-5.67,5.68c-.25,0-.5,0-.75,0Z" transform="translate(-114.75 -220.56)"/><path class="cls-1" d="M398.2,317.11c0-6.37,0-12.74,0-19.11,0-4.31,2.23-6.94,5.67-6.88s5.56,2.71,5.57,7.05c0,10.11.11,20.23-.05,30.35,0,2.59.59,3.49,3.26,3.28a81.15,81.15,0,0,1,9.74,0c3.88.17,6.08,2.37,6,5.71s-2.22,5.43-6.18,5.48q-8.81.12-17.61,0c-4.46-.06-6.39-2-6.43-6.4C398.16,330.09,398.2,323.6,398.2,317.11Z" transform="translate(-114.75 -220.56)"/><path class="cls-2" d="M338.67,343c-1.36,0-2.74.1-4.09,0a5.21,5.21,0,0,1-5.14-5.37,5.12,5.12,0,0,1,4.48-5.56,29.12,29.12,0,0,1,9.27-.1,5.23,5.23,0,0,1,4.9,5.91c-.27,3.2-2.15,4.91-5.32,5.14-1.36.09-2.73,0-4.1,0Z" transform="translate(-114.75 -220.56)"/><path class="cls-2" d="M398.22,272.47a40,40,0,0,1,0-4.1c.31-3.15,2.06-5,5.27-5.2s5.36,1.61,5.76,4.64a36.19,36.19,0,0,1,0,9.3,5.14,5.14,0,0,1-5.76,4.71,5.25,5.25,0,0,1-5.29-5.24C398.12,275.22,398.22,273.84,398.22,272.47Z" transform="translate(-114.75 -220.56)"/><path class="cls-13" d="M446.37,529.79c0,10.23-7.77,17.82-18.12,17.78a18.07,18.07,0,0,1-18-17.78,18.33,18.33,0,0,1,18.35-18.29C438.75,511.59,446.41,519.5,446.37,529.79ZM429,536.2c3.94-.63,5.95-2.6,6.2-6.05s-1.42-5.77-5.49-7.13c-4.7-.37-8,2.22-8.13,6.39C421.45,533.42,424.48,536.19,429,536.2Z" transform="translate(-114.75 -220.56)"/><path class="cls-13" d="M241.11,547.57c-9.83,0-18.1-8-18.21-17.67a18.26,18.26,0,1,1,36.51-.24C259.5,539.35,251.08,547.59,241.11,547.57Zm1.12-11.42c3.76-.95,6-3.31,5.8-6.56-.24-3.56-2-6.06-5.81-6.62-4.69-.22-7.88,2.47-7.88,6.64S237.48,536.43,242.23,536.15Z" transform="translate(-114.75 -220.56)"/><path class="cls-14" d="M234.51,404.34c3.41-3.44,8.9-3.93,13.34.22,7.93,7.43,15.66,15.06,23.37,22.73,2.74,2.72,2.7,5.52,0,8.23q-11.6,11.46-23.4,22.7a9.91,9.91,0,0,1-11.81,1.4c-2.15-1.22-2.87-2.21-.59-4.32,6.41-5.95,12.58-12.15,18.83-18.26,4.59-4.49,4.43-6.82-.09-11.54C247.49,418.55,241.05,411.4,234.51,404.34Z" transform="translate(-114.75 -220.56)"/><path class="cls-14" d="M429,536.2c-4.52,0-7.55-2.78-7.42-6.79.12-4.17,3.43-6.76,8.13-6.39C430.25,527.45,431.74,531.94,429,536.2Z" transform="translate(-114.75 -220.56)"/><path class="cls-3" d="M429,536.2c2.74-4.26,1.25-8.75.71-13.18,4.07,1.36,5.74,3.54,5.49,7.13S432.94,535.57,429,536.2Z" transform="translate(-114.75 -220.56)"/><path class="cls-14" d="M242.23,536.15c-4.75.28-7.89-2.33-7.89-6.54s3.19-6.86,7.88-6.64A17.86,17.86,0,0,1,242.23,536.15Z" transform="translate(-114.75 -220.56)"/><path class="cls-3" d="M242.23,536.15a17.86,17.86,0,0,0,0-13.18c3.82.56,5.57,3.06,5.81,6.62C248.24,532.84,246,535.2,242.23,536.15Z" transform="translate(-114.75 -220.56)"/></svg>