<svg id="Layer_1" data-name="Layer 1" xmlns="http://www.w3.org/2000/svg" viewBox="0 0 384 384.03"><defs><style>.cls-1{fill:#090909;}.cls-2{fill:#e0f2fd;}.cls-3{fill:#fdefaa;}.cls-4{fill:#6a46ce;}.cls-5{fill:#fa73a5;}.cls-6{fill:#6b46ce;}.cls-7{fill:#ceec7e;}.cls-8{fill:#fde87f;}.cls-9{fill:#ace317;}.cls-10{fill:#c4e1f3;}.cls-11{fill:#5e35cc;}.cls-12{fill:#c2def0;}.cls-13{fill:#08090b;}.cls-14{fill:#5bd0ed;}</style></defs><title>booking</title><path class="cls-1" d="M384,260.25v12c-1.3.72-1,2.15-1.36,3.25a36,36,0,0,1-16.52,21.68c-4.14,2.5-5.68,2.29-9.15-1.05-1.37-4.7-.92-5.85,3.37-8.56C372,280.26,376,267,370.07,254.64a101,101,0,0,1-7-20c-1.81-7.51-4.13-14.87-6.56-22.21-8.63-26.06-22.46-49.66-35.2-73.76-5-9.55-18.55-8.82-24.17.84A9.62,9.62,0,0,0,297,150c3,5.44,5.86,11,8.72,16.54,2,3.9,1.44,6.63-1.66,8.39s-6.24.76-8.27-3c-2.81-5.28-5.56-10.6-8.33-15.9s-6.45-7.41-12.39-6.78c-9.58,1-14.81,10.41-10.44,18.76,2.83,5.42,5.7,10.81,8.46,16.26,1.82,3.58,1.06,6.36-2,8s-6.07.7-8-2.91c-3.06-5.71-6.11-11.44-9-17.24a9.74,9.74,0,0,0-5.75-5,14.14,14.14,0,0,0-15.26,4.13,12.58,12.58,0,0,0-1.78,15c2.76,5.32,5.62,10.57,8.31,15.92,1.84,3.67.6,6.82-3.05,8.13s-5.62-.5-7.19-3.51c-5.93-11.39-11.93-22.75-17.89-34.12-9.78-18.66-19.49-37.36-29.35-56-4.88-9.21-14.58-10.63-21.67-3.36-5,5.13-5.58,11.47-1.67,18.95q26,49.71,52.07,99.39c1.54,2.94,2.68,5.81-.07,8.55s-5.62,1.59-8.55,0q-14-7.5-28.13-14.8c-6.56-3.38-12.8-2-17,3.55-5.94,7.84-3.81,17.19,5.07,21.61,27,13.42,54,26.91,81.11,40.1,9.1,4.42,16.18,10.52,20.84,19.59a22,22,0,0,0,14.12,11.42c7,2.76,13.68,1.75,20.12-1.57,10.59-5.44,21.1-11,31.67-16.55,4.31-2.24,5.7-1.95,9,1.71,1.3,3.86-.07,6.39-3.65,8.22-10.53,5.41-20.92,11.07-31.48,16.43-19.14,9.72-40,3.27-50.4-15.5-1.71-3.09-3.55-6.1-6.37-8.24-7.58-5.77-16.63-8.72-25.37-13.61v67.85c0,10.48-5.14,18.46-13.79,22.06-1.55.65-3.42.19-4.71,1.54h-186c-.14-.19-.23-.49-.41-.57C4.19,378.41,0,372.25,0,358.78V22.5C0,12.24,5.8,4.31,15.46.92,16.09.7,17.05,1,17.25,0H39a7.45,7.45,0,0,1,3.85,5.76c-.8,4.16-3.34,5.75-7.51,5.54-4.36-.21-8.74-.13-13.11,0-6.42.17-10.76,4.49-10.94,10.89-.12,4,.23,8-.11,12-.3,3.54,1,4.25,4.33,4.24q83.37-.15,166.75-.08c1.24,0,2.49-.09,3.73-.13l22.1.14c1.36,0,2.51-.08,2.45-1.92-.18-5.36.49-10.75-.36-16.07a10.26,10.26,0,0,0-10.32-9c-5.86-.12-11.73,0-17.59.08-1.5,0-3-.12-4.5-.12H70.91c-5.4,0-6.22-.58-7.94-5.48A8,8,0,0,1,66.76.06h136.5a51,51,0,0,1,5,1.76c9.42,4.39,13.49,12,13.49,22.22q-.06,69.13,0,138.27c0,1.29-.38,2.67.45,4.12,7.33-9.45,16.65-13.21,28.31-10.4,1.57.38,1.79-.57,2.28-1.7,5.59-12.76,16.34-18.4,29.94-15.66,1.7.34,2.37,0,3-1.62,4-10.32,12-15.55,22.69-16s18.88,4.45,23.9,14.23c4.83,9.41,9.8,18.76,14.77,28.11,8.54,16.09,16.2,32.58,21.47,50C373.38,229.09,377.6,245,384,260.25ZM106.46,168.68A37,37,0,0,0,102,169c-24.69,4.74-41.35,25.89-40.48,51.33.81,23.53,19.8,43.52,44,46.32,15,1.62,28-3,39.23-13,1.79-1.6,1.24-2.72.36-4.45-6.54-12.9-1.51-28.2,11.57-34.2,3.25-1.49,3.43-3.22,2.86-6-2.13-10.58-6.79-19.83-14.77-27.16C134,171.9,121.32,167,106.46,168.68ZM186,321a4.57,4.57,0,0,0-.74-.12q-85.65,0-171.28-.09c-2.56,0-2.77,1.1-2.76,3.14.07,11.74,0,23.49,0,35.23,0,9.79,3.77,13.54,13.6,13.54H178.16c1.37,0,2.74-.08,4.11-.12,5.37,0,10.74.13,16.11.12,7.59,0,12-4.12,12.12-11.69.17-12.49,0-25,.08-37.47,0-1.81-.39-2.76-2.47-2.72C200.74,321,193.37,321,186,321Zm-.8-102.79a28.6,28.6,0,0,0,8.17,4L186.09,209c-.4-.9-.74-1.83-1.2-2.7-11.15-21.31-22.35-42.58-33.39-63.94-1.29-2.5-2.76-3.19-5.46-3.19q-53.22.15-106.43.06c-9.27,0-14.65-5.38-14.68-14.65q-.06-18.73,0-37.47c0-9,5.48-14.38,14.54-14.38H186c8.39,3.32,10.66,6.68,10.67,15.83,0,3.87.37,7.78-.07,11.6a53.45,53.45,0,0,0,9.26,37.46c1.62,2.38,2.36,5.33,4.68,7.94V52.5c0-1.78,0-3.09-2.47-3-7.36.2-14.73.16-22.09.21-1.25-.05-2.5-.14-3.74-.14q-83.43,0-166.86-.09c-3.48,0-4.2,1-4.2,4.29q.13,125.79,0,251.59c0,3.31.68,4.32,4.2,4.31q83.43-.19,166.85-.1c1.25,0,2.49-.09,3.74-.14,7.34.06,14.68.07,22,.21,1.94,0,2.61-.58,2.58-2.54-.11-6-.09-12,0-17.93a2.94,2.94,0,0,0-2-3.11c-7.54-3.48-15-7.06-22.57-10.6-9.59-4.77-19.33-9.24-28.6-14.63-1.94-1.12-3-.93-4.66.62-14.31,13.25-31.17,18.74-50.58,16.13C68,273,44.15,239,51.46,205.42c6.41-29.25,32.25-49.7,61.32-48.51,30.13,1.25,54.23,23.34,58.23,53.43.15,1.08-.09,2.36,1.5,2.6C177.21,213.66,180.93,216.64,185.21,218.25Zm.21-115.33c0-5.54-.11-10.41,0-15.27.09-2.81-1-3.67-3.73-3.66q-70.82.09-141.63,0c-2.92,0-4,1-4,3.9q.15,18.17,0,36.34c0,2.66.83,3.85,3.66,3.85q51.14-.09,102.29,0c2.14,0,2.71-.5,2.52-2.73a25.1,25.1,0,0,1,14.79-25.42c9-4.11,17.52-2.8,26.1,3Z" transform="translate(-0.01 0.02)"/><path class="cls-2" d="M186,72.81H39.47c-9.06,0-14.5,5.35-14.54,14.38q-.08,18.74,0,37.47c0,9.27,5.41,14.65,14.68,14.65q53.22,0,106.43-.06c2.7,0,4.17.69,5.46,3.19,11,21.36,22.24,42.63,33.39,63.94.46.87.8,1.8,1.2,2.7-.55,3,.89,6.28-.88,9.2-4.28-1.64-8-4.62-12.67-5.34-1.59-.24-1.35-1.52-1.5-2.6-4-30.09-28.13-52.18-58.27-53.4-29.07-1.19-54.91,19.26-61.32,48.51C44.1,239,68,273,102.14,277.61c19.41,2.61,36.27-2.88,50.58-16.13,1.67-1.55,2.72-1.74,4.66-.62,9.27,5.39,19,9.86,28.6,14.63v34c-1.25.05-2.49.14-3.74.14q-83.42,0-166.85.1c-3.52,0-4.2-1-4.2-4.31q.13-125.79,0-251.59c0-3.34.72-4.3,4.2-4.29q83.43.2,166.86.09c1.24,0,2.49.09,3.74.14Z" transform="translate(-0.01 0.02)"/><path class="cls-3" d="M278.24,321.67a22,22,0,0,1-14.12-11.42c-4.66-9.07-11.74-15.17-20.84-19.59-27.13-13.19-54.11-26.68-81.11-40.1-8.88-4.42-11-13.77-5.07-21.61,4.21-5.55,10.45-6.93,17-3.55q14.13,7.28,28.13,14.8c2.93,1.57,5.79,2.72,8.55,0s1.61-5.61.07-8.55Q184.8,182,158.79,132.25c-3.91-7.48-3.32-13.82,1.67-19,7.09-7.27,16.79-5.85,21.67,3.36,9.86,18.62,19.57,37.32,29.35,56,6,11.37,12,22.73,17.89,34.12,1.57,3,3.63,4.78,7.19,3.51s4.89-4.46,3.05-8.13c-2.69-5.35-5.55-10.6-8.31-15.92a12.58,12.58,0,0,1,1.78-15,14.14,14.14,0,0,1,15.29-4.19,9.74,9.74,0,0,1,5.75,5c2.89,5.8,5.94,11.53,9,17.24,1.93,3.61,4.82,4.6,8,2.91,3-1.62,3.79-4.4,2-8-2.76-5.45-5.63-10.84-8.46-16.26-4.37-8.35.86-17.76,10.44-18.76,6-.62,9.51,1.31,12.37,6.76s5.52,10.62,8.33,15.9c2,3.79,5.06,4.86,8.27,3s3.68-4.49,1.66-8.39c-2.86-5.54-5.68-11.1-8.72-16.54a9.62,9.62,0,0,1,.14-10.54c1.91.58,2.49,2.35,3.25,3.85,7.23,14.1,14.63,28.11,21.5,42.38a251.16,251.16,0,0,1,13.51,36c3,10,4.51,20.42,9.38,29.84A30.73,30.73,0,0,1,332,293h0c-9.64,5.23-19.5,10.06-29.09,15.38C294.73,312.9,286.1,316.57,278.24,321.67Z" transform="translate(-0.01 0.02)"/><path class="cls-4" d="M182.27,372.62c-1.37,0-2.74.12-4.11.12H24.87c-9.83,0-13.6-3.75-13.6-13.54V324c0-2,.2-3.14,2.76-3.14q85.64.12,171.28.09a4.57,4.57,0,0,1,.74.12c0,13.4-.09,26.81,0,40.21A17.74,17.74,0,0,1,182.27,372.62Zm-71.46-40.94H94.33c-7.43.32-12.5,4.3-14.1,11.1-2.51,10.67,3.79,18.9,14.93,19.12,10.35.2,20.72.09,31.07,0,4.06,0,7.94-.73,11.07-3.71a16.39,16.39,0,0,0,3.64-17.33c-2.32-6-7-9-13.28-9.16C122,331.54,116.42,331.68,110.81,331.68Z" transform="translate(-0.01 0.02)"/><path class="cls-5" d="M185.42,103c-8.58-5.82-17.06-7.13-26-3a25.1,25.1,0,0,0-14.79,25.42c.19,2.23-.38,2.74-2.52,2.73Q91,128,39.82,128.1c-2.83,0-3.68-1.19-3.66-3.85q.12-18.16,0-36.34c0-2.93,1-3.9,4-3.9q70.82.1,141.63,0c2.74,0,3.82.85,3.73,3.66C185.31,92.54,185.42,97.41,185.42,103Z" transform="translate(-0.01 0.02)"/><path class="cls-6" d="M42.86,5.76H63c1.72,4.9,2.54,5.48,7.94,5.48H177.78c1.5,0,3,.08,4.5.12A17.2,17.2,0,0,1,186,22.83c-.18,5.11,0,10.24,0,15.36-1.24,0-2.49.13-3.73.13q-83.38,0-166.75.08c-3.33,0-4.63-.7-4.33-4.24.34-4,0-8,.11-12,.18-6.4,4.52-10.72,10.94-10.89,4.37-.11,8.75-.19,13.11,0C39.52,11.51,42.06,9.92,42.86,5.76Z" transform="translate(-0.01 0.02)"/><path class="cls-7" d="M105.52,266.65c-24.2-2.8-43.19-22.79-44-46.32C60.65,194.89,77.31,173.74,102,169a37,37,0,0,1,4.46-.32,84.63,84.63,0,0,1,12.61,9.26c5.63,5.33,9.32,11.94,12.92,18.64-10.52,10.63-21.06,21.23-31.53,31.91-1.38,1.4-2.15,1-3.28-.2-3.38-3.5-6.83-6.94-10.31-10.33-3-2.88-6.08-3-8.53-.48S76,222.89,79,226c4.63,4.72,9.33,9.36,14,14s7,4.77,11.82,0l30.26-30a40.57,40.57,0,0,1,0,16.57Q130.23,253.9,105.52,266.65Z" transform="translate(-0.01 0.02)"/><path class="cls-8" d="M278.24,321.67c7.86-5.1,16.49-8.77,24.66-13.29,9.59-5.32,19.45-10.15,29.09-15.38a30.73,30.73,0,0,0,12.77-41.49c-4.87-9.42-6.33-19.88-9.38-29.84a251.16,251.16,0,0,0-13.51-36c-6.87-14.27-14.27-28.28-21.5-42.38-.76-1.5-1.34-3.27-3.25-3.85,5.62-9.66,19.12-10.39,24.17-.84,12.74,24.1,26.57,47.7,35.2,73.76,2.43,7.34,4.75,14.7,6.56,22.21a101,101,0,0,0,7,20.05c5.9,12.34,1.88,25.62-9.72,32.93-4.29,2.71-4.74,3.86-3.37,8.56L339,305.25c-3.31-3.66-4.7-3.95-9-1.71-10.57,5.51-21.08,11.11-31.67,16.55C291.92,323.42,285.2,324.43,278.24,321.67Z" transform="translate(-0.01 0.02)"/><path class="cls-9" d="M132,196.58c-3.6-6.7-7.29-13.31-12.92-18.64a84.63,84.63,0,0,0-12.61-9.26c14.86-1.69,27.5,3.22,38.31,13.16,8,7.33,12.64,16.58,14.77,27.16.57,2.79.39,4.52-2.86,6-13.08,6-18.11,21.3-11.57,34.2.88,1.73,1.43,2.85-.36,4.45-11.23,10-24.18,14.61-39.23,13q24.74-12.72,29.54-40.11a40.57,40.57,0,0,0,0-16.57c2.41-2.49,4.81-5,7.23-7.49,3.26-3.35,3.6-6.5,1-9.06s-5.59-2.11-8.79,1C133.69,195.15,132.82,195.85,132,196.58Z" transform="translate(-0.01 0.02)"/><path class="cls-10" d="M186,72.81V49.74c7.36-.05,14.73,0,22.09-.21,2.49-.07,2.47,1.24,2.47,3v93.09c-2.32-2.61-3.06-5.56-4.68-7.94a53.43,53.43,0,0,1-9.3-37.43c.44-3.82.07-7.73.07-11.6C196.65,79.49,194.38,76.13,186,72.81Z" transform="translate(-0.01 0.02)"/><path class="cls-11" d="M182.27,372.62a17.78,17.78,0,0,0,3.79-11.37c-.14-13.4,0-26.81,0-40.21,7.36,0,14.73,0,22.1-.18,2.08,0,2.48.91,2.47,2.72,0,12.49.09,25-.08,37.47-.1,7.57-4.53,11.66-12.12,11.69C193,372.75,187.64,372.67,182.27,372.62Z" transform="translate(-0.01 0.02)"/><path class="cls-12" d="M186,309.46v-34c7.52,3.54,15,7.12,22.57,10.6a2.94,2.94,0,0,1,2,3.11c-.08,6-.1,11.95,0,17.93,0,2-.64,2.58-2.58,2.54C200.66,309.53,193.32,309.52,186,309.46Z" transform="translate(-0.01 0.02)"/><path class="cls-11" d="M186,38.19c0-5.12-.13-10.25,0-15.36a17.21,17.21,0,0,0-3.77-11.45c5.86,0,11.73-.2,17.59-.08a10.26,10.26,0,0,1,10.32,9c.85,5.32.18,10.71.36,16.07.06,1.84-1.09,1.94-2.45,1.92Z" transform="translate(-0.01 0.02)"/><path class="cls-12" d="M185.21,218.25c1.77-2.92.33-6.15.88-9.2l7.29,13.22A28.4,28.4,0,0,1,185.21,218.25Z" transform="translate(-0.01 0.02)"/><path class="cls-13" d="M110.81,331.68c5.61,0,11.24-.14,16.85,0,6.3.21,11,3.11,13.28,9.16a16.4,16.4,0,0,1-3.64,17.41c-3.13,3-7,3.68-11.07,3.71-10.35.06-20.72.17-31.07,0-11.14-.22-17.44-8.45-14.93-19.12,1.6-6.8,6.67-10.78,14.1-11.1h16.48Zm.15,18.93h15.37c2.68,0,4.88-.8,4.8-3.9s-2.32-3.79-5-3.79H95.78c-2.74,0-5.16.52-5.13,4,0,3.25,2.35,3.73,4.93,3.73Z" transform="translate(-0.01 0.02)"/><path class="cls-1" d="M132,196.58c.83-.73,1.7-1.43,2.49-2.2,3.2-3.07,6.26-3.41,8.79-1s2.29,5.71-1,9.06c-2.42,2.49-4.82,5-7.23,7.49l-30.26,30c-4.84,4.8-7,4.81-11.82,0s-9.38-9.31-14-14c-3-3.08-3.18-5.87-.64-8.49s5.56-2.4,8.53.48c3.48,3.39,6.93,6.83,10.31,10.33,1.13,1.17,1.9,1.6,3.28.2C110.93,217.81,121.47,207.25,132,196.58Z" transform="translate(-0.01 0.02)"/><path class="cls-14" d="M111,350.61H95.6c-2.58,0-4.91-.48-4.93-3.73,0-3.43,2.39-4,5.13-4h30.35c2.66,0,4.9.73,5,3.79s-2.12,3.91-4.8,3.9Z" transform="translate(-0.01 0.02)"/></svg>