<svg id="Layer_1" data-name="Layer 1" xmlns="http://www.w3.org/2000/svg" viewBox="0 0 384.05 263.83"><defs><style>.cls-1{fill:#040303;}.cls-2{fill:#e3636d;}.cls-3{fill:#040404;}.cls-4{fill:#d84554;}.cls-5{fill:#070707;}.cls-6{fill:#fca75e;}.cls-7{fill:#fdc068;}.cls-8{fill:#f5a35c;}.cls-9{fill:#5b515e;}.cls-10{fill:#bcd5f5;}.cls-11{fill:#fb8959;}.cls-12{fill:#dae9fe;}.cls-13{fill:#e9e7e9;}.cls-14{fill:#030303;}</style></defs><title>fast-delivery</title><path class="cls-1" d="M246.41,77.7c1.11-4.37,2.59-5.68,7-5.7q18.38-.07,36.75,0c7.07,0,10.62,3.17,11.26,10.21.25,2.7,1.91,1.79,3.13,1.8,12.62,0,25.25,0,37.87,0,12.31,0,17.5,5.2,17.53,17.56,0,16,.15,32,.08,48a5.45,5.45,0,0,0,2.64,5.23c4.78,3.18,9.3,6.74,14.09,9.9,3.46,2.28,5.44,5.56,7.24,9.08v8.27c-2.51,4.49-3,9.6-4.42,14.43-2.47,8.62-4.61,17.34-7,26-2.73,10-10.36,16.37-20.71,17.13-2,.14-2.66,1.07-3.48,2.59-6.49,11.94-16.31,19.3-29.89,21.28-14.09,2.06-25.87-7-27.35-21.16-.22-2-.65-2.66-2.77-2.66q-61.29.1-122.59,0c-2.15,0-2.92.9-3.84,2.6-6.4,11.81-16.1,19.14-29.53,21.18-14.32,2.18-26.15-6.86-27.53-21.19-.22-2.22-1-2.6-3-2.57q-9.75.15-19.49,0c-8.73-.07-13.17-5.73-11-14.08,3.5-13.25,7.17-26.45,10.63-39.71,1-3.84,3.06-5.88,7.13-5.55,4.14,2.17,4.91,3.74,3.84,8-.66,2.66-1.4,5.31-2.1,8-2.82,10.57-5.63,21.15-8.54,32.08h22.82a2.42,2.42,0,0,0,2.58-1.64c1.79-4.19,4.7-7.62,7.58-11.06,4-3.45,8.07-6.63,13-8.67,11.5-4.79,26.3-4.22,34.45,8.68a43.92,43.92,0,0,1,2.37,7.05c1.06,5.63,1.13,5.62,7,5.62h2.62c24.31,0,48.63,0,72.94.07,2.66,0,3.78-.8,4.25-3.31.6-3.17,1.48-6.28,2.24-9.41a3.25,3.25,0,0,0,.38-.65q17.31-64.5,34.65-129c.66-2.47-.1-3-2.45-3-11.12.09-22.24.06-33.37,0C248.8,83.21,247.6,82.22,246.41,77.7Zm82.1,41.92c-9-1-12.93,1.61-15.29,10.29q-1.92,7-3.76,14.05c-1.32,5-.35,6.26,4.93,6.27,7.61,0,15.22.1,22.82,0,3.8-.06,9.17,1.74,11-.78s.43-7.65.44-11.63c0-5.36,0-10.73.1-16.09,0-1.4-.06-2.39-1.93-2.34-6.1.13-12.21.16-18.31.23Zm-18-24.08c-3.35-.09-6.71-.1-10.07-.29-1.82-.09-2.3.93-2.69,2.39q-10.68,40-21.45,80.06c-.51,1.87-.39,2.81,1.88,2.7,3.48-.16,7-.14,10.46-.2,16.69.05,33.38.19,50.07.1,4.12,0,6.7,1.36,7.55,5.49-1.36,4.68-2.79,5.81-7.72,5.83L285,191.8c-3.36-.06-6.72,0-10.08-.21-1.91-.1-2.5.75-3,2.46-2.77,10.59-5.66,21.15-8.53,31.71-.48,1.73-.47,2.76,1.88,2.74,8.73-.11,17.45-.07,26.18,0a2.67,2.67,0,0,0,2.82-1.85c1.75-4.05,4.6-7.37,7.32-10.76,4-3.4,8.06-6.61,13-8.67,11.06-4.67,26-4.81,34.71,8.69,1.16,3.13,2.64,6.19,2.58,9.63,0,3.06,1.5,2.87,3.53,1.87,4.79-2.33,6.44-6.6,7.07-11.49,2-7.14,3.81-14.31,6-21.39.72-2.39.35-2.94-2.14-2.95-5,0-6.27-1.11-7.56-5.83.84-3.91,3.23-5.7,7.23-5.39,1.24.1,2.5,0,3.74,0s2.39.27,2.81-1.18a3.54,3.54,0,0,0-.44-3.56,13.4,13.4,0,0,0-2.25-1.94c-4.86-3.5-9.79-6.89-14.58-10.47a8.57,8.57,0,0,0-5.52-1.75q-18.15.09-36.3,0c-9.08-.05-14.15-4.34-15.82-13.18,1.17-10.23,4.13-20,7.72-29.62,5.64-7.82,13.24-11.28,22.88-10.62,4.09.28,8.21,0,12.32,0,8.73,0,8.67,0,8.2-8.79-.14-2.63-1.31-4-3.85-4-11.5.07-22.92.17-34.4.24ZM141.71,215.73c-11.4,0-23.36,9.9-25.4,21.11-1.7,9.33,4.41,16.38,13.52,15.61,11.16-.94,21.51-9.93,24.11-20.95C156.07,222.45,150.88,215.76,141.71,215.73Zm186.38,0c-11.58,0-22.82,9.46-25.43,21.51-1.88,8.68,4.25,15.81,13.1,15.22,10.87-.71,21.67-9.64,24.43-20.2C342.68,222.76,337.56,215.77,328.09,215.73Z" transform="translate(0.04 0.05)"/><path class="cls-2" d="M246.41,77.7c1.19,4.52,2.39,5.51,7,5.52,11.13,0,22.25.06,33.37,0,2.35,0,3.11.51,2.45,3q-17.39,64.49-34.65,129a3.25,3.25,0,0,1-.38.65H162.79c-8.15-12.9-23-13.47-34.45-8.68-4.9,2-9,5.22-13,8.67-3.25,0-6.5.12-9.75,0-4.21-.16-6.6-3.44-5.54-7.43,1.43-5.41,2.87-10.81,4.38-16.2,1.32-4.72,4.36-6.32,9-4.86a98.19,98.19,0,0,0,45,3.61c28.07-4.47,50.61-18.62,67-41.7,15-21.23,23.1-44.81,19.73-71.33Z" transform="translate(0.04 0.05)"/><path class="cls-3" d="M93.85,164.49c-9.18-6.79-17.41-14.49-24-24C32.63,86.9,64.59,11.64,129.08,1.2A89.69,89.69,0,0,1,232.4,74.78c.06.4.13.81.19,1.21a12,12,0,0,0,.56,1.76,110,110,0,0,1-1.38,30.57c-9.56,47.52-58.19,79.48-105.55,69.44A103.64,103.64,0,0,1,93.85,164.49ZM222.46,89.8a78.58,78.58,0,0,0-157.15-.19c0,43.27,35.46,78.78,78.66,78.68A78.82,78.82,0,0,0,222.46,89.8Z" transform="translate(0.04 0.05)"/><path class="cls-4" d="M93.85,164.49a103.64,103.64,0,0,0,32.37,13.27c47.36,10,96-21.92,105.55-69.44a110,110,0,0,0,1.38-30.57l12.08.11c3.37,26.52-4.68,50.1-19.73,71.33-16.35,23.08-38.89,37.23-67,41.7a98.19,98.19,0,0,1-45-3.61c-4.69-1.46-7.73.14-9,4.86-1.51,5.39-3,10.79-4.38,16.2-1.06,4,1.33,7.27,5.54,7.43,3.25.13,6.5,0,9.75,0-2.88,3.44-5.79,6.87-7.58,11.06a2.42,2.42,0,0,1-2.58,1.64c-7.47-.05-15,0-22.82,0C85.34,217.54,88.15,207,91,196.39c.7-2.65,1.44-5.3,2.1-8,1.07-4.31.3-5.88-3.84-8Z" transform="translate(0.04 0.05)"/><path class="cls-5" d="M36,162.29H65.21c2.63,0,4.65,1,5.68,3.45a5.36,5.36,0,0,1-.8,5.65,6,6,0,0,1-5,2.17c-19.61,0-39.21.05-58.82,0-4,0-6.44-2.51-6.31-5.89.13-3.23,2.5-5.31,6.4-5.33C16.27,162.25,26.13,162.29,36,162.29Z" transform="translate(0.04 0.05)"/><path class="cls-5" d="M41.61,186.35c5.74,0,11.48,0,17.22,0,4.16,0,6.48,2.12,6.46,5.59s-2.38,5.62-6.52,5.65q-17,.1-34,0c-4.24,0-6.83-2.42-6.7-5.89s2.58-5.32,6.76-5.35C30.39,186.32,36,186.35,41.61,186.35Z" transform="translate(0.04 0.05)"/><path class="cls-5" d="M47.68,210.43c2.11,0,4.23-.09,6.34,0a5.08,5.08,0,0,1,5.19,4.85c.37,3.16-1.17,5.55-4.27,6a48.74,48.74,0,0,1-14.47,0,5,5,0,0,1-4.37-5.56v-.07a5.17,5.17,0,0,1,5.08-5.26h.15C43.44,210.33,45.56,210.43,47.68,210.43Z" transform="translate(0.04 0.05)"/><path class="cls-6" d="M349.29,215.89c-8.7-13.5-23.65-13.36-34.71-8.69-4.89,2.06-9,5.27-13,8.67l-17.23-.07c-4.6,0-5.54-1.11-4.38-5.66,1.56-6.13,3.31-12.23,5-18.34l53.55-.18c4.93,0,6.36-1.15,7.72-5.83l12.46-.06c1.29,4.72,2.51,5.82,7.56,5.83,2.49,0,2.86.56,2.14,2.95-2.14,7.08-4,14.25-5.95,21.39Z" transform="translate(0.04 0.05)"/><path class="cls-7" d="M358.72,185.73l-12.46.06c-.85-4.13-3.43-5.51-7.55-5.49-16.69.09-33.38-.05-50.07-.1,1.13-8.71,4.19-16.95,6.35-25.4.57-2.21.15-5,2.6-6.5,1.67,8.84,6.74,13.13,15.82,13.18q18.15.09,36.3,0a8.57,8.57,0,0,1,5.52,1.75c4.79,3.58,9.72,7,14.58,10.47a13.4,13.4,0,0,1,2.25,1.94,3.54,3.54,0,0,1,.44,3.56c-.42,1.45-1.71,1.16-2.81,1.18s-2.5.08-3.74,0C362,180.05,359.56,181.82,358.72,185.73Z" transform="translate(0.04 0.05)"/><path class="cls-4" d="M162.83,215.79h91.41c-.76,3.13-1.64,6.24-2.24,9.41-.47,2.51-1.59,3.32-4.25,3.31-24.31-.12-48.63-.07-72.94-.07h-2.62c-5.86,0-5.93,0-7-5.62A44.32,44.32,0,0,0,162.83,215.79Z" transform="translate(0.04 0.05)"/><path class="cls-8" d="M297.59,148.3c-2.45,1.52-2,4.29-2.6,6.5-2.16,8.45-5.22,16.69-6.35,25.4-3.49.06-7,0-10.46.2-2.27.11-2.39-.83-1.88-2.7q10.79-40,21.45-80.06c.39-1.46.87-2.48,2.69-2.39,3.36.19,6.72.2,10.07.29-.29,1.33-.59,2.65-.86,4-1.31,6.42-4.24,12.47-4.34,19.16C301.72,128.29,298.76,138.05,297.59,148.3Z" transform="translate(0.04 0.05)"/><path class="cls-9" d="M141.71,215.73c9.17,0,14.36,6.72,12.23,15.77-2.6,11-13,20-24.11,20.95-9.11.77-15.22-6.28-13.52-15.61C118.35,225.63,130.31,215.7,141.71,215.73Zm-6.47,12.77a5.17,5.17,0,0,0-5.53,4.79c0,.16,0,.32,0,.48a5.69,5.69,0,0,0,5.45,5.92h0a6.09,6.09,0,0,0,5.72-5.81,5.69,5.69,0,0,0-5.65-5.38Z" transform="translate(0.04 0.05)"/><path class="cls-9" d="M328.09,215.73c9.47,0,14.59,7,12.1,16.53-2.76,10.56-13.56,19.49-24.43,20.2-8.85.59-15-6.54-13.1-15.22C305.27,225.19,316.51,215.68,328.09,215.73Zm-1,18.49a5.2,5.2,0,0,0-4.67-5.7,4.5,4.5,0,0,0-.82,0,5.69,5.69,0,0,0-5.7,5.28,6.23,6.23,0,0,0,5.69,5.91,5.66,5.66,0,0,0,5.47-5.47Z" transform="translate(0.04 0.05)"/><path class="cls-10" d="M348.65,137.79c0,4,1.45,9-.44,11.63s-7.2.72-11,.78c-7.6.13-15.21.06-22.82,0-5.28,0-6.25-1.24-4.93-6.27q1.85-7,3.76-14.05c2.36-8.68,6.27-11.3,15.29-10.29-1.24,4.4-2.63,8.75-3.65,13.2-.89,3.9.12,5,4,5C335.49,137.82,342.07,137.8,348.65,137.79Z" transform="translate(0.04 0.05)"/><path class="cls-11" d="M285,191.8c-1.66,6.11-3.41,12.21-5,18.34-1.16,4.55-.22,5.64,4.38,5.66l17.23.07c-2.72,3.39-5.57,6.71-7.32,10.76a2.67,2.67,0,0,1-2.82,1.85c-8.73,0-17.45-.09-26.18,0-2.35,0-2.36-1-1.88-2.74,2.87-10.56,5.76-21.12,8.53-31.71.45-1.71,1-2.56,2.95-2.46C278.27,191.77,281.63,191.74,285,191.8Z" transform="translate(0.04 0.05)"/><path class="cls-7" d="M305.31,118.68c.1-6.69,3-12.74,4.34-19.16.27-1.33.57-2.65.86-4,11.45-.07,22.9-.17,34.35-.2,2.54,0,3.71,1.35,3.85,4,.47,8.79.53,8.79-8.2,8.79-4.11,0-8.23.23-12.32,0C318.55,107.4,311,110.86,305.31,118.68Z" transform="translate(0.04 0.05)"/><path class="cls-12" d="M348.65,137.79H328.91c-3.93,0-4.94-1.08-4-5,1-4.45,2.41-8.8,3.65-13.2,6.1-.07,12.21-.1,18.31-.26,1.87,0,1.95.94,1.93,2.34C348.68,127.05,348.68,132.43,348.65,137.79Z" transform="translate(0.04 0.05)"/><path class="cls-11" d="M349.29,215.89h13.18c-.63,4.89-2.28,9.16-7.07,11.49-2,1-3.58,1.19-3.53-1.87C351.93,222.05,350.45,219.05,349.29,215.89Z" transform="translate(0.04 0.05)"/><path class="cls-13" d="M222.46,89.8A78.81,78.81,0,0,1,144,168.29c-43.2.1-78.7-35.41-78.66-78.68a78.58,78.58,0,0,1,157.15.19ZM79.21,86.28a7.83,7.83,0,0,0-1,5.12c-.92,6.88.71,13.48,3,19.74,8.81,23.48,25.46,38.27,50.14,43.46,3,.64,6.37,2.52,9.62.28a8.94,8.94,0,0,0,5.8-.12c.68,1.25,1.89,1.15,3,1a80.53,80.53,0,0,0,8-1.43c28.16-7,45.06-25,51.08-53.2.55-2.58,2.61-5.68,0-8.46a8.94,8.94,0,0,0,.11-5.78c1.07-.61,1-1.67.91-2.64-1.25-11.2-4.34-21.92-11-31.2-2.2-3.06-3.44-7.38-8-8.33l-1.89-2c0-2-1.64-3-3-4.1A63.26,63.26,0,0,0,170,29c-7.86-3.16-15.84-6-24.57-5a7.88,7.88,0,0,0-5.07,1c-.82-1.59-2.34-1.34-3.63-1.17-8.57,1.09-17,3.19-24.39,7.58C95,41.7,82.94,56.2,79.08,76.44,78.6,79.56,76.32,83.05,79.21,86.28Z" transform="translate(0.04 0.05)"/><path class="cls-14" d="M135.24,228.5a5.69,5.69,0,0,1,5.65,5.38,6.09,6.09,0,0,1-5.72,5.81,5.69,5.69,0,0,1-5.47-5.9v0a5.17,5.17,0,0,1,5.06-5.28A3.85,3.85,0,0,1,135.24,228.5Z" transform="translate(0.04 0.05)"/><path class="cls-14" d="M327.06,234.22a5.66,5.66,0,0,1-5.5,5.47,6.23,6.23,0,0,1-5.69-5.91,5.69,5.69,0,0,1,5.7-5.28,5.21,5.21,0,0,1,5.51,4.9A5.62,5.62,0,0,1,327.06,234.22Z" transform="translate(0.04 0.05)"/><path class="cls-14" d="M190.91,44.74c1.28,3.2.33,5.7-2.08,8.07-9.07,8.94-18,18-27.08,27-1.34,1.34-1.9,2.39-1.24,4.43,2.2,6.73.85,12.89-4.18,17.92s-11.18,6.4-17.92,4.21a3.66,3.66,0,0,0-4.42,1.18c-3.09,3.27-6.29,6.44-9.52,9.56-2.87,2.79-6.27,2.94-8.6.54s-2.21-5.5.74-8.56a69.37,69.37,0,0,1,5-5c4.13-3.48,6.16-6.84,4.94-13.11-2.3-11.75,10.41-21.66,22.23-18.09,2.48.75,3.78.31,5.46-1.39,8.75-8.91,17.65-17.67,26.42-26.57,2.42-2.46,4.94-3.75,8.32-2.19ZM150.08,89.51a6.42,6.42,0,0,0-6.19-6.19,6.71,6.71,0,0,0-6.4,6.54,6.48,6.48,0,0,0,6.36,6,6,6,0,0,0,6.24-5.75c0-.2,0-.4,0-.6Z" transform="translate(0.04 0.05)"/><path class="cls-5" d="M79.21,86.28c4-3.53,8.74-2.82,13.09-1.44,3.93,1.25,4.09,7.15.6,9.5-3.83,2.58-12.13.92-14.65-2.94A7.82,7.82,0,0,1,79.21,86.28Z" transform="translate(0.04 0.05)"/><path class="cls-5" d="M145.54,24.05c3.87,2.47,5.55,11.18,2.87,14.84-2.45,3.35-8.28,3-9.45-.9-1.3-4.33-2-9,1.51-13A7.93,7.93,0,0,1,145.54,24.05Z" transform="translate(0.04 0.05)"/><path class="cls-5" d="M209,92.66c-2.71,2.6-10.26,3.72-13.56,2a5.63,5.63,0,0,1,.16-10c3.52-1.77,10.69-.57,13.51,2.19A9,9,0,0,1,209,92.66Z" transform="translate(0.04 0.05)"/><path class="cls-5" d="M141.06,154.88c-2.78-2.86-4-9.95-2.2-13.5a5.62,5.62,0,0,1,10-.18c1.71,3.24.61,10.86-2,13.56A8.94,8.94,0,0,1,141.06,154.88Z" transform="translate(0.04 0.05)"/><path class="cls-9" d="M150.08,89.51a6,6,0,0,1-5.59,6.38,4.56,4.56,0,0,1-.64,0,6.48,6.48,0,0,1-6.36-6,6.71,6.71,0,0,1,6.4-6.54A6.43,6.43,0,0,1,150.08,89.51Z" transform="translate(0.04 0.05)"/></svg>