<?xml version="1.0" encoding="utf-8"?>
<!-- Generator: Adobe Illustrator 23.0.3, SVG Export Plug-In . SVG Version: 6.00 Build 0)  -->
<svg version="1.1" id="Layer_1" xmlns="http://www.w3.org/2000/svg" xmlns:xlink="http://www.w3.org/1999/xlink" x="0px" y="0px"
	 viewBox="0 0 384 384" style="enable-background:new 0 0 384 384;" xml:space="preserve">
<style type="text/css">
	.st0{fill:#FFFFFF;}
</style>
<title>gift-box-outline-w</title>
<path class="st0" d="M291.8,0h10.5c10.5,2.3,19.5,9,24.8,18.4c4.8,8.4,7.8,17.6,9,27.2c0.7,4.8,1,9.6,1.5,14.5
	c8.3,0,16.3-0.1,24.3,0c7.7-0.1,14.8,3.9,18.7,10.5c1.6,2.5,2.4,5.4,3.6,8.2v66c-3.1,6.7-9.5,5-15,5.4v5c0,68,0,136,0.1,203.9
	c0,9-3.8,15.4-11.1,19.9c-3.5,2.2-7.6,3.4-11.5,5.1H33.8C18.9,378.4,15,372.7,15,356.5V150H9.5c-6.9,0-9.5-2.6-9.5-9.5
	c0-18.9,0-37.7,0-56.6C0,69.4,9.5,60,24,60c12.1,0,24.2,0,36.4,0h3.7c0.7-5.9,0.9-11.3,1.9-16.5C70,23.5,76.9,5.5,99.7,0h10.5
	c10.8,2.1,19,8.9,27.3,15.5c9.4,7.4,19,14.6,28.4,22.1c2,1.6,3.3,1.6,5.5,0.2c2.9-2,6-3.5,9.3-4.6c18-5.6,35.2-4.1,51.1,7.4
	c11.4-8.8,22.9-17.6,34.3-26.5C273.9,7.8,281.7,1.9,291.8,0z M169.3,369V174.9c-1,1.8-1.6,2.9-2.1,3.9
	c-6.8,13.3-13.5,26.7-20.3,40.1c-2.3,4.6-5,6.5-8.5,6c-4.4-0.6-6.1-3.8-7.1-7.7c-1.3-5.1-2.6-10.1-4-15.2c-1.5-5.4-3-10.7-4.5-16.3
	c-11.2,3-21.9,5.8-32.6,8.6c-1.5,0.5-3.2,0.6-4.8,0.3c-5.5-1.3-7.4-7.3-3.8-12.2c7-9.7,14.3-19.3,21.4-28.9c0.8-1,1.4-2.1,2.3-3.3
	H30v209c0,7.4,2.5,9.8,10,9.8L169.3,369L169.3,369z M276,185.7c-2.9,11-5.8,21.5-8.5,32c-1,3.8-2.8,6.8-7,7.2s-6.5-2.3-8.3-5.7
	c-6.8-13.5-13.6-27-20.4-40.5c-0.5-1-1.1-2.1-2-3.6V369h109c1.4,0,2.7,0,4.1-0.1c7.4-0.7,11.1-4.8,11.1-12.1V150.3h-60l7.8,10.7
	c5.1,7.1,10.3,14.1,15.4,21.2c2.2,3,2.8,6.2,0.7,9.4s-5.3,4-8.9,2.8c-0.8-0.3-1.7-0.5-2.5-0.7L276,185.7z M199.5,114.8
	c-4.8,9.6-9.3,18.2-13.5,27c-0.9,1.9-1.4,3.9-1.4,6c-0.1,72.3-0.1,144.7-0.1,217.1v4h30v-2.7c0-73.1,0-146.2,0-219.3
	c0.1-1,0-2-0.4-2.9C209.5,134.4,204.7,125,199.5,114.8L199.5,114.8z M243.3,75l-0.5,1.3c1,0.8,2,1.5,3,2.2
	c10.7,6.3,21.5,12.7,32.3,19c3.3,2,6.7,3.9,10.2,5.6c10,4.5,19.2,1.8,25.1-7.4c1.9-2.9,3.5-6.1,4.7-9.4c4.3-12,4.9-24.4,3.4-36.9
	c-1-8.2-3-16.2-7.3-23.4c-6.7-11.3-18.8-14.6-29.1-7.2c-14.5,10.5-28.4,21.6-42.5,32.6c-0.7,0.7-1,1.7-0.9,2.7c0.6,2,1.3,4,2.1,6
	h11.8c3.9,0,7.8-0.1,11.6,0.1c4.1,0.1,7.4,3.6,7.2,7.7c-0.1,3.9-3.2,7.1-7.1,7.2c-2,0.1-4,0-6,0L243.3,75z M158.7,50.9
	c-13.3-10.3-26.4-20.5-39.6-30.6C107,11,93.6,13.6,87,27.4c-10.2,21.2-10.5,43-0.8,64.5c6.2,13.8,17.5,17,30.7,9.5
	c12.5-7.1,24.8-14.5,37.1-21.8c0.9-0.6,1.4-2,2-3c-1.1-0.5-2.2-1.5-3.3-1.5c-6.8-0.1-13.5,0-20.2-0.1c-5.2-0.1-8.7-4.1-7.9-8.7
	c0.7-3.8,3.7-6.2,8.2-6.2c7.6-0.1,15.2,0,22.6,0C156.6,56.8,157.6,54,158.7,50.9L158.7,50.9z M136.9,107.9l-0.3-0.5
	c-5.5,3.1-10.9,6.4-16.6,9.1c-17,7.9-34.3,2.8-44.5-12.9c-4.9-7.7-8.1-16.4-9.4-25.4c-0.4-2.5-1.3-3.2-3.8-3.2
	c-12.6,0.1-25.2,0-37.8,0c-6.9,0-9.5,2.6-9.5,9.5c0,15.6,0,31.2,0,46.8v3.7h3.2c32.2,0,64.4,0,96.6-0.1c1.3-0.1,2.5-0.8,3.3-1.8
	C124.5,124.8,130.7,116.4,136.9,107.9L136.9,107.9z M369,135c0-17.9,0.1-35.2,0-52.5c0-4-2.8-7.2-6.6-7.3
	c-8.7-0.2-17.4-0.1-26.2-0.1c-1.7,10.4-4.4,20-10.1,28.7c-9.9,15.1-26.5,20.4-43.2,13.3c-6.2-2.6-11.8-6.4-17.7-9.7
	c-1-0.5-1.9-1-2.9-1.5c6,9.3,12.4,17.9,18.6,26.6c1.1,1.8,3.2,2.8,5.3,2.6c26.3-0.1,52.7,0,79,0L369,135z M292,174.4l0.5-0.7
	l-58.2-79.9l-22.9,11.3c15.1,29.9,30.5,60.3,46.2,91.4c2-7.3,3.7-13.7,5.5-20c1.8-6.6,5-8.4,11.7-6.7
	C280.5,171.3,286.2,172.8,292,174.4z M165.6,94.4l-58.7,79.3c6-1,11.9-2.3,17.7-4c6.4-1.7,9.6,0.2,11.4,6.6s3.5,12.8,5.5,20.2
	c15.8-31.3,31.2-61.7,46.2-91.5L165.6,94.4z M199.2,90c7.2-0.1,14-1.2,20.1-5.2c13.3-8.6,13.5-26.7-0.2-34.7
	c-12.9-7.6-26.6-7.5-39.5,0.2c-13.4,8.1-13,26,0.1,34.5C185.7,88.7,192.4,89.9,199.2,90z"/>
<path class="st0" d="M60,321.8c0,7.9,0,15.7,0,23.6c0,5.2-3,8.5-7.4,8.6s-7.6-3.4-7.6-8.7c0-15.7,0-31.4,0-47.1
	c0-5.2,2.9-8.5,7.3-8.6s7.6,3.4,7.6,8.7C60,306.1,60,313.9,60,321.8z"/>
<path class="st0" d="M52.6,259.5c4.1,0.1,7.4,3.5,7.3,7.6c-0.1,4.1-3.5,7.4-7.6,7.3c-4.1-0.1-7.4-3.5-7.3-7.6c0-0.1,0-0.1,0-0.2
	C45.2,262.7,48.6,259.5,52.6,259.5z"/>
</svg>
