<?xml version="1.0" encoding="utf-8"?>
<!-- Generator: Adobe Illustrator 23.0.3, SVG Export Plug-In . SVG Version: 6.00 Build 0)  -->
<svg version="1.1" id="Layer_1" xmlns="http://www.w3.org/2000/svg" xmlns:xlink="http://www.w3.org/1999/xlink" x="0px" y="0px"
	 viewBox="0 0 409.5 409.5" style="enable-background:new 0 0 409.5 409.5;" xml:space="preserve">
<style type="text/css">
	.st0{fill:#FFFFFF;}
</style>
<title>heart-outline-w</title>
<path class="st0" d="M409.5,163.3c-0.7,3.1-1.3,6.2-2,9.2c-5.3,22.9-17.2,42.3-31.2,60.6c-23,30.2-50.8,55.7-79.7,80
	c-27.3,22.8-55.9,44-85.6,63.6c-4,2.7-7.6,3.3-11.8,0.5c-50.6-33.8-98.6-70.6-140.8-114.6c-18.5-19.3-35-40.2-47.2-64.2
	C-2.3,172-2.9,144.7,5.9,117c9.7-30.4,28.4-54.1,56-70.2c23.7-13.8,49.3-18.8,76.5-15.1c24.2,3.4,45.3,13.4,63.5,29.5
	c0.8,0.7,1.6,1.4,2.7,2.2c4.3-3.4,8.4-6.9,12.8-10.1c25.1-18.1,53.2-25.7,83.8-21.9c38.8,4.7,68.4,24.4,89.3,57.3
	c10.6,16.7,16.9,35.8,18.5,55.5c0.1,1,0.3,2,0.6,3L409.5,163.3z M122.8,46.4l-0.2-1.1c-10.2,1.9-20.7,2.8-30.5,5.8
	c-32.7,10-55.3,31.7-68.2,63.2c-12.6,30.7-10,60.2,7.8,88.5C43.3,221,56.7,238,71.8,253.4c39.2,40.7,83.8,74.9,130.4,106.6
	c1.8,1.2,3,1.4,4.9,0.1c46.9-31.9,91.8-66.4,131.2-107.4c15.3-15.9,29.5-32.7,40.4-51.9c8.1-14.2,14.8-29.1,14.7-45.9
	c-0.3-27.7-9.4-52.2-27.8-73c-40-45.1-108-47.6-151-5.5c-8.9,8.7-10.8,8.7-19.9-0.1C174.7,56.9,150.6,47.2,122.8,46.4z"/>
<path class="st0" d="M366.5,149.4c0,1.2,0.1,2.4,0,3.6c-0.3,4.5-3.2,7.7-7.5,7.9c-4,0.3-7.6-2.7-8.1-6.7c-1.1-6.1-1.3-12.5-3-18.5
	c-5.5-20.1-17.9-34.4-37.4-42.3c-1.1-0.5-2.3-0.8-3.4-1.3c-4.7-2.1-6.7-6.1-5.1-10.3c1.4-4.1,5.8-6.3,9.9-4.9
	c0.2,0.1,0.4,0.2,0.6,0.2c5.5,2,11,4.2,15.9,7.3C352.4,99.4,364.5,121.5,366.5,149.4z"/>
<path class="st0" d="M271.1,82.3c0.6-4.4,4.6-7.5,8.9-6.9c3.9,0.5,6.8,3.7,7,7.6c-0.3,4.4-4,7.8-8.4,7.5c0,0-0.1,0-0.1,0
	c-4.3-0.2-7.6-3.8-7.4-8.1C271.1,82.4,271.1,82.3,271.1,82.3z"/>
</svg>
