<?xml version="1.0" encoding="utf-8"?>
<!-- Generator: Adobe Illustrator 23.0.3, SVG Export Plug-In . SVG Version: 6.00 Build 0)  -->
<svg version="1.1" id="Layer_1" xmlns="http://www.w3.org/2000/svg" xmlns:xlink="http://www.w3.org/1999/xlink" x="0px" y="0px"
	 viewBox="0 0 409.5 409.5" style="enable-background:new 0 0 409.5 409.5;" xml:space="preserve">
<style type="text/css">
	.st0{fill:#EEF1F9;}
	.st1{fill:#E3E9F5;}
	.st2{fill:#5C5E6E;}
	.st3{fill:#EFBF86;}
	.st4{fill:#694B4B;}
	.st5{fill:#E5AE78;}
	.st6{fill:#5B4246;}
	.st7{fill:#785651;}
	.st8{fill:#E5AF78;}
	.st9{fill:#D19B6E;}
	.st10{fill:#525363;}
</style>
<title>man-colored</title>
<path class="st0" d="M27.2,323.1c5-7.2,12.6-9.9,20.6-11.8c17.6-4.2,35.3-8.2,53-12.3c7-1.6,13.9-3.1,20.9-4.7
	c1.1,0.5,1.3,1.5,1.8,2.5c9,19.7,18,39.4,27,59c2.8,5.9,8.1,7.4,13.5,3.8c3.4-2.3,6.4-5.1,9.8-7.4c4.4-2.9,7.8-7.3,13.3-8.4
	c-0.2,3.7,1.9,6.4,4.3,8.9l-4.1,56.8H84.8c0-6.5,0.3-13.1-0.1-19.6c-0.4-9.4-3.3-18.1-10.3-24.7c-9.3-8.7-18.6-17.5-28.3-25.8
	C39.8,334,34.2,327.8,27.2,323.1z"/>
<path class="st0" d="M288,294.3c14.3,3.3,28.6,6.5,42.9,9.9c12.6,3,25.3,5.6,37.8,9.1c5.5,1.6,10.3,5,13.7,9.7
	c-7.9,5.7-14.6,12.7-21.9,19.1c-6.9,6-13.7,12.1-20.5,18.2c-7.4,6.6-13.1,14.1-14.5,24.4c-1.2,8.3-0.3,16.5-0.7,24.7H304v-2.4
	c0-9.5-2.6-12-12.1-12c-12.5,0-25.1,0.2-37.6,0c-12.3-0.2-15,2-14.3,14.5h-17.6l-4.1-56.8c2.4-2.5,4.4-5.2,4.3-8.9
	c1.6,0.1,3.1,0.7,4.4,1.8c6.2,4.7,12.4,9.5,18.8,14c5.3,3.7,10.7,2.2,13.5-3.7c5.6-11.9,10.7-24,16.5-35.8
	C279.8,311.5,282.8,302.4,288,294.3z"/>
<path class="st1" d="M27.2,323.1c7,4.7,12.7,10.9,19,16.3c9.7,8.3,19,17,28.3,25.8c7,6.6,9.9,15.3,10.3,24.7
	c0.3,6.5,0.1,13.1,0.1,19.6H31.2c-8.9-4-10.6-11.6-10.5-20.4c0.3-15.6-0.1-31.2,0.1-46.8C21,335.4,22.2,328.6,27.2,323.1z"/>
<path class="st1" d="M324.8,409.5c0.4-8.2-0.5-16.5,0.7-24.7c1.5-10.3,7.2-17.8,14.5-24.4c6.8-6.1,13.7-12.2,20.5-18.2
	c7.3-6.4,14-13.4,21.9-19.1c4.9,5.3,6.2,12,6.3,18.8c0.3,17.1,0.1,34.1,0.1,51.2c0,7.6-3.4,13.2-10.4,16.4H324.8z"/>
<path class="st2" d="M218.3,352.7l4.1,56.8h-35.2l4.1-56.8H218.3z"/>
<path class="st1" d="M240,409.5c-0.7-12.4,1.9-14.7,14.3-14.5c12.5,0.2,25.1,0,37.6,0c9.5,0,12.1,2.5,12.1,12v2.4H240z"/>
<path class="st3" d="M303.8,150.2c6.3,4.8,7.8,11,5.8,18.4c-2.5,9.4-4.7,18.8-7.1,28.2c-1.4,5.6-3.7,7.6-9.4,7.8
	c-3.1,0.1-2.7,2-2.6,3.8c0.4,8.6-1.7,17-6.1,24.4c-3.1,5-7.1,9.3-11.8,12.9c-1.5,1.2-3.3,2.2-4.5,3.9c-1.7-0.1-2.3,1.5-3.4,2.3
	c-5.3,3.9-10.8,7.6-16,11.8c-9.9,7.9-20.7,12.6-33.7,11.6c-4.8-0.4-9.6-0.1-14.3-0.1c-7.5-3.6-14.2-8.8-19.6-15.1
	c-11.3-12.9-18.1-27.8-18.6-44.7c-0.8-29.4-0.3-58.9-0.1-88.4c0.1-8.9,8.2-19.7,18.7-20.8c9.5-1,19-0.7,28.5-2.2
	c14.5-2.3,28.7-5.5,41.5-13c3.1-1.8,6.4-3.7,7.9-7.4c1.8-1.1,3.3-2.6,5.7-2.1c9.7,7.5,15.3,17.7,18.9,29.2c3.5,11.2,5,22.8,5.9,34.4
	c0.2,2.5,0.8,4,3.8,3.5C296.9,148.1,300.6,148.7,303.8,150.2z"/>
<path class="st4" d="M264.8,81.6c-2.3-0.6-3.9,1-5.7,2.1c-1.3,0.4-2.5,0.8-3.8,1.2c-9.1,3.3-18.6,5.3-28.2,6c-1.6-3-4.5-1.3-6.8-1.6
	c-13.7-2.1-26.7-6.6-39.9-10.4c-7.6-2.2-15.3-4.2-23.3-4.6c-14.1-0.9-27,3-39.2,9.9c-2.5,1.4-2.6,0.8-2.9-1.6
	c-1-6.6-1-13.2,0.1-19.8c1.7-9.8,4.1-19.4,9.2-28.1c1.2-2,3.7-3.8,2.8-6.8c2.8-2.1,2.5-3.6-0.6-5.1c-2.3-1.4-4.5-2.9-6.6-4.5
	c9-4.8,18.1-7.5,27.4-9.9c21.4-5.4,43-9.1,65.2-8.3c19.9,0.7,38.7,5.4,54.7,18.3c3.4,2.8,5.7,6.7,9.5,9c0.1,0.6,0,1.4,0.4,1.9
	c4.6,6.4,5.6,13.5,5.3,21.2c-0.4,11.4-5,20.4-14,27.3C267.1,78.8,265.1,79.5,264.8,81.6z"/>
<path class="st5" d="M227.2,91c9.6-0.7,19.1-2.7,28.2-6c1.2-0.5,2.5-0.8,3.8-1.2c-1.6,3.6-4.8,5.5-7.9,7.4
	c-12.8,7.5-27,10.6-41.5,13c-9.5,1.5-19,1.2-28.5,2.2c-10.5,1.1-18.7,11.9-18.7,20.8c-0.2,29.5-0.6,58.9,0.1,88.4
	c0.4,16.9,7.3,31.8,18.6,44.7c5.4,6.3,12.1,11.4,19.6,15.1c-0.5,0.6-1.3,0.9-2.2,0.8c-13.7,0.4-26.1-2.6-37.1-11.5
	c-6.5-5.3-13.1-10.7-20.5-14.9c-3.9-4.4-9.2-7.1-12.8-11.9c-5.5-7.5-9.1-15.5-9.2-24.9c0-1.3-0.3-2.6-0.3-4
	c-0.1-2.9-0.9-4.4-4.3-4.3c-3.6,0-6.2-2.6-7.1-6.1c-2.9-10.8-5.6-21.5-8.1-32.4c-1.3-5.8,1-10.7,4.8-14.9c4.8-2.8,10.5-3.4,15.8-1.6
	c-0.3-7.9,0.5-15.9,2.5-23.6c3.4-12.9,10.4-22.9,22.5-29c10.5-5.2,21.6-7.1,33.2-6.8C194.5,90.5,210.8,93.5,227.2,91z"/>
<path class="st6" d="M227.2,91c-16.4,2.5-32.7-0.5-49-0.8c-11.6-0.3-22.8,1.6-33.2,6.8c-12.2,6-19.2,16-22.5,29
	c-2,7.7-2.8,15.7-2.5,23.6c-5.3-1.8-11-1.2-15.8,1.6c-1.8-10.8-4.4-21.3-11.5-30.1c-0.8-1-1.3-2.3-1.3-3.7
	C90,92.5,94.4,69,108.5,47.9c5.1-7.7,11.1-14.6,18.7-20c1,3-1.6,4.8-2.8,6.8c-5.1,8.8-7.5,18.3-9.2,28.1c-1,6.5-1.1,13.2-0.1,19.8
	c0.3,2.4,0.4,3,2.9,1.6c12.1-6.9,25-10.8,39.2-9.9c8,0.5,15.7,2.4,23.3,4.6c13.2,3.8,26.3,8.3,39.9,10.4
	C222.6,89.7,225.5,88,227.2,91z"/>
<path class="st1" d="M288,294.3c-5.2,8.1-8.2,17.2-12.4,25.8c-5.7,11.8-10.9,23.9-16.5,35.8c-2.8,5.9-8.1,7.4-13.5,3.7
	c-6.4-4.5-12.5-9.3-18.8-14c-1.2-1-2.8-1.6-4.4-1.8c0-1.6-1.4-2.1-2.5-2.8c-4.9-3.1-9.9-6.1-14.8-9.1c3.4-4,7.5-7.2,11.3-10.6
	c12.7-11.4,25.5-22.6,38-34.2c4.8-4.4,10.2-8.1,14.1-13.5c7.6-3,8.5-1.8,13.6,4.9c1.1,1.5,2,3.1,3.1,4.6
	C287.8,286.5,290.5,289.8,288,294.3z"/>
<path class="st1" d="M187,343.8c-5.5,1.1-8.9,5.5-13.3,8.4c-3.4,2.3-6.4,5.1-9.8,7.4c-5.4,3.6-10.7,2.2-13.5-3.8
	c-9.1-19.6-18.1-39.3-27.1-59c-0.4-1-0.6-2-1.8-2.5c-2.2-4.3-0.2-7.7,2.5-11c1.7-2.1,2.8-4.5,4.4-6.6c3.7-4.9,5.6-5.4,12.3-3.2
	c8.4,9,17.9,16.8,27.1,24.8c1.3,1.3,2.6,2.6,4,3.9c10.8,9.9,22.1,19.3,32.5,29.7c-5,3-9.9,6-14.8,9.1
	C188.4,341.7,187.1,342.2,187,343.8z"/>
<path class="st7" d="M264.8,81.6c0.3-2.1,2.3-2.8,3.7-3.9c9-6.9,13.6-15.9,14-27.3c0.3-7.7-0.7-14.8-5.3-21.2
	c-0.3-0.5-0.3-1.3-0.4-1.9c12.7,2.2,21,10.2,27.1,21c7.2,12.8,10.2,26.7,12.1,41.1c1.1,9.1,1.6,18.3,1.6,27.5
	c0.2,1.7-0.4,3.4-1.4,4.8c-7,8.3-10.5,18.1-12.2,28.6c-3.3-1.6-6.9-2.1-10.5-1.5c-3,0.5-3.7-0.9-3.8-3.5c-1-11.6-2.4-23.2-5.9-34.4
	C280,99.3,274.5,89.1,264.8,81.6z"/>
<path class="st8" d="M204.3,331.9c-10.4-10.4-21.7-19.8-32.5-29.7c-1.3-1.3-2.6-2.6-4-3.9c6.7,0.9,13.5,0.9,20.2,0.1
	c10.4-1.2,20.5-3.9,30.1-8c16.2-7.1,29.8-17.7,41.6-30.8c2-2.2,5-4.1,5-7.8c1.1-0.8,1.7-2.3,3.4-2.3c0.2,8,0.3,16,0.4,24
	c-3.8,5.4-9.3,9.1-14.1,13.5c-12.5,11.5-25.3,22.8-38,34.2c-3.8,3.5-8,6.7-11.3,10.6L204.3,331.9z"/>
<path class="st9" d="M264.8,251.9c-0.1,3.6-3,5.5-5,7.8c-11.8,13-25.4,23.6-41.6,30.8c-9.6,4.1-19.7,6.8-30.1,8
	c-6.7,0.8-13.5,0.8-20.2-0.1c-9.2-8.1-18.7-15.8-27.1-24.8c0.1-8,0.2-16,0.3-24c7.4,4.2,13.9,9.6,20.5,14.9
	c10.9,8.9,23.4,11.9,37.1,11.5c0.8,0.1,1.6-0.2,2.2-0.8c4.8,0,9.6-0.3,14.3,0.1c13,1,23.8-3.7,33.7-11.6
	C253.9,259.5,259.4,255.8,264.8,251.9z"/>
<path class="st10" d="M204.3,331.9h0.9c4.9,3,9.9,6,14.8,9.1c1.1,0.7,2.4,1.2,2.5,2.8c0.2,3.7-1.9,6.4-4.3,8.9h-27
	c-2.4-2.5-4.4-5.2-4.3-8.9c0-1.6,1.4-2.1,2.5-2.8C194.4,337.9,199.4,334.9,204.3,331.9z"/>
</svg>
