<?xml version="1.0" encoding="utf-8"?>
<!-- Generator: Adobe Illustrator 23.0.6, SVG Export Plug-In . SVG Version: 6.00 Build 0)  -->
<svg version="1.1" id="Layer_1" xmlns="http://www.w3.org/2000/svg" xmlns:xlink="http://www.w3.org/1999/xlink" x="0px" y="0px"
	 viewBox="0 0 355 355" style="enable-background:new 0 0 355 355;" xml:space="preserve">
<style type="text/css">
	.st0{fill:#4CA478;}
	.st1{fill:#4BA377;}
	.st2{fill:#389EC2;}
	.st3{fill:#EDBE35;}
	.st4{fill:#A1C22A;}
	.st5{fill:#EDBD33;}
	.st6{fill:#E78604;}
	.st7{fill:#359965;}
	.st8{fill:#E34B4D;}
	.st9{fill:#D04547;}
	.st10{fill:#2D80B3;}
	.st11{fill:#DD6537;}
	.st12{fill:#68B740;}
	.st13{fill:#89CBE6;}
	.st14{fill:#EDDB99;}
</style>
<g>
	<path class="st0" d="M282.1,24.5c-3.7,0-6.4-0.1-9.1,0c-1.8,0.1-2.7-0.3-2.7-2.4c0.1-6.5,0.1-13,0-19.5c0-1.6,0.5-2.2,2.2-2.2
		c16.6,0,33.2,0,49.9,0c1.8,0,2,0.8,2,2.3c0,16.5,0,33,0,49.5c0,1.9-0.7,2.3-2.4,2.3c-6.5-0.1-13-0.1-19.5,0c-1.6,0-2.2-0.5-2.2-2.2
		c0.1-2.9,0-5.9,0-9c-1.9,0.6-2.7,2-3.7,3c-33.9,33.8-67.7,67.7-101.5,101.6c-2.3,2.3-3.3,2.2-5.4-0.2
		c-20.2-22.2-40.5-44.2-60.7-66.4c-2.1-2.3-3.2-2.4-5.5-0.1c-24,24.2-48.2,48.3-72.3,72.5c-2.5,2.6-3.8,2.3-6-0.1
		c-4-4.3-8.1-8.5-12.5-12.5c-2.1-2-2.2-3.1-0.1-5.2C51.3,117.6,69.6,99.2,88,80.8c12-12,24.1-24,36-36.1c1.9-1.9,2.8-1.8,4.6,0.1
		c20.3,22.3,40.7,44.4,61,66.7c2.2,2.5,3.3,2.5,5.7,0.1c27.8-28,55.8-55.9,83.7-83.8C279.9,26.9,280.7,26,282.1,24.5z"/>
	<path class="st1" d="M270.3,138.4c0-10.9,0.2-21.7,0-32.6c0-2.9,0.8-3.5,3.6-3.5c9.9,0.2,19.7,0.1,29.6,0c1.8,0,3,0,3,2.5
		c-0.1,53.2-0.1,106.4-0.2,159.6c-6.9,0-13.7,0-20.6,0c-1.3,0-3.1,0.5-3.2-1.6c-0.1-3.7-1-7.6-0.6-11.1c0.7-6.1,0.4-12.2,0.5-18.3
		c0.1-7-6.9-15-11.9-15.5c0-0.3-0.1-0.5-0.1-0.8C270.3,190.9,270.3,164.7,270.3,138.4z"/>
	<path class="st2" d="M171.3,348.3c-9.3,4-18.8,6.6-29,6.1c-10.9-0.6-21.1-3.4-30.2-9.6c1.8-2.2,3.5-4.4,5.4-6.5
		c1.6-1.8,1.5-2.7-0.5-4.4c-2.3-1.9-5.6-2.9-6.4-6.3c5-8.2,8.1-17.1,9.6-26.6c0,3,0.1,6,0.1,9c0,1.4,0.3,2.7,2,2.4
		c3.1-0.5,4.2,0.9,4.5,3.8c0.1,0.6,0,1.9,1.3,1.9c6.2-13.7,5.2-38.1-0.4-47.2c-0.8,1.2-1.2,2.4-1.3,3.8c-0.1,1.2-0.6,2-1.8,1.8
		c-4.5-0.7-4.3,2.2-4.2,5.2c0.1,2.1-0.1,4.2-0.1,6.4c-1.5-9.5-4.6-18.4-9.6-26.6c1-3.4,4.3-4.6,6.7-6.5c1.7-1.4,1.8-2.3,0.4-3.9
		c-2-2.2-3.8-4.5-5.7-6.8c4.3-3.5,9.5-5,14.4-7.2c11.9-3.3,23.9-3.3,35.8-0.1c6.6,2.4,12.9,5.6,18.7,9.6c2.2,2,4.5,4,6.7,6
		c4.8,5.4,8.7,11.5,12,18c0.7,2,1.5,4,2.2,6c1.3,5.9,2.5,11.8,2.6,17.9c-0.1,2-0.1,4-0.2,6c-1.1,6.1-2.4,12.1-4.7,17.9c-1,2-2,4-3,6
		c-4.3,6.8-9.5,12.8-15.7,18C177.6,344.3,174.5,346.3,171.3,348.3z M150.5,258.5c1.4,0,2.3,0,3.2,0c9.1,0,9.1,0,8.7,9.3
		c-0.1,2.1-0.8,2.8-2.8,2.8c-4.9-0.1-9.7,0-14.6,0c-2.6,0-4.6,0.9-5.9,3.2c-0.9,1.7-0.9,2.9,1.5,2.8c2.2-0.1,4.5,0.1,6.7,0
		c2.2-0.1,3,0.6,3.1,2.9c0.2,9,0.3,9.1-8.5,9c-2.8,0-3.6,0.7-3.6,3.6c0.1,8.4-0.1,8.5,8.4,8.4c3,0,3.8,0.9,3.8,3.8
		c-0.1,8.2,0,8.2-8.2,8.3c-1.2,0-3.2-0.9-3.6,0.9c-0.4,1.6,0.9,3,2.3,4c1.2,0.8,2.5,1.1,3.9,1.1c3,0,6,0,9,0c8.8,0,8.8,0,8.6,9
		c0,2.2-0.7,3.1-3,3c-4.2-0.2-8.5-0.2-12.7,0c-7.3,0.4-13.2-2.3-17.3-8.3c-1.3-1.9-2.1-1.3-2.7,0.3c-1.5,4-3.6,7.7-6,11.2
		c-1.1,1.7-0.3,2.3,1.1,3.1c5.2,2.6,10.5,4.3,16.3,5.1c14.7,2,27.6-1.9,38.4-11.8c19.4-17.8,21.3-45,5.1-65.8
		c-13.8-17.7-39.5-23.1-59.4-12.5c-1.9,1-2.7,1.7-1.2,3.9c2.3,3.3,4.3,6.7,5.6,10.5c0.7,2.1,1.6,2.2,2.9,0.2
		c2.7-3.9,6.4-6.6,11.1-7.7C144.1,258,147.6,258.7,150.5,258.5z"/>
	<path class="st3" d="M110.6,261.3c5,8.2,8.1,17.1,9.6,26.6c-0.1,0.2-0.1,0.3,0.1,0.5c0,4,0,8,0,12c-0.1,0.2-0.2,0.3-0.1,0.5
		c-1.5,9.5-4.6,18.4-9.6,26.6c-2.8,3.3-5.5,6.7-8.3,10c-8.7,7.8-18.6,13.3-30.1,15.8C39.1,360.4,5.1,336.4,1,303
		c-4-32.5,15.6-60.3,47.5-67.3c1.9-0.4,3.9-0.8,5.8-1.2c4.2,0.2,8.4-0.2,12.7,0.3c8.3,0.9,15.8,4,23.3,7.3c4,3,8.1,6,12.1,9
		C105.2,254.5,107.9,257.9,110.6,261.3z M12.4,294.8c0,26.1,21.8,47.7,48.1,47.7c26.4,0,47.9-21.7,47.9-48.3
		c0-25.9-21.8-47.7-47.8-47.7C33.8,246.5,12.3,268,12.4,294.8z"/>
	<path class="st4" d="M270.3,138.4c0,26.2,0,52.5,0,78.7c-1.8-0.2-3.7-0.7-5.5-0.7c-10.1-0.1-20.2,0-30.3,0
		c-0.1-14-0.1-28.1-0.2-42.1c0-11,0.1-21.9,0-32.9c0-2.4,0.6-3.2,3.1-3.1C248.4,138.5,259.3,138.5,270.3,138.4z"/>
	<path class="st5" d="M90.3,204.4c0-10.7,0.1-21.5,0-32.2c0-2.8,0.5-3.9,3.6-3.8c9.7,0.2,19.5,0.2,29.2,0c2.7,0,3.4,0.8,3.3,3.4
		c-0.2,4.9,0,9.7,0,14.6c0,12.8,0,25.5,0,38.3c-7.8,2.1-15.3,5.2-21.9,9.9c-1.6,1.2-2.7,0.9-4.2-0.1c-3.1-2-6.1-4.3-9.7-5.4
		c-0.1-0.2-0.1-0.5-0.2-0.7C90.3,220.5,90.3,212.5,90.3,204.4z"/>
	<path class="st5" d="M234.3,174.4c0.1,14,0.1,28.1,0.2,42.1c0,0-0.1,0-0.1,0c-11.9,0-23.9,0-35.8,0c-0.1-4-0.1-8-0.2-12
		c0-9,0.1-17.9,0-26.9c0-2.4,0.6-3.2,3.1-3.1C212.4,174.5,223.3,174.4,234.3,174.4z"/>
	<path class="st6" d="M126.4,224.7c0-12.8,0-25.5,0-38.3c11,0,21.9,0.1,32.9,0c2.4,0,3.2,0.6,3.1,3.1c-0.2,5,0,10,0,14.9
		c0,4.3,0,8.5,0,12.8c-0.1,0.2-0.1,0.4-0.1,0.7c-2.7,0.2-4.4,2-6.2,3.7c-1,1-2,1.7-3.6,1.4C143.7,221.5,135,222.7,126.4,224.7
		L126.4,224.7z"/>
	<path class="st5" d="M306.4,276.3c13.3,0,26.6,0.1,39.9,0.1c6.1,0,8.1,1.9,8.1,8c0,2.1-0.1,4.2-0.1,6.3c-1.7,2.6-3.9,3.8-7.2,3.8
		c-21.6-0.1-43.1-0.1-64.7-0.1c-0.3-5.9,0.6-12-0.8-17.8C289.8,276.5,298.1,276.4,306.4,276.3z"/>
	<path class="st5" d="M350.3,300.4c4.1,2.3,4.3,6.2,4.1,10.3c-0.1,1.4-0.1,2.7-0.1,4.1c-1.7,2.6-3.9,3.8-7.2,3.8
		c-21.6-0.1-43.1-0.1-64.7-0.1c-0.3-6,0.6-12-0.8-18C304.5,300.4,327.4,300.4,350.3,300.4z"/>
	<path class="st5" d="M350.3,324.4c4.1,2.3,4.3,6.2,4.1,10.3c-0.1,1.4-0.1,2.7-0.1,4.1c-1.7,2.6-3.9,3.8-7.2,3.8
		c-21.6-0.1-43.1-0.1-64.7-0.1c-0.3-6,0.6-12-0.8-18C304.5,324.4,327.4,324.4,350.3,324.4z"/>
	<path class="st7" d="M306.4,276.3c-8.3,0.1-16.5,0.2-24.8,0.2c-5-0.1-10-0.2-14.9-0.3l0.2,0c4-2.2,3.8-5.9,3.4-9.7
		c0-1.8,0-3.7,0.1-5.5c0.3-3.6-0.3-6.8-3.8-8.8c4.3-2,4-5.9,3.7-9.7c0-3.5,0-6.9,0-10.4c0.1-4.8,0.1-9.6,0.2-14.4
		c5,0.5,12,8.5,11.9,15.5c-0.1,6.1,0.3,12.2-0.5,18.3c-0.4,3.6,0.5,7.4,0.6,11.1c0.1,2.1,1.9,1.6,3.2,1.6c6.9,0.1,13.7,0,20.6,0
		C306.3,268.4,306.3,272.4,306.4,276.3z"/>
	<path class="st6" d="M281.6,324.5c1.3,5.9,0.5,12,0.8,18l0,0c-0.6,0-1.2,0-1.9,0c-4.7,0.1-10-1.5-12.4,4.7c-0.2,0.5-1,0.7-1.5,1.1
		c-14.8,0-29.7,0.1-44.5,0.1c-17,0-33.9-0.1-50.9-0.1c3.2-2,6.4-4,9.6-6c9.9,0,19.7,0.1,29.6,0.1c17.6,0,35.2,0,52.8,0
		c2.8,0,5.2-0.7,6.5-3.4c2.1-4.4,0.5-11.6-3.2-14.6c0,0,0.1,0,0.1,0C271.6,324.4,276.6,324.4,281.6,324.5
		C281.6,324.4,281.6,324.5,281.6,324.5z"/>
	<path class="st8" d="M90.3,204.4c0,8,0,16,0,24c-0.5,0-1,0-1.5-0.2c-10.9-4.8-22.4-6.4-34.3-5.8c0-5,0-10-0.2-14.9
		c-0.1-2.4,0.6-3.2,3.1-3.1C68.4,204.5,79.3,204.5,90.3,204.4z"/>
	<path class="st9" d="M54.5,222.5c11.8-0.5,23.3,1,34.3,5.8c0.4,0.2,1,0.1,1.5,0.2c0.1,0.2,0.1,0.5,0.2,0.7c0,4.3-0.1,8.6-0.1,12.9
		c-7.5-3.3-15.1-6.4-23.3-7.3c-4.2-0.5-8.4-0.1-12.7-0.3C54.4,230.5,54.5,226.5,54.5,222.5z"/>
	<path class="st8" d="M162.4,217.2c0-4.3,0-8.5,0-12.8c11.9,0,23.9,0,35.8,0c0.1,4,0.1,8,0.2,12c0,0-0.2,0-0.2,0
		C186.3,216.9,174.3,215.6,162.4,217.2z"/>
	<path class="st6" d="M350.3,300.4c-22.9,0-45.8,0.1-68.7,0.1c0,0,0,0,0,0c0.1-2,1.2-3.9,0.8-5.9l0,0c21.6,0,43.1,0,64.7,0.1
		c3.2,0,5.5-1.2,7.2-3.8C354.7,294.7,354.6,298.4,350.3,300.4z"/>
	<path class="st6" d="M350.3,324.4c-22.9,0-45.8,0.1-68.7,0.1c0,0,0,0,0,0c0.1-2,1.2-3.9,0.8-5.9l0,0c21.6,0,43.1,0,64.7,0.1
		c3.2,0,5.5-1.2,7.2-3.8C354.7,318.7,354.6,322.4,350.3,324.4z"/>
	<path class="st6" d="M282.4,342.4c21.6,0,43.1,0,64.7,0.1c3.2,0,5.5-1.2,7.2-3.8c0,1.1,0.1,2.2,0.1,3.4c-0.1,4-2.2,6.3-6.2,6.3
		c-22.2,0-44.4-0.1-66.5-0.1C281.7,346.4,282.7,344.5,282.4,342.4L282.4,342.4z"/>
	<path class="st10" d="M102.3,337.6c2.8-3.3,5.5-6.7,8.3-10c0.9,3.4,4.2,4.4,6.4,6.3c2,1.7,2.1,2.6,0.5,4.4
		c-1.9,2.1-3.6,4.3-5.4,6.5C108.2,343.2,105.5,340,102.3,337.6z"/>
	<path class="st11" d="M282.3,342.5c0.4,2-0.6,3.9-0.7,5.9c-5,0-10,0-15,0c0.5-0.4,1.3-0.6,1.5-1.1c2.4-6.3,7.7-4.7,12.4-4.7
		C281.1,342.5,281.7,342.5,282.3,342.5z"/>
	<path class="st12" d="M270.4,218c-0.1,4.8-0.1,9.6-0.2,14.4c-1.6-2.9-4.1-4-7.4-3.9c-9.5,0.1-18.9,0-28.4,0c0-4-0.1-8-0.1-11.9
		c0,0,0.1,0,0.1,0c10.1,0,20.2-0.1,30.3,0c1.8,0,3.7,0.4,5.5,0.7C270.3,217.4,270.4,217.7,270.4,218z"/>
	<path class="st13" d="M150.5,258.5c-2.9,0.3-6.4-0.4-9.9,0.4c-4.7,1.1-8.4,3.7-11.1,7.7c-1.3,1.9-2.2,1.9-2.9-0.2
		c-1.3-3.8-3.4-7.3-5.6-10.5c-1.5-2.1-0.7-2.9,1.2-3.9c19.9-10.6,45.6-5.2,59.4,12.5c16.2,20.8,14.3,48-5.1,65.8
		c-10.8,9.8-23.7,13.8-38.4,11.8c-5.8-0.8-11.2-2.5-16.3-5.1c-1.5-0.7-2.3-1.4-1.1-3.1c2.4-3.5,4.4-7.2,6-11.2
		c0.7-1.7,1.4-2.3,2.7-0.3c4.2,6.1,10,8.7,17.3,8.3c4.2-0.2,8.5-0.1,12.7,0c2.3,0.1,2.9-0.8,3-3c0.2-9,0.3-9-8.6-9c-3,0-6,0-9,0
		c-1.4,0-2.7-0.3-3.9-1.1c-1.4-1-2.7-2.4-2.3-4c0.4-1.8,2.4-0.9,3.6-0.9c8.2-0.1,8.1-0.1,8.2-8.3c0-2.9-0.8-3.8-3.8-3.8
		c-8.4,0.1-8.3,0-8.4-8.4c0-2.8,0.8-3.6,3.6-3.6c8.8,0.1,8.7-0.1,8.5-9c-0.1-2.3-0.8-3.1-3.1-2.9c-2.2,0.1-4.5,0-6.7,0
		c-2.4,0.1-2.5-1.1-1.5-2.8c1.3-2.4,3.3-3.2,5.9-3.2c4.9,0,9.8-0.1,14.6,0c2.1,0,2.8-0.7,2.8-2.8c0.4-9.3,0.4-9.3-8.7-9.3
		C152.8,258.5,151.9,258.5,150.5,258.5z"/>
	<path class="st5" d="M234.4,228.4c9.5,0,18.9,0.1,28.4,0c3.3,0,5.8,1,7.4,3.9c0,3.5,0,6.9,0,10.4c-1.7,2.9-4.2,3.8-7.5,3.8
		c-27.2-0.1-54.5,0-81.7,0c-5.8-4-12.1-7.2-18.7-9.6c-0.1-1.9,0.3-3.7,0.8-5.4c1.5-2.4,3.7-3,6.4-3c9.6,0,19.2,0,28.8,0
		C210.3,228.4,222.4,228.4,234.4,228.4z"/>
	<path class="st5" d="M266.6,324.5c3.7,3,5.3,10.2,3.2,14.6c-1.3,2.8-3.6,3.4-6.5,3.4c-17.6,0-35.2,0-52.8,0
		c-9.9,0-19.7-0.1-29.6-0.1c6.2-5.1,11.4-11.1,15.7-18C219.9,324.4,243.2,324.4,266.6,324.5z"/>
	<path class="st5" d="M266.6,252.4c3.5,2,4.1,5.2,3.8,8.8c-0.1,1.8-0.1,3.7-0.1,5.5c-1.7,2.9-4.2,3.8-7.5,3.8c-21-0.1-42,0-63,0
		c-3.2-6.5-7.2-12.5-12-18c1.9,0,3.7-0.1,5.6-0.1C217.8,252.4,242.2,252.4,266.6,252.4z"/>
	<path class="st5" d="M199.5,318.3c2.3-5.8,3.6-11.8,4.8-17.9c20.8,0,41.5,0,62.3,0c4.8,2.7,3.8,7.4,3.7,11.7c0,4-2.3,6.3-6.3,6.3
		C242.5,318.4,221,318.4,199.5,318.3z"/>
	<path class="st5" d="M204.5,294.5c0-6.1-1.3-12-2.6-17.9c21.6-0.1,43.3-0.1,64.9-0.2c0,0-0.2,0-0.2,0c3.8,2.5,3.9,6.2,3.8,10.2
		c-0.2,6-1.9,7.9-7.8,7.9C243.2,294.5,223.9,294.5,204.5,294.5z"/>
	<path class="st6" d="M199.5,318.3c21.5,0,43,0.1,64.5,0.1c4,0,6.3-2.3,6.3-6.3c0-4.3,1.1-8.9-3.7-11.7c0,0,0.1,0,0.1,0
		c5,0,10,0,14.9,0c0,0,0,0,0,0c1.3,5.9,0.5,12,0.8,18c0,0,0,0,0,0c-3.1,0-6.1,0-9.2,0c-1.2,0-2.5-0.2-2.9,1.5
		c-0.5,2.1-2.1,3.2-3.6,4.5c0,0-0.1,0-0.1,0c-23.3,0-46.7-0.1-70-0.1C197.5,322.4,198.5,320.4,199.5,318.3z"/>
	<path class="st6" d="M204.5,294.5c19.4,0,38.7,0,58.1,0c5.9,0,7.6-1.9,7.8-7.9c0.1-4,0-7.7-3.8-10.2c5,0.1,10,0.2,14.9,0.3
		c1.4,5.9,0.5,11.9,0.8,17.8c0,0,0,0,0,0c-3.1,0-6.1,0-9.2,0c-1.2,0-2.5-0.2-2.9,1.5c-0.5,2.1-2.1,3.2-3.6,4.5c0,0-0.1,0-0.1,0
		c-20.8,0-41.5,0-62.3,0C204.4,298.5,204.4,296.5,204.5,294.5z"/>
	<path class="st6" d="M266.6,252.4c-24.4,0-48.8,0-73.2,0.1c-1.9,0-3.7,0.1-5.6,0.1c-2.2-2-4.5-4-6.7-6c27.2,0,54.5-0.1,81.7,0
		c3.3,0,5.8-1,7.5-3.8C270.6,246.5,270.9,250.3,266.6,252.4z"/>
	<path class="st6" d="M90.3,242.1c0-4.3,0.1-8.6,0.1-12.9c3.6,1.1,6.6,3.3,9.7,5.4c1.5,1,2.6,1.2,4.2,0.1c6.6-4.8,14.1-7.8,21.9-9.9
		c0,0,0,0,0,0c0,4.1,0.1,8.2,0.1,12.3c-4.9,2.2-10.1,3.7-14.4,7.2c-3.8,1.5-6.4,4.7-9.6,6.9C98.4,248.1,94.4,245.1,90.3,242.1z"/>
	<path class="st11" d="M126.5,237c0-4.1-0.1-8.2-0.1-12.3c8.6-2,17.3-3.2,26.1-1.7c1.6,0.3,2.6-0.5,3.6-1.4c1.8-1.7,3.5-3.5,6.2-3.7
		c0.6,4.5-0.9,9.1,0.8,13.6c-0.5,1.8-0.9,3.6-0.8,5.4C150.4,233.7,138.4,233.7,126.5,237z"/>
	<path class="st6" d="M266.8,276.4c-21.6,0.1-43.3,0.1-64.9,0.2c-0.7-2-1.5-4-2.2-6c21,0,42-0.1,63,0c3.3,0,5.8-1,7.5-3.8
		C270.6,270.5,270.8,274.2,266.8,276.4z"/>
	<path class="st10" d="M120.3,301c-0.1-0.2-0.1-0.4,0.1-0.5c0.6,0,1.3-0.1,1.9,0c3.6,0.6,4.7-1,4.2-4.4c-0.1-0.5,0-1,0-1.5
		c-0.1-7.2,0.8-6-6.1-6.2c-0.1-0.1-0.2-0.3-0.1-0.5c0-2.1,0.2-4.2,0.1-6.4c-0.1-3-0.3-5.9,4.2-5.2c1.2,0.2,1.8-0.6,1.8-1.8
		c0.1-1.4,0.5-2.6,1.3-3.8c5.7,9.2,6.7,33.6,0.4,47.2c-1.3,0-1.3-1.2-1.3-1.9c-0.2-2.9-1.4-4.2-4.5-3.8c-1.7,0.3-2-1-2-2.4
		C120.4,307,120.3,304,120.3,301z"/>
	<path class="st10" d="M102.5,251.1c3.2-2.3,5.8-5.5,9.6-6.9c1.9,2.3,3.7,4.6,5.7,6.8c1.4,1.5,1.3,2.5-0.4,3.9
		c-2.4,1.9-5.7,3.1-6.7,6.5C107.9,257.9,105.2,254.5,102.5,251.1z"/>
	<path class="st14" d="M12.4,294.8c0-26.8,21.5-48.3,48.2-48.3c26,0,47.8,21.7,47.8,47.7c0,26.6-21.5,48.3-47.9,48.3
		C34.2,342.5,12.4,320.9,12.4,294.8z M72.2,288.5c0.7,0,1.5-0.1,2.2,0c3.1,0.5,4.1-0.7,4-3.9c-0.2-6.6-3.1-11-9.4-13.4
		c-1.5-0.6-3-0.9-2.6-2.9c0.7-3.7-1.5-4.1-4.4-3.8c-1.6,0.1-3.3,0.1-4.9,0c-2.1-0.2-3,0.6-2.8,2.8c0.2,1.6,0.2,3.2-2,3.8
		c-6.3,1.8-9.7,6.1-9.9,12.5c-0.3,6.5,3.4,10.6,9.1,13.3c4.4,2.1,8.7,4.3,13.1,6.5c0.8,0.4,1.7,0.8,1.4,1.9c-0.2,1-1.2,1.2-2.1,1.2
		c-1.9,0-3.8-0.1-5.6,0c-2.8,0.2-4.4-0.6-4-3.7c0.2-1.5-0.4-2.6-2.1-2.3c-3.3,0.6-6.9-1.5-9.8,1.2c-0.2,0.2-0.1,0.7-0.1,1.1
		c-0.6,7.1,2.7,12.4,9.3,14.9c1.5,0.6,3,0.9,2.6,2.9c-0.7,3.7,1.5,4.1,4.4,3.8c1.6-0.1,3.3-0.1,4.9,0c2.1,0.2,3-0.6,2.8-2.8
		c-0.2-1.7-0.2-3.2,2-3.8c6.3-1.8,9.7-6.2,9.9-12.5c0.3-6.5-3.4-10.6-9.1-13.3c-4.4-2.1-8.7-4.3-13.1-6.5c-0.8-0.4-1.7-0.8-1.4-1.9
		c0.2-1,1.2-1.2,2.1-1.2c1.9,0,3.8,0.1,5.6,0c2.8-0.2,4.4,0.6,4,3.7c-0.2,1.8,0.7,2.4,2.4,2.3C69.9,288.4,71.1,288.5,72.2,288.5z"/>
	<path class="st2" d="M120.3,288.5c6.9,0.2,6-1,6.1,6.2c0,0.5-0.1,1,0,1.5c0.5,3.3-0.7,5-4.2,4.4c-0.6-0.1-1.2,0-1.9,0
		C120.3,296.5,120.3,292.5,120.3,288.5z"/>
	<path class="st6" d="M234.4,228.4c-12,0-24.1,0-36.1,0c0-4,0-8-0.1-11.9c0,0,0.2,0,0.2,0c11.9,0,23.9,0,35.8,0
		C234.3,220.4,234.4,224.4,234.4,228.4z"/>
	<path class="st9" d="M198.3,216.5c0,4,0,8,0.1,11.9c-9.6,0-19.2,0.1-28.8,0c-2.7,0-4.9,0.7-6.4,3c-1.7-4.4-0.2-9.1-0.8-13.6
		c0-0.2,0.1-0.4,0.1-0.7C174.3,215.6,186.3,216.9,198.3,216.5z"/>
	<path class="st11" d="M266.7,324.4c1.5-1.3,3.2-2.4,3.6-4.5c0.4-1.7,1.7-1.5,2.9-1.5c3.1,0,6.1,0,9.2,0c0.4,2.1-0.7,3.9-0.8,5.9
		C276.6,324.4,271.6,324.4,266.7,324.4z"/>
	<path class="st11" d="M266.7,300.4c1.5-1.3,3.2-2.4,3.6-4.5c0.4-1.7,1.7-1.5,2.9-1.5c3.1,0,6.1,0,9.2,0c0.4,2.1-0.7,3.9-0.8,5.9
		C276.6,300.4,271.6,300.4,266.7,300.4z"/>
	<path class="st3" d="M72.2,288.5c-1.1,0-2.3-0.1-3.4,0c-1.7,0.1-2.7-0.5-2.4-2.3c0.4-3.1-1.3-3.9-4-3.7c-1.9,0.1-3.7,0-5.6,0
		c-0.9,0-1.8,0.2-2.1,1.2c-0.3,1.1,0.6,1.5,1.4,1.9c4.3,2.2,8.7,4.5,13.1,6.5c5.7,2.7,9.4,6.8,9.1,13.3c-0.2,6.4-3.6,10.8-9.9,12.5
		c-2.1,0.6-2.1,2.2-2,3.8c0.2,2.1-0.7,2.9-2.8,2.8c-1.6-0.1-3.3-0.1-4.9,0c-2.9,0.2-5-0.1-4.4-3.8c0.3-2-1.2-2.4-2.6-2.9
		c-6.6-2.5-10-7.8-9.3-14.9c0-0.4-0.1-0.9,0.1-1.1c3-2.7,6.6-0.7,9.8-1.2c1.7-0.3,2.2,0.8,2.1,2.3c-0.4,3.1,1.3,3.9,4,3.7
		c1.9-0.1,3.7,0,5.6,0c0.9,0,1.8-0.2,2.1-1.2c0.3-1.1-0.6-1.5-1.4-1.9c-4.3-2.2-8.7-4.5-13.1-6.5c-5.7-2.7-9.4-6.8-9.1-13.3
		c0.2-6.4,3.6-10.8,9.9-12.5c2.1-0.6,2.1-2.2,2-3.8c-0.2-2.2,0.7-2.9,2.8-2.8c1.6,0.1,3.3,0.1,4.9,0c2.9-0.2,5,0.1,4.4,3.8
		c-0.3,2,1.2,2.4,2.6,2.9c6.3,2.4,9.2,6.8,9.4,13.4c0.1,3.2-1,4.3-4,3.9C73.7,288.4,72.9,288.5,72.2,288.5z"/>
</g>
</svg>
