<?xml version="1.0" encoding="utf-8"?>
<!-- Generator: Adobe Illustrator 23.0.3, SVG Export Plug-In . SVG Version: 6.00 Build 0)  -->
<svg version="1.1" id="Layer_1" xmlns="http://www.w3.org/2000/svg" xmlns:xlink="http://www.w3.org/1999/xlink" x="0px" y="0px"
	 viewBox="0 0 360.2 360.2" style="enable-background:new 0 0 360.2 360.2;" xml:space="preserve">
<style type="text/css">
	.st0{fill:#FFFFFF;}
</style>
<title>shopping-cart-outline</title>
<path d="M360.2,67.4c-2.3,9.3-4.7,18.5-7,27.8c-4.9,19.9-9,40-14.7,59.7c-5.6,19.3-19.8,29.8-39.5,32c-37.5,4.3-75.1,8-112.6,11.9
	c-19,2-38,4.1-57,5.7c-4.6,0.4-6.3,2.5-7.8,6.3c-4.4,10.8-1.6,21.9,7.7,28.4c4.2,3,9,3.6,14,3.6c52,0,103.9,0,155.9,0
	c1.9,0,3.7,0.1,5.6,0.5c3.7,0.7,6.4,3.9,6.4,7.7c0.2,3.8-2.3,7.2-5.9,8.1c-1.6,0.4-3.2,0.5-4.9,0.5c-52.5,0-105.1,0-157.6,0
	c-29.6,0-48.4-28.7-36.4-55.9c2.3-4.8,2.6-10.3,0.8-15.3c-16.8-50-33.4-100.2-50-150.3C53.2,26.7,46,21.5,34,21.4
	c-8.1,0-16.2,0.1-24.3,0c-7.1-0.1-11-4.9-9.2-10.8c1-3.1,3.1-5.5,6.2-5.5c12.6,0,25.5-0.9,37.9,1c14.1,2.1,23.2,11.9,28,25.4
	c2.1,6.1,4.2,12.2,6,18.4c0.8,2.8,2,3.8,5,3.8c43.9,0.5,87.7,1.1,131.6,1.8c44.8,0.6,89.6,1.3,134.4,1.9c4.8,0.1,8.3,1.8,10.8,5.9
	L360.2,67.4z M85.4,70.3c0.3,1.2,0.4,2,0.6,2.7c12.4,37.5,24.7,74.9,37,112.4c0.7,2,1.5,2.7,3.7,2.5c14.7-1.6,29.4-3,44.1-4.5
	c42-4.4,83.9-8.7,125.9-13.1c14.3-1.5,23.4-9.3,26.8-23.3c4.3-17.4,8.5-34.8,12.7-52.2c1.7-6.8,3.3-13.6,5-20.7L85.4,70.3z"/>
<path d="M114.8,355.3c-20.8-0.4-37.3-17.5-37-38.3c0.4-20.3,16.7-36.6,37-37c20.5,0,37.7,17.2,37.6,37.7
	C152.3,338.5,135.5,355.3,114.8,355.3z M115,338.6c11.5-0.1,20.8-9.5,20.7-21c-0.1-11.5-9.5-20.8-21-20.7
	c-11.5,0.1-20.8,9.5-20.7,21c0,0,0,0.1,0,0.1C94.2,329.4,103.6,338.6,115,338.6L115,338.6z"/>
<path d="M311.2,317.9c-0.1,20.7-17,37.5-37.8,37.3c-20.7-0.1-37.5-17-37.3-37.8c0.1-20.7,17-37.4,37.7-37.3
	c20.7,0,37.5,16.8,37.4,37.6C311.2,317.7,311.2,317.8,311.2,317.9z M273.3,338.5c11.5,0.2,21-9,21.2-20.5c0.2-11.5-9-21-20.5-21.2
	c-11.5-0.2-21,9-21.2,20.5c0,0,0,0,0,0.1C252.4,328.7,261.8,338.3,273.3,338.5L273.3,338.5z"/>
<path class="st0" d="M85.4,70.3l255.9,3.8c-1.7,7.1-3.4,13.9-5,20.7c-4.2,17.4-8.4,34.8-12.7,52.2c-3.4,14-12.5,21.8-26.8,23.3
	c-42,4.4-84,8.7-125.9,13.1c-14.7,1.5-29.4,2.9-44.1,4.5c-2.2,0.2-3.1-0.5-3.7-2.5c-12.3-37.5-24.6-74.9-37-112.4
	C85.8,72.3,85.7,71.5,85.4,70.3z"/>
</svg>
