<svg id="Layer_1" data-name="Layer 1" xmlns="http://www.w3.org/2000/svg" viewBox="0 0 384.1 384"><defs><style>.cls-1{fill:#040403;}.cls-2{fill:#040402;}.cls-3{fill:#fbd52f;}.cls-4{fill:#fde464;}.cls-5{fill:#030201;}</style></defs><title>smile</title><path class="cls-1" d="M206.32,0c4.47,1.54,9.19,1.32,13.79,2,79,12.14,141.22,69.65,159.23,147.25a181,181,0,0,1,4,25.88c.05.67-.28,1.55.73,1.87v31.5c-1.87,3.74-1.47,7.9-2.07,11.85A192.06,192.06,0,0,1,368,269c-1.93,4.41-3.86,5.29-8.56,4.09-3.6-2.78-3-6-1.39-9.68a177.53,177.53,0,0,0,11.33-106.27c-8.31-42.11-29.21-76.92-62.13-104.31-30.59-25.44-65.94-39.22-105.79-41.15a171.9,171.9,0,0,0-62.08,7.45A178.59,178.59,0,0,0,68.71,60c-3.61,3.36-5.55,3.44-9.55.69C57,57.18,58,54.46,60.9,51.79Q105.77,10.26,166.28,1.68c3.36-.49,6.86-.11,10-1.68Z" transform="translate(0.03)"/><path class="cls-2" d="M353.79,284.25c3.41,3.5,3.7,5.47,1.07,9.52-32,49.18-76.74,78.79-134.78,88.15-4.58.74-9.32.47-13.76,2.08h-30c-4-1.79-8.41-1.41-12.61-2.11C101.46,371.47,54.85,338.71,23.55,284c-2.4-4.19-1.94-6.13,1.82-9.35,4.09-1,6.49.86,8.4,4.37a180.48,180.48,0,0,0,140.08,92.73c9.79,1,19.66,1.72,29.51.31,12.3-.18,24.31-2.45,36.1-5.74,45.07-12.57,80.12-38.81,105.52-78C347.93,283.74,349.12,283.18,353.79,284.25Z" transform="translate(0.03)"/><path class="cls-3" d="M203.36,372.07c-9.85,1.41-19.72.72-29.51-.31A180.48,180.48,0,0,1,33.77,279c-1.91-3.51-4.31-5.39-8.4-4.37Q22.79,269,20.2,263.33c3.76-2.51,3.5-5.75,2.12-9.54A176.62,176.62,0,0,1,13,167.93,179.42,179.42,0,0,1,50.44,79.82c3.24-4.11,3.24-6,.16-9.9q4.29-4.62,8.56-9.25c4,2.75,5.94,2.67,9.55-.69a178.59,178.59,0,0,1,70.67-40.82,171.9,171.9,0,0,1,62.08-7.45,46.59,46.59,0,0,0-5.11,1c-32.54,10.2-60.61,27.45-83.73,52.71a182.43,182.43,0,0,0-25.55,35.35C68.82,134,61.2,169.45,64.47,207.25A186.48,186.48,0,0,0,184,365.45C190.39,367.93,197,369.58,203.36,372.07Z" transform="translate(0.03)"/><path class="cls-1" d="M50.6,69.92c3.08,3.91,3.08,5.79-.16,9.9A179.42,179.42,0,0,0,13,167.93a176.62,176.62,0,0,0,9.31,85.86c1.38,3.79,1.64,7-2.12,9.54-4.86.73-6.64-.22-8.2-4.79Q-22.42,157.77,41.64,72.7C44.07,69.48,46.74,68,50.6,69.92Z" transform="translate(0.03)"/><path class="cls-4" d="M203.36,372.07c-6.35-2.49-13-4.14-19.36-6.58A186.92,186.92,0,0,1,75,255.18a183.11,183.11,0,0,1-10.53-47.93C61.2,169.41,68.82,133.92,87,100.73a182.07,182.07,0,0,1,25.58-35.32c23.12-25.26,51.19-42.51,83.73-52.71a46.59,46.59,0,0,1,5.11-1c39.85,1.93,75.2,15.71,105.79,41.15,32.92,27.4,53.82,62.21,62.09,104.32A177.53,177.53,0,0,1,358,263.44c-1.58,3.66-2.21,6.9,1.39,9.68l-5.61,11.13c-4.67-1.07-5.86-.51-8.81,4.05-25.4,39.22-60.45,65.46-105.52,78C227.67,369.62,215.66,371.89,203.36,372.07ZM191.6,293.25a78.49,78.49,0,0,0,73.19-50.19c1.37-3.51.23-6.53-2.8-7.84s-5.95,0-7.59,3.43c-.54,1.13-1,2.29-1.49,3.44-13,29.82-47.25,46.27-78.5,37.44-21.4-6-36.4-19.51-45.09-40-1.76-4.14-4.55-5.67-7.77-4.4s-4.32,4.59-2.62,8.79A78.51,78.51,0,0,0,191.6,293.25ZM118.41,120.72A18,18,0,1,0,136.1,139v-.31A17.88,17.88,0,0,0,118.41,120.72Zm147.8,0a18,18,0,1,0,17.91,18.09A18,18,0,0,0,266.21,120.72Z" transform="translate(0.03)"/><path class="cls-2" d="M191.6,293.25a78.51,78.51,0,0,1-72.67-49.33c-1.7-4.2-.72-7.48,2.62-8.79s6,.26,7.77,4.4c8.69,20.49,23.69,34,45.09,40,31.25,8.83,65.52-7.62,78.5-37.44.5-1.15,1-2.31,1.49-3.44,1.64-3.42,4.57-4.74,7.59-3.43s4.17,4.33,2.8,7.84A78.49,78.49,0,0,1,191.6,293.25Z" transform="translate(0.03)"/><path class="cls-5" d="M118.41,120.72a18,18,0,1,1-.39,36h0a18,18,0,0,1,.39-36Z" transform="translate(0.03)"/><path class="cls-5" d="M266.21,120.69a18,18,0,1,1-.29,0Z" transform="translate(0.03)"/></svg>