<svg id="Layer_1" data-name="Layer 1" xmlns="http://www.w3.org/2000/svg" viewBox="0 0 384 384"><title>star</title><path d="M682.5,192.75H684c.16.87.86.69,1.45.75a11.29,11.29,0,0,1,9.8,7c1,2.16,2,4.28,3,6.42q24,51.23,48.09,102.45c.72,1.52,1.16,3,3.45,3.38,37.62,5.65,75.21,11.53,112.85,17.07,6.55,1,11.14,3.58,13.35,9.9v6a65,65,0,0,1-5.13,6.73c-26,26.61-51.92,53.38-78.15,79.8-4.39,4.41-5.78,8.27-4.7,14.53,6.46,37.5,12.34,75.1,18.5,112.65,1.57,9.56,0,13.09-8.52,17.29h-6c-1.48-.85-3-1.72-4.45-2.54q-50.17-27.75-100.32-55.53a5.73,5.73,0,0,0-6.43,0q-27,15.15-54.24,30c-17.1,9.34-33.94,19.17-51.31,28h-6c-6.32-3.42-9.4-8.29-8.14-15.83,6.62-39.89,13-79.81,19.67-119.7a4.91,4.91,0,0,0-1.66-4.86Q537.7,394,496.35,351.59c-3.71-3.8-5.44-8-3.64-13.24s5.85-7.46,11-8.25c37.76-5.74,75.51-11.56,113.28-17.17,2.72-.41,3.77-1.65,4.79-3.82,15.94-34.08,32-68.1,47.87-102.21C672.54,200.76,675.15,194.69,682.5,192.75Z" transform="translate(-492 -192.75)"/></svg>