<svg id="Layer_1" data-name="Layer 1" xmlns="http://www.w3.org/2000/svg" xmlns:xlink="http://www.w3.org/1999/xlink" viewBox="0 0 4.19 4.19"><defs><style>.cls-1{fill:url(#linear-gradient);}.cls-2{fill:#fff;fill-rule:evenodd;}</style><linearGradient id="linear-gradient" x1="280.51" y1="139.57" x2="280.51" y2="146.46" gradientUnits="userSpaceOnUse"><stop offset="0.32" stop-color="#20a9e5"/><stop offset="0.67" stop-color="#1686c3"/></linearGradient></defs><title>t-c</title><path class="cls-1" d="M282.6,144a2.1,2.1,0,1,1-2.09-2.1A2.1,2.1,0,0,1,282.6,144Z" transform="translate(-278.41 -141.87)"/><path class="cls-2" d="M279.24,144.82a1.23,1.23,0,0,0,.57-.1.68.68,0,0,0,.23-.14.46.46,0,0,1-.23-.06.55.55,0,0,1-.27-.29s0,0,0,0a.46.46,0,0,0,.21,0l-.13-.05a.53.53,0,0,1-.3-.47s0,0,0,0a.47.47,0,0,0,.21.06l-.09-.08a.58.58,0,0,1-.09-.63s0,0,0,0a1.57,1.57,0,0,0,1,.53l.12,0s0,0,0,0a.54.54,0,0,1,.27-.57.53.53,0,0,1,.65.08.07.07,0,0,0,.06,0,1,1,0,0,0,.29-.11l0,0a.51.51,0,0,1-.23.31,1,1,0,0,0,.3-.08s0,0,0,0a1,1,0,0,1-.23.23.06.06,0,0,0,0,0,1.67,1.67,0,0,1-.38,1.07,1.48,1.48,0,0,1-.92.52,1.63,1.63,0,0,1-1.1-.21Z" transform="translate(-278.41 -141.87)"/></svg>