<svg id="Layer_1" data-name="Layer 1" xmlns="http://www.w3.org/2000/svg" viewBox="0 0 281.67 358.45"><title>upload-logo</title><path d="M684,410.31H790.06c7.2,0,9.18,1.94,9.19,9.08q0,67.85,0,135.69c0,6.87-2.06,8.89-9,8.89H577.74c-6.93,0-9-2-9-8.88q0-68,0-136.06c0-6.64,2.11-8.72,8.77-8.72Zm102.19,12.95H581.86v67.17c1.33-1.24,2.25-2.05,3.11-2.91Q595.72,476.8,606.45,466c6.1-6.09,8.27-6.07,14.48.14l47.46,47.46c.87.86,1.79,1.66,2.83,2.63,1-1,2-1.78,2.83-2.64l22.54-22.53c5.29-5.3,7.91-5.31,13.15-.08q28.77,28.77,57.55,57.52c1,1,2.29,2.44,3.51,2.5,5.06.29,10.15.12,15.37.12ZM686.72,551.09l-73.54-73.53c-10,10-20.32,20.17-30.47,30.5-.87.89-1.08,2.73-1.09,4.13-.08,11.75,0,23.5,0,35.24,0,1.2.14,2.39.23,3.66ZM703,503.35l-22.45,22.4c8.09,8.09,16.26,16.34,24.56,24.44.82.79,2.5.95,3.78,1,13.12.07,26.24.05,39.36,0a22.72,22.72,0,0,0,2.46-.26Z" transform="translate(-543.11 -205.52)"/><path d="M597.48,283.14c-6.2-39.49,23.53-75.21,61-77.5,33.69-2,64.72,22.56,69.33,60.42,16.85-7.87,33.11-7.11,47.72,4.66,14.42,11.61,19.13,27.18,16.11,45.4,2.75.57,5.57,1,8.29,1.75a33.78,33.78,0,0,1,24.58,36.85c-2.34,17.54-15.92,29.9-33.26,30-20.38.11-40.75,0-61.13,0-4.67,0-7.68-2.53-7.72-6.34s3-6.41,7.62-6.42c20.25,0,40.5,0,60.75,0,8.52,0,15-3.82,18.79-11.4,3.94-7.79,3.3-15.51-1.69-22.68a19.53,19.53,0,0,0-22.51-7.54c-3.23,1.08-6.14,1.49-8.57-1.28s-1.56-5.69-.2-8.72c9.94-22.17-5.38-47-28.69-46.51a29.24,29.24,0,0,0-20.78,9c-2.49,2.53-5.17,4.1-8.64,2.46s-3.85-4.8-3.48-8.3c3-28.85-18.59-55.1-48.06-58.47-26.56-3-52.71,18.29-56.52,45.91a57.49,57.49,0,0,0,1.75,24.45c.81,2.75.87,5.2-1.3,7.27s-4.69,2.38-7.62,1.56c-14.94-4.19-27.88-.57-37.89,11.19C555,321,553.08,335,559.4,349.56c6.18,14.22,17.49,21.85,33.09,22.34,10.74.33,21.5.06,32.25.08,5,0,8.06,2.43,8.07,6.34s-3,6.41-8,6.42c-10.63,0-21.25.06-31.87,0-26.76-.14-47.84-20.62-49.7-48.21-1.72-25.51,17.06-49,42.36-52.8C589.49,283.14,593.51,283.31,597.48,283.14Z" transform="translate(-543.11 -205.52)"/><path d="M671.22,304.16,649.1,326.29c-1.68,1.68-3.31,3.41-5.05,5-3.11,2.87-6.72,2.95-9.34.29s-2.51-6.39.4-9.33c9.93-10,19.93-20,29.9-30,2.65-2.65,5.22-5.38,7.92-8,3-2.87,6.36-3,9.29-.05q19,18.89,37.84,37.93c2.94,3,3,6.72.5,9.35-2.69,2.8-6.41,2.74-9.59-.41-8.78-8.69-17.49-17.45-27-26.93v84.14a24.57,24.57,0,0,1-.11,3.74,6.38,6.38,0,0,1-6.61,5.41,6.31,6.31,0,0,1-6-5.66,31.26,31.26,0,0,1-.07-3.75q0-39.34,0-78.69Z" transform="translate(-543.11 -205.52)"/><path d="M773.51,462.09a25.57,25.57,0,0,1-51.14-.91,25.57,25.57,0,1,1,51.14.91Zm-25.42,12.2a12.64,12.64,0,0,0,12.62-12.94,12.82,12.82,0,0,0-12.64-12.64,13,13,0,0,0-12.91,12.84A12.84,12.84,0,0,0,748.09,474.29Z" transform="translate(-543.11 -205.52)"/></svg>