<?xml version="1.0" encoding="utf-8"?>
<!-- Generator: Adobe Illustrator 23.0.6, SVG Export Plug-In . SVG Version: 6.00 Build 0)  -->
<svg version="1.1" id="Layer_1" xmlns="http://www.w3.org/2000/svg" xmlns:xlink="http://www.w3.org/1999/xlink" x="0px" y="0px"
	 viewBox="0 0 385 385" style="enable-background:new 0 0 385 385;" xml:space="preserve">
<style type="text/css">
	.st0{fill:#4FB96F;}
	.st1{fill:#36A352;}
	.st2{fill:#7ED7F5;}
	.st3{fill:#6AA8FE;}
	.st4{fill:#E5F1F1;}
	.st5{fill:#CEE5E5;}
	.st6{fill:#3F1600;}
	.st7{fill:#384949;}
	.st8{fill:#293939;}
</style>
<g>
	<path class="st0" d="M0.5,362c15.2,0,30.5-0.1,45.7-0.1c7.5,0,15,0,22.5,0c22.5,0,45,0,67.5,0s45,0,67.5,0
		c11.3,0.1,22.5,0.2,33.8,0.3c0,7.5,0,14.9,0,22.4c-77.9,0-155.8,0-233.7,0.1c-2.9,0-3.5-0.7-3.4-3.5C0.7,374.7,0.5,368.3,0.5,362z"
		/>
	<path class="st1" d="M237.5,384.5c0-7.5,0-14.9,0-22.4v-0.3c11.3,0,22.5,0,33.8,0c15,0,30,0,45,0c7.5,0,15,0,22.5,0
		c15.2,0,30.5,0.1,45.7,0.1c0,6.6-0.1,13.3,0.1,19.9c0.1,2.2-0.5,2.7-2.7,2.7C333.8,384.4,285.6,384.5,237.5,384.5z"/>
	<path class="st2" d="M226.3,46.2c0-15.2,0-30.5,0-45.7c3.8,0,7.5,0,11.3,0c0,15.2,0,30.5,0,45.7C233.8,46.2,230.1,46.2,226.3,46.2z
		"/>
	<path class="st3" d="M237.5,46.1c0-15.2,0-30.5,0-45.7c3.8,0,7.5,0,11.3,0c0,15.2,0,30.5,0,45.7c-3.7,0-7.5,0-11.2,0.1L237.5,46.1z
		"/>
	<path class="st4" d="M226.3,46.2c3.7,0,7.5,0,11.2-0.1l-0.1,0.1c0,14.9,0,29.9,0,44.8c-2.9,0-5.7,0.2-8.6,0.1
		c-1.8,0-2.7,0.4-2.7,2.5c0.1,5.9,0.1,11.7,0,17.6c0,2.1,0.9,2.5,2.7,2.5c2.9-0.1,5.7,0.1,8.6,0.1c0,7.4,0,14.8,0,22.2
		c-2.9,0-5.7,0.2-8.6,0.1c-1.8,0-2.7,0.4-2.7,2.5c0.1,5.9,0.1,11.7,0,17.6c0,2.1,0.9,2.5,2.7,2.5c2.9-0.1,5.7,0.1,8.6,0.1
		c0,7.4,0,14.8,0,22.2c-2.9,0-5.7,0.2-8.6,0.1c-1.8,0-2.7,0.4-2.7,2.5c0.1,5.9,0.1,11.7,0,17.6c0,2.1,0.9,2.5,2.7,2.5
		c2.9-0.1,5.7,0.1,8.6,0.1c0,7.4,0,14.8,0,22.2c-2.9,0-5.7,0.2-8.6,0.1c-1.8,0-2.7,0.4-2.7,2.5c0.1,5.9,0.1,11.7,0,17.6
		c0,2.1,0.9,2.5,2.7,2.5c2.9-0.1,5.7,0.1,8.6,0.1c0,14.9,0,29.8,0,44.7c-10,0-20,0.2-29.9,0.1c-3,0-4,0.6-3.9,3.8
		c0.2,21.5,0.1,42.9,0.1,64.4c-22.5,0-45,0-67.5,0c0-88.2,0-176.4,0-264.6c0-15.6,0.1-31.2-0.1-46.8c0-3.6,1.1-4.3,4.4-4.3
		C169.2,46.3,197.7,46.2,226.3,46.2z M192.5,113.7c2.9,0,5.8-0.1,8.6,0c1.9,0.1,2.7-0.5,2.7-2.5c-0.1-5.9-0.1-11.7,0-17.6
		c0-1.8-0.7-2.4-2.4-2.4c-5.9,0.1-11.7,0.1-17.6,0c-2.1,0-2.5,0.9-2.5,2.7c0.1,5.7,0.1,11.5,0,17.2c0,2,0.7,2.7,2.6,2.6
		C186.7,113.6,189.6,113.7,192.5,113.7z M203.8,147.5c0-2.7-0.1-5.5,0-8.2c0.1-2.2-0.5-3.2-2.9-3.1c-5.6,0.1-11.2,0.1-16.9,0
		c-2.1,0-2.9,0.7-2.8,2.8c0.1,5.6,0.1,11.2,0,16.9c0,2,0.5,3,2.7,2.9c5.7-0.1,11.5-0.1,17.2,0c1.9,0,2.7-0.6,2.6-2.6
		C203.7,153.3,203.8,150.4,203.8,147.5z M181.3,236.6c0,3.5,0.1,6.3,0,9.2c-0.1,2,0.4,3,2.7,2.9c5.7-0.1,11.5-0.1,17.2,0
		c1.9,0,2.7-0.6,2.6-2.6c-0.1-2.9,0.1-5.7,0-8.6c-0.1-3.6,1.5-8.3-0.6-10.5c-2.4-2.4-7.1-0.8-10.8-0.8c-3.6,0-8.1-1.6-10.4,0.8
		C179.8,229.2,181.5,233.7,181.3,236.6z M193.3,181.2c-3.5,0-6.3,0.1-9.2,0c-2-0.1-3,0.5-2.9,2.7c0.1,5.7,0.1,11.5,0,17.2
		c0,1.9,0.6,2.7,2.6,2.6c2.9-0.1,5.7,0.1,8.6,0c3.6-0.1,8.3,1.6,10.5-0.6c2.4-2.4,0.7-7.1,0.8-10.8c0-3.6,1.6-8.2-0.8-10.4
		C200.7,179.8,196.2,181.5,193.3,181.2z"/>
	<path class="st5" d="M136.3,97.2c0,88.2,0,176.4,0,264.6c-22.5,0-45,0-67.5,0c0-8.5,0-16.9-0.1-25.4c4.2-2.5,8.2-5.2,11.3-9
		c13.2-16.4,15-43.3,4-61.7C75.1,250.8,62.8,246,46.3,251c0-27.8,0-55.7-0.1-83.5c0-2.2,0.6-3.6,2.4-4.9
		c28.5-21.3,56.9-42.7,85.3-64C134.7,98,135.5,97.6,136.3,97.2z M102.7,226.2c-2.9,0-5.7,0.1-8.6,0c-2-0.1-2.9,0.5-2.9,2.7
		c0.1,5.7,0.1,11.5,0,17.2c0,1.9,0.5,2.7,2.5,2.7c5.9-0.1,11.7-0.1,17.6,0c2.1,0,2.5-0.9,2.5-2.7c-0.1-5.7-0.1-11.5,0-17.2
		c0-2.3-0.9-2.7-2.9-2.7C108.1,226.3,105.4,226.2,102.7,226.2z M101.6,203.7c3.8,0,6.9,0,10,0c1.6,0,2.2-0.6,2.2-2.2
		c0-6-0.1-12,0-17.9c0-1.7-0.6-2.4-2.4-2.4c-5.9,0.1-11.7,0.1-17.6,0c-1.9,0-2.7,0.6-2.6,2.6c0.1,3-0.1,6,0.1,9
		c0.2,3.6-1.6,8.1,0.8,10.4C94.3,205.2,98.7,203.5,101.6,203.7z"/>
	<path class="st0" d="M46.3,251c16.5-5,28.9-0.2,37.8,14.7c11,18.4,9.2,45.4-4,61.7c-3.1,3.9-7.2,6.5-11.3,9
		c-7.5,2.9-14.9,2.9-22.4,0C15.3,321.3,15.2,266.2,46.3,251z"/>
	<path class="st6" d="M46.3,336.5c7.5,2.9,14.9,2.9,22.4,0c0,8.5,0,16.9,0.1,25.4c-7.5,0-15,0-22.5,0
		C46.3,353.4,46.3,344.9,46.3,336.5z"/>
	<path class="st5" d="M237.5,293.6c0-14.9,0-29.8,0-44.7v-0.3c0.6,0,1.2,0.1,1.9,0.1c9.4,0.1,9.4,0.1,9.4-9.2c0-0.9,0-1.7,0-2.6
		c0-11.2,0-11.2-11.3-10.6V226c0-7.4,0-14.8,0-22.2v-0.3c0.6,0,1.2,0.1,1.9,0.1c9.4,0.1,9.4,0.1,9.4-9.2c0-0.9,0-1.7,0-2.6
		c0-11.2,0-11.2-11.3-10.6v-0.3c0-7.4,0-14.8,0-22.2v-0.3c0.6,0,1.2,0.1,1.9,0.1c9.4,0.1,9.4,0.1,9.4-9.2c0-0.9,0-1.7,0-2.6
		c0-11.2,0-11.2-11.3-10.6v-0.3c0-7.4,0-14.8,0-22.2v-0.3c0.6,0,1.2,0.1,1.9,0.1c9.4,0.1,9.4,0.1,9.4-9.2c0-0.9,0-1.7,0-2.6
		c0-11.2,0-11.2-11.3-10.6v-0.3c0-14.9,0-29.9,0-44.8c3.7,0,7.5,0,11.2-0.1c28.6,0,57.2,0.1,85.8-0.1c3.5,0,4.3,1,4.3,4.4
		c-0.1,66.8-0.1,133.6-0.1,200.4c-16.7-5-29.4,0.1-38.2,15.4c-5.5,9.6-7.5,20.1-6.7,31c1.2,16.5,7.1,30.6,22.4,39.1
		c0,8.5,0,16.9-0.1,25.4c-15,0-30,0-45,0c0-21.6,0-43.2,0-64.8c0-1.6,0.7-3.5-2.3-3.4c-10.5,0.2-21,0.2-31.4,0.2L237.5,293.6z
		 M283.4,91.2c-3.6,0-6.6,0.1-9.6,0c-2-0.1-2.6,0.7-2.6,2.6c0.1,5.7,0.1,11.5,0,17.2c0,2.2,0.8,2.8,2.8,2.7c5.7-0.1,11.5-0.1,17.2,0
		c2,0,2.6-0.7,2.5-2.6c-0.1-3,0-6,0-9c-0.1-3.5,1.5-7.9-0.6-10.1C290.9,89.6,286.3,91.6,283.4,91.2z M271.3,192.3
		c0,2.9,0.1,5.7,0,8.6c-0.1,2,0.5,2.9,2.7,2.9c5.7-0.1,11.5-0.1,17.2,0c2.2,0,2.7-0.9,2.7-2.9c-0.1-5.6-0.1-11.2,0-16.8
		c0.1-2.4-0.9-2.9-3.1-2.9c-4.9,0.1-9.7,0-14.6,0s-4.9,0-4.9,4.7C271.3,188,271.3,190.2,271.3,192.3z M271.3,237.5
		c0,2.7,0.1,5.5,0,8.2c-0.1,2.2,0.5,3.2,2.9,3.1c5.6-0.2,11.2-0.1,16.8,0c2,0,2.9-0.5,2.9-2.7c-0.1-5.7-0.1-11.5,0-17.2
		c0-1.8-0.4-2.7-2.5-2.7c-5.8,0.1-11.7,0.1-17.6,0c-2,0-2.6,0.8-2.5,2.7C271.3,231.7,271.3,234.6,271.3,237.5z M282.3,158.7
		c2.9,0,5.7-0.1,8.6,0c2,0.1,2.9-0.5,2.9-2.7c-0.1-5.7-0.1-11.5,0-17.2c0-2.2-0.9-2.7-2.9-2.7c-5.6,0.1-11.2,0.1-16.8,0
		c-2.4-0.1-2.9,1-2.9,3.1c0.1,5.5,0.2,11,0,16.4c-0.1,2.6,1,3.2,3.3,3C277.1,158.6,279.7,158.7,282.3,158.7z"/>
	<path class="st1" d="M316.3,336.5c-15.4-8.5-21.2-22.6-22.4-39.1c-0.8-10.9,1.2-21.4,6.7-31c8.7-15.3,21.4-20.4,38.2-15.4
		c18.8,11,23.3,28.7,22.2,48.7c-0.3,6-2,11.8-4.4,17.3c-3.8,8.5-9.6,15.1-17.8,19.5C331.2,339.4,323.8,339.4,316.3,336.5z"/>
	<path class="st6" d="M316.3,336.5c7.5,3,14.9,2.9,22.4,0c0,8.5,0,16.9,0.1,25.4c-7.5,0-15,0-22.5,0
		C316.3,353.4,316.3,344.9,316.3,336.5z"/>
	<path class="st7" d="M203.8,361.8c0-21.5,0.1-42.9-0.1-64.4c0-3.2,0.9-3.9,3.9-3.8c10,0.2,20,0,29.9-0.1l-0.1,0.3
		c0,22.7,0,45.3,0,68v0.3C226.3,362,215,361.9,203.8,361.8z"/>
	<path class="st8" d="M237.5,361.8c0-22.7,0-45.3,0-68c10.5,0,21,0,31.4-0.2c3-0.1,2.3,1.8,2.3,3.4c0,21.6,0,43.2,0,64.8
		C260,361.8,248.7,361.8,237.5,361.8z"/>
	<path class="st2" d="M192.5,113.7c-2.9,0-5.8-0.1-8.6,0c-1.9,0.1-2.7-0.6-2.6-2.6c0.1-5.7,0.1-11.5,0-17.2c0-1.8,0.4-2.8,2.5-2.7
		c5.9,0.1,11.7,0.1,17.6,0c1.8,0,2.5,0.6,2.4,2.4c-0.1,5.9-0.1,11.7,0,17.6c0,2-0.8,2.6-2.7,2.5
		C198.2,113.6,195.4,113.7,192.5,113.7z"/>
	<path class="st2" d="M203.8,147.5c0,2.9-0.1,5.8,0,8.6c0.1,2-0.7,2.6-2.6,2.6c-5.7-0.1-11.5-0.1-17.2,0c-2.2,0-2.7-0.9-2.7-2.9
		c0.1-5.6,0.1-11.2,0-16.9c0-2.1,0.7-2.8,2.8-2.8c5.6,0.1,11.2,0.1,16.9,0c2.4-0.1,3,0.9,2.9,3.1C203.7,142,203.8,144.8,203.8,147.5
		z"/>
	<path class="st2" d="M181.3,236.6c0.2-2.9-1.5-7.4,0.6-9.6c2.3-2.4,6.9-0.8,10.4-0.8c3.7,0,8.4-1.7,10.8,0.8
		c2.2,2.2,0.5,6.9,0.6,10.5c0.1,2.9-0.1,5.8,0,8.6c0.1,2-0.7,2.6-2.6,2.6c-5.7-0.1-11.5-0.1-17.2,0c-2.3,0-2.8-0.9-2.7-2.9
		C181.3,243,181.3,240.1,181.3,236.6z"/>
	<path class="st2" d="M193.3,181.2c2.9,0.2,7.4-1.5,9.6,0.6c2.4,2.3,0.8,6.9,0.8,10.4c0,3.7,1.6,8.4-0.8,10.8
		c-2.2,2.2-6.9,0.5-10.5,0.6c-2.9,0.1-5.8-0.1-8.6,0c-2,0.1-2.6-0.7-2.6-2.6c0.1-5.7,0.1-11.5,0-17.2c0-2.2,0.9-2.8,2.9-2.7
		C187,181.3,189.9,181.2,193.3,181.2z"/>
	<path class="st2" d="M237.5,113.8c-2.9,0-5.7-0.2-8.6-0.1c-1.8,0-2.7-0.4-2.7-2.5c0.1-5.9,0.1-11.7,0-17.6c0-2.1,0.9-2.5,2.7-2.5
		c2.9,0.1,5.7-0.1,8.6-0.1v0.3c0,7.4,0,14.8,0,22.2V113.8z"/>
	<path class="st2" d="M237.5,158.8c-2.9,0-5.7-0.2-8.6-0.1c-1.8,0-2.7-0.4-2.7-2.5c0.1-5.9,0.1-11.7,0-17.6c0-2.1,0.9-2.5,2.7-2.5
		c2.9,0.1,5.7-0.1,8.6-0.1v0.3c0,7.4,0,14.8,0,22.2V158.8z"/>
	<path class="st2" d="M237.5,203.8c-2.9,0-5.7-0.2-8.6-0.1c-1.8,0-2.7-0.4-2.7-2.5c0.1-5.9,0.1-11.7,0-17.6c0-2.1,0.9-2.5,2.7-2.5
		c2.9,0.1,5.7-0.1,8.6-0.1v0.3c0,7.4,0,14.8,0,22.2V203.8z"/>
	<path class="st2" d="M237.5,248.8c-2.9,0-5.7-0.2-8.6-0.1c-1.8,0-2.7-0.4-2.7-2.5c0.1-5.9,0.1-11.7,0-17.6c0-2.1,0.9-2.5,2.7-2.5
		c2.9,0.1,5.7-0.1,8.6-0.1v0.3c0,7.4,0,14.8,0,22.2V248.8z"/>
	<path class="st3" d="M102.7,226.2c2.7,0,5.5,0.1,8.2,0c2-0.1,3,0.4,2.9,2.7c-0.1,5.7-0.1,11.5,0,17.2c0,1.8-0.4,2.8-2.5,2.7
		c-5.9-0.1-11.7-0.1-17.6,0c-2,0-2.6-0.8-2.5-2.7c0.1-5.7,0.1-11.5,0-17.2c0-2.2,0.8-2.8,2.9-2.7C96.9,226.3,99.8,226.2,102.7,226.2
		z"/>
	<path class="st3" d="M101.6,203.7c-2.8-0.2-7.3,1.5-9.5-0.6c-2.4-2.3-0.6-6.8-0.8-10.4c-0.2-3,0.1-6-0.1-9c-0.1-2,0.7-2.6,2.6-2.6
		c5.9,0.1,11.7,0.1,17.6,0c1.8,0,2.4,0.7,2.4,2.4c-0.1,6-0.1,12,0,17.9c0,1.6-0.7,2.2-2.2,2.2C108.4,203.7,105.3,203.7,101.6,203.7z
		"/>
	<path class="st3" d="M283.4,91.2c2.9,0.4,7.5-1.6,9.8,0.8c2.1,2.2,0.5,6.7,0.6,10.1c0.1,3-0.1,6,0,9c0.1,1.9-0.6,2.7-2.5,2.6
		c-5.7-0.1-11.5-0.1-17.2,0c-2.1,0-2.9-0.6-2.8-2.7c0.1-5.7,0.1-11.5,0-17.2c0-1.9,0.6-2.7,2.6-2.6
		C276.8,91.3,279.8,91.2,283.4,91.2z"/>
	<path class="st3" d="M271.3,192.3c0-2.1,0-4.2,0-6.3c0-4.7,0-4.7,4.9-4.7s9.7,0.1,14.6,0c2.2-0.1,3.1,0.5,3.1,2.9
		c-0.2,5.6-0.1,11.2,0,16.8c0,2-0.5,2.9-2.7,2.9c-5.7-0.1-11.5-0.1-17.2,0c-2.2,0-2.8-0.9-2.7-2.9
		C271.3,198,271.3,195.1,271.3,192.3z"/>
	<path class="st3" d="M271.3,237.5c0-2.9,0.1-5.7,0-8.6c-0.1-1.8,0.5-2.7,2.5-2.7c5.8,0.1,11.7,0.1,17.6,0c2.1,0,2.5,0.9,2.5,2.7
		c-0.1,5.7-0.1,11.5,0,17.2c0,2.2-0.9,2.7-2.9,2.7c-5.6-0.1-11.2-0.1-16.8,0c-2.4,0.1-3-0.9-2.9-3.1
		C271.4,242.9,271.3,240.2,271.3,237.5z"/>
	<path class="st3" d="M282.3,158.7c-2.6,0-5.2-0.1-7.8,0c-2.3,0.1-3.4-0.4-3.3-3c0.2-5.5,0.1-11,0-16.4c0-2.1,0.4-3.2,2.9-3.1
		c5.6,0.2,11.2,0.1,16.8,0c2,0,3,0.4,2.9,2.7c-0.1,5.7-0.1,11.5,0,17.2c0,2.2-0.8,2.8-2.9,2.7C288.1,158.6,285.2,158.7,282.3,158.7z
		"/>
	<path class="st3" d="M237.5,113.6c0-7.4,0-14.8,0-22.2c11.3-0.6,11.3-0.6,11.3,10.6c0,0.9,0,1.7,0,2.6c0,9.3,0,9.3-9.4,9.2
		C238.7,113.7,238.1,113.6,237.5,113.6z"/>
	<path class="st3" d="M237.5,203.6c0-7.4,0-14.8,0-22.2c11.3-0.6,11.3-0.6,11.3,10.6c0,0.9,0,1.7,0,2.6c0,9.3,0,9.3-9.4,9.2
		C238.7,203.7,238.1,203.6,237.5,203.6z"/>
	<path class="st3" d="M237.5,248.6c0-7.4,0-14.8,0-22.2c11.3-0.6,11.3-0.6,11.3,10.6c0,0.9,0,1.7,0,2.6c0,9.3,0,9.3-9.4,9.2
		C238.7,248.7,238.1,248.6,237.5,248.6z"/>
	<path class="st3" d="M237.5,158.6c0-7.4,0-14.8,0-22.2c11.3-0.6,11.3-0.6,11.3,10.6c0,0.9,0,1.7,0,2.6c0,9.3,0,9.3-9.4,9.2
		C238.7,158.7,238.1,158.6,237.5,158.6z"/>
</g>
</svg>
